<?xml version="1.0" encoding="utf-8" ?>
<svg baseProfile="full" height="200mm" version="1.1" viewBox="0,0,200,200" width="200mm" xmlns="http://www.w3.org/2000/svg" xmlns:ev="http://www.w3.org/2001/xml-events" xmlns:xlink="http://www.w3.org/1999/xlink"><defs /><rect fill="#1a1a1a" height="200" width="200" x="0" y="0" /><text alignment-baseline="middle" fill="#e1ed5e" style="dominant-baseline: central; font-size:9.0px; font-family:Arial;" text-anchor="middle" x="100.0" y="100.0">2020</text><line stroke="#e1ed5e" stroke-width="0.3" x1="100.0" x2="100.0" y1="15.0" y2="10.0" /><path d="M 100.0 14.0 a86.0,86.0 0 0,1 42.35913384403234,11.155469271406648" fill="none" id="id37" stroke="none" /><text fill="#e1ed5e" style="font-size:6.75px; font-family:Arial;" text-anchor="middle"><textPath startOffset="22.145653131862478" xlink:href="#id37">January</textPath></text><line stroke="#e1ed5e" stroke-width="0.3" x1="143.13028292997686" x2="145.6673583964461" y1="26.7553504044142" y2="22.446841604673864" /><path d="M 143.63769802327073 25.89364864446614 a86.0,86.0 0 0,1 29.32050498858742,28.57503671076993" fill="none" id="id38" stroke="none" /><text fill="#e1ed5e" style="font-size:6.75px; font-family:Arial;" text-anchor="middle"><textPath startOffset="20.669276256404974" xlink:href="#id38">February</textPath></text><line stroke="#e1ed5e" stroke-width="0.3" x1="172.87174338648825" x2="177.1583165268699" y1="56.24261187166439" y2="53.66864786411523" /><path d="M 173.72905801456457 55.72781907015455 a86.0,86.0 0 0,1 12.242430191666344,42.057860355516425" fill="none" id="id39" stroke="none" /><text fill="#e1ed5e" style="font-size:6.75px; font-family:Arial;" text-anchor="middle"><textPath startOffset="22.145653131862474" xlink:href="#id39">March</textPath></text><path d="M 118.53625476483649 90.13048839642627 l 3.9004964953176238 -2.0767946874178334 a25.418930762489044,25.418930762489044 0 0,0 0.20176812635197539,0.38691698640458405 l -3.935572690644544 2.0095314579087513" fill="#ff0000" stroke="none" /><path d="M 119.83427380445688 93.10060997987247 l 8.4140387211595 -2.9268394373324544 a29.90855974291557,29.90855974291557 0 0,0 0.16451784143241086,0.486367765290246 l -8.463041984164276 2.7819699975680465" fill="#ff4406" stroke="none" /><path d="M 120.26092885502905 94.47779374421319 l 6.967574548868554 -1.8990434267218954 a28.22173531989483,28.22173531989483 0 0,0 0.12338343677671551,0.46850700633076725 l -6.99914746645 1.7791559160183297" fill="#ff2b04" stroke="none" /><line stroke="#e1ed5e" stroke-width="0.3" x1="184.99686870605535" x2="189.99668451229388" y1="99.2704041080226" y2="99.22748670261217" /><path d="M 185.99683186730306 99.26182062694052 a86.0,86.0 0 0,1 -10.086455211305974,41.156179273409016" fill="none" id="id40" stroke="none" /><text fill="#e1ed5e" style="font-size:6.75px; font-family:Arial;" text-anchor="middle"><textPath startOffset="21.40746469413373" xlink:href="#id40">April</textPath></text><path d="M 120.82617615685814 102.69636545807757 l 15.007374466133774 1.9430050827450183 a36.132632193981884,36.132632193981884 0 0,0 -0.08492112047936913,0.6144469243798545 l -14.971808829099196 -2.200340315324958" fill="#ff9d0e" stroke="none" /><path d="M 120.51834098615036 104.47187691870673 l 14.753864041458204 3.2155359984156644 a36.100204498977504,36.100204498977504 0 0,0 -0.1371621054555026,0.604361544743844 l -14.696491074445039 -3.4683318770985254" fill="#ff9d0e" stroke="none" /><path d="M 120.43855184770803 104.8234425847677 l 15.861963077891682 3.7433800964961965 a37.297692082968155,37.297692082968155 0 0,0 -0.15240986727966982,0.6218842684958046 l -15.795365684095717 -4.0151201896001005" fill="#ffae10" stroke="none" /><path d="M 119.94978838288452 106.5578916946017 l 15.399938894841327 5.062265796387924 a37.210633946830264,37.210633946830264 0 0,0 -0.20468431873300677,0.6051128183141665 l -15.310769154535954 -5.325880289176251" fill="#ffac0f" stroke="none" /><path d="M 119.58574465831526 107.57618678355244 l 14.558183754690864 5.631418221721282 a36.60940695296524,36.60940695296524 0 0,0 -0.2317572890015036,0.5841797633501582 l -14.459367790723235 -5.880499002285005" fill="#ffa40f" stroke="none" /><path d="M 119.4528033332814 107.91128576633889 l 15.121298385623364 6.149700412694487 a37.32398480864738,37.32398480864738 0 0,0 -0.24647009866058187,0.5914385124964504 l -15.013502442426296 -6.4083714346322145" fill="#ffae10" stroke="none" /><path d="M 119.16976305983485 108.57439118712176 l 14.351120978561719 6.419073874821172 a36.72129710780017,36.72129710780017 0 0,0 -0.2623221446115773,0.5732212275859416 l -14.238814369095085 -6.664484084621803" fill="#ffa60f" stroke="none" /><path d="M 118.70294669586154 109.54985784667822 l 14.62349117446687 7.466858790182696 a37.41951504528191,37.41951504528191 0 0,0 -0.29702529623423723,0.5695851697824734 l -14.493157809257685 -7.716790203069673" fill="#ffaf10" stroke="none" /><line stroke="#e1ed5e" stroke-width="0.3" x1="174.33088141563837" x2="178.70328620479359" y1="141.23008692659167" y2="143.65538615756765" /><path d="M 175.20536237346943 141.71514677278685 a86.0,86.0 0 0,1 -30.301960400862466,31.631185727798858" fill="none" id="id41" stroke="none" /><text fill="#e1ed5e" style="font-size:6.75px; font-family:Arial;" text-anchor="middle"><textPath startOffset="22.145653131862474" xlink:href="#id41">May</textPath></text><path d="M 116.57777611688842 112.89097897827486 l 10.561549115215303 8.212724472950143 a34.37890739117733,34.37890739117733 0 0,0 -0.3662721743462525,0.4627729271185681 l -10.41901051022749 -8.392817343983394" fill="#ff850c" stroke="none" /><path d="M 115.89218393027572 113.72728997021213 l 11.889457415555382 10.26983014089656 a36.710780017528485,36.710780017528485 0 0,0 -0.4160361656010487,0.4733727857484397 l -11.711410185995748 -10.472415204456293" fill="#ffa50f" stroke="none" /><path d="M 115.6541949942343 113.99807769240083 l 11.852745029439372 10.598797692977476 a36.90037978381537,36.90037978381537 0 0,0 -0.4262912845410202,0.4685687969521372 l -11.669056044056472 -10.800704065487285" fill="#ffa80f" stroke="none" /><path d="M 115.16444852881244 114.52719865689866 l 12.170291106759452 11.658863577152921 a37.853637160385624,37.853637160385624 0 0,0 -0.45354641590482403,0.4653785779768105 l -11.968357889703821 -11.86606484719747" fill="#ffb510" stroke="none" /><path d="M 112.7482090630111 116.68781488649013 l 9.680998794313682 12.67273818599284 a36.94741454864155,36.94741454864155 0 0,0 -0.5073179310750313,0.38070083333879745 l -9.462027874327884 -12.837058046595653" fill="#ffa90f" stroke="none" /><path d="M 112.16784306229584 117.11559508785304 l 13.803865532102181 19.41686557634266 a44.82354659655273,44.82354659655273 0 0,0 -0.6309552573782267,0.4404557721047302 l -13.468515183550196 -19.650966164252512" fill="#edff1a" stroke="none" /><path d="M 111.8722381534696 117.32195027204791 l 9.780974857568872 14.270734625167979 a38.300905638328956,38.300905638328956 0 0,0 -0.5455210974128859,0.3670509401724356 l -9.534557472058983 -14.436535239397536" fill="#ffbb11" stroke="none" /><path d="M 111.5731344415666 117.5232005979908 l 9.656917170118197 14.621803417610366 a38.52293309962022,38.52293309962022 0 0,0 -0.5549400357255774,0.3597054265620193 l -9.40449150213561 -14.785422685876279" fill="#ffbe11" stroke="none" /><line stroke="#e1ed5e" stroke-width="0.3" x1="143.1302829299769" x2="145.66735839644613" y1="173.24464959558577" y2="177.55315839532614" /><path d="M 143.63769802327073 174.10635135553383 a86.0,86.0 0 0,1 -40.68552437913181,11.842963189579606" fill="none" id="id42" stroke="none" /><text fill="#e1ed5e" style="font-size:6.75px; font-family:Arial;" text-anchor="middle"><textPath startOffset="21.407464694133747" xlink:href="#id42">June</textPath></text><path d="M 110.65571695917076 118.09573695890943 l 7.930677035121459 13.468023417242664 a36.62956470931931,36.62956470931931 0 0,0 -0.5445726667259247,0.31440917572752625 l -7.698311900535135 -13.602179490246362" fill="#ffa40f" stroke="none" /><path d="M 110.34350942703117 118.27599006163325 l 7.817311974212564 13.81244121806755 a36.871165644171775,36.871165644171775 0 0,0 -0.5535166313706901,0.3070263447989501 l -7.5790511546857795 -13.944600478299643" fill="#ffa80f" stroke="none" /><path d="M 109.71004243097381 118.62028667847754 l 6.863611228805283 13.161879532297238 a35.84399649430324,35.84399649430324 0 0,0 -0.5480253113959312,0.2798256288337024 l -6.636658695695769 -13.277763112803775" fill="#ff990e" stroke="none" /><path d="M 109.06512990194946 118.94263497670748 l 12.941736237048527 27.04325124458706 a50.98042652643879,50.98042652643879 0 0,0 -0.7926516491679386,0.37100099513866236 l -12.475595874009082 -27.261428471296256" fill="#a2ff22" stroke="none" /><path d="M 108.4095320186766 119.2426549942271 l 6.149067407226472 14.070269592971504 a36.355243938066025,36.355243938066025 0 0,0 -0.5740058915945476,0.24500898262155366 l -5.906626440461493 -14.173753225252462" fill="#ffa00e" stroke="none" /><path d="M 107.74402155503746 119.51999308798841 l 5.808635619054715 14.641556241644876 a36.751679813029504,36.751679813029504 0 0,0 -0.5884254358617685,0.22761559940940634 l -5.556437920699416 -14.739111729192324" fill="#ffa60f" stroke="none" /><path d="M 106.72888874123015 119.89276391827305 l 4.957714696284669 14.656602571394867 a36.47239263803681,36.47239263803681 0 0,0 -0.5948078658148466,0.19552515987876007 l -4.705384092822088 -14.739548652675648" fill="#ffa20f" stroke="none" /><path d="M 106.38641147887787 120.00534299687104 l 9.011678548829918 28.228954702205286 a50.63248612328367,50.63248612328367 0 0,0 -0.830274803692868,0.2572212565459348 l -8.525763112265425 -28.379492546557866" fill="#a6ff21" stroke="none" /><path d="M 104.9986988182912 120.39639698878246 l 3.7214691367871677 15.184864032548475 a36.634238971662285,36.634238971662285 0 0,0 -0.6120845965412253,0.14445029816378022 l -3.4602523865060633 -15.24651047435848" fill="#ffa40f" stroke="none" /><path d="M 104.64783097203109 120.47920084513623 l 3.4230092185819374 15.082410204659128 a36.46596552731522,36.46596552731522 0 0,0 -0.6116515987138768,0.13330661910847938 l -3.1635952032489247 -15.138948281901326" fill="#ffa20f" stroke="none" /><path d="M 103.2317021107853 120.74984581791261 l 2.4119863979471026 15.486682917115475 a36.67338591878469,36.67338591878469 0 0,0 -0.6228798118852915,0.09154188230278916 l -2.1457814804541258 -15.525805872717148" fill="#ffa50f" stroke="none" /><path d="M 102.875027216393 120.80226474461374 l 2.136622413184341 15.459535424537242 a36.60648553900088,36.60648553900088 0 0,0 -0.6232204972774965,0.08068837068160405 l -1.8709240940160687 -15.49393539141924" fill="#ffa40f" stroke="none" /><path d="M 100.72087961077811 120.9876233191556 l 0.5369767366291606 15.633491793945538 a36.642711072158924,36.642711072158924 0 0,0 -0.6288354860361246,0.016196571487257668 l -0.2685279365222922 -15.64040608278284" fill="#ffa40f" stroke="none" /><line stroke="#e1ed5e" stroke-width="0.3" x1="101.45913802915013" x2="101.54496967792366" y1="184.9874750549273" y2="189.98673829345242" /><path d="M 101.47630435890484 185.9873277026323 a86.0,86.0 0 0,1 -42.54439059252881,-10.42667462771756" fill="none" id="id43" stroke="none" /><text fill="#e1ed5e" style="font-size:6.75px; font-family:Arial;" text-anchor="middle"><textPath startOffset="22.145653131862474" xlink:href="#id43">July</textPath></text><path d="M 100.0 121.0 l 2.1623978144103184e-15 17.657318141980724 a38.657318141980724,38.657318141980724 0 0,0 -0.6636042706578679,-0.005696244545725765 l 0.3031113458090136 -17.654716295629434" fill="#ffc011" stroke="none" /><path d="M 98.55909050195518 120.95050786540614 l -1.2248823197073966 17.80952010382854 a38.85159217061057,38.85159217061057 0 0,0 -0.6649746108792917,-0.0514732404754227 l 1.5304259253619243 -17.785869096358063" fill="#ffc312" stroke="none" /><path d="M 97.84075906011543 120.88869738790638 l -1.8756496357730235 18.145208773919414 a39.2418930762489,39.2418930762489 0 0,0 -0.6694743544019118,-0.07501599780060847 l 2.1868598917757347 -18.110337015611833" fill="#ffc812" stroke="none" /><path d="M 97.12497278360702 120.80226474461374 l -2.4205934944746232 17.51420870871789 a38.68068945369559,38.68068945369559 0 0,0 -0.6569728964723244,-0.09655239167723625 l 2.7208914965546325 -17.470075243741775" fill="#ffc011" stroke="none" /><path d="M 96.05791012581884 120.62667999033965 l -3.516309289298198 18.398816052482335 a39.73181419807186,39.73181419807186 0 0,0 -0.6688255216785419,-0.13378383588689274 l 3.8316312965076977 -18.335742819932584" fill="#ffcf13" stroke="none" /><path d="M 95.35216902796893 120.47920084513623 l -4.073924099644727 17.950461272477476 a39.40695296523517,39.40695296523517 0 0,0 -0.6584110816469335,-0.15538322250824776 l 4.381467335031549 -17.877881906323" fill="#ffca12" stroke="none" /><path d="M 93.95794788825049 120.11202640906438 l -5.254634444389083 17.490969088138506 a39.263219398188724,39.263219398188724 0 0,0 -0.6438408277801174,-0.19946353424261626 l 5.554115905040835 -17.39818896608924" fill="#ffc812" stroke="none" /><path d="M 91.59046798132341 119.24265499422711 l -7.395820919503868 16.923085617253715 a39.46859479988314,39.46859479988314 0 0,0 -0.6185040741315866,-0.2766490053048382 l 7.685238396491091 -16.793632861039022" fill="#ffcb12" stroke="none" /><path d="M 91.26138138417905 119.09545874513695 l -8.079967256521565 17.65618665742286 a40.417177914110425,40.417177914110425 0 0,0 -0.6284126067819528,-0.2941288303866114 l 8.381868577175007 -17.514881595465724" fill="#ffd814" stroke="none" /><path d="M 90.6110303473126 118.78422872680471 l -8.078252091306844 16.16191558915762 a39.06836108676599,39.06836108676599 0 0,0 -0.5973232017726154,-0.30499748292141304 l 8.35450251479304 -16.02086015456337" fill="#ffc612" stroke="none" /><path d="M 89.97174638481275 118.45085714620012 l -8.767798828753508 16.13176230714334 a39.36050248320187,39.36050248320187 0 0,0 -0.5908870078535974,-0.3277550626820874 l 9.043430024763207 -15.978874329028105" fill="#ffca12" stroke="none" /><line stroke="#e1ed5e" stroke-width="0.3" x1="58.13341422392154" x2="55.67067388415222" y1="173.97424548756322" y2="178.32567169271397" /><path d="M 57.64086615596768 174.84453072859336 a86.0,86.0 0 0,1 -31.369924170532247,-30.572349798747897" fill="none" id="id44" stroke="none" /><text fill="#e1ed5e" style="font-size:6.75px; font-family:Arial;" text-anchor="middle"><textPath startOffset="22.145653131862474" xlink:href="#id44">August</textPath></text><path d="M 89.34428304082925 118.09573695890944 l -15.080738270860659 25.61039054821991 a50.7207128250073,50.7207128250073 0 0,0 -0.7464814713460644,-0.44824067538855356 l 15.518152498764149 -25.34773587229544" fill="#a5ff21" stroke="none" /><path d="M 88.1277618465304 117.32195027204791 l -8.824364763598162 12.875011909425703 a36.60882267017236,36.60882267017236 0 0,0 -0.5153213184596234,-0.3597343021552755 l 9.04408117323155 -12.721632791465298" fill="#ffa40f" stroke="none" /><path d="M 87.54013794807813 116.9041958592261 l -10.898457584054475 14.785850822153245 a39.36839030090564,39.36839030090564 0 0,0 -0.5405598892695485,-0.40564621849332777 l 11.150670462234789 -14.596585576395903" fill="#ffca12" stroke="none" /><path d="M 86.96720088162412 116.46651593811092 l -9.864300344079636 12.463221243476216 a36.89453695588665,36.89453695588665 0 0,0 -0.493243468022119,-0.3973220229655159 l 10.076794582457017 -12.29205092671729" fill="#ffa80f" stroke="none" /><path d="M 86.68645165197938 116.24036423190432 l -10.084758671031016 12.30176581983488 a36.90709903593339,36.90709903593339 0 0,0 -0.4865158221321538,-0.40586880235746564 l 10.294448827325064 -12.126834833565546" fill="#ffa80f" stroke="none" /><path d="M 85.34317274990678 115.03919595460226 l -10.718122243484547 10.997737636849083 a36.356704645048204,36.356704645048204 0 0,0 -0.44321953078956494,-0.4394313524345612 l 10.905333694404074 -10.812126274185863" fill="#ffa10e" stroke="none" /><path d="M 84.3458050057657 113.99807769240083 l -13.167006632185558 11.774018522292316 a38.66345311130587,38.66345311130587 0 0,0 -0.43816543188792995,-0.49855182856952934 l 13.36718312803208 -11.546254415911488" fill="#ffc011" stroke="none" /><path d="M 83.20337586046588 112.60449989151573 l -14.649465851508028 10.993232282997187 a39.31551270815074,39.31551270815074 0 0,0 -0.40045279844284254,-0.5432911302745013 l 14.8360206695347 -10.740134843453806" fill="#ffc912" stroke="none" /><path d="M 82.78059297857968 112.02048342749411 l -13.043372039513327 9.105286682902136 a36.90709903593339,36.90709903593339 0 0,0 -0.3581926460903071,-0.5226137753626761 l 13.19775442241896 -8.880038172469408" fill="#ffa80f" stroke="none" /><path d="M 82.37810715431573 111.42229804090323 l -17.742505108390013 11.500477452393065 a42.14373356704645,42.14373356704645 0 0,0 -0.3882888978121722,-0.6104546404324269 l 17.937311697828076 -11.194209137281968" fill="#ffee16" stroke="none" /><path d="M 81.99639281039703 110.81064883170644 l -15.379317773014073 9.23483843900414 a38.9389424481449,38.9389424481449 0 0,0 -0.3391883939766455,-0.5760160466381221 l 15.535579877120488 -8.969471224072457" fill="#ffc412" stroke="none" /><line stroke="#e1ed5e" stroke-width="0.3" x1="26.387840678322732" x2="22.057713659400548" y1="142.50000000000003" y2="145.00000000000006" /><path d="M 25.521815274538298 143.00000000000003 a86.0,86.0 0 0,1 -11.493303480769221,-40.785679425670985" fill="none" id="id45" stroke="none" /><text fill="#e1ed5e" style="font-size:6.75px; font-family:Arial;" text-anchor="middle"><textPath startOffset="21.40746469413373" xlink:href="#id45">September</textPath></text><path d="M 80.9802524753101 108.90220220490708 l -16.557973100003746 7.749967471876244 a39.28191644756062,39.28191644756062 0 0,0 -0.2806141770190372,-0.6131926195824953 l 16.688571741877837 -7.46458587007906" fill="#ffc812" stroke="none" /><path d="M 80.68587082218212 108.24405325689762 l -16.644441108165825 7.104522169428608 a39.097283085013146,39.097283085013146 0 0,0 -0.2581801291777213,-0.6195383228506507 l 16.76394708188003 -6.817751337136676" fill="#ffc612" stroke="none" /><path d="M 80.28708602549918 107.23885506374661 l -14.363938735951537 5.274637265124157 a36.30178206251826,36.30178206251826 0 0,0 -0.20978943324804986,-0.586818382443002 l 14.45236833924353 -5.027283926300234" fill="#ffa00e" stroke="none" /><path d="M 80.16572619554312 106.89939002012753 l -16.979559939135303 5.906372350466559 a38.97750511247443,38.97750511247443 0 0,0 -0.21440333672516104,-0.6338453680516583 l 17.078448697432833 -5.614025307940739" fill="#ffc412" stroke="none" /><path d="M 79.94057633289273 106.21446072829308 l -20.04379649899578 6.209619391665725 a41.98364008179959,41.98364008179959 0 0,0 -0.20736655471082704,-0.6902558183155563 l 20.147439373710235 -5.8646259697594445" fill="#ffec16" stroke="none" /><path d="M 79.73907114497094 105.5222062557868 l -17.460651624324807 4.75897824427863 a39.09757522640958,39.09757522640958 0 0,0 -0.1709318419434613,-0.6490560455084435 l 17.539772947073 -4.458541694397384" fill="#ffc612" stroke="none" /><path d="M 79.64726062577567 105.17358676015961 l -18.30990567800925 4.654306423020761 a39.89219982471516,39.89219982471516 0 0,0 -0.1630118256983376,-0.6651438767711335 l 18.387105030223882 -4.3393067216415275" fill="#ffd113" stroke="none" /><path d="M 79.48165901384964 104.47187691870673 l -17.312555367638964 3.7731908639511498 a38.71895997662868,38.71895997662868 0 0,0 -0.13596308300839618,-0.650632571385283 l 17.374776161471726 -3.4754418412804577" fill="#ffc111" stroke="none" /><path d="M 79.17382384314188 102.69636545807758 l -18.33658429625295 2.3740379483567766 a39.489628980426524,39.489628980426524 0 0,0 -0.08126949423400247,-0.6730279956211253 l 18.374635876746613 -2.058916275812252" fill="#ffcb12" stroke="none" /><path d="M 79.0935383218832 101.97986365728391 l -29.04882219646687 2.750953663951977 a50.178790534618756,50.178790534618756 0 0,0 -0.07384974442066476,-0.8582459727704957 l 29.091765563585277 -2.251886643805819" fill="#acff21" stroke="none" /><path d="M 79.03789590574601 101.26102812881392 l -16.38638556076291 0.9857642643505653 a37.41600934852468,37.41600934852468 0 0,0 -0.03306579344698266,-0.6414675592737532 l 16.400892943666463 -0.7043249117000813" fill="#ffaf10" stroke="none" /><path d="M 79.00696218219943 100.54070618675478 l -15.225158111867856 0.39214606560781223 a36.230207420391466,36.230207420391466 0 0,0 -0.010676815086457628,-0.6218709523695727 l 15.229646358552978 -0.13072819726918714" fill="#ff9f0e" stroke="none" /><line stroke="#e1ed5e" stroke-width="0.3" x1="15.003131293944662" x2="10.003315487706104" y1="100.72959589197737" y2="100.7725132973878" /><path d="M 14.003168132696942 100.73817937305945 a86.0,86.0 0 0,1 10.791469493833604,-42.45332614584628" fill="none" id="id46" stroke="none" /><text fill="#e1ed5e" style="font-size:6.75px; font-family:Arial;" text-anchor="middle"><textPath startOffset="22.145653131862435" xlink:href="#id46">October</textPath></text><path d="M 79.06263194458094 98.37931529534042 l -10.13416032653333 -0.7844481021830054 a31.1644756061934,31.1644756061934 0 0,0 0.045865763881523504,-0.5330297003485093 l 10.119200939954064 0.9582988499071953" fill="#ff5608" stroke="none" /><path d="M 79.22317932658666 96.9465228501225 l -15.292350461012383 -2.2474488967588746 a36.45661700262927,36.45661700262927 0 0,0 0.09631231966631133,-0.6183941820540659 l 15.251516649207803 2.5096312607443907" fill="#ffa20f" stroke="none" /><path d="M 79.34024301695615 96.23510406497455 l -15.205900737335678 -2.77102164954706 a36.45632486123284,36.45632486123284 0 0,0 0.11748260348217726,-0.614718624841655 l 15.156091841571342 3.0316428394220294" fill="#ffa20f" stroke="none" /><path d="M 80.28708602549916 92.7611449362534 l -15.127686289879238 -5.55509594593233 a37.11539585159217,37.11539585159217 0 0,0 0.2247590243049284,-0.5962000149472707 l 15.030096581759874 5.813964241073746" fill="#ffab0f" stroke="none" /><path d="M 80.41425534168474 92.42381321644754 l -15.183767964246552 -5.87340763305688 a37.280163599182,37.280163599182 0 0,0 0.2360035403026024,-0.5948830904855765 l 15.080705748977818 6.13319174075604" fill="#ffad10" stroke="none" /><path d="M 80.83023694016515 91.42560881287825 l -14.689804660183112 -6.570562777727889 a37.09231668127373,37.09231668127373 0 0,0 0.26497255889082644,-0.5790128611097173 l 14.574847636437239 6.821764621052278" fill="#ffab0f" stroke="none" /><path d="M 80.9802524753101 91.09779779509293 l -19.357632943899297 -9.060349641932046 a42.37306456324861,42.37306456324861 0 0,0 0.3140060833259811,-0.6561519450074922 l 19.19924760261341 9.391314089004625" fill="#fff116" stroke="none" /><path d="M 81.29705330413844 90.45014215332179 l -8.539823274648631 -4.360494612685506 a30.588664913818285,30.588664913818285 0 0,0 0.24280398199823205,-0.46560865038666627 l 8.46371122367546 4.506449506176659" fill="#ff4e07" stroke="none" /><path d="M 81.46374523516351 90.13048839642627 l -14.185522458278317 -7.55299170630322 a37.07099035933392,37.07099035933392 0 0,0 0.3039020659392304,-0.5591455721251425 l 14.053775042723737 7.795392111902982" fill="#ffaa0f" stroke="none" /><line stroke="#e1ed5e" stroke-width="0.3" x1="26.387840678322718" x2="22.05771365940052" y1="57.49999999999999" y2="54.99999999999999" /><path d="M 25.521815274538284 56.99999999999999 a86.0,86.0 0 0,1 29.574782752854787,-30.34633250058573" fill="none" id="id47" stroke="none" /><text fill="#e1ed5e" style="font-size:6.75px; font-family:Arial;" text-anchor="middle"><textPath startOffset="21.40746469413373" xlink:href="#id47">November</textPath></text><path d="M 81.81346652052679 89.5 l -15.456137289685993 -8.923605024832023 a38.84721004966404,38.84721004966404 0 0,0 0.3383893336282949,-0.5746590674753482 l 15.300674245927919 9.187615260600944" fill="#ffc312" stroke="none" /><path d="M 82.18462484594161 88.88188828441811 l -15.358304229398382 -9.584717734414172 a39.103710195734735,39.103710195734735 0 0,0 0.3602798149839514,-0.5664197100414619 l 15.19150672278854 9.846951119134305" fill="#ffc612" stroke="none" /><path d="M 83.2033758604659 87.39550010848427 l -50.389872418602316 -37.8134996745472 a84.0,84.0 0 0,0 0.875392090582773,-1.1459163470364628 l 49.73332835066524 38.672936934824556" fill="#4dd2ff" stroke="none" /><path d="M 83.8745106332314 86.54754324733833 l -11.973820241790705 -9.988986709375926 a36.593339176161265,36.593339176161265 0 0,0 0.40654404615364337,-0.4789078641285281 l 11.800581632129946 10.193061355954011" fill="#ffa40f" stroke="none" /><path d="M 84.10781606972428 86.27271002978789 l -11.825121960389202 -10.214258707020232 a36.62576687116564,36.62576687116564 0 0,0 0.4150727280652067,-0.47227657068844225 l 11.648038168365403 10.415747555519973" fill="#ffa40f" stroke="none" /><path d="M 84.58840730492382 85.73525988315684 l -11.490891060268808 -10.635797216342194 a36.65761028337715,36.65761028337715 0 0,0 0.43141497765266296,-0.45814775604277347 l 11.306620248879874 10.831486432329479" fill="#ffa50f" stroke="none" /><path d="M 85.08716467003674 85.21462403516908 l -11.618580607643837 -11.519277096592948 a37.36108676599474,37.36108676599474 0 0,0 0.45546381356284094,-0.4515709838471633 l 11.41912487395102 11.717028090668784" fill="#ffae10" stroke="none" /><path d="M 85.34317274990677 84.96080404539775 l -14.374631892162574 -14.749638657311236 a41.595676307332745,41.595676307332745 0 0,0 0.5156428100875977,-0.49397414775165954 l 14.119316596209675 14.994224935368463" fill="#ffe715" stroke="none" /><path d="M 87.25179093698888 83.31218511350988 l -11.357988693174802 -14.867971795700972 a39.70990359333918,39.70990359333918 0 0,0 0.545249143418168,-0.40916512222759416 l 11.101086560845882 15.060755945192566" fill="#ffce13" stroke="none" /><path d="M 87.54013794807813 83.09580414077388 l -9.637963213458148 -13.075748123486077 a37.24393806602396,37.24393806602396 0 0,0 0.5179017697016587,-0.37492094181839386 l 9.41208043338252 13.23926983667755" fill="#ffad10" stroke="none" /><path d="M 88.12776184653039 82.6780497279521 l -8.649294546124255 -12.619579230094413 a36.299152789950334,36.299152789950334 0 0,0 0.5170100637337463,-0.34786744430610894 l 8.431388194293518 12.766196348457632" fill="#ffa00e" stroke="none" /><path d="M 88.4268655584334 82.4767994020092 l -16.410045505767943 -24.846900437527793 a50.776803973122995,50.776803973122995 0 0,0 0.7314625119018207,-0.4741251629354054 l 15.981097361609097 25.124939442167104" fill="#a5ff21" stroke="none" /><path d="M 89.03521579738668 82.08984904055464 l -8.456168243399338 -13.812515319877747 a37.1954425942156,37.1954425942156 0 0,0 0.5474234719628768,-0.3287120661598185 l 8.217812014879028 13.95564138657349" fill="#ffac0f" stroke="none" /><line stroke="#e1ed5e" stroke-width="0.3" x1="56.869717070023135" x2="54.33264160355391" y1="26.7553504044142" y2="22.446841604673864" /><path d="M 56.362301976729285 25.89364864446614 a86.0,86.0 0 0,1 42.16139366436587,-11.88097634709845" fill="none" id="id48" stroke="none" /><text fill="#e1ed5e" style="font-size:6.75px; font-family:Arial;" text-anchor="middle"><textPath startOffset="22.145653131862474" xlink:href="#id48">December</textPath></text><path d="M 89.65649057296885 81.72400993836675 l -7.494846236472391 -13.242675157550883 a36.21647677475899,36.21647677475899 0 0,0 0.5436883232263,-0.3015747479469182 l 7.266413725089989 13.369382820930948" fill="#ff9f0e" stroke="none" /><path d="M 90.28995756902619 81.37971332152246 l -10.017487258998475 -19.209852674334897 a42.66491381828805,42.66491381828805 0 0,0 0.6523115435708722,-0.333074922051055 l 9.686248493714022 19.378985548058786" fill="#fff517" stroke="none" /><path d="M 90.61103034731259 81.2157712731953 l -14.457469400507254 -28.924623475822635 a53.33654688869412,53.33654688869412 0 0,0 0.8224997166503583,-0.4023258274001017 l 13.958809434594842 29.168543053319954" fill="#87ff25" stroke="none" /><path d="M 91.26138138417902 80.90454125486306 l -6.7578018479316695 -14.767016626788216 a37.23984808647385,37.23984808647385 0 0,0 0.5835778516643512,-0.2610269502388626 l 6.503310593411699 14.880847327936925" fill="#ffad10" stroke="none" /><path d="M 91.92203290615298 80.6158196554323 l -6.314328743043147 -15.152090332636563 a37.415132924335374,37.415132924335374 0 0,0 0.5949817487642121,-0.24197389751926052 l 6.053292533088494 15.258251486735114" fill="#ffaf10" stroke="none" /><path d="M 92.25597844496254 80.48000691201159 l -6.6996780391222535 -16.887565212204702 a39.16798130295062,39.16798130295062 0 0,0 0.6271124636279443,-0.24258057284137588 l 6.40879331300078 17.000085673184117" fill="#ffc712" stroke="none" /><path d="M 92.93061703081487 80.22567764915836 l -11.847508138666909 -33.13958884522336 a56.19368974583698,56.19368974583698 0 0,0 0.9111250955214913,-0.31693660444054855 l 11.276877271100412 33.33808388223249" fill="#67ff28" stroke="none" /><path d="M 93.61358852112211 79.99465700312896 l -4.879430530604631 -15.284746640111765 a37.04469763365469,37.04469763365469 0 0,0 0.6074613634565557,-0.1881930832014046 l 4.616328534276459 15.36625631111981" fill="#ffaa0f" stroke="none" /><path d="M 93.95794788825049 79.88797359093562 l -5.4409821139597545 -18.111259873844382 a39.91089687408706,39.91089687408706 0 0,0 0.6578455880873697,-0.19148926314790907 l 5.12927651349076 18.201992831294813" fill="#ffd113" stroke="none" /><path d="M 94.6519064749342 79.69241777938228 l -4.087534719851918 -15.521035115406113 a37.05024832018697,37.05024832018697 0 0,0 0.6164362213218406,-0.15669567690492103 l 3.8204932053046994 15.588916024146297" fill="#ffaa0f" stroke="none" /><path d="M 95.35216902796891 79.52079915486377 l -8.464803076310428 -37.29748421520881 a59.24598305579901,59.24598305579901 0 0,0 0.9937458045999669,-0.2165822728870653 l 7.823294855091342 37.43729794622959" fill="#46ff2c" stroke="none" /><path d="M 96.05791012581881 79.37332000966035 l -3.0286687739994766 -15.84727481917126 a37.13409290096406,37.13409290096406 0 0,0 0.6271510930029004,-0.11428782064722766 l 2.756182947445538 15.896930813749847" fill="#ffab0f" stroke="none" /><path d="M 96.41257539226777 79.30868818359171 l -2.7681105865430715 -15.96572626641768 a37.20391469471224,37.20391469471224 0 0,0 0.6302033062573101,-0.10369971422415772 l 2.4936297772326887 16.010891979137504" fill="#ffac0f" stroke="none" /><path d="M 97.12497278360702 79.19773525538626 l -2.215654364822309 -16.031371256866944 a37.18375693835816,37.18375693835816 0 0,0 0.6330484652802433,-0.081960797902338 l 1.9401280776512717 16.067043650969676" fill="#ffac0f" stroke="none" /><path d="M 97.84075906011542 79.11130261209362 l -3.025454522838148 -29.2685280373653 a50.42448144902133,50.42448144902133 0 0,0 0.8617794480065685,-0.08161140971493647 l 2.522575511446564 29.31615120258542" fill="#a9ff21" stroke="none" /><path d="M 99.27912038922189 79.0123766808444 l -0.6249267969566954 -18.194061838448334 a39.20479111890155,39.20479111890155 0 0,0 0.6728040354233171,-0.017329045352289796 l 0.3125094474626343 18.20210860115067" fill="#ffc712" stroke="none" /></svg>