<?xml version="1.0" encoding="utf-8" ?>
<svg baseProfile="full" height="200mm" version="1.1" viewBox="0,0,200,200" width="200mm" xmlns="http://www.w3.org/2000/svg" xmlns:ev="http://www.w3.org/2001/xml-events" xmlns:xlink="http://www.w3.org/1999/xlink"><defs /><rect fill="#1a1a1a" height="200" width="200" x="0" y="0" /><text alignment-baseline="middle" fill="#e1ed5e" style="dominant-baseline: central; font-size:9.0px; font-family:Arial;" text-anchor="middle" x="100.0" y="100.0">2023</text><line stroke="#e1ed5e" stroke-width="0.3" x1="100.0" x2="100.0" y1="15.0" y2="10.0" /><path d="M 100.0 14.0 a86.0,86.0 0 0,1 42.46469731375804,11.215312516191453" fill="none" id="id49" stroke="none" /><text fill="#e1ed5e" style="font-size:6.75px; font-family:Arial;" text-anchor="middle"><textPath startOffset="22.20632615414155" xlink:href="#id49">January</textPath></text><path d="M 102.16513564639614 79.11191278185805 l 2.4038061248881766 -23.19065416328261 a44.314903482687356,44.314903482687356 0 0,0 0.7580661362730541,0.0851775631486203 l -2.802638964670956 23.14584064666339" fill="#ff3e05" stroke="none" /><path d="M 104.66035177308747 79.52364482259891 l 5.372489307055631 -23.605299469739343 a45.208961241872885,45.208961241872885 0 0,0 0.7573067477104866,0.17923003958337855 l -5.778019741728642 23.509323518015094" fill="#ff5007" stroke="none" /><path d="M 106.40334571778207 80.00007090966166 l 9.00065490446803 -28.112250656101953 a50.51796784436268,50.51796784436268 0 0,0 0.8258898164940429,0.2722828875378606 l -9.48322754320449 27.953154044304856" fill="#ffb811" stroke="none" /><path d="M 107.08798089147638 80.2323363322302 l 7.9654621780478 -22.214870455328263 a44.599768156846935,44.599768156846935 0 0,0 0.7204299821546629,0.26534044238628535 l -8.34667448597504 22.074466745135656" fill="#ff4406" stroke="none" /><path d="M 109.73455568895987 81.39251694778311 l 10.839380484117617 -20.719342012033835 a44.38339801421299,44.38339801421299 0 0,0 0.6738983956541587,0.3599731843790607 l -11.194423926300088 20.52969010115302" fill="#ff4006" stroke="none" /><path d="M 110.36928655335952 81.73862282372117 l 10.636120959327732 -18.731299933830083 a42.54039614938763,42.54039614938763 0 0,0 0.6336559484641817,0.36705442501187546 l -10.956973640257242 18.545441351428156" fill="#ff1902" stroke="none" /><line stroke="#e1ed5e" stroke-width="0.3" x1="143.23703022742887" x2="145.7803849466894" y1="26.81831364943548" y2="22.513508569990506" /><path d="M 143.74570117128098 25.957352633546492 a86.0,86.0 0 0,1 28.547481713284135,27.462654790039103" fill="none" id="id50" stroke="none" /><text fill="#e1ed5e" style="font-size:6.75px; font-family:Arial;" text-anchor="middle"><textPath startOffset="19.985693538727396" xlink:href="#id50">February</textPath></text><path d="M 111.2981086023043 82.29822771554956 l 14.147141683719424 -22.165611021829086 a47.295549619474826,47.295549619474826 0 0,0 0.682481479445553,0.44390493868880543 l -14.526590188949257 21.91880715898075" fill="#ff7a0b" stroke="none" /><path d="M 113.6212207817346 84.01681056812373 l 18.95498198483235 -22.24184400179707 a50.22312383448414,50.22312383448414 0 0,0 0.653154598596625,0.5664092316107008 l -19.33503038207574 21.912269776766696" fill="#ffb210" stroke="none" /><path d="M 113.89432698308785 84.25364557470407 l 15.25037616159811 -17.283156532295774 a44.04954387379668,44.04954387379668 0 0,0 0.5642306334980798,0.5065718337515343 l -15.545617782692181 17.018085689774942" fill="#ff3905" stroke="none" /><path d="M 114.42810811169701 84.74124197986012 l 14.765107130426944 -15.615158626512924 a42.4904994707928,42.4904994707928 0 0,0 0.5271184333056762,0.5070875152046731 l -15.031708807345039 15.35868802454595" fill="#ff1802" stroke="none" /><path d="M 114.94478906791727 85.2469230424477 l 16.617707596209403 -16.40453524709031 a44.35073837004183,44.35073837004183 0 0,0 0.5316507513758693,0.5479128327132483 l -16.89762261128838 16.116058218826947" fill="#ff3f05" stroke="none" /><path d="M 115.4437574822437 85.77008943001954 l 20.848021793478917 -19.20941105319071 a49.348571140567515,49.348571140567515 0 0,0 0.5702259339890801,0.6296577185402589 l -21.17559136808403 18.847700547380903" fill="#ffa10e" stroke="none" /><path d="M 115.9244219780498 86.31012108654704 l 19.218070381006594 -16.52135674556 a46.34343027065168,46.34343027065168 0 0,0 0.5148300198448996,0.609396357748953 l -19.499611014338612 16.18810143818194" fill="#ff6709" stroke="none" /><path d="M 116.38621287248628 86.86637796730983 l 21.422288937647725 -17.170059254787127 a48.45405977521294,48.45405977521294 0 0,0 0.5160263213039296,0.6553010247626003 l -21.71466933954562 16.79876583607149" fill="#ff900d" stroke="none" /><path d="M 116.82858285166822 87.43820079747576 l 19.710187014609108 -14.712790358171866 a45.59588730406733,45.59588730406733 0 0,0 0.46407361107116485,0.632995883964655 l -19.9605232381939 14.371332030535717" fill="#ff5808" stroke="none" /><path d="M 117.2510076193507 88.02491185347247 l 18.515454670298514 -12.852826144552182 a43.53923693362229,43.53923693362229 0 0,0 0.4220725439589417,0.6193393772433228 l -18.73395167992619 12.532208744038453" fill="#ff2e04" stroke="none" /><path d="M 117.45458315368197 88.32363383020206 l 24.981618432890773 -16.71162936223285 a51.055944760848746,51.055944760848746 0 0,0 0.48236529645391985,0.7346754396801051 l -25.26558036470262 16.27913585857507" fill="#ffc212" stroke="none" /><line stroke="#e1ed5e" stroke-width="0.3" x1="172.23445277983987" x2="176.4835382374775" y1="55.19839476539836" y2="52.563006222186495" /><path d="M 173.08426987136738 54.67131705675599 a86.0,86.0 0 0,1 12.851231095245387,41.99856678651699" fill="none" id="id51" stroke="none" /><text fill="#e1ed5e" style="font-size:6.75px; font-family:Arial;" text-anchor="middle"><textPath startOffset="22.20632615414155" xlink:href="#id51">March</textPath></text><path d="M 117.84615892207809 88.93136811851018 l 19.66113796816845 -12.194327053291666 a44.13572904591502,44.13572904591502 0 0,0 0.39487648661177444,0.6490731182085158 l -19.868130253066447 11.854086161876069" fill="#ff3a05" stroke="none" /><path d="M 118.21658344932153 89.55222093294921 l 30.01767987497156 -17.216076127098372 a55.60425381785192,55.60425381785192 0 0,0 0.4690413654985013,0.8343722521798254 l -30.309578881762494 16.69682036498375" fill="#ebff1a" stroke="none" /><path d="M 118.3937258080291 89.86733742301442 l 47.817436092083334 -26.341479169280344 a75.59286326294037,75.59286326294037 0 0,0 0.6180324942444244,1.145120348966214 l -48.263776685546226 25.51447783698167" fill="#3effb4" stroke="none" /><path d="M 118.73160827565052 90.50648371742162 l 24.545558966116456 -12.440131155888272 a48.51801824504813,48.51801824504813 0 0,0 0.3711397058290876,0.7481949996996117 l -24.756058684898953 12.01577656768971" fill="#ff920d" stroke="none" /><path d="M 118.89224826269711 90.83032412892265 l 26.27655773146507 -12.753776790078431 a50.2081548309057,50.2081548309057 0 0,0 0.37068395280268446,0.7807549407964904 l -26.492199878109506 12.299579433641401" fill="#ffb210" stroke="none" /><path d="M 119.196687751892 91.48605970444005 l 26.44663816229752 -11.729372339761385 a49.93100146161987,49.93100146161987 0 0,0 0.3416927988996887,0.7886740903079476 l -26.64462167103989 11.272399104866833" fill="#ffac10" stroke="none" /><path d="M 119.47837535516314 92.15188598940014 l 52.0924912225073 -20.98880439235613 a77.16188700166322,77.16188700166322 0 0,0 0.4857761507104408,1.236247317420411 l -52.446060923099445 20.089008070039934" fill="#41ffcc" stroke="none" /><path d="M 119.7369772167798 92.82701384747503 l 19.11084862578761 -6.945432983488087 a41.333803739730854,41.333803739730854 0 0,0 0.23726965234459652,0.6707932582531786 l -19.22757135894202 6.615442098808294" fill="#ff0000" stroke="none" /><path d="M 119.85752413597 93.16781622104841 l 25.70696308598551 -8.844742929660196 a48.185978529308,48.185978529308 0 0,0 0.2631016524012304,0.7866404524692696 l -25.85540203215851 8.400929374268614" fill="#ff8b0c" stroke="none" /><path d="M 120.18372546131832 94.20196356495316 l 25.760419326493814 -7.400013943082066 a47.80222771029686,47.80222771029686 0 0,0 0.22037562089313933,0.7928083610899883 l -25.883981717953315 6.955494278573126" fill="#ff840c" stroke="none" /><path d="M 120.28053869075195 94.5502522615342 l 48.75801474357062 -13.10216087613222 a71.48772743309308,71.48772743309308 0 0,0 0.30911180367527824,1.1911338742013702 l -48.9763228791162 12.260930576382" fill="#36ff72" stroke="none" /><path d="M 120.45610955862082 95.25157060432595 l 25.718343477637045 -5.969939583442834 a47.40214706920014,47.40214706920014 0 0,0 0.1776578591667126,0.7964053474389051 l -25.817295723805795 5.526356066453965" fill="#ff7c0b" stroke="none" /><path d="M 120.53481517161879 95.60439243477599 l 37.08544417441249 -7.938374784986677 a58.92555818759135,58.92555818759135 0 0,0 0.20377216781831917,0.9936654584945468 l -37.2165956381458 7.298833670328719" fill="#b3ff20" stroke="none" /><path d="M 120.67395015179393 96.31383870115 l 26.733964297320032 -4.766660644630965 a48.155586915982056,48.155586915982056 0 0,0 0.13847744053606004,0.8173016928022808 l -26.812053599376316 4.305773163512847" fill="#ff8b0c" stroke="none" /><path d="M 120.78858239683441 97.02765380044208 l 62.36574719050324 -8.917038598673738 a84.0,84.0 0 0,0 0.19233600376865523,1.4331266317413425 l -62.50999919332973 7.84219362486773" fill="#4dd2ff" stroke="none" /><path d="M 120.87857604477298 97.74499172005257 l 34.46911040654729 -3.722865448414797 a55.66957310619424,55.66957310619424 0 0,0 0.09469891254269332,0.9536051257874468 l -34.52808644477221 3.1289847919229152" fill="#eaff1a" stroke="none" /><line stroke="#e1ed5e" stroke-width="0.3" x1="184.98032266829074" x2="189.97916517819016" y1="98.17113171792111" y2="98.06355123074" /><path d="M 185.9800911702706 98.14961562048488 a86.0,86.0 0 0,1 -9.607161424134198,41.387399972396054" fill="none" id="id52" stroke="none" /><text fill="#e1ed5e" style="font-size:6.75px; font-family:Arial;" text-anchor="middle"><textPath startOffset="21.466115282336823" xlink:href="#id52">April</textPath></text><line stroke="#e1ed5e" stroke-width="0.3" x1="174.80103733775053" x2="179.2010983576182" y1="140.37084112569926" y2="142.7455964860345" /><path d="M 175.68104954172406 140.8457921977663 a86.0,86.0 0 0,1 -30.038265399797805,32.042727171017184" fill="none" id="id53" stroke="none" /><text fill="#e1ed5e" style="font-size:6.75px; font-family:Arial;" text-anchor="middle"><textPath startOffset="22.206326154141568" xlink:href="#id53">May</textPath></text><line stroke="#e1ed5e" stroke-width="0.3" x1="143.8653032363475" x2="146.44561519142675" y1="172.8068346515853" y2="177.08958963109032" /><path d="M 144.38136562736335 173.6633856474863 a86.0,86.0 0 0,1 -40.68145358897372,12.25698825130547" fill="none" id="id54" stroke="none" /><text fill="#e1ed5e" style="font-size:6.75px; font-family:Arial;" text-anchor="middle"><textPath startOffset="21.466115282336833" xlink:href="#id54">June</textPath></text><line stroke="#e1ed5e" stroke-width="0.3" x1="102.19456741930631" x2="102.32365962044197" y1="184.97166512339345" y2="189.96999836594603" /><path d="M 102.22038585953345 185.97133177190398 a86.0,86.0 0 0,1 -42.740103519485714,-10.115201625700543" fill="none" id="id55" stroke="none" /><text fill="#e1ed5e" style="font-size:6.75px; font-family:Arial;" text-anchor="middle"><textPath startOffset="22.20632615414155" xlink:href="#id55">July</textPath></text><line stroke="#e1ed5e" stroke-width="0.3" x1="58.666819895761336" x2="56.23545636021788" y1="174.27360380694188" y2="178.64263932499728" /><path d="M 58.180547188652646 175.14741091055294 a86.0,86.0 0 0,1 -31.652253787137756,-30.449443065178592" fill="none" id="id56" stroke="none" /><text fill="#e1ed5e" style="font-size:6.75px; font-family:Arial;" text-anchor="middle"><textPath startOffset="22.20632615414155" xlink:href="#id56">August</textPath></text><line stroke="#e1ed5e" stroke-width="0.3" x1="26.63291911575756" x2="22.317208475507996" y1="142.92168965132927" y2="145.44649492493687" /><path d="M 25.769776987707644 143.4266507060508 a86.0,86.0 0 0,1 -11.730757126820373,-40.83630448921669" fill="none" id="id57" stroke="none" /><text fill="#e1ed5e" style="font-size:6.75px; font-family:Arial;" text-anchor="middle"><textPath startOffset="21.46611528233685" xlink:href="#id57">September</textPath></text><line stroke="#e1ed5e" stroke-width="0.3" x1="15.007084014347285" x2="10.007500721073583" y1="101.09737516637583" y2="101.16192664675087" /><path d="M 14.007167355692545 101.11028546245083 a86.0,86.0 0 0,1 10.666146001902534,-42.60595125391555" fill="none" id="id58" stroke="none" /><text fill="#e1ed5e" style="font-size:6.75px; font-family:Arial;" text-anchor="middle"><textPath startOffset="22.20632615414155" xlink:href="#id58">October</textPath></text><line stroke="#e1ed5e" stroke-width="0.3" x1="26.266209847984243" x2="21.928928074336255" y1="57.711370442889674" y2="55.22380399835377" /><path d="M 25.398753493254645 57.213857153982495 a86.0,86.0 0 0,1 29.58750427330803,-30.492523968695096" fill="none" id="id59" stroke="none" /><text fill="#e1ed5e" style="font-size:6.75px; font-family:Arial;" text-anchor="middle"><textPath startOffset="21.46611528233685" xlink:href="#id59">November</textPath></text><line stroke="#e1ed5e" stroke-width="0.3" x1="56.762969772571076" x2="54.21961505331055" y1="26.818313649435495" y2="22.513508569990535" /><path d="M 56.25429882871897 25.957352633546506 a86.0,86.0 0 0,1 42.265352541879196,-11.944610805530505" fill="none" id="id60" stroke="none" /><text fill="#e1ed5e" style="font-size:6.75px; font-family:Arial;" text-anchor="middle"><textPath startOffset="22.20632615414155" xlink:href="#id60">December</textPath></text></svg>