<?xml version="1.0" encoding="utf-8" ?>
<svg baseProfile="full" height="200mm" version="1.1" viewBox="0,0,200,200" width="200mm" xmlns="http://www.w3.org/2000/svg" xmlns:ev="http://www.w3.org/2001/xml-events" xmlns:xlink="http://www.w3.org/1999/xlink"><defs /><rect fill="#1a1a1a" height="200" width="200" x="0" y="0" /><text alignment-baseline="middle" fill="#e1ed5e" style="dominant-baseline: central; font-size:9.0px; font-family:Arial;" text-anchor="middle" x="100.0" y="100.0">2023</text><line stroke="#e1ed5e" stroke-width="0.3" x1="100.0" x2="100.0" y1="15.0" y2="10.0" /><path d="M 100.0 14.0 a86.0,86.0 0 0,1 42.46469731375804,11.215312516191453" fill="none" id="id49" stroke="none" /><text fill="#e1ed5e" style="font-size:6.75px; font-family:Arial;" text-anchor="middle"><textPath startOffset="22.20632615414155" xlink:href="#id49">January</textPath></text><path d="M 102.16513564639614 79.11191278185805 l 5.038596759241536 -48.609725094715245 a69.870162994265,69.870162994265 0 0,0 1.1952232847020297,0.13429726238653414 l -5.874586747453292 48.51579187885811" fill="#ffb610" stroke="none" /><path d="M 104.66035177308747 79.52364482259891 l 11.261227322502803 -49.47885945447764 a71.74418955629339,71.74418955629339 0 0,0 1.2018050706654626,0.28442843146199165 l -12.111256080130788 49.277685110874785" fill="#f8ff18" stroke="none" /><path d="M 106.40334571778207 80.00007090966166 l 18.866193143930744 -58.925839976969996 a82.87235134319347,82.87235134319347 0 0,0 1.3548334179657135,0.4466672766864834 l -19.877709384138875 58.59235897602428" fill="#48f6ff" stroke="none" /><path d="M 107.08798089147638 80.2323363322302 l 16.696334825272025 -46.56439349425258 a70.46726531844249,70.46726531844249 0 0,0 1.1382734214518497,0.4192357074052815 l -17.495390572496454 46.27009451904097" fill="#ffd013" stroke="none" /><path d="M 109.73455568895987 81.39251694778311 l 22.72032956984068 -43.42962955063904 a70.0137337760338,70.0137337760338 0 0,0 1.0630583726445937,0.5678489666238681 l -23.464532989013584 43.03210185751342" fill="#ffbc11" stroke="none" /><path d="M 110.36928655335952 81.73862282372117 l 22.29427907754528 -39.26251213265707 a66.15063386658616,66.15063386658616 0 0,0 0.985339734426565,0.5707723734589717 l -22.966815544437175 38.87293560180805" fill="#ff0500" stroke="none" /><line stroke="#e1ed5e" stroke-width="0.3" x1="143.23703022742887" x2="145.7803849466894" y1="26.81831364943548" y2="22.513508569990506" /><path d="M 143.74570117128098 25.957352633546492 a86.0,86.0 0 0,1 28.547481713284135,27.462654790039103" fill="none" id="id50" stroke="none" /><text fill="#e1ed5e" style="font-size:6.75px; font-family:Arial;" text-anchor="middle"><textPath startOffset="19.985693538727396" xlink:href="#id50">February</textPath></text><path d="M 111.2981086023043 82.29822771554956 l 29.653698566657706 -46.461141231342836 a76.11786900090553,76.11786900090553 0 0,0 1.0983916302050927,0.7144244700363139 l -30.44905722264708 45.943817837146995" fill="#50ff2b" stroke="none" /><path d="M 113.6212207817346 84.01681056812373 l 39.7313701015305 -46.62093250645321 a82.25433142167219,82.25433142167219 0 0,0 1.0697222856868094,0.9276526249291559 l -40.52798618586407 45.930114888104384" fill="#46fff3" stroke="none" /><path d="M 113.89432698308785 84.25364557470407 l 31.96617859879077 -36.22707155600608 a69.31394506489585,69.31394506489585 0 0,0 0.8878423632777207,0.7971136399658482 l -32.58503194966448 35.67145890727093" fill="#ff9d0e" stroke="none" /><path d="M 114.42810811169701 84.74124197986012 l 30.94901047424702 -32.73079589738155 a66.0460458798672,66.0460458798672 0 0,0 0.81933817356421,0.7882026738079859 l -31.50783189142365 32.19321013681126" fill="#ff0000" stroke="none" /><path d="M 114.94478906791727 85.2469230424477 l 34.83222992627128 -34.38540125056794 a69.94527618472684,69.94527618472684 0 0,0 0.8384631238500763,0.8641099521168589 l -35.41895731382447 33.78072710290097" fill="#ffb911" stroke="none" /><path d="M 115.4437574822437 85.77008943001954 l 43.69935410248878 -40.26467662155899 a80.42118925445217,80.42118925445217 0 0,0 0.9292720477054361,1.026125405009455 l -44.38596979081025 39.506498429279986" fill="#3effb3" stroke="none" /><path d="M 115.9244219780498 86.31012108654704 l 40.28282736201122 -34.63026976034699 a74.12214005433142,74.12214005433142 0 0,0 0.8234242181093787,0.9746745528734072 l -40.87296219360771 33.93173625784448" fill="#99ff23" stroke="none" /><path d="M 116.38621287248628 86.86637796730983 l 44.9030703845922 -35.990009352846656 a78.5462118925445,78.5462118925445 0 0,0 0.8365018940271157,1.062272457317093 l -45.515926359213275 35.21174450157652" fill="#36ff6b" stroke="none" /><path d="M 116.82858285166822 87.43820079747576 l 41.3143486854515 -30.83934975060997 a72.55522185330517,72.55522185330517 0 0,0 0.73846493178189,1.0072653370469156 l -41.839076229747015 30.12362196989156" fill="#d6ff1c" stroke="none" /><path d="M 117.2510076193507 88.02491185347247 l 38.81008078469288 -26.940695211868682 a68.24429520072441,68.24429520072441 0 0,0 0.661565183835627,0.9707652744227766 l -39.268070434197234 26.2686519141755" fill="#ff6b09" stroke="none" /><path d="M 117.45458315368197 88.32363383020206 l 52.36374946104589 -35.02909850939381 a84.0,84.0 0 0,0 0.7936134585683003,1.208727744089304 l -52.95895955497212 34.12255270132683" fill="#4dd2ff" stroke="none" /><line stroke="#e1ed5e" stroke-width="0.3" x1="172.23445277983987" x2="176.4835382374775" y1="55.19839476539836" y2="52.563006222186495" /><path d="M 173.08426987136738 54.67131705675599 a86.0,86.0 0 0,1 12.851231095245387,41.99856678651699" fill="none" id="id51" stroke="none" /><text fill="#e1ed5e" style="font-size:6.75px; font-family:Arial;" text-anchor="middle"><textPath startOffset="22.20632615414155" xlink:href="#id51">March</textPath></text><line stroke="#e1ed5e" stroke-width="0.3" x1="184.98032266829074" x2="189.97916517819016" y1="98.17113171792111" y2="98.06355123074" /><path d="M 185.9800911702706 98.14961562048488 a86.0,86.0 0 0,1 -9.607161424134198,41.387399972396054" fill="none" id="id52" stroke="none" /><text fill="#e1ed5e" style="font-size:6.75px; font-family:Arial;" text-anchor="middle"><textPath startOffset="21.466115282336823" xlink:href="#id52">April</textPath></text><line stroke="#e1ed5e" stroke-width="0.3" x1="174.80103733775053" x2="179.2010983576182" y1="140.37084112569926" y2="142.7455964860345" /><path d="M 175.68104954172406 140.8457921977663 a86.0,86.0 0 0,1 -30.038265399797805,32.042727171017184" fill="none" id="id53" stroke="none" /><text fill="#e1ed5e" style="font-size:6.75px; font-family:Arial;" text-anchor="middle"><textPath startOffset="22.206326154141568" xlink:href="#id53">May</textPath></text><line stroke="#e1ed5e" stroke-width="0.3" x1="143.8653032363475" x2="146.44561519142675" y1="172.8068346515853" y2="177.08958963109032" /><path d="M 144.38136562736335 173.6633856474863 a86.0,86.0 0 0,1 -40.68145358897372,12.25698825130547" fill="none" id="id54" stroke="none" /><text fill="#e1ed5e" style="font-size:6.75px; font-family:Arial;" text-anchor="middle"><textPath startOffset="21.466115282336833" xlink:href="#id54">June</textPath></text><line stroke="#e1ed5e" stroke-width="0.3" x1="102.19456741930631" x2="102.32365962044197" y1="184.97166512339345" y2="189.96999836594603" /><path d="M 102.22038585953345 185.97133177190398 a86.0,86.0 0 0,1 -42.740103519485714,-10.115201625700543" fill="none" id="id55" stroke="none" /><text fill="#e1ed5e" style="font-size:6.75px; font-family:Arial;" text-anchor="middle"><textPath startOffset="22.20632615414155" xlink:href="#id55">July</textPath></text><line stroke="#e1ed5e" stroke-width="0.3" x1="58.666819895761336" x2="56.23545636021788" y1="174.27360380694188" y2="178.64263932499728" /><path d="M 58.180547188652646 175.14741091055294 a86.0,86.0 0 0,1 -31.652253787137756,-30.449443065178592" fill="none" id="id56" stroke="none" /><text fill="#e1ed5e" style="font-size:6.75px; font-family:Arial;" text-anchor="middle"><textPath startOffset="22.20632615414155" xlink:href="#id56">August</textPath></text><line stroke="#e1ed5e" stroke-width="0.3" x1="26.63291911575756" x2="22.317208475507996" y1="142.92168965132927" y2="145.44649492493687" /><path d="M 25.769776987707644 143.4266507060508 a86.0,86.0 0 0,1 -11.730757126820373,-40.83630448921669" fill="none" id="id57" stroke="none" /><text fill="#e1ed5e" style="font-size:6.75px; font-family:Arial;" text-anchor="middle"><textPath startOffset="21.46611528233685" xlink:href="#id57">September</textPath></text><line stroke="#e1ed5e" stroke-width="0.3" x1="15.007084014347285" x2="10.007500721073583" y1="101.09737516637583" y2="101.16192664675087" /><path d="M 14.007167355692545 101.11028546245083 a86.0,86.0 0 0,1 10.666146001902534,-42.60595125391555" fill="none" id="id58" stroke="none" /><text fill="#e1ed5e" style="font-size:6.75px; font-family:Arial;" text-anchor="middle"><textPath startOffset="22.20632615414155" xlink:href="#id58">October</textPath></text><line stroke="#e1ed5e" stroke-width="0.3" x1="26.266209847984243" x2="21.928928074336255" y1="57.711370442889674" y2="55.22380399835377" /><path d="M 25.398753493254645 57.213857153982495 a86.0,86.0 0 0,1 29.58750427330803,-30.492523968695096" fill="none" id="id59" stroke="none" /><text fill="#e1ed5e" style="font-size:6.75px; font-family:Arial;" text-anchor="middle"><textPath startOffset="21.46611528233685" xlink:href="#id59">November</textPath></text><line stroke="#e1ed5e" stroke-width="0.3" x1="56.762969772571076" x2="54.21961505331055" y1="26.818313649435495" y2="22.513508569990535" /><path d="M 56.25429882871897 25.957352633546506 a86.0,86.0 0 0,1 42.265352541879196,-11.944610805530505" fill="none" id="id60" stroke="none" /><text fill="#e1ed5e" style="font-size:6.75px; font-family:Arial;" text-anchor="middle"><textPath startOffset="22.20632615414155" xlink:href="#id60">December</textPath></text></svg>