<?xml version="1.0" encoding="utf-8" ?>
<svg baseProfile="full" height="200mm" version="1.1" viewBox="0,0,200,200" width="200mm" xmlns="http://www.w3.org/2000/svg" xmlns:ev="http://www.w3.org/2001/xml-events" xmlns:xlink="http://www.w3.org/1999/xlink"><defs /><rect fill="#1a1a1a" height="200" width="200" x="0" y="0" /><text alignment-baseline="middle" fill="#e1ed5e" style="dominant-baseline: central; font-size:9.0px; font-family:Arial;" text-anchor="middle" x="100.0" y="100.0">2020</text><line stroke="#e1ed5e" stroke-width="0.3" x1="100.0" x2="100.0" y1="15.0" y2="10.0" /><path d="M 100.0 14.0 a86.0,86.0 0 0,1 42.35913384403234,11.155469271406648" fill="none" id="id37" stroke="none" /><text fill="#e1ed5e" style="font-size:6.75px; font-family:Arial;" text-anchor="middle"><textPath startOffset="22.145653131862478" xlink:href="#id37">January</textPath></text><path d="M 100.0 79.0 l 0.0 -29.68643215555702 a50.68643215555702,50.68643215555702 0 0,0 0.870100008471895,0.007468762102119202 l -0.5096070836230402 29.68205779164934" fill="#93ff23" stroke="none" /><path d="M 101.08105385017728 79.02784411241856 l 0.8704685738356935 -16.886857784863544 a37.909277967560946,37.909277967560946 0 0,0 0.6496127515812959,0.03907909000436591 l -1.160225677549452 16.869426717034486" fill="#ffd313" stroke="none" /><path d="M 101.44090949804482 79.04949213459386 l 1.4022603525086499 -20.388557771631774 a41.43672239140572,41.43672239140572 0 0,0 0.7092210848744072,0.05489819739690323 l -1.7520504321582906 20.361481807239816" fill="#ffff18" stroke="none" /><path d="M 103.94208987418118 79.37332000966035 l 3.2969024023316083 -17.25078650734758 a38.56300659262489,38.56300659262489 0 0,0 0.6491503980469416,0.1298482601266022 l -3.5925492859095067 17.19164885055812" fill="#ffdc14" stroke="none" /><path d="M 108.4095320186766 80.7573450057729 l 0.5968466842187594 -1.3657020156845034 a22.490425429234097,22.490425429234097 0 0,0 0.3524427415636105,0.15764315541071083 l -0.6202028286380016 1.35525510936394" fill="#ff0000" stroke="none" /><line stroke="#e1ed5e" stroke-width="0.3" x1="143.13028292997686" x2="145.6673583964461" y1="26.7553504044142" y2="22.446841604673864" /><path d="M 143.63769802327073 25.89364864446614 a86.0,86.0 0 0,1 29.32050498858742,28.57503671076993" fill="none" id="id38" stroke="none" /><text fill="#e1ed5e" style="font-size:6.75px; font-family:Arial;" text-anchor="middle"><textPath startOffset="20.669276256404974" xlink:href="#id38">February</textPath></text><path d="M 113.86319453409587 84.22622945171908 l 1.5206728907854588 -1.7302466036415067 a23.303518905974677,23.303518905974677 0 0,0 0.2982128822913364,0.26666379821679614 l -1.5501507999001707 1.7038872755413237" fill="#ff0c01" stroke="none" /><path d="M 115.16444852881244 85.47280134310134 l 2.4785362177958032 -2.3743816298908698 a24.432321358394162,24.432321358394162 0 0,0 0.2875383662860997,0.30535578066147945 l -2.518930417818163 2.3314843892848955" fill="#ff1c02" stroke="none" /><path d="M 115.8921839302757 86.27271002978787 l 2.0034366058468924 -1.7305208236990712 a23.64734972281779,23.64734972281779 0 0,0 0.26271691661818924,0.30947986718393844 l -2.032848085972194 1.6958741740655807" fill="#ff1101" stroke="none" /><line stroke="#e1ed5e" stroke-width="0.3" x1="172.87174338648825" x2="177.1583165268699" y1="56.24261187166439" y2="53.66864786411523" /><path d="M 173.72905801456457 55.72781907015455 a86.0,86.0 0 0,1 12.242430191666344,42.057860355516425" fill="none" id="id39" stroke="none" /><text fill="#e1ed5e" style="font-size:6.75px; font-family:Arial;" text-anchor="middle"><textPath startOffset="22.145653131862474" xlink:href="#id39">March</textPath></text><path d="M 118.00360718960297 89.18935116829356 l 2.5871548550425176 -1.5535121554563216 a24.01774257701359,24.01774257701359 0 0,0 0.20921316860340036,0.3552896986559704 l -2.613441733775686 1.508871288506795" fill="#ff1602" stroke="none" /><path d="M 118.53625476483649 90.13048839642627 l 1.9642325997230163 -1.045843223511343 a23.225308462658433,23.225308462658433 0 0,0 0.1843557864901474,0.35352652881645996 l -1.9818964551881082 1.011970451590385" fill="#ff0b01" stroke="none" /><path d="M 119.83427380445688 93.10060997987247 l 4.241191084665276 -1.4753064181466617 a25.490459981345893,25.490459981345893 0 0,0 0.140215225651032,0.41452140002442933 l -4.265891731888673 1.4022833436480708" fill="#ff2c04" stroke="none" /><path d="M 120.26092885502905 94.47779374421319 l 3.4895726632677455 -0.951098546813991 a24.61686408619086,24.61686408619086 0 0,0 0.10762319393869389,0.40866279722148696 l -3.5053853380111697 0.8910552452197055" fill="#ff1f03" stroke="none" /><line stroke="#e1ed5e" stroke-width="0.3" x1="184.99686870605535" x2="189.99668451229388" y1="99.2704041080226" y2="99.22748670261217" /><path d="M 185.99683186730306 99.26182062694052 a86.0,86.0 0 0,1 -10.086455211305974,41.156179273409016" fill="none" id="id40" stroke="none" /><text fill="#e1ed5e" style="font-size:6.75px; font-family:Arial;" text-anchor="middle"><textPath startOffset="21.40746469413373" xlink:href="#id40">April</textPath></text><path d="M 120.82617615685814 102.69636545807757 l 15.171951844096228 1.9643129192761524 a36.298583202519445,36.298583202519445 0 0,0 -0.0853111486819654,0.6172689741615093 l -15.135996178859052 -2.2244702016377467" fill="#ffbf11" stroke="none" /><path d="M 120.51834098615036 104.47187691870673 l 14.919573565868522 3.2516516179933173 a36.26980398145835,36.26980398145835 0 0,0 -0.1378064957691889,0.6072008473639381 l -14.86155620854167 -3.5072867992962724" fill="#ffbe11" stroke="none" /><path d="M 120.43855184770803 104.8234425847677 l 15.998258562291058 3.7755454597010862 a37.437731611879684,37.437731611879684 0 0,0 -0.15298211196354558,0.6242192220849949 l -15.931088923811217 -4.049620506394181" fill="#ffcd13" stroke="none" /><path d="M 119.94978838288452 106.5578916946017 l 15.57194918353376 5.118808994839588 a37.39169932924004,37.39169932924004 0 0,0 -0.20568030403381174,0.6080572718810062 l -15.481783457927584 -5.385367941194755" fill="#ffcd13" stroke="none" /><path d="M 119.58574465831526 107.57618678355244 l 14.704140269505459 5.687877337154621 a36.765902754609684,36.765902754609684 0 0,0 -0.23274799182211559,0.5866769816330821 l -14.604333602717219 -5.939455336001267" fill="#ffc512" stroke="none" /><path d="M 119.4528033332814 107.91128576633889 l 15.28160131171801 6.214894217195934 a37.497037575917595,37.497037575917595 0 0,0 -0.2476128580106686,0.5941807189297242 l -15.172662609170857 -6.476307445566936" fill="#ffce13" stroke="none" /><path d="M 119.16976305983485 108.57439118712176 l 14.46765141447112 6.471196456596142 a36.84895331025083,36.84895331025083 0 0,0 -0.2632340690651586,0.5752139470931777 l -14.354432880550904 -6.7185993859040085" fill="#ffc612" stroke="none" /><path d="M 118.70294669586154 109.54985784667822 l 14.809853926450906 7.562016939232926 a37.62876644589306,37.62876644589306 0 0,0 -0.29868627337888337,0.5727703124653781 l -14.677859584097073 -7.815133494802807" fill="#ffd013" stroke="none" /><line stroke="#e1ed5e" stroke-width="0.3" x1="174.33088141563837" x2="178.70328620479359" y1="141.23008692659167" y2="143.65538615756765" /><path d="M 175.20536237346943 141.71514677278685 a86.0,86.0 0 0,1 -30.301960400862466,31.631185727798858" fill="none" id="id41" stroke="none" /><text fill="#e1ed5e" style="font-size:6.75px; font-family:Arial;" text-anchor="middle"><textPath startOffset="22.145653131862474" xlink:href="#id41">May</textPath></text><path d="M 116.57777611688842 112.89097897827486 l 11.894616327218326 9.24932559998864 a36.06757849245638,36.06757849245638 0 0,0 -0.3842632416301385,0.4855040529099593 l -11.734086654946626 -9.452149596813284" fill="#ffbc11" stroke="none" /><path d="M 115.89218393027572 113.72728997021213 l 12.078350954158902 10.432991880610013 a36.96038474951985,36.96038474951985 0 0,0 -0.41886488772474045,0.4765913522638427 l -11.897475002475575 -10.63879551068515" fill="#ffc712" stroke="none" /><path d="M 115.6541949942343 113.99807769240083 l 12.018692758797178 10.747189175853704 a37.12299757526344,37.12299757526344 0 0,0 -0.42886307444763,0.471395644570782 l -11.832431983507668 -10.951922395982159" fill="#ffc912" stroke="none" /><path d="M 115.16444852881244 114.52719865689866 l 12.330775656552005 11.812604145546802 a38.07587904008473,38.07587904008473 0 0,0 -0.4562092249652692,0.468110854653502 l -12.126179630435928 -12.02253769226804" fill="#ffd614" stroke="none" /><path d="M 112.7482090630111 116.68781488649013 l 9.804949699976909 12.83499390038353 a37.151597662211614,37.151597662211614 0 0,0 -0.5101215306232609,0.382804706706919 l -9.58317518044288 -13.001417634354464" fill="#ffca12" stroke="none" /><path d="M 112.16784306229584 117.11559508785304 l 13.89553645162737 19.545812204918608 a44.98175781773409,44.98175781773409 0 0,0 -0.6331823056454936,0.44201042475656716 l -13.55795905480812 -19.7814674454803" fill="#d4ff1c" stroke="none" /><path d="M 111.8722381534696 117.32195027204791 l 9.690297940662521 14.13843429348912 a38.14051336600271,38.14051336600271 0 0,0 -0.5432366248408222,0.36551384507317963 l -9.446165027724696 -14.30269781261942" fill="#ffd614" stroke="none" /><path d="M 111.5731344415666 117.5232005979908 l 9.761454011494546 14.78008551919374 a38.71262014421366,38.71262014421366 0 0,0 -0.5576725622191118,0.3614766172216798 l -9.506295817018424 -14.945475978119315" fill="#ffde14" stroke="none" /><line stroke="#e1ed5e" stroke-width="0.3" x1="143.1302829299769" x2="145.66735839644613" y1="173.24464959558577" y2="177.55315839532614" /><path d="M 143.63769802327073 174.10635135553383 a86.0,86.0 0 0,1 -40.68552437913181,11.842963189579606" fill="none" id="id42" stroke="none" /><text fill="#e1ed5e" style="font-size:6.75px; font-family:Arial;" text-anchor="middle"><textPath startOffset="21.407464694133747" xlink:href="#id42">June</textPath></text><path d="M 110.65571695917076 118.09573695890943 l 8.00830711849973 13.599856270376247 a36.78255598688329,36.78255598688329 0 0,0 -0.5468471919262645,0.31572237346422094 l -7.773667458713065 -13.735325541116639" fill="#ffc512" stroke="none" /><path d="M 110.34350942703117 118.27599006163325 l 7.895205125865246 13.950070953460202 a37.02930889296425,37.02930889296425 0 0,0 -0.5558907065271522,0.3083432042684868 l -7.654570231181999 -14.083547073161832" fill="#ffc812" stroke="none" /><path d="M 109.71004243097381 118.62028667847754 l 6.954703173283424 13.336560346757166 a36.041001898516406,36.041001898516406 0 0,0 -0.5510373624658437,0.2813636035717132 l -6.724738589103999 -13.453981902001715" fill="#ffbc11" stroke="none" /><path d="M 109.06512990194946 118.94263497670748 l 13.154994930909774 27.488879893830603 a51.474455031217644,51.474455031217644 0 0,0 -0.8003328816669615,0.3745961997963709 l -12.681173335371307 -27.710652325197508" fill="#8aff24" stroke="none" /><path d="M 108.4095320186766 119.2426549942271 l 6.220691260654696 14.2341589863189 a36.53410061149949,36.53410061149949 0 0,0 -0.5768298249032254,0.24621435182957388 l -5.975426360581039 -14.338847987807878" fill="#ffc212" stroke="none" /><path d="M 107.74402155503746 119.51999308798841 l 5.891265707330318 14.849838042068125 a36.975753550616005,36.975753550616005 0 0,0 -0.5920130456628794,0.22900336395111243 l -5.635480399173909 -14.948781294157278" fill="#ffc812" stroke="none" /><path d="M 106.72888874123015 119.89276391827305 l 5.054446115386458 14.942571823922535 a36.77427900876705,36.77427900876705 0 0,0 -0.5997311619000445,0.1971435450910505 l -4.797192215838679 -15.027136290415605" fill="#ffc512" stroke="none" /><path d="M 106.38641147887787 120.00534299687104 l 9.140953958692721 28.633908082349983 a51.057573610379926,51.057573610379926 0 0,0 -0.8372454159800422,0.2593807700508933 l -8.648067909841055 -28.78660544020752" fill="#8fff24" stroke="none" /><path d="M 104.9986988182912 120.39639698878246 l 3.784073495296429 15.440311179055987 a36.89724572131557,36.89724572131557 0 0,0 -0.6164789113889739,0.14548734450274992 l -3.5184624301675758 -15.50299466720496" fill="#ffc712" stroke="none" /><path d="M 104.64783097203109 120.47920084513623 l 3.4946563335377077 15.398100612934149 a36.789684144262615,36.789684144262615 0 0,0 -0.6170814017295408,0.1344900194036232 l -3.229812515189031 -15.455822090471491" fill="#ffc512" stroke="none" /><path d="M 103.2317021107853 120.74984581791261 l 2.4493023448595697 15.726278064947635 a36.915869556910415,36.915869556910415 0 0,0 -0.6269982797910229,0.09214715525770024 l -2.1789789594608613 -15.766006293504217" fill="#ffc712" stroke="none" /><path d="M 102.875027216393 120.80226474461374 l 2.174038727766035 15.73026123793412 a36.879784727869556,36.879784727869556 0 0,0 -0.627873379243202,0.0812907794060068 l -1.9036875266320574 -15.765263613540519" fill="#ffc612" stroke="none" /><path d="M 100.72087961077811 120.9876233191556 l 0.544359218214304 15.84842469030302 a36.85777071730643,36.85777071730643 0 0,0 -0.6325261828357356,0.016291630745012817 l -0.2722197213078246 -15.855434038398078" fill="#ffc612" stroke="none" /><line stroke="#e1ed5e" stroke-width="0.3" x1="101.45913802915013" x2="101.54496967792366" y1="184.9874750549273" y2="189.98673829345242" /><path d="M 101.47630435890484 185.9873277026323 a86.0,86.0 0 0,1 -42.54439059252881,-10.42667462771756" fill="none" id="id43" stroke="none" /><text fill="#e1ed5e" style="font-size:6.75px; font-family:Arial;" text-anchor="middle"><textPath startOffset="22.145653131862474" xlink:href="#id43">July</textPath></text><path d="M 100.0 121.0 l 2.1953083405249093e-15 17.92605298158921 a38.92605298158921,38.92605298158921 0 0,0 -0.6682174615311656,-0.005735843241081301 l 0.3077245366823112 -17.923411536542563" fill="#ffe015" stroke="none" /><path d="M 98.55909050195518 120.95050786540614 l -1.2464862573180104 18.123636615274304 a39.166450730734226,39.166450730734226 0 0,0 -0.6703636551063805,-0.05189038658129709 l 1.557418907199627 -18.099568461697952" fill="#ffe315" stroke="none" /><path d="M 97.84075906011543 120.88869738790638 l -1.8980251971814102 18.36167203307256 a39.45950973073918,39.45950973073918 0 0,0 -0.6731869369979885,-0.07543200042420511 l 2.212948035780198 -18.326384272141382" fill="#ffe715" stroke="none" /><path d="M 97.12497278360702 120.80226474461374 l -2.426591128841422 17.557604603277834 a38.724497846529104,38.724497846529104 0 0,0 -0.6577169609431525,-0.0966617435311807 l 2.7276331953922597 -17.51336178644777" fill="#ffde14" stroke="none" /><path d="M 96.05791012581884 120.62667999033965 l -3.5261287915103434 18.45019583738296 a39.78412390004127,39.78412390004127 0 0,0 -0.6697060770826855,-0.13395997162911386 l 3.842331354123987 -18.386946469090987" fill="#ffeb16" stroke="none" /><path d="M 95.35216902796893 120.47920084513623 l -4.095235934006105 18.044365146971046 a39.503244875221164,39.503244875221164 0 0,0 -0.6600199261740315,-0.15576290543598637 l 4.404388013920024 -17.97140609788883" fill="#ffe815" stroke="none" /><path d="M 93.95794788825049 120.11202640906438 l -5.28331716615602 17.586444540350954 a39.362910222757144,39.362910222757144 0 0,0 -0.6454755644113978,-0.1999699798297271 l 5.584433363439051 -17.493157972714577" fill="#ffe615" stroke="none" /><path d="M 91.59046798132341 119.24265499422711 l -7.416123869215041 16.969542739456184 a39.51929464179916,39.51929464179916 0 0,0 -0.6192985807245343,-0.27700437799814787 l 7.706335852795211 -16.83973461054818" fill="#ffe815" stroke="none" /><path d="M 91.26138138417905 119.09545874513695 l -8.130059747395018 17.765647790236624 a40.53755647216284,40.53755647216284 0 0,0 -0.6302842714396666,-0.2950048639523103 l 8.433832732706174 -17.623466694713787" fill="#fff417" stroke="none" /><path d="M 90.6110303473126 118.78422872680471 l -8.096538626328131 16.198500908864375 a39.109261978946115,39.109261978946115 0 0,0 -0.5979485428719805,-0.30531678654248057 l 8.373414390913695 -16.057126170649056" fill="#ffe315" stroke="none" /><path d="M 89.97174638481275 118.45085714620012 l -8.78373463721722 16.16108239982906 a39.39387339608257,39.39387339608257 0 0,0 -0.5913879780551295,-0.3280329424080294 l 9.059866803428452 -16.007916541987882" fill="#ffe615" stroke="none" /><line stroke="#e1ed5e" stroke-width="0.3" x1="58.13341422392154" x2="55.67067388415222" y1="173.97424548756322" y2="178.32567169271397" /><path d="M 57.64086615596768 174.84453072859336 a86.0,86.0 0 0,1 -31.369924170532247,-30.572349798747897" fill="none" id="id44" stroke="none" /><text fill="#e1ed5e" style="font-size:6.75px; font-family:Arial;" text-anchor="middle"><textPath startOffset="22.145653131862474" xlink:href="#id44">August</textPath></text><path d="M 89.34428304082925 118.09573695890944 l -15.179358886029377 25.777869913302247 a50.91507167730026,50.91507167730026 0 0,0 -0.7493419453802,-0.44995830785795743 l 15.619633587967003 -25.51349760490837" fill="#91ff24" stroke="none" /><path d="M 88.1277618465304 117.32195027204791 l -8.873673946054577 12.946955480252385 a36.696042351768966,36.696042351768966 0 0,0 -0.516549059698967,-0.3605913608915272 l 9.09461809692731 -12.792719303555728" fill="#ffc412" stroke="none" /><path d="M 87.54013794807813 116.9041958592261 l -10.933668832083459 14.83362164262055 a39.42773575798432,39.42773575798432 0 0,0 -0.5413747504681371,-0.4062577055280967 l 11.186696571462361 -14.643744909828436" fill="#ffe715" stroke="none" /><path d="M 86.96720088162412 116.46651593811092 l -9.890442100179085 12.496250498324075 a36.93665967051626,36.93665967051626 0 0,0 -0.49380660705463375,-0.39777564790758924 l 10.103499477588981 -12.324626556623075" fill="#ffc712" stroke="none" /><path d="M 86.68645165197938 116.24036423190432 l -10.08616163359441 12.303477206043697 a36.909311985709145,36.909311985709145 0 0,0 -0.4865449936223985,-0.4058931382521478 l 10.2958809613787 -12.12852188387968" fill="#ffc712" stroke="none" /><path d="M 85.34317274990678 115.03919595460226 l -10.75678966094375 11.03741381357578 a36.41210652383054,36.41210652383054 0 0,0 -0.44389492738995817,-0.44010097644912527 l 10.94467650846367 -10.851132826897995" fill="#ffc011" stroke="none" /><path d="M 84.3458050057657 113.99807769240083 l -13.225628917088958 11.826438930935884 a38.74209452234137,38.74209452234137 0 0,0 -0.4390566597803649,-0.49956588231067256 l 13.426696640827915 -11.597660770813912" fill="#ffde14" stroke="none" /><path d="M 83.20337586046588 112.60449989151573 l -14.709387924123703 11.038198923407148 a39.390430353177244,39.390430353177244 0 0,0 -0.4012158809651618,-0.5443263982702692 l 14.896705824672695 -10.784066215867998" fill="#ffe615" stroke="none" /><path d="M 82.78059297857968 112.02048342749411 l -13.099810988118714 9.144685452298335 a36.975929392242335,36.975929392242335 0 0,0 -0.35886066194908905,-0.5235884304645347 l 13.254861386883126 -8.918462286763749" fill="#ffc812" stroke="none" /><path d="M 82.37810715431573 111.42229804090323 l -17.84859142876288 11.569241323560197 a42.27015657661411,42.27015657661411 0 0,0 -0.3894536890370652,-0.6122858857046388 l 18.044562809425834 -11.261141763176887" fill="#f4ff19" stroke="none" /><path d="M 81.99639281039703 110.81064883170644 l -15.416481047642577 9.257153917630946 a38.98229091487046,38.98229091487046 0 0,0 -0.3395659927475822,-0.5766572919021489 l 15.573120750519928 -8.991145457435238" fill="#ffe115" stroke="none" /><line stroke="#e1ed5e" stroke-width="0.3" x1="26.387840678322732" x2="22.057713659400548" y1="142.50000000000003" y2="145.00000000000006" /><path d="M 25.521815274538298 143.00000000000003 a86.0,86.0 0 0,1 -11.493303480769221,-40.785679425670985" fill="none" id="id45" stroke="none" /><text fill="#e1ed5e" style="font-size:6.75px; font-family:Arial;" text-anchor="middle"><textPath startOffset="21.40746469413373" xlink:href="#id45">September</textPath></text><path d="M 80.9802524753101 108.90220220490708 l -15.900011810997766 7.442008366208356 a38.5554511224458,38.5554511224458 0 0,0 -0.275424601566116,-0.6018524606486083 l 16.025420877418938 -7.167966923345058" fill="#ffdc14" stroke="none" /><path d="M 80.68587082218212 108.24405325689762 l -16.681390029752 7.120293466935057 a39.137457164111716,39.137457164111716 0 0,0 -0.2584454199629841,-0.620174924159562 l 16.801161294251468 -6.832886033334214" fill="#ffe315" stroke="none" /><path d="M 80.28708602549918 107.23885506374661 l -14.383539180346686 5.281834819800499 a36.32266224962964,36.32266224962964 0 0,0 -0.20991010067458737,-0.5871559107110277 l 14.472089451065216 -5.0341439527085505" fill="#ffbf11" stroke="none" /><path d="M 80.16572619554312 106.89939002012753 l -16.92715374060912 5.8881427542298095 a38.92201882747606,38.92201882747606 0 0,0 -0.21409812363848948,-0.6329430597937252 l 17.025737285819975 -5.596698019961923" fill="#ffe015" stroke="none" /><path d="M 79.94057633289273 106.21446072829308 l -20.141369837561353 6.239847861371886 a42.08578858535989,42.08578858535989 0 0,0 -0.20787108893441736,-0.6919352486550253 l 20.2455172464994 -5.8931750091261375" fill="#f7ff19" stroke="none" /><path d="M 79.73907114497094 105.5222062557868 l -17.513052178975954 4.773260248463717 a39.15188723034325,39.15188723034325 0 0,0 -0.17116929019487492,-0.6499576751950082 l 17.592410949975562 -4.471922068895906" fill="#ffe315" stroke="none" /><path d="M 79.64726062577567 105.17358676015961 l -18.219970995613995 4.631445378442727 a39.79940502714152,39.79940502714152 0 0,0 -0.16263263755042262,-0.6635966597293678 l 18.296791159680712 -4.317992894105259" fill="#ffeb16" stroke="none" /><path d="M 79.48165901384964 104.47187691870673 l -17.399210787717337 3.79207700943391 a38.80764959451125,38.80764959451125 0 0,0 -0.13627451993452822,-0.6521229098182612 l 17.46174301847623 -3.49283764833024" fill="#ffdf14" stroke="none" /><path d="M 79.17382384314188 102.69636545807758 l -18.416172296341767 2.384342208375546 a39.56988125474116,39.56988125474116 0 0,0 -0.08143465308489752,-0.6743957478315294 l 18.454389035686326 -2.067852783620617" fill="#ffe815" stroke="none" /><path d="M 79.0935383218832 101.97986365728391 l -29.266120014858068 2.7715319932773133 a50.39706057268032,50.39706057268032 0 0,0 -0.07417097947543186,-0.8619792110400303 l 29.309384617031238 -2.2687317348616207" fill="#96ff23" stroke="none" /><path d="M 79.03789590574601 101.26102812881392 l -16.419680449842502 0.9877672021990904 a37.449364429079935,37.449364429079935 0 0,0 -0.033095270460251874,-0.6420394054563285 l 16.434217309759326 -0.7057560033660312" fill="#ffce13" stroke="none" /><path d="M 79.00696218219943 100.54070618675478 l -15.215060704907664 0.39188599222248605 a36.220106664702634,36.220106664702634 0 0,0 -0.010673838457053558,-0.6216975786296164 l 15.219545974963383 -0.13064149762381727" fill="#ffbe11" stroke="none" /><line stroke="#e1ed5e" stroke-width="0.3" x1="15.003131293944662" x2="10.003315487706104" y1="100.72959589197737" y2="100.7725132973878" /><path d="M 14.003168132696942 100.73817937305945 a86.0,86.0 0 0,1 10.791469493833604,-42.45332614584628" fill="none" id="id46" stroke="none" /><text fill="#e1ed5e" style="font-size:6.75px; font-family:Arial;" text-anchor="middle"><textPath startOffset="22.145653131862435" xlink:href="#id46">October</textPath></text><path d="M 79.06263194458094 98.37931529534042 l -5.080287018734903 -0.3932463452307358 a26.09548416549043,26.09548416549043 0 0,0 0.03840556569065319,-0.4463308890850173 l 5.072787830346506 0.4803982816914337" fill="#ff3405" stroke="none" /><path d="M 79.22317932658666 96.9465228501225 l -15.256895510910912 -2.24223824005222 a36.42078120446581,36.42078120446581 0 0,0 0.0962176474467807,-0.6177863184914115 l 15.216156371325864 2.5038127404750816" fill="#ffc011" stroke="none" /><path d="M 79.34024301695615 96.23510406497455 l -15.196574880537305 -2.7693221677777613 a36.446845418036744,36.446845418036744 0 0,0 0.11745205543131154,-0.6145587845311479 l 15.146796532823835 3.0297835173422234" fill="#ffc111" stroke="none" /><path d="M 80.28708602549916 92.7611449362534 l -15.155962750392948 -5.5654794539027534 a37.14551852506175,37.14551852506175 0 0,0 0.22494143762810975,-0.5966838879590157 l 15.058190628950403 5.824831622055914" fill="#ffca12" stroke="none" /><path d="M 80.41425534168474 92.42381321644754 l -15.093003675587143 -5.838298056364425 a37.18284536619675,37.18284536619675 0 0,0 0.23538746340531602,-0.5933301742531989 l 14.990557537215697 6.096529247831207" fill="#ffca12" stroke="none" /><path d="M 80.83023694016515 91.42560881287825 l -14.518599690822471 -6.4939849725721706 a36.9047658834182,36.9047658834182 0 0,0 0.2636327715904855,-0.5760851840653616 l 14.404982454376938 6.742259138852203" fill="#ffc712" stroke="none" /><path d="M 80.9802524753101 91.09779779509293 l -19.422827068648825 -9.090863784159163 a42.44504641358405,42.44504641358405 0 0,0 0.31453950565753447,-0.6572665925221258 l 19.263908305031386 9.422942878746376" fill="#f2ff19" stroke="none" /><path d="M 81.29705330413844 90.45014215332179 l -12.35486984891788 -6.30848457679045 a34.87226681690138,34.87226681690138 0 0,0 0.2768059759490674,-0.5308119571183464 l 12.244755803993874 6.519642777013283" fill="#ffac10" stroke="none" /><path d="M 81.46374523516351 90.13048839642627 l -14.206825681951035 -7.5643344730000965 a37.09512509975493,37.09512509975493 0 0,0 0.3040999186915782,-0.5595095989048425 l 14.074880413644106 7.807098905379559" fill="#ffc912" stroke="none" /><line stroke="#e1ed5e" stroke-width="0.3" x1="26.387840678322718" x2="22.05771365940052" y1="57.49999999999999" y2="54.99999999999999" /><path d="M 25.521815274538284 56.99999999999999 a86.0,86.0 0 0,1 29.574782752854787,-30.34633250058573" fill="none" id="id47" stroke="none" /><text fill="#e1ed5e" style="font-size:6.75px; font-family:Arial;" text-anchor="middle"><textPath startOffset="21.40746469413373" xlink:href="#id47">November</textPath></text><path d="M 81.81346652052679 89.5 l -15.441048063409175 -8.914893255979239 a38.829786511958474,38.829786511958474 0 0,0 0.3382375610993,-0.5744013245404708 l 15.285736792180096 9.178645748813283" fill="#ffdf14" stroke="none" /><path d="M 82.18462484594161 88.88188828441811 l -15.400518922854134 -9.61106282531579 a39.15347106548374,39.15347106548374 0 0,0 0.3607382839337486,-0.5671404993802116 l 15.233262947294495 9.874016999374673" fill="#ffe315" stroke="none" /><path d="M 83.2033758604659 87.39550010848427 l -50.389872418602316 -37.8134996745472 a84.0,84.0 0 0,0 0.875392090582773,-1.1459163470364628 l 49.73332835066524 38.672936934824556" fill="#4dd2ff" stroke="none" /><path d="M 83.8745106332314 86.54754324733833 l -12.007243657259368 -10.01686971130485 a36.636866024176705,36.636866024176705 0 0,0 0.4070276199762815,-0.47947751287566676 l 11.83352147377597 10.221514006630072" fill="#ffc312" stroke="none" /><path d="M 84.10781606972428 86.27271002978789 l -11.851821553616308 -10.237321179737839 a36.66104782815866,36.66104782815866 0 0,0 0.4154725603231729,-0.4727315064018126 l 11.674337929334543 10.439264963950952" fill="#ffc412" stroke="none" /><path d="M 84.58840730492382 85.73525988315684 l -11.442468382463003 -10.590977908673745 a36.591629027965,36.591629027965 0 0,0 0.4306384594451453,-0.45732312061579716 l 11.258974089281585 10.785842489234053" fill="#ffc312" stroke="none" /><path d="M 85.08716467003674 85.21462403516908 l -11.646668598777913 -11.547125020869274 a37.400639795366054,37.400639795366054 0 0,0 0.45594599904390726,-0.4520490481095658 l 11.446730679604029 11.745354079207512" fill="#ffcd13" stroke="none" /><path d="M 85.34317274990677 84.96080404539775 l -14.349465184957964 -14.723815398653409 a41.55961796794736,41.55961796794736 0 0,0 0.5151958111420729,-0.4935459328733719 l 14.09459688795059 14.967973461832349" fill="#fdff18" stroke="none" /><path d="M 87.25179093698888 83.31218511350988 l -11.378115429678491 -14.894318339861222 a39.743058169365376,39.743058169365376 0 0,0 0.545704382603934,-0.409506742199556 l 11.120758058163805 15.08744410932478" fill="#ffeb16" stroke="none" /><path d="M 87.54013794807813 83.09580414077388 l -9.616837403776923 -13.04708690532427 a37.208332374608034,37.208332374608034 0 0,0 0.5174066488429818,-0.37456251249934364 l 9.391449744559974 13.210250189196694" fill="#ffcb12" stroke="none" /><path d="M 88.12776184653039 82.6780497279521 l -8.662417928655056 -12.638726637403892 a36.32236585471406,36.32236585471406 0 0,0 0.5173406882021021,-0.34808990320372 l 8.444180952355964 12.78556621466472" fill="#ffbf11" stroke="none" /><path d="M 88.4268655584334 82.4767994020092 l -16.464663155062922 -24.929598519851034 a50.875910281875015,50.875910281875015 0 0,0 0.7328901824890329,-0.4750505617614097 l 16.03428734031686 25.20856292331635" fill="#91ff24" stroke="none" /><path d="M 89.03521579738668 82.08984904055464 l -8.460355973276746 -13.819355661912374 a37.203463028161266,37.203463028161266 0 0,0 0.5475415126014863,-0.3287829461717205 l 8.221881704117825 13.962552608620017" fill="#ffca12" stroke="none" /><line stroke="#e1ed5e" stroke-width="0.3" x1="56.869717070023135" x2="54.33264160355391" y1="26.7553504044142" y2="22.446841604673864" /><path d="M 56.362301976729285 25.89364864446614 a86.0,86.0 0 0,1 42.16139366436587,-11.88097634709845" fill="none" id="id48" stroke="none" /><text fill="#e1ed5e" style="font-size:6.75px; font-family:Arial;" text-anchor="middle"><textPath startOffset="22.145653131862474" xlink:href="#id48">December</textPath></text><path d="M 89.65649057296885 81.72400993836675 l -7.5076710591565385 -13.265335390382996 a36.24251448258601,36.24251448258601 0 0,0 0.5440792060224696,-0.30179156404484747 l 7.278847664977966 13.39225986986099" fill="#ffbe11" stroke="none" /><path d="M 90.28995756902619 81.37971332152246 l -10.011673543776158 -19.19870410882902 a42.65234044175169,42.65234044175169 0 0,0 0.652119306954826,-0.3329767646651617 l 9.68062701510775 19.367738825167017" fill="#f0ff19" stroke="none" /><path d="M 90.61103034731259 81.2157712731953 l -14.50110824575442 -29.011930398820493 a53.434152460347896,53.434152460347896 0 0,0 0.8240048863644055,-0.40306208133225846 l 14.000943110127961 29.256586230249965" fill="#75ff27" stroke="none" /><path d="M 91.26138138417902 80.90454125486306 l -6.735431365167218 -14.718133084718538 a37.18608900180537,37.18608900180537 0 0,0 0.58273540431963,-0.26065013425706635 l 6.48178255799197 14.83158696988545" fill="#ffca12" stroke="none" /><path d="M 91.92203290615298 80.6158196554323 l -6.3280431721894645 -15.184999970025096 a37.45078583164816,37.45078583164816 0 0,0 0.5955487073043404,-0.24220447462178785 l 6.066440003694683 15.291391701226177" fill="#ffce13" stroke="none" /><path d="M 92.25597844496254 80.48000691201159 l -6.71713835602188 -16.931576616714946 a39.215329654486865,39.215329654486865 0 0,0 0.6278705507285011,-0.24287381721743698 l 6.425495542799849 17.04439032207042" fill="#ffe415" stroke="none" /><path d="M 92.93061703081487 80.22567764915836 l -11.883732457391389 -33.2409147117834 a56.30129612344164,56.30129612344164 0 0,0 0.9128698264960405,-0.31754351244193485 l 11.311356858850344 33.44001665679392" fill="#57ff2a" stroke="none" /><path d="M 93.61358852112211 79.99465700312896 l -4.887577636485609 -15.310267333245905 a37.07148720461585,37.07148720461585 0 0,0 0.607900660585214,-0.18832917857480136 l 4.624036343028779 15.391913099627349" fill="#ffc912" stroke="none" /><path d="M 93.95794788825049 79.88797359093562 l -5.4623311302336 -18.18232380562878 a39.985098376069956,39.985098376069956 0 0,0 0.65906864080059,-0.19184527596776627 l 5.149402477051385 18.273412775899065" fill="#ffee16" stroke="none" /><path d="M 94.6519064749342 79.69241777938228 l -4.105721201887847 -15.590092149939528 a37.12165995892599,37.12165995892599 0 0,0 0.617624356968389,-0.15699769634010532 l 3.8374915516940797 15.658275078114897" fill="#ffc912" stroke="none" /><path d="M 95.35216902796891 79.52079915486377 l -8.486014678583079 -37.390946448625385 a59.341822093493406,59.341822093493406 0 0,0 0.9953533336966822,-0.2169326263717161 l 7.842898928267278 37.53111053313082" fill="#39ff2e" stroke="none" /><path d="M 96.05791012581881 79.37332000966035 l -3.0391127832782323 -15.901922288935953 a37.18972942926605,37.18972942926605 0 0,0 0.6280907284378776,-0.11445905352438371 l 2.765687321289316 15.951749516391699" fill="#ffca12" stroke="none" /><path d="M 96.41257539226777 79.30868818359171 l -2.7825312390670796 -16.048900758036876 a37.28833004447358,37.28833004447358 0 0,0 0.6316332319238698,-0.10393500794843957 l 2.5066205040901366 16.094301764480985" fill="#ffcc13" stroke="none" /><path d="M 97.12497278360702 79.19773525538626 l -2.2303404830595417 -16.137632692549943 a37.29102843868462,37.29102843868462 0 0,0 0.6348747481586128,-0.08219724678439994 l 1.9529879130101349 16.17354153553474" fill="#ffcc13" stroke="none" /><path d="M 97.84075906011542 79.11130261209362 l -3.0350392698266644 -29.361251769897653 a50.51769924748045,50.51769924748045 0 0,0 0.8633725865097717,-0.08176228158756967 l 2.5305671199318773 29.409025806990407" fill="#95ff23" stroke="none" /><path d="M 98.9189461498227 79.02784411241856 l -0.8332946532367846 -16.16569365633719 a37.18715637070494,37.18715637070494 0 0,0 0.637802655297001,-0.027389990314375764 l 0.5556662373389636 16.177616215077396" fill="#ffca12" stroke="none" /><path d="M 99.27912038922189 79.0123766808444 l -0.6288838396303041 -18.309266818378177 a39.320064036741584,39.320064036741584 0 0,0 0.6747822651774965,-0.017379997533493428 l 0.31448826038206373 18.317364533261717" fill="#ffe515" stroke="none" /></svg>