<?xml version="1.0" encoding="utf-8" ?>
<svg baseProfile="full" height="200mm" version="1.1" viewBox="0,0,200,200" width="200mm" xmlns="http://www.w3.org/2000/svg" xmlns:ev="http://www.w3.org/2001/xml-events" xmlns:xlink="http://www.w3.org/1999/xlink"><defs /><rect fill="#1a1a1a" height="200" width="200" x="0" y="0" /><text alignment-baseline="middle" fill="#e1ed5e" style="dominant-baseline: central; font-size:9.0px; font-family:Arial;" text-anchor="middle" x="100.0" y="100.0">2023</text><line stroke="#e1ed5e" stroke-width="0.3" x1="100.0" x2="100.0" y1="15.0" y2="10.0" /><path d="M 100.0 14.0 a86.0,86.0 0 0,1 42.46469731375804,11.215312516191453" fill="none" id="id49" stroke="none" /><text fill="#e1ed5e" style="font-size:6.75px; font-family:Arial;" text-anchor="middle"><textPath startOffset="22.20632615414155" xlink:href="#id49">January</textPath></text><path d="M 102.16513564639614 79.11191278185805 l 2.6964867805006323 -26.01428282214836 a47.15366038833069,47.15366038833069 0 0,0 0.8066268982325201,0.09063393056886034 l -3.1438803822428776 25.964012938108898" fill="#ff4a06" stroke="none" /><path d="M 104.66035177308747 79.52364482259891 l 6.026628455957708 -26.479414171919434 a48.156576099247246,48.156576099247246 0 0,0 0.8066829899381837,0.19091580083627024 l -6.481535132858415 26.371752458942293" fill="#ff5f08" stroke="none" /><path d="M 106.40334571778207 80.00007090966166 l 10.096549265958478 -31.535119026217423 a54.1119923755371,54.1119923755371 0 0,0 0.8846465002480581,0.2916540423761738 l -10.637878588448954 31.356651259582016" fill="#ffd814" stroke="none" /><path d="M 107.08798089147638 80.2323363322302 l 8.935314392163315 -24.919690441388358 a47.4732093819662,47.4732093819662 0 0,0 0.7668453178410514,0.28243560223471353 l -9.362942035776944 24.762191571347323" fill="#ff5107" stroke="none" /><path d="M 109.73455568895987 81.39251694778311 l 12.159152887423218 -23.242070671868177 a47.23049462087681,47.23049462087681 0 0,0 0.7171274840373584,0.3830646662752281 l -12.557425417988886 23.029327279091195" fill="#ff4b07" stroke="none" /><path d="M 110.36928655335952 81.73862282372117 l 11.931145056037789 -21.01197019602186 a45.16309404581139,45.16309404581139 0 0,0 0.6727220661669275,0.38968404192872536 l -12.291063854670044 20.803481996703084" fill="#ff1e03" stroke="none" /><line stroke="#e1ed5e" stroke-width="0.3" x1="143.23703022742887" x2="145.7803849466894" y1="26.81831364943548" y2="22.513508569990506" /><path d="M 143.74570117128098 25.957352633546492 a86.0,86.0 0 0,1 28.547481713284135,27.462654790039103" fill="none" id="id50" stroke="none" /><text fill="#e1ed5e" style="font-size:6.75px; font-family:Arial;" text-anchor="middle"><textPath startOffset="19.985693538727396" xlink:href="#id50">February</textPath></text><path d="M 111.2981086023043 82.29822771554956 l 15.86965776359916 -24.864433318166054 a50.497221594029654,50.497221594029654 0 0,0 0.7286820594890038,0.47395508110180756 l -16.295306848872443 24.58757931290472" fill="#ff900d" stroke="none" /><path d="M 113.6212207817346 84.01681056812373 l 21.262887142824695 -24.949948210816316 a53.781248990404805,53.781248990404805 0 0,0 0.6994282198000955,0.6065372599305152 l -21.689209161271556 24.580245957466133" fill="#ffd113" stroke="none" /><path d="M 113.89432698308785 84.25364557470407 l 17.10721896064902 -19.38750493733211 a46.85599134171162,46.85599134171162 0 0,0 0.6001784207722786,0.5388461121009797 l -17.438408369017292 19.09015981646183" fill="#ff4306" stroke="none" /><path d="M 114.42810811169701 84.74124197986012 l 16.562864940584166 -17.516416309893227 a45.10712208832746,45.10712208832746 0 0,0 0.5595791017347482,0.5383146525148865 l -16.861927285931333 17.22871857061604" fill="#ff1d02" stroke="none" /><path d="M 114.94478906791727 85.2469230424477 l 18.64103281519348 -18.401905201940295 a47.1938584305237,47.1938584305237 0 0,0 0.5657324143190056,0.5830369822389017 l -18.955029493215594 18.07830402415128" fill="#ff4b06" stroke="none" /><path d="M 115.4437574822437 85.77008943001954 l 23.386418140656044 -21.54829477711771 a52.8002132265047,52.8002132265047 0 0,0 0.6101098817257463,0.6736985697912108 l -23.753871662997824 21.142543420056953" fill="#ffbe11" stroke="none" /><path d="M 115.9244219780498 86.31012108654704 l 21.558008440271244 -18.532950556655187 a49.429174878040904,49.429174878040904 0 0,0 0.5491096134826743,0.6499725842756569 l -21.873828667241035 18.159119022750424" fill="#ff7a0b" stroke="none" /><path d="M 116.38621287248628 86.86637796730983 l 24.030606433003904 -19.260637254221074 a51.79678867961102,51.79678867961102 0 0,0 0.5516257345967506,0.7005086644674613 l -24.35858624819462 18.844136195800573" fill="#ffaa0f" stroke="none" /><path d="M 116.82858285166822 87.43820079747576 l 22.1100438075309 -16.504178225660002 a48.590613187736245,48.590613187736245 0 0,0 0.49455384376703226,0.6745708871074437 l -22.390860263811557 16.121144894881066" fill="#ff6809" stroke="none" /><path d="M 117.2510076193507 88.02491185347247 l 20.769844221834312 -14.417750014040795 a46.283550867444184,46.283550867444184 0 0,0 0.4486761237423004,0.6583768478660772 l -21.014944811245346 14.058095142904312" fill="#ff3705" stroke="none" /><path d="M 117.45458315368197 88.32363383020206 l 28.023309851136407 -18.7463902306112 a54.715471844409265,54.715471844409265 0 0,0 0.5169397005671202,0.7873346291580314 l -28.341846187061453 18.261237537475495" fill="#ffe415" stroke="none" /><line stroke="#e1ed5e" stroke-width="0.3" x1="172.23445277983987" x2="176.4835382374775" y1="55.19839476539836" y2="52.563006222186495" /><path d="M 173.08426987136738 54.67131705675599 a86.0,86.0 0 0,1 12.851231095245387,41.99856678651699" fill="none" id="id51" stroke="none" /><text fill="#e1ed5e" style="font-size:6.75px; font-family:Arial;" text-anchor="middle"><textPath startOffset="22.20632615414155" xlink:href="#id51">March</textPath></text><path d="M 117.84615892207809 88.93136811851018 l 22.05502268750211 -13.679073930237129 a46.952670177365675,46.952670177365675 0 0,0 0.4200792835525986,0.6904998897499667 l -22.28721776934093 13.297406267280081" fill="#ff4506" stroke="none" /><path d="M 118.21658344932153 89.55222093294921 l 33.67254793392542 -19.312257011148446 a59.81757018705779,59.81757018705779 0 0,0 0.504582165480517,0.8975953695987983 l -33.99998774069837 18.729778131614854" fill="#bdff1f" stroke="none" /><path d="M 118.3937258080291 89.86733742301442 l 53.639552277010125 -29.548743396309234 a82.23993635511904,82.23993635511904 0 0,0 0.672377666331565,1.2458136992424595 l -54.140238042560156 28.621048713734314" fill="#4aebff" stroke="none" /><path d="M 118.73160827565052 90.50648371742162 l 27.53415701327025 -13.954806447257571 a51.868534552385874,51.868534552385874 0 0,0 0.39676955802957004,0.7998632177810038 l -27.770286584253228 13.478783640977616" fill="#ffac0f" stroke="none" /><path d="M 118.89224826269711 90.83032412892265 l 29.475917307288384 -14.30664068946163 a53.76445740315963,53.76445740315963 0 0,0 0.3969399325192301,0.8360567301891846 l -29.71781543364937 13.797141543631906" fill="#ffd113" stroke="none" /><path d="M 119.196687751892 91.48605970444005 l 29.666706251793173 -13.157507641847635 a53.453558621135265,53.453558621135265 0 0,0 0.36579871265838104,0.844313862834321 l -29.888795674294233 12.644894634426713" fill="#ffcb12" stroke="none" /><path d="M 119.47837535516314 92.15188598940014 l 58.435126065489385 -23.54434203179955 a84.0,84.0 0 0,0 0.5288258004731983,1.3458039804168624 l -58.83174541584429 22.534989046486903" fill="#4dd2ff" stroke="none" /><path d="M 119.7369772167798 92.82701384747503 l 21.437731666476306 -7.791089319110506 a43.8095903466546,43.8095903466546 0 0,0 0.25148148320350094,0.7109720178770268 l -21.568666230489615 7.420919674806865" fill="#ff0000" stroke="none" /><path d="M 119.85752413597 93.16781622104841 l 28.836970423894847 -9.921653888732235 a51.496066617129195,51.496066617129195 0 0,0 0.2811751599252021,0.8406779395264863 l -29.003482877591818 9.423802846283435" fill="#ffa40f" stroke="none" /><path d="M 120.18372546131832 94.20196356495316 l 28.896935345513725 -8.3010187745359 a51.06559138048008,51.06559138048008 0 0,0 0.23542022926108425,0.8469318220022768 l -29.035542345341174 7.802375649114671" fill="#ff9b0e" stroke="none" /><path d="M 120.28053869075195 94.5502522615342 l 54.69465313289739 -14.697443039474166 a77.6349707621232,77.6349707621232 0 0,0 0.33569238668298046,1.293559703432257 l -54.93954185145068 13.753786910493059" fill="#41ffcd" stroke="none" /><line stroke="#e1ed5e" stroke-width="0.3" x1="184.98032266829074" x2="189.97916517819016" y1="98.17113171792111" y2="98.06355123074" /><path d="M 185.9800911702706 98.14961562048488 a86.0,86.0 0 0,1 -9.607161424134198,41.387399972396054" fill="none" id="id52" stroke="none" /><text fill="#e1ed5e" style="font-size:6.75px; font-family:Arial;" text-anchor="middle"><textPath startOffset="21.466115282336823" xlink:href="#id52">April</textPath></text><line stroke="#e1ed5e" stroke-width="0.3" x1="174.80103733775053" x2="179.2010983576182" y1="140.37084112569926" y2="142.7455964860345" /><path d="M 175.68104954172406 140.8457921977663 a86.0,86.0 0 0,1 -30.038265399797805,32.042727171017184" fill="none" id="id53" stroke="none" /><text fill="#e1ed5e" style="font-size:6.75px; font-family:Arial;" text-anchor="middle"><textPath startOffset="22.206326154141568" xlink:href="#id53">May</textPath></text><line stroke="#e1ed5e" stroke-width="0.3" x1="143.8653032363475" x2="146.44561519142675" y1="172.8068346515853" y2="177.08958963109032" /><path d="M 144.38136562736335 173.6633856474863 a86.0,86.0 0 0,1 -40.68145358897372,12.25698825130547" fill="none" id="id54" stroke="none" /><text fill="#e1ed5e" style="font-size:6.75px; font-family:Arial;" text-anchor="middle"><textPath startOffset="21.466115282336833" xlink:href="#id54">June</textPath></text><line stroke="#e1ed5e" stroke-width="0.3" x1="102.19456741930631" x2="102.32365962044197" y1="184.97166512339345" y2="189.96999836594603" /><path d="M 102.22038585953345 185.97133177190398 a86.0,86.0 0 0,1 -42.740103519485714,-10.115201625700543" fill="none" id="id55" stroke="none" /><text fill="#e1ed5e" style="font-size:6.75px; font-family:Arial;" text-anchor="middle"><textPath startOffset="22.20632615414155" xlink:href="#id55">July</textPath></text><line stroke="#e1ed5e" stroke-width="0.3" x1="58.666819895761336" x2="56.23545636021788" y1="174.27360380694188" y2="178.64263932499728" /><path d="M 58.180547188652646 175.14741091055294 a86.0,86.0 0 0,1 -31.652253787137756,-30.449443065178592" fill="none" id="id56" stroke="none" /><text fill="#e1ed5e" style="font-size:6.75px; font-family:Arial;" text-anchor="middle"><textPath startOffset="22.20632615414155" xlink:href="#id56">August</textPath></text><line stroke="#e1ed5e" stroke-width="0.3" x1="26.63291911575756" x2="22.317208475507996" y1="142.92168965132927" y2="145.44649492493687" /><path d="M 25.769776987707644 143.4266507060508 a86.0,86.0 0 0,1 -11.730757126820373,-40.83630448921669" fill="none" id="id57" stroke="none" /><text fill="#e1ed5e" style="font-size:6.75px; font-family:Arial;" text-anchor="middle"><textPath startOffset="21.46611528233685" xlink:href="#id57">September</textPath></text><line stroke="#e1ed5e" stroke-width="0.3" x1="15.007084014347285" x2="10.007500721073583" y1="101.09737516637583" y2="101.16192664675087" /><path d="M 14.007167355692545 101.11028546245083 a86.0,86.0 0 0,1 10.666146001902534,-42.60595125391555" fill="none" id="id58" stroke="none" /><text fill="#e1ed5e" style="font-size:6.75px; font-family:Arial;" text-anchor="middle"><textPath startOffset="22.20632615414155" xlink:href="#id58">October</textPath></text><line stroke="#e1ed5e" stroke-width="0.3" x1="26.266209847984243" x2="21.928928074336255" y1="57.711370442889674" y2="55.22380399835377" /><path d="M 25.398753493254645 57.213857153982495 a86.0,86.0 0 0,1 29.58750427330803,-30.492523968695096" fill="none" id="id59" stroke="none" /><text fill="#e1ed5e" style="font-size:6.75px; font-family:Arial;" text-anchor="middle"><textPath startOffset="21.46611528233685" xlink:href="#id59">November</textPath></text><line stroke="#e1ed5e" stroke-width="0.3" x1="56.762969772571076" x2="54.21961505331055" y1="26.818313649435495" y2="22.513508569990535" /><path d="M 56.25429882871897 25.957352633546506 a86.0,86.0 0 0,1 42.265352541879196,-11.944610805530505" fill="none" id="id60" stroke="none" /><text fill="#e1ed5e" style="font-size:6.75px; font-family:Arial;" text-anchor="middle"><textPath startOffset="22.20632615414155" xlink:href="#id60">December</textPath></text></svg>