<?xml version="1.0" encoding="utf-8" ?>
<svg baseProfile="full" height="200mm" version="1.1" viewBox="0,0,200,200" width="200mm" xmlns="http://www.w3.org/2000/svg" xmlns:ev="http://www.w3.org/2001/xml-events" xmlns:xlink="http://www.w3.org/1999/xlink"><defs /><rect fill="#1a1a1a" height="200" width="200" x="0" y="0" /><text alignment-baseline="middle" fill="#e1ed5e" style="dominant-baseline: central; font-size:9.0px; font-family:Arial;" text-anchor="middle" x="100.0" y="100.0">2019</text><line stroke="#e1ed5e" stroke-width="0.3" x1="100.0" x2="100.0" y1="15.0" y2="10.0" /><path d="M 100.0 14.0 a86.0,86.0 0 0,1 42.46469731375804,11.215312516191453" fill="none" id="id25" stroke="none" /><text fill="#e1ed5e" style="font-size:6.75px; font-family:Arial;" text-anchor="middle"><textPath startOffset="22.20632615414155" xlink:href="#id25">January</textPath></text><path d="M 104.307194497241 79.44645832069477 l 0.6008663475486559 -2.867279739966238 a23.929561993683922,23.929561993683922 0 0,0 0.40242375837565175,0.08795424678049847 l -0.6501328300778355 2.856511995089869" fill="#ff0100" stroke="none" /><path d="M 106.74666289553966 80.11325718540242 l 3.4182597946644675 -10.075804062318422 a31.639846217218178,31.639846217218178 0 0,0 0.5142499477431962,0.17941170920518568 l -3.5911917464709373 10.015471499941029" fill="#ff710a" stroke="none" /><line stroke="#e1ed5e" stroke-width="0.3" x1="143.23703022742887" x2="145.7803849466894" y1="26.81831364943548" y2="22.513508569990506" /><path d="M 143.74570117128098 25.957352633546492 a86.0,86.0 0 0,1 28.547481713284135,27.462654790039103" fill="none" id="id26" stroke="none" /><text fill="#e1ed5e" style="font-size:6.75px; font-family:Arial;" text-anchor="middle"><textPath startOffset="19.985693538727396" xlink:href="#id26">February</textPath></text><path d="M 113.34407831869373 83.78471172551755 l 5.824636135538562 -7.077907651322215 a30.166414938898804,30.166414938898804 0 0,0 0.39811402558474723,0.33340904728077186 l -5.945607698082426 6.976597446647625" fill="#ff5c08" stroke="none" /><path d="M 116.82858285166822 87.43820079747576 l 2.8675369104655006 -2.140490568492734 a24.578333104489907,24.578333104489907 0 0,0 0.2501575574535011,0.341214627233858 l -2.9039570804326282 2.0908134975873827" fill="#ff0a01" stroke="none" /><path d="M 117.65298651832404 88.62581576622439 l 10.565614202028627 -6.807643701088548 a33.56885898668131,33.56885898668131 0 0,0 0.30878938960656105,0.4884306584252659 l -10.681231187881144 6.624765394949075" fill="#ff8b0c" stroke="none" /><line stroke="#e1ed5e" stroke-width="0.3" x1="172.23445277983987" x2="176.4835382374775" y1="55.19839476539836" y2="52.563006222186495" /><path d="M 173.08426987136738 54.67131705675599 a86.0,86.0 0 0,1 12.851231095245387,41.99856678651699" fill="none" id="id27" stroke="none" /><text fill="#e1ed5e" style="font-size:6.75px; font-family:Arial;" text-anchor="middle"><textPath startOffset="22.20632615414155" xlink:href="#id27">March</textPath></text><path d="M 118.21658344932153 89.55222093294921 l 15.225091783059202 -8.732065245247588 a38.55142111767129,38.55142111767129 0 0,0 0.32519474611014293,0.578485167125059 l -15.373144170461778 8.468696568187735" fill="#ffce13" stroke="none" /><path d="M 119.04729006885535 91.15688171328212 l 15.801692516274072 -7.336279100418707 a38.42166689551009,38.42166689551009 0 0,0 0.2733384767902515,0.602265101219211 l -15.925633310027669 7.063191990357433" fill="#ffcc13" stroke="none" /><path d="M 119.61058180528143 92.48833698450437 l 17.337983831416604 -6.64116410226231 a39.56638747768777,39.56638747768777 0 0,0 0.23814332508316605,0.6381057138107221 l -17.449731745001397 6.341735251422254" fill="#ffdb14" stroke="none" /><path d="M 119.85752413597 93.16781622104841 l 17.71444930816931 -6.094837019339344 a39.73362625291776,39.73362625291776 0 0,0 0.21695071973431398,0.6486550379967752 l -17.816737321675394 5.789008878420255" fill="#ffdd14" stroke="none" /><path d="M 120.08093135843002 93.85539295169968 l 18.106752194261972 -5.540523752051102 a39.935466154057394,39.935466154057394 0 0,0 0.1954824007967765,0.6590694759797557 l -18.19944049217045 5.228024889324816" fill="#ffe015" stroke="none" /><path d="M 120.18372546131832 94.20196356495316 l 17.786509681551692 -5.109405168217859 a39.50583550734588,39.50583550734588 0 0,0 0.1821279769971522,0.655211236009466 l -17.871824429115208 4.80248262878944" fill="#ffdb14" stroke="none" /><path d="M 120.37134235888165 94.90015583598534 l 19.12103478859192 -4.786837114541278 a40.71110805986544,40.71110805986544 0 0,0 0.1643317442149513,0.6812611717974523 l -19.20059933306769 4.45699071108442" fill="#ffea16" stroke="none" /><path d="M 120.45610955862082 95.25157060432595 l 17.290650891510342 -4.013638797167304 a38.75037759165179,38.75037759165179 0 0,0 0.14523201058349813,0.6510466263103165 l -17.35717728909588 3.7154140013070234" fill="#ffd113" stroke="none" /><line stroke="#e1ed5e" stroke-width="0.3" x1="184.98032266829074" x2="189.97916517819016" y1="98.17113171792111" y2="98.06355123074" /><path d="M 185.9800911702706 98.14961562048488 a86.0,86.0 0 0,1 -9.607161424134198,41.387399972396054" fill="none" id="id28" stroke="none" /><text fill="#e1ed5e" style="font-size:6.75px; font-family:Arial;" text-anchor="middle"><textPath startOffset="21.466115282336823" xlink:href="#id28">April</textPath></text><path d="M 120.9764740272857 100.99374915477107 l 17.727611923375463 0.8398360631080459 a38.74749416449265,38.74749416449265 0 0,0 -0.037296583382312405,0.6659555507187397 l -17.710528989105622 -1.1448633301622089" fill="#ffd113" stroke="none" /><path d="M 120.8583938346157 102.4346265915055 l 20.360060657734866 2.376460310176117 a41.49828367431004,41.49828367431004 0 0,0 -0.08892191115191017,0.7087951229295363 l -20.316137237336108 -2.7265731873930483" fill="#fff417" stroke="none" /><path d="M 120.5718875245553 104.21870165774334 l 60.62252506549577 12.431933952833653 a82.88411368941371,82.88411368941371 0 0,0 -0.29864314937057307,1.3951613704355652 l -60.39954787740076 -13.473609142685387" fill="#4cdcff" stroke="none" /><path d="M 119.9155931802556 106.66101706037122 l 11.091259912002847 3.709609391303815 a32.695180557462585,32.695180557462585 0 0,0 -0.18310728654877195,0.5321954853316523 l -11.025761794510844 -3.8999775797247676" fill="#ff7f0b" stroke="none" /><line stroke="#e1ed5e" stroke-width="0.3" x1="174.80103733775053" x2="179.2010983576182" y1="140.37084112569926" y2="142.7455964860345" /><path d="M 175.68104954172406 140.8457921977663 a86.0,86.0 0 0,1 -30.038265399797805,32.042727171017184" fill="none" id="id29" stroke="none" /><text fill="#e1ed5e" style="font-size:6.75px; font-family:Arial;" text-anchor="middle"><textPath startOffset="22.206326154141568" xlink:href="#id29">May</textPath></text><path d="M 118.48025628344425 109.97397251340804 l 9.596640019770174 5.179399154978615 a31.905121515858852,31.905121515858852 0 0,0 -0.26500027865152365,0.48105248028673453 l -9.50606333166714 -5.3438221536631545" fill="#ff740a" stroke="none" /><path d="M 117.94076556474637 110.91462005526583 l 52.27529672517955 31.802712095674323 a82.18920774406152,82.18920774406152 0 0,0 -0.7457119196628293,1.2023250543408273 l -51.72012016584876 -32.69783348138042" fill="#4be3ff" stroke="none" /><path d="M 114.55890576462653 115.13401014063108 l 6.280939436009415 6.529048450070419 a30.05972813401071,30.05972813401071 0 0,0 -0.3759815908932899,0.35551406177725786 l -6.167622010725317 -6.636197148593598" fill="#ff5a08" stroke="none" /><path d="M 113.48314897796784 116.09983520530334 l 3.3268184420442397 3.9724569358684736 a26.181518604970478,26.181518604970478 0 0,0 -0.34800209155762796,0.2863820294901579 l -3.257946221941921 -4.029134084215809" fill="#ff2203" stroke="none" /><line stroke="#e1ed5e" stroke-width="0.3" x1="143.8653032363475" x2="146.44561519142675" y1="172.8068346515853" y2="177.08958963109032" /><path d="M 144.38136562736335 173.6633856474863 a86.0,86.0 0 0,1 -40.68145358897372,12.25698825130547" fill="none" id="id30" stroke="none" /><text fill="#e1ed5e" style="font-size:6.75px; font-family:Arial;" text-anchor="middle"><textPath startOffset="21.466115282336833" xlink:href="#id30">June</textPath></text><path d="M 110.8373102113329 117.98757091392108 l 3.474546113340979 5.766988615131912 a27.732802416586573,27.732802416586573 0 0,0 -0.41101614945064135,0.24283558584082346 l -3.3747620928619555 -5.825942773266486" fill="#ff3905" stroke="none" /><path d="M 107.59598834532513 119.57807347666477 l 3.235309054949684 8.338759292134304 a29.9443910476452,29.9443910476452 0 0,0 -0.48214715878134645,0.1823067997587036 l -3.091291675408063 -8.393214341999638" fill="#ff5908" stroke="none" /><path d="M 106.91757812671514 119.82793768551818 l 2.289079127472674 6.5612151341615865 a27.9490594535219,27.9490594535219 0 0,0 -0.45560995175607016,0.15456763256851483 l -2.1757994427793768 -6.5996457536282245" fill="#ff3c05" stroke="none" /><path d="M 101.62511606390274 120.93702456842531 l 0.7247531203564567 9.33728625542296 a30.365371412879306,30.365371412879306 0 0,0 -0.5214706530601516,0.035963669353151304 l -0.5639197065173747 -9.348378269292395" fill="#ff5f08" stroke="none" /><path d="M 100.90346689309514 120.98055641714683 l 0.5027806285479351 11.675709894095304 a32.68653027598517,32.68653027598517 0 0,0 -0.5623322934801787,0.019367861189317707 l -0.3017279833931042 -11.682634553710715" fill="#ff7f0b" stroke="none" /><line stroke="#e1ed5e" stroke-width="0.3" x1="102.19456741930631" x2="102.32365962044197" y1="184.97166512339345" y2="189.96999836594603" /><path d="M 102.22038585953345 185.97133177190398 a86.0,86.0 0 0,1 -42.740103519485714,-10.115201625700543" fill="none" id="id31" stroke="none" /><text fill="#e1ed5e" style="font-size:6.75px; font-family:Arial;" text-anchor="middle"><textPath startOffset="22.20632615414155" xlink:href="#id31">July</textPath></text><path d="M 98.37488393609728 120.93702456842531 l -1.2442190268188325 16.029774679876365 a37.077989839351915,37.077989839351915 0 0,0 -0.6358975584459036,-0.054867917060094355 l 1.5199609030062775 -16.005982510537606" fill="#ffbb11" stroke="none" /><path d="M 97.65516085044442 120.86867818915974 l -1.7807641543583592 15.848504608573737 a36.94823561719072,36.94823561719072 0 0,0 -0.6314146918878892,-0.07645552587029839 l 2.053306269297638 -15.81550355397809" fill="#ffb911" stroke="none" /><path d="M 96.93821686468263 120.77559828337769 l -2.2714285706604027 15.412681247437828 a36.57915694082109,36.57915694082109 0 0,0 -0.6221315713665182,-0.09716415666546976 l 2.536396005635438 -15.371298783425253" fill="#ffb410" stroke="none" /><path d="M 95.86986931433489 120.58985236759428 l -3.0112582645725237 15.011961564180368 a36.310998215021286,36.310998215021286 0 0,0 -0.6117686291665155,-0.12820206435681272 l 3.2692183551684257 -14.957903519097014" fill="#ffb110" stroke="none" /><path d="M 94.81253420990036 120.34920634021253 l -4.188150328955908 16.42912718391455 a37.954551695729776,37.954551695729776 0 0,0 -0.6316894550696645,-0.166834926420013 l 4.470330226837062 -16.354600908190953" fill="#ffc612" stroke="none" /><path d="M 93.42475214034765 119.94407469862007 l -4.835511126774405 14.667096537938908 a36.443635864341616,36.443635864341616 0 0,0 -0.5940837903894552,-0.201545476945575 l 5.087264650101086 -14.58168807409521" fill="#ffb210" stroke="none" /><path d="M 92.7421414339146 119.70592522655815 l -5.372389884630835 14.586659741366875 a36.54455581491143,36.54455581491143 0 0,0 -0.5884191709575962,-0.22248978142915427 l 5.622679276348714 -14.492021709831088" fill="#ffb410" stroke="none" /><path d="M 92.40401165467489 119.57807347666478 l -5.555928863867487 14.31997767543503 a36.36001647672663,36.36001647672663 0 0,0 -0.5815506290144404,-0.23141099712199653 l 5.801600568923785 -14.222219833906966" fill="#ffb110" stroke="none" /><path d="M 91.7346041902142 119.30500536409082 l -6.062576467921971 14.160008053682983 a36.40326788411369,36.40326788411369 0 0,0 -0.5739223510155144,-0.25159069266202677 l 6.305419493595229 -14.053552807726504" fill="#ffb210" stroke="none" /><path d="M 90.42595943632237 118.69057910512821 l -6.776627640499546 13.2294295327387 a35.86406700535494,35.86406700535494 0 0,0 -0.5470279492483109,-0.28617916890918754 l 7.0033464922743525 -13.110820944884797" fill="#ffab0f" stroke="none" /><line stroke="#e1ed5e" stroke-width="0.3" x1="58.666819895761336" x2="56.23545636021788" y1="174.27360380694188" y2="178.64263932499728" /><path d="M 58.180547188652646 175.14741091055294 a86.0,86.0 0 0,1 -31.652253787137756,-30.449443065178592" fill="none" id="id32" stroke="none" /><text fill="#e1ed5e" style="font-size:6.75px; font-family:Arial;" text-anchor="middle"><textPath startOffset="22.20632615414155" xlink:href="#id32">August</textPath></text><path d="M 88.8546689885994 117.79835938074946 l -6.307984955237299 10.073436409096423 a32.88548674996567,32.88548674996567 0 0,0 -0.47718125053615784,-0.30455965114163297 l 6.480448007820381 -9.963362329130986" fill="#ff820c" stroke="none" /><path d="M 87.65650970185807 116.9893568818739 l -10.852034653165287 14.936544296943367 a39.462584099958804,39.462584099958804 0 0,0 -0.5461152402652105,-0.40400299897673386 l 11.107534863849061 -14.747531349226866" fill="#ffda14" stroke="none" /><path d="M 86.51685102203217 116.09983520530335 l -9.960090828156934 11.893054154130438 a36.51283811616092,36.51283811616092 0 0,0 -0.478378205424239,-0.407684284856071 l 10.16333451015823 -11.719845479051415" fill="#ffb310" stroke="none" /><line stroke="#e1ed5e" stroke-width="0.3" x1="26.63291911575756" x2="22.317208475507996" y1="142.92168965132927" y2="145.44649492493687" /><path d="M 25.769776987707644 143.4266507060508 a86.0,86.0 0 0,1 -11.730757126820373,-40.83630448921669" fill="none" id="id33" stroke="none" /><text fill="#e1ed5e" style="font-size:6.75px; font-family:Arial;" text-anchor="middle"><textPath startOffset="21.46611528233685" xlink:href="#id33">September</textPath></text><path d="M 81.87401531095188 110.60418214915194 l -4.193640560352341 2.4533910368421004 a25.858574763147054,25.858574763147054 0 0,0 -0.2214577644522149,-0.3861302790529594 l 4.235250320956933 -2.380840911930834" fill="#ff1d03" stroke="none" /><path d="M 80.73074385275274 108.34839909993369 l -10.958843740477572 4.747915566651839 a32.94315529314843,32.94315529314843 0 0,0 -0.22095290949854418,-0.5222674096202301 l 11.038947631168423 -4.55857363136545" fill="#ff830c" stroke="none" /><path d="M 79.29508885075956 103.50808413554451 l -15.871964704958032 2.689226105827955 a37.09817382946588,37.09817382946588 0 0,0 -0.10125724953832667,-0.6305289895327629 l 15.91590370885765 -2.415617886601978" fill="#ffbb11" stroke="none" /><path d="M 79.23777060512086 103.15116336523772 l -14.977997149621727 2.2732682027954136 a36.14952629410957,36.14952629410957 0 0,0 -0.08807737229231061,-0.6160129366719371 l 15.014908572930636 -2.015109794143076" fill="#ffae10" stroke="none" /><path d="M 79.1416061653843 102.43462659150553 l -18.1175613617711 2.114712044193876 a39.240560208705205,39.240560208705205 0 0,0 -0.07253467786244472,-0.6715810319195388 l 18.151278341134596 -1.802534690389555" fill="#ffd714" stroke="none" /><line stroke="#e1ed5e" stroke-width="0.3" x1="15.007084014347285" x2="10.007500721073583" y1="101.09737516637583" y2="101.16192664675087" /><path d="M 14.007167355692545 101.11028546245083 a86.0,86.0 0 0,1 10.666146001902534,-42.60595125391555" fill="none" id="id34" stroke="none" /><text fill="#e1ed5e" style="font-size:6.75px; font-family:Arial;" text-anchor="middle"><textPath startOffset="22.20632615414155" xlink:href="#id34">October</textPath></text><path d="M 79.08570108090925 98.10471618934814 l -14.570802240212345 -1.3204270294174802 a35.63050940546478,35.63050940546478 0 0,0 0.060610676636647015,-0.6103412422196011 l 14.545914437893469 1.5710438023415116" fill="#ffa70f" stroke="none" /><path d="M 79.16333360222342 97.38593545837743 l -15.729780565011074 -1.9733800425430248 a36.853082520939175,36.853082520939175 0 0,0 0.08438303117421742,-0.6287515955061909 l 15.693481534779021 2.2438499801138754" fill="#ffb811" stroke="none" /><path d="M 79.3925641242962 95.95851677861259 l -28.892287206757043 -5.666289327692827 a50.44267472195524,50.44267472195524 0 0,0 0.17443726448758548,-0.8506180517750155 l 28.79047064635446 6.162783035631244" fill="#9eff22" stroke="none" /><path d="M 79.62865764111835 94.90015583598534 l -14.687617565081357 -3.6769575319567394 a36.140876012632155,36.140876012632155 0 0,0 0.1562725767317819,-0.6021819857435865 l 14.622148656479267 3.9292359432491897" fill="#ffae10" stroke="none" /><path d="M 80.02781315780177 93.51064311812611 l -59.91656052659468 -19.468070645621676 a84.0,84.0 0 0,0 0.4586508249129104,-1.3713075883107113 l 59.572572407909995 20.496551336854708" fill="#4dd2ff" stroke="none" /><path d="M 81.10775173730289 90.83032412892265 l -6.523960508126217 -3.1665158335520407 a28.25181930523136,28.25181930523136 0 0,0 0.21611294701118516,-0.43567051378376703 l 6.468487548161619 3.278345935834769" fill="#ff4006" stroke="none" /><path d="M 81.43458229118936 90.18545643968196 l -13.227509610190634 -6.992676992240879 a35.96210352876562,35.96210352876562 0 0,0 0.29401913861694623,-0.544772810088892 l 13.105182372355216 7.219330785662243" fill="#ffac0f" stroke="none" /><line stroke="#e1ed5e" stroke-width="0.3" x1="26.266209847984243" x2="21.928928074336255" y1="57.711370442889674" y2="55.22380399835377" /><path d="M 25.398753493254645 57.213857153982495 a86.0,86.0 0 0,1 29.58750427330803,-30.492523968695096" fill="none" id="id35" stroke="none" /><text fill="#e1ed5e" style="font-size:6.75px; font-family:Arial;" text-anchor="middle"><textPath startOffset="21.46611528233685" xlink:href="#id35">November</textPath></text><path d="M 81.96595687620814 89.24020034530311 l -12.79196303412176 -7.632174243603481 a35.89578470410545,35.89578470410545 0 0,0 0.3211548025724132,-0.527894053459444 l 12.65869243326313 7.851236070270001" fill="#ffab0f" stroke="none" /><path d="M 83.6137871275137 86.86637796730984 l -40.01909495161208 -32.07548145961947 a72.28707899278858,72.28707899278858 0 0,0 0.7865574549164341,-0.9642264361271966 l 39.46103900461926 32.759592065354745" fill="#3effb5" stroke="none" /><path d="M 83.84228863543731 86.58626213691792 l -41.49161383805189 -34.44532576318368 a74.92619480195005,74.92619480195005 0 0,0 0.8323564770995785,-0.9852475301382839 l 40.89254674746519 35.15443224295108" fill="#41ffd2" stroke="none" /><path d="M 84.31358615837235 86.03803664274999 l -29.01254768497519 -25.823118768111073 a59.8402032188933,59.8402032188933 0 0,0 0.691457421804413,-0.7635245553202763 l 28.56374662255473 26.318696110700902" fill="#39ff2e" stroke="none" /><path d="M 84.5562425177563 85.77008943001954 l -26.128361080161532 -24.074726758584156 a56.52863241437514,56.52863241437514 0 0,0 0.6655107227216027,-0.7099204376061672 l 25.710083035469474 24.520916613068373" fill="#5cff2a" stroke="none" /><path d="M 85.31137513191541 84.99185889309783 l -42.31288622607144 -43.23330283292798 a81.49379153784399,81.49379153784399 0 0,0 1.0109761065316245,-0.9725582134880929 l 41.56242687592739 43.95524413317839" fill="#4aeaff" stroke="none" /><path d="M 85.83668400450813 84.49514656593479 l -20.24234502796781 -22.15968300928387 a51.01339839643684,51.01339839643684 0 0,0 0.653430650191943,-0.5866564894660563 l 19.857903390179896 22.504838507519207" fill="#98ff23" stroke="none" /><path d="M 86.10567301691215 84.25364557470407 l -24.62534681103878 -27.90775250967017 a58.2189515664391,58.2189515664391 0 0,0 0.7571407956703647,-0.656585037016043 l 24.141312216721644 28.327502540105897" fill="#4aff2c" stroke="none" /><path d="M 86.93701828274178 83.55741782278169 l -19.472675742388216 -24.510565660635876 a52.30419987114408,52.30419987114408 0 0,0 0.7097616281766965,-0.5539802088443059 l 19.047881559052094 24.842124258703404" fill="#8aff24" stroke="none" /><path d="M 87.80319425747018 82.90503203632743 l -20.22733230318188 -28.350504633168946 a55.826657678546745,55.826657678546745 0 0,0 0.7870730914162113,-0.5513949990647298 l 19.736328072182005 28.69448447499762" fill="#63ff29" stroke="none" /><line stroke="#e1ed5e" stroke-width="0.3" x1="56.762969772571076" x2="54.21961505331055" y1="26.818313649435495" y2="22.513508569990535" /><path d="M 56.25429882871897 25.957352633546506 a86.0,86.0 0 0,1 42.265352541879196,-11.944610805530505" fill="none" id="id36" stroke="none" /><text fill="#e1ed5e" style="font-size:6.75px; font-family:Arial;" text-anchor="middle"><textPath startOffset="22.20632615414155" xlink:href="#id36">December</textPath></text><path d="M 91.56875222667455 80.76684994638697 l -1.1622920176326723 -2.651391274725728 a23.89496086777427,23.89496086777427 0 0,0 0.3781277906345895,-0.1618945862656036 l 1.1164804692077746 2.6710053889541183" fill="#ff0000" stroke="none" /><path d="M 94.98787191387505 79.60689891045804 l -6.544679856009107 -26.628672613486636 a48.42114220038809,48.42114220038809 0 0,0 0.8111148036340655,-0.1919646679519281 l 6.085341365412507 26.737383193579436" fill="#b6ff1f" stroke="none" /></svg>