<?xml version="1.0" encoding="utf-8" ?>
<svg baseProfile="full" height="200mm" version="1.1" viewBox="0,0,200,200" width="200mm" xmlns="http://www.w3.org/2000/svg" xmlns:ev="http://www.w3.org/2001/xml-events" xmlns:xlink="http://www.w3.org/1999/xlink"><defs /><rect fill="#1a1a1a" height="200" width="200" x="0" y="0" /><text alignment-baseline="middle" fill="#e1ed5e" style="dominant-baseline: central; font-size:9.0px; font-family:Arial;" text-anchor="middle" x="100.0" y="100.0">2022</text><line stroke="#e1ed5e" stroke-width="0.3" x1="100.0" x2="100.0" y1="15.0" y2="10.0" /><path d="M 100.0 14.0 a86.0,86.0 0 0,1 42.46469731375804,11.215312516191453" fill="none" id="id37" stroke="none" /><text fill="#e1ed5e" style="font-size:6.75px; font-family:Arial;" text-anchor="middle"><textPath startOffset="22.20632615414155" xlink:href="#id37">January</textPath></text><path d="M 100.0 79.0 l 0.0 -16.44075050923258 a37.44075050923258,37.44075050923258 0 0,0 0.6444809732571692,0.0055472512067292765 l -0.28300049398464083 16.43831463463441" fill="#ffa60f" stroke="none" /><path d="M 108.09893153111575 80.62456947434976 l 5.285067833422853 -12.643700497579848 a34.7038353856277,34.7038353856277 0 0,0 0.5491737221721563,0.23512752762708153 l -5.501925313385325 12.550853441989977" fill="#ff800b" stroke="none" /><path d="M 110.36928655335952 81.73862282372117 l 6.3091167055514825 -11.11100163124624 a33.7772966958518,33.7772966958518 0 0,0 0.5031261321405006,0.2914431302805316 l -6.499439570157311 11.00075434357566" fill="#ff720a" stroke="none" /><line stroke="#e1ed5e" stroke-width="0.3" x1="143.23703022742887" x2="145.7803849466894" y1="26.81831364943548" y2="22.513508569990506" /><path d="M 143.74570117128098 25.957352633546492 a86.0,86.0 0 0,1 28.547481713284135,27.462654790039103" fill="none" id="id38" stroke="none" /><text fill="#e1ed5e" style="font-size:6.75px; font-family:Arial;" text-anchor="middle"><textPath startOffset="19.985693538727396" xlink:href="#id38">February</textPath></text><path d="M 113.89432698308785 84.25364557470407 l 7.206511044195966 -8.167094182384103 a31.8919800226612,31.8919800226612 0 0,0 0.408504390947812,0.3667592756086878 l -7.346026422739768 8.041835898006118" fill="#ff5608" stroke="none" /><path d="M 114.42810811169701 84.74124197986012 l 9.075777059548546 -9.598284468364684 a34.209723463050935,34.209723463050935 0 0,0 0.4243907711195324,0.4082635855726229 l -9.239651074280497 9.44063779602976" fill="#ff780b" stroke="none" /><path d="M 115.4437574822437 85.77008943001954 l 9.833003185111258 -9.060149780216445 a34.37064941124268,34.37064941124268 0 0,0 0.3971550788473689,0.4385485575941901 l -9.987501904574662 8.889548435352706" fill="#ff7b0b" stroke="none" /><path d="M 116.15771136456269 86.58626213691792 l 10.955957060293283 -9.09536831857714 a35.23933706173033,35.23933706173033 0 0,0 0.383440078896813,0.47005219826221994 l -11.110895631266505 8.90543195070682" fill="#ff870c" stroke="none" /><path d="M 116.38621287248628 86.86637796730983 l 12.442632786923658 -9.972825166295939 a36.94604504156856,36.94604504156856 0 0,0 0.3934682005589722,0.4996646573885287 l -12.612455068076596 9.757168114954371" fill="#ff9f0e" stroke="none" /><path d="M 117.2510076193507 88.02491185347247 l 18.51077249290688 -12.849575929363615 a43.53353722451579,43.53353722451579 0 0,0 0.4220172905624232,0.6192582997018429 l -18.729214249138035 12.529039606391365" fill="#fff917" stroke="none" /><line stroke="#e1ed5e" stroke-width="0.3" x1="172.23445277983987" x2="176.4835382374775" y1="55.19839476539836" y2="52.563006222186495" /><path d="M 173.08426987136738 54.67131705675599 a86.0,86.0 0 0,1 12.851231095245387,41.99856678651699" fill="none" id="id39" stroke="none" /><text fill="#e1ed5e" style="font-size:6.75px; font-family:Arial;" text-anchor="middle"><textPath startOffset="22.20632615414155" xlink:href="#id39">March</textPath></text><path d="M 118.03404312379186 89.2402003453031 l 15.070455754851329 -8.991610118379226 a38.54900821071867,38.54900821071867 0 0,0 0.33508326226812435,0.5727659140515692 l -15.22299869158978 8.730864791973762" fill="#ffb610" stroke="none" /><path d="M 118.3937258080291 89.86733742301442 l 11.671490610017555 -6.429544365075841 a34.32526674412961,34.32526674412961 0 0,0 0.28063668057775376,0.5199771477854079 l -11.780435389813773 6.227686233957974" fill="#ff7a0b" stroke="none" /><path d="M 118.56541770881063 90.18545643968196 l 19.843498325625408 -10.490196437299845 a43.44568214807108,43.44568214807108 0 0,0 0.34382202585396887,0.6641547175970283 l -20.02112978463949 10.147068997442473" fill="#fff817" stroke="none" /><path d="M 119.04729006885535 91.15688171328212 l 15.828716167588075 -7.348825417729195 a38.45146098566899,38.45146098566899 0 0,0 0.27355043717300975,0.6027321278262054 l -15.952868921724432 7.075271281060926" fill="#ffb510" stroke="none" /><path d="M 119.34039704204932 91.81776055985345 l 14.716665420091527 -6.226101768537138 a36.97950513373612,36.97950513373612 0 0,0 0.2429699875302911,0.5883710970111363 l -14.821657094508016 5.9718561010726985" fill="#ffa00e" stroke="none" /><path d="M 119.7369772167798 92.82701384747503 l 17.418318555125403 -6.330318793191984 a39.53296407246465,39.53296407246465 0 0,0 0.22693223930438564,0.6415679995374916 l -17.5247038752396 6.029553167227879" fill="#ffc312" stroke="none" /><path d="M 120.37134235888165 94.90015583598534 l 17.215733171840714 -4.309856208732687 a38.747009020789065,38.747009020789065 0 0,0 0.1564035929981456,0.6483938666157852 l -17.28736956509968 4.012877110457495" fill="#ffb911" stroke="none" /><path d="M 120.6074358757038 95.95851677861258 l 15.215792716341749 -2.984086488688591 a36.505648008343684,36.505648008343684 0 0,0 0.11562603573697462,0.6176789063714117 l -15.264904475988583 2.7217295048546166" fill="#ff990e" stroke="none" /><path d="M 120.73433829027371 96.67025291283417 l 12.982587689183452 -2.0848860926616486 a34.14892897260882,34.14892897260882 0 0,0 0.0882084829582844,0.5811836916985779 l -13.016552065581037 1.8611032885709884" fill="#ff780b" stroke="none" /><path d="M 120.83666639777658 97.38593545837742 l 19.034073452219623 -2.3879201953051523 a40.18327696311655,40.18327696311655 0 0,0 0.08019366441348726,0.6870503432492234 l -19.0723574696367 2.059926113731076" fill="#ffcc13" stroke="none" /><path d="M 120.91429891909075 98.10471618934814 l 12.47883571121245 -1.1308500175282719 a33.52997056938183,33.52997056938183 0 0,0 0.04714236612276896,0.5752562739324466 l -12.496452561154715 0.9158798263880564" fill="#ff6f0a" stroke="none" /><path d="M 120.96714384426684 98.82574320788733 l 15.391241829127074 -0.8619805535336632 a36.41536037585048,36.41536037585048 0 0,0 0.029663591471795592,0.6261515323828816 l -15.403799028832367 0.5969179145277819" fill="#ff980e" stroke="none" /><line stroke="#e1ed5e" stroke-width="0.3" x1="184.98032266829074" x2="189.97916517819016" y1="98.17113171792111" y2="98.06355123074" /><path d="M 185.9800911702706 98.14961562048488 a86.0,86.0 0 0,1 -9.607161424134198,41.387399972396054" fill="none" id="id40" stroke="none" /><text fill="#e1ed5e" style="font-size:6.75px; font-family:Arial;" text-anchor="middle"><textPath startOffset="21.466115282336823" xlink:href="#id40">April</textPath></text><path d="M 120.99513854157772 99.54816195383933 l 5.8926990088660975 -0.12681724397798985 a26.89406347289047,26.89406347289047 0 0,0 0.005976876323985048,0.4629156580414484 l -5.894008892307798 0.025365327876078744" fill="#ff0a01" stroke="none" /><path d="M 120.99824983174949 100.27111621757518 l 24.112746975553012 0.3113286491846045 a45.11475673181971,45.11475673181971 0 0,0 -0.016709511897201507,0.77642535909672 l -24.103815400970802 -0.7263438240714393" fill="#f0ff19" stroke="none" /><path d="M 120.9764740272857 100.99374915477107 l 13.969527357065235 0.6617988316614694 a34.98519475278705,34.98519475278705 0 0,0 -0.033675164326870885,0.6012926807521135 l -13.956065841850835 -0.9021632287490062" fill="#ff840c" stroke="none" /><path d="M 120.92983693683757 101.71520430193887 l 14.053585280000963 1.151694110310856 a35.1006970943278,35.1006970943278 0 0,0 -0.05453211493612062,0.6017573442322437 l -14.031678568787767 -1.3934328430916703" fill="#ff850c" stroke="none" /><path d="M 120.8583938346157 102.4346265915055 l 27.7116453719431 3.2345495656015966 a48.89977777891195,48.89977777891195 0 0,0 -0.10478172372455004,0.835213433742261 l -27.6518621389717 -3.7110807536312524" fill="#c1ff1e" stroke="none" /><path d="M 120.76222939487914 103.15116336523771 l 17.97395107568353 2.7279756465959446 a39.17979010878524,39.17979010878524 0 0,0 -0.10693889683469117,0.6659086126707704 l -17.92433042448755 -3.0369634889599197" fill="#ffbf11" stroke="none" /><path d="M 120.70491114924044 103.5080841355445 l 12.410203477101883 2.1026913674293852 a33.58707516978165,33.58707516978165 0 0,0 -0.10148663861636871,0.5691909652685332 l -12.372170396146325 -2.3160010834311366" fill="#ff6f0a" stroke="none" /><path d="M 120.5718875245553 104.21870165774334 l 13.408444858545034 2.74968587520152 a34.68748208900839,34.68748208900839 0 0,0 -0.12498388935683252,0.5838831217958868 l -13.35912693046376 -2.9800828164135758" fill="#ff7f0b" stroke="none" /><path d="M 120.32669344350535 105.2749913415812 l 14.947815677194717 3.879115828253289 a36.44295092035176,36.44295092035176 0 0,0 -0.16279920617239996,0.6058364089587285 l -14.87882839468054 -4.135843170387566" fill="#ff980e" stroke="none" /><path d="M 120.23288151984713 105.62410040840565 l 13.77304730625098 3.8284710412648066 a35.29524475530344,35.29524475530344 0 0,0 -0.16774882426126506,0.5839556638317281 l -13.705105845103615 -4.064984180601116" fill="#ff880c" stroke="none" /><path d="M 120.13307415673323 105.97154293290107 l 13.581872666224543 4.02843277207277 a35.166705182244996,35.166705182244996 0 0,0 -0.17712837654530297,0.578865783129328 l -13.510517517173106 -4.261625527754155" fill="#ff860c" stroke="none" /><path d="M 119.9155931802556 106.66101706037122 l 13.231832998842041 4.4255505998510545 a34.952308146722075,34.952308146722075 0 0,0 -0.19574818655962517,0.5689358578373254 l -13.153693981339185 -4.652659160777681" fill="#ff830c" stroke="none" /><path d="M 119.67450827220406 107.3425965602758 l 21.941689433014712 8.1887166443243 a44.41992347246044,44.41992347246044 0 0,0 -0.2735119145241808,0.7140533013037098 l -21.797483238897026 -8.565193512461153" fill="#f9ff18" stroke="none" /><path d="M 119.41010516605496 108.01547362559984 l 12.636704421949753 5.218373117615918 a34.671785422627906,34.671785422627906 0 0,0 -0.2325469979565689,0.5496724098966378 l -12.545006442800876 -5.435120053178719" fill="#ff7f0b" stroke="none" /><path d="M 119.26925614724726 108.34839909993367 l 16.602119204621786 7.1928628674468085 a39.093303687120454,39.093303687120454 0 0,0 -0.2728320086978716,0.6151641540669286 l -16.47584611119264 -7.477575358006424" fill="#ffbd11" stroke="none" /><path d="M 118.81262510543309 109.33194174019688 l 11.454814270588917 5.682123511143593 a33.786684385311865,33.786684385311865 0 0,0 -0.2629269002742456,0.5187797181225787 l -11.355308700528402 -5.878457440968866" fill="#ff720a" stroke="none" /><path d="M 118.64920377521936 109.65438752849418 l 29.416694899495774 15.228541432132534 a54.124770383509045,54.124770383509045 0 0,0 -0.4354401999617831,0.8236887584038182 l -29.1502021913091 -15.732645205622486" fill="#83ff25" stroke="none" /><line stroke="#e1ed5e" stroke-width="0.3" x1="174.80103733775053" x2="179.2010983576182" y1="140.37084112569926" y2="142.7455964860345" /><path d="M 175.68104954172406 140.8457921977663 a86.0,86.0 0 0,1 -30.038265399797805,32.042727171017184" fill="none" id="id41" stroke="none" /><text fill="#e1ed5e" style="font-size:6.75px; font-family:Arial;" text-anchor="middle"><textPath startOffset="22.206326154141568" xlink:href="#id41">May</textPath></text><path d="M 118.30583269289576 110.29060199501025 l 19.40390565711835 10.907882400980583 a43.25968223546714,43.25968223546714 0 0,0 -0.3704841665300539,0.6459703725484807 l -19.213269494435917 -11.240272619387378" fill="#fff517" stroke="none" /><path d="M 118.12598468904814 110.60418214915192 l 16.64766510398304 9.739325953826949 a40.287281390835304,40.287281390835304 0 0,0 -0.35533214189093437,0.5955571084758207 l -16.477552086393878 -10.024445156188873" fill="#ffce13" stroke="none" /><path d="M 117.75023020441432 111.22182372390056 l 13.690015658790953 8.654926766086936 a37.19642818847012,37.19642818847012 0 0,0 -0.3468037970974878,0.5382471945975652 l -13.539006998316415 -8.889295560605953" fill="#ffa30f" stroke="none" /><path d="M 117.35343817320211 111.8261652097733 l 19.917574432974416 13.573594089617112 a45.10295060366603,45.10295060366603 0 0,0 -0.44273720579765224,0.6377959658526604 l -19.680976320014626 -13.914431317656792" fill="#f1ff19" stroke="none" /><path d="M 116.71984013943494 112.70617746262583 l 18.94171177368376 14.394680166509584 a44.790654930316954,44.790654930316954 0 0,0 -0.4717803582344772,0.6098397096503501 l -18.691124598231216 -14.718597870273186" fill="#f5ff19" stroke="none" /><path d="M 116.27256486870786 113.27417163493432 l 16.682093327945953 13.608240117756624 a42.528502895111394,42.528502895111394 0 0,0 -0.467619116048583,0.5632773491466503 l -16.445378212003828 -13.893378724017046" fill="#ffec16" stroke="none" /><path d="M 115.80600337817218 113.82643327865902 l 29.245869864580115 25.583068577435856 a59.85632898221011,59.85632898221011 0 0,0 -0.6850447125434231,0.7696549966516724 l -28.801166302388353 -26.082697743828394" fill="#43ff2d" stroke="none" /><path d="M 115.32070863581623 114.36230785411682 l 10.714295215886729 10.044052790790374 a35.686017786907286,35.686017786907286 0 0,0 -0.4239727450098625,0.44453372812214353 l -10.539815919497903 -10.226993635495026" fill="#ff8e0d" stroke="none" /><path d="M 115.07121518719521 114.62390073753431 l 17.969463410755658 17.4361288032641 a46.03837460608221,46.03837460608221 0 0,0 -0.5567560399247495,0.5639909290044677 l -17.666666745775373 -17.74286022624923" fill="#e5ff1a" stroke="none" /><path d="M 114.55890576462653 115.13401014063108 l 14.244897530505675 14.80759798601895 a41.54706946915202,41.54706946915202 0 0,0 -0.5196631588391413,0.49137395242135135 l -13.987898537275726 -15.050606575186222" fill="#ffdf14" stroke="none" /><path d="M 113.48314897796784 116.09983520530334 l 13.467180403842464 16.08076759637146 a41.97512895116854,41.97512895116854 0 0,0 -0.5579291594504614,0.4591377146039419 l -13.188381115847312 -16.310200429832577" fill="#ffe415" stroke="none" /><path d="M 113.20401910651253 116.32954008644616 l 14.564271726580246 18.011777858741837 a44.163379558223525,44.163379558223525 0 0,0 -0.5952435085826129,0.4728974431220834 l -14.252070725280282 -18.259809215869048" fill="#fdff18" stroke="none" /><path d="M 112.63410532772338 116.77436683061366 l 12.009531517094198 15.945116959687034 a40.96185367440053,40.96185367440053 0 0,0 -0.5668633484426834,0.4193519533892119 l -11.73328319823295 -16.149478861816014" fill="#ffd714" stroke="none" /><path d="M 112.04921762599082 117.19931262002967 l 17.88753536089545 25.53305303493325 a52.175322268935716,52.175322268935716 0 0,0 -0.7400028823992794,0.5089807302207617 l -17.445375593873287 -25.837174554519105" fill="#99ff23" stroke="none" /><path d="M 111.45004920935366 117.60387380957326 l 12.446505130865344 19.135874587767624 a43.82755322436962,43.82755322436962 0 0,0 -0.6359549066296264,0.40589651057602116 l -12.115268422188787 -19.347285527167454" fill="#fffd17" stroke="none" /><path d="M 111.1453310114006 117.79835938074945 l 11.915115589076471 19.027654638577047 a43.45042584331121,43.45042584331121 0 0,0 -0.6373159491208861,0.3914915090844179 l -11.585820440023276 -19.229934614489842" fill="#fff817" stroke="none" /><line stroke="#e1ed5e" stroke-width="0.3" x1="143.8653032363475" x2="146.44561519142675" y1="172.8068346515853" y2="177.08958963109032" /><path d="M 144.38136562736335 173.6633856474863 a86.0,86.0 0 0,1 -40.68145358897372,12.25698825130547" fill="none" id="id42" stroke="none" /><text fill="#e1ed5e" style="font-size:6.75px; font-family:Arial;" text-anchor="middle"><textPath startOffset="21.466115282336833" xlink:href="#id42">June</textPath></text><path d="M 109.89434966115114 118.52300852407294 l 19.5871582662602 36.668716181806374 a62.57224453129027,62.57224453129027 0 0,0 -0.954402817748048,0.4992984463829323 l -18.953064545985658 -37.000444047134025" fill="#30ff3a" stroke="none" /><path d="M 109.2508944713604 118.85261126421891 l 8.286398298528834 16.887042262376607 a39.81054473249393,39.81054473249393 0 0,0 -0.6177977242061826,0.29658045112484005 l -7.994487906322418 -17.027176990001006" fill="#ffc712" stroke="none" /><path d="M 108.92500713936063 119.00905698771935 l 12.299799309390295 26.196907448800175 a49.9406811069173,49.9406811069173 0 0,0 -0.7812910503236052,0.3586524012974257 l -11.84704026329927 -26.404746920431673" fill="#b4ff20" stroke="none" /><path d="M 108.2653958097858 119.30500536409082 l 9.054564676991351 21.14822129290808 a44.005051735295666,44.005051735295666 0 0,0 -0.6989019371434229,0.2921410664085762 l -8.689191280350467 -21.30094740233663" fill="#ffff18" stroke="none" /><path d="M 107.59598834532513 119.57807347666477 l 9.773698565504484 25.190953428987864 a48.02053512258371,48.02053512258371 0 0,0 -0.7731987114272715,0.2923575926780152 l -9.338629633316938 -25.35545927177251" fill="#ccff1d" stroke="none" /><path d="M 106.91757812671514 119.82793768551818 l 7.060991897875471 20.239006308918402 a42.435367572176176,42.435367572176176 0 0,0 -0.6917576530423813,0.23468175427203758 l -6.711564511895863 -20.357551050088563" fill="#ffeb16" stroke="none" /><path d="M 106.57524785965236 119.94407469862006 l 8.863639991623465 26.885237160316073 a49.308657528529096,49.308657528529096 0 0,0 -0.8083770613949273,0.25881680735243767 l -8.399541585137596 -27.033826814328215" fill="#bcff1f" stroke="none" /><path d="M 105.88484417918355 120.15858648285463 l 6.080850368329854 20.83000744061883 a42.6994458726082,42.6994458726082 0 0,0 -0.7073241122992775,0.19989685940536692 l -5.72139508792597 -20.931593093362714" fill="#ffee16" stroke="none" /><path d="M 105.18746579009965 120.34920634021253 l 7.324644710556887 28.732855813398047 a50.65176931195525,50.65176931195525 0 0,0 -0.8467208209003101,0.20810337716207294 l -6.828970604913366 -28.854680448874152" fill="#acff21" stroke="none" /><path d="M 104.48393922423573 120.51570834832081 l 4.181513052798241 19.13199487232733 a40.583622729349166,40.583622729349166 0 0,0 -0.6837539165605955,0.14328728123007836 l -3.8515676748082677 -19.201138134283948" fill="#ffd213" stroke="none" /><path d="M 104.13013068566511 120.58985236759428 l 4.480348387186695 22.335785201118277 a43.7807116267482,43.7807116267482 0 0,0 -0.7401700230758443,0.14185534654198775 l -4.095210749539146 -22.409597746008732" fill="#fffc17" stroke="none" /><path d="M 103.41894727170886 120.7198165907248 l 3.008902551680961 18.234826119161696 a39.481406282033134,39.481406282033134 0 0,0 -0.6714924942020777,0.10487331765373428 l -2.694574193870366 -18.283917744162537" fill="#ffc312" stroke="none" /><path d="M 102.70371172650421 120.8252237178851 l 3.775983969188073 29.08435471971052 a50.32844599356592,50.32844599356592 0 0,0 -0.8600713860728779,0.10414266717738752 l -3.2747851600638147 -29.14504291561326" fill="#afff20" stroke="none" /><path d="M 101.98527174616119 120.90594882070398 l 0.49465775930725525 5.209004671445086 a26.23243881626719,26.23243881626719 0 0,0 -0.4498934237702845,0.03881869765570079 l -0.404920017795429 -5.21674762137945" fill="#ff0000" stroke="none" /><path d="M 101.26447882468166 120.96189622390904 l 0.7280827130871952 12.069790316969668 a33.09173034485599,33.09173034485599 0 0,0 -0.5688814043493682,0.02940467060991048 l -0.5202132403243475 -12.08053479434178" fill="#ff6809" stroke="none" /><line stroke="#e1ed5e" stroke-width="0.3" x1="102.19456741930631" x2="102.32365962044197" y1="184.97166512339345" y2="189.96999836594603" /><path d="M 102.22038585953345 185.97133177190398 a86.0,86.0 0 0,1 -42.740103519485714,-10.115201625700543" fill="none" id="id43" stroke="none" /><text fill="#e1ed5e" style="font-size:6.75px; font-family:Arial;" text-anchor="middle"><textPath startOffset="22.20632615414155" xlink:href="#id43">July</textPath></text><path d="M 100.18074693466247 120.99922214144158 l 0.14061402145161248 16.33657067644353 a37.33717581987362,37.33717581987362 0 0,0 -0.6427219122281246,0.0 l 0.14061402145160123 -16.33657067644353" fill="#ffa50f" stroke="none" /><path d="M 99.45781275523022 120.99299961872073 l -0.3156986835348965 12.223567424373526 a33.227643527556374,33.227643527556374 0 0,0 -0.5716414937293282,-0.01968848886853734 l 0.5260605289388677 -12.216322137078894" fill="#ff6a09" stroke="none" /><path d="M 98.73552117531835 120.96189622390904 l -1.2659709957099061 20.986632687369017 a42.02478142850775,42.02478142850775 0 0,0 -0.7217000549164727,-0.0497726612127744 l 1.627033811405309 -20.961731681639957" fill="#ffe515" stroke="none" /><path d="M 98.37488393609728 120.93702456842531 l -1.0499650017134368 13.52712186234158 a34.567809417273764,34.567809417273764 0 0,0 -0.5928472849932663,-0.05115335832049727 l 1.2826566044482448 -13.50704425174242" fill="#ff7e0b" stroke="none" /><path d="M 97.65516085044442 120.86867818915974 l -2.2471374837881135 19.999149623913546 a41.12499969070129,41.12499969070129 0 0,0 -0.7027921245720374,-0.08509833893950605 l 2.59105703141154 -19.957505756248693" fill="#ffd914" stroke="none" /><path d="M 96.93821686468263 120.77559828337769 l -1.7622595225187523 11.957736486490786 a33.08689457656767,33.08689457656767 0 0,0 -0.5627358155864681,-0.08788776114803862 l 1.9678312017137376 -11.925630417995642" fill="#ff6809" stroke="none" /><path d="M 96.58105272829116 120.7198165907248 l -2.326387373161772 14.098585283767092 a35.289233191940724,35.289233191940724 0 0,0 -0.5984903189177315,-0.10405521343565048 l 2.568726663551554 -14.056451491810433" fill="#ff880c" stroke="none" /><path d="M 95.86986931433489 120.58985236759428 l -4.119445728731709 20.53658487981811 a41.94567142962812,41.94567142962812 0 0,0 -0.7067017479942785,-0.1480962224245961 l 4.472338938155374 -20.462632676666974" fill="#ffe415" stroke="none" /><path d="M 94.81253420990036 120.34920634021253 l -3.2124302259451016 12.60160705947264 a34.00462257960285,34.00462257960285 0 0,0 -0.5659495514361632,-0.14947242036971906 l 3.428870220192754 -12.544443289799338" fill="#ff750a" stroke="none" /><path d="M 94.46302465271185 120.25689768951611 l -3.309854366338273 12.109026510105457 a33.553233007827316,33.553233007827316 0 0,0 -0.5558154272736476,-0.15707899163777417 l 3.5178009617165347 -12.050258725129162" fill="#ff6f0a" stroke="none" /><path d="M 93.76903079525671 120.05430185196036 l -6.761897374118106 21.76308798466119 a43.78936714185389,43.78936714185389 0 0,0 -0.7178925913769728,-0.2298465374580731 l 7.135511310586018 -21.64346860054341" fill="#fffc17" stroke="none" /><path d="M 93.42475214034765 119.94407469862007 l -5.514236377138798 16.72580936246546 a38.61134582172805,38.61134582172805 0 0,0 -0.6294205869907283,-0.21353363693233968 l 5.801326697066751 -16.628412738634996" fill="#ffb711" stroke="none" /><path d="M 92.7421414339146 119.70592522655815 l -8.360185178940334 22.69886944149077 a45.189488836021674,45.189488836021674 0 0,0 -0.7276148516228412,-0.2751216773558159 l 8.74967025132346 -22.55159951402832" fill="#f0ff19" stroke="none" /><path d="M 92.06813273071674 119.44442032107085 l -5.196740206509719 12.73944677139238 a34.75861958246882,34.75861958246882 0 0,0 -0.5520472218677976,-0.2307557835130956 l 5.4152588878749786 -12.648105944859312" fill="#ff800b" stroke="none" /><path d="M 91.7346041902142 119.30500536409082 l -7.713059735692774 18.014946047086013 a40.59667246156309,40.59667246156309 0 0,0 -0.6400342347483275,-0.28057219964132235 l 8.022014645098844 -17.87950929415024" fill="#ffd213" stroke="none" /><path d="M 91.07499286063937 119.00905698771935 l -8.780546661315185 18.701375725759505 a41.66009326473528,41.66009326473528 0 0,0 -0.6464998402336032,-0.31035921104272474 l 9.101159169549032 -18.547462238217218" fill="#ffe015" stroke="none" /><path d="M 90.42595943632237 118.69057910512821 l -11.179846227895416 21.825455920711345 a45.5222243653854,45.5222243653854 0 0,0 -0.6943420286410937,-0.36324693275412395 l 11.553879159063005 -21.629779569012506" fill="#ebff1a" stroke="none" /><line stroke="#e1ed5e" stroke-width="0.3" x1="58.666819895761336" x2="56.23545636021788" y1="174.27360380694188" y2="178.64263932499728" /><path d="M 58.180547188652646 175.14741091055294 a86.0,86.0 0 0,1 -31.652253787137756,-30.449443065178592" fill="none" id="id44" stroke="none" /><text fill="#e1ed5e" style="font-size:6.75px; font-family:Arial;" text-anchor="middle"><textPath startOffset="22.20632615414155" xlink:href="#id44">August</textPath></text><path d="M 89.7882731507175 118.34994917583269 l -6.646693632013652 11.943767409265464 a34.66865451185605,34.66865451185605 0 0,0 -0.5189587759516476,-0.29467833697742446 l 6.851301174886507 -11.827585906493406" fill="#ff7f0b" stroke="none" /><path d="M 89.4739219176387 118.17145234162733 l -11.042353963293692 19.062713311961147 a43.02999364195752,43.02999364195752 0 0,0 -0.6377293586105534,-0.3767817459559062 l 11.368851192932627 -18.86981299371149" fill="#fff216" stroke="none" /><path d="M 88.8546689885994 117.79835938074946 l -12.43468405588271 19.85737125135986 a44.429395224460166,44.429395224460166 0 0,0 -0.6446878689972632,-0.41147030034486104 l 12.774653726926896 -19.640386522191196" fill="#f9ff18" stroke="none" /><path d="M 88.24862548938628 117.40417183066458 l -16.062718722906986 23.78941429095059 a49.70447987819516,49.70447987819516 0 0,0 -0.7049589111962147,-0.4848771672792988 l 16.469834518726092 -23.50939633430619" fill="#b7ff1f" stroke="none" /><path d="M 87.65650970185807 116.9893568818739 l -7.387725854603238 10.168332299673349 a33.56874994020302,33.56874994020302 0 0,0 -0.46455158366113897,-0.3436641557326762 l 7.561662408682941 -10.039658195200905" fill="#ff6f0a" stroke="none" /><path d="M 87.36589467227662 116.77436683061367 l -15.586163135761312 20.693829213798413 a46.90681471783866,46.90681471783866 0 0,0 -0.6407722657346098,-0.49131684943416903 l 15.940064129989409 -20.422473022536877" fill="#daff1c" stroke="none" /><path d="M 86.79598089348748 116.32954008644616 l -16.768083258424493 20.73725322059385 a47.66837616534771,47.66837616534771 0 0,0 -0.6336032243579489,-0.5214123181586855 l 17.12255661132713 -20.445545783577984" fill="#d0ff1d" stroke="none" /><path d="M 86.24171649860922 115.8653595955263 l -18.692969616869554 21.555791087594866 a49.53207392583376,49.53207392583376 0 0,0 -0.6393355911425455,-0.5641393249087452 l 19.061247560918687 -21.230828620913833" fill="#b9ff1f" stroke="none" /><path d="M 85.70375840098266 115.38237550388516 l -11.336648149325018 12.19793171376795 a37.652601278939585,37.652601278939585 0 0,0 -0.470951861807044,-0.44531438067164103 l 11.54493584552288 -12.000982696350379" fill="#ffa90f" stroke="none" /><path d="M 85.44109423537348 115.13401014063109 l -11.7916947750513 12.257489071358856 a38.00853033046812,38.00853033046812 0 0,0 -0.4675955057620242,-0.4576406181963454 l 12.000940233189118 -12.052698350239941" fill="#ffae10" stroke="none" /><path d="M 84.9287848128048 114.62390073753433 l -19.541023517038237 18.961044923954347 a48.228162345293455,48.228162345293455 0 0,0 -0.5729814544848938,-0.6007687642777433 l 19.864511522902088 -18.621869043094105" fill="#c9ff1d" stroke="none" /><path d="M 84.43433777217949 114.09645910891817 l -25.20491854344397 22.825890629712074 a55.00454678158824,55.00454678158824 0 0,0 -0.6295169546694623,-0.707268972034564 l 25.59409434776177 -22.388647487936645" fill="#79ff26" stroke="none" /><path d="M 83.72743513129214 113.27417163493432 l -16.156927580981165 13.179841747970155 a41.85076826782665,41.85076826782665 0 0,0 -0.45055757486182957,-0.56213985103429 l 16.381403067897857 -12.899774063357604" fill="#ffe315" stroke="none" /><path d="M 83.28015986056508 112.70617746262583 l -24.44831784410151 18.5794040253506 a51.706912891781,51.706912891781 0 0,0 -0.5324303498488715,-0.7132774621468133 l 24.764509460645467 -18.155813683694475" fill="#9fff22" stroke="none" /><path d="M 82.85270091963577 112.12312394758628 l -26.8342845603593 18.971813359374064 a53.863483230011724,53.863483230011724 0 0,0 -0.5287318842915348,-0.7616777140092998 l 27.15687735181297 -18.50709438317775" fill="#86ff25" stroke="none" /><path d="M 82.24976979558568 111.22182372390057 l -11.925228113592619 7.539215335064169 a35.108537607763836,35.108537607763836 0 0,0 -0.31854370780125735,-0.5135938835002687 l 12.053236461061832 -7.332825120198636" fill="#ff850c" stroke="none" /><line stroke="#e1ed5e" stroke-width="0.3" x1="26.63291911575756" x2="22.317208475507996" y1="142.92168965132927" y2="145.44649492493687" /><path d="M 25.769776987707644 143.4266507060508 a86.0,86.0 0 0,1 -11.730757126820373,-40.83630448921669" fill="none" id="id45" stroke="none" /><text fill="#e1ed5e" style="font-size:6.75px; font-family:Arial;" text-anchor="middle"><textPath startOffset="21.46611528233685" xlink:href="#id45">September</textPath></text><path d="M 81.35079622478065 109.6543875284942 l -20.098119956985162 10.404467718709112 a43.63155704574975,43.63155704574975 0 0,0 -0.33953938531965766,-0.669943419345526 l 20.274238012091086 -10.0569700876609" fill="#fffa17" stroke="none" /><path d="M 81.02952815118164 109.00673069616217 l -20.585596811749834 9.77355377245158 a43.78791674196936,43.78791674196936 0 0,0 -0.31741106684914544,-0.6836751997789159 l 20.750782495438806 -9.417758505393838" fill="#fffc17" stroke="none" /><path d="M 80.73074385275274 108.34839909993369 l -15.547106367353955 6.7357788910981355 a37.94353073203992,37.94353073203992 0 0,0 -0.25449090827178017,-0.6015413317554795 l 15.660748256818042 -6.467163033676497" fill="#ffad10" stroke="none" /><path d="M 80.32549172779594 107.34259656027581 l -19.280348756793256 7.195494825278746 a41.57928555524201,41.57928555524201 0 0,0 -0.2444777624194431,-0.6726978031573907 l 19.401350780217925 -6.862549225115238" fill="#ffdf14" stroke="none" /><path d="M 79.86692584326677 105.97154293290107 l -16.13209304921002 4.78483740192728 a37.82673750645836,37.82673750645836 0 0,0 -0.1797803297962436,-0.6258389129842322 l 16.21206601589237 -4.506441013438452" fill="#ffac0f" stroke="none" /><path d="M 79.58551787078972 104.9243191809786 l -22.80389358989775 5.500685733538736 a44.45794335398004,44.45794335398004 0 0,0 -0.17304605379265547,-0.745477870702763 l 22.895200209620963 -5.107339205487399" fill="#f9ff18" stroke="none" /><path d="M 79.35854240842038 103.8639653848113 l -15.423228720966094 2.8871421330318845 a36.69113042057714,36.69113042057714 0 0,0 -0.11086584570392564,-0.6217945395755038 l 15.470641009009208 -2.621228842723167" fill="#ff9c0e" stroke="none" /><path d="M 79.29508885075956 103.50808413554451 l -14.38739403416696 2.4376916374712585 a35.59244488130006,35.59244488130006 0 0,0 -0.09714745231374172,-0.6049372782921644 l 14.427223240841993 -2.1896751294858805" fill="#ff8c0c" stroke="none" /><path d="M 79.18660465613746 102.79330883721812 l -29.358342265990828 3.940102782021518 a50.62155753062214,50.62155753062214 0 0,0 -0.10847112802151648,-0.8646216160263186 l 29.421814903259193 -3.4341634117077913" fill="#acff21" stroke="none" /><path d="M 79.10278846688536 102.07522291339032 l -20.33132199316296 2.019026566911516 a41.43132698254243,41.43132698254243 0 0,0 -0.06436732236104518,-0.7102880386116786 l 20.363063911801078 -1.6687571397512715" fill="#ffdd14" stroke="none" /><path d="M 79.07016306316243 101.71520430193888 l -15.869465344330514 1.3005058429365113 a36.92266453086352,36.92266453086352 0 0,0 -0.04645827905655706,-0.6338863064521205 l 15.889500182051407 -1.0271463999876302" fill="#ff9f0e" stroke="none" /><path d="M 79.0235259727143 100.99374915477108 l -30.56900073067181 1.448189938823213 a51.603285114031834,51.603285114031834 0 0,0 -0.034396949022277225,-0.8876324148577247 l 30.589399812545288 -0.9217802769514916" fill="#a0ff22" stroke="none" /><line stroke="#e1ed5e" stroke-width="0.3" x1="15.007084014347285" x2="10.007500721073583" y1="101.09737516637583" y2="101.16192664675087" /><path d="M 14.007167355692545 101.11028546245083 a86.0,86.0 0 0,1 10.666146001902534,-42.60595125391555" fill="none" id="id46" stroke="none" /><text fill="#e1ed5e" style="font-size:6.75px; font-family:Arial;" text-anchor="middle"><textPath startOffset="22.20632615414155" xlink:href="#id46">October</textPath></text><path d="M 79.00175016825051 100.2711162175752 l -33.851054182771385 0.4370635574156152 a54.853875610307085,54.853875610307085 0 0,0 -0.004063634427058061,-0.9442455293771711 l 33.85356211448795 0.1456914501652312" fill="#7aff26" stroke="none" /><path d="M 79.03285615573316 98.82574320788736 l -12.84267786783479 -0.7192492133039524 a33.86280273687706,33.86280273687706 0 0,0 0.037602883178957755,-0.5816999593484145 l 12.82839439365142 0.9402082369053787" fill="#ff730a" stroke="none" /><path d="M 79.05617556472873 98.46500227214037 l -16.714174552212835 -1.2250016724494996 a37.75900534218374,37.75900534218374 0 0,0 0.05308829158049249,-0.6478116249936167 l 16.690611776812844 1.5125272146508948" fill="#ffab0f" stroke="none" /><path d="M 79.12142395522702 97.74499172005258 l -29.734730573392618 -3.211524746765134 a50.90765944488693,50.90765944488693 0 0,0 0.10159628746422496,-0.8704149471862926 l 29.675043932924805 3.7228834322762885" fill="#a9ff21" stroke="none" /><path d="M 79.21141760316559 97.0276538004421 l -23.366682975396802 -3.3409623615687782 a44.604319578715206,44.604319578715206 0 0,0 0.11521530782358314,-0.7591249242180762 l 23.305711774133915 3.7426863981789467" fill="#f7ff18" stroke="none" /><path d="M 79.26566170972629 96.67025291283419 l -62.20301487082115 -9.989241261497433 a84.0,84.0 0 0,0 0.2415525539191079,-1.4256568467366881 l 62.021850455381816 11.05848389654995" fill="#4dd2ff" stroke="none" /><path d="M 79.3925641242962 95.95851677861259 l -17.950299733447352 -3.5203717546021354 a39.29224638504524,39.29224638504524 0 0,0 0.13587764750302356,-0.6625876651890508 l 17.887042790029334 3.8288350759545886" fill="#ffc011" stroke="none" /><path d="M 79.54389044137918 95.25157060432595 l -34.41467706565677 -7.988599384105553 a56.329700220256235,56.329700220256235 0 0,0 0.22737671189613745,-0.9426232644569986 l 34.27206755349982 8.57980788022195" fill="#6aff28" stroke="none" /><path d="M 79.71946130924805 94.55025226153421 l -26.49041065969746 -7.1184527090273 a48.43016999382379,48.43016999382379 0 0,0 0.22327053138677205,-0.8032228943975203 l 26.36395335774433 7.573386906843764" fill="#c7ff1e" stroke="none" /><path d="M 79.81627453868168 94.20196356495316 l -30.171642128076744 -8.667194800040507 a52.39185012716811,52.39185012716811 0 0,0 0.2564558682133404,-0.8646416965740981 l 30.017980362751697 9.185265883361145" fill="#97ff23" stroke="none" /><path d="M 80.02781315780177 93.51064311812611 l -16.02812047116447 -5.2078520346751835 a37.8529632009695,37.8529632009695 0 0,0 0.2066820571133655,-0.6179530437801856 l 15.936101120279334 5.482978181377692" fill="#ffac0f" stroke="none" /><path d="M 80.2630227832202 92.82701384747504 l -40.111719279591554 -14.577754424414428 a63.67857715087619,63.67857715087619 0 0,0 0.3832704744102786,-1.0269743213282765 l 39.854844216679645 15.266051882772047" fill="#32ff48" stroke="none" /><path d="M 80.52162464483688 92.15188598940014 l -6.342712392166472 -2.5555688851109584 a27.838196605559787,27.838196605559787 0 0,0 0.18290797179835525,-0.44292616183989697 l 6.297782733481917 2.6643696174041667" fill="#ff1902" stroke="none" /><path d="M 80.65960295795068 91.81776055985345 l -16.600499358743416 -7.023085424974563 a39.024991202387056,39.024991202387056 0 0,0 0.2670597040043178,-0.6164106173491535 l 16.47714894489642 7.307795186910316" fill="#ffbc11" stroke="none" /><path d="M 80.95270993114464 91.15688171328213 l -14.05641891203129 -6.525997907177395 a36.49746951327844,36.49746951327844 0 0,0 0.2694587425497285,-0.5675488323566442 l 13.94200197563981 6.766989155174571" fill="#ff990e" stroke="none" /><path d="M 81.43458229118936 90.18545643968196 l -40.85777458564913 -21.599320561379294 a67.21567258847304,67.21567258847304 0 0,0 0.5495422185249427,-1.0182182699281672 l 40.479924267905716 22.299419814639933" fill="#37ff74" stroke="none" /><path d="M 81.6062741919709 89.86733742301443 l -16.4935666102478 -9.085910429290236 a39.83060030524163,39.83060030524163 0 0,0 0.33598507080042544,-0.5976799507322972 l 16.334723898154945 9.368473889957317" fill="#ffc712" stroke="none" /><line stroke="#e1ed5e" stroke-width="0.3" x1="26.266209847984243" x2="21.928928074336255" y1="57.711370442889674" y2="55.22380399835377" /><path d="M 25.398753493254645 57.213857153982495 a86.0,86.0 0 0,1 29.58750427330803,-30.492523968695096" fill="none" id="id47" stroke="none" /><text fill="#e1ed5e" style="font-size:6.75px; font-family:Arial;" text-anchor="middle"><textPath startOffset="21.46611528233685" xlink:href="#id47">November</textPath></text><path d="M 81.78341655067845 89.55222093294921 l -16.791497804599558 -9.630447979193287 a40.357167323805925,40.357167323805925 0 0,0 0.3508004981306237,-0.59963176495744 l 16.62323763199861 9.918059156504619" fill="#ffcf13" stroke="none" /><path d="M 81.96595687620814 89.24020034530311 l -15.395154803128225 -9.185337985366575 a38.927108671442255,38.927108671442255 0 0,0 0.34827565417902906,-0.5724736025529388 l 15.234763350662979 9.448979361126588" fill="#ffbb11" stroke="none" /><path d="M 82.54541684631803 88.32363383020206 l -42.70991367178717 -28.5710971566255 a72.38525390211521,72.38525390211521 0 0,0 0.701707940039381,-1.029669815795843 l 42.21178126607905 29.30204499569176" fill="#3effb1" stroke="none" /><path d="M 82.95767976084542 87.72973835380427 l -16.196523546370063 -11.66129839622057 a40.957786833058826,40.957786833058826 0 0,0 0.4168671597581666,-0.5686063374254073 l 15.993393774098262 11.938367177317478" fill="#ffd714" stroke="none" /><path d="M 83.17141714833178 87.43820079747576 l -17.142877883940624 -12.796406662971533 a42.392201514286526,42.392201514286526 0 0,0 0.44153306752583,-0.5810057609395743 l 16.920068876190683 13.089597199792134" fill="#ffea16" stroke="none" /><path d="M 83.6137871275137 86.86637796730984 l -11.295847626232906 -9.05367179202849 a35.476365100150105,35.476365100150105 0 0,0 0.3860191867158448,-0.4732138794912094 l 11.138329947440669 9.246769841127783" fill="#ff8b0c" stroke="none" /><path d="M 84.07557802195018 86.31012108654704 l -41.42934227028737 -35.615903668340884 a75.63408272370972,75.63408272370972 0 0,0 0.8572155751937796,-0.9799455871419595 l 40.81013483151575 36.323764811685784" fill="#42ffd6" stroke="none" /><path d="M 84.5562425177563 85.77008943001954 l -10.013380293390213 -9.226349626505938 a34.61592128100709,34.61592128100709 0 0,0 0.4075327105125366,-0.43472748117826254 l 9.853080260907221 9.397346524562252" fill="#ff7e0b" stroke="none" /><path d="M 84.80347519578584 85.50635884689758 l -17.861558872608494 -17.03540961304588 a45.68279696557737,45.68279696557737 0 0,0 0.5476186919157413,-0.5643691990611873 l 17.565675916989637 17.34034300765719" fill="#e9ff1a" stroke="none" /><path d="M 85.31137513191541 84.99185889309783 l -13.788299084451383 -14.08823086858513 a40.71282426870482,40.71282426870482 0 0,0 0.5050653772314391,-0.48587249273386524 l 13.543750463607516 14.323486448081308" fill="#ffd313" stroke="none" /><path d="M 85.83668400450813 84.49514656593479 l -14.649904168450757 -16.037530831567217 a42.721466049009216,42.721466049009216 0 0,0 0.5472192838559632,-0.4912988760793014 l 14.371673896998821 16.2873287164158" fill="#ffee16" stroke="none" /><path d="M 86.65592168130627 83.78471172551755 l -13.031399656234347 -15.835331373153739 a41.50792765488731,41.50792765488731 0 0,0 0.5556065426866384,-0.4492618510074908 l 12.756889714983208 16.057299321425365" fill="#ffde14" stroke="none" /><path d="M 86.93701828274178 83.55741782278169 l -13.061327265500081 -16.44049969256202 a41.9973403096113,41.9973403096113 0 0,0 0.5698987980061899,-0.44481505142877453 l 12.776395912334465 16.66289313321402" fill="#ffe515" stroke="none" /><path d="M 87.22198572758235 83.33499621200491 l -12.86105736794979 -16.773308057508796 a42.13647699626844,42.13647699626844 0 0,0 0.5793842761782684,-0.43638022492174167 l 12.570426938013131 16.99220487193639" fill="#ffe715" stroke="none" /><path d="M 87.80319425747018 82.90503203632743 l -8.938577897359092 -12.528255841881688 a36.39010621362956,36.39010621362956 0 0,0 0.5130465370047079,-0.3594218858160383 l 8.721600220770725 12.680262570461668" fill="#ff980e" stroke="none" /><path d="M 88.39885842347998 82.49532879139004 l -10.167425225584408 -15.34137260872646 a39.404734424534155,39.404734424534155 0 0,0 0.5686158986117558,-0.36984359753730894 l 9.901842301188365 15.514115130423303" fill="#ffc212" stroke="none" /><path d="M 88.70189139769569 82.29822771554957 l -14.388668444237323 -22.544032921085407 a47.74447980322619,47.74447980322619 0 0,0 0.6965711519837524,-0.4361927914686674 l 13.998478139881328 22.788370053877006" fill="#cfff1d" stroke="none" /><line stroke="#e1ed5e" stroke-width="0.3" x1="56.762969772571076" x2="54.21961505331055" y1="26.818313649435495" y2="22.513508569990535" /><path d="M 56.25429882871897 25.957352633546506 a86.0,86.0 0 0,1 42.265352541879196,-11.944610805530505" fill="none" id="id48" stroke="none" /><text fill="#e1ed5e" style="font-size:6.75px; font-family:Arial;" text-anchor="middle"><textPath startOffset="22.20632615414155" xlink:href="#id48">December</textPath></text></svg>