<?xml version="1.0" encoding="utf-8" ?>
<svg baseProfile="full" height="200mm" version="1.1" viewBox="0,0,200,200" width="200mm" xmlns="http://www.w3.org/2000/svg" xmlns:ev="http://www.w3.org/2001/xml-events" xmlns:xlink="http://www.w3.org/1999/xlink"><defs /><rect fill="#1a1a1a" height="200" width="200" x="0" y="0" /><text alignment-baseline="middle" fill="#e1ed5e" style="dominant-baseline: central; font-size:9.0px; font-family:Arial;" text-anchor="middle" x="100.0" y="100.0">2025</text><line stroke="#e1ed5e" stroke-width="0.3" x1="100.0" x2="100.0" y1="15.0" y2="10.0" /><path d="M 100.0 14.0 a86.0,86.0 0 0,1 42.46469731375804,11.215312516191453" fill="none" id="id97" stroke="none" /><text fill="#e1ed5e" style="font-size:6.75px; font-family:Arial;" text-anchor="middle"><textPath startOffset="22.20632615414155" xlink:href="#id97">January</textPath></text><path d="M 101.44485096284872 79.0497635885617 l 1.2991128324033785 -18.837043863903162 a39.88178793657865,39.88178793657865 0 0,0 0.6844660780054084,0.053127740999097436 l -1.623169099771128 18.8118908607156" fill="#ffca12" stroke="none" /><path d="M 102.16513564639614 79.11191278185805 l 1.878116606616765 -18.119078843928573 a39.21615601987833,39.21615601987833 0 0,0 0.6708451906046584,0.07537727363288317 l -2.1897285007311487 18.08406561682509" fill="#ffc111" stroke="none" /><path d="M 102.88285421437855 79.19881850522331 l 2.4124445772703083 -17.40694942102955 a38.57332572351295,38.57332572351295 0 0,0 0.656905609845595,0.09681081094689122 l -2.711719167544559 17.362844125921693" fill="#ffb811" stroke="none" /><path d="M 103.59715602781102 79.31037775812273 l 4.3636366341518205 -25.09815889647609 a46.47467182649609,46.47467182649609 0 0,0 0.7869819069830271,0.14381591323939247 l -4.795013662237748 25.019327501885957" fill="#deff1b" stroke="none" /><path d="M 104.66035177308747 79.52364482259891 l 4.7590899636945325 -20.9101847162182 a42.44492392499687,42.44492392499687 0 0,0 0.7110056593091225,0.16827206788694457 l -5.118319309966179 20.825166736190386" fill="#ffec16" stroke="none" /><path d="M 105.36241919743992 79.69619591428918 l 5.552769141806643 -21.024528787724588 a42.745437587872544,42.745437587872544 0 0,0 0.709782110140347,0.19401026287590017 l -5.913849141170701 20.925831984022395" fill="#fff016" stroke="none" /><path d="M 106.0581310904928 79.89281104454417 l 4.133767693441759 -13.720146835454347 a35.32935673817114,35.32935673817114 0 0,0 0.5807719389875156,0.18044866849635952 l -4.369325005139992 13.646958032075467" fill="#ff8a0c" stroke="none" /><path d="M 106.40334571778207 80.00007090966166 l 8.94304150395141 -27.932303488516446 a50.3290226484959,50.3290226484959 0 0,0 0.8228008578561459,0.2712645064407525 l -9.422525184049972 27.774225257816457" fill="#aeff20" stroke="none" /><path d="M 107.08798089147638 80.2323363322302 l 5.609940971180206 -15.645559435365993 a37.62091958183109,37.62091958183109 0 0,0 0.607699087754556,0.22382070260357265 l -5.8784223847073385 15.546675464956095" fill="#ffab0f" stroke="none" /><path d="M 108.43124777332544 80.76684994638697 l 6.240017683984483 -14.234571166675167 a36.54222754290964,36.54222754290964 0 0,0 0.5739180987955873,0.2575003216185465 l -6.484117901246851 14.12505051454009" fill="#ff9c0e" stroke="none" /><path d="M 109.08828744355905 81.06846463323043 l 9.68074606652754 -20.165667918554604 a43.36897420549299,43.36897420549299 0 0,0 0.6702132499983764,0.3288707310700159 l -10.026430583536348 19.996042027349755" fill="#fff817" stroke="none" /><line stroke="#e1ed5e" stroke-width="0.3" x1="143.23703022742887" x2="145.7803849466894" y1="26.81831364943548" y2="22.513508569990506" /><path d="M 143.74570117128098 25.957352633546492 a86.0,86.0 0 0,1 28.547481713284135,27.462654790039103" fill="none" id="id98" stroke="none" /><text fill="#e1ed5e" style="font-size:6.75px; font-family:Arial;" text-anchor="middle"><textPath startOffset="19.985693538727396" xlink:href="#id98">February</textPath></text><path d="M 113.06298171725822 83.55741782278167 l 10.023129477223062 -12.616271971383464 a37.113145036680265,37.113145036680265 0 0,0 0.4967799494473308,0.40169483705664066 l -10.238812825234884 12.441871037062695" fill="#ffa40f" stroke="none" /><path d="M 113.6212207817346 84.01681056812373 l 12.540048114481653 -14.714537537440835 a40.33314308782383,40.33314308782383 0 0,0 0.5245348332072421,0.4548714385052427 l -12.79147674633566 14.496501105515922" fill="#ffd013" stroke="none" /><path d="M 114.42810811169701 84.74124197986012 l 11.367429916419498 -12.02187154842041 a37.54520650918051,37.54520650918051 0 0,0 0.4657693056035061,0.4480697029620357 l -11.572682465635422 11.824418758696073" fill="#ffaa0f" stroke="none" /><path d="M 114.68862486808459 84.99185889309783 l 13.464862463815397 -13.757758650440895 a40.25041413199327,40.25041413199327 0 0,0 0.4909864347169499,0.4888779829313002 l -13.699684698699668 13.523944816859476" fill="#ffcf13" stroke="none" /><path d="M 114.94478906791727 85.2469230424477 l 18.563185106981887 -18.3250561259851 a47.08446900622242,47.08446900622242 0 0,0 0.5644211177823591,0.5816855758916678 l -18.875870488467353 18.002806354543317" fill="#d6ff1c" stroke="none" /><path d="M 115.4437574822437 85.77008943001954 l 24.462738145343316 -22.54001828928696 a54.263763798599605,54.263763798599605 0 0,0 0.6270213033256924,0.6923725839094435 l -24.847103089285042 22.115592918107968" fill="#80ff25" stroke="none" /><path d="M 116.38621287248628 86.86637796730983 l 19.9307005574615 -15.974544576309373 a46.54249203056921,46.54249203056921 0 0,0 0.4956684962678453,0.6294486543362738 l -20.20272313432331 15.629103528020062" fill="#ddff1b" stroke="none" /><path d="M 116.60985879189232 87.15038557335679 l 16.89055493139366 -13.066764807560357 a42.354886757520504,42.354886757520504 0 0,0 0.4411444182358485,0.5804943440309146 l -17.112975289853622 12.774085687648409" fill="#ffeb16" stroke="none" /><path d="M 116.82858285166822 87.43820079747576 l 15.563575301255353 -11.61752653393242 a40.4214262845052,40.4214262845052 0 0,0 0.41140809773919884,0.5611601829665477 l -15.76124601150818 11.347903907294379" fill="#ffd113" stroke="none" /><path d="M 117.2510076193507 88.02491185347247 l 16.990214514479746 -11.79405405925873 a41.68253128610605,41.68253128610605 0 0,0 0.4040735037547037,0.5929280067085108 l -17.19071248390318 11.499848029279812" fill="#ffe215" stroke="none" /><path d="M 117.45458315368197 88.32363383020206 l 14.898001949803167 -9.96612319140778 a38.9241198825118,38.9241198825118 0 0,0 0.3677464928772302,0.5601031382886918 l -15.06734507803832 9.708201989141415" fill="#ffbd11" stroke="none" /><line stroke="#e1ed5e" stroke-width="0.3" x1="172.23445277983987" x2="176.4835382374775" y1="55.19839476539836" y2="52.563006222186495" /><path d="M 173.08426987136738 54.67131705675599 a86.0,86.0 0 0,1 12.851231095245387,41.99856678651699" fill="none" id="id99" stroke="none" /><text fill="#e1ed5e" style="font-size:6.75px; font-family:Arial;" text-anchor="middle"><textPath startOffset="22.20632615414155" xlink:href="#id99">March</textPath></text><path d="M 117.84615892207809 88.93136811851018 l 26.534103432886088 -16.457111274552748 a52.22331110708966,52.22331110708966 0 0,0 0.46723500562884357,0.7680114980810407 l -26.813454236801153 15.997932003264625" fill="#98ff23" stroke="none" /><path d="M 118.03404312379186 89.2402003453031 l 12.118007372643026 -7.230066527442322 a35.11098737419436,35.11098737419436 0 0,0 0.3051986221406508,0.5216833768252898 l -12.240665669254003 7.020403738263137" fill="#ff870c" stroke="none" /><path d="M 118.3937258080291 89.86733742301442 l 22.172995445214813 -12.21457161600876 a46.3147681556858,46.3147681556858 0 0,0 0.37866050375741955,0.7016004048986628 l -22.379964048190697 11.831090227777638" fill="#e0ff1b" stroke="none" /><path d="M 118.56541770881063 90.18545643968196 l 19.49837924574573 -10.30775043494739 a43.05530576165486,43.05530576165486 0 0,0 0.3407326509520919,0.6581870286148833 l -19.67292132985794 9.970590684072162" fill="#fff417" stroke="none" /><path d="M 118.89224826269711 90.83032412892265 l 18.94563476822111 -9.195587924779872 a42.05934267856397,42.05934267856397 0 0,0 0.31052173593871746,0.6540379688027893 l -19.101114698001584 8.868107540336542" fill="#ffe715" stroke="none" /><path d="M 119.04729006885535 91.15688171328212 l 23.867113264028497 -11.080825933417463 a47.31394685190084,47.31394685190084 0 0,0 0.3365997159520632,0.7416528561172441 l -24.05431529694391 10.668351068458156" fill="#d3ff1c" stroke="none" /><path d="M 119.196687751892 91.48605970444005 l 53.49082205526365 -23.723762725371735 a79.51568133413143,79.51568133413143 0 0,0 0.5441496248049347,1.2559723579671664 l -53.89126238991126 22.799491222817966" fill="#47ffff" stroke="none" /><path d="M 119.47837535516314 92.15188598940014 l 16.841472361873297 -6.785668352330663 a39.157105669780194,39.157105669780194 0 0,0 0.24651533035756096,0.6273546270475462 l -16.955781242112558 6.494764720387332" fill="#ffc011" stroke="none" /><path d="M 119.61058180528143 92.48833698450437 l 13.373916132668993 -5.122762403665892 a35.321463869593664,35.321463869593664 0 0,0 0.2125938552629651,0.5696458370897967 l -13.460114576433584 4.8917934295467616" fill="#ff8a0c" stroke="none" /><path d="M 119.7369772167798 92.82701384747503 l 21.309352463680856 -7.744432618147146 a43.67299580995866,43.67299580995866 0 0,0 0.2506973855569815,0.7087552682425918 l -21.439502930047645 7.37647972347794" fill="#fffc17" stroke="none" /><path d="M 119.97218684219823 93.5106431181261 l 11.414981797221138 -3.7089524180572475 a33.00242215014547,33.00242215014547 0 0,0 0.17089678243785744,0.541789502085129 l -11.4771340634272 3.5119127495456994" fill="#ff6909" stroke="none" /><path d="M 120.08093135843002 93.85539295169968 l 44.679981423742355 -13.671722883460859 a67.72490499324861,67.72490499324861 0 0,0 0.33151051676077076,1.1176886598115796 l -44.908697837614824 12.90060483690275" fill="#37ff7b" stroke="none" /><path d="M 120.37134235888165 94.90015583598534 l 22.144834780787438 -5.543827423362166 a43.82822222531565,43.82822222531565 0 0,0 0.17691407940888212,0.7334230742899699 l -22.23698166045714 5.16181911741279" fill="#fffe18" stroke="none" /><path d="M 120.45610955862082 95.25157060432595 l 20.202960326364284 -4.689666449939208 a41.74011999387503,41.74011999387503 0 0,0 0.15643722527268766,0.7012774066401494 l -20.28069193863901 4.341210873749094" fill="#ffe315" stroke="none" /><path d="M 120.6074358757038 95.95851677861258 l 20.77783298179353 -4.07490111235593 a42.17364310870443,42.17364310870443 0 0,0 0.13357854006949652,0.7135819023710761 l -20.844897245772888 3.7166411325222914" fill="#ffe915" stroke="none" /><path d="M 120.67395015179393 96.31383870115 l 58.36576984610817 -10.406605433632674 a80.28625917006556,80.28625917006556 0 0,0 0.2308732255611992,1.3626268462461548 l -58.536254933189596 9.400392799070682" fill="#48f7ff" stroke="none" /><path d="M 120.78858239683441 97.02765380044208 l 21.48368624188914 -3.0717319697228427 a42.702172974929354,42.702172974929354 0 0,0 0.0977757774075688,0.7285431109951988 l -21.533378018354544 2.70147051666298" fill="#fff016" stroke="none" /><path d="M 120.91429891909075 98.10471618934814 l 20.807161065307533 -1.8855748244425306 a41.89242312457368,41.89242312457368 0 0,0 0.058899781752627264,0.7187265250584446 l -20.836535330879652 1.5271343821763173" fill="#ffe515" stroke="none" /><path d="M 120.94382443527127 98.46500227214037 l 18.389877276384112 -1.3478159121372284 a39.439202639308434,39.439202639308434 0 0,0 0.043795185562179456,0.677492136438966 l -18.410353052950708 1.0310647114452272" fill="#ffc412" stroke="none" /><path d="M 120.96714384426684 98.82574320788733 l 43.959873087133474 -2.461955712060045 a65.02875955287665,65.02875955287665 0 0,0 0.05297178271434603,1.1181506106965362 l -43.995738478081314 1.7048939947405088" fill="#34ff5a" stroke="none" /><line stroke="#e1ed5e" stroke-width="0.3" x1="184.98032266829074" x2="189.97916517819016" y1="98.17113171792111" y2="98.06355123074" /><path d="M 185.9800911702706 98.14961562048488 a86.0,86.0 0 0,1 -9.607161424134198,41.387399972396054" fill="none" id="id100" stroke="none" /><text fill="#e1ed5e" style="font-size:6.75px; font-family:Arial;" text-anchor="middle"><textPath startOffset="21.466115282336823" xlink:href="#id100">April</textPath></text><path d="M 120.99513854157772 99.54816195383933 l 29.351166856265795 -0.6316687960218759 a50.3579631666133,50.3579631666133 0 0,0 0.011191440745948892,0.8667894191741635 l -29.35769130412946 0.1263431187872496" fill="#aeff20" stroke="none" /><path d="M 120.99824983174949 100.27111621757518 l 36.93291569095843 0.47685461818898667 a57.93599398638585,57.93599398638585 0 0,0 -0.021458215690852104,0.9970789647144053 l -36.91923541258257 -1.1125233986935068" fill="#57ff2a" stroke="none" /><path d="M 120.9764740272857 100.99374915477107 l 41.39697819853689 1.9611595371729578 a62.443406601055166,62.443406601055166 0 0,0 -0.06010519573433647,1.0732186462232447 l -41.357086651915026 -2.673449899731626" fill="#30ff39" stroke="none" /><path d="M 120.8583938346157 102.4346265915055 l 28.18846263418798 3.290204473412557 a49.3798321199382,49.3798321199382 0 0,0 -0.10581037709720148,0.8434128132233744 l -28.12765074784393 -3.774935040923326" fill="#baff1f" stroke="none" /><path d="M 120.81339534386255 102.79330883721812 l 26.16356528998733 3.5113405059691707 a47.39813745006055,47.39813745006055 0 0,0 -0.11548431822275788,0.8076970526761478 l -26.09924692074797 -3.961183030625728" fill="#d2ff1c" stroke="none" /><path d="M 120.70491114924044 103.5080841355445 l 26.731317976077143 4.529153099867898 a48.11229589208904,48.11229589208904 0 0,0 -0.14537601626584218,0.8153459031985568 l -26.649395517472115 -4.988617753799673" fill="#c9ff1d" stroke="none" /><path d="M 120.64145759157962 103.86396538481128 l 44.1755408993561 8.269414121222647 a65.94287066553449,65.94287066553449 0 0,0 -0.21845952057039744,1.1139203888729643 l -44.02665144581004 -9.028598237163557" fill="#35ff65" stroke="none" /><path d="M 120.49622156327973 104.57218783832717 l 16.90637984231163 3.771385085124327 a38.321923242897114,38.321923242897114 0 0,0 -0.14916249134891446,0.6425881087860285 l -16.838956785032163 -4.0618418512589205" fill="#ffb410" stroke="none" /><path d="M 120.32669344350535 105.2749913415812 l 15.871271934235267 4.118762466982635 a37.3969959770035,37.3969959770035 0 0,0 -0.16706114912578648,0.6216966841699747 l -15.798022708767702 -4.391350084328158" fill="#ffa80f" stroke="none" /><path d="M 120.23288151984713 105.62410040840565 l 20.021080819610134 5.565226520198732 a41.78016899369406,41.78016899369406 0 0,0 -0.19856992846255972,0.6912479709054407 l -19.922318254261477 -5.9090319666087545" fill="#ffe315" stroke="none" /><path d="M 120.13307415673323 105.97154293290107 l 17.730681076962117 5.258984418196564 a39.49416039088492,39.49416039088492 0 0,0 -0.19892499103354067,0.6500983804205629 l -17.637529313422444 -5.563409771169185" fill="#ffc512" stroke="none" /><path d="M 120.02730092923936 106.31721596034902 l 36.79863560776409 11.607401766308014 a59.585895847543746,59.585895847543746 0 0,0 -0.31696220458616514,0.975509358961622 l -36.593381152161676 -12.239110025247431" fill="#45ff2d" stroke="none" /><path d="M 119.67450827220406 107.3425965602758 l 14.242704013081 5.315427864757468 a36.20224953714659,36.20224953714659 0 0,0 -0.22291228365411317,0.5819536319698293 l -14.14909744983338 -5.559805063560441" fill="#ff970d" stroke="none" /><path d="M 119.54520255179757 107.68017299344265 l 18.205494916942946 7.153742716291435 a40.560574634241405,40.560574634241405 0 0,0 -0.26093464749066353,0.6476183959771374 l -18.079657655194893 -7.466060480111387" fill="#ffd313" stroke="none" /><path d="M 119.26925614724726 108.34839909993367 l 25.79006877778002 11.173539099089922 a49.10650500438493,49.10650500438493 0 0,0 -0.3427141002895702,0.772729822272817 l -25.59391359275918 -11.615817257855428" fill="#bdff1f" stroke="none" /><path d="M 119.12269723197855 108.67885076344098 l 42.46060265289009 19.2707769871474 a67.62902125645559,67.62902125645559 0 0,0 -0.49023112731005436,1.05591423521739 l -42.122596908740206 -19.998811289643623" fill="#37ff7a" stroke="none" /><path d="M 118.81262510543309 109.33194174019688 l 9.100830319529083 4.514437397933125 a31.15899884460654,31.15899884460654 0 0,0 -0.2424783352054146,0.47843275928590445 l -9.021773314537398 -4.670424368921724" fill="#ff4e07" stroke="none" /><path d="M 118.64920377521936 109.65438752849418 l 23.651262022931913 12.243871205415909 a47.63258487965812,47.63258487965812 0 0,0 -0.38320979724681536,0.7248885200082841 l -23.436999717460203 -12.649174740510327" fill="#cfff1d" stroke="none" /><line stroke="#e1ed5e" stroke-width="0.3" x1="174.80103733775053" x2="179.2010983576182" y1="140.37084112569926" y2="142.7455964860345" /><path d="M 175.68104954172406 140.8457921977663 a86.0,86.0 0 0,1 -30.038265399797805,32.042727171017184" fill="none" id="id101" stroke="none" /><text fill="#e1ed5e" style="font-size:6.75px; font-family:Arial;" text-anchor="middle"><textPath startOffset="22.206326154141568" xlink:href="#id101">May</textPath></text><path d="M 118.30583269289576 110.29060199501025 l 6.282699793189375 3.5318121885237086 a28.207358325097097,28.207358325097097 0 0,0 -0.2415731946944415,0.4212032272149374 l -6.220974602342554 -3.6394352615969607" fill="#ff2103" stroke="none" /><path d="M 117.94076556474637 110.91462005526583 l 4.3397787103943335 2.640190329500874 a26.079791750769104,26.079791750769104 0 0,0 -0.2366248818389181,0.38151465252694977 l -4.293689188887452 -2.7145013133930975" fill="#ff0000" stroke="none" /><path d="M 116.93607887273984 112.41649034213515 l 16.79957554343438 12.3164145050582 a41.83074181828306,41.83074181828306 0 0,0 -0.4307346011423891,0.5770393878727477 l -16.5850796755969 -12.603766772440263" fill="#ffe415" stroke="none" /><path d="M 116.71984013943494 112.70617746262583 l 32.49775351349419 24.69654134462821 a61.816946698776405,61.816946698776405 0 0,0 -0.6511184376268272,0.8416583522813472 l -32.06782825864929 -25.252277691022808" fill="#30ff31" stroke="none" /><path d="M 116.27256486870786 113.27417163493432 l 12.54743256549502 10.23543459780172 a37.19265837938667,37.19265837938667 0 0,0 -0.40894921878063356,0.49260567839236186 l -12.369387346820842 -10.449901533307854" fill="#ffa50f" stroke="none" /><path d="M 115.56566222782051 114.09645910891815 l 18.336353137896673 16.6056315775031 a45.73800409259852,45.73800409259852 0 0,0 -0.533508971123256,0.5790186188527967 l -18.047797758777694 -16.918801451157233" fill="#e7ff1a" stroke="none" /><path d="M 115.32070863581623 114.36230785411682 l 7.019583279358211 6.580466900210216 a30.621699124406646,30.621699124406646 0 0,0 -0.36380539605637896,0.3814485032903072 l -6.905271331922868 -6.70032252008303" fill="#ff4606" stroke="none" /><path d="M 115.07121518719521 114.62390073753431 l 31.244076475257124 30.31675066243438 a64.53501677408579,64.53501677408579 0 0,0 -0.7804415486655882,0.7905831683928967 l -30.717594301536 -30.85007432480794" fill="#33ff54" stroke="none" /><path d="M 114.55890576462653 115.13401014063108 l 12.365858737620625 12.854333598852211 a38.836713671227926,38.836713671227926 0 0,0 -0.48576252340267606,0.4593187856451982 l -12.142760379827141 -13.06528702124333" fill="#ffbb11" stroke="none" /><path d="M 114.29624159901734 115.38237550388516 l 18.60718422632518 20.020835046532543 a48.33241922686081,48.33241922686081 0 0,0 -0.6142830698574074,0.5611330198037323 l -18.25980160700091 -20.338160832922856" fill="#c7ff1e" stroke="none" /><path d="M 113.48314897796784 116.09983520530334 l 14.535343991268615 17.356230602674202 a43.638793379456274,43.638793379456274 0 0,0 -0.5800424184034483,0.47733542125924544 l -14.234431444320476 -17.603861142790628" fill="#fffc17" stroke="none" /><path d="M 113.20401910651253 116.32954008644616 l 13.691103069265127 16.9319216061238 a42.774670434455786,42.774670434455786 0 0,0 -0.5765261889503503,0.45802727239603475 l -13.397619387597425 -17.16508279252496" fill="#fff016" stroke="none" /><path d="M 112.92097659922987 116.55440617244103 l 19.76628650100043 25.324644212876482 a53.12543675264836,53.12543675264836 0 0,0 -0.7257219805033673,0.556452668277185 l -19.32743579200357 -25.66113622298104" fill="#8dff24" stroke="none" /><path d="M 112.63410532772338 116.77436683061366 l 14.983401358567212 19.893539292205006 a45.904923646588806,45.904923646588806 0 0,0 -0.6352695592136645,0.4699572327560531 l -14.638746828934984 -20.148506473700827" fill="#e5ff1a" stroke="none" /><path d="M 112.34349029814194 116.9893568818739 l 10.877983264818548 14.972259496884234 a39.506730514915716,39.506730514915716 0 0,0 -0.5536071979322981,0.3949840365419351 l -10.618648739037365 -15.157287795270388" fill="#ffc512" stroke="none" /><path d="M 111.7513745106137 117.40417183066458 l 11.15036737011515 16.514060504942993 a40.92598521653187,40.92598521653187 0 0,0 -0.587239753558821,0.38919048745375534 l -10.864452917816365 -16.703549013488068" fill="#ffd814" stroke="none" /><path d="M 111.45004920935366 117.60387380957326 l 17.190454881568165 26.429458330805794 a52.52820969695283,52.52820969695283 0 0,0 -0.7622048285979247,0.48647518408450535 l -16.73296825092331 -26.721447943714107" fill="#94ff23" stroke="none" /><path d="M 111.1453310114006 117.79835938074945 l 11.387205965070347 18.184617747254016 a42.455740078232665,42.455740078232665 0 0,0 -0.6227262393506272,0.3825293177208703 l -11.07250052578741 -18.377935531803267" fill="#ffec16" stroke="none" /><line stroke="#e1ed5e" stroke-width="0.3" x1="143.8653032363475" x2="146.44561519142675" y1="172.8068346515853" y2="177.08958963109032" /><path d="M 144.38136562736335 173.6633856474863 a86.0,86.0 0 0,1 -40.68145358897372,12.25698825130547" fill="none" id="id102" stroke="none" /><text fill="#e1ed5e" style="font-size:6.75px; font-family:Arial;" text-anchor="middle"><textPath startOffset="21.466115282336833" xlink:href="#id102">June</textPath></text><path d="M 110.5260780823613 118.17145234162733 l 14.073502812987115 24.29546728087588 a49.0772721578017,49.0772721578017 0 0,0 -0.7346429056642318,0.4171494148382394 l -13.653211140401684 -24.534119861508746" fill="#beff1f" stroke="none" /><path d="M 110.21172684928248 118.3499491758327 l 13.403877664704734 24.086080399192515 a48.564528028731715,48.564528028731715 0 0,0 -0.7339653975564319,0.4002164556307937 l -12.987289455279653 -24.31323750658308" fill="#c4ff1e" stroke="none" /><path d="M 109.57404056367764 118.69057910512821 l 20.217342475161914 39.46858552710489 a65.34535128137311,65.34535128137311 0 0,0 -1.005528329413002,0.5041927787933804 l -19.53496023806615 -39.810746146807574" fill="#34ff5e" stroke="none" /><path d="M 109.2508944713604 118.85261126421891 l 9.620739661467818 19.606327309583225 a42.839567353870564,42.839567353870564 0 0,0 -0.6648034432846289,0.3191460528153385 l -9.281823550182956 -19.769027638898123" fill="#fff116" stroke="none" /><path d="M 108.92500713936063 119.00905698771935 l 9.197961754463922 19.590413366772196 a42.64224563943372,42.64224563943372 0 0,0 -0.6671115440429132,0.3062381901150972 l -8.85938221465359 -19.745838627221367" fill="#ffef16" stroke="none" /><path d="M 108.2653958097858 119.30500536409082 l 11.986244886064922 27.995576636127975 a51.453610256553034,51.453610256553034 0 0,0 -0.817202263450219,0.34159061239925753 l -11.502571163117242 -28.197752291547207" fill="#a1ff22" stroke="none" /><path d="M 107.93186726928326 119.44442032107085 l 9.46265791785354 23.19704700831177 a46.052841850299984,46.052841850299984 0 0,0 -0.7365799507568032,0.2931003636838498 l -9.061956891054873 -23.356494216401686" fill="#e3ff1b" stroke="none" /><path d="M 107.2578585660854 119.70592522655815 l 7.228660226433154 19.626648358224625 a41.915517073374446,41.915517073374446 0 0,0 -0.6791919317218909,0.24353406222399762 l -6.889748734081528 -19.748169961488582" fill="#ffe515" stroke="none" /><path d="M 106.91757812671514 119.82793768551818 l 7.7387859480972505 22.181775576606334 a44.49297715661846,44.49297715661846 0 0,0 -0.7252996548782408,0.24606102242760525 l -7.355816560281783 -22.31169958593206" fill="#f7ff18" stroke="none" /><path d="M 106.57524785965236 119.94407469862006 l 10.419054447707286 31.603128069007887 a54.27633392263041,54.27633392263041 0 0,0 -0.889818249346579,0.28489170390660723 l -9.873514853269766 -31.7777926195742" fill="#80ff25" stroke="none" /><path d="M 105.88484417918355 120.15858648285463 l 6.655951523012705 22.80002160073415 a44.75168784888011,44.75168784888011 0 0,0 -0.7413198751112968,0.20950440155053995 l -6.2625004797968025 -22.91121479562321" fill="#f4ff19" stroke="none" /><path d="M 105.53697534728816 120.25689768951611 l 6.434459108355899 23.540321505888258 a45.403872656152124,45.403872656152124 0 0,0 -0.7556708298426138,0.19957953434672865 l -6.028297835701788 -23.64759238953857" fill="#ebff1a" stroke="none" /><path d="M 104.83641907484287 120.43548508189849 l 4.775759337013707 20.179177440170832 a41.73661205228504,41.73661205228504 0 0,0 -0.700538799097024,0.1594403499159662 l -4.42770038852382 -20.258394523664485" fill="#ffe315" stroke="none" /><path d="M 104.48393922423573 120.51570834832081 l 5.111741898586869 23.388141698368987 a44.94023970934198,44.94023970934198 0 0,0 -0.7571543111702723,0.1586690475792053 l -4.7083961259872185 -23.47266672667473" fill="#f1ff19" stroke="none" /><path d="M 104.13013068566511 120.58985236759428 l 9.735763882806323 48.53549591747539 a70.50231774712196,70.50231774712196 0 0,0 -1.191933621332589,0.22843691535431881 l -8.89886264690203 -48.69589003117817" fill="#3bff9c" stroke="none" /><path d="M 103.41894727170886 120.7198165907248 l 4.005484935817051 24.27440572535031 a45.60265601291814,45.60265601291814 0 0,0 -0.7756015834291319,0.1211330162794409 l -3.587047488779401 -24.339757048976853" fill="#e9ff1a" stroke="none" /><path d="M 103.06178313531738 120.77559828337769 l 4.138523914407859 28.0817767072118 a49.38509403232318,49.38509403232318 0 0,0 -0.8420661997392768,0.11670270235917703 l -3.654529123481752 -28.14885397506358" fill="#baff1f" stroke="none" /><path d="M 102.34483914955558 120.86867818915974 l 4.662586180925128 41.49624103529287 a62.75736737335913,62.75736737335913 0 0,0 -1.0745477919193815,0.11138127219328939 l -3.9476057924001435 -41.570351675941914" fill="#31ff3d" stroke="none" /><path d="M 101.98527174616119 120.90594882070398 l 2.2857832509255434 24.070491987544678 a45.1787797374612,45.1787797374612 0 0,0 -0.7748282971404739,0.06685544578472273 l -1.871110636043528 -24.106271685608064" fill="#eeff19" stroke="none" /><path d="M 101.62511606390274 120.93702456842531 l 4.558523289847626 58.72929093204213 a79.90593983601764,79.90593983601764 0 0,0 -1.3722408352298234,0.0946377622239941 l -3.5469196938388725 -58.799057038782415" fill="#48fbff" stroke="none" /><path d="M 100.90346689309514 120.98055641714683 l 0.9527798333324305 22.125715063967174 a43.14621991452873,43.14621991452873 0 0,0 -0.7422786265375739,0.025565576740407978 l -0.5717808551202043 -22.138837439133674" fill="#fff517" stroke="none" /><line stroke="#e1ed5e" stroke-width="0.3" x1="102.19456741930631" x2="102.32365962044197" y1="184.97166512339345" y2="189.96999836594603" /><path d="M 102.22038585953345 185.97133177190398 a86.0,86.0 0 0,1 -42.740103519485714,-10.115201625700543" fill="none" id="id103" stroke="none" /><text fill="#e1ed5e" style="font-size:6.75px; font-family:Arial;" text-anchor="middle"><textPath startOffset="22.20632615414155" xlink:href="#id103">July</textPath></text><path d="M 100.54218724476979 120.99299961872073 l 0.7080427886234669 27.41477623274121 a48.42391803666635,48.42391803666635 0 0,0 -0.8334455215135579,0.014348520486441273 l -0.23603757721724114 -27.42290223050681" fill="#c6ff1e" stroke="none" /><path d="M 99.81925306533755 120.99922214144158 l -0.2276238384821521 26.445392049945518 a47.44637164692289,47.44637164692289 0 0,0 -0.8166205372157874,-0.014058863123543456 l 0.6828040655906075 -26.437555709542817" fill="#d2ff1c" stroke="none" /><path d="M 99.45781275523022 120.99299961872073 l -0.6097898889698847 23.610512844285296 a44.61838606846054,44.61838606846054 0 0,0 -0.7676054679837347,-0.02643788436915349 l 1.0161157086282626 -23.59651816149005" fill="#f6ff19" stroke="none" /><path d="M 99.09653310690486 120.98055641714683 l -2.291812923631842 53.22110938351869 a74.2704316717012,74.2704316717012 0 0,0 -1.2767862855983256,-0.06599526699279167 l 3.2075872776436567 -53.173774309763694" fill="#40ffc7" stroke="none" /><path d="M 98.37488393609728 120.93702456842531 l -1.9061525334360154 24.557730558563378 a45.63159653103554,45.63159653103554 0 0,0 -0.7825942276751335,-0.06752552294858467 l 2.328591078852691 -24.52128078333613" fill="#e9ff1a" stroke="none" /><path d="M 98.01472825383883 120.90594882070398 l -2.791656259451501 29.39759909339524 a50.52985230452275,50.52985230452275 0 0,0 -0.8651851327161962,-0.0896799765346046 l 3.2972739887732905 -29.345189748404877" fill="#acff21" stroke="none" /><path d="M 97.2962882734958 120.8252237178851 l -3.167622395670371 24.39847576831386 a45.6032406698498,45.6032406698498 0 0,0 -0.7775817444332914,-0.1077657444374575 l 3.5871327312904935 -24.340335458383795" fill="#e9ff1a" stroke="none" /><path d="M 96.93821686468263 120.77559828337769 l -3.734517033000302 25.34040532299285 a46.61411250469814,46.61411250469814 0 0,0 -0.7928042493521873,-0.12381971890592883 l 4.1701571459610065 -25.272367296739816" fill="#dcff1b" stroke="none" /><path d="M 96.58105272829116 120.7198165907248 l -9.681678907730607 58.67379497730672 a80.4672104904158,80.4672104904158 0 0,0 -1.364689513282697,-0.23726876457218807 l 10.690217392485353 -58.49844763421353" fill="#48f5ff" stroke="none" /><path d="M 95.86986931433489 120.58985236759428 l -4.604506122938689 22.954746111556585 a44.41200217158289,44.41200217158289 0 0,0 -0.7482545515867925,-0.15680401642774935 l 4.998952135954869 -22.872086114402293" fill="#f8ff18" stroke="none" /><path d="M 95.51606077576429 120.51570834832081 l -6.740171404566857 30.838819136170425 a52.566797054442695,52.566797054442695 0 0,0 -0.8823207986974128,-0.2008133411936299 l 7.270012352657132 -30.718229061399107" fill="#94ff23" stroke="none" /><path d="M 94.81253420990036 120.34920634021253 l -6.839667542364905 26.83040462332657 a48.68847529824464,48.68847529824464 0 0,0 -0.8103374972225347,-0.2140174980593742 l 7.300495482398929 -26.708695775963612" fill="#c2ff1e" stroke="none" /><path d="M 94.46302465271185 120.25689768951611 l -7.025793307506673 25.703704150959286 a47.64661664601807,47.64661664601807 0 0,0 -0.7892748988770268,-0.2230569702765205 l 7.467199374488313 -25.578958387344244" fill="#cfff1d" stroke="none" /><path d="M 94.11515582081647 120.15858648285463 l -17.588177820828886 60.24846077168274 a83.76321394267578,83.76321394267578 0 0,0 -1.3805973603274195,-0.41596265945381355 l 18.62265015559655 -59.936782743123196" fill="#4dd4ff" stroke="none" /><path d="M 93.42475214034765 119.94407469862007 l -10.31114045872484 31.27580281781876 a53.93167866141403,53.93167866141403 0 0,0 -0.879164093300266,-0.29826019387175523 l 10.847974284962332 -31.093679637048883" fill="#84ff25" stroke="none" /><path d="M 93.08242187328487 119.8279376855182 l -7.505365713689376 21.512720341146952 a43.784372955440794,43.784372955440794 0 0,0 -0.7094745555633004,-0.25439233372937625 l 7.874559829882403 -21.380340466377618" fill="#fffe18" stroke="none" /><path d="M 92.40401165467489 119.57807347666478 l -9.185143082325425 23.673997113241967 a46.3934045129947,46.3934045129947 0 0,0 -0.7420269898371173,-0.2952678529479797 l 9.591291148204402 -23.51238241588792" fill="#dfff1b" stroke="none" /><path d="M 92.06813273071674 119.44442032107085 l -13.247897748658952 32.47629889030783 a56.07444631596531,56.07444631596531 0 0,0 -0.890591820916753,-0.3722674533723394 l 13.804961029073167 -32.24344639391552" fill="#6cff28" stroke="none" /><path d="M 91.7346041902142 119.30500536409082 l -17.141287466652116 40.035910452026826 a64.55109483970656,64.55109483970656 0 0,0 -1.0176920442682893,-0.4461262849949044 l 17.827900185578148 -39.73491961373747" fill="#33ff54" stroke="none" /><path d="M 91.07499286063937 119.00905698771935 l -8.052595984487931 17.150939330136694 a39.9472695129251,39.9472695129251 0 0,0 -0.6199194801067823,-0.29759902289602574 l 8.346628132594955 -17.009786030741108" fill="#ffcb12" stroke="none" /><path d="M 90.7491055286396 118.85261126421891 l -13.10181737002767 26.700495881410646 a50.741790442251215,50.741790442251215 0 0,0 -0.7808100618377968,-0.3915143743564621 l 13.559481339548228 -26.471013666144884" fill="#a9ff21" stroke="none" /><path d="M 90.10565033884886 118.52300852407294 l -10.773226078426429 20.168334990825567 a43.865347940476354,43.865347940476354 0 0,0 -0.6629457517024812,-0.3614908821385684 l 11.118794641997551 -19.979903456927232" fill="#ffff18" stroke="none" /><line stroke="#e1ed5e" stroke-width="0.3" x1="58.666819895761336" x2="56.23545636021788" y1="174.27360380694188" y2="178.64263932499728" /><path d="M 58.180547188652646 175.14741091055294 a86.0,86.0 0 0,1 -31.652253787137756,-30.449443065178592" fill="none" id="id104" stroke="none" /><text fill="#e1ed5e" style="font-size:6.75px; font-family:Arial;" text-anchor="middle"><textPath startOffset="22.20632615414155" xlink:href="#id104">August</textPath></text><path d="M 89.7882731507175 118.34994917583269 l -11.798988873018011 21.202177588730617 a45.26413964948425,45.26413964948425 0 0,0 -0.6775637196698118,-0.38473836335536016 l 12.16220135960903 -20.99593605958062" fill="#edff1a" stroke="none" /><path d="M 89.4739219176387 118.17145234162733 l -25.09601521948554 43.32392757847901 a71.06768100004177,71.06768100004177 0 0,0 -1.0532640789866095,-0.6222869831457168 l 25.83804716950053 -42.88552202303954" fill="#3cffa3" stroke="none" /><path d="M 88.8546689885994 117.79835938074946 l -11.697656114071727 18.680386183030564 a43.04068933836324,43.04068933836324 0 0,0 -0.6245372044687733,-0.3986091928470845 l 12.017475120587424 -18.476262561359675" fill="#fff417" stroke="none" /><path d="M 88.54995079064634 117.60387380957326 l -16.680887286564147 25.646023825339164 a51.593635591686734,51.593635591686734 0 0,0 -0.7403079898936017,-0.49063576794062985 l 17.11986997519771 -25.355090036307214" fill="#9fff22" stroke="none" /><path d="M 87.95078237400918 117.19931262002967 l -18.513027357087722 26.425893775118055 a53.26546208778206,53.26546208778206 0 0,0 -0.7464080886635921,-0.5325423528975731 l 18.965162773600202 -26.103307160376264" fill="#8cff24" stroke="none" /><path d="M 87.65650970185807 116.9893568818739 l -9.293400563293357 12.791268515013602 a36.8108774030096,36.8108774030096 0 0,0 -0.5094187726378209,-0.3768558295146284 l 9.512204306349743 -12.629402736759207" fill="#ff9f0e" stroke="none" /><path d="M 87.36589467227662 116.77436683061367 l -37.902315983170105 50.323100491841 a84.0,84.0 0 0,0 -1.147485086026053,-0.8798426326905329 l 38.76292979768965 -49.663218517323095" fill="#4dd2ff" stroke="none" /><path d="M 86.79598089348748 116.32954008644616 l -14.627958525170774 18.090539947933955 a44.26466862480338,44.26466862480338 0 0,0 -0.5883614887263483,-0.4841814497755591 l 14.93719014244181 -17.836063379301216" fill="#faff18" stroke="none" /><path d="M 86.51685102203217 116.09983520530335 l -18.520021146526442 22.114217453580977 a49.84492670907749,49.84492670907749 0 0,0 -0.6530504835787418,-0.5565437897334875 l 18.897937106682242 -21.79214927362454" fill="#b4ff20" stroke="none" /><path d="M 85.97065885151581 115.62618273729859 l -15.000538630720529 16.707923438505283 a43.453749460584376,43.453749460584376 0 0,0 -0.552277395637352,-0.5044923065440544 l 15.285915575824735 -16.447238365374655" fill="#fff917" stroke="none" /><path d="M 85.70375840098266 115.38237550388516 l -15.88592905663598 17.09283690295576 a44.335119785068976,44.335119785068976 0 0,0 -0.5545355831203964,-0.5243480062062537 l 16.177800474147194 -16.816854260003574" fill="#f9ff18" stroke="none" /><path d="M 85.44109423537348 115.13401014063109 l -33.64029969186619 34.96915529926381 a69.52330971504935,69.52330971504935 0 0,0 -0.8553023988512098,-0.8370934145682162 l 34.23725204309319 -34.38491178177302" fill="#3aff91" stroke="none" /><path d="M 84.9287848128048 114.62390073753433 l -18.699241472148163 18.14424701388469 a47.055236159639186,47.055236159639186 0 0,0 -0.5590463402450457,-0.5861578527091151 l 19.008794363772168 -17.819682044593076" fill="#d7ff1c" stroke="none" /><path d="M 84.67929136418377 114.36230785411682 l -21.324271536525163 19.990312449149872 a50.229046313181236,50.229046313181236 0 0,0 -0.58589453892203,-0.6358728064230669 l 21.66521248344292 -19.62028838792546" fill="#b0ff20" stroke="none" /><path d="M 84.19399662182784 113.82643327865904 l -28.796334815276797 25.189834043891846 a59.25907262274316,59.25907262274316 0 0,0 -0.6649925875923154,-0.7735366137306617 l 29.22566991243989 -24.690420330999654" fill="#49ff2c" stroke="none" /><path d="M 83.72743513129214 113.27417163493432 l -15.246652785931875 12.437294770162445 a40.676044378245194,40.676044378245194 0 0,0 -0.4379107163039433,-0.5463609504399274 l 15.458481414290679 -12.173005986144258" fill="#ffd513" stroke="none" /><path d="M 83.50135304334701 112.99209946851258 l -18.18349006081946 14.318853671792349 a44.14452162534627,44.14452162534627 0 0,0 -0.4649746305093404,-0.601042389144281 l 18.427271508546866 -14.003733288534814" fill="#fcff18" stroke="none" /><path d="M 83.28015986056508 112.70617746262583 l -23.091286940067345 17.548133669585795 a50.00249175216115,50.00249175216115 0 0,0 -0.5148797846941325,-0.6897656120496733 l 23.389927991456563 -17.148055178026816" fill="#b2ff20" stroke="none" /><path d="M 83.06392112726016 112.41649034213515 l -18.10213321944935 13.271369599790678 a43.445856592006905,43.445856592006905 0 0,0 -0.4369829928468229,-0.6069311574516175 l 18.327896004671782 -12.957804836887922" fill="#fff917" stroke="none" /><path d="M 82.6465618267979 111.8261652097733 l -17.624234617821994 12.010709820491392 a42.32770021019809,42.32770021019809 0 0,0 -0.40513029987406624,-0.6056148295108116 l 17.82836802310679 -11.70555807677476" fill="#ffeb16" stroke="none" /><path d="M 82.44556493220864 111.52570212397912 l -21.371657810862047 14.031973166459698 a46.56646296476745,46.56646296476745 0 0,0 -0.43416604658258984,-0.6738353458595555 l 21.610028720821685 -13.662016220678694" fill="#ddff1b" stroke="none" /><path d="M 82.24976979558568 111.22182372390057 l -53.01521349998926 33.51660084013333 a83.72141097206176,83.72141097206176 0 0,0 -0.7596137717651875,-1.2247392663758951 l 53.584291911422405 -32.59906524239217" fill="#4dd5ff" stroke="none" /><line stroke="#e1ed5e" stroke-width="0.3" x1="26.63291911575756" x2="22.317208475507996" y1="142.92168965132927" y2="145.44649492493687" /><path d="M 25.769776987707644 143.4266507060508 a86.0,86.0 0 0,1 -11.730757126820373,-40.83630448921669" fill="none" id="id105" stroke="none" /><text fill="#e1ed5e" style="font-size:6.75px; font-family:Arial;" text-anchor="middle"><textPath startOffset="21.46611528233685" xlink:href="#id105">September</textPath></text><path d="M 81.87401531095188 110.60418214915194 l -16.44527441420718 9.620922028385468 a40.05280008909058,40.05280008909058 0 0,0 -0.34301981640622997,-0.59808396313064 l 16.608446226765786 -9.336418219396522" fill="#ffcc13" stroke="none" /><path d="M 81.69416730710424 110.29060199501025 l -23.948158339652966 13.462428621588709 a48.47273689046035,48.47273689046035 0 0,0 -0.4026089910545726,-0.7308522644507239 l 24.176343740159055 -13.048205838740161" fill="#c5ff1e" stroke="none" /><path d="M 81.35079622478065 109.6543875284942 l -18.608965087841554 9.63355661869957 a41.954689087795984,41.954689087795984 0 0,0 -0.32649005235386763,-0.6441958474134827 l 18.77203380998169 -9.311806559583403" fill="#ffe615" stroke="none" /><path d="M 81.18737489456691 109.33194174019688 l -26.036828178480082 12.915484271831987 a50.06417305845177,50.06417305845177 0 0,0 -0.37630793702636844,-0.7753058090035125 l 26.25528937212117 -12.46538950686319" fill="#b2ff20" stroke="none" /><path d="M 81.02952815118164 109.00673069616217 l -43.413139330127144 20.611530263322177 a69.05763046897837,69.05763046897837 0 0,0 -0.5005868694416139,-1.0782195824786784 l 43.761500816408585 -19.86119061356467" fill="#39ff8b" stroke="none" /><path d="M 80.73074385275274 108.34839909993369 l -29.204710685911724 12.652931620244171 a52.82784637443101,52.82784637443101 0 0,0 -0.3543214441696272,-0.837511229154416 l 29.41818311127366 -12.148345865423595" fill="#91ff24" stroke="none" /><path d="M 80.58989483394504 108.01547362559985 l -28.764307608373294 11.878325594895152 a52.12041148711667,52.12041148711667 0 0,0 -0.33530149217803223,-0.8321908057106346 l 28.964511714808715 -11.381435421341711" fill="#99ff23" stroke="none" /><path d="M 80.20201598880116 107.00284435728193 l -24.905327576430352 8.80938850067807 a47.41743112880549,47.41743112880549 0 0,0 -0.26555831780311934,-0.7718367766290005 l 25.0532767251767 -8.379379020959773" fill="#d2ff1c" stroke="none" /><path d="M 80.0844068197444 106.66101706037122 l -59.669708742931284 19.957273897223992 a83.9187326864986,83.9187326864986 0 0,0 -0.44639870123704095,-1.3738739338136612 l 60.004399695184574 -18.927201063432527" fill="#4dd3ff" stroke="none" /><path d="M 79.76711848015287 105.62410040840567 l -23.38060043719906 6.499066598034161 a45.26706293414257,45.26706293414257 0 0,0 -0.2022185834385645,-0.7525305761344125 l 23.4890070969794 -6.0956450887242095" fill="#edff1a" stroke="none" /><path d="M 79.50377843672027 104.57218783832718 l -20.55499659066167 4.585299058098263 a42.060219663961476,42.060219663961476 0 0,0 -0.1515489024921345,-0.7079860192157574 l 20.630879531878243 -4.230799219466342" fill="#ffe715" stroke="none" /><path d="M 79.4281124754447 104.21870165774334 l -34.69961417149783 7.115891512318421 a56.42173253337417,56.42173253337417 0 0,0 -0.18691731971313627,-0.9530873862503748 l 34.81696142418663 -6.517540399000091" fill="#68ff28" stroke="none" /><path d="M 79.29508885075956 103.50808413554451 l -25.457382437571322 4.313307061209466 a46.82020407310996,46.82020407310996 0 0,0 -0.12779295037700056,-0.7957668239854925 l 25.527857142309614 -3.8744610075307597" fill="#daff1c" stroke="none" /><path d="M 79.18660465613746 102.79330883721812 l -16.05311741605847 2.154444962119028 a37.197043306374155,37.197043306374155 0 0,0 -0.07970527663173654,-0.6353294774761332 l 16.087824201937053 -1.877797730355486" fill="#ffa50f" stroke="none" /><path d="M 79.1416061653843 102.43462659150553 l -15.358446787616371 1.7926635794602381 a36.46271420020324,36.46271420020324 0 0,0 -0.06739993553699064,-0.6240396951246204 l 15.387029024654414 -1.5280275624508355" fill="#ff9a0e" stroke="none" /><path d="M 79.0235259727143 100.99374915477108 l -33.82159690909172 1.6022799302541832 a54.859529211965985,54.859529211965985 0 0,0 -0.03656744770260787,-0.9436433414029722 l 33.844166489645524 -1.0198593418372142" fill="#79ff26" stroke="none" /><path d="M 79.0095281055655 100.63252640178507 l -15.716337149184247 0.47359574554636 a36.723471191725714,36.723471191725714 0 0,0 -0.013601564615151293,-0.6320112613441661 l 15.722160776484406 -0.20299466841206507" fill="#ff9e0e" stroke="none" /><line stroke="#e1ed5e" stroke-width="0.3" x1="15.007084014347285" x2="10.007500721073583" y1="101.09737516637583" y2="101.16192664675087" /><path d="M 14.007167355692545 101.11028546245083 a86.0,86.0 0 0,1 10.666146001902534,-42.60595125391555" fill="none" id="id106" stroke="none" /><text fill="#e1ed5e" style="font-size:6.75px; font-family:Arial;" text-anchor="middle"><textPath startOffset="22.20632615414155" xlink:href="#id106">October</textPath></text><path d="M 79.12142395522702 97.74499172005258 l -15.333489914252173 -1.6561065583677799 a36.4226652003842,36.4226652003842 0 0,0 0.07268862101031279,-0.6227517146235763 l 15.302710940238272 1.9198020113162177" fill="#ff9a0e" stroke="none" /><path d="M 79.32604984820605 96.31383870115002 l -19.523079059501338 -3.480961206500622 a40.830978465136354,40.830978465136354 0 0,0 0.12932585593621782,-0.6908638936817401 l 19.460267479655258 3.816503177644935" fill="#ffd714" stroke="none" /><line stroke="#e1ed5e" stroke-width="0.3" x1="26.266209847984243" x2="21.928928074336255" y1="57.711370442889674" y2="55.22380399835377" /><path d="M 25.398753493254645 57.213857153982495 a86.0,86.0 0 0,1 29.58750427330803,-30.492523968695096" fill="none" id="id107" stroke="none" /><text fill="#e1ed5e" style="font-size:6.75px; font-family:Arial;" text-anchor="middle"><textPath startOffset="21.46611528233685" xlink:href="#id107">November</textPath></text><line stroke="#e1ed5e" stroke-width="0.3" x1="56.762969772571076" x2="54.21961505331055" y1="26.818313649435495" y2="22.513508569990535" /><path d="M 56.25429882871897 25.957352633546506 a86.0,86.0 0 0,1 42.265352541879196,-11.944610805530505" fill="none" id="id108" stroke="none" /><text fill="#e1ed5e" style="font-size:6.75px; font-family:Arial;" text-anchor="middle"><textPath startOffset="22.20632615414155" xlink:href="#id108">December</textPath></text></svg>