<?xml version="1.0" encoding="utf-8" ?>
<svg baseProfile="full" height="200mm" version="1.1" viewBox="0,0,200,200" width="200mm" xmlns="http://www.w3.org/2000/svg" xmlns:ev="http://www.w3.org/2001/xml-events" xmlns:xlink="http://www.w3.org/1999/xlink"><defs /><rect fill="#1a1a1a" height="200" width="200" x="0" y="0" /><text alignment-baseline="middle" fill="#e1ed5e" style="dominant-baseline: central; font-size:9.0px; font-family:Arial;" text-anchor="middle" x="100.0" y="100.0">2023</text><line stroke="#e1ed5e" stroke-width="0.3" x1="100.0" x2="100.0" y1="15.0" y2="10.0" /><path d="M 100.0 14.0 a86.0,86.0 0 0,1 42.46469731375804,11.215312516191453" fill="none" id="id73" stroke="none" /><text fill="#e1ed5e" style="font-size:6.75px; font-family:Arial;" text-anchor="middle"><textPath startOffset="22.20632615414155" xlink:href="#id73">January</textPath></text><path d="M 102.16513564639614 79.11191278185805 l 0.7832524047609809 -7.556406256438979 a28.59689145913735,28.59689145913735 0 0,0 0.4891883613447854,0.05496601225965705 l -0.9132074696154915 7.541804290708721" fill="#ff4906" stroke="none" /><path d="M 104.66035177308747 79.52364482259891 l 1.7505634608946392 -7.691513630549773 a28.8882098323734,28.8882098323734 0 0,0 0.4839137116707281,0.11452674092749701 l -1.882700859527891 7.660240977481407" fill="#ff4d07" stroke="none" /><path d="M 106.40334571778207 80.00007090966166 l 2.9327592293560074 -9.160051512332185 a30.618088188717756,30.618088188717756 0 0,0 0.5005578869182549,0.16502606535158243 l -3.0899999385166796 9.108211722721366" fill="#ff6609" stroke="none" /><path d="M 107.08798089147638 80.2323363322302 l 2.59545366050634 -7.238458428671718 a28.689711316261775,28.689711316261775 0 0,0 0.46343129271231015,0.17068565616350728 l -2.7196672789912264 7.192709504701886" fill="#ff4a06" stroke="none" /><path d="M 109.73455568895987 81.39251694778311 l 3.531886678547885 -6.751157794285781 a28.619209609496885,28.619209609496885 0 0,0 0.4345417499253638,0.23211715367632121 l -3.6475734750015603 6.689361914107706" fill="#ff4906" stroke="none" /><path d="M 110.36928655335952 81.73862282372117 l 3.465656914868563 -6.103377292190779 a28.018688782273106,28.018688782273106 0 0,0 0.4173494001491466,0.24175571060618775 l -3.570203047483038 6.042817424194542" fill="#ff4106" stroke="none" /><line stroke="#e1ed5e" stroke-width="0.3" x1="143.23703022742887" x2="145.7803849466894" y1="26.81831364943548" y2="22.513508569990506" /><path d="M 143.74570117128098 25.957352633546492 a86.0,86.0 0 0,1 28.547481713284135,27.462654790039103" fill="none" id="id74" stroke="none" /><text fill="#e1ed5e" style="font-size:6.75px; font-family:Arial;" text-anchor="middle"><textPath startOffset="19.985693538727396" xlink:href="#id74">February</textPath></text><path d="M 111.2981086023043 82.29822771554956 l 4.609682382260765 -7.222407812382024 a29.568100505577778,29.568100505577778 0 0,0 0.4266718780054554,0.27751925810517064 l -4.7333212860505 7.141989630117326" fill="#ff5708" stroke="none" /><path d="M 113.6212207817346 84.01681056812373 l 6.176261499671343 -7.247247446603691 a30.522016680547573,30.522016680547573 0 0,0 0.3969405730125928,0.3442229533991613 l -6.3000958713307 7.139859499784858" fill="#ff6409" stroke="none" /><path d="M 113.89432698308785 84.25364557470407 l 4.969158568325439 -5.631516525240093 a28.510427101784185,28.510427101784185 0 0,0 0.36519007758692607,0.32787125740436035 l -5.065359633508356 5.545146259066435" fill="#ff4806" stroke="none" /><path d="M 114.42810811169701 84.74124197986012 l 4.81103927089727 -5.088018712619504 a28.002430527044304,28.002430527044304 0 0,0 0.347385827232104,0.3341848905638538 l -4.897908341741792 5.004450735293348" fill="#ff4006" stroke="none" /><path d="M 114.94478906791727 85.2469230424477 l 5.414687691151181 -5.345227948392665 a28.608567842438035,28.608567842438035 0 0,0 0.3429428042959855,0.3534327053505734 l -5.505894759150276 5.251231047491978" fill="#ff4906" stroke="none" /><path d="M 115.4437574822437 85.77008943001954 l 6.793086611762967 -6.2591642668993135 a30.23705380708278,30.23705380708278 0 0,0 0.3493911140630356,0.3858063947042144 l -6.899821366442038 6.14130508492555" fill="#ff6008" stroke="none" /><path d="M 115.9244219780498 86.31012108654704 l 6.261985808647288 -5.383292881607038 a29.257863435348217,29.257863435348217 0 0,0 0.3250261434052424,0.38472843526881967 l -6.353722565539648 5.274705496709112" fill="#ff5207" stroke="none" /><path d="M 116.38621287248628 86.86637796730983 l 6.980204914270148 -5.594665086322701 a29.945587631526468,29.945587631526468 0 0,0 0.3189146894288931,0.40498926928092077 l -7.075473684293005 5.473683423088741" fill="#ff5c08" stroke="none" /><path d="M 116.82858285166822 87.43820079747576 l 6.422336318075321 -4.7939924561588185 a29.014285211556732,29.014285211556732 0 0,0 0.2953065486144124,0.4027978004378842 l -6.503905479203359 4.682732212049441" fill="#ff4f07" stroke="none" /><path d="M 117.2510076193507 88.02491185347247 l 6.033046611206583 -4.187944643898272 a28.344149491489635,28.344149491489635 0 0,0 0.27477025609025246,0.4031914459436613 l -6.104241332965569 4.083475174684204" fill="#ff4506" stroke="none" /><path d="M 117.45458315368197 88.32363383020206 l 8.139971235530977 -5.445291011583559 a30.793381740548277,30.793381740548277 0 0,0 0.2909290736206008,0.4431049386206391 l -8.232496944509503 5.304368008985246" fill="#ff6809" stroke="none" /><line stroke="#e1ed5e" stroke-width="0.3" x1="172.23445277983987" x2="176.4835382374775" y1="55.19839476539836" y2="52.563006222186495" /><path d="M 173.08426987136738 54.67131705675599 a86.0,86.0 0 0,1 12.851231095245387,41.99856678651699" fill="none" id="id75" stroke="none" /><text fill="#e1ed5e" style="font-size:6.75px; font-family:Arial;" text-anchor="middle"><textPath startOffset="22.20632615414155" xlink:href="#id75">March</textPath></text><path d="M 117.84615892207809 88.93136811851018 l 6.406354253973682 -3.9733803363101505 a28.538509542633932,28.538509542633932 0 0,0 0.25533024207232174,0.4196957834001235 l -6.473800294332228 3.8625167797029456" fill="#ff4806" stroke="none" /><path d="M 118.21658344932153 89.55222093294921 l 9.780913570353142 -5.609659151577875 a32.27539560581356,32.27539560581356 0 0,0 0.2722542717063646,0.48430997041761636 l -9.87602548335194 5.440465671225465" fill="#ff7d0b" stroke="none" /><path d="M 118.3937258080291 89.86733742301442 l 15.580758123898647 -8.58306611780511 a38.78845265047097,38.78845265047097 0 0,0 0.3171268173301875,0.5875878292963481 l -15.7261930404473 8.313597305176303" fill="#ffd413" stroke="none" /><path d="M 118.73160827565052 90.50648371742162 l 7.99788630512268 -4.053472758267791 a29.966427758683388,29.966427758683388 0 0,0 0.22922888414226336,0.4621114426946914 l -8.066475202218351 3.91520172707415" fill="#ff5c08" stroke="none" /><path d="M 118.89224826269711 90.83032412892265 l 8.561912218677028 -4.155670558114755 a30.517139203978935,30.517139203978935 0 0,0 0.2253063038555926,0.4745525361910821 l -8.632176716374378 4.007675606283133" fill="#ff6409" stroke="none" /><path d="M 119.196687751892 91.48605970444005 l 8.617330958596618 -3.8218802241725753 a30.426831986298957,30.426831986298957 0 0,0 0.2082199250708114,0.48060029511309904 l -8.68184159351011 3.6729807844728732" fill="#ff6309" stroke="none" /><path d="M 119.47837535516314 92.15188598940014 l 16.97373535975876 -6.838958992225519 a39.299700876256615,39.299700876256615 0 0,0 0.2474130449314721,0.6296392127197405 l -17.088941954571933 6.545770774609994" fill="#ffda14" stroke="none" /><path d="M 119.7369772167798 92.82701384747503 l 6.227048840666201 -2.2630889530146048 a27.62553461037666,27.62553461037666 0 0,0 0.15857967086966118,0.4483260841166703 l -6.2650815923456715 2.15556524247132" fill="#ff3b05" stroke="none" /><path d="M 119.85752413597 93.16781622104841 l 8.376316395789436 -2.8819571168499696 a29.85823646025173,29.85823646025173 0 0,0 0.16302981884451753,0.487438407518092 l -8.424683508405725 2.737345606409564" fill="#ff5b08" stroke="none" /><path d="M 120.18372546131832 94.20196356495316 l 8.393734493070287 -2.411208897495193 a29.73319569731023,29.73319569731023 0 0,0 0.1370746046113772,0.4931302845050194 l -8.433995868248028 2.266367309571222" fill="#ff5908" stroke="none" /><path d="M 120.28053869075195 94.5502522615342 l 15.88723479147038 -4.269187480447573 a37.45084165210149,37.45084165210149 0 0,0 0.1619368474550128,0.6240087314416337 l -15.958367970795697 3.9950823234570887" fill="#ffc212" stroke="none" /><path d="M 120.45610955862082 95.25157060432595 l 8.380024564695367 -1.9452357187195741 a29.602834050839306,29.602834050839306 0 0,0 0.11094805716420297,0.49735838553932293 l -8.412267008861606 1.8006991636302874" fill="#ff5708" stroke="none" /><path d="M 120.53481517161879 95.60439243477599 l 12.083862766839795 -2.5866275469798943 a33.357604194770616,33.357604194770616 0 0,0 0.11535489062919499,0.5625114141635127 l -12.126596953383986 2.3782404766529694" fill="#ff8c0c" stroke="none" /><path d="M 120.67395015179393 96.31383870115 l 8.71095285425492 -1.5531612029486823 a29.848333704794193,29.848333704794193 0 0,0 0.08583263376931935,0.5065890632133347 l -8.736397349544463 1.4029863514195098" fill="#ff5b08" stroke="none" /><path d="M 120.78858239683441 97.02765380044208 l 20.32115691690794 -2.905513823866554 a41.52782085420357,41.52782085420357 0 0,0 0.09508684652759687,0.7085074526707458 l -20.36815976249337 2.555288029131144" fill="#fff717" stroke="none" /><path d="M 120.87857604477298 97.74499172005257 l 11.231360689355022 -1.2130526188787805 a32.29667913993126,32.29667913993126 0 0,0 0.05493953379986434,0.5532336077914722 l -11.250577348837115 1.0195434803828733" fill="#ff7d0b" stroke="none" /><path d="M 120.91429891909075 98.10471618934814 l 12.347946925783392 -1.1189886877758728 a33.398545437483136,33.398545437483136 0 0,0 0.04695758541522611,0.5730014812680546 l -12.365378995018112 0.9062732893000494" fill="#ff8c0c" stroke="none" /><path d="M 120.96714384426684 98.82574320788733 l 12.712067273747502 -0.7119344174324823 a33.731987471993804,33.731987471993804 0 0,0 0.027477742512319756,0.5800117156032895 l -12.722438624493318 0.4930115952061931" fill="#ff910d" stroke="none" /><line stroke="#e1ed5e" stroke-width="0.3" x1="184.98032266829074" x2="189.97916517819016" y1="98.17113171792111" y2="98.06355123074" /><path d="M 185.9800911702706 98.14961562048488 a86.0,86.0 0 0,1 -9.607161424134198,41.387399972396054" fill="none" id="id76" stroke="none" /><text fill="#e1ed5e" style="font-size:6.75px; font-family:Arial;" text-anchor="middle"><textPath startOffset="21.466115282336823" xlink:href="#id76">April</textPath></text><path d="M 120.99513854157772 99.54816195383933 l 22.74343223979061 -0.48946321387038055 a43.748698518457694,43.748698518457694 0 0,0 0.009722612599754774,0.7530270605460194 l -22.74848785950808 0.09789989526389839" fill="#ecff1a" stroke="none" /><path d="M 120.99824983174949 100.27111621757518 l 7.854890827864167 0.10141741848868739 a28.855545519595537,28.855545519595537 0 0,0 -0.010687458297206099,0.49660419151017854 l -7.851981306881953 -0.23661142578898078" fill="#ff4d07" stroke="none" /><path d="M 120.9904718944345 100.63252640178507 l 11.37088745278538 0.34265006340902504 a32.37604898591186,32.37604898591186 0 0,0 -0.02158074440513008,0.5569031212143083 l -11.363304575529046 -0.5383304316373395" fill="#ff7e0b" stroke="none" /><path d="M 120.9764740272857 100.99374915477107 l 8.071300555349922 0.3823735149362507 a29.080352848713765,29.080352848713765 0 0,0 -0.027991430883368466,0.4998058020022163 l -8.063522773579024 -0.5212510332738903" fill="#ff5007" stroke="none" /><path d="M 120.95626037817324 101.35467743843564 l 12.487914444313436 0.8072573849314155 a33.51397904960762,33.51397904960762 0 0,0 -0.04216926949247253,0.5753661785841899 l -12.472168616156624 -1.0220967000123757" fill="#ff8e0d" stroke="none" /><path d="M 120.89721153311464 102.0752229133903 l 24.620415172944615 2.4449601624175012 a45.741517202547826,45.741517202547826 0 0,0 -0.08455144874537858,0.782841405960275 l -24.574681422698184 -2.8683978902625675" fill="#d4ff1c" stroke="none" /><path d="M 120.81339534386255 102.79330883721812 l 9.432863491963596 1.2659587980268576 a30.517434808619456,30.517434808619456 0 0,0 -0.07435492916771512,0.5200382014193877 l -9.40967451177928 -1.4281424714266548" fill="#ff6409" stroke="none" /><path d="M 120.76222939487914 103.15116336523771 l 11.918852854794233 1.808970113823609 a33.055348449835186,33.055348449835186 0 0,0 -0.09022259914861223,0.5618162110226047 l -11.885948501284332 -2.013865554539419" fill="#ff870c" stroke="none" /><path d="M 120.64145759157962 103.86396538481128 l 11.155525137547357 2.0882518974076207 a32.349296765944466,32.349296765944466 0 0,0 -0.10716870210461374,0.5464509031773391 l -11.11792650246708 -2.279966527652905" fill="#ff7e0b" stroke="none" /><path d="M 120.49622156327973 104.57218783832717 l 23.18131819102561 5.171164879447155 a44.75109385447337,44.75109385447337 0 0,0 -0.17418709931682705,0.7503934649569568 l -23.08887052577823 -5.569427001752676" fill="#e0ff1b" stroke="none" /><path d="M 120.32669344350535 105.2749913415812 l 10.099850393772224 2.621017703960927 a31.434400403523796,31.434400403523796 0 0,0 -0.14042483670939912,0.5225730567171601 l -10.053237480721048 -2.794481693853635" fill="#ff710a" stroke="none" /><path d="M 120.23288151984713 105.62410040840565 l 10.258582870003876 2.851561210016319 a31.647531349341342,31.647531349341342 0 0,0 -0.15041222157344114,0.5236046755268113 l -10.207978011544334 -3.027723361047712" fill="#ff740a" stroke="none" /><path d="M 119.9155931802556 106.66101706037122 l 11.026616521845328 3.6879886079918545 a32.62701732571643,32.62701732571643 0 0,0 -0.1827255426894439,0.5310859589861053 l -10.961500148212654 -3.87724727006726" fill="#ff820b" stroke="none" /><path d="M 119.79798401119884 107.00284435728193 l 13.66724862758104 4.834311153958218 a35.49704278056048,35.49704278056048 0 0,0 -0.20871540902184696,0.574295165926811 l -13.582008957553965 -5.06885411689116" fill="#ffa90f" stroke="none" /><path d="M 119.54520255179757 107.68017299344265 l 13.33495970460839 5.239894399690437 a35.32751351922017,35.32751351922017 0 0,0 -0.22726927243967954,0.5640636959779083 l -13.242787817911319 -5.468657463511159" fill="#ffa60f" stroke="none" /><path d="M 119.41010516605496 108.01547362559984 l 14.33090489363745 5.917999373172759 a36.50475900010558,36.50475900010558 0 0,0 -0.2448409279512429,0.5787316288358352 l -14.226912984493898 -6.163805527674757" fill="#ffb610" stroke="none" /><path d="M 119.12269723197855 108.67885076344098 l 10.30026727722706 4.674784181235452 a32.31145937195744,32.31145937195744 0 0,0 -0.23422020396954493,0.5044894821428668 l -10.218272456417685 -4.85139373065715" fill="#ff7d0b" stroke="none" /><path d="M 118.81262510543309 109.33194174019688 l 25.303531359772094 12.551734760421242 a49.24561461131509,49.24561461131509 0 0,0 -0.3832278022368503,0.7561448106443243 l -25.083724887748975 -12.985433782768261" fill="#aaff21" stroke="none" /><line stroke="#e1ed5e" stroke-width="0.3" x1="174.80103733775053" x2="179.2010983576182" y1="140.37084112569926" y2="142.7455964860345" /><path d="M 175.68104954172406 140.8457921977663 a86.0,86.0 0 0,1 -30.038265399797805,32.042727171017184" fill="none" id="id77" stroke="none" /><text fill="#e1ed5e" style="font-size:6.75px; font-family:Arial;" text-anchor="middle"><textPath startOffset="22.206326154141568" xlink:href="#id77">May</textPath></text><path d="M 118.48025628344425 109.97397251340804 l 7.576972277932371 4.0893649999137045 a29.610076364532134,29.610076364532134 0 0,0 -0.24593789694841367,0.44644872045253403 l -7.505457971532448 -4.219184238764044" fill="#ff5708" stroke="none" /><path d="M 118.30583269289576 110.29060199501025 l 12.8355777278118 7.215504696718322 a35.72465835376368,35.72465835376368 0 0,0 -0.3059527853839341,0.5334544701539164 l -12.709472946275488 -7.435379012730555" fill="#ffac0f" stroke="none" /><path d="M 118.12598468904814 110.60418214915192 l 8.258146659020966 4.831234986068358 a30.56753979518821,30.56753979518821 0 0,0 -0.26960442632973103,0.4518725261462578 l -8.173761356993007 -4.9726696061007205" fill="#ff6509" stroke="none" /><path d="M 117.75023020441432 111.22182372390056 l 7.060530987338366 4.4637186799608 a29.353195931917092,29.353195931917092 0 0,0 -0.27367680989571036,0.4247524865230039 l -6.982649314065605 -4.584592766405257" fill="#ff5407" stroke="none" /><path d="M 116.93607887273984 112.41649034213515 l 11.941059061580495 8.754449340196874 a35.80639303686847,35.80639303686847 0 0,0 -0.3687013845004816,0.49393575685753055 l -11.78859641038492 -8.95869797656372" fill="#ffad10" stroke="none" /><path d="M 116.71984013943494 112.70617746262583 l 9.491410524132347 7.212960499892424 a32.92114394303746,32.92114394303746 0 0,0 -0.34675869569440776,0.44823235772760056 l -9.365845011219871 -7.375270851733277" fill="#ff860c" stroke="none" /><path d="M 116.498646956653 112.99209946851258 l 8.82321217872842 6.947966736848463 a32.23046370045397,32.23046370045397 0 0,0 -0.3469871680399463,0.432919843845934 l -8.702307098633622 -7.098814414272647" fill="#ff7c0b" stroke="none" /><path d="M 116.0416608686014 113.55231037782055 l 12.90103376567987 10.899046876714088 a37.888632124717006,37.888632124717006 0 0,0 -0.4251780934431801,0.4945781784204355 l -12.711513162665911 -11.11950215429605" fill="#ffc812" stroke="none" /><path d="M 115.56566222782051 114.09645910891815 l 10.59554731924359 9.595460657971493 a35.294701404122044,35.294701404122044 0 0,0 -0.4116935184599109,0.44681200383082914 l -10.428807392787956 -9.776423916603658" fill="#ffa60f" stroke="none" /><path d="M 115.32070863581623 114.36230785411682 l 8.574988887935445 8.03857270454503 a32.75368391418081,32.75368391418081 0 0,0 -0.3891347407043956,0.40800621988836727 l -8.435347595852086 -8.184986041015904" fill="#ff830c" stroke="none" /><path d="M 114.81725581225074 114.88116024355365 l 7.924343981628064 7.958520397424025 a32.23090710741475,32.23090710741475 0 0,0 -0.396516970770093,0.3880753116581887 l -7.786177058482176 -8.093745812004785" fill="#ff7c0b" stroke="none" /><path d="M 114.0293411484842 115.62618273729858 l 20.949664325332485 23.334187939971805 a52.358774882989835,52.358774882989835 0 0,0 -0.675821253546518,0.5963336798650241 l -20.54490071887938 -23.691344761609116" fill="#87ff25" stroke="none" /><path d="M 113.20401910651253 116.32954008644616 l 10.160507339346347 12.565599198099674 a37.15952327886544,37.15952327886544 0 0,0 -0.5008440303941921,0.397900788435899 l -9.942705816234804 -12.738633900540698" fill="#ffbf11" stroke="none" /><path d="M 112.92097659922987 116.55440617244103 l 9.497552110362147 12.168301217125535 a36.43603092118383,36.43603092118383 0 0,0 -0.49773573900049445,0.38164254012484955 l -9.28668764286816 -12.329983099077756" fill="#ffb510" stroke="none" /><path d="M 112.63410532772338 116.77436683061366 l 5.3255045906275935 7.070699922477347 a29.851880960480475,29.851880960480475 0 0,0 -0.41311453659007286,0.30561225799561953 l -5.203005083618956 -7.161322129212736" fill="#ff5b08" stroke="none" /><line stroke="#e1ed5e" stroke-width="0.3" x1="143.8653032363475" x2="146.44561519142675" y1="172.8068346515853" y2="177.08958963109032" /><path d="M 144.38136562736335 173.6633856474863 a86.0,86.0 0 0,1 -40.68145358897372,12.25698825130547" fill="none" id="id78" stroke="none" /><text fill="#e1ed5e" style="font-size:6.75px; font-family:Arial;" text-anchor="middle"><textPath startOffset="21.466115282336833" xlink:href="#id78">June</textPath></text><path d="M 110.21172684928248 118.3499491758327 l 2.2797872748717793 4.096660755134345 a25.68828959870497,25.68828959870497 0 0,0 -0.38823224384480104,0.21169517406467375 l -2.2089322191583296 -4.13529658095879" fill="#ff1f03" stroke="none" /><path d="M 109.89434966115114 118.52300852407294 l 1.400499238949974 2.621845824075102 a23.972452462785487,23.972452462785487 0 0,0 -0.36564736250387175,0.19128941850043424 l -1.3551609739196064 -2.645564661520253" fill="#ff0500" stroke="none" /><path d="M 109.57404056367764 118.69057910512821 l 2.744013981400935 5.35690339348753 a27.018806085701883,27.018806085701883 0 0,0 -0.41576293360341965,0.20847216600567448 l -2.6513971401147547 -5.403343400402506" fill="#ff3204" stroke="none" /><path d="M 109.2508944713604 118.85261126421891 l 3.5538826702736532 7.242539482937235 a29.06749404685099,29.06749404685099 0 0,0 -0.4510822896593994,0.21654691126211115 l -3.428687712614021 -7.302640670698906" fill="#ff5007" stroke="none" /><path d="M 108.92500713936063 119.00905698771935 l 3.7954077328811504 8.083704669298111 a29.930363992539505,29.930363992539505 0 0,0 -0.46824202237522217,0.21494694665154349 l -3.655697714738509 -8.147838686283729" fill="#ff5c08" stroke="none" /><path d="M 108.2653958097858 119.30500536409082 l 3.2016980083040107 7.478020248144607 a29.134596300249854,29.134596300249854 0 0,0 -0.46272473248347634,0.19341897570618008 l -3.072501816323073 -7.532024266870761" fill="#ff5107" stroke="none" /><path d="M 107.93186726928326 119.44442032107085 l 5.759189361290353 14.118251711452082 a36.24773076517026,36.24773076517026 0 0,0 -0.5797547050156917,0.23069636189924875 l -5.515313580232795 -14.215294917757399" fill="#ffb310" stroke="none" /><path d="M 107.2578585660854 119.70592522655815 l 5.2396649347141535 14.226296155476888 a36.16052739621579,36.16052739621579 0 0,0 -0.5859390547735629,0.21009689832877032 l -4.994006319310856 -14.314380594845618" fill="#ffb110" stroke="none" /><path d="M 106.91757812671514 119.82793768551818 l 4.9911337663696385 14.306146961676108 a36.15180705932034,36.15180705932034 0 0,0 -0.5893265602580464,0.19993156619546734 l -4.744137473174365 -14.389941514769697" fill="#ffb110" stroke="none" /><path d="M 106.2309692047433 120.05430185196036 l 7.922070429347758 25.497091457567887 a47.69945453905618,47.69945453905618 0 0,0 -0.7861892819770072,0.2368723814506522 l -7.482006172930505 -25.629679208124266" fill="#bcff1f" stroke="none" /><path d="M 105.53697534728816 120.25689768951611 l 2.771339005832678 10.138880378366306 a31.510814203099155,31.510814203099155 0 0,0 -0.5244443199416363,0.13851051149683546 l -2.596404243079544 -10.185082239166725" fill="#ff720a" stroke="none" /><path d="M 104.83641907484287 120.43548508189849 l 3.9396201577450563 16.646210288251623 a38.10604933782214,38.10604933782214 0 0,0 -0.6396006941820845,0.14557103563476229 l -3.6524993141701096 -16.711558057464067" fill="#ffcb12" stroke="none" /><path d="M 104.48393922423573 120.51570834832081 l 2.702576823704566 12.365305400298901 a33.65719949794133,33.65719949794133 0 0,0 -0.5670573603212615,0.1188323832507624 l -2.4893280019539263 -12.409993764276203" fill="#ff900d" stroke="none" /><path d="M 104.13013068566511 120.58985236759428 l 2.0382107000911223 10.161048306433674 a31.363455289798118,31.363455289798118 0 0,0 -0.5302401117528915,0.10162177939954388 l -1.8630029737665263 -10.194627284181687" fill="#ff700a" stroke="none" /><path d="M 103.41894727170886 120.7198165907248 l 2.3643350480246386 14.328559249645144 a35.52231697732525,35.52231697732525 0 0,0 -0.6041570317062325,0.0943569032356116 l -2.117342152709889 -14.367134460227863" fill="#ffa90f" stroke="none" /><path d="M 102.70371172650421 120.8252237178851 l 1.8189897844536174 14.010690870055374 a35.12827599150723,35.12827599150723 0 0,0 -0.6003130918492633,0.07268955523813789 l -1.5775492695529738 -14.039925954018862" fill="#ffa40f" stroke="none" /><path d="M 102.34483914955558 120.86867818915974 l 2.0785283113522404 18.498556050161692 a39.61496322537508,39.61496322537508 0 0,0 -0.6782975934529837,0.070308318952935 l -1.759798121293654 -18.531593737570386" fill="#ffde14" stroke="none" /><path d="M 101.62511606390274 120.93702456842531 l 1.099948643507847 14.171081244390603 a35.213705732618564,35.213705732618564 0 0,0 -0.6047320770549863,0.04170586463269539 l -0.8558538056739302 -14.187915453539583" fill="#ffa50f" stroke="none" /><path d="M 101.26447882468166 120.96189622390904 l 1.123404347543546 18.62323424563833 a39.657086886649694,39.657086886649694 0 0,0 -0.6817467399068512,0.03523851926443012 l -0.8026695392232154 -18.63981257166496" fill="#ffdf14" stroke="none" /><line stroke="#e1ed5e" stroke-width="0.3" x1="102.19456741930631" x2="102.32365962044197" y1="184.97166512339345" y2="189.96999836594603" /><path d="M 102.22038585953345 185.97133177190398 a86.0,86.0 0 0,1 -42.740103519485714,-10.115201625700543" fill="none" id="id79" stroke="none" /><text fill="#e1ed5e" style="font-size:6.75px; font-family:Arial;" text-anchor="middle"><textPath startOffset="22.20632615414155" xlink:href="#id79">July</textPath></text><path d="M 100.54218724476979 120.99299961872073 l 0.2893692038913783 11.204113791980618 a32.2078499454539,32.2078499454539 0 0,0 -0.5543435843892989,0.009543527527381105 l -0.09646592960941151 -11.207434796787158" fill="#ff7c0b" stroke="none" /><path d="M 100.18074693466247 120.99922214144158 l 0.15838451317632285 18.401150659427557 a39.401832279557524,39.401832279557524 0 0,0 -0.6782628956775439,0.0 l 0.1583845131763102 -18.401150659427557" fill="#ffdc14" stroke="none" /><path d="M 99.45781275523022 120.99299961872073 l -0.3237630405611969 12.535812032876327 a33.5399922579737,33.5399922579737 0 0,0 -0.5770150765617111,-0.019873565926343838 l 0.5394984687975511 -12.52838166852389" fill="#ff8e0d" stroke="none" /><path d="M 99.09653310690486 120.98055641714683 l -0.766240055026033 17.793837080711402 a38.81032739386973,38.81032739386973 0 0,0 -0.6671900599031331,-0.03448610518056278 l 1.072418183342655 -17.77801116876864" fill="#ffd413" stroke="none" /><path d="M 98.37488393609728 120.93702456842531 l -1.431110196592392 18.43756886767968 a39.49302631115907,39.49302631115907 0 0,0 -0.6773160874069877,-0.0584416820189375 l 1.7482706017409213 -18.410202933382077" fill="#ffdd14" stroke="none" /><path d="M 98.01472825383883 120.90594882070398 l -1.70312464334718 17.93479240207008 a39.01547701439313,39.01547701439313 0 0,0 -0.6680330362980712,-0.06924435563458012 l 2.011590276250845 -17.902818677979738" fill="#ffd714" stroke="none" /><path d="M 97.65516085044442 120.86867818915974 l -0.8390689301343471 7.467573835422768 a28.514565566751514,28.514565566751514 0 0,0 -0.48729026788143986,-0.05900406525378894 l 0.9674866210671763 -7.452024241443631" fill="#ff4806" stroke="none" /><path d="M 97.2962882734958 120.8252237178851 l -1.5723512947078924 12.110968471382016 a33.212610118593766,33.212610118593766 0 0,0 -0.56630886169178,-0.07848524801237726 l 1.7805887475865032 -12.082108657877033" fill="#ff8a0c" stroke="none" /><path d="M 96.93821686468263 120.77559828337769 l -2.486204252632886 16.870032435452746 a38.052249293246845,38.052249293246845 0 0,0 -0.647185655075044,-0.10107708927748606 l 2.7762257713164473 -16.824737038828154" fill="#ffca12" stroke="none" /><path d="M 96.22490169976321 120.6578951692458 l -3.3655850034090338 18.41697795769942 a39.72197210524463,39.72197210524463 0 0,0 -0.6715517385924566,-0.12870448900784964 l 3.6821043565731855 -18.3563162703431" fill="#ffe015" stroke="none" /><path d="M 95.86986931433489 120.58985236759428 l -1.2766686500749016 6.364548976286215 a27.491330103578925,27.491330103578925 0 0,0 -0.4631746346337888,-0.09706274805013211 l 1.386034746138077 -6.341630247509541" fill="#ff3905" stroke="none" /><path d="M 95.51606077576429 120.51570834832081 l -2.013961915333855 9.214633208294112 a30.432152869828386,30.432152869828386 0 0,0 -0.5107962236766989,-0.11625555749908607 l 2.1722782884034166 -9.17860091721734" fill="#ff6309" stroke="none" /><path d="M 95.16358092515715 120.4354850818985 l -3.4442742624704032 14.55320852462892 a35.95522997337212,35.95522997337212 0 0,0 -0.6010459704026069,-0.14772247614915338 l 3.6942735176162205 -14.491764790165735" fill="#ffaf10" stroke="none" /><path d="M 94.81253420990036 120.34920634021253 l -3.114122444374189 12.215968789654454 a33.60665110441178,33.60665110441178 0 0,0 -0.5593259879091304,-0.1477230770415976 l 3.3239388750948087 -12.160554363309275" fill="#ff8f0d" stroke="none" /><path d="M 94.46302465271185 120.25689768951611 l -4.7234428599284985 17.280607688222666 a38.914528029654306,38.914528029654306 0 0,0 -0.6446262575921954,-0.18217781939320227 l 5.020200285625308 -17.19674107549094" fill="#ffd513" stroke="none" /><path d="M 93.76903079525671 120.05430185196036 l -5.309725133181346 17.08928853166208 a38.89516592570001,38.89516592570001 0 0,0 -0.6376559717792709,-0.20415730565182338 l 5.603102450051557 -16.995358379350552" fill="#ffd513" stroke="none" /><path d="M 93.42475214034765 119.94407469862007 l -3.9724527046043803 12.049263414619626 a33.68720336895447,33.68720336895447 0 0,0 -0.5491499678996272,-0.1863014847155171 l 4.179272405441234 -11.979098943005985" fill="#ff900d" stroke="none" /><path d="M 93.08242187328487 119.8279376855182 l -7.801220852948597 22.360733498022963 a44.68251357787189,44.68251357787189 0 0,0 -0.7240278739260214,-0.259610635911982 l 8.184968287504345 -22.223135321071023" fill="#e0ff1b" stroke="none" /><path d="M 92.40401165467489 119.57807347666478 l -4.483601421112442 11.556136485733502 a33.39544158875764,33.39544158875764 0 0,0 -0.5341345231399475,-0.21254315003763524 l 4.681857020294248 -11.477246491289801" fill="#ff8c0c" stroke="none" /><path d="M 92.06813273071674 119.44442032107085 l -6.795712813216701 16.659216781550196 a38.9919764454715,38.9919764454715 0 0,0 -0.6192827140555923,-0.2588602247005537 l 7.0814669867697555 -16.539771513829667" fill="#ffd614" stroke="none" /><path d="M 91.40352486487194 119.15986991738527 l -7.557887749859746 16.84506077913007 a39.462874637825664,39.462874637825664 0 0,0 -0.617372252263997,-0.283405320817602 l 7.846727997891162 -16.712468387978394" fill="#ffdd14" stroke="none" /><path d="M 91.07499286063937 119.00905698771935 l -4.416909596622666 9.407419503511965 a31.39272014920996,31.39272014920996 0 0,0 -0.48716618160195607,-0.23386937220904372 l 4.578188446224865 -9.329995854803359" fill="#ff700a" stroke="none" /><path d="M 90.7491055286396 118.85261126421891 l -11.773526331181927 23.993540929256515 a47.72650236366408,47.72650236366408 0 0,0 -0.7344110827994068,-0.36824896303960897 l 12.184791321664095 -23.787324125307602" fill="#bcff1f" stroke="none" /><path d="M 90.10565033884886 118.52300852407294 l -7.003888964118821 13.111836495268932 a35.865218360332676,35.865218360332676 0 0,0 -0.5420381978533139,-0.29556244352061206 l 7.228549973840775 -12.989333399988555" fill="#ffad10" stroke="none" /><line stroke="#e1ed5e" stroke-width="0.3" x1="58.666819895761336" x2="56.23545636021788" y1="174.27360380694188" y2="178.64263932499728" /><path d="M 58.180547188652646 175.14741091055294 a86.0,86.0 0 0,1 -31.652253787137756,-30.449443065178592" fill="none" id="id80" stroke="none" /><text fill="#e1ed5e" style="font-size:6.75px; font-family:Arial;" text-anchor="middle"><textPath startOffset="22.20632615414155" xlink:href="#id80">August</textPath></text><path d="M 89.7882731507175 118.34994917583269 l -9.049073670956226 16.260721071096775 a39.6090511325646,39.6090511325646 0 0,0 -0.5929120983144112,-0.33667096347815634 l 9.327634536191844 -16.102546941823988" fill="#ffde14" stroke="none" /><path d="M 89.4739219176387 118.17145234162733 l -1.3173741894488973 2.27421857527115 a23.628220858895705,23.628220858895705 0 0,0 -0.3501838800821762,-0.2068948088424929 l 1.3563259405594554 -2.251205194134908" fill="#ff0000" stroke="none" /><path d="M 89.1626897886671 117.98757091392108 l -9.39626792776846 15.595755070311839 a39.207620030733494,39.207620030733494 0 0,0 -0.5750839281245985,-0.35326351895359415 l 9.663331055825367 -15.431703084529866" fill="#ffd914" stroke="none" /><path d="M 88.8546689885994 117.79835938074946 l -7.332785587735104 11.709975506244614 a34.81641309575479,34.81641309575479 0 0,0 -0.5051997456061093,-0.3224423803444883 l 7.533267135388136 -11.582018697076322" fill="#ff9f0e" stroke="none" /><path d="M 88.54995079064634 117.60387380957326 l -16.853649366085026 25.91163681890434 a51.91049044563572,51.91049044563572 0 0,0 -0.7448544843851199,-0.49364893657684106 l 17.29717854921011 -25.617689861236183" fill="#8cff24" stroke="none" /><path d="M 87.95078237400918 117.19931262002967 l -6.821195114515918 9.73672074473226 a32.88833182793933,32.88833182793933 0 0,0 -0.4608636804571528,-0.32881399931653615 l 6.987786122821958 -9.617862483571505" fill="#ff850c" stroke="none" /><path d="M 87.65650970185807 116.9893568818739 l -8.542258822123912 11.757410602756739 a35.5329587443841,35.5329587443841 0 0,0 -0.49173389793405337,-0.3637729819944235 l 8.74337769047653 -11.60862767202255" fill="#ffa90f" stroke="none" /><path d="M 87.36589467227662 116.77436683061367 l -11.86532026306534 15.753646933639795 a40.72215040645638,40.72215040645638 0 0,0 -0.5562864316942675,-0.42653671455281467 l 12.134735423253094 -15.547070877259614" fill="#ffed16" stroke="none" /><path d="M 86.79598089348748 116.32954008644616 l -11.220868338339704 13.876958057814283 a38.845947753052826,38.845947753052826 0 0,0 -0.5163364001366367,-0.4249097053092937 l 11.458074867021029 -13.68175323364781" fill="#ffd513" stroke="none" /><path d="M 86.51685102203217 116.09983520530335 l -16.670017586592753 19.90518212416151 a46.96354678647258,46.96354678647258 0 0,0 -0.6152996696832018,-0.5243717271452907 l 17.01018273285301 -19.615286006793266" fill="#c5ff1e" stroke="none" /><path d="M 85.97065885151581 115.62618273729859 l -8.178749268582239 9.109667323701919 a33.24246618728665,33.24246618728665 0 0,0 -0.4224966286771266,-0.3859406529981739 l 8.33434544672622 -8.967533904117168" fill="#ff8a0c" stroke="none" /><path d="M 85.70375840098266 115.38237550388516 l -13.626750394292388 14.662020784338766 a41.016572628417926,41.016572628417926 0 0,0 -0.5130278012186595,-0.48509980763304433 l 13.877114029901865 -14.425286339959792" fill="#fff016" stroke="none" /><path d="M 85.18274418774928 114.88116024355367 l -12.870567110949738 12.92607578827793 a39.241023355112674,39.241023355112674 0 0,0 -0.4745536077831255,-0.4807202992394994 l 13.091161343788396 -12.702614995057766" fill="#ffda14" stroke="none" /><path d="M 84.9287848128048 114.62390073753433 l -10.72856816945627 10.410143708869523 a35.94902227592112,35.94902227592112 0 0,0 -0.42709740677020186,-0.4478099234856257 l 10.90617212760543 -10.223926668801397" fill="#ffaf10" stroke="none" /><path d="M 84.67929136418377 114.36230785411682 l -19.877976516812236 18.634491722135152 a48.24661872866544,48.24661872866544 0 0,0 -0.562770598078435,-0.6107763356711274 l 20.1957935228864 -18.289564131662683" fill="#b6ff1f" stroke="none" /><path d="M 84.19399662182784 113.82643327865904 l -9.233298744043296 8.076905082959948 a33.2674447794109,33.2674447794109 0 0,0 -0.3733201214146986,-0.43425564125789146 l 9.370961375028774 -7.9167723425405265" fill="#ff8a0c" stroke="none" /><path d="M 83.95833913139862 113.55231037782056 l -13.801898846118835 11.660115401890673 a39.06794683808607,39.06794683808607 0 0,0 -0.4295688190886067,-0.5174433152710319 l 14.000563665100978 -11.42081082950588" fill="#ffd714" stroke="none" /><path d="M 83.50135304334701 112.99209946851258 l -14.57920765781438 11.480609080252147 a39.556876913512184,39.556876913512184 0 0,0 -0.41665292882918425,-0.5385800758917414 l 14.774667403861631 -11.227951010247153" fill="#ffde14" stroke="none" /><path d="M 83.28015986056508 112.70617746262583 l -10.899423900957919 8.282974787499219 a34.68959870497015,34.68959870497015 0 0,0 -0.35720166108659823,-0.4785299980866877 l 11.040386828739601 -8.094131909903222" fill="#ff9e0e" stroke="none" /><path d="M 83.06392112726016 112.41649034213515 l -12.160386339032485 8.915246596912114 a36.07834930615022,36.07834930615022 0 0,0 -0.3628798300566861,-0.5040083455818914 l 12.31204596146478 -8.704604645879085" fill="#ffb010" stroke="none" /><path d="M 82.85270091963577 112.12312394758628 l -9.769187335862545 6.906806044776599 a32.96415441823365,32.96415441823365 0 0,0 -0.3235809946639058,-0.466142556624337 l 9.886629237688586 -6.737622225965249" fill="#ff860c" stroke="none" /><path d="M 82.6465618267979 111.8261652097733 l -8.933227285430972 6.087889943164345 a31.81040950626987,31.81040950626987 0 0,0 -0.304466358398725,-0.4551358952681112 l 9.036696749240427 -5.933217133690413" fill="#ff760a" stroke="none" /><path d="M 82.44556493220864 111.52570212397912 l -14.858083396045378 9.75536055103624 a38.7744114300461,38.7744114300461 0 0,0 -0.3615162468295485,-0.5610812433023771 l 15.023804506251974 -9.498157707812414" fill="#ffd413" stroke="none" /><path d="M 82.05923443525364 110.91462005526583 l -16.216074812289335 9.865370277826628 a39.98121737498387,39.98121737498387 0 0,0 -0.3526326700339595,-0.5910326383702013 l 16.383488358021527 -9.584775545570315" fill="#ffe315" stroke="none" /><line stroke="#e1ed5e" stroke-width="0.3" x1="26.63291911575756" x2="22.317208475507996" y1="142.92168965132927" y2="145.44649492493687" /><path d="M 25.769776987707644 143.4266507060508 a86.0,86.0 0 0,1 -11.730757126820373,-40.83630448921669" fill="none" id="id81" stroke="none" /><text fill="#e1ed5e" style="font-size:6.75px; font-family:Arial;" text-anchor="middle"><textPath startOffset="21.46611528233685" xlink:href="#id81">September</textPath></text><path d="M 81.87401531095188 110.60418214915194 l -10.559461427328436 6.177565207808575 a33.23374585039121,33.23374585039121 0 0,0 -0.28462013578914647,-0.4962591974510251 l 10.664233559269961 -5.994886164499244" fill="#ff8a0c" stroke="none" /><path d="M 81.69416730710424 110.29060199501025 l -24.762831929354096 13.920396407490854 a49.407310349681524,49.407310349681524 0 0,0 -0.4103714509778428,-0.7449433839703599 l 24.998779789783455 -13.492082505122672" fill="#a9ff21" stroke="none" /><path d="M 81.35079622478065 109.6543875284942 l -10.598997324418791 5.486927421501059 a32.935037361142065,32.935037361142065 0 0,0 -0.2562994102950876,-0.5057030516435702 l 10.691875404500147 -5.303670158154803" fill="#ff860c" stroke="none" /><path d="M 81.18737489456691 109.33194174019688 l -15.95174847501121 7.912813155463777 a38.806484533542914,38.806484533542914 0 0,0 -0.29168939075481076,-0.6009665404985962 l 16.085591122380738 -7.637057658999896" fill="#ffd413" stroke="none" /><path d="M 80.87730276802145 108.67885076344099 l -17.172540570957587 7.7937706713906065 a39.858393646846295,39.858393646846295 0 0,0 -0.2781715684397828,-0.6272034516823486 l 17.30415322412865 -7.497018883215563" fill="#ffe215" stroke="none" /><path d="M 80.73074385275274 108.34839909993369 l -12.119498436953796 5.250768844918117 a34.20805874555713,34.20805874555713 0 0,0 -0.22943673855369798,-0.5423206754240244 l 12.2080861566998 -5.041373643827933" fill="#ff970d" stroke="none" /><path d="M 80.32549172779594 107.34259656027581 l -8.290946579713163 3.0942107927362468 a29.849516123356285,29.849516123356285 0 0,0 -0.17550909818894697,-0.48292566005770116 l 8.342979938907334 -2.9510373356724284" fill="#ff5b08" stroke="none" /><path d="M 79.86692584326677 105.97154293290107 l -7.281149684826191 2.159615446967276 a28.594674424333423,28.594674424333423 0 0,0 -0.1359028120663371,-0.47309551757688423 l 7.317245133778632 -2.033962453885796" fill="#ff4906" stroke="none" /><path d="M 79.76711848015287 105.62410040840567 l -8.866022147537322 2.46447342322376 a30.202172459500993,30.202172459500993 0 0,0 -0.13492018557539315,-0.5020882020670395 l 8.90713040945449 -2.3114942879811817" fill="#ff6008" stroke="none" /><path d="M 79.58551787078972 104.9243191809786 l -10.49304716697834 2.531100867718336 a31.794003448720808,31.794003448720808 0 0,0 -0.12375351660478173,-0.533126910602958 l 10.535061249513678 -2.350105299766804" fill="#ff760a" stroke="none" /><path d="M 79.50377843672027 104.57218783832718 l -10.381139431723302 2.3157692412312545 a31.636298373001445,31.636298373001445 0 0,0 -0.11399004417112216,-0.5325235371277577 l 10.419463514618865 -2.136731884687333" fill="#ff740a" stroke="none" /><path d="M 79.4281124754447 104.21870165774334 l -14.683504765060414 3.0111639401052823 a35.989076704712076,35.989076704712076 0 0,0 -0.11922678469003335,-0.6079348064997644 l 14.733161482726114 -2.757965406537563" fill="#ffaf10" stroke="none" /><path d="M 79.35854240842038 103.8639653848113 l -9.781768568067529 1.8310923529289216 a30.951678025548688,30.951678025548688 0 0,0 -0.09352352791871521,-0.5245296115540764 l 9.811838538325432 -1.6624439906416313" fill="#ff6a09" stroke="none" /><path d="M 79.23777060512086 103.15116336523772 l -35.447203806234505 5.379958380667508 a56.853147837511294,56.853147837511294 0 0,0 -0.13852120294285034,-0.9688169707533864 l 35.534559060193956 -4.768995937933722" fill="#57ff2a" stroke="none" /><path d="M 79.1416061653843 102.43462659150553 l -12.455286394325785 1.453801845956051 a33.53984445565344,33.53984445565344 0 0,0 -0.06199712237053199,-0.5740163552749592 l 12.47846581819737 -1.23918916879631" fill="#ff8e0d" stroke="none" /><path d="M 79.10278846688536 102.07522291339032 l -18.75402720914579 1.8623913971054136 a39.84627385658483,39.84627385658483 0 0,0 -0.06190479863929992,-0.6831142945410114 l 18.78330660406216 -1.539295714015836" fill="#ffe115" stroke="none" /><path d="M 79.0235259727143 100.99374915477108 l -9.953226075361728 0.47152872245212357 a30.9643890250912,30.9643890250912 0 0,0 -0.02063978113890289,-0.5326210403891918 l 9.959867989351832 -0.30013043504893494" fill="#ff6a09" stroke="none" /><path d="M 79.0095281055655 100.63252640178507 l -33.41461325724385 1.0069151945196773 a54.42978099449847,54.42978099449847 0 0,0 -0.020159591649713413,-0.9367370083678399 l 33.426994911578575 -0.43158837036170855" fill="#71ff27" stroke="none" /><line stroke="#e1ed5e" stroke-width="0.3" x1="15.007084014347285" x2="10.007500721073583" y1="101.09737516637583" y2="101.16192664675087" /><path d="M 14.007167355692545 101.11028546245083 a86.0,86.0 0 0,1 10.666146001902534,-42.60595125391555" fill="none" id="id82" stroke="none" /><text fill="#e1ed5e" style="font-size:6.75px; font-family:Arial;" text-anchor="middle"><textPath startOffset="22.20632615414155" xlink:href="#id82">October</textPath></text><path d="M 79.00486145842228 99.54816195383935 l -7.809544313169996 -0.16806982420619776 a28.81135262583725,28.81135262583725 0 0,0 0.01493841954934614,-0.4957334188942988 l 7.805494199165005 0.30247339052549094" fill="#ff4c07" stroke="none" /><path d="M 79.03285615573316 98.82574320788736 l -5.986958386105921 -0.33529729185803936 a26.996340133022088,26.996340133022088 0 0,0 0.0299780331879008,-0.46374690482525527 l 5.980299761913607 0.43830326093630634" fill="#ff3204" stroke="none" /><path d="M 79.05617556472873 98.46500227214037 l -15.443383415242867 -1.1318638831282728 a36.48480568687023,36.48480568687023 0 0,0 0.051296796221437714,-0.6259508439218022 l 15.421612135201933 1.3975286442578534" fill="#ffb610" stroke="none" /><path d="M 79.08570108090925 98.10471618934814 l -27.38051173813234 -2.4812613047849346 a48.492709591901374,48.492709591901374 0 0,0 0.08249042714665128,-0.8306673439357574 l 27.33374418530346 2.9522041794251224" fill="#b3ff20" stroke="none" /><path d="M 79.16333360222342 97.38593545837743 l -11.403864085848548 -1.4306720746597295 a32.493256225879485,32.493256225879485 0 0,0 0.07440027442758261,-0.5543684624917109 l 11.377547812363133 1.6267588792160999" fill="#ff800b" stroke="none" /><path d="M 79.21141760316559 97.0276538004421 l -23.08927753086735 -3.3012990019878314 a44.32409295123696,44.32409295123696 0 0,0 0.11449146767872244,-0.754355722056548 l 23.029030169749326 3.6982538364364714" fill="#e5ff1a" stroke="none" /><path d="M 79.32604984820605 96.31383870115002 l -11.694729943576927 -2.0851680787657627 a32.8791680840831,32.8791680840831 0 0,0 0.10413971731232236,-0.5563185340508394 l 11.657104502354743 2.2861646902791746" fill="#ff850c" stroke="none" /><path d="M 79.3925641242962 95.95851677861259 l -8.967929483963273 -1.7587698323377752 a30.13876526410867,30.13876526410867 0 0,0 0.1042237311301084,-0.5082319272951296 l 8.93632645691817 1.912877415796307" fill="#ff5f08" stroke="none" /><path d="M 79.46518482838121 95.60439243477599 l -33.27705231032299 -7.123164326590812 a55.030893031003295,55.030893031003295 0 0,0 0.2062495318966863,-0.9245762100237608 l 33.14950839142426 7.694918706164532" fill="#6aff28" stroke="none" /><path d="M 79.62865764111835 94.90015583598534 l -13.295413977447915 -3.3284276601185616 a34.70570915787869,34.70570915787869 0 0,0 0.1500669379322691,-0.5782691280096802 l 13.236150707645338 3.556793213677105" fill="#ff9e0e" stroke="none" /><path d="M 79.71946130924805 94.55025226153421 l -18.357183587384274 -4.932907417571136 a40.00841300191205,40.00841300191205 0 0,0 0.18444493653475744,-0.6635465722244085 l 18.269551880283156 5.2481652932144875" fill="#ffe415" stroke="none" /><path d="M 79.91906864156998 93.8553929516997 l -12.340271625698369 -3.7760260545572004 a33.9050639890204,33.9050639890204 0 0,0 0.17557094196638648,-0.5566078651198357 l 12.27344519996378 3.9878840861034504" fill="#ff930d" stroke="none" /><path d="M 80.2630227832202 92.82701384747504 l -25.095311047149103 -9.1203590426942 a47.70122816689932,47.70122816689932 0 0,0 0.28710554110157105,-0.7693001102577657 l 24.934600917545904 9.550982289981308" fill="#bcff1f" stroke="none" /><path d="M 80.52162464483688 92.15188598940014 l -14.589142970914022 -5.878172859130418 a36.72882731762249,36.72882731762249 0 0,0 0.24132293504445793,-0.5843826287736557 l 14.485798348983364 6.1284300583573845" fill="#ffb911" stroke="none" /><path d="M 80.803312248108 91.48605970444005 l -10.447264017599956 -4.633475485323303 a32.42866661192507,32.42866661192507 0 0,0 0.23070322170426297,-0.5083239681544619 l 10.36595847893234 4.812621462319836" fill="#ff7f0b" stroke="none" /><path d="M 81.10775173730289 90.83032412892265 l -5.230144821627899 -2.538540257689516 a26.813656465178475,26.813656465178475 0 0,0 0.20511168701132904,-0.41349264493004184 l 5.185673121663157 2.62819249111852" fill="#ff2f04" stroke="none" /><path d="M 81.26839172434947 90.50648371742162 l -56.19482482695157 -28.480548847735136 a84.0,84.0 0 0,0 0.6647622673595439,-1.284109110958658 l 55.69625312643191 29.44363068095413" fill="#4dd2ff" stroke="none" /><path d="M 81.6062741919709 89.86733742301443 l -5.4546181880995555 -3.0048183909632487 a27.227502961911576,27.227502961911576 0 0,0 0.22967352839954033,-0.40856357936180154 l 5.402087018407585 3.0982654802598346" fill="#ff3505" stroke="none" /><line stroke="#e1ed5e" stroke-width="0.3" x1="26.266209847984243" x2="21.928928074336255" y1="57.711370442889674" y2="55.22380399835377" /><path d="M 25.398753493254645 57.213857153982495 a86.0,86.0 0 0,1 29.58750427330803,-30.492523968695096" fill="none" id="id83" stroke="none" /><text fill="#e1ed5e" style="font-size:6.75px; font-family:Arial;" text-anchor="middle"><textPath startOffset="21.46611528233685" xlink:href="#id83">November</textPath></text><path d="M 82.15384107792192 88.93136811851018 l -8.845476543557144 -5.486184680102928 a31.40868279979824,31.40868279979824 0 0,0 0.28891860738976727,-0.45699985293697193 l 8.749730339921413 5.6376321807541165" fill="#ff710a" stroke="none" /><path d="M 82.95767976084542 87.72973835380427 l -8.842878919338832 -6.366764414896279 a31.896430456662248,31.896430456662248 0 0,0 0.32464093885464596,-0.4428098757589158 l 8.731975367970552 6.518036734326696" fill="#ff770b" stroke="none" /><path d="M 83.17141714833178 87.43820079747576 l -8.214616220794023 -6.131850816017092 a31.250829921758616,31.250829921758616 0 0,0 0.3254908758025209,-0.42830783894451796 l 8.107849404767393 6.2723434308426365" fill="#ff6e0a" stroke="none" /><path d="M 83.39014120810768 87.1503855733568 l -10.157987895307448 -7.858358667619901 a33.84283921219017,33.84283921219017 0 0,0 0.36041966147241333,-0.45769636888028836 l 10.021214153241065 8.032047430453236" fill="#ff920d" stroke="none" /><path d="M 83.84228863543731 86.58626213691792 l -14.149999779177058 -11.746984676111488 a39.390599303217634,39.390599303217634 0 0,0 0.43759089265819784,-0.5179695936347206 l 13.945698273031738 11.988813219375325" fill="#ffdc14" stroke="none" /><path d="M 84.31358615837235 86.03803664274999 l -10.920190591016201 -9.719704097143358 a35.619275299417005,35.619275299417005 0 0,0 0.41158303181196976,-0.4544802636170065 l 10.751263918588187 9.90623714802992" fill="#ffaa0f" stroke="none" /><path d="M 84.5562425177563 85.77008943001954 l -11.070831165109292 -10.200687079940506 a36.05381412098676,36.05381412098676 0 0,0 0.42446100087194993,-0.45278540104277276 l 10.893602842266887 10.389741897861327" fill="#ffb010" stroke="none" /><path d="M 85.05521093208273 85.24692304244772 l -10.045540488280482 -9.91667605546627 a35.115712794284974,35.115712794284974 0 0,0 0.4283518318810692,-0.426512352985208 l 9.8733528562321 10.088124259101589" fill="#ffa30f" stroke="none" /><path d="M 85.31137513191541 84.99185889309783 l -6.744923358175061 -6.891643188102751 a30.643066780842005,30.643066780842005 0 0,0 0.38014439826251095,-0.3656986099405196 l 6.625295716300123 7.0067248848055845" fill="#ff6609" stroke="none" /><line stroke="#e1ed5e" stroke-width="0.3" x1="56.762969772571076" x2="54.21961505331055" y1="26.818313649435495" y2="22.513508569990535" /><path d="M 56.25429882871897 25.957352633546506 a86.0,86.0 0 0,1 42.265352541879196,-11.944610805530505" fill="none" id="id84" stroke="none" /><text fill="#e1ed5e" style="font-size:6.75px; font-family:Arial;" text-anchor="middle"><textPath startOffset="22.20632615414155" xlink:href="#id84">December</textPath></text></svg>