<?xml version="1.0" encoding="utf-8" ?>
<svg baseProfile="full" height="200mm" version="1.1" viewBox="0,0,200,200" width="200mm" xmlns="http://www.w3.org/2000/svg" xmlns:ev="http://www.w3.org/2001/xml-events" xmlns:xlink="http://www.w3.org/1999/xlink"><defs /><rect fill="#1a1a1a" height="200" width="200" x="0" y="0" /><text alignment-baseline="middle" fill="#e1ed5e" style="dominant-baseline: central; font-size:9.0px; font-family:Arial;" text-anchor="middle" x="100.0" y="100.0">2024</text><line stroke="#e1ed5e" stroke-width="0.3" x1="100.0" x2="100.0" y1="15.0" y2="10.0" /><path d="M 100.0 14.0 a86.0,86.0 0 0,1 42.35913384403234,11.155469271406648" fill="none" id="id85" stroke="none" /><text fill="#e1ed5e" style="font-size:6.75px; font-family:Arial;" text-anchor="middle"><textPath startOffset="22.145653131862478" xlink:href="#id85">January</textPath></text><path d="M 100.0 79.0 l 0.0 -24.654903001696468 a45.65490300169647,45.65490300169647 0 0,0 0.783727119846301,0.006727354734073835 l -0.42323419499744613 24.651270045156828" fill="#ffd113" stroke="none" /><path d="M 100.72087961077811 79.0123766808444 l 0.9046539538565377 -26.338012802486997 a47.35354467923048,47.35354467923048 0 0,0 0.8121679494141026,0.034877986291445506 l -1.3566476638714766 26.318602247769718" fill="#ffeb16" stroke="none" /><path d="M 101.08105385017728 79.02784411241856 l 1.2680184899247318 -24.59921995067703 a45.63187960900625,45.63187960900625 0 0,0 0.7819471238148773,0.047039997222703044 l -1.6901099658720715 24.573827975629634" fill="#ffd113" stroke="none" /><path d="M 101.80034050326958 79.07731436759882 l 5.401021509808744 -62.76805689720356 a84.0,84.0 0 0,0 1.4356017464599482,0.1359529779792652 l -6.477722819653705 62.666092163719114" fill="#4dd2ff" stroke="none" /><path d="M 102.51750503828377 79.15144685158666 l 2.0760097691955877 -17.19233898304549 a38.31722657557327,38.31722657557327 0 0,0 0.6523456335429999,0.08445920267671495 l -2.3708332246293793 17.15416818416838" fill="#ff5c08" stroke="none" /><path d="M 102.87502721639298 79.19773525538626 l 2.574654209849424 -18.628915299910407 a39.80599185237331,39.80599185237331 0 0,0 0.6760856161965105,0.09936130329404001 l -2.8940649316536162 18.581972923317483" fill="#ff740a" stroke="none" /><path d="M 103.58742460773223 79.30868818359171 l 4.887038528648576 -28.187139553293882 a49.60765599935374,49.60765599935374 0 0,0 0.8378148825199269,0.1526777806772791 l -5.370188144719556 28.099093598685236" fill="#f1ff19" stroke="none" /><path d="M 103.94208987418118 79.37332000966035 l 3.2841119414362283 -17.183861411208632 a38.494870226540954,38.494870226540954 0 0,0 0.6480034244815217,0.12961883329065005 l -3.5786118514487066 17.124953181255123" fill="#ff5f08" stroke="none" /><path d="M 104.64783097203109 79.52079915486377 l 7.110536115870889 -31.330334108488525 a53.12708451143091,53.12708451143091 0 0,0 0.8876469390764228,0.20948226068472656 l -7.647315208687196 31.203655704157573" fill="#bfff1e" stroke="none" /><path d="M 104.9986988182912 79.60360301121754 l 4.151612305177814 -16.93999494629846 a38.44131054459845,38.44131054459845 0 0,0 0.6395804964648347,0.1625788611412853 l -4.441798094868043 16.866230853321905" fill="#ff5e08" stroke="none" /><path d="M 105.3480935250658 79.69241777938227 l 6.531079394760742 -24.799572254461303 a46.645151238877794,46.645151238877794 0 0,0 0.7725738646236121,0.21056844228654167 l -6.955834660319048 24.68380331803062" fill="#ffe115" stroke="none" /><path d="M 106.04205211174951 79.88797359093562 l 6.475136388515801 -21.553623113392078 a43.50524517893619,43.50524517893619 0 0,0 0.71340184269443,0.22101371447606413 l -6.844178864081861 21.439292811109368" fill="#ffb010" stroke="none" /><path d="M 106.38641147887787 79.99465700312896 l 4.817797204317193 -15.091681123350751 a36.84203298288537,36.84203298288537 0 0,0 0.6008361235938172,0.1975067679471222 l -5.076156065558752 15.006753434001608" fill="#ff4306" stroke="none" /><path d="M 106.72888874123014 80.10723608172694 l 18.174545923012808 -53.729815616212875 a77.72043023161879,77.72043023161879 0 0,0 1.2601598994306695,0.4383490275274494 l -19.094211594488495 53.409908156116835" fill="#44ffe3" stroke="none" /><path d="M 107.40779381753099 80.34994680014964 l 7.102850994630698 -18.84115613272054 a41.13553219235784,41.13553219235784 0 0,0 0.6586146152457718,0.25476628183044714 l -7.425237872369996 18.71644996275205" fill="#ff8a0c" stroke="none" /><path d="M 107.74402155503746 80.48000691201159 l 7.028165850477216 -17.715569080939588 a40.0587644689617,40.0587644689617 0 0,0 0.6370212230777469,0.2590709857416002 l -7.331241534745403 17.592310838618694" fill="#ff790b" stroke="none" /><path d="M 108.4095320186766 80.7573450057729 l 11.06444838320692 -25.317623200272926 a48.629767688774514,48.629767688774514 0 0,0 0.7620668937438076,0.3408628284720407 l -11.497428679806358 25.123956620891033" fill="#fffe18" stroke="none" /><path d="M 108.73861861582097 80.90454125486305 l 7.85659811503078 -17.168084771553637 a39.880393763488016,39.880393763488016 0 0,0 0.6200666028108229,0.2902224791136776 l -8.15015343171311 17.030686060869428" fill="#ff760a" stroke="none" /><line stroke="#e1ed5e" stroke-width="0.3" x1="143.13028292997686" x2="145.6673583964461" y1="26.7553504044142" y2="22.446841604673864" /><path d="M 143.63769802327073 25.89364864446614 a86.0,86.0 0 0,1 29.32050498858742,28.57503671076993" fill="none" id="id86" stroke="none" /><text fill="#e1ed5e" style="font-size:6.75px; font-family:Arial;" text-anchor="middle"><textPath startOffset="20.669276256404974" xlink:href="#id86">February</textPath></text><path d="M 111.27062007382361 82.28071324371311 l 10.248016583726537 -16.111584219929235 a40.09463249125803,40.09463249125803 0 0,0 0.5775810665705036,0.37438106921452335 l -10.523083282554047 15.933289309010817" fill="#ff790b" stroke="none" /><path d="M 111.8722381534696 82.67804972795209 l 11.44119798969982 -16.69304979131644 a41.23756217470081,41.23756217470081 0 0,0 0.580477419374705,0.40521832087180604 l -11.726070500248285 16.49418665463951" fill="#ff8c0c" stroke="none" /><path d="M 112.16784306229584 82.88440491214696 l 10.936749593932547 -15.383907950541206 a39.875304381945966,39.875304381945966 0 0,0 0.5544926712688739,0.40140993274320147 l -11.199223275575388 15.19389724642493" fill="#ff760a" stroke="none" /><path d="M 112.7482090630111 83.31218511350987 l 20.207259731724253 -26.451951650578824 a54.28722115151585,54.28722115151585 0 0,0 0.7356953939576012,0.5720811881552389 l -20.658365070317082 26.101169410802793" fill="#afff20" stroke="none" /><path d="M 113.03279911837588 83.53348406188908 l 15.620678561553403 -19.736217075214203 a46.16989994345132,46.16989994345132 0 0,0 0.6172458972332716,0.4972096022666257 l -15.957175229141933 19.46515917915417" fill="#ffd914" stroke="none" /><path d="M 113.59037401385872 83.9905735841838 l 9.996534010240087 -11.775891928135591 a36.44675768311964,36.44675768311964 0 0,0 0.47349635200312723,0.40899487146017577 l -10.197209842006075 11.602552924210695" fill="#ff3c05" stroke="none" /><path d="M 114.13192950727249 84.46653392183569 l 19.227030657134584 -21.133874772212053 a49.57130327405339,49.57130327405339 0 0,0 0.6245281449276717,0.5780539272812275 l -19.58698857337622 20.80070309879845" fill="#f2ff19" stroke="none" /><path d="M 115.41159269507618 85.73525988315684 l 10.495235754275777 -9.714233529385671 a35.30091978165284,35.30091978165284 0 0,0 0.4078135381631155,0.4482585168580805 l -10.66044699328077 9.53263743696992" fill="#ff2803" stroke="none" /><path d="M 116.1254893667686 86.54754324733833 l 19.401912787056055 -16.18576569990247 a46.26684054425223,46.26684054425223 0 0,0 0.5035444557222893,0.6142423607979559 l -19.67690406201697 15.850321057406015" fill="#ffdb14" stroke="none" /><path d="M 116.35404254752997 86.82634096563983 l 14.02166025762708 -11.294856962293801 a39.00502013825576,39.00502013825576 0 0,0 0.4155586846871343,0.5250448228710115 l -14.213485372955773 11.052492195508112" fill="#ff6709" stroke="none" /><path d="M 116.7966241395341 87.39550010848427 l 13.3906220996759 -10.04857246316727 a37.741641758317854,37.741641758317854 0 0,0 0.3844219499854732,0.521542205528486 l -13.561146069245199 9.817223948369909" fill="#ff5207" stroke="none" /><path d="M 117.01052211995028 87.68569379921539 l 27.212791390631708 -19.69996237618681 a54.59500755905876,54.59500755905876 0 0,0 0.5430510845109544,0.7638693585151541 l -27.546957573672625 19.229915790962153" fill="#abff21" stroke="none" /><path d="M 117.21940702142032 87.97951657250589 l 13.97408802836986 -9.754998726170335 a38.04215762080068,38.04215762080068 0 0,0 0.36920867413372743,0.5386864894960172 l -14.139486439318912 9.51367750160427" fill="#ff5708" stroke="none" /><path d="M 117.42321728460499 88.27688183743584 l 15.34130257196694 -10.322313030999732 a39.49069254826834,39.49069254826834 0 0,0 0.37361121425887533,0.5656949969926148 l -15.516238225146541 10.05743815566806" fill="#ff6f0a" stroke="none" /><path d="M 117.81537515405839 88.88188828441811 l 11.579963010259897 -7.2267533687634185 a34.6499636472747,34.6499636472747 0 0,0 0.31058253280346804,0.5073132261509725 l -11.702313507518769 7.026903026487892" fill="#ff1d02" stroke="none" /><line stroke="#e1ed5e" stroke-width="0.3" x1="172.87174338648825" x2="177.1583165268699" y1="56.24261187166439" y2="53.66864786411523" /><path d="M 173.72905801456457 55.72781907015455 a86.0,86.0 0 0,1 12.242430191666344,42.057860355516425" fill="none" id="id87" stroke="none" /><text fill="#e1ed5e" style="font-size:6.75px; font-family:Arial;" text-anchor="middle"><textPath startOffset="22.145653131862474" xlink:href="#id87">March</textPath></text><path d="M 118.18653347947321 89.5 l 30.55113469980218 -17.63870584297931 a56.27741168595861,56.27741168595861 0 0,0 0.47585669611344583,0.8407931863244901 l -30.849424760937 17.111655886555702" fill="#94ff23" stroke="none" /><path d="M 118.53625476483649 90.13048839642627 l 21.831669758919723 -11.624134472935337 a45.7334248883452,45.7334248883452 0 0,0 0.3630187098584567,0.6961362419646565 l -22.027996537753125 11.247651987866181" fill="#ffd313" stroke="none" /><path d="M 118.70294669586156 90.45014215332178 l 21.962812178632632 -11.214368389642312 a45.66023473474051,45.66023473474051 0 0,0 0.3504533617770446,0.7011414829542486 l -22.152085453621414 10.835695050524311" fill="#ffd213" stroke="none" /><path d="M 119.0197475246899 91.09779779509293 l 22.58857044657116 -10.572591532780779 a45.940393071055155,45.940393071055155 0 0,0 0.32817965006302985,0.7171317623847647 l -22.766734561489244 10.18327078818133" fill="#ffd614" stroke="none" /><path d="M 119.16976305983485 91.42560881287824 l 10.956172990216627 -4.900556821629502 a33.00221578516116,33.00221578516116 0 0,0 0.22687627513057051,0.5191373169181396 l -11.038683147364168 4.711757434935513" fill="#ff0000" stroke="none" /><path d="M 119.31412917781788 91.75594674310238 l 47.0015555673691 -20.062169186454685 a72.10417652421783,72.10417652421783 0 0,0 0.47614218023277344,1.1425678990841475 l -47.33902359213835 19.25236877792926" fill="#3bff9c" stroke="none" /><path d="M 119.58574465831526 92.42381321644754 l 24.691315284644162 -9.551131181965426 a47.47423572722761,47.47423572722761 0 0,0 0.28748886161255177,0.7625983611587452 l -24.851634830071156 9.125864540612524" fill="#ffed16" stroke="none" /><path d="M 119.71291397450082 92.76114493625339 l 22.904025956132006 -8.410675584908208 a45.39946451858605,45.39946451858605 0 0,0 0.26236529971769695,0.733882438242135 l -23.045031425893647 8.016258190285157" fill="#ffce13" stroke="none" /><path d="M 119.94978838288452 93.4421083053983 l 25.627527027681644 -8.424277161365746 a47.976630390878356,47.976630390878356 0 0,0 0.25047292899778234,0.7846028826366915 l -25.768364672456684 7.983105245037668" fill="#fff517" stroke="none" /><path d="M 120.05942366710727 93.78553927170692 l 12.011208144947666 -3.721102986549332 a33.57440768138856,33.57440768138856 0 0,0 0.16583148182914775,0.5519990692427731 l -12.073315946780442 3.514366313715836" fill="#ff0a01" stroke="none" /><path d="M 120.16314734710363 94.1308016681162 l 54.41334247491733 -15.838930965898136 a77.67171757971633,77.67171757971633 0 0,0 0.3616598889572313,1.283403358904981 l -54.67722085594914 14.902519683090143" fill="#43ffe3" stroke="none" /><path d="M 120.35273937422433 94.82641323984039 l 23.61031450181797 -6.001649618945471 a45.36117298126969,45.36117298126969 0 0,0 0.18535973588786347,0.75633097658744 l -23.709861764222126 5.595462817749937" fill="#ffcd13" stroke="none" /><path d="M 120.43855184770803 95.1765574152323 l 24.109429072504984 -5.689759614539317 a45.771716425661566,45.771716425661566 0 0,0 0.17390884850620691,0.7662744748543676 l -24.203548782568856 5.2750508057459236" fill="#ffd313" stroke="none" /><path d="M 120.592083275326 95.88100663000786 l 25.36753783923958 -5.074218027180073 a46.870053432735915,46.870053432735915 0 0,0 0.15104144270126946,0.7903126522515848 l -25.450905574223007 4.638002809895174" fill="#ffe415" stroke="none" /><path d="M 120.65975698304385 96.23510406497455 l 15.537674615076586 -2.831481902040814 a36.79356268248491,36.79356268248491 0 0,0 0.10790182251960713,0.6223490384995966 l -15.583991255088426 2.564339830620625" fill="#ff4206" stroke="none" /><path d="M 120.77682067341334 96.94652285012252 l 51.10607304188058 -7.510832802876332 a72.65504148826903,72.65504148826903 0 0,0 0.17075831892164803,1.2355221325556536 l -51.227475877357435 6.632422362120593" fill="#3cffa3" stroke="none" /><path d="M 120.86939407059847 97.66154086499901 l 25.93723852748336 -2.906321676906913 a47.09956030513208,47.09956030513208 0 0,0 0.08313657217508269,0.8042709203753676 l -25.98330749214011 2.460646234248614" fill="#ffe715" stroke="none" /><path d="M 120.9064616781168 98.02013634271609 l 26.389609571353844 -2.4991234635808337 a47.50768023450394,47.50768023450394 0 0,0 0.06991858524203146,0.8125599442019565 l -26.428621779293618 2.0457424720032154" fill="#ffee16" stroke="none" /><path d="M 120.96210409425399 98.7389718711861 l 25.067387431774513 -1.507991780081318 a46.11270498897878,46.11270498897878 0 0,0 0.04075135764063894,0.7905654514157102 l -25.089580378871723 1.0774545352888771" fill="#ffd814" stroke="none" /><path d="M 120.98066250479742 99.09900007780936 l 49.6530158820591 -2.132314145753803 a70.6987801641066,70.6987801641066 0 0,0 0.04166283492723065,1.2129679807660032 l -49.68230340398318 1.2796399004236796" fill="#39ff89" stroke="none" /><line stroke="#e1ed5e" stroke-width="0.3" x1="184.99686870605535" x2="189.99668451229388" y1="99.2704041080226" y2="99.22748670261217" /><path d="M 185.99683186730306 99.26182062694052 a86.0,86.0 0 0,1 -10.086455211305974,41.156179273409016" fill="none" id="id88" stroke="none" /><text fill="#e1ed5e" style="font-size:6.75px; font-family:Arial;" text-anchor="middle"><textPath startOffset="21.40746469413373" xlink:href="#id88">April</textPath></text><path d="M 120.99922638620191 99.81974689727618 l 31.194578477551282 -0.2677679384624977 a52.195727689236136,52.195727689236136 0 0,0 0.0,0.8960420823726454 l -31.194578477551282 -0.2677679384624939" fill="#ccff1d" stroke="none" /><path d="M 120.99922638620191 100.18025310272382 l 31.51519770305294 0.2705200689041924 a52.51635872638515,52.51635872638515 0 0,0 -0.015476241817481156,0.9014134983333388 l -31.505910029636794 -0.8114804832066023" fill="#c8ff1d" stroke="none" /><line stroke="#e1ed5e" stroke-width="0.3" x1="174.33088141563837" x2="178.70328620479359" y1="141.23008692659167" y2="143.65538615756765" /><path d="M 175.20536237346943 141.71514677278685 a86.0,86.0 0 0,1 -30.301960400862466,31.631185727798858" fill="none" id="id89" stroke="none" /><text fill="#e1ed5e" style="font-size:6.75px; font-family:Arial;" text-anchor="middle"><textPath startOffset="22.145653131862474" xlink:href="#id89">May</textPath></text><line stroke="#e1ed5e" stroke-width="0.3" x1="143.1302829299769" x2="145.66735839644613" y1="173.24464959558577" y2="177.55315839532614" /><path d="M 143.63769802327073 174.10635135553383 a86.0,86.0 0 0,1 -40.68552437913181,11.842963189579606" fill="none" id="id90" stroke="none" /><text fill="#e1ed5e" style="font-size:6.75px; font-family:Arial;" text-anchor="middle"><textPath startOffset="21.407464694133747" xlink:href="#id90">June</textPath></text><line stroke="#e1ed5e" stroke-width="0.3" x1="101.45913802915013" x2="101.54496967792366" y1="184.9874750549273" y2="189.98673829345242" /><path d="M 101.47630435890484 185.9873277026323 a86.0,86.0 0 0,1 -42.54439059252881,-10.42667462771756" fill="none" id="id91" stroke="none" /><text fill="#e1ed5e" style="font-size:6.75px; font-family:Arial;" text-anchor="middle"><textPath startOffset="22.145653131862474" xlink:href="#id91">July</textPath></text><line stroke="#e1ed5e" stroke-width="0.3" x1="58.13341422392154" x2="55.67067388415222" y1="173.97424548756322" y2="178.32567169271397" /><path d="M 57.64086615596768 174.84453072859336 a86.0,86.0 0 0,1 -31.369924170532247,-30.572349798747897" fill="none" id="id92" stroke="none" /><text fill="#e1ed5e" style="font-size:6.75px; font-family:Arial;" text-anchor="middle"><textPath startOffset="22.145653131862474" xlink:href="#id92">August</textPath></text><line stroke="#e1ed5e" stroke-width="0.3" x1="26.387840678322732" x2="22.057713659400548" y1="142.50000000000003" y2="145.00000000000006" /><path d="M 25.521815274538298 143.00000000000003 a86.0,86.0 0 0,1 -11.493303480769221,-40.785679425670985" fill="none" id="id93" stroke="none" /><text fill="#e1ed5e" style="font-size:6.75px; font-family:Arial;" text-anchor="middle"><textPath startOffset="21.40746469413373" xlink:href="#id93">September</textPath></text><line stroke="#e1ed5e" stroke-width="0.3" x1="15.003131293944662" x2="10.003315487706104" y1="100.72959589197737" y2="100.7725132973878" /><path d="M 14.003168132696942 100.73817937305945 a86.0,86.0 0 0,1 10.791469493833604,-42.45332614584628" fill="none" id="id94" stroke="none" /><text fill="#e1ed5e" style="font-size:6.75px; font-family:Arial;" text-anchor="middle"><textPath startOffset="22.145653131862435" xlink:href="#id94">October</textPath></text><line stroke="#e1ed5e" stroke-width="0.3" x1="26.387840678322718" x2="22.05771365940052" y1="57.49999999999999" y2="54.99999999999999" /><path d="M 25.521815274538284 56.99999999999999 a86.0,86.0 0 0,1 29.574782752854787,-30.34633250058573" fill="none" id="id95" stroke="none" /><text fill="#e1ed5e" style="font-size:6.75px; font-family:Arial;" text-anchor="middle"><textPath startOffset="21.40746469413373" xlink:href="#id95">November</textPath></text><line stroke="#e1ed5e" stroke-width="0.3" x1="56.869717070023135" x2="54.33264160355391" y1="26.7553504044142" y2="22.446841604673864" /><path d="M 56.362301976729285 25.89364864446614 a86.0,86.0 0 0,1 42.16139366436587,-11.88097634709845" fill="none" id="id96" stroke="none" /><text fill="#e1ed5e" style="font-size:6.75px; font-family:Arial;" text-anchor="middle"><textPath startOffset="22.145653131862474" xlink:href="#id96">December</textPath></text></svg>