<?xml version="1.0" encoding="utf-8" ?>
<svg baseProfile="full" height="200mm" version="1.1" viewBox="0,0,200,200" width="200mm" xmlns="http://www.w3.org/2000/svg" xmlns:ev="http://www.w3.org/2001/xml-events" xmlns:xlink="http://www.w3.org/1999/xlink"><defs /><rect fill="#1a1a1a" height="200" width="200" x="0" y="0" /><text alignment-baseline="middle" fill="#e1ed5e" style="dominant-baseline: central; font-size:9.0px; font-family:Arial;" text-anchor="middle" x="100.0" y="100.0">2018</text><line stroke="#e1ed5e" stroke-width="0.3" x1="100.0" x2="100.0" y1="15.0" y2="10.0" /><path d="M 100.0 14.0 a86.0,86.0 0 0,1 42.46469731375804,11.215312516191453" fill="none" id="id13" stroke="none" /><text fill="#e1ed5e" style="font-size:6.75px; font-family:Arial;" text-anchor="middle"><textPath startOffset="22.20632615414155" xlink:href="#id13">January</textPath></text><line stroke="#e1ed5e" stroke-width="0.3" x1="143.23703022742887" x2="145.7803849466894" y1="26.81831364943548" y2="22.513508569990506" /><path d="M 143.74570117128098 25.957352633546492 a86.0,86.0 0 0,1 28.547481713284135,27.462654790039103" fill="none" id="id14" stroke="none" /><text fill="#e1ed5e" style="font-size:6.75px; font-family:Arial;" text-anchor="middle"><textPath startOffset="19.985693538727396" xlink:href="#id14">February</textPath></text><path d="M 116.60985879189232 87.15038557335679 l 9.205961623230419 -7.121858094466587 a32.639183481933365,32.639183481933365 0 0,0 0.3399511770923105,0.4473359004244152 l -9.327188740546843 6.962337418161138" fill="#ff790b" stroke="none" /><path d="M 117.2510076193507 88.02491185347247 l 12.235182034672285 -8.493265239165511 a35.89413420929141,35.89413420929141 0 0,0 0.34796035957212834,0.5105888916188979 l -12.379566859913146 8.281398324276207" fill="#ffa60f" stroke="none" /><path d="M 117.45458315368197 88.32363383020206 l 12.735866422177423 -8.519747422533465 a36.32280619427499,36.32280619427499 0 0,0 0.3431698553421983,0.5226712332166549 l -12.880632912877546 8.299258125339136" fill="#ffac0f" stroke="none" /><line stroke="#e1ed5e" stroke-width="0.3" x1="172.23445277983987" x2="176.4835382374775" y1="55.19839476539836" y2="52.563006222186495" /><path d="M 173.08426987136738 54.67131705675599 a86.0,86.0 0 0,1 12.851231095245387,41.99856678651699" fill="none" id="id15" stroke="none" /><text fill="#e1ed5e" style="font-size:6.75px; font-family:Arial;" text-anchor="middle"><textPath startOffset="22.20632615414155" xlink:href="#id15">March</textPath></text><path d="M 117.84615892207809 88.93136811851018 l 12.742710190442988 -7.903345974131818 a35.994650398873766,35.994650398873766 0 0,0 0.322039340769469,0.5293480016817523 l -12.876865329498681 7.682830199242984" fill="#ffa70f" stroke="none" /><path d="M 118.21658344932153 89.55222093294921 l 17.284810762331364 -9.913378354564387 a40.925856405443454,40.925856405443454 0 0,0 0.3452239397994021,0.6141148677807606 l -17.4528923434232 9.61437997684883" fill="#ffe815" stroke="none" /><path d="M 119.04729006885535 91.15688171328212 l 16.4266117731311 -7.626411444077956 a39.110652275926796,39.110652275926796 0 0,0 0.27824003962265065,0.613065045193628 l -16.5554541297171 7.342524390042265" fill="#ffd113" stroke="none" /><path d="M 119.196687751892 91.48605970444005 l 16.387899745772852 -7.26821219412607 a38.92735804786486,38.92735804786486 0 0,0 0.26639157108373657,0.6148684744504936 l -16.51058202669927 6.985044575088973" fill="#ffce13" stroke="none" /><path d="M 119.61058180528143 92.48833698450437 l 16.69706223721381 -6.3956646528931405 a38.880056311590806,38.880056311590806 0 0,0 0.23401241507540485,0.6270369287491641 l -16.804679240790843 6.107304587114643" fill="#ffce13" stroke="none" /><path d="M 119.7369772167798 92.82701384747503 l 17.999456369352355 -6.541521017746139 a40.15129047395589,40.15129047395589 0 0,0 0.2304816365783726,0.6516026235980299 l -18.109391086740537 6.230720767721495" fill="#ffde14" stroke="none" /><path d="M 119.97218684219823 93.5106431181261 l 16.079906600262554 -5.224678368010815 a37.90741435945566,37.90741435945566 0 0,0 0.19629635410081714,0.6223130853155765 l -16.167458438131575 4.947115116268819" fill="#ffc111" stroke="none" /><path d="M 120.08093135843002 93.85539295169968 l 8.803193840941024 -2.693708073450096 a30.20610042233693,30.20610042233693 0 0,0 0.14785757117466455,0.4985022260650101 l -8.84825730922739 2.5417764606385562" fill="#ff5608" stroke="none" /><path d="M 120.28053869075195 94.5502522615342 l 29.81267738275437 -8.011205896535879 a51.87029563585171,51.87029563585171 0 0,0 0.22428633860510314,0.8642667548010656 l -29.946160053229775 7.496842716185962" fill="#91ff24" stroke="none" /><path d="M 120.45610955862082 95.25157060432595 l 17.811502245903778 -4.134542817303242 a39.285077428437354,39.285077428437354 0 0,0 0.14723600479417043,0.660030139412984 l -17.880032637699987 3.8273345083402934" fill="#ffd313" stroke="none" /><path d="M 120.6074358757038 95.95851677861258 l 18.007088852251545 -3.531509106778758 a39.350117315814174,39.350117315814174 0 0,0 0.1246354555868329,0.6658075874632757 l -18.065210031748236 3.2210234418529198" fill="#ffd413" stroke="none" /><path d="M 120.78858239683441 97.02765380044208 l 32.69299680268004 -4.6744363296942435 a54.025480994838105,54.025480994838105 0 0,0 0.12370291805031658,0.9217304238849792 l -32.768615719788194 4.1109875637446" fill="#79ff26" stroke="none" /><path d="M 120.87857604477298 97.74499172005257 l 15.354718149867773 -1.658399331925674 a36.44401689347724,36.44401689347724 0 0,0 0.06199452548192488,0.6242764112383193 l -15.380989801031928 1.3938473899829198" fill="#ffad10" stroke="none" /><line stroke="#e1ed5e" stroke-width="0.3" x1="184.98032266829074" x2="189.97916517819016" y1="98.17113171792111" y2="98.06355123074" /><path d="M 185.9800911702706 98.14961562048488 a86.0,86.0 0 0,1 -9.607161424134198,41.387399972396054" fill="none" id="id16" stroke="none" /><text fill="#e1ed5e" style="font-size:6.75px; font-family:Arial;" text-anchor="middle"><textPath startOffset="21.466115282336823" xlink:href="#id16">April</textPath></text><path d="M 120.99513854157772 99.54816195383933 l 29.93506754797264 -0.6442349692419387 a50.94199906147348,50.94199906147348 0 0,0 0.011321235572820847,0.8768421715543143 l -29.941721790663177 0.12885653962716168" fill="#9cff22" stroke="none" /><path d="M 120.9764740272857 100.99374915477107 l 15.317452479521018 0.7256560580662849 a36.3346316283435,36.3346316283435 0 0,0 -0.03497407116029597,0.6244855348191745 l -15.302692057473193 -0.9892133092208827" fill="#ffac0f" stroke="none" /><path d="M 120.89721153311464 102.0752229133903 l 18.048483259829894 1.7923265002791398 a39.137259502580946,39.137259502580946 0 0,0 -0.07234373044982283,0.6698130960274757 l -18.01495722787902 -2.102735918191407" fill="#ffd113" stroke="none" /><path d="M 120.76222939487914 103.15116336523771 l 19.47226263191247 2.9553801509920588 a40.695260441107465,40.695260441107465 0 0,0 -0.11107528258546379,0.69166589068932 l -19.41850559496572 -3.290125271374584" fill="#ffe515" stroke="none" /><path d="M 120.49622156327973 104.57218783832717 l 30.346142024544292 6.769455583625549 a52.09202252463632,52.09202252463632 0 0,0 -0.20276059241412703,0.8734873253823326 l -30.225120866199614 -7.290811566356447" fill="#8fff24" stroke="none" /><path d="M 120.32669344350535 105.2749913415812 l 18.940739169764694 4.915321589384233 a40.56813702487095,40.56813702487095 0 0,0 -0.18122737969207212,0.674414498074247 l -18.853323713730845 -5.240627020634028" fill="#ffe415" stroke="none" /><path d="M 120.13307415673323 105.97154293290107 l 18.31533437834023 5.432394711272654 a40.10398873768184,40.10398873768184 0 0,0 -0.20199658686487207,0.6601365333186994 l -18.219111018969222 -5.74685821714341" fill="#ffde14" stroke="none" /><path d="M 119.79798401119884 107.00284435728193 l 28.417678786229466 10.051759887402133 a51.1430314406382,51.1430314406382 0 0,0 -0.30071064769360595,0.8274265523686442 l -28.240443877530634 -10.53943423677691" fill="#99ff23" stroke="none" /><path d="M 119.41010516605496 108.01547362559984 l 17.613918991138945 7.273732002433113 a40.056687001407795,40.056687001407795 0 0,0 -0.26866405051595627,0.6350424533421768 l -17.486103959430682 -7.575848981441454" fill="#ffdd14" stroke="none" /><line stroke="#e1ed5e" stroke-width="0.3" x1="174.80103733775053" x2="179.2010983576182" y1="140.37084112569926" y2="142.7455964860345" /><path d="M 175.68104954172406 140.8457921977663 a86.0,86.0 0 0,1 -30.038265399797805,32.042727171017184" fill="none" id="id17" stroke="none" /><text fill="#e1ed5e" style="font-size:6.75px; font-family:Arial;" text-anchor="middle"><textPath startOffset="22.206326154141568" xlink:href="#id17">May</textPath></text><path d="M 118.30583269289576 110.29060199501025 l 13.114741798331282 7.372436445697861 a36.04490849366495,36.04490849366495 0 0,0 -0.3086954686407515,0.5382365695936372 l -12.98589433353815 -7.597092861149814" fill="#ffa80f" stroke="none" /><path d="M 118.12598468904814 110.60418214915192 l 15.499375551564297 9.067546087369612 a38.95692163303613,38.95692163303613 0 0,0 -0.3435984243030353,0.5758907228763271 l -15.340996251563034 -9.332998904132044" fill="#ffcf13" stroke="none" /><path d="M 117.35343817320211 111.8261652097733 l 15.312719446686643 10.435439258778835 a39.53045518535899,39.53045518535899 0 0,0 -0.3880367700656062,0.5589959084293711 l -15.1308217694589 -10.697476429395227" fill="#ffd614" stroke="none" /><path d="M 117.14729908036423 112.12312394758627 l 14.988396995304766 10.59678225113512 a39.35603003284842,39.35603003284842 0 0,0 -0.39584708737191693,0.54979698259494 l -14.803770115557246 -10.853212839181191" fill="#ffd413" stroke="none" /><path d="M 116.93607887273984 112.41649034213515 l 15.154253962712495 11.110166018011865 a39.79061473486626,39.79061473486626 0 0,0 -0.409727244175766,0.5488966002427442 l -14.960765451841636 -11.369375497763926" fill="#ffda14" stroke="none" /><path d="M 116.498646956653 112.99209946851258 l 14.472510913219832 11.396589177142449 a39.42106992022525,39.42106992022525 0 0,0 -0.42439989507600556,0.5295041235743433 l -14.27419310608897 -11.644021134295041" fill="#ffd513" stroke="none" /><path d="M 116.0416608686014 113.55231037782055 l 14.577511155348011 12.31536792428414 a40.083294228061945,40.083294228061945 0 0,0 -0.4498061202819603,0.5232261375694439 l -14.36336252549527 -12.564471161015112" fill="#ffde14" stroke="none" /><path d="M 114.55890576462653 115.13401014063108 l 21.041068969449455 21.872231079828996 a51.34997653683716,51.34997653683716 0 0,0 -0.6422761305285685,0.6073121702695224 l -20.661457004530078 -22.23117788684444" fill="#97ff23" stroke="none" /><path d="M 113.75828350139079 115.86535959552629 l 9.81802990171984 11.321657595925306 a35.985781323322385,35.985781323322385 0 0,0 -0.4714728949711856,0.40179942948046227 l -9.621691530171606 -11.488981415628714" fill="#ffa70f" stroke="none" /><path d="M 113.48314897796784 116.09983520530334 l 9.77544118768668 11.672569400372437 a36.22524636320976,36.22524636320976 0 0,0 -0.4815023028952208,0.39624361477288234 l -9.573068756246768 -11.839108134002498" fill="#ffaa0f" stroke="none" /><path d="M 112.92097659922987 116.55440617244103 l 9.329660578711879 11.95319792469968 a36.16316283435007,36.16316283435007 0 0,0 -0.4940082144755636,0.3787844332689324 l -9.122523635742821 -12.112021699795983" fill="#ffaa0f" stroke="none" /><path d="M 112.04921762599082 117.19931262002967 l 8.888489023020917 12.687620571884866 a36.49131862975129,36.49131862975129 0 0,0 -0.517556572614483,0.3559801299770326 l -8.66877556578355 -12.838741491226992" fill="#ffae10" stroke="none" /><path d="M 111.45004920935366 117.60387380957326 l 10.928859733376521 16.80257124761709 a41.04411074612858,41.04411074612858 0 0,0 -0.5955660696736437,0.3801184438990315 l -10.638011861655947 -16.98820412033993" fill="#ffea16" stroke="none" /><line stroke="#e1ed5e" stroke-width="0.3" x1="143.8653032363475" x2="146.44561519142675" y1="172.8068346515853" y2="177.08958963109032" /><path d="M 144.38136562736335 173.6633856474863 a86.0,86.0 0 0,1 -40.68145358897372,12.25698825130547" fill="none" id="id18" stroke="none" /><text fill="#e1ed5e" style="font-size:6.75px; font-family:Arial;" text-anchor="middle"><textPath startOffset="21.466115282336833" xlink:href="#id18">June</textPath></text><path d="M 109.89434966115114 118.52300852407294 l 7.117802923765695 13.325092476491692 a36.106992022524636,36.106992022524636 0 0,0 -0.550733239391328,0.2881176015891871 l -6.887378781847872 -13.445639497025596" fill="#ffa90f" stroke="none" /><path d="M 109.2508944713604 118.85261126421891 l 6.554634238529826 13.35784033216524 a35.87935241670577,35.87935241670577 0 0,0 -0.5567917349028403,0.2672938689313711 l -6.323729835626754 -13.46868847759617" fill="#ffa60f" stroke="none" /><path d="M 107.93186726928326 119.44442032107085 l 12.310957763094505 30.179455754078752 a53.5938526513374,53.5938526513374 0 0,0 -0.8571926456810466,0.3410946441565435 l -11.789644041371591 -30.386897242641364" fill="#7eff26" stroke="none" /><path d="M 106.2309692047433 120.05430185196036 l 4.428929636051002 14.254458477317856 a35.92665415297982,35.92665415297982 0 0,0 -0.5921482898560281,0.17840942226713105 l -4.182906371754728 -14.328583268690712" fill="#ffa60f" stroke="none" /><path d="M 104.48393922423573 120.51570834832081 l 3.344332709056905 15.30157993844256 a36.66278742374472,36.66278742374472 0 0,0 -0.6176955827771665,0.129444115112612 l -3.08044566485036 -15.356880034281712" fill="#ffb010" stroke="none" /><path d="M 104.13013068566511 120.58985236759428 l 2.990904586634628 14.910492807917167 a36.207508212106994,36.207508212106994 0 0,0 -0.6121351433789975,0.11731715712250512 l -2.733801828683926 -14.959767163388141" fill="#ffaa0f" stroke="none" /><path d="M 101.98527174616119 120.90594882070398 l 1.5055831388883623 15.854577141783059 a36.92590333176912,36.92590333176912 0 0,0 -0.6332892336887231,0.05464285982478664 l -1.2324495874580974 -15.878144253886509" fill="#ffb410" stroke="none" /><path d="M 100.90346689309514 120.98055641714683 l 1.2993643050014043 30.1741948884428 a51.20215861098076,51.20215861098076 0 0,0 -0.8808713264987525,0.030338989553121497 l -0.7797726268279994 -30.192090676422012" fill="#99ff23" stroke="none" /><line stroke="#e1ed5e" stroke-width="0.3" x1="102.19456741930631" x2="102.32365962044197" y1="184.97166512339345" y2="189.96999836594603" /><path d="M 102.22038585953345 185.97133177190398 a86.0,86.0 0 0,1 -42.740103519485714,-10.115201625700543" fill="none" id="id19" stroke="none" /><text fill="#e1ed5e" style="font-size:6.75px; font-family:Arial;" text-anchor="middle"><textPath startOffset="22.20632615414155" xlink:href="#id19">July</textPath></text><path d="M 98.37488393609728 120.93702456842531 l -1.3722354976004465 17.679062415966456 a38.7322383857344,38.7322383857344 0 0,0 -0.6642683686291152,-0.057315869940845296 l 1.6763481839711034 -17.652822293746947" fill="#ffcc13" stroke="none" /><path d="M 97.2962882734958 120.8252237178851 l -1.9689771132622518 15.16596184316559 a36.29324260910371,36.29324260910371 0 0,0 -0.6188367862590427,-0.08576513972186081 l 2.2297424907081256 -15.129822137951123" fill="#ffab0f" stroke="none" /><path d="M 95.86986931433489 120.58985236759428 l -3.92527155217153 19.568572501214778 a40.95837634913187,40.95837634913187 0 0,0 -0.6900677751576912,-0.1446104116876006 l 4.261530788758608 -19.498106108800638" fill="#ffe915" stroke="none" /><path d="M 94.81253420990036 120.34920634021253 l -3.798948433613092 14.90237982850102 a36.37897700610042,36.37897700610042 0 0,0 -0.6054666735415796,-0.1599092514832933 l 4.05490554996616 -14.834779227714145" fill="#ffac10" stroke="none" /><path d="M 94.46302465271185 120.25689768951611 l -4.281737059970034 15.664637119921913 a37.2392773345847,37.2392773345847 0 0,0 -0.616875424143348,-0.17433515666497493 l 4.550743652217996 -15.588613169918418" fill="#ffb811" stroke="none" /><path d="M 94.11515582081647 120.15858648285463 l -4.363511162612814 14.947246598572786 a36.57114030971375,36.57114030971375 0 0,0 -0.6027708035451917,-0.18160989850386758 l 4.620156940598251 -14.869921330963193" fill="#ffaf10" stroke="none" /><path d="M 93.76903079525671 120.05430185196036 l -4.710507456049481 15.160713413190118 a36.875645236977945,36.875645236977945 0 0,0 -0.6045475019566875,-0.193557019145649 l 4.970776303097108 -15.077383547384763" fill="#ffb310" stroke="none" /><path d="M 93.42475214034765 119.94407469862007 l -4.988363779774732 15.130729969619455 a36.93181604880338,36.93181604880338 0 0,0 -0.6020418310047672,-0.20424527639695178 l 5.248075343716725 -15.04262170632438" fill="#ffb410" stroke="none" /><path d="M 92.7421414339146 119.70592522655815 l -5.517471082617714 14.980571969509247 a36.96433599249179,36.96433599249179 0 0,0 -0.5951782270897131,-0.22504547810887793 l 5.7745195304677095 -14.883378241293736" fill="#ffb410" stroke="none" /><path d="M 92.40401165467489 119.57807347666478 l -6.129545546044612 15.798430385017719 a37.94584702017832,37.94584702017832 0 0,0 -0.6069147745627504,-0.2415039140919756 l 6.400581396649221 -15.690579626519677" fill="#ffc112" stroke="none" /><path d="M 92.06813273071674 119.44442032107085 l -6.080105670752793 14.904955698953183 a37.097372125762554,37.097372125762554 0 0,0 -0.5891920181707195,-0.24628231138024917 l 6.335769148420975 -14.79808834455296" fill="#ffb610" stroke="none" /><path d="M 91.40352486487194 119.15986991738527 l -6.225284105363497 13.874946624358966 a36.207508212106994,36.207508212106994 0 0,0 -0.5664440591043395,-0.2600266852081389 l 6.463196160235256 -13.765732868816754" fill="#ffaa0f" stroke="none" /><path d="M 90.42595943632237 118.69057910512821 l -7.050465441848573 13.764019610360258 a36.46471140309714,36.46471140309714 0 0,0 -0.5561894666265642,-0.2909720418014381 l 7.286345811001633 -13.640618149614104" fill="#ffae10" stroke="none" /><path d="M 90.10565033884886 118.52300852407294 l -12.552962808018869 23.500143522141517 a47.64270295635852,47.64270295635852 0 0,0 -0.7200336713936512,-0.39261976771573726 l 12.955619291281161 -23.280583102666014" fill="#c2ff1e" stroke="none" /><line stroke="#e1ed5e" stroke-width="0.3" x1="58.666819895761336" x2="56.23545636021788" y1="174.27360380694188" y2="178.64263932499728" /><path d="M 58.180547188652646 175.14741091055294 a86.0,86.0 0 0,1 -31.652253787137756,-30.449443065178592" fill="none" id="id20" stroke="none" /><text fill="#e1ed5e" style="font-size:6.75px; font-family:Arial;" text-anchor="middle"><textPath startOffset="22.20632615414155" xlink:href="#id20">August</textPath></text><path d="M 89.1626897886671 117.98757091392108 l -9.510998384436789 15.786182601227218 a39.42993899577663,39.42993899577663 0 0,0 -0.5783448264809228,-0.3552666290597341 l 9.781322410850022 -15.620127505339106" fill="#ffd513" stroke="none" /><path d="M 88.24862548938628 117.40417183066458 l -10.399221985976222 15.401589506460468 a39.58366963866729,39.58366963866729 0 0,0 -0.5614154039637608,-0.38614663410523775 l 10.662794274562874 -15.220302082990129" fill="#ffd714" stroke="none" /><path d="M 87.36589467227662 116.77436683061367 l -10.671698540545314 14.16886921403313 a38.738151102768654,38.738151102768654 0 0,0 -0.5291839363172706,-0.4057556768074243 l 10.914011205356072 -13.98307419539834" fill="#ffcc13" stroke="none" /><path d="M 85.97065885151581 115.62618273729859 l -12.241274956119902 13.63459604961661 a39.323510089160024,39.323510089160024 0 0,0 -0.49978393139721417,-0.456540771568713 l 12.474158436983972 -13.42186251146132" fill="#ffd413" stroke="none" /><path d="M 84.9287848128048 114.62390073753433 l -21.59052356802885 20.94971570696611 a51.08390427029563,51.08390427029563 0 0,0 -0.6069094974011074,-0.6363421816328652 l 21.947939616808917 -20.574966408750747" fill="#9aff22" stroke="none" /><path d="M 83.06392112726016 112.41649034213515 l -12.991744783326052 9.524747424818548 a37.10919755983107,37.10919755983107 0 0,0 -0.3732482101601009,-0.5184091187013838 l 13.15377278586176 -9.299704700666025" fill="#ffb610" stroke="none" /><path d="M 82.44556493220864 111.52570212397912 l -15.808876742655283 10.379622217798367 a39.91182543406851,39.91182543406851 0 0,0 -0.3721210149397594,-0.5775400789104375 l 15.985202620972089 -10.105960538966482" fill="#ffdb14" stroke="none" /><line stroke="#e1ed5e" stroke-width="0.3" x1="26.63291911575756" x2="22.317208475507996" y1="142.92168965132927" y2="145.44649492493687" /><path d="M 25.769776987707644 143.4266507060508 a86.0,86.0 0 0,1 -11.730757126820373,-40.83630448921669" fill="none" id="id21" stroke="none" /><text fill="#e1ed5e" style="font-size:6.75px; font-family:Arial;" text-anchor="middle"><textPath startOffset="21.46611528233685" xlink:href="#id21">September</textPath></text><path d="M 80.73074385275274 108.34839909993369 l -17.575623262977246 7.614633191244071 a40.15424683247302,40.15424683247302 0 0,0 -0.2693183936817027,-0.6365891272961534 l 17.704092637851254 -7.310969538281758" fill="#ffde14" stroke="none" /><path d="M 80.32549172779594 107.34259656027581 l -16.961992772263397 6.330276114753036 a39.10473955889254,39.10473955889254 0 0,0 -0.22992793405869008,-0.6326629244112276 l 17.06844496732731 -6.037365393335691" fill="#ffd113" stroke="none" /><path d="M 80.0844068197444 106.66101706037122 l -17.281987287155633 5.780174916958455 a39.22299389957766,39.22299389957766 0 0,0 -0.20864344556786693,-0.6421384975637479 l 17.37892298373975 -5.481837519416903" fill="#ffd213" stroke="none" /><path d="M 79.29508885075956 103.50808413554451 l -14.623632928541426 2.4777181756959363 a35.83205068043172,35.83205068043172 0 0,0 -0.09780144203046019,-0.6090096728824522 l 14.664116124933177 -2.2256292731202705" fill="#ffa50f" stroke="none" /><path d="M 79.0235259727143 100.99374915477108 l -19.2390983042374 0.9114419160019115 a40.26067573908963,40.26067573908963 0 0,0 -0.026836361443650338,-0.6925272441690831 l 19.251936798532252 -0.5801374248188316" fill="#ffe015" stroke="none" /><line stroke="#e1ed5e" stroke-width="0.3" x1="15.007084014347285" x2="10.007500721073583" y1="101.09737516637583" y2="101.16192664675087" /><path d="M 14.007167355692545 101.11028546245083 a86.0,86.0 0 0,1 10.666146001902534,-42.60595125391555" fill="none" id="id22" stroke="none" /><text fill="#e1ed5e" style="font-size:6.75px; font-family:Arial;" text-anchor="middle"><textPath startOffset="22.20632615414155" xlink:href="#id22">October</textPath></text><path d="M 79.00175016825051 100.2711162175752 l -18.930942082007096 0.24442443791904386 a39.932519943688405,39.932519943688405 0 0,0 -0.0029582442625414778,-0.6873917843374314 l 18.93234462355914 0.08147682462206296" fill="#ffdc14" stroke="none" /><path d="M 79.00486145842228 99.54816195383935 l -9.990178545828154 -0.2149994269389476 a30.99249178789301,30.99249178789301 0 0,0 0.01606932000797573,-0.5332624994595929 l 9.984997531364534 0.386932073823535" fill="#ff6209" stroke="none" /><path d="M 79.03285615573316 98.82574320788736 l -18.826153463923134 -1.054351452852339 a39.85565462224308,39.85565462224308 0 0,0 0.04425763385347318,-0.6846460068207973 l 18.805215239065248 1.3782565239261482" fill="#ffdb14" stroke="none" /><path d="M 79.05617556472873 98.46500227214037 l -17.86760808227272 -1.3095381835986923 a38.915532613796344,38.915532613796344 0 0,0 0.05471434227912062,-0.6676535621522681 l 17.842419256174104 1.6169056629587388" fill="#ffce13" stroke="none" /><path d="M 79.12142395522702 97.74499172005258 l -19.31684679956567 -2.0863323907763225 a40.42918817456594,40.42918817456594 0 0,0 0.0806844287975017,-0.6912549127866834 l 19.27807201776458 2.4185310418878676" fill="#ffe215" stroke="none" /><path d="M 79.26566170972629 96.67025291283419 l -20.003625570611796 -3.2124012372145434 a41.259924917878934,41.259924917878934 0 0,0 0.1186480980764797,-0.7002677911311403 l 19.945365611015095 3.5562548166615118" fill="#ffed16" stroke="none" /><path d="M 79.62865764111835 94.90015583598534 l -21.03859702647899 -5.266887393788571 a42.687846081651806,42.687846081651806 0 0,0 0.18458157184617674,-0.7112680918852331 l 20.944819122762507 5.6282519112226685" fill="#ffff18" stroke="none" /><path d="M 80.02781315780177 93.51064311812611 l -59.91656052659468 -19.468070645621676 a84.0,84.0 0 0,0 0.4586508249129104,-1.3713075883107113 l 59.572572407909995 20.496551336854708" fill="#4dd2ff" stroke="none" /><path d="M 80.14247586403 93.16781622104843 l -14.136954418901965 -4.86396340265013 a35.95030502111685,35.95030502111685 0 0,0 0.2063665959163462,-0.5834261562801878 l 14.051134742175808 5.106587185356929" fill="#ffa70f" stroke="none" /><path d="M 80.95270993114464 91.15688171328213 l -16.812741726662093 -7.805680665094469 a39.53636790239324,39.53636790239324 0 0,0 0.2918947565963833,-0.6148047998358445 l 16.67588877622396 8.093927880570845" fill="#ffd614" stroke="none" /><path d="M 81.43458229118936 90.18545643968196 l -16.97285160971604 -8.972639025908782 a40.19859221022994,40.19859221022994 0 0,0 0.32865584311028145,-0.6089493631112987 l 16.81588766738729 9.263469372352553" fill="#ffdf14" stroke="none" /><line stroke="#e1ed5e" stroke-width="0.3" x1="26.266209847984243" x2="21.928928074336255" y1="57.711370442889674" y2="55.22380399835377" /><path d="M 25.398753493254645 57.213857153982495 a86.0,86.0 0 0,1 29.58750427330803,-30.492523968695096" fill="none" id="id23" stroke="none" /><text fill="#e1ed5e" style="font-size:6.75px; font-family:Arial;" text-anchor="middle"><textPath startOffset="21.46611528233685" xlink:href="#id23">November</textPath></text><path d="M 81.96595687620814 89.24020034530311 l -16.773945037854457 -10.00797695709747 a40.53266072266541,40.53266072266541 0 0,0 0.36264031443874284,-0.5960853270868053 l 16.599188925129496 10.29523005739135" fill="#ffe315" stroke="none" /><path d="M 82.15384107792192 88.93136811851018 l -18.259861526841416 -11.325220532332429 a42.4868137024871,42.4868137024871 0 0,0 0.3908228538456859,-0.6181878984725159 l 18.062211076749765 11.63785607851916" fill="#fffc17" stroke="none" /><path d="M 83.6137871275137 86.86637796730984 l -14.507680819577613 -11.627970290509866 a39.592538714218676,39.592538714218676 0 0,0 0.43080737136775116,-0.5281188980598818 l 14.30537495613347 11.87597335817783" fill="#ffd714" stroke="none" /><path d="M 85.57189188830299 84.74124197986013 l -13.484966178351453 -14.261317854862773 a40.62726419521351,40.62726419521351 0 0,0 0.5122752029464789,-0.4761039713702725 l 13.237483091610118 14.491326412307693" fill="#ffe515" stroke="none" /><path d="M 86.10567301691215 84.25364557470407 l -12.006106854367884 -13.606446287536343 a39.146128578132334,39.146128578132334 0 0,0 0.5090976416027954,-0.44148445806647624 l 11.770115414118315 13.8110957390225" fill="#ffd113" stroke="none" /><path d="M 86.65592168130627 83.78471172551755 l -12.72352545084645 -15.461212691187649 a41.02341623650868,41.02341623650868 0 0,0 0.5491210896836419,-0.4440177323787589 l 12.455500962598308 15.677936520830544" fill="#ffea16" stroke="none" /><line stroke="#e1ed5e" stroke-width="0.3" x1="56.762969772571076" x2="54.21961505331055" y1="26.818313649435495" y2="22.513508569990535" /><path d="M 56.25429882871897 25.957352633546506 a86.0,86.0 0 0,1 42.265352541879196,-11.944610805530505" fill="none" id="id24" stroke="none" /><text fill="#e1ed5e" style="font-size:6.75px; font-family:Arial;" text-anchor="middle"><textPath startOffset="22.20632615414155" xlink:href="#id24">December</textPath></text><path d="M 89.63071344664047 81.73862282372117 l -6.0420192929641106 -10.640615692062608 a33.23636790239324,33.23636790239324 0 0,0 0.49993180890976624,-0.2782115103936018 l 5.857963394982299 10.743042600016395" fill="#ff810b" stroke="none" /><path d="M 91.23893434514133 80.91482961587045 l -7.819590274772969 -17.03425343529536 a39.74331299859221,39.74331299859221 0 0,0 0.6241931094432186,-0.28005725341475307 l 7.525215046862976 17.16633101922664" fill="#ffd914" stroke="none" /><path d="M 93.94186890950719 79.89281104454417 l -5.1785507247497415 -17.187825153101045 a38.95100891600188,38.95100891600188 0 0,0 0.6436371963521376,-0.18789534730922153 l 4.881923310674183 17.274418829328965" fill="#ffcf13" stroke="none" /><path d="M 94.28887869178378 79.79150937346287 l -3.8873681171129233 -13.755239631061517 a35.29399343031441,35.29399343031441 0 0,0 0.5860519050892716,-0.16019012389986909 l 3.6500183227999288 13.820116295787683" fill="#ff9e0e" stroke="none" /><path d="M 96.40284397218896 79.31037775812273 l -3.291119243276947 -18.929402386198092 a40.213374002815584,40.213374002815584 0 0,0 0.6829969537818158,-0.11270034951772132 l 2.964793083356246 18.983248998655437" fill="#ffdf14" stroke="none" /><path d="M 98.91598698831166 79.02799685794201 l -0.17366590435964271 -3.3598507145465044 a24.36433599249179,24.36433599249179 0 0,0 0.4190192050683412,-0.01804384840055684 l 0.1158058669019774 3.3623422894712536" fill="#ff0000" stroke="none" /></svg>