<?xml version="1.0" encoding="utf-8" ?>
<svg baseProfile="full" height="200mm" version="1.1" viewBox="0,0,200,200" width="200mm" xmlns="http://www.w3.org/2000/svg" xmlns:ev="http://www.w3.org/2001/xml-events" xmlns:xlink="http://www.w3.org/1999/xlink"><defs /><rect fill="#1a1a1a" height="200" width="200" x="0" y="0" /><text alignment-baseline="middle" fill="#e1ed5e" style="dominant-baseline: central; font-size:9.0px; font-family:Arial;" text-anchor="middle" x="100.0" y="100.0">2023</text><line stroke="#e1ed5e" stroke-width="0.3" x1="100.0" x2="100.0" y1="15.0" y2="10.0" /><path d="M 100.0 14.0 a86.0,86.0 0 0,1 42.46469731375804,11.215312516191453" fill="none" id="id49" stroke="none" /><text fill="#e1ed5e" style="font-size:6.75px; font-family:Arial;" text-anchor="middle"><textPath startOffset="22.20632615414155" xlink:href="#id49">January</textPath></text><path d="M 102.16513564639614 79.11191278185805 l 1.5735596076078948 -15.180873485395146 a36.262208543270155,36.262208543270155 0 0,0 0.6203139387150829,0.06969949870949205 l -1.834640249832703 15.151538033215054" fill="#ff3705" stroke="none" /><path d="M 104.66035177308747 79.52364482259891 l 3.5168943444976626 -15.452305153269304 a36.84746921057469,36.84746921057469 0 0,0 0.6172412792218046,0.1460810685258963 l -3.782359310681991 15.389478172602539" fill="#ff4206" stroke="none" /><path d="M 106.40334571778207 80.00007090966166 l 5.891933984629331 -18.402608119424944 a40.32280703408164,40.32280703408164 0 0,0 0.6592148719145002,0.21733277883815116 l -6.207831678786249 18.298461616327558" fill="#ff7c0b" stroke="none" /><path d="M 107.08798089147638 80.2323363322302 l 5.214284716862306 -14.542114056046307 a36.44868429114801,36.44868429114801 0 0,0 0.5887637101853741,0.21684664324261804 l -5.4638307528202565 14.450204144997365" fill="#ff3b05" stroke="none" /><path d="M 109.73455568895987 81.39251694778311 l 7.095585257356909 -13.563123643287328 a36.307045864814036,36.307045864814036 0 0,0 0.5512705438057025,0.2944696327930642 l -7.328000847690923 13.43897528399251" fill="#ff3805" stroke="none" /><path d="M 110.36928655335952 81.73862282372117 l 6.962529194823658 -12.261728043992981 a35.100595285789026,35.100595285789026 0 0,0 0.5228371856098524,0.3028610447104475 l -7.172563112898838 12.140062841892485" fill="#ff2303" stroke="none" /><line stroke="#e1ed5e" stroke-width="0.3" x1="143.23703022742887" x2="145.7803849466894" y1="26.81831364943548" y2="22.513508569990506" /><path d="M 143.74570117128098 25.957352633546492 a86.0,86.0 0 0,1 28.547481713284135,27.462654790039103" fill="none" id="id50" stroke="none" /><text fill="#e1ed5e" style="font-size:6.75px; font-family:Arial;" text-anchor="middle"><textPath startOffset="19.985693538727396" xlink:href="#id50">February</textPath></text><path d="M 111.2981086023043 82.29822771554956 l 9.260884430786783 -14.509868254670971 a38.21337437018952,38.21337437018952 0 0,0 0.5514244042960614,0.3586617714218606 l -9.509275860867124 14.348307559089582" fill="#ff5908" stroke="none" /><path d="M 113.6212207817346 84.01681056812373 l 12.408152931075099 -14.559771255084858 a40.129798696309976,40.129798696309976 0 0,0 0.5218903277628215,0.45257814944323055 l -12.656937057484685 14.344028112221956" fill="#ff790b" stroke="none" /><path d="M 113.89432698308785 84.25364557470407 l 9.983074624969372 -11.313756433851463 a36.08850103927566,36.08850103927566 0 0,0 0.4622576311283737,0.41501946538168155 l -10.176343243693736 11.140237959700483" fill="#ff3405" stroke="none" /><path d="M 114.42810811169701 84.74124197986012 l 9.665411840783943 -10.221865493505117 a35.06793233631997,35.06793233631997 0 0,0 0.4350373326417748,0.4185055693217604 l -9.839932417038137 10.053976837421056" fill="#ff2303" stroke="none" /><path d="M 114.94478906791727 85.2469230424477 l 10.878145776274046 -10.738600662980726 a36.285666479707025,36.285666479707025 0 0,0 0.43497137944249825,0.44827624157919255 l -11.061381419419654 10.54976022585142" fill="#ff3805" stroke="none" /><path d="M 115.4437574822437 85.77008943001954 l 13.647358933438781 -12.574705175378348 a39.55730627288881,39.55730627288881 0 0,0 0.4570872346293169,0.5047271409021591 l -13.861789808684133 12.33792524720664" fill="#ff6f0a" stroke="none" /><path d="M 115.9244219780498 86.31012108654704 l 12.580373672658158 -10.815073382385537 a37.59010590713919,37.59010590713919 0 0,0 0.4175891783824187,0.49429387279764486 l -12.764673464527693 10.596920559958784" fill="#ff4e07" stroke="none" /><path d="M 116.38621287248628 86.86637796730983 l 14.02328092343804 -11.239721633051413 a38.97174866968001,38.97174866968001 0 0,0 0.41504155057578784,0.5270606211018896 l -14.214676554607793 10.996668617996486" fill="#ff6509" stroke="none" /><path d="M 116.82858285166822 87.43820079747576 l 12.902518977494218 -9.631164669696117 a37.10075553691196,37.10075553691196 0 0,0 0.37761040772524634,0.5150601717701244 l -13.06639199773309 9.4076420542545" fill="#ff4606" stroke="none" /><path d="M 117.2510076193507 88.02491185347247 l 12.12043320965914 -8.413610338735145 a35.75444814697856,35.75444814697856 0 0,0 0.34660623267812984,0.5086018774924376 l -12.263463908006003 8.203730437972302" fill="#ff2f04" stroke="none" /><path d="M 117.45458315368197 88.32363383020206 l 16.35325964588697 -10.939628062952456 a40.67497301653886,40.67497301653886 0 0,0 0.38428816681937733,0.5852972425615991 l -16.53914444806427 10.656512756413182" fill="#ff810b" stroke="none" /><line stroke="#e1ed5e" stroke-width="0.3" x1="172.23445277983987" x2="176.4835382374775" y1="55.19839476539836" y2="52.563006222186495" /><path d="M 173.08426987136738 54.67131705675599 a86.0,86.0 0 0,1 12.851231095245387,41.99856678651699" fill="none" id="id51" stroke="none" /><text fill="#e1ed5e" style="font-size:6.75px; font-family:Arial;" text-anchor="middle"><textPath startOffset="22.20632615414155" xlink:href="#id51">March</textPath></text><path d="M 117.84615892207809 88.93136811851018 l 12.87041089794837 -7.982549130875771 a36.14491886108584,36.14491886108584 0 0,0 0.32338377267734864,0.5315578942437382 l -13.005910468911942 7.759823463424952" fill="#ff3505" stroke="none" /><path d="M 118.21658344932153 89.55222093294921 l 19.64992437464438 -11.269844815943626 a43.65234932859492,43.65234932859492 0 0,0 0.3682228630092373,0.6550273858822423 l -19.841004878946052 10.92993392012659" fill="#ffb110" stroke="none" /><path d="M 118.3937258080291 89.86733742301442 l 31.301853005044034 -17.243440390748034 a56.73712688589648,56.73712688589648 0 0,0 0.46387167428203385,0.859483762546805 l -31.59403277854453 16.70207564486877" fill="#8fff24" stroke="none" /><path d="M 118.73160827565052 90.50648371742162 l 16.067810018179152 -8.143455371701794 a39.013616632181254,39.013616632181254 0 0,0 0.2984355652587761,0.6016278887766567 l -16.205605596391337 7.865667894426187" fill="#ff6609" stroke="none" /><path d="M 118.89224826269711 90.83032412892265 l 17.20094205814283 -8.348771472677766 a40.11999981146927,40.11999981146927 0 0,0 0.29620367780183793,0.6238804868064467 l -17.342103929786422 8.051448570230779" fill="#ff780b" stroke="none" /><path d="M 119.196687751892 91.48605970444005 l 17.312278697662766 -7.678184336642548 a39.9385719739639,39.9385719739639 0 0,0 0.27331161087025513,0.6308408803692076 l -17.441881018375703 7.379044311686738" fill="#ff750a" stroke="none" /><path d="M 119.47837535516314 92.15188598940014 l 34.1003541004038 -13.739516869452677 a57.76422817874599,57.76422817874599 0 0,0 0.36365731196835505,0.9254681929602886 l -34.33180496225385 13.150499671596604" fill="#82ff25" stroke="none" /><path d="M 119.7369772167798 92.82701384747503 l 12.510185057477194 -4.54656167442491 a34.31074578044653,34.31074578044653 0 0,0 0.19695498566431696,0.5568182667166284 l -12.586593123951321 4.330545781281668" fill="#ff1602" stroke="none" /><path d="M 119.85752413597 93.16781622104841 l 16.828078740441576 -5.789872182157052 a38.79625955025993,38.79625955025993 0 0,0 0.21183257674121975,0.6333524418969597 l -16.92524861095457 5.499346637337778" fill="#ff6209" stroke="none" /><path d="M 120.18372546131832 94.20196356495316 l 16.86307182077677 -4.84413568798559 a38.54505177525251,38.54505177525251 0 0,0 0.17769861624042546,0.6392764686881767 l -16.94395720758356 4.553147915878461" fill="#ff5e08" stroke="none" /><path d="M 120.28053869075195 94.5502522615342 l 31.91756679262229 -8.576827770592862 a54.049856952306435,54.049856952306435 0 0,0 0.23371072729308792,0.9005827688659686 l -32.06047385178568 8.026148576178043" fill="#b3ff20" stroke="none" /><path d="M 120.45610955862082 95.25157060432595 l 16.83552847793755 -3.907992284029208 a38.28315430769158,38.28315430769158 0 0,0 0.14348091082297387,0.6431967894400442 l -16.900303775762563 3.6176173250391996" fill="#ff5a08" stroke="none" /><path d="M 120.53481517161879 95.60439243477599 l 24.276565559449054 -5.196552992512713 a45.826514019616624,45.826514019616624 0 0,0 0.15847398637456309,0.7727754384530927 l -24.362418841738613 4.777901897896209" fill="#ffd313" stroke="none" /><path d="M 120.67395015179393 96.31383870115 l 17.500365746614168 -3.120311815460751 a38.77636484467425,38.77636484467425 0 0,0 0.11150630904678782,0.6581165480043824 l -17.55148391718118 2.8186094791405307" fill="#ff6209" stroke="none" /><path d="M 120.78858239683441 97.02765380044208 l 40.82534762732858 -5.837197772763905 a62.2405369355272,62.2405369355272 0 0,0 0.14251304936422243,1.0618877506688658 l -40.91977667575064 5.133591680030374" fill="#49ff2c" stroke="none" /><path d="M 120.87857604477298 97.74499172005257 l 22.563882870729817 -2.4370312703388652 a43.69510809880896,43.69510809880896 0 0,0 0.07432927880548497,0.7484856938883999 l -22.602489275217533 2.04827004574603" fill="#ffb210" stroke="none" /><path d="M 120.91429891909075 98.10471618934814 l 24.8071124980819 -2.2480561690603484 a45.90876526509778,45.90876526509778 0 0,0 0.06454666626960294,0.7876328191995299 l -24.842133648171 1.8207094326530497" fill="#ffd413" stroke="none" /><path d="M 120.96714384426684 98.82574320788733 l 25.53863284628856 -1.4302812678621486 a46.57865266511757,46.57865266511757 0 0,0 0.03794250859263785,0.8009063878970937 l -25.559468963114696 0.9904637733420552" fill="#ffdf14" stroke="none" /><line stroke="#e1ed5e" stroke-width="0.3" x1="184.98032266829074" x2="189.97916517819016" y1="98.17113171792111" y2="98.06355123074" /><path d="M 185.9800911702706 98.14961562048488 a86.0,86.0 0 0,1 -9.607161424134198,41.387399972396054" fill="none" id="id52" stroke="none" /><text fill="#e1ed5e" style="font-size:6.75px; font-family:Arial;" text-anchor="middle"><textPath startOffset="21.466115282336823" xlink:href="#id52">April</textPath></text><path d="M 120.99513854157772 99.54816195383933 l 45.69171584199969 -0.9833350502018708 a66.70229583299947,66.70229583299947 0 0,0 0.014823768565935246,1.1481172117978091 l -45.701872617683335 0.19668158034359898" fill="#33ff51" stroke="none" /><path d="M 120.99824983174949 100.27111621757518 l 15.780531095424648 0.20374830932100915 a36.78184637573232,36.78184637573232 0 0,0 -0.013623185497149129,0.6330158987730055 l -15.774685847242491 -0.4753540238841295" fill="#ff4006" stroke="none" /><path d="M 120.9904718944345 100.63252640178507 l 22.844193122929127 0.6883863950462602 a43.854562679398775,43.854562679398775 0 0,0 -0.02923192105975269,0.7543459934309166 l -22.828959069018172 -1.0815096354911828" fill="#ffb410" stroke="none" /><path d="M 120.9764740272857 100.99374915477107 l 16.215299764879216 0.7681910894437035 a37.23348588611801,37.23348588611801 0 0,0 -0.03583926756838665,0.6399341978917054 l -16.199674146423302 -1.0471970036708322" fill="#ff4806" stroke="none" /><path d="M 120.95626037817324 101.35467743843564 l 25.088308230386346 1.6217857821437416 a46.140672206328034,46.140672206328034 0 0,0 -0.05805692120152066,0.7921405633560997 l -25.05667475052049 -2.0533994819966117" fill="#ffd814" stroke="none" /><path d="M 120.89721153311464 102.0752229133903 l 49.4625877982522 4.9119422173554215 a70.70588263019224,70.70588263019224 0 0,0 -0.13069712543051498,1.2100930610320633 l -49.37070837132064 -5.762631600272275" fill="#39ff89" stroke="none" /><path d="M 120.81339534386255 102.79330883721812 l 18.950689311401035 2.543320157540796 a40.1205936832778,40.1205936832778 0 0,0 -0.09775277378963133,0.6836826722092927 l -18.9041024865948 -2.869148301730498" fill="#ff780b" stroke="none" /><path d="M 120.76222939487914 103.15116336523771 l 23.94505948187875 3.634233722335445 a45.21928009539655,45.21928009539655 0 0,0 -0.12342332400541144,0.7685571563984601 l -23.87895440351205 -4.04587010842711" fill="#ffca12" stroke="none" /><path d="M 120.64145759157962 103.86396538481128 l 22.41152871207056 4.19531279610171 a43.800817280726974,43.800817280726974 0 0,0 -0.14510599018766024,0.7398923177877637 l -22.335992788907234 -4.580468840957419" fill="#ffb410" stroke="none" /><path d="M 120.49622156327973 104.57218783832717 l 46.57143180765015 10.388906729321487 a68.71611513571855,68.71611513571855 0 0,0 -0.2674674458402194,1.1522427564062465 l -46.38570379587938 -11.189018143076298" fill="#36ff6d" stroke="none" /><path d="M 120.32669344350535 105.2749913415812 l 20.290670703235847 5.265643060536393 a41.96278403333223,41.96278403333223 0 0,0 -0.1874575948676882,0.6975994464396484 l -20.19702503202638 -5.61413344015159" fill="#ff960d" stroke="none" /><path d="M 120.23288151984713 105.62410040840565 l 20.609565367963917 5.728806590861941 a42.39096560728105,42.39096560728105 0 0,0 -0.20147288081498912,0.7013535288758176 l -20.507899850262827 -6.0827175952423405" fill="#ff9d0e" stroke="none" /><path d="M 119.9155931802556 106.66101706037122 l 22.152550393576586 7.409195135028013 a44.35875984483921,44.35875984483921 0 0,0 -0.24842842313049146,0.722049284384394 l -22.02173113950286 -7.789417122501708" fill="#ffbc11" stroke="none" /><path d="M 119.79798401119884 107.00284435728193 l 27.45759892567307 9.712165218054269 a50.124661233839376,50.124661233839376 0 0,0 -0.2947228375100467,0.8109506704056336 l -27.286351827157798 -10.183363685466034" fill="#ebff1a" stroke="none" /><path d="M 119.54520255179757 107.68017299344265 l 26.79002813486925 10.526984820429428 a49.78407575164847,49.78407575164847 0 0,0 -0.3202713564599833,0.7948872414709044 l -26.604854164151874 -10.986571429743146" fill="#f0ff19" stroke="none" /><path d="M 119.41010516605496 108.01547362559984 l 28.790889046781512 11.889302496703172 a52.149170229111974,52.149170229111974 0 0,0 -0.3497694980193179,0.8267517730782423 l -28.581968567569884 -12.383128795447577" fill="#ceff1d" stroke="none" /><path d="M 119.12269723197855 108.67885076344098 l 20.69330963619059 9.391674404269775 a43.72480168923536,43.72480168923536 0 0,0 -0.31695355670220204,0.6826897636244269 l -20.528581462648557 -9.746484235173034" fill="#ffb210" stroke="none" /><path d="M 118.81262510543309 109.33194174019688 l 50.834973037494315 25.21652369574794 a77.7456390484854,77.7456390484854 0 0,0 -0.6050140834104795,1.1937501842698413 l -50.39338028429757 -26.087828091720475" fill="#44ffe3" stroke="none" /><line stroke="#e1ed5e" stroke-width="0.3" x1="174.80103733775053" x2="179.2010983576182" y1="140.37084112569926" y2="142.7455964860345" /><path d="M 175.68104954172406 140.8457921977663 a86.0,86.0 0 0,1 -30.038265399797805,32.042727171017184" fill="none" id="id53" stroke="none" /><text fill="#e1ed5e" style="font-size:6.75px; font-family:Arial;" text-anchor="middle"><textPath startOffset="22.206326154141568" xlink:href="#id53">May</textPath></text><path d="M 118.48025628344425 109.97397251340804 l 15.222190767684339 8.215563138415574 a38.29770416700052,38.29770416700052 0 0,0 -0.3180963366939102,0.5774372484262664 l -15.078518021538919 -8.476370905239644" fill="#ff5a08" stroke="none" /><path d="M 118.30583269289576 110.29060199501025 l 25.786766219964182 14.495999846595847 a50.58194252640608,50.58194252640608 0 0,0 -0.4331933997194856,0.7553092063912507 l -25.533420824092318 -14.937728898845414" fill="#e4ff1a" stroke="none" /><path d="M 118.12598468904814 110.60418214915192 l 16.59067490549611 9.705985175058835 a40.22125495482332,40.22125495482332 0 0,0 -0.3547497914786055,0.5945810556880243 l -16.421144238319275 -9.990128324632964" fill="#ff7a0b" stroke="none" /><path d="M 117.75023020441432 111.22182372390056 l 14.184656570993798 8.967642322980911 a37.78162956538953,37.78162956538953 0 0,0 -0.35225996774252943,0.5467152926043286 l -14.028191739874218 -9.210479215506693" fill="#ff5107" stroke="none" /><path d="M 116.93607887273984 112.41649034213515 l 23.98967190799407 17.587750493772436 a50.746148081464135,50.746148081464135 0 0,0 -0.5225372752970995,0.7000240720815831 l -23.683373366001877 -17.998087445363335" fill="#e2ff1b" stroke="none" /><path d="M 116.71984013943494 112.70617746262583 l 19.068310712122017 14.490888537221366 a44.94966229432475,44.94966229432475 0 0,0 -0.4734551841835558,0.6120046479583441 l -18.81604871072039 -14.816971179292963" fill="#ffc612" stroke="none" /><path d="M 116.498646956653 112.99209946851258 l 17.72589552155658 13.958514197532946 a43.56208081369864,43.56208081369864 0 0,0 -0.46898124693315124,0.5851262147123483 l -17.482996362568574 -14.261568245823543" fill="#ffb010" stroke="none" /><path d="M 116.0416608686014 113.55231037782055 l 25.918267861883404 21.896262076406774 a54.929381100736684,54.929381100736684 0 0,0 -0.616405719096662,0.7170191089807563 l -25.537519633215965 -22.339158284549057" fill="#a7ff21" stroke="none" /><path d="M 115.56566222782051 114.09645910891815 l 21.286529324027697 19.277348165157914 a49.71815598090184,49.71815598090184 0 0,0 -0.5799352807309945,0.6294052086244888 l -20.95154763530098 -19.64090462858374" fill="#f1ff19" stroke="none" /><path d="M 115.32070863581623 114.36230785411682 l 17.22721317894887 16.149549281692238 a44.61323391479354,44.61323391479354 0 0,0 -0.5300337896923228,0.5557383094452345 l -16.946672837877582 -16.443694707719978" fill="#ffc011" stroke="none" /><path d="M 114.81725581225074 114.88116024355365 l 15.920062971381286 15.988723631856052 a43.562971621411435,43.562971621411435 0 0,0 -0.5359283710973128,0.5245187090886094 l -15.64248464790818 -16.260392443867236" fill="#ffb010" stroke="none" /><path d="M 114.0293411484842 115.62618273729858 l 42.088023445452606 46.878548211895726 a84.0,84.0 0 0,0 -1.0842305883736492,0.9567074329108447 l -41.27485050417237 -47.59607878657886" fill="#4dd2ff" stroke="none" /><path d="M 113.20401910651253 116.32954008644616 l 20.41253093487528 25.244377448868086 a53.46459628500191,53.46459628500191 0 0,0 -0.7206073039695969,0.5724940240906886 l -19.974966138188332 -25.5920053869639" fill="#bbff1f" stroke="none" /><path d="M 112.92097659922987 116.55440617244103 l 19.080649202191264 24.446203001850776 a52.011095033629175,52.011095033629175 0 0,0 -0.7104994745115684,0.5447806998036289 l -18.6570209991862 -24.77102304348178" fill="#d0ff1d" stroke="none" /><path d="M 112.63410532772338 116.77436683061366 l 10.698976298067361 14.205086033437603 a38.783491306376575,38.783491306376575 0 0,0 -0.5367174034892372,0.3970507040004106 l -10.45287392415956 -14.387146686177783" fill="#ff6209" stroke="none" /><line stroke="#e1ed5e" stroke-width="0.3" x1="143.8653032363475" x2="146.44561519142675" y1="172.8068346515853" y2="177.08958963109032" /><path d="M 144.38136562736335 173.6633856474863 a86.0,86.0 0 0,1 -40.68145358897372,12.25698825130547" fill="none" id="id54" stroke="none" /><text fill="#e1ed5e" style="font-size:6.75px; font-family:Arial;" text-anchor="middle"><textPath startOffset="21.466115282336833" xlink:href="#id54">June</textPath></text><path d="M 109.57404056367764 118.69057910512821 l 5.512743449745917 10.762056714555483 a33.09182389344243,33.09182389344243 0 0,0 -0.5092139799436276,0.25533046065255344 l -5.326675562119529 -10.855355016117338" fill="#ff0000" stroke="none" /><path d="M 109.2508944713604 118.85261126421891 l 7.139775359932476 14.550312922860682 a37.20765246244704,37.20765246244704 0 0,0 -0.5774048852838779,0.27718943377335487 l -6.888257806648365 -14.671056633133597" fill="#ff4806" stroke="none" /><path d="M 108.92500713936063 119.00905698771935 l 7.625000914854456 16.2402197173216 a38.94116427154081,38.94116427154081 0 0,0 -0.6092104164418791,0.2796586223044353 l -7.3443225026451575 -16.36906540996011" fill="#ff6509" stroke="none" /><line stroke="#e1ed5e" stroke-width="0.3" x1="102.19456741930631" x2="102.32365962044197" y1="184.97166512339345" y2="189.96999836594603" /><path d="M 102.22038585953345 185.97133177190398 a86.0,86.0 0 0,1 -42.740103519485714,-10.115201625700543" fill="none" id="id55" stroke="none" /><text fill="#e1ed5e" style="font-size:6.75px; font-family:Arial;" text-anchor="middle"><textPath startOffset="22.20632615414155" xlink:href="#id55">July</textPath></text><line stroke="#e1ed5e" stroke-width="0.3" x1="58.666819895761336" x2="56.23545636021788" y1="174.27360380694188" y2="178.64263932499728" /><path d="M 58.180547188652646 175.14741091055294 a86.0,86.0 0 0,1 -31.652253787137756,-30.449443065178592" fill="none" id="id56" stroke="none" /><text fill="#e1ed5e" style="font-size:6.75px; font-family:Arial;" text-anchor="middle"><textPath startOffset="22.20632615414155" xlink:href="#id56">August</textPath></text><line stroke="#e1ed5e" stroke-width="0.3" x1="26.63291911575756" x2="22.317208475507996" y1="142.92168965132927" y2="145.44649492493687" /><path d="M 25.769776987707644 143.4266507060508 a86.0,86.0 0 0,1 -11.730757126820373,-40.83630448921669" fill="none" id="id57" stroke="none" /><text fill="#e1ed5e" style="font-size:6.75px; font-family:Arial;" text-anchor="middle"><textPath startOffset="21.46611528233685" xlink:href="#id57">September</textPath></text><line stroke="#e1ed5e" stroke-width="0.3" x1="15.007084014347285" x2="10.007500721073583" y1="101.09737516637583" y2="101.16192664675087" /><path d="M 14.007167355692545 101.11028546245083 a86.0,86.0 0 0,1 10.666146001902534,-42.60595125391555" fill="none" id="id58" stroke="none" /><text fill="#e1ed5e" style="font-size:6.75px; font-family:Arial;" text-anchor="middle"><textPath startOffset="22.20632615414155" xlink:href="#id58">October</textPath></text><line stroke="#e1ed5e" stroke-width="0.3" x1="26.266209847984243" x2="21.928928074336255" y1="57.711370442889674" y2="55.22380399835377" /><path d="M 25.398753493254645 57.213857153982495 a86.0,86.0 0 0,1 29.58750427330803,-30.492523968695096" fill="none" id="id59" stroke="none" /><text fill="#e1ed5e" style="font-size:6.75px; font-family:Arial;" text-anchor="middle"><textPath startOffset="21.46611528233685" xlink:href="#id59">November</textPath></text><line stroke="#e1ed5e" stroke-width="0.3" x1="56.762969772571076" x2="54.21961505331055" y1="26.818313649435495" y2="22.513508569990535" /><path d="M 56.25429882871897 25.957352633546506 a86.0,86.0 0 0,1 42.265352541879196,-11.944610805530505" fill="none" id="id60" stroke="none" /><text fill="#e1ed5e" style="font-size:6.75px; font-family:Arial;" text-anchor="middle"><textPath startOffset="22.20632615414155" xlink:href="#id60">December</textPath></text></svg>