<?xml version="1.0" encoding="utf-8" ?>
<svg baseProfile="full" height="200mm" version="1.1" viewBox="0,0,200,200" width="200mm" xmlns="http://www.w3.org/2000/svg" xmlns:ev="http://www.w3.org/2001/xml-events" xmlns:xlink="http://www.w3.org/1999/xlink"><defs /><rect fill="#1a1a1a" height="200" width="200" x="0" y="0" /><text alignment-baseline="middle" fill="#e1ed5e" style="dominant-baseline: central; font-size:9.0px; font-family:Arial;" text-anchor="middle" x="100.0" y="100.0">2021</text><line stroke="#e1ed5e" stroke-width="0.3" x1="100.0" x2="100.0" y1="15.0" y2="10.0" /><path d="M 100.0 14.0 a86.0,86.0 0 0,1 42.46469731375804,11.215312516191453" fill="none" id="id49" stroke="none" /><text fill="#e1ed5e" style="font-size:6.75px; font-family:Arial;" text-anchor="middle"><textPath startOffset="22.20632615414155" xlink:href="#id49">January</textPath></text><path d="M 101.44485096284872 79.0497635885617 l 1.7467916876902403 -25.328355491069136 a46.388518528700246,46.388518528700246 0 0,0 0.7961370085090659,0.06179555444314023 l -2.182518885561647 25.29453467443753" fill="#ddff1b" stroke="none" /><path d="M 102.16513564639614 79.11191278185805 l 2.467427890296901 -23.80444341341186 a44.93198125137454,44.93198125137454 0 0,0 0.7686220829890712,0.08636364675659873 l -2.876816676795697 23.758443813184662" fill="#f0ff19" stroke="none" /><path d="M 102.52436894288641 79.15227682838746 l 3.8024799228075192 -31.403115229925003 a52.632491202990984,52.632491202990984 0 0,0 0.8984748999148868,0.11664782841123926 l -4.342469551230252 31.333009078349626" fill="#92ff23" stroke="none" /><path d="M 103.59715602781102 79.31037775812273 l 4.1186675079536625 -23.689179513102815 a45.044555476138115,45.044555476138115 0 0,0 0.7627649378602742,0.1393904169231805 l -4.5258275669168375 23.6147736148289" fill="#eeff19" stroke="none" /><path d="M 104.307194497241 79.44645832069477 l 4.896834694009089 -23.367251245434545 a44.87482818341764,44.87482818341764 0 0,0 0.7546605750159172,0.16493957195365944 l -5.298337993178535 23.279498175385015" fill="#f0ff19" stroke="none" /><path d="M 105.01212808612495 79.60689891045804 l 5.651251577643828 -22.993535425473357 a44.67782329008138,44.67782329008138 0 0,0 0.7452497319722227,0.18998075035719247 l -6.046210198301075 22.8928516789473" fill="#f3ff19" stroke="none" /><path d="M 106.0581310904928 79.89281104454417 l 7.042602373994975 -23.374690074681094 a45.412586595557514,45.412586595557514 0 0,0 0.7465280550394104,0.23194990061311205 l -7.443915801745104 23.25000003918546" fill="#e9ff1a" stroke="none" /><path d="M 108.43124777332544 80.76684994638697 l 9.551385025264583 -21.78837893863608 a44.7899645370574,44.7899645370574 0 0,0 0.7034538675028721,0.3156192451604781 l -9.925021011234234 21.620739362959068" fill="#f1ff19" stroke="none" /><path d="M 109.41281617654863 81.2277094730956 l 10.786402647550497 -21.51167944238274 a45.064472454365514,45.064472454365514 0 0,0 0.6904295902160722,0.35366485253944574 l -11.155092725355326 21.322822064530794" fill="#eeff19" stroke="none" /><line stroke="#e1ed5e" stroke-width="0.3" x1="143.23703022742887" x2="145.7803849466894" y1="26.81831364943548" y2="22.513508569990506" /><path d="M 143.74570117128098 25.957352633546492 a86.0,86.0 0 0,1 28.547481713284135,27.462654790039103" fill="none" id="id50" stroke="none" /><text fill="#e1ed5e" style="font-size:6.75px; font-family:Arial;" text-anchor="middle"><textPath startOffset="19.985693538727396" xlink:href="#id50">February</textPath></text><path d="M 112.19680574252982 82.90503203632743 l 18.361346175173498 -25.73514994503697 a52.61387315812624,52.61387315812624 0 0,0 0.7327225538029379,0.5323540965665274 l -18.801614045330222 25.415276613653766" fill="#92ff23" stroke="none" /><path d="M 116.38621287248628 86.86637796730983 l 18.88416885805794 -15.135744794312535 a45.20129343523202,45.20129343523202 0 0,0 0.4813849918411658,0.6113100542269756 l -19.14190793049307 14.808442346132521" fill="#ecff1a" stroke="none" /><path d="M 116.60985879189232 87.15038557335679 l 20.950791689127374 -16.207819615517476 a47.48828210908291,47.48828210908291 0 0,0 0.4946109454610101,0.6508500265833524 l -21.226678574812496 15.84478481305309" fill="#cfff1d" stroke="none" /><path d="M 117.04232023915458 87.72973835380427 l 19.60269741385713 -14.113701823688034 a45.154964811963936,45.154964811963936 0 0,0 0.44872720521221937,0.6346928090924823 l -19.84273723887323 13.774182514263758" fill="#edff1a" stroke="none" /><path d="M 117.45458315368197 88.32363383020206 l 36.200170155367594 -24.21635844416596 a64.55323564987904,64.55323564987904 0 0,0 0.609884721498512,0.9288962726278992 l -36.611651512224036 23.589644107560385" fill="#33ff55" stroke="none" /><line stroke="#e1ed5e" stroke-width="0.3" x1="172.23445277983987" x2="176.4835382374775" y1="55.19839476539836" y2="52.563006222186495" /><path d="M 173.08426987136738 54.67131705675599 a86.0,86.0 0 0,1 12.851231095245387,41.99856678651699" fill="none" id="id51" stroke="none" /><text fill="#e1ed5e" style="font-size:6.75px; font-family:Arial;" text-anchor="middle"><textPath startOffset="22.20632615414155" xlink:href="#id51">March</textPath></text><path d="M 118.03404312379186 89.2402003453031 l 20.686895684694935 -12.342592923673232 a45.089152188255994,45.089152188255994 0 0,0 0.3919327865857716,0.6699401791544897 l -20.896288145751036 11.984673332164848" fill="#eeff19" stroke="none" /><path d="M 118.56541770881063 90.18545643968196 l 21.06408836385543 -11.135457119682105 a44.82633467121178,44.82633467121178 0 0,0 0.35474828420776267,0.6852607709783732 l -21.25264608122331 10.771223626443387" fill="#f1ff19" stroke="none" /><path d="M 119.04729006885535 91.15688171328212 l 25.079682449497756 -11.643787525285434 a48.65082746866065,48.65082746866065 0 0,0 0.34611051912542173,0.762608650205005 l -25.276395285586524 11.210356866238365" fill="#c1ff1e" stroke="none" /><path d="M 119.196687751892 91.48605970444005 l 21.64020720051742 -9.597667809676846 a44.6730605344183,44.6730605344183 0 0,0 0.3057111342169622,0.7056234472952869 l -21.80220904457706 9.223745217794956" fill="#f3ff19" stroke="none" /><path d="M 119.47837535516314 92.15188598940014 l 22.40031907407907 -9.025406624612955 a45.150202056300856,45.150202056300856 0 0,0 0.2842451398089279,0.7233728767142298 l -22.552357763769702 8.638484743002941" fill="#edff1a" stroke="none" /><path d="M 119.61058180528143 92.48833698450437 l 22.435910499916034 -8.593880630089286 a45.02550445348581,45.02550445348581 0 0,0 0.271000817300964,0.7261474572370646 l -22.580515905718624 8.206410035822888" fill="#eeff19" stroke="none" /><path d="M 119.97218684219823 93.5106431181261 l 26.44244843890718 -8.591672314424011 a48.80323564987904,48.80323564987904 0 0,0 0.2527182976805872,0.8011860651499071 l -26.586422220355974 8.135236082847685" fill="#bfff1e" stroke="none" /><path d="M 120.08093135843002 93.85539295169968 l 26.63900383218494 -8.151325642484549 a48.858223828898176,48.858223828898176 0 0,0 0.2391589184384399,0.8063249807074546 l -26.775368647735082 7.691571275030565" fill="#bfff1e" stroke="none" /><path d="M 120.37134235888165 94.90015583598534 l 31.9838083342 -8.006955820710457 a53.970825544314934,53.970825544314934 0 0,0 0.21785503566682918,0.9031497693240971 l -32.116896170127646 7.455220819726954" fill="#82ff25" stroke="none" /><path d="M 120.6074358757038 95.95851677861258 l 30.213494442516296 -5.925401470877642 a51.789050472839236,51.789050472839236 0 0,0 0.16403386674269815,0.876275475257029 l -30.311014033168853 5.40444791815805" fill="#9cff22" stroke="none" /><path d="M 120.67395015179393 96.31383870115 l 26.998584135098884 -4.81384231033909 a48.424380085770835,48.424380085770835 0 0,0 0.13925038906747064,0.8218636787887739 l -27.077446385686578 4.348392843234478" fill="#c4ff1e" stroke="none" /><path d="M 120.78858239683441 97.02765380044208 l 26.32490832517545 -3.7639286662452145 a47.592629755883,47.592629755883 0 0,0 0.10897352638199674,0.8119793473543024 l -26.385797850615283 3.3102309768262477" fill="#ceff1d" stroke="none" /><path d="M 120.98425023603335 99.18683210126433 l 22.88821213134971 -0.8869489810365553 a43.905390917088184,43.905390917088184 0 0,0 0.02276453863569534,0.7554442108247266 l -22.900088364441054 0.4928346227868296" fill="#fdff18" stroke="none" /><line stroke="#e1ed5e" stroke-width="0.3" x1="184.98032266829074" x2="189.97916517819016" y1="98.17113171792111" y2="98.06355123074" /><path d="M 185.9800911702706 98.14961562048488 a86.0,86.0 0 0,1 -9.607161424134198,41.387399972396054" fill="none" id="id52" stroke="none" /><text fill="#e1ed5e" style="font-size:6.75px; font-family:Arial;" text-anchor="middle"><textPath startOffset="21.466115282336823" xlink:href="#id52">April</textPath></text><path d="M 120.9904718944345 100.63252640178507 l 45.231708672784144 1.3630112785112063 a66.25224048823401,66.25224048823401 0 0,0 -0.04416143146021126,1.139610319078572 l -45.20154510847273 -2.1413988446037844" fill="#35ff6a" stroke="none" /><line stroke="#e1ed5e" stroke-width="0.3" x1="174.80103733775053" x2="179.2010983576182" y1="140.37084112569926" y2="142.7455964860345" /><path d="M 175.68104954172406 140.8457921977663 a86.0,86.0 0 0,1 -30.038265399797805,32.042727171017184" fill="none" id="id53" stroke="none" /><text fill="#e1ed5e" style="font-size:6.75px; font-family:Arial;" text-anchor="middle"><textPath startOffset="22.206326154141568" xlink:href="#id53">May</textPath></text><line stroke="#e1ed5e" stroke-width="0.3" x1="143.8653032363475" x2="146.44561519142675" y1="172.8068346515853" y2="177.08958963109032" /><path d="M 144.38136562736335 173.6633856474863 a86.0,86.0 0 0,1 -40.68145358897372,12.25698825130547" fill="none" id="id54" stroke="none" /><text fill="#e1ed5e" style="font-size:6.75px; font-family:Arial;" text-anchor="middle"><textPath startOffset="21.466115282336833" xlink:href="#id54">June</textPath></text><line stroke="#e1ed5e" stroke-width="0.3" x1="102.19456741930631" x2="102.32365962044197" y1="184.97166512339345" y2="189.96999836594603" /><path d="M 102.22038585953345 185.97133177190398 a86.0,86.0 0 0,1 -42.740103519485714,-10.115201625700543" fill="none" id="id55" stroke="none" /><text fill="#e1ed5e" style="font-size:6.75px; font-family:Arial;" text-anchor="middle"><textPath startOffset="22.20632615414155" xlink:href="#id55">July</textPath></text><line stroke="#e1ed5e" stroke-width="0.3" x1="58.666819895761336" x2="56.23545636021788" y1="174.27360380694188" y2="178.64263932499728" /><path d="M 58.180547188652646 175.14741091055294 a86.0,86.0 0 0,1 -31.652253787137756,-30.449443065178592" fill="none" id="id56" stroke="none" /><text fill="#e1ed5e" style="font-size:6.75px; font-family:Arial;" text-anchor="middle"><textPath startOffset="22.20632615414155" xlink:href="#id56">August</textPath></text><path d="M 89.1626897886671 117.98757091392108 l -14.274914782299058 23.693244627091257 a48.66121893556191,48.66121893556191 0 0,0 -0.7137460756571843,-0.4384411352760775 l 14.680640057888551 -23.4440150249868" fill="#c1ff1e" stroke="none" /><path d="M 88.24862548938628 117.40417183066458 l -12.956442818514985 19.18891759631601 a44.153487189355616,44.153487189355616 0 0,0 -0.6262291513924276,-0.4307261205899767 l 13.284828854530302 -18.96305068636093" fill="#faff18" stroke="none" /><path d="M 87.36589467227662 116.77436683061367 l -2.9195703041797505 3.8763285566895322 a25.852815042885418,25.852815042885418 0 0,0 -0.35316332968453584,-0.2707905815451633 l 2.985862362357773 -3.8254986333170025" fill="#ff0000" stroke="none" /><path d="M 86.79598089348748 116.32954008644616 l -15.659263917279258 19.365965453301282 a45.9048823400044,45.9048823400044 0 0,0 -0.610163043177934,-0.5021226448469436 l 15.990297089001881 -19.09354768959716" fill="#e3ff1b" stroke="none" /><path d="M 85.97065885151581 115.62618273729859 l -19.46033066678382 21.67533599111853 a50.12944661315153,50.12944661315153 0 0,0 -0.6371224707632096,-0.5819962710142101 l 19.830552687013885 -21.337146953517745" fill="#afff20" stroke="none" /><path d="M 85.44109423537348 115.13401014063109 l -21.521673629723463 22.371820535232583 a52.043208434132396,52.043208434132396 0 0,0 -0.6402554941654558,-0.6266247569595063 l 21.903579076264712 -21.998045675350507" fill="#99ff23" stroke="none" /><path d="M 84.9287848128048 114.62390073753433 l -16.899805692712185 16.398218581857723 a44.54792995381571,44.54792995381571 0 0,0 -0.5292579368145771,-0.5549248308047363 l 17.17957018090572 -16.104886634470486" fill="#f4ff19" stroke="none" /><path d="M 84.67929136418377 114.36230785411682 l -21.42313186608733 20.082988481406762 a50.36455355179239,50.36455355179239 0 0,0 -0.5874751572477624,-0.6375882554397387 l 21.765653431330822 -19.711248971165677" fill="#acff20" stroke="none" /><path d="M 84.19399662182784 113.82643327865904 l -34.470805077375765 30.153624231295897 a66.79822547833737,66.79822547833737 0 0,0 -0.7495953419690596,-0.8719487304278102 l 34.98474292891561 -29.555798401706557" fill="#36ff71" stroke="none" /><path d="M 83.72743513129214 113.27417163493432 l -24.313898658532878 19.833804105977613 a52.377467286122716,52.377467286122716 0 0,0 -0.563886055491659,-0.7035345556704985 l 24.6517026260794 -19.412341716728854" fill="#95ff23" stroke="none" /><path d="M 83.50135304334701 112.99209946851258 l -22.535511674957682 17.745916378725433 a49.68391246976029,49.68391246976029 0 0,0 -0.5233210824878656,-0.6764630435074018 l 22.837639574663616 -17.35537534110478" fill="#b5ff20" stroke="none" /><path d="M 83.06392112726016 112.41649034213515 l -23.81286903576176 17.458129512904925 a50.526920222124474,50.526920222124474 0 0,0 -0.5082050752351547,-0.7058524006296492 l 24.109853903372525 -17.04564350682414" fill="#aaff21" stroke="none" /><path d="M 82.6465618267979 111.8261652097733 l -38.88995372219379 26.503048740469644 a68.06208764020232,68.06208764020232 0 0,0 -0.6514413454734941,-0.9738164227604309 l 39.340398173078015 -25.829695403503393" fill="#38ff80" stroke="none" /><path d="M 82.24976979558568 111.22182372390057 l -25.878758210383467 16.36073783190407 a51.616725313393445,51.616725313393445 0 0,0 -0.4683243503213125,-0.7550879704374238 l 26.156547200372735 -15.912853530101385" fill="#9eff22" stroke="none" /><path d="M 82.05923443525364 110.91462005526583 l -23.175872670722836 14.099501146551814 a48.12779030129755,48.12779030129755 0 0,0 -0.424485103532641,-0.7114614498582448 l 23.415138649953708 -13.69847760280746" fill="#c8ff1d" stroke="none" /><line stroke="#e1ed5e" stroke-width="0.3" x1="26.63291911575756" x2="22.317208475507996" y1="142.92168965132927" y2="145.44649492493687" /><path d="M 25.769776987707644 143.4266507060508 a86.0,86.0 0 0,1 -11.730757126820373,-40.83630448921669" fill="none" id="id57" stroke="none" /><text fill="#e1ed5e" style="font-size:6.75px; font-family:Arial;" text-anchor="middle"><textPath startOffset="21.46611528233685" xlink:href="#id57">September</textPath></text><path d="M 81.69416730710424 110.29060199501025 l -27.753898887440815 15.60182112727657 a52.83858862986584,52.83858862986584 0 0,0 -0.43887125468264154,-0.796678806022149 l 28.018346551574975 -15.1217718028566" fill="#8fff24" stroke="none" /><path d="M 81.35079622478065 109.6543875284942 l -39.20339377563585 20.294955243347594 a65.14511628546295,65.14511628546295 0 0,0 -0.5069572171570806,-1.0002746844945882 l 39.5469296625792 -19.61712634715032" fill="#34ff5c" stroke="none" /><path d="M 81.02952815118164 109.00673069616217 l -29.477347160511336 13.995146226610238 a53.630937981086426,53.630937981086426 0 0,0 -0.3887614325433511,-0.8373575398577149 l 29.713883209894515 -13.485668619473696" fill="#86ff25" stroke="none" /><path d="M 80.87730276802145 108.67885076344099 l -29.87435174217024 13.558497385570588 a53.807159940620195,53.807159940620195 0 0,0 -0.3755199521232298,-0.8466983576657867 l 30.10331277902475 -13.042250691412105" fill="#84ff25" stroke="none" /><path d="M 80.58989483394504 108.01547362559985 l -26.818024948888162 11.074601081730336 a50.01470749945018,50.01470749945018 0 0,0 -0.32175505865986387,-0.798569668653468 l 27.004682621805415 -10.611332045234063" fill="#b1ff20" stroke="none" /><path d="M 80.32549172779594 107.34259656027581 l -22.485924975495145 8.391827287137303 a45.000824719595336,45.000824719595336 0 0,0 -0.26459571845839996,-0.7280537778582903 l 22.62704495495877 -8.003525712272896" fill="#efff19" stroke="none" /><path d="M 80.0844068197444 106.66101706037122 l -29.718586219368525 9.939749623605552 a52.33676737409281,52.33676737409281 0 0,0 -0.2784010701164815,-0.8568303902294723 l 29.88527954050126 -9.426720333398276" fill="#95ff23" stroke="none" /><path d="M 79.97269907076064 106.31721596034903 l -30.233373366444507 9.536519645882626 a52.70176764899934,52.70176764899934 0 0,0 -0.26544933613650795,-0.8675037892899119 l 30.393049475087146 -9.014688884040666" fill="#91ff24" stroke="none" /><path d="M 79.58551787078972 104.9243191809786 l -45.605962055974956 11.000931216270212 a67.91400923685947,67.91400923685947 0 0,0 -0.26434536573371153,-1.1387929170198408 l 45.78856798763922 -10.214269641901796" fill="#38ff7e" stroke="none" /><path d="M 79.4281124754447 104.21870165774334 l -34.97506474160101 7.1723784912275566 a56.702915383769515,56.702915383769515 0 0,0 -0.18784883922495044,-0.9578371841723583 l 35.09334351380163 -6.569277579987243" fill="#64ff29" stroke="none" /><path d="M 79.35854240842038 103.8639653848113 l -26.882950675321165 5.032337972750752 a48.349907906311856,48.349907906311856 0 0,0 -0.14609398424895595,-0.8193726489348729 l 26.965591101909308 -4.5688465730826655" fill="#c5ff1e" stroke="none" /><path d="M 79.1416061653843 102.43462659150553 l -48.13296860755426 5.618160546262966 a69.45973993842094,69.45973993842094 0 0,0 -0.1283936782259509,-1.188766000704523 l 48.22254458728126 -4.788798223673661" fill="#3aff90" stroke="none" /><path d="M 79.04373962182676 101.35467743843564 l -24.352233433600905 1.5742036323607156 a45.40306108423137,45.40306108423137 0 0,0 -0.04370293073279145,-0.7803451862023292 l 24.37572271522123 -1.1547867298229488" fill="#eaff1a" stroke="none" /><path d="M 79.0095281055655 100.63252640178507 l -28.144635918714222 0.8481098174803519 a49.15741148009677,49.15741148009677 0 0,0 -0.018206822145689885,-0.8459994827762957 l 28.15506480354492 -0.3635205189139273" fill="#bbff1f" stroke="none" /><line stroke="#e1ed5e" stroke-width="0.3" x1="15.007084014347285" x2="10.007500721073583" y1="101.09737516637583" y2="101.16192664675087" /><path d="M 14.007167355692545 101.11028546245083 a86.0,86.0 0 0,1 10.666146001902534,-42.60595125391555" fill="none" id="id58" stroke="none" /><text fill="#e1ed5e" style="font-size:6.75px; font-family:Arial;" text-anchor="middle"><textPath startOffset="22.20632615414155" xlink:href="#id58">October</textPath></text><path d="M 79.00175016825051 100.2711162175752 l -25.61932525141116 0.33078064194137724 a46.621460578403344,46.621460578403344 0 0,0 -0.003453768218530976,-0.802534100542562 l 25.621223316919192 0.11026293680486016" fill="#daff1c" stroke="none" /><path d="M 79.00019446554 99.90962569577889 l -47.070744282194674 -0.20257262652708696 a68.07118017374093,68.07118017374093 0 0,0 0.01512798635045482,-1.1716792144685813 l 47.06028328872651 1.0127880990561402" fill="#38ff80" stroke="none" /><path d="M 79.01574976396665 99.18683210126434 l -31.49757535394486 -1.2205733765914546 a52.52121591159006,52.52121591159006 0 0,0 0.0427832616874598,-0.9030870348728601 l 31.4718984840239 1.7625715180873238" fill="#93ff23" stroke="none" /><path d="M 79.03285615573316 98.82574320788736 l -28.8327047882647 -1.6147644945859556 a49.877886518583686,49.877886518583686 0 0,0 0.05538680169344377,-0.8568093074188556 l 28.80063739556684 2.110832866257823" fill="#b2ff20" stroke="none" /><path d="M 79.08570108090925 98.10471618934814 l -30.32058765042611 -2.7476952072654734 a51.44483313173521,51.44483313173521 0 0,0 0.08751225277446167,-0.8812364426815519 l 30.26879827196942 3.2692071806514558" fill="#a0ff22" stroke="none" /><path d="M 79.16333360222342 97.38593545837743 l -22.62413114085613 -2.8383109788925536 a43.80147624807565,43.80147624807565 0 0,0 0.1002928678657494,-0.7472983585798089 l 22.571922273932547 3.227327679537022" fill="#feff18" stroke="none" /><path d="M 79.21141760316559 97.0276538004421 l -62.36574719050324 -8.91703859867371 a84.0,84.0 0 0,0 0.21697642624279112,-1.4296035504316318 l 62.20301487082115 9.989241261497433" fill="#4dd2ff" stroke="none" /><path d="M 79.26566170972629 96.67025291283419 l -29.26069081158061 -4.699002140040504 a50.63559764680009,50.63559764680009 0 0,0 0.14560902298577302,-0.8593926961162462 l 29.175469927074612 5.2019806244725775" fill="#a9ff21" stroke="none" /><path d="M 79.32604984820605 96.31383870115002 l -29.175469927074612 -5.2019806244725775 a50.63559764680009,50.63559764680009 0 0,0 0.16038048199373442,-0.8567589478425066 l 29.081603721171017 5.703417649777657" fill="#a9ff21" stroke="none" /><path d="M 79.46518482838121 95.60439243477599 l -33.88871115502072 -7.254093785785821 a55.656408071255775,55.656408071255775 0 0,0 0.20859389116728233,-0.935085512951185 l 33.758822876851404 7.836357468286966" fill="#6fff27" stroke="none" /><path d="M 79.62865764111835 94.90015583598534 l -22.8757585406751 -5.7268098309784055 a44.581702221244775,44.581702221244775 0 0,0 0.19277057586450916,-0.742823664872843 l 22.773791632940284 6.119729921400113" fill="#f4ff19" stroke="none" /><path d="M 79.81627453868168 94.20196356495316 l -31.96681304369559 -9.182880885636653 a54.259621728612274,54.259621728612274 0 0,0 0.26559853041194437,-0.8954662084469506 l 31.80400861617194 9.731776480830142" fill="#7fff26" stroke="none" /><path d="M 79.91906864156998 93.8553929516997 l -26.234498046697546 -8.027550053782038 a48.43520453045964,48.43520453045964 0 0,0 0.2508125183453779,-0.7951442238561208 l 26.092430044583963 8.477944444064574" fill="#c4ff1e" stroke="none" /><path d="M 80.2630227832202 92.82701384747504 l -29.801202424327215 -10.830615548188234 a52.708262315812625,52.708262315812625 0 0,0 0.3172420240367282,-0.8500509016073333 l 29.61035581178886 11.34198958682491" fill="#91ff24" stroke="none" /><path d="M 80.38941819471856 92.48833698450439 l -33.700161623871445 -12.90855417752492 a57.08783263690345,57.08783263690345 0 0,0 0.3593990332320544,-0.9146313380490609 l 33.472969040757704 13.486734520469744" fill="#5fff29" stroke="none" /><path d="M 80.65960295795068 91.81776055985345 l -26.615243578972034 -11.259970270904875 a49.89910243017374,49.89910243017374 0 0,0 0.3414745042727444,-0.7881702362118825 l 26.41747836485661 11.716439651703357" fill="#b2ff20" stroke="none" /><path d="M 80.803312248108 91.48605970444005 l -21.734802710730932 -9.639621949713659 a44.77654222564328,44.77654222564328 0 0,0 0.3185481744239884,-0.7018786771826401 l 21.56565221934359 10.01232263573837" fill="#f2ff19" stroke="none" /><path d="M 81.10775173730289 90.83032412892265 l -19.997576703567052 -9.70616593795166 a43.228646635144045,43.228646635144045 0 0,0 0.33067853502433503,-0.6666277483313348 l 19.827538155589302 10.048953274781956" fill="#fff917" stroke="none" /><path d="M 81.43458229118936 90.18545643968196 l -27.10208523553139 -14.327423184954336 a51.656126292060705,51.656126292060705 0 0,0 0.42233040524259885,-0.7825141000420931 l 26.851446731070318 14.791818268328901" fill="#9dff22" stroke="none" /><line stroke="#e1ed5e" stroke-width="0.3" x1="26.266209847984243" x2="21.928928074336255" y1="57.711370442889674" y2="55.22380399835377" /><path d="M 25.398753493254645 57.213857153982495 a86.0,86.0 0 0,1 29.58750427330803,-30.492523968695096" fill="none" id="id59" stroke="none" /><text fill="#e1ed5e" style="font-size:6.75px; font-family:Arial;" text-anchor="middle"><textPath startOffset="21.46611528233685" xlink:href="#id59">November</textPath></text><path d="M 82.34701348167596 88.62581576622439 l -11.966575985872376 -7.71031234683736 a35.235443699142294,35.235443699142294 0 0,0 0.3328966945031619,-0.5070245044577493 l 11.832082656011293 7.915154915272775" fill="#ff8c0c" stroke="none" /><path d="M 82.95767976084542 87.72973835380427 l -24.86072358616942 -17.89941620831676 a51.634044424895535,51.634044424895535 0 0,0 0.525529798130103,-0.7168220540472009 l 24.548931175525684 18.32470070603546" fill="#9dff22" stroke="none" /><path d="M 83.17141714833178 87.43820079747576 l -6.1545813714308375 -4.594125128952638 a28.680159995601496,28.680159995601496 0 0,0 0.29871623948857445,-0.39307555604295524 l 6.074589191718154 4.69938546087662" fill="#ff2b04" stroke="none" /><path d="M 83.39014120810768 87.1503855733568 l -7.217727015709313 -5.583732550086572 a30.125439850450846,30.125439850450846 0 0,0 0.32083008061262397,-0.40742162157323814 l 7.120542854502718 5.707146565612859" fill="#ff4106" stroke="none" /><path d="M 83.84228863543731 86.58626213691792 l -17.872602615682528 -14.83739875088981 a44.2288253243897,44.2288253243897 0 0,0 0.49133883457676275,-0.5815902038927301 l 17.61455316761864 15.142847904411655" fill="#f9ff18" stroke="none" /><path d="M 84.31358615837235 86.03803664274999 l -31.219309887796232 -27.78728555122807 a62.79447987684187,62.79447987684187 0 0,0 0.7255942798249273,-0.8012193265646539 l 30.73637196735526 28.320557665062278" fill="#31ff3f" stroke="none" /><path d="M 84.80347519578584 85.50635884689758 l -17.142775352147762 -16.34987192949388 a44.68951369034529,44.68951369034529 0 0,0 0.5357117920756496,-0.5520980921299282 l 16.858799296368996 16.64253421717393" fill="#f3ff19" stroke="none" /><path d="M 85.05521093208273 85.24692304244772 l -16.95401193290104 -16.736525463735195 a44.82330382669892,44.82330382669892 0 0,0 0.546767893267797,-0.5444198981718408 l 16.66340823946593 17.025881212557145" fill="#f1ff19" stroke="none" /><path d="M 85.57189188830299 84.74124197986013 l -15.909749794434099 -16.825700250847813 a44.15651803386848,44.15651803386848 0 0,0 0.5567760883066016,-0.5174626944308169 l 15.617765822332641 17.09706753135328" fill="#f9ff18" stroke="none" /><path d="M 86.10567301691215 84.25364557470407 l -29.520192832353477 -33.455051087189446 a65.61706207389489,65.61706207389489 0 0,0 0.8533536460457285,-0.7400198727643869 l 28.939945387660973 33.95823595337351" fill="#35ff62" stroke="none" /><path d="M 86.65592168130627 83.78471172551755 l -18.898272122403924 -22.964563234397502 a50.74081124917528,50.74081124917528 0 0,0 0.6791937902963493,-0.5491941436575698 l 18.500174933543075 23.28646347531921" fill="#a8ff21" stroke="none" /><path d="M 86.93701828274178 83.55741782278169 l -13.543919650643925 -17.04794637836301 a42.7731540026391,42.7731540026391 0 0,0 0.5804264954240215,-0.45303208625096136 l 13.248460600060477 17.278556853837195" fill="#fff316" stroke="none" /><path d="M 87.51073957382395 83.11751280151077 l -13.525110951406226 -18.28270887975826 a43.741725313393445,43.741725313393445 0 0,0 0.609165354222298,-0.4425845364299509 l 13.208400280830148 18.51281265100488" fill="#ffff18" stroke="none" /><path d="M 88.70189139769569 82.29822771554957 l -12.197661797802 -19.111183928909398 a43.67201588959754,43.67201588959754 0 0,0 0.637155678374657,-0.3989868273454378 l 11.866886967055102 19.318315097577766" fill="#fffe18" stroke="none" /><path d="M 89.00827224532344 82.1063720568725 l -12.288640431250995 -20.004895018449226 a44.47778755223224,44.47778755223224 0 0,0 0.6558100112801692,-0.39511819388800695 l 11.942468353753176 20.21345982179585" fill="#f5ff19" stroke="none" /><line stroke="#e1ed5e" stroke-width="0.3" x1="56.762969772571076" x2="54.21961505331055" y1="26.818313649435495" y2="22.513508569990535" /><path d="M 56.25429882871897 25.957352633546506 a86.0,86.0 0 0,1 42.265352541879196,-11.944610805530505" fill="none" id="id60" stroke="none" /><text fill="#e1ed5e" style="font-size:6.75px; font-family:Arial;" text-anchor="middle"><textPath startOffset="22.20632615414155" xlink:href="#id60">December</textPath></text><path d="M 89.63071344664047 81.73862282372117 l -11.297508164844487 -19.896070639833315 a43.87984522762261,43.87984522762261 0 0,0 0.6600279086977593,-0.3673048165932511 l 10.953356167074682 20.08759085398675" fill="#fdff18" stroke="none" /><path d="M 90.26544431104013 81.39251694778311 l -18.332373998114953 -35.042106632940104 a60.54775813723334,60.54775813723334 0 0,0 0.9276479133650913,-0.4751772912660305 l 17.7264655971611 35.35247644951863" fill="#3aff2e" stroke="none" /><path d="M 90.91171255644093 81.06846463323043 l -9.788659715830809 -20.390459561757925 a43.61832664394106,43.61832664394106 0 0,0 0.6796603268832543,-0.31910963672170023 l 9.436221177647946 20.555934181119632" fill="#fffe18" stroke="none" /><path d="M 91.23893434514133 80.91482961587045 l -13.175377332576494 -28.701339674126316 a52.58096684627226,52.58096684627226 0 0,0 0.825816337819347,-0.37051971881108187 l 12.679378876290372 28.923879723453926" fill="#92ff23" stroke="none" /><path d="M 92.57280143429618 80.3572730644239 l -19.231321445607957 -50.86111437907533 a75.37551544974708,75.37551544974708 0 0,0 1.2175574783122365,-0.448436694652641 l 18.35298164152315 51.18461434153429" fill="#42ffd3" stroke="none" /><path d="M 93.25333710446033 80.11325718540243 l -9.254915103961558 -27.280170847886396 a49.80731113921267,49.80731113921267 0 0,0 0.8142716900956526,-0.26845257392900274 l 8.783960591623496 27.435437146074634" fill="#b3ff20" stroke="none" /><path d="M 93.59665428221793 80.00007090966166 l -10.7874265705796 -33.69297488962569 a56.37774906531779,56.37774906531779 0 0,0 0.9267820776662735,-0.28795570287489647 l 10.205859120202597 33.87367072738311" fill="#67ff28" stroke="none" /><path d="M 94.28887869178378 79.79150937346287 l -7.582747575954452 -26.831137887339544 a48.88203760721355,48.88203760721355 0 0,0 0.8116795091752734,-0.2218626712286959 l 7.119770177555456 26.957687099394533" fill="#beff1e" stroke="none" /><path d="M 98.19473922651362 79.07773832637324 l -2.0108191120552332 -23.30460189388633 a44.391191994721794,44.391191994721794 0 0,0 0.7618581476570452,-0.05913485510447516 l 1.609370775035854 23.335762011179266" fill="#f6ff19" stroke="none" /><path d="M 99.27714615592234 79.0124445844662 l -0.9736350050700773 -28.268810895631578 a49.285572905212234,49.285572905212234 0 0,0 0.8481187293859356,-0.02190440458605874 l 0.48688964048926264 28.281382092359998" fill="#b9ff1f" stroke="none" /></svg>