<?xml version="1.0" encoding="utf-8" ?>
<svg baseProfile="full" height="200mm" version="1.1" viewBox="0,0,200,200" width="200mm" xmlns="http://www.w3.org/2000/svg" xmlns:ev="http://www.w3.org/2001/xml-events" xmlns:xlink="http://www.w3.org/1999/xlink"><defs /><rect fill="#1a1a1a" height="200" width="200" x="0" y="0" /><text alignment-baseline="middle" fill="#e1ed5e" style="dominant-baseline: central; font-size:9.0px; font-family:Arial;" text-anchor="middle" x="100.0" y="100.0">2022</text><line stroke="#e1ed5e" stroke-width="0.3" x1="100.0" x2="100.0" y1="15.0" y2="10.0" /><path d="M 100.0 14.0 a86.0,86.0 0 0,1 42.46469731375804,11.215312516191453" fill="none" id="id37" stroke="none" /><text fill="#e1ed5e" style="font-size:6.75px; font-family:Arial;" text-anchor="middle"><textPath startOffset="22.20632615414155" xlink:href="#id37">January</textPath></text><path d="M 100.0 79.0 l 0.0 -24.914875147096268 a45.91487514709627,45.91487514709627 0 0,0 0.7903490987576505,0.00680278421512268 l -0.4288686194851221 24.911183739489704" fill="#feff18" stroke="none" /><path d="M 108.09893153111575 80.62456947434976 l 8.009172399989867 -19.160695803855074 a41.767260440911045,41.767260440911045 0 0,0 0.6609494779579419,0.2829840729158989 l -8.337805635738123 19.019992202976383" fill="#ffc612" stroke="none" /><path d="M 110.36928655335952 81.73862282372117 l 9.561051055364011 -16.837991565301415 a40.36315204806384,40.36315204806384 0 0,0 0.6012250404111021,0.34826834979726073 l -9.849472828240442 16.670919058114105" fill="#ffb110" stroke="none" /><line stroke="#e1ed5e" stroke-width="0.3" x1="143.23703022742887" x2="145.7803849466894" y1="26.81831364943548" y2="22.513508569990506" /><path d="M 143.74570117128098 25.957352633546492 a86.0,86.0 0 0,1 28.547481713284135,27.462654790039103" fill="none" id="id38" stroke="none" /><text fill="#e1ed5e" style="font-size:6.75px; font-family:Arial;" text-anchor="middle"><textPath startOffset="19.985693538727396" xlink:href="#id38">February</textPath></text><path d="M 113.89432698308785 84.25364557470407 l 10.9209931025645 -12.376693615927529 a37.506078735084316,37.506078735084316 0 0,0 0.4804153846713033,0.43132167579522085 l -11.132419474831792 12.18687293136301" fill="#ff870c" stroke="none" /><path d="M 114.42810811169701 84.74124197986012 l 13.753742700161403 -14.545568282988432 a41.01846634828258,41.01846634828258 0 0,0 0.5088570383356072,0.4895200677119511 l -14.002082982109428 14.306665128514178" fill="#ffbb11" stroke="none" /><path d="M 115.4437574822437 85.77008943001954 l 14.901269047326624 -13.730060587034666 a41.262339029452086,41.262339029452086 0 0,0 0.47678899850255735,0.5264823206514566 l -15.135401686445217 13.47152547911366" fill="#ffbe11" stroke="none" /><path d="M 116.15771136456269 86.58626213691792 l 16.60303172418231 -13.783431963580233 a42.57877798043368,42.57877798043368 0 0,0 0.4633007130510902,0.56795189290769 l -16.837830929309806 13.495595901064442" fill="#ffd113" stroke="none" /><path d="M 116.38621287248628 86.86637796730983 l 18.855990924093152 -15.113160055713356 a45.165181575959515,45.165181575959515 0 0,0 0.4810004075569534,0.6108216712411714 l -19.113345412244072 14.786345990519147" fill="#fff517" stroke="none" /><path d="M 117.2510076193507 88.02491185347247 l 28.05185719946834 -19.472686468506698 a55.148092342620366,55.148092342620366 0 0,0 0.5346096364761417,0.7844736741644627 l -28.382891301613217 18.98693477107183" fill="#87ff25" stroke="none" /><line stroke="#e1ed5e" stroke-width="0.3" x1="172.23445277983987" x2="176.4835382374775" y1="55.19839476539836" y2="52.563006222186495" /><path d="M 173.08426987136738 54.67131705675599 a86.0,86.0 0 0,1 12.851231095245387,41.99856678651699" fill="none" id="id39" stroke="none" /><text fill="#e1ed5e" style="font-size:6.75px; font-family:Arial;" text-anchor="middle"><textPath startOffset="22.20632615414155" xlink:href="#id39">March</textPath></text><path d="M 118.03404312379186 89.2402003453031 l 22.838283649587822 -13.626193241298862 a47.59436674012467,47.59436674012467 0 0,0 0.41370910467242783,0.7071629656618057 l -23.069452428730578 13.231050863283162" fill="#e8ff1a" stroke="none" /><path d="M 118.3937258080291 89.86733742301442 l 17.68737571717262 -9.743551245949677 a41.19356458485909,41.19356458485909 0 0,0 0.3367905430257804,0.6240217266079156 l -17.852474359416867 9.437648536009302" fill="#ffbd11" stroke="none" /><path d="M 118.56541770881063 90.18545643968196 l 30.07151546925629 -15.897202159783854 a55.014953757527834,55.014953757527834 0 0,0 0.4353793499825494,0.8410143257024845 l -30.340704252398957 15.377215111821025" fill="#89ff24" stroke="none" /><path d="M 119.04729006885535 91.15688171328212 l 23.987377390881 -11.136661167488084 a47.44654034182895,47.44654034182895 0 0,0 0.3375430092940158,0.7437312779579658 l -24.175522717138364 10.722107880688055" fill="#eaff1a" stroke="none" /><path d="M 119.34039704204932 91.81776055985345 l 22.302137686309578 -9.435247382965049 a45.21588814305308,45.21588814305308 0 0,0 0.29708628437718343,0.719418002292048 l -22.46124565757296 9.049954810219697" fill="#fff617" stroke="none" /><path d="M 119.7369772167798 92.82701384747503 l 26.396315170015722 -9.59318142350774 a49.085487077477154,49.085487077477154 0 0,0 0.2817668687685608,0.796592881143331 l -26.557535119594093 9.137390915937795" fill="#d4ff1c" stroke="none" /><path d="M 120.37134235888165 94.90015583598534 l 26.089310357289545 -6.531303378286274 a47.894423933934505,47.894423933934505 0 0,0 0.19332743809527697,0.8014670424547519 l -26.19787059564564 6.081251104172116" fill="#e4ff1b" stroke="none" /><path d="M 120.6074358757038 95.95851677861258 l 23.058532247591845 -4.522186639354554 a44.49778886223957,44.49778886223957 0 0,0 0.14093991494208527,0.752906661295044 l -23.13295788644379 4.124601900596947" fill="#ffec16" stroke="none" /><path d="M 120.73433829027371 96.67025291283417 l 19.674257034713257 -3.1595076310787595 a40.92633629995261,40.92633629995261 0 0,0 0.10571488320922279,0.6965289961972958 l -19.725727811361782 2.8203795224893815" fill="#ffba11" stroke="none" /><path d="M 120.83666639777658 97.38593545837742 l 28.844885355835718 -3.6187358657287163 a50.07099345494091,50.07099345494091 0 0,0 0.09992655525981826,0.856109701347231 l -28.902902264099126 3.1216824260566325" fill="#c7ff1e" stroke="none" /><path d="M 120.91429891909075 98.10471618934814 l 18.91085407271332 -1.713728760799964 a39.98834558420114,39.98834558420114 0 0,0 0.05622269259895079,0.6860592565654212 l -18.937551249131765 1.387955587026774" fill="#ffac0f" stroke="none" /><path d="M 120.96714384426684 98.82574320788733 l 23.324413828682708 -1.3062747870576752 a44.36096389858406,44.36096389858406 0 0,0 0.03613600131375707,0.7627738744417513 l -23.34344343822996 0.904589805992924" fill="#ffea16" stroke="none" /><line stroke="#e1ed5e" stroke-width="0.3" x1="184.98032266829074" x2="189.97916517819016" y1="98.17113171792111" y2="98.06355123074" /><path d="M 185.9800911702706 98.14961562048488 a86.0,86.0 0 0,1 -9.607161424134198,41.387399972396054" fill="none" id="id40" stroke="none" /><text fill="#e1ed5e" style="font-size:6.75px; font-family:Arial;" text-anchor="middle"><textPath startOffset="21.466115282336823" xlink:href="#id40">April</textPath></text><path d="M 120.99513854157772 99.54816195383933 l 8.929997447675508 -0.19218318521627809 a29.932065203085507,29.932065203085507 0 0,0 0.006652035012136861,0.5152074424897859 l -8.93198248980536 0.0384394846660295" fill="#ff1001" stroke="none" /><path d="M 120.99824983174949 100.27111621757518 l 36.54128076525801 0.4717980739256788 a57.54432641858343,57.54432641858343 0 0,0 -0.02131315065320054,0.9903383624368571 l -36.5277455519198 -1.1007262521526506" fill="#6bff28" stroke="none" /><path d="M 120.9764740272857 100.99374915477107 l 21.169899133848734 1.0029125649756812 a42.19364204072333,42.19364204072333 0 0,0 -0.040613689285160647,0.7251847049197999 l -21.149499093676045 -1.3671689862309044" fill="#ffcc13" stroke="none" /><path d="M 120.92983693683757 101.71520430193887 l 21.297283382754642 1.7453166113023442 a42.368678236125064,42.368678236125064 0 0,0 -0.06582358250763198,0.7263577479810545 l -21.264085203969938 -2.111655747831969" fill="#ffce13" stroke="none" /><path d="M 120.8583938346157 102.4346265915055 l 41.99517437934762 4.901746945116797 a63.28027665786704,63.28027665786704 0 0,0 -0.13559604495456773,1.0808338924266045 l -41.9045768251462 -5.623898591830797" fill="#30ff36" stroke="none" /><path d="M 120.76222939487914 103.15116336523771 l 27.23833967915222 4.134067517239499 a48.550275183997215,48.550275183997215 0 0,0 -0.13251507613444738,0.825171505584722 l -27.16314284865648 -4.602318252517426" fill="#dbff1b" stroke="none" /><path d="M 120.70491114924044 103.5080841355445 l 18.80684643979103 3.1864903529167186 a40.074883847067376,40.074883847067376 0 0,0 -0.12109018823524784,0.679138082272167 l -18.749209809216595 -3.509747185922104" fill="#ffad10" stroke="none" /><path d="M 120.5718875245553 104.21870165774334 l 20.31961554186787 4.166967939566271 a41.74247809637728,41.74247809637728 0 0,0 -0.15040403481839362,0.7026375785901252 l -20.24487746832503 -4.516119337572565" fill="#ffc512" stroke="none" /><path d="M 120.32669344350535 105.2749913415812 l 22.652430684960173 5.878544686131056 a44.40277555256566,44.40277555256566 0 0,0 -0.19835760906430905,0.7381624541700846 l -22.547884999554086 -6.267598073476688" fill="#ffeb16" stroke="none" /><path d="M 120.23288151984713 105.62410040840565 l 20.87214655058417 5.80179584525784 a42.66350240979315,42.66350240979315 0 0,0 -0.2027681750821428,0.705862618146423 l -20.769185738615928 -6.160215938908845" fill="#ffd213" stroke="none" /><path d="M 120.13307415673323 105.97154293290107 l 20.58243396812785 6.1048246853634005 a42.46870914823165,42.46870914823165 0 0,0 -0.21390725876699002,0.699061298241685 l -20.474299936854727 -6.458212956157142" fill="#ffd013" stroke="none" /><path d="M 119.9155931802556 106.66101706037122 l 20.05197189436372 6.706630612180781 a42.1438045540672,42.1438045540672 0 0,0 -0.23602370640451095,0.6859953710595059 l -19.93355735701598 -7.050798686329587" fill="#ffcb12" stroke="none" /><path d="M 119.67450827220406 107.3425965602758 l 33.25118597432208 12.40946103365036 a56.491352352997765,56.491352352997765 0 0,0 -0.3478407148924487,0.9081023443855748 l -33.03265097983612 -12.979986944869077" fill="#77ff27" stroke="none" /><path d="M 119.41010516605496 108.01547362559984 l 19.150093711770186 7.908100948515207 a41.71869083174627,41.71869083174627 0 0,0 -0.27981126998061334,0.6613911873212288 l -19.011131460597262 -8.2365666615026" fill="#ffc512" stroke="none" /><path d="M 119.26925614724726 108.34839909993367 l 25.15941878249869 10.900310189123308 a48.41921070512886,48.41921070512886 0 0,0 -0.33791747614817264,0.761914701105757 l -24.968060221619243 -11.331773226721753" fill="#ddff1b" stroke="none" /><path d="M 118.81262510543309 109.33194174019688 l 17.359016987979405 8.610884142486206 a40.37737847347463,40.37737847347463 0 0,0 -0.3142154714608804,0.6199769348218185 l -17.208222846732255 -8.908415289010719" fill="#ffb210" stroke="none" /><path d="M 118.64920377521936 109.65438752849418 l 44.57906469960607 23.077852087159677 a71.1984090031595,71.1984090031595 0 0,0 -0.572799648545809,1.083521069865046 l -44.17521254283537 -23.841788172110856" fill="#3bff9c" stroke="none" /><line stroke="#e1ed5e" stroke-width="0.3" x1="174.80103733775053" x2="179.2010983576182" y1="140.37084112569926" y2="142.7455964860345" /><path d="M 175.68104954172406 140.8457921977663 a86.0,86.0 0 0,1 -30.038265399797805,32.042727171017184" fill="none" id="id41" stroke="none" /><text fill="#e1ed5e" style="font-size:6.75px; font-family:Arial;" text-anchor="middle"><textPath startOffset="22.206326154141568" xlink:href="#id41">May</textPath></text><path d="M 118.30583269289576 110.29060199501025 l 29.405341717317068 16.530177742617266 a54.733083133842165,54.733083133842165 0 0,0 -0.46874455933558934,0.8172956497980894 l -29.116445161829102 -17.03389323827367" fill="#8cff24" stroke="none" /><path d="M 118.12598468904814 110.60418214915192 l 25.228440594818654 14.759307369831207 a50.22860531882162,50.22860531882162 0 0,0 -0.4430142043834051,0.7425172886760132 l -24.970645514737022 -15.191386752393324" fill="#c5ff1e" stroke="none" /><path d="M 117.75023020441432 111.22182372390056 l 20.74631755460478 13.115971783844255 a45.544620753050985,45.544620753050985 0 0,0 -0.4246388210849546,0.6590488803153012 l -20.517473870142776 -13.47114226408101" fill="#fffb17" stroke="none" /><path d="M 117.35343817320211 111.8261652097733 l 30.183772933716142 20.56988833023535 a57.526435008531664,57.526435008531664 0 0,0 -0.5646879584216689,0.8134751205244768 l -29.825224068132336 -21.086404712946848" fill="#6bff28" stroke="none" /><path d="M 116.71984013943494 112.70617746262583 l 28.704917311931336 21.814190229914864 a57.05317147314128,57.05317147314128 0 0,0 -0.6009415517117821,0.7767979633238622 l -28.325168943001486 -22.305066187351976" fill="#70ff27" stroke="none" /><path d="M 116.27256486870786 113.27417163493432 l 25.280614301918625 20.622392105227497 a53.62502897506946,53.62502897506946 0 0,0 -0.5896301760080085,0.7102475307792121 l -24.921888126017073 -21.05450089312048" fill="#9aff23" stroke="none" /><path d="M 115.80600337817218 113.82643327865902 l 44.32019060413629 38.769456365661284 a79.88420876666244,79.88420876666244 0 0,0 -0.9142601252339023,1.0271809427053322 l -43.64627162925406 -39.52661147810748" fill="#47fdff" stroke="none" /><path d="M 115.32070863581623 114.36230785411682 l 16.23680910692252 15.221100831914937 a43.25569321566874,43.25569321566874 0 0,0 -0.5139053368033678,0.53882769107187 l -15.97239721874019 -15.498335639569314" fill="#ffdb14" stroke="none" /><path d="M 115.07121518719521 114.62390073753431 l 27.231538918364734 26.423305428669984 a58.94400850778939,58.94400850778939 0 0,0 -0.7128277884456851,0.7220907862625427 l -26.772670504863513 -26.88813670891319" fill="#5aff2a" stroke="none" /><path d="M 114.55890576462653 115.13401014063108 l 21.587204504832254 22.439940004130445 a52.13773122310654,52.13773122310654 0 0,0 -0.6521292223082674,0.616628883546208 l -21.19773944813318 -22.808203524422577" fill="#acff20" stroke="none" /><path d="M 113.48314897796784 116.09983520530334 l 20.4086253943658 24.369344739345948 a52.78642719011749,52.78642719011749 0 0,0 -0.7016318398172627,0.5773952373171498 l -19.986123426003847 -24.717035095520277" fill="#a4ff21" stroke="none" /><path d="M 113.20401910651253 116.32954008644616 l 22.071195075453335 27.2956636788434 a56.10257693855604,56.10257693855604 0 0,0 -0.7561625734146009,0.6007412804952085 l -21.598075009321384 -27.671538873343735" fill="#7cff26" stroke="none" /><path d="M 112.63410532772338 116.77436683061366 l 18.199654459538802 24.163775128961156 a51.25087520931605,51.25087520931605 0 0,0 -0.7092511721442787,0.5246870613515504 l -17.78101831697596 -24.473472139052475" fill="#b8ff1f" stroke="none" /><path d="M 112.04921762599082 117.19931262002967 l 27.107382351901055 38.693661103384954 a68.24414871236186,68.24414871236186 0 0,0 -0.9679071361309098,0.6657353540793133 l -26.437318331147264 -39.15453724682936" fill="#37ff77" stroke="none" /><path d="M 111.45004920935366 117.60387380957326 l 18.861859206430967 28.99915827546836 a55.59365423612963,55.59365423612963 0 0,0 -0.8066856255456881,0.5148649332326357 l -18.35989177883835 -29.319537637524803" fill="#82ff25" stroke="none" /><path d="M 111.1453310114006 117.79835938074945 l 18.056573335770278 28.835158066293342 a55.022142515399764,55.022142515399764 0 0,0 -0.8070459218586651,0.4957535211298223 l -17.557548213979302 -29.141700054251544" fill="#89ff24" stroke="none" /><line stroke="#e1ed5e" stroke-width="0.3" x1="143.8653032363475" x2="146.44561519142675" y1="172.8068346515853" y2="177.08958963109032" /><path d="M 144.38136562736335 173.6633856474863 a86.0,86.0 0 0,1 -40.68145358897372,12.25698825130547" fill="none" id="id42" stroke="none" /><text fill="#e1ed5e" style="font-size:6.75px; font-family:Arial;" text-anchor="middle"><textPath startOffset="21.466115282336833" xlink:href="#id42">June</textPath></text><path d="M 109.89434966115114 118.52300852407294 l 29.683048983453418 55.56902557221878 a84.0,84.0 0 0,0 -1.2812363898940176,0.6702823242211329 l -28.722121691032903 -56.07173731538463" fill="#4dd2ff" stroke="none" /><path d="M 109.2508944713604 118.85261126421891 l 12.557491150481162 25.59120092082039 a49.50614229537577,49.50614229537577 0 0,0 -0.7682583157257544,0.3688106785293235 l -12.115120166755176 -25.803565875849277" fill="#ceff1d" stroke="none" /><path d="M 108.92500713936063 119.00905698771935 l 18.639536191228554 39.69968876787966 a64.85769713163961,64.85769713163961 0 0,0 -1.0146585346936787,0.46577996741942246 l -17.95340966076746 -40.014655805633154" fill="#32ff4b" stroke="none" /><path d="M 108.2653958097858 119.30500536409082 l 13.72159673074911 32.04873723982825 a55.86264154519647,55.86264154519647 0 0,0 -0.8872278715802796,0.3708613222768678 l -13.167897399671368 -32.28018360512509" fill="#7fff26" stroke="none" /><path d="M 107.59598834532513 119.57807347666477 l 14.81139680017349 38.17523167005626 a61.947842290341214,61.947842290341214 0 0,0 -0.9974481065719232,0.3771495256637419 l -14.152078472841291 -38.424529445826636" fill="#39ff2e" stroke="none" /><path d="M 106.91757812671514 119.82793768551818 l 10.700468415443243 30.67088178272787 a53.48388852400474,53.48388852400474 0 0,0 -0.871864468665625,0.29578376486912694 l -10.17093421384039 -30.850528534495123" fill="#9cff22" stroke="none" /><path d="M 106.57524785965236 119.94407469862006 l 13.432262938123994 40.74280713481946 a63.899907002976065,63.899907002976065 0 0,0 -1.047589239609457,0.3354049927451206 l -12.728952353423598 -40.96798497422429" fill="#31ff3e" stroke="none" /><path d="M 105.88484417918355 120.15858648285463 l 9.21512844745337 31.566505093831577 a53.88408180475714,53.88408180475714 0 0,0 -0.8925996473893683,0.252257576289125 l -8.670397631959396 -31.720451463459224" fill="#97ff23" stroke="none" /><path d="M 105.18746579009965 120.34920634021253 l 11.100016897518278 43.54275157988192 a65.93530449738269,65.93530449738269 0 0,0 -1.1022081934886843,0.27089595736740285 l -10.348855419286384 -43.72736879556335" fill="#34ff5a" stroke="none" /><path d="M 104.48393922423573 120.51570834832081 l 6.3368077739465996 28.993278822109644 a50.67769110999947,50.67769110999947 0 0,0 -0.8538190395124912,0.17892608125686635 l -5.836797273004731 -29.09806088409305" fill="#bfff1e" stroke="none" /><path d="M 104.13013068566511 120.58985236759428 l 6.7896730516994594 33.848412168636344 a55.52266887838863,55.52266887838863 0 0,0 -0.9386831227257003,0.17990085455504184 l -6.2060223144020545 -33.96027022153985" fill="#83ff25" stroke="none" /><path d="M 103.41894727170886 120.7198165907248 l 4.559793749245926 27.63367863485267 a49.00735463998653,49.00735463998653 0 0,0 -0.8335080712772343,0.13017681877424375 l -4.083449814360174 -27.70807376097402" fill="#d5ff1c" stroke="none" /><path d="M 102.70371172650421 120.8252237178851 l 5.7222551426059685 44.075425034186715 a65.44532929185353,65.44532929185353 0 0,0 -1.1184063796294503,0.13542343722727612 l -4.962721339925138 -44.16739400013934" fill="#33ff53" stroke="none" /><path d="M 101.98527174616119 120.90594882070398 l 0.7496212722625845 7.893903685042506 a28.929416588914737,28.929416588914737 0 0,0 -0.49614732232951186,0.04280967864964591 l -0.6136296321915309 -7.905637615970815" fill="#ff0000" stroke="none" /><path d="M 101.26447882468166 120.96189622390904 l 1.1033614239897203 18.290972704078065 a39.32422137208775,39.32422137208775 0 0,0 -0.6760244340796822,0.03494274141567179 l -0.7883489214965583 -18.30725525225594" fill="#ffa20f" stroke="none" /><line stroke="#e1ed5e" stroke-width="0.3" x1="102.19456741930631" x2="102.32365962044197" y1="184.97166512339345" y2="189.96999836594603" /><path d="M 102.22038585953345 185.97133177190398 a86.0,86.0 0 0,1 -42.740103519485714,-10.115201625700543" fill="none" id="id43" stroke="none" /><text fill="#e1ed5e" style="font-size:6.75px; font-family:Arial;" text-anchor="middle"><textPath startOffset="22.20632615414155" xlink:href="#id43">July</textPath></text><path d="M 100.18074693466247 120.99922214144158 l 0.21309129327342197 24.756997468377953 a45.75791452341132,45.75791452341132 0 0,0 -0.7876764558717378,0.0 l 0.21309129327340492 -24.756997468377953" fill="#fffe18" stroke="none" /><path d="M 99.45781275523022 120.99299961872073 l -0.4784205733161357 18.524011787622165 a39.530188853677046,39.530188853677046 0 0,0 -0.6800691774900661,-0.023422957531470674 l 0.7972101024808449 -18.5130320316646" fill="#ffa50f" stroke="none" /><path d="M 98.73552117531835 120.96189622390904 l -1.91849570858975 31.80386034506982 a52.861672251038264,52.861672251038264 0 0,0 -0.9078041686296896,-0.06260749050099393 l 2.4656626379983697 -31.76612451005254" fill="#a3ff21" stroke="none" /><path d="M 98.37488393609728 120.93702456842531 l -1.5911528437719764 20.499462728938912 a41.561122040088165,41.561122040088165 0 0,0 -0.7127844887511906,-0.06150204493016484 l 1.9437816502647087 -20.469036431730085" fill="#ffc312" stroke="none" /><path d="M 97.65516085044442 120.86867818915974 l -3.405388933765545 30.307394765712647 a51.49811225756373,51.49811225756373 0 0,0 -0.8800600120886062,-0.10656301141881318 l 3.9265763689055406 -30.244286225568487" fill="#b5ff20" stroke="none" /><path d="M 96.93821686468263 120.77559828337769 l -2.6705883016520304 18.121162500184553 a39.31689308357221,39.31689308357221 0 0,0 -0.668694483990016,-0.10443632600259657 l 2.982118649250564 -18.07250786683485" fill="#ffa20f" stroke="none" /><path d="M 96.58105272829116 120.7198165907248 l -3.525486924307833 21.36547792623502 a42.654392281241726,42.654392281241726 0 0,0 -0.7234002705808997,-0.12577240963700523 l 3.8927361663607822 -21.301626938077007" fill="#ffd213" stroke="none" /><path d="M 95.86986931433489 120.58985236759428 l -6.242748830045979 31.121842518142845 a52.741786255331064,52.741786255331064 0 0,0 -0.8885949674572543,-0.1862137150777101 l 6.77753525893262 -31.009772822338594" fill="#a5ff21" stroke="none" /><path d="M 94.81253420990036 120.34920634021253 l -4.8682265419230175 19.096905969299506 a40.707649460647275,40.707649460647275 0 0,0 -0.6775101208179022,-0.17893658070167298 l 5.196227105552409 -19.010278039294253" fill="#ffb610" stroke="none" /><path d="M 94.46302465271185 120.25689768951611 l -5.015866413524133 18.350432571964056 a40.023598278362556,40.023598278362556 0 0,0 -0.6629982086354366,-0.18736991627048102 l 5.330995790264184 -18.261373862355054" fill="#ffac10" stroke="none" /><path d="M 93.76903079525671 120.05430185196036 l -10.247210353263526 32.98052723618724 a55.53578574176241,55.53578574176241 0 0,0 -0.9104659816424616,-0.29150245575385364 l 10.813397679996928 -32.79925193377368" fill="#83ff25" stroke="none" /><path d="M 93.42475214034765 119.94407469862007 l -8.356462242452851 25.346863074525928 a47.688835286094935,47.688835286094935 0 0,0 -0.77739674854293,-0.2637351851635457 l 8.791528723933007 -25.199264902464257" fill="#e6ff1a" stroke="none" /><path d="M 92.7421414339146 119.70592522655815 l -12.66931031055624 34.39864243407824 a57.65757800309146,57.65757800309146 0 0,0 -0.9283687676991467,-0.35102963058612074 l 13.259549299015669 -34.17546455338549" fill="#69ff28" stroke="none" /><path d="M 92.06813273071674 119.44442032107085 l -7.875317695769144 19.3057929791026 a41.850282284929904,41.850282284929904 0 0,0 -0.6646792176243752,-0.27783596687407053 l 8.206468372890983 -19.167371969208553" fill="#ffc712" stroke="none" /><path d="M 91.7346041902142 119.30500536409082 l -11.688634299812804 27.30046485972582 a50.69746712014149,50.69746712014149 0 0,0 -0.799280152890366,-0.35038093034864554 l 12.156835127360914 -27.095219376082724" fill="#bfff1e" stroke="none" /><path d="M 91.07499286063937 119.00905698771935 l -13.306340465848496 28.340703851966914 a52.30901134526559,52.30901134526559 0 0,0 -0.8117544831835082,-0.389691482166794 l 13.792207617032247 -28.107458093300558" fill="#aaff21" stroke="none" /><path d="M 90.42595943632237 118.69057910512821 l -16.94232101967171 33.075041737760586 a58.16181679477222,58.16181679477222 0 0,0 -0.8871313830929904,-0.4641052112157577 l 17.509143305291193 -32.77850710760011" fill="#63ff29" stroke="none" /><line stroke="#e1ed5e" stroke-width="0.3" x1="58.666819895761336" x2="56.23545636021788" y1="174.27360380694188" y2="178.64263932499728" /><path d="M 58.180547188652646 175.14741091055294 a86.0,86.0 0 0,1 -31.652253787137756,-30.449443065178592" fill="none" id="id44" stroke="none" /><text fill="#e1ed5e" style="font-size:6.75px; font-family:Arial;" text-anchor="middle"><textPath startOffset="22.20632615414155" xlink:href="#id44">August</textPath></text><path d="M 89.7882731507175 118.34994917583269 l -10.072626665651523 18.099993283195726 a41.71394614257082,41.71394614257082 0 0,0 -0.6244204955475946,-0.35456225374581274 l 10.382695928120325 -17.92392786365528" fill="#ffc512" stroke="none" /><path d="M 89.4739219176387 118.17145234162733 l -16.73396054340757 28.88828717799035 a54.38500519015031,54.38500519015031 0 0,0 -0.8060171880696653,-0.4762091619131753 l 17.22874560250562 -28.595959443783425" fill="#91ff24" stroke="none" /><path d="M 88.8546689885994 117.79835938074946 l -18.843945145443826 30.092538974990102 a56.505706169653834,56.505706169653834 0 0,0 -0.8199198551468073,-0.5233116447199723 l 19.359146802637557 -29.763712901446326" fill="#77ff27" stroke="none" /><path d="M 88.24862548938628 117.40417183066458 l -24.341992859718523 36.05129136584946 a64.49974971799216,64.49974971799216 0 0,0 -0.914800304621459,-0.6292079911131626 l 24.958950048962873 -35.62694258537119" fill="#32ff46" stroke="none" /><line stroke="#e1ed5e" stroke-width="0.3" x1="26.63291911575756" x2="22.317208475507996" y1="142.92168965132927" y2="145.44649492493687" /><path d="M 25.769776987707644 143.4266507060508 a86.0,86.0 0 0,1 -11.730757126820373,-40.83630448921669" fill="none" id="id45" stroke="none" /><text fill="#e1ed5e" style="font-size:6.75px; font-family:Arial;" text-anchor="middle"><textPath startOffset="21.46611528233685" xlink:href="#id45">September</textPath></text><line stroke="#e1ed5e" stroke-width="0.3" x1="15.007084014347285" x2="10.007500721073583" y1="101.09737516637583" y2="101.16192664675087" /><path d="M 14.007167355692545 101.11028546245083 a86.0,86.0 0 0,1 10.666146001902534,-42.60595125391555" fill="none" id="id46" stroke="none" /><text fill="#e1ed5e" style="font-size:6.75px; font-family:Arial;" text-anchor="middle"><textPath startOffset="22.20632615414155" xlink:href="#id46">October</textPath></text><line stroke="#e1ed5e" stroke-width="0.3" x1="26.266209847984243" x2="21.928928074336255" y1="57.711370442889674" y2="55.22380399835377" /><path d="M 25.398753493254645 57.213857153982495 a86.0,86.0 0 0,1 29.58750427330803,-30.492523968695096" fill="none" id="id47" stroke="none" /><text fill="#e1ed5e" style="font-size:6.75px; font-family:Arial;" text-anchor="middle"><textPath startOffset="21.46611528233685" xlink:href="#id47">November</textPath></text><line stroke="#e1ed5e" stroke-width="0.3" x1="56.762969772571076" x2="54.21961505331055" y1="26.818313649435495" y2="22.513508569990535" /><path d="M 56.25429882871897 25.957352633546506 a86.0,86.0 0 0,1 42.265352541879196,-11.944610805530505" fill="none" id="id48" stroke="none" /><text fill="#e1ed5e" style="font-size:6.75px; font-family:Arial;" text-anchor="middle"><textPath startOffset="22.20632615414155" xlink:href="#id48">December</textPath></text></svg>