<?xml version="1.0" encoding="utf-8" ?>
<svg baseProfile="full" height="200mm" version="1.1" viewBox="0,0,200,200" width="200mm" xmlns="http://www.w3.org/2000/svg" xmlns:ev="http://www.w3.org/2001/xml-events" xmlns:xlink="http://www.w3.org/1999/xlink"><defs /><rect fill="#1a1a1a" height="200" width="200" x="0" y="0" /><text alignment-baseline="middle" fill="#e1ed5e" style="dominant-baseline: central; font-size:9.0px; font-family:Arial;" text-anchor="middle" x="100.0" y="100.0">2021</text><line stroke="#e1ed5e" stroke-width="0.3" x1="100.0" x2="100.0" y1="15.0" y2="10.0" /><path d="M 100.0 14.0 a86.0,86.0 0 0,1 42.46469731375804,11.215312516191453" fill="none" id="id25" stroke="none" /><text fill="#e1ed5e" style="font-size:6.75px; font-family:Arial;" text-anchor="middle"><textPath startOffset="22.20632615414155" xlink:href="#id25">January</textPath></text><path d="M 101.44485096284872 79.0497635885617 l 0.5893452765927805 -8.545464681173506 a29.565762924119838,29.565762924119838 0 0,0 0.5074186198495212,0.039385450761917566 l -0.7363540858046429 8.534053968223123" fill="#ff6309" stroke="none" /><path d="M 102.16513564639614 79.11191278185805 l 0.8316414051333273 -8.02323782048379 a29.06622418178255,29.06622418178255 0 0,0 0.49721692996890876,0.05586811549082945 l -0.9696250386119614 8.007733751522359" fill="#ff5c08" stroke="none" /><path d="M 102.52436894288641 79.15227682838746 l 1.277615981285525 -10.551304068498556 a31.628373353507598,31.628373353507598 0 0,0 0.5399193337374941,0.07009702530776098 l -1.4590500435308653 10.527748720026658" fill="#ff800b" stroke="none" /><path d="M 103.59715602781102 79.31037775812273 l 1.386213138924702 -7.973028128149268 a29.092636430656384,29.092636430656384 0 0,0 0.4926420692724237,0.09002718927067492 l -1.5232503293000268 7.947985457527855" fill="#ff5d08" stroke="none" /><path d="M 104.307194497241 79.44645832069477 l 1.6457878332960383 -7.8535503443393315 a29.024142982480914,29.024142982480914 0 0,0 0.48809939378435513,0.1066796222658566 l -1.7807299512339214 7.824057223977604" fill="#ff5c08" stroke="none" /><path d="M 105.01212808612495 79.60689891045804 l 1.899262199413867 -7.727624945462579 a28.957599147975344,28.957599147975344 0 0,0 0.483028075550374,0.12313461152653063 l -2.031999163649266 7.693787337767181" fill="#ff5b08" stroke="none" /><path d="M 106.0581310904928 79.89281104454417 l 2.3636000063783107 -7.84488668757074 a29.193219887869247,29.193219887869247 0 0,0 0.47990126299832525,0.1491076584532273 l -2.498286642087354 7.803038894234993" fill="#ff5e08" stroke="none" /><path d="M 108.43124777332544 80.76684994638697 l 3.2001057863547233 -7.300000715329476 a28.970613996905875,28.970613996905875 0 0,0 0.45500126357981624,0.20414580399977547 l -3.3252891684013197 7.24383458081317" fill="#ff5b08" stroke="none" /><path d="M 109.41281617654863 81.2277094730956 l 3.6209413749730617 -7.221363107168065 a29.07832294270041,29.07832294270041 0 0,0 0.445506925967673,0.22820595106352537 l -3.7447087885294903 7.157964630792039" fill="#ff5c08" stroke="none" /><line stroke="#e1ed5e" stroke-width="0.3" x1="143.23703022742887" x2="145.7803849466894" y1="26.81831364943548" y2="22.513508569990506" /><path d="M 143.74570117128098 25.957352633546492 a86.0,86.0 0 0,1 28.547481713284135,27.462654790039103" fill="none" id="id26" stroke="none" /><text fill="#e1ed5e" style="font-size:6.75px; font-family:Arial;" text-anchor="middle"><textPath startOffset="19.985693538727396" xlink:href="#id26">February</textPath></text><path d="M 112.19680574252982 82.90503203632743 l 6.415490312635731 -8.991911790751505 a32.04594919435079,32.04594919435079 0 0,0 0.44628513970363903,0.32424513361150564 l -6.569320768693158 8.880147422323326" fill="#ff850c" stroke="none" /><path d="M 116.38621287248628 86.86637796730983 l 6.334145692343295 -5.07684576482662 a29.117620622551236,29.117620622551236 0 0,0 0.3100970016688869,0.3937917012759246 l -6.420596774606146 4.967061669597657" fill="#ff5d08" stroke="none" /><path d="M 116.60985879189232 87.15038557335679 l 7.03711118792744 -5.444005670079689 a29.897085568157326,29.897085568157326 0 0,0 0.31139104433021125,0.4097541134906246 l -7.129778172481766 5.322066780708031" fill="#ff6809" stroke="none" /><path d="M 117.04232023915458 87.72973835380427 l 6.565752443064133 -4.727261267832056 a29.090494684377944,29.090494684377944 0 0,0 0.2890866249662811,0.40889252966986694 l -6.646151687834297 4.613542237830396" fill="#ff5d08" stroke="none" /><path d="M 117.45458315368197 88.32363383020206 l 12.306481812809608 -8.232507567962852 a35.80620395191081,35.80620395191081 0 0,0 0.3382891113866415,0.5152375253237461 l -12.446367559554174 8.019451978661433" fill="#ffb711" stroke="none" /><line stroke="#e1ed5e" stroke-width="0.3" x1="172.23445277983987" x2="176.4835382374775" y1="55.19839476539836" y2="52.563006222186495" /><path d="M 173.08426987136738 54.67131705675599 a86.0,86.0 0 0,1 12.851231095245387,41.99856678651699" fill="none" id="id27" stroke="none" /><text fill="#e1ed5e" style="font-size:6.75px; font-family:Arial;" text-anchor="middle"><textPath startOffset="22.20632615414155" xlink:href="#id27">March</textPath></text><path d="M 118.03404312379186 89.2402003453031 l 6.95602241229923 -4.1502289329218405 a29.10003999965869,29.10003999965869 0 0,0 0.25294908449829495,0.4323719800580313 l -7.026431171267853 4.029877540509914" fill="#ff5d08" stroke="none" /><path d="M 118.56541770881063 90.18545643968196 l 7.076151753939267 -3.7407830363816275 a29.004085292527705,29.004085292527705 0 0,0 0.22953358930654819,0.44338583546613997 l -7.1394947764059316 3.6184244786551427" fill="#ff5b08" stroke="none" /><path d="M 119.04729006885535 91.15688171328212 l 8.397705131932167 -3.8988170784505045 a30.25862981731623,30.25862981731623 0 0,0 0.21526519936051564,0.47430833230741987 l -8.46357264825603 3.7536867373010216" fill="#ff6d0a" stroke="none" /><path d="M 119.196687751892 91.48605970444005 l 7.2746660044728575 -3.2263936796136696 a28.958038806922477,28.958038806922477 0 0,0 0.19816853339480636,0.4574002973024066 l -7.329125247710345 3.1006942377246602" fill="#ff5b08" stroke="none" /><path d="M 119.47837535516314 92.15188598940014 l 7.521164822110207 -3.0303841023777984 a29.108708164022932,29.108708164022932 0 0,0 0.183255189233097,0.46636446799922476 l -7.572213561225005 2.900470629482789" fill="#ff5d08" stroke="none" /><path d="M 119.61058180528143 92.48833698450437 l 7.505588327966516 -2.874950412615395 a29.037362504199038,29.037362504199038 0 0,0 0.17477092297836735,0.468299182945914 l -7.553963839446508 2.7453280926401478" fill="#ff5c08" stroke="none" /><path d="M 119.97218684219823 93.5106431181261 l 8.83701900036385 -2.871321529202644 a30.291791653758402,30.291791653758402 0 0,0 0.15686029662772605,0.49729000625137115 l -8.885134780759781 2.7187813565248535" fill="#ff6d0a" stroke="none" /><path d="M 120.08093135843002 93.85539295169968 l 8.908392602852144 -2.725898067149774 a30.316113945151255,30.316113945151255 0 0,0 0.14839608266910642,0.5003178191158641 l -8.953994582632953 2.5721508612873802" fill="#ff6e0a" stroke="none" /><path d="M 120.37134235888165 94.90015583598534 l 10.76706096457642 -2.6954695501371693 a32.09933141728014,32.09933141728014 0 0,0 0.12957002084489236,0.5371513863757832 l -10.811863785682132 2.50973293210198" fill="#ff860c" stroke="none" /><path d="M 120.6074358757038 95.95851677861258 l 10.11369419361245 -1.9834745883120322 a31.306356372859895,31.306356372859895 0 0,0 0.09915807767432092,0.5297064159069871 l -10.14633799519663 1.8090900949424822" fill="#ff7b0b" stroke="none" /><path d="M 120.67395015179393 96.31383870115 l 9.047899495121333 -1.6132387236072832 a30.190594347111777,30.190594347111777 0 0,0 0.08681684724857895,0.5123979468810554 l -9.074328203890136 1.4572549884103898" fill="#ff6c09" stroke="none" /><path d="M 120.78858239683441 97.02765380044208 l 8.832719923600173 -1.2629000378914845 a29.92254771657007,29.92254771657007 0 0,0 0.06851408631407127,0.5105095240734245 l -8.85315000897208 1.1106721717533956" fill="#ff6809" stroke="none" /><path d="M 120.98425023603335 99.18683210126433 l 7.712983069924953 -0.2988884599357619 a28.71877206221506,28.71877206221506 0 0,0 0.014890417384384852,0.49414046073215345 l -7.716985181764983 0.1660778517786094" fill="#ff5708" stroke="none" /><line stroke="#e1ed5e" stroke-width="0.3" x1="184.98032266829074" x2="189.97916517819016" y1="98.17113171792111" y2="98.06355123074" /><path d="M 185.9800911702706 98.14961562048488 a86.0,86.0 0 0,1 -9.607161424134198,41.387399972396054" fill="none" id="id28" stroke="none" /><text fill="#e1ed5e" style="font-size:6.75px; font-family:Arial;" text-anchor="middle"><textPath startOffset="21.466115282336823" xlink:href="#id28">April</textPath></text><path d="M 120.9904718944345 100.63252640178507 l 15.193039475560969 0.45782670537307674 a36.19993598006606,36.19993598006606 0 0,0 -0.02412961403066258,0.6226781206017235 l -15.182907728679105 -0.7192820729888063" fill="#ffbc11" stroke="none" /><path d="M 120.92983693683757 101.71520430193887 l 9.020181083790924 0.7392056348014482 a30.05041942425332,30.05041942425332 0 0,0 -0.04668605075045151,0.5151766797453687 l -9.006120436763396 -0.8943637030953875" fill="#ff6a09" stroke="none" /><path d="M 120.89721153311464 102.0752229133903 l 8.876528755156544 0.8814944441213296 a29.920190311654665,29.920190311654665 0 0,0 -0.055306329835664726,0.5120679260912245 l -8.860040123819827 -1.0341586920973456" fill="#ff6809" stroke="none" /><path d="M 120.70491114924044 103.5080841355445 l 8.911284074124426 1.509860827821668 a30.038288752254708,30.038288752254708 0 0,0 -0.09076363273206159,0.5090506536661296 l -8.883973999053175 -1.663030232221016" fill="#ff6a09" stroke="none" /><path d="M 120.5718875245553 104.21870165774334 l 8.763634828581093 1.7971691093032802 a29.94601096669088,29.94601096669088 0 0,0 -0.10789970029347785,0.5040714781112893 l -8.731401089563173 -1.9477544068307386" fill="#ff6909" stroke="none" /><path d="M 120.32669344350535 105.2749913415812 l 60.980080330516046 15.82497402474362 a84.0,84.0 0 0,0 -0.3752476946328911,1.396436267297807 l -60.69864455954138 -16.872301225216972" fill="#4dd2ff" stroke="none" /><path d="M 119.79798401119884 107.00284435728193 l 4.897431050324665 1.732294933491394 a26.194773972877368,26.194773972877368 0 0,0 -0.15401995590962314,0.42379676972435926 l -4.866886833409816 -1.8163395002218843" fill="#ff3404" stroke="none" /><path d="M 119.12269723197855 108.67885076344098 l 4.771142652582864 2.1653867417619685 a26.239532608228902,26.239532608228902 0 0,0 -0.1902058526300659,0.4096864850581439 l -4.733162183112967 -2.247193294098943" fill="#ff3405" stroke="none" /><line stroke="#e1ed5e" stroke-width="0.3" x1="174.80103733775053" x2="179.2010983576182" y1="140.37084112569926" y2="142.7455964860345" /><path d="M 175.68104954172406 140.8457921977663 a86.0,86.0 0 0,1 -30.038265399797805,32.042727171017184" fill="none" id="id29" stroke="none" /><text fill="#e1ed5e" style="font-size:6.75px; font-family:Arial;" text-anchor="middle"><textPath startOffset="22.206326154141568" xlink:href="#id29">May</textPath></text><path d="M 116.27256486870786 113.27417163493432 l 2.622905504158767 2.139607254623413 a24.384900661435058,24.384900661435058 0 0,0 -0.2681224335678064,0.3229707435893873 l -2.585687070697417 -2.184439255326571" fill="#ff1a02" stroke="none" /><path d="M 115.32070863581623 114.36230785411682 l 4.1657130973509355 3.905123147908044 a26.709917023019543,26.709917023019543 0 0,0 -0.31733091954546894,0.33272020047112666 l -4.097875626426502 -3.976250464961678" fill="#ff3b05" stroke="none" /><path d="M 111.45004920935366 117.60387380957326 l 8.31791376459374 12.78837335923434 a36.25549679854421,36.25549679854421 0 0,0 -0.5260814119212225,0.33577004776864 l -8.096550550625588 -12.929657835826788" fill="#ffbd11" stroke="none" /><line stroke="#e1ed5e" stroke-width="0.3" x1="143.8653032363475" x2="146.44561519142675" y1="172.8068346515853" y2="177.08958963109032" /><path d="M 144.38136562736335 173.6633856474863 a86.0,86.0 0 0,1 -40.68145358897372,12.25698825130547" fill="none" id="id30" stroke="none" /><text fill="#e1ed5e" style="font-size:6.75px; font-family:Arial;" text-anchor="middle"><textPath startOffset="21.466115282336833" xlink:href="#id30">June</textPath></text><path d="M 109.57404056367764 118.69057910512821 l 1.5776702059526437 3.0799503710097995 a24.460511171291614,24.460511171291614 0 0,0 -0.3763961238611937,0.18873283035935792 l -1.5244201744086896 -3.1066510422784597" fill="#ff1b02" stroke="none" /><path d="M 104.83641907484287 120.43548508189849 l 1.1945594987512747 5.04741264940217 a26.18684363070663,26.18684363070663 0 0,0 -0.43953974908685495,0.10003781587360457 l -1.1074996002715576 -5.067227198853459" fill="#ff3404" stroke="none" /><path d="M 104.13013068566511 120.58985236759428 l 1.0947692139593128 5.457729599270418 a26.566446982643914,26.566446982643914 0 0,0 -0.4491404306953531,0.08607883250599892 l -1.0006611686922553 -5.475765630124886" fill="#ff3905" stroke="none" /><path d="M 103.41894727170886 120.7198165907248 l 1.2945909461379324 7.845598317924281 a28.951690303579397,28.951690303579397 0 0,0 -0.4924050221119811,0.07690353763314496 l -1.159350060417434 -7.866720162904532" fill="#ff5b08" stroke="none" /><path d="M 101.26447882468166 120.96189622390904 l 0.48003307874529916 7.957747796398062 a28.9722131022551,28.9722131022551 0 0,0 -0.498062600684829,0.025744147381654585 l -0.3429824096469906 -7.964831750541918" fill="#ff5b08" stroke="none" /><path d="M 100.90346689309514 120.98055641714683 l 0.15931163209597277 3.6995784910795946 a24.703007049382954,24.703007049382954 0 0,0 -0.42498541425617425,0.014637356961766585 l -0.09560586616514624 -3.7017726464674547" fill="#ff1e03" stroke="none" /><line stroke="#e1ed5e" stroke-width="0.3" x1="102.19456741930631" x2="102.32365962044197" y1="184.97166512339345" y2="189.96999836594603" /><path d="M 102.22038585953345 185.97133177190398 a86.0,86.0 0 0,1 -42.740103519485714,-10.115201625700543" fill="none" id="id31" stroke="none" /><text fill="#e1ed5e" style="font-size:6.75px; font-family:Arial;" text-anchor="middle"><textPath startOffset="22.20632615414155" xlink:href="#id31">July</textPath></text><path d="M 99.81925306533755 120.99922214144158 l -0.0787249021002612 9.146277973421613 a30.146616772190036,30.146616772190036 0 0,0 -0.5188667864203459,-0.008932762277210427 l 0.23615137841327505 -9.143567733865243" fill="#ff6b09" stroke="none" /><path d="M 99.09653310690486 120.98055641714683 l -0.3684621973402736 8.556530380875234 a29.564460085125607,29.564460085125607 0 0,0 -0.5082439448401668,-0.026270406579029185 l 0.5156942105939293 -8.548920167534003" fill="#ff6309" stroke="none" /><path d="M 98.37488393609728 120.93702456842531 l -0.8383110536374114 10.800298831480672 a31.832784511469498,31.832784511469498 0 0,0 -0.5459408678054658,-0.04710607527362366 l 1.0240962391844188 -10.784268503928386" fill="#ff820c" stroke="none" /><path d="M 97.65516085044442 120.86867818915974 l -0.9963354008874519 8.86721925191689 a29.923018631193543,29.923018631193543 0 0,0 -0.5113595622027484,-0.061918521598098034 l 1.1488223861415896 -8.848755201593443" fill="#ff6809" stroke="none" /><path d="M 96.58105272829116 120.7198165907248 l -1.2618477595671653 7.647165067445116 a28.750573742444978,28.750573742444978 0 0,0 -0.48759744805430727,-0.08477506640327753 l 1.3932941790935227 -7.624311422520833" fill="#ff5808" stroke="none" /><path d="M 95.86986931433489 120.58985236759428 l -1.8356667588335744 9.151310318500741 a30.33360343034697,30.33360343034697 0 0,0 -0.5110613285367429,-0.1070978703511001 l 1.992919548799704 -9.1183564674231" fill="#ff6e0a" stroke="none" /><path d="M 95.16358092515715 120.4354850818985 l -2.098072249627237 8.865055631969973 a30.109946131705634,30.109946131705634 0 0,0 -0.5033332231473399,-0.12370706021313826 l 2.250358757517787 -8.827627313442806" fill="#ff6b09" stroke="none" /><path d="M 94.46302465271185 120.25689768951611 l -2.7212888013824825 9.955772849924179 a31.320989573670595,31.320989573670595 0 0,0 -0.5188379074666837,-0.14662877518186415 l 2.89225787695378 -9.907455281403793" fill="#ff7b0b" stroke="none" /><path d="M 93.76903079525671 120.05430185196036 l -3.0980425732233985 9.97101395820583 a31.441215788414688,31.441215788414688 0 0,0 -0.5154542609686141,-0.16503217685308763 l 3.269218179282953 -9.916208934693037" fill="#ff7d0b" stroke="none" /><path d="M 93.08242187328487 119.8279376855182 l -2.9189143937115976 8.366519560417114 a29.861078421538707,29.861078421538707 0 0,0 -0.48386385168339907,-0.1734963621624092 l 3.0624978060247234 -8.315035657214747" fill="#ff6709" stroke="none" /><path d="M 91.40352486487194 119.15986991738527 l -3.2803605962965596 7.311285302312719 a29.013467315310464,29.013467315310464 0 0,0 -0.4538977412778769,-0.20836219074231188 l 3.405726333341856 -7.2537360412363325" fill="#ff5c08" stroke="none" /><path d="M 90.7491055286396 118.85261126421891 l -4.003653318141095 8.15913746257605 a30.08849624663366,30.08849624663366 0 0,0 -0.4629990469429331,-0.23215733383973391 l 4.143506272766788 -8.089012287827012" fill="#ff6a09" stroke="none" /><path d="M 90.10565033884886 118.52300852407294 l -4.916196959727365 9.203511227079167 a31.434251839677096,31.434251839677096 0 0,0 -0.47507211713760616,-0.25904719694256667 l 5.073891888733612 -9.117523378376834" fill="#ff7d0b" stroke="none" /><line stroke="#e1ed5e" stroke-width="0.3" x1="58.666819895761336" x2="56.23545636021788" y1="174.27360380694188" y2="178.64263932499728" /><path d="M 58.180547188652646 175.14741091055294 a86.0,86.0 0 0,1 -31.652253787137756,-30.449443065178592" fill="none" id="id32" stroke="none" /><text fill="#e1ed5e" style="font-size:6.75px; font-family:Arial;" text-anchor="middle"><textPath startOffset="22.20632615414155" xlink:href="#id32">August</textPath></text><path d="M 89.1626897886671 117.98757091392108 l -4.76317143684262 7.905825553076261 a30.22983639142249,30.22983639142249 0 0,0 -0.44340087577149356,-0.27237303291182563 l 4.8985515125464225 -7.822664053336058" fill="#ff6c0a" stroke="none" /><path d="M 88.24862548938628 117.40417183066458 l -4.322290934614611 6.401454915781409 a28.724041944618996,28.724041944618996 0 0,0 -0.4073932447146712,-0.28020878852468445 l 4.431841063952173 -6.326105337891623" fill="#ff5808" stroke="none" /><path d="M 87.36589467227662 116.77436683061367 l -0.9801224591074305 1.3013136460018568 a22.629127754388048,22.629127754388048 0 0,0 -0.3091260310468871,-0.23702465879656173 l 1.0023772186478044 -1.2842496453779282" fill="#ff0000" stroke="none" /><path d="M 86.79598089348748 116.32954008644616 l -5.315653000953357 6.573920263557697 a29.454146583668805,29.454146583668805 0 0,0 -0.39150153093930323,-0.3221791066745152 l 5.428024660437349 -6.481446038026001" fill="#ff6209" stroke="none" /><path d="M 85.97065885151581 115.62618273729859 l -6.606461986354561 7.35841983976182 a30.8889677173782,30.8889677173782 0 0,0 -0.3925847333462869,-0.3586168458176451 l 6.7321462691677025 -7.243610227357599" fill="#ff750a" stroke="none" /><path d="M 85.44109423537348 115.13401014063109 l -7.155550962681282 7.438208789985881 a31.32128187692557,31.32128187692557 0 0,0 -0.3853264125978521,-0.3771229951863721 l 7.282527327654928 -7.313935691876939" fill="#ff7b0b" stroke="none" /><path d="M 84.9287848128048 114.62390073753433 l -5.647166976447691 5.479558767233153 a28.868675818931866,28.868675818931866 0 0,0 -0.34297835653277187,-0.35961143561521147 l 5.74065188435942 -5.381540215035442" fill="#ff5a08" stroke="none" /><path d="M 84.67929136418377 114.36230785411682 l -7.187266890602746 6.737660911533817 a30.85154200699389,30.85154200699389 0 0,0 -0.35986647778494335,-0.39056398714299745 l 7.302179776383419 -6.612945669589475" fill="#ff750a" stroke="none" /><path d="M 84.19399662182784 113.82643327865904 l -11.580504827591435 10.130143180470332 a36.38596415304215,36.38596415304215 0 0,0 -0.40831547615016756,-0.474963144925547 l 11.75316281331238 -9.929302936383255" fill="#ffbf11" stroke="none" /><path d="M 83.72743513129214 113.27417163493432 l -8.159764198779287 6.6562408169271885 a31.530303585016327,31.530303585016327 0 0,0 -0.3394493746687902,-0.4235152876267011 l 8.273131485502939 -6.514797695722228" fill="#ff7e0b" stroke="none" /><path d="M 83.50135304334701 112.99209946851258 l -7.5607315375781265 5.953807997044538 a30.62353838507438,30.62353838507438 0 0,0 -0.3225579963542502,-0.41694969154334616 l 7.662096351150445 -5.822780311387939" fill="#ff720a" stroke="none" /><path d="M 83.06392112726016 112.41649034213515 l -7.996506931157811 5.862546568636479 a30.91532023534723,30.91532023534723 0 0,0 -0.3109495408992679,-0.43188171589368035 l 8.096236264432687 -5.724031247291661" fill="#ff760a" stroke="none" /><path d="M 82.6465618267979 111.8261652097733 l -13.091472527436016 8.921685455263221 a36.842446916409955,36.842446916409955 0 0,0 -0.35262940091754347,-0.5271331089863226 l 13.24310503376429 -8.695015432071077" fill="#ffc512" stroke="none" /><path d="M 82.24976979558568 111.22182372390057 l -8.689541656688679 5.49359098951859 a31.280451165364664,31.280451165364664 0 0,0 -0.2838110492448412,-0.457593778788082 l 8.782817345601476 -5.343200879365244" fill="#ff7b0b" stroke="none" /><path d="M 82.05923443525364 110.91462005526583 l -7.777867751737909 4.731819890514471 a30.104138962021224,30.104138962021224 0 0,0 -0.26551725030496715,-0.445022184034829 l 7.858165877741108 -4.597235612593531" fill="#ff6b09" stroke="none" /><line stroke="#e1ed5e" stroke-width="0.3" x1="26.63291911575756" x2="22.317208475507996" y1="142.92168965132927" y2="145.44649492493687" /><path d="M 25.769776987707644 143.4266507060508 a86.0,86.0 0 0,1 -11.730757126820373,-40.83630448921669" fill="none" id="id33" stroke="none" /><text fill="#e1ed5e" style="font-size:6.75px; font-family:Arial;" text-anchor="middle"><textPath startOffset="21.46611528233685" xlink:href="#id33">September</textPath></text><path d="M 81.69416730710424 110.29060199501025 l -9.302583078244714 5.2294359721142225 a31.671693985215615,31.671693985215615 0 0,0 -0.26306145636448164,-0.4775329546667439 l 9.391220944060713 -5.068532499049656" fill="#ff800b" stroke="none" /><path d="M 81.35079622478065 109.6543875284942 l -13.159951228234393 6.812691337647396 a35.8188083053788,35.8188083053788 0 0,0 -0.2787408238064629,-0.5499820895189658 l 13.275270721827123 -6.585155036425745" fill="#ffb711" stroke="none" /><path d="M 81.02952815118164 109.00673069616217 l -9.90988550244347 4.704978909413347 a31.970080091301234,31.970080091301234 0 0,0 -0.23174560435998853,-0.49915941473458847 l 9.989405723643285 -4.533699427399931" fill="#ff840c" stroke="none" /><path d="M 80.87730276802145 108.67885076344099 l -10.005512704571027 4.541009593012326 a31.987768317777828,31.987768317777828 0 0,0 -0.22324250602479287,-0.5033529167855202 l 10.0821962953271 -4.3681083397341105" fill="#ff840c" stroke="none" /><path d="M 80.58989483394504 108.01547362559985 l -8.988644873514781 3.7118936397903406 a30.72491085076257,30.72491085076257 0 0,0 -0.19765976824346868,-0.4905753348206732 l 9.051207256015639 -3.5566189371268617" fill="#ff730a" stroke="none" /><path d="M 80.32549172779594 107.34259656027581 l -7.564528946050115 2.82310914463084 a29.074158991382838,29.074158991382838 0 0,0 -0.17095015557679025,-0.47038140797698696 l 7.612003362632129 -2.6924799396477357" fill="#ff5c08" stroke="none" /><path d="M 80.0844068197444 106.66101706037122 l -9.900795697259039 3.3114438748465163 a31.43989540058336,31.43989540058336 0 0,0 -0.16724190207065445,-0.5147176487287314 l 9.956329850345943 -3.1405273261399818" fill="#ff7d0b" stroke="none" /><path d="M 79.97269907076064 106.31721596034903 l -10.070463765658051 3.176528612283044 a31.55957264665974,31.55957264665974 0 0,0 -0.1589598979602117,-0.5194901438921168 l 10.123650436124393 -3.0027114958388794" fill="#ff7f0b" stroke="none" /><path d="M 79.58551787078972 104.9243191809786 l -15.23056041717964 3.6738693798191626 a36.66739566237261,36.66739566237261 0 0,0 -0.142722484297274,-0.6148447269582064 l 15.29154346740747 -3.4111559955123822" fill="#ffc212" stroke="none" /><path d="M 79.4281124754447 104.21870165774334 l -11.534391576510764 2.365371520080712 a32.77442871090956,32.77442871090956 0 0,0 -0.10857710486201047,-0.5536323184945272 l 11.57339861434844 -2.16647547451823" fill="#ff8f0d" stroke="none" /><path d="M 79.35854240842038 103.8639653848113 l -8.902984597601263 1.666588909916551 a30.057629565166714,30.057629565166714 0 0,0 -0.09082207289336248,-0.5093784171261819 l 8.930353112833814 -1.5130917420571552" fill="#ff6a09" stroke="none" /><path d="M 79.1416061653843 102.43462659150553 l -16.110662332355545 1.880463435110032 a37.22003648325014,37.22003648325014 0 0,0 -0.06879981687269776,-0.6370008576982239 l 16.140644450729294 -1.6028662555270259" fill="#ffc912" stroke="none" /><path d="M 79.04373962182676 101.35467743843564 l -8.195010974087236 0.5297508369332542 a29.21211548960691,29.21211548960691 0 0,0 -0.02811825963522934,-0.5020704145654666 l 8.202915584609997 -0.38860870603235" fill="#ff5e08" stroke="none" /><path d="M 79.0095281055655 100.63252640178507 l -9.42318022470466 0.28395789817784356 a30.427457644307005,30.427457644307005 0 0,0 -0.011269659914857648,-0.5236568129650975 l 9.426671947304527 -0.1217112694226172" fill="#ff6f0a" stroke="none" /><line stroke="#e1ed5e" stroke-width="0.3" x1="15.007084014347285" x2="10.007500721073583" y1="101.09737516637583" y2="101.16192664675087" /><path d="M 14.007167355692545 101.11028546245083 a86.0,86.0 0 0,1 10.666146001902534,-42.60595125391555" fill="none" id="id34" stroke="none" /><text fill="#e1ed5e" style="font-size:6.75px; font-family:Arial;" text-anchor="middle"><textPath startOffset="22.20632615414155" xlink:href="#id34">October</textPath></text><path d="M 79.00175016825051 100.2711162175752 l -8.572127147232242 0.11067792351043296 a29.57284161938552,29.57284161938552 0 0,0 -0.0021907880887798168,-0.5090619975234161 l 8.572762232610526 0.036893552216658486" fill="#ff6309" stroke="none" /><path d="M 79.00019446554 99.90962569577889 l -15.790031482203112 -0.06795363445113854 a36.79017770341425,36.79017770341425 0 0,0 0.008176166546657825,-0.6332531094903003 l 15.78652230853874 0.3397430020019108" fill="#ffc412" stroke="none" /><path d="M 79.01574976396665 99.18683210126434 l -10.580739536985067 -0.4100178771974938 a31.588680928668147,31.588680928668147 0 0,0 0.025731826254895337,-0.5431581828462685 l 10.572114102496673 0.5920871666667713" fill="#ff7f0b" stroke="none" /><path d="M 79.03285615573316 98.82574320788736 l -9.639734810788868 -0.5398696245806832 a30.65484057009123,30.65484057009123 0 0,0 0.03404060785468882,-0.5265931367823546 l 9.629013611929766 0.7057218256160497" fill="#ff720a" stroke="none" /><path d="M 79.08570108090925 98.10471618934814 l -10.167497854427076 -0.9213932607964689 a31.20916148176824,31.20916148176824 0 0,0 0.05308956919886842,-0.5346047167232769 l 10.150131159545978 1.0962735082241761" fill="#ff7a0b" stroke="none" /><path d="M 79.16333360222342 97.38593545837743 l -7.520345191922907 -0.9434651076942477 a28.57929536402392,28.57929536402392 0 0,0 0.06543842215286526,-0.487592253602204 l 7.502990770712207 1.0727757033611112" fill="#ff5607" stroke="none" /><path d="M 79.21141760316559 97.0276538004421 l -21.24976552245726 -3.038286045025867 a42.46587330743411,42.46587330743411 0 0,0 0.10969158842293082,-0.7227305149105674 l 21.194318040595025 3.4036156723285265" fill="#f3ff19" stroke="none" /><path d="M 79.26566170972629 96.67025291283419 l -9.809724002554841 -1.5753528984684237 a30.93541251086302,30.93541251086302 0 0,0 0.08895866545881054,-0.5250390791992341 l 9.781153475575808 1.7439777659834859" fill="#ff760a" stroke="none" /><path d="M 79.32604984820605 96.31383870115002 l -9.774869465265347 -1.7428573281649793 a30.929029395127966,30.929029395127966 0 0,0 0.09796295239940701,-0.5233220088996892 l 9.743420788956078 1.910857414527241" fill="#ff760a" stroke="none" /><path d="M 79.46518482838121 95.60439243477599 l -11.382136851257844 -2.43641865941664 a32.63998175190646,32.63998175190646 0 0,0 0.12233094152505262,-0.5483856241696936 l 11.338511522730753 2.6319824531362928" fill="#ff8d0d" stroke="none" /><path d="M 79.62865764111835 94.90015583598534 l -7.70672984924787 -1.9293338923337375 a28.94455878179498,28.94455878179498 0 0,0 0.12515581475154727,-0.48227640850767084 l 7.672377702626016 2.0617067263902724" fill="#ff5b08" stroke="none" /><path d="M 79.81627453868168 94.20196356495316 l -10.59064298061448 -3.0422993014771795 a32.018952027421086,32.018952027421086 0 0,0 0.15673140233724012,-0.5284203733274508 l 10.536705681165532 3.224149061551169" fill="#ff850c" stroke="none" /><path d="M 79.91906864156998 93.8553929516997 l -8.438237855910362 -2.5820344126067973 a29.824441048633304,29.824441048633304 0 0,0 0.15444021017701676,-0.48961767085435925 l 8.392542161965142 2.726902249887571" fill="#ff6709" stroke="none" /><path d="M 80.2630227832202 92.82701384747504 l -9.99891940452125 -3.6338953853515097 a31.6387774170621,31.6387774170621 0 0,0 0.19042839480642745,-0.5102534230398813 l 9.934886421213195 3.805471945420732" fill="#ff800b" stroke="none" /><path d="M 80.38941819471856 92.48833698450439 l -11.407636649892659 -4.3695961276443755 a33.215872635825036,33.215872635825036 0 0,0 0.20911202898877637,-0.5321673048370912 l 11.330731071022191 4.56531243737723" fill="#ff950d" stroke="none" /><path d="M 80.65960295795068 91.81776055985345 l -8.891416518742991 -3.7616445391609465 a30.654390573660002,30.654390573660002 0 0,0 0.20977717664504275,-0.4841946464504529 l 8.825348632255269 3.9141383301979986" fill="#ff720a" stroke="none" /><path d="M 80.803312248108 91.48605970444005 l -6.75584816732974 -2.996292312815499 a28.390483886989394,28.390483886989394 0 0,0 0.20197488157169113,-0.4450248787581296 l 6.703270968794697 3.1121392004156996" fill="#ff5307" stroke="none" /><path d="M 81.10775173730289 90.83032412892265 l -6.726371528094351 -3.2647594846005354 a28.476812718414678,28.476812718414678 0 0,0 0.21783403934353449,-0.4391401309033055 l 6.669177475797403 3.3800592040028024" fill="#ff5407" stroke="none" /><path d="M 81.43458229118936 90.18545643968196 l -7.961620147722624 -4.208882825913824 a30.0056698817409,30.0056698817409 0 0,0 0.24532049981995938,-0.4545416284395169 l 7.887991548684193 4.345305437685814" fill="#ff6909" stroke="none" /><line stroke="#e1ed5e" stroke-width="0.3" x1="26.266209847984243" x2="21.928928074336255" y1="57.711370442889674" y2="55.22380399835377" /><path d="M 25.398753493254645 57.213857153982495 a86.0,86.0 0 0,1 29.58750427330803,-30.492523968695096" fill="none" id="id35" stroke="none" /><text fill="#e1ed5e" style="font-size:6.75px; font-family:Arial;" text-anchor="middle"><textPath startOffset="21.46611528233685" xlink:href="#id35">November</textPath></text><path d="M 82.34701348167596 88.62581576622439 l -4.031576977381662 -2.59762840954918 a25.795965625257427,25.795965625257427 0 0,0 0.24371458924964304,-0.37119403972408765 l 3.986265752774099 2.6666405132509348" fill="#ff2e04" stroke="none" /><path d="M 82.95767976084542 87.72973835380427 l -8.33979330429285 -6.004548939513468 a31.276514989301585,31.276514989301585 0 0,0 0.3183314573091194,-0.4342037500215554 l 8.235199234470098 6.147215133206523" fill="#ff7b0b" stroke="none" /><path d="M 83.17141714833178 87.43820079747576 l -2.0382698232637466 -1.5214790494296189 a23.543509852601495,23.543509852601495 0 0,0 0.2452158122064139,-0.3226752649892266 l 2.011778070833224 1.5563390902998722" fill="#ff0d01" stroke="none" /><path d="M 83.39014120810768 87.1503855733568 l -2.437814745803487 -1.8859269015851303 a24.082152010037696,24.082152010037696 0 0,0 0.256470239407649,-0.3256911590871241 l 2.404990425801867 1.9276104546253021" fill="#ff1502" stroke="none" /><path d="M 83.84228863543731 86.58626213691792 l -6.002453661983797 -4.983090620973404 a28.80132309939127,28.80132309939127 0 0,0 0.3199544284102908,-0.37872512441605294 l 5.915788620086381 5.085674695018573" fill="#ff5908" stroke="none" /><path d="M 84.31358615837235 86.03803664274999 l -10.463188155101456 -9.312941192069218 a35.00746872264918,35.00746872264918 0 0,0 0.40451356721360593,-0.44667398423724014 l 10.301330947271804 9.491667963576013" fill="#ffad10" stroke="none" /><path d="M 84.80347519578584 85.50635884689758 l -5.820147259867256 -5.550948452328767 a29.042831767913057,29.042831767913057 0 0,0 0.3481485066305742,-0.3587976392005214 l 5.723734489533563 5.650310287079413" fill="#ff5c08" stroke="none" /><path d="M 85.05521093208273 85.24692304244772 l -5.757305742607054 -5.683450887318322 a29.090005154659394,29.090005154659394 0 0,0 0.35484847112247897,-0.3533246390170063 l 5.658621471317262 5.781711376985437" fill="#ff5d08" stroke="none" /><path d="M 85.57189188830299 84.74124197986013 l -5.337005995879888 -5.644266206817908 a28.7679710358294,28.7679710358294 0 0,0 0.36273961569074054,-0.3371269399930947 l 5.239058496394292 5.735297732885649" fill="#ff5808" stroke="none" /><path d="M 86.10567301691215 84.25364557470407 l -9.873061459620462 -11.189079197225233 a35.922226236966836,35.922226236966836 0 0,0 0.467170607225201,-0.40512574701008397 l 9.678997053748487 11.357369937655" fill="#ffb911" stroke="none" /><path d="M 86.65592168130627 83.78471172551755 l -6.34904136490094 -7.715147763653139 a30.99168810903469,30.99168810903469 0 0,0 0.41484086667612546,-0.3354391306035817 l 6.215297099660314 7.823292991520854" fill="#ff770a" stroke="none" /><path d="M 86.93701828274178 83.55741782278169 l -4.560601433076326 -5.740501323815389 a28.33160561405918,28.33160561405918 0 0,0 0.3844564409556817,-0.30007435031292645 l 4.461112436961218 5.818154063351537" fill="#ff5207" stroke="none" /><path d="M 87.51073957382395 83.11751280151077 l -4.545409862181719 -6.1443048820838095 a28.642855048947204,28.642855048947204 0 0,0 0.39889224343163526,-0.28981217894455097 l 4.4389723023963015 6.221636295845029" fill="#ff5608" stroke="none" /><path d="M 88.70189139769569 82.29822771554957 l -4.149279721198075 -6.501053172223519 a28.71234170358284,28.71234170358284 0 0,0 0.4189005518343585,-0.262315487128666 l 4.036760016991475 6.5715130006751155" fill="#ff5708" stroke="none" /><path d="M 89.00827224532344 82.1063720568725 l -4.139084696705281 -6.738089155858683 a28.90783583534713,28.90783583534713 0 0,0 0.4262363122941087,-0.25680260896655405 l 4.022486318193523 6.808338374283856" fill="#ff5a08" stroke="none" /><line stroke="#e1ed5e" stroke-width="0.3" x1="56.762969772571076" x2="54.21961505331055" y1="26.818313649435495" y2="22.513508569990535" /><path d="M 56.25429882871897 25.957352633546506 a86.0,86.0 0 0,1 42.265352541879196,-11.944610805530505" fill="none" id="id36" stroke="none" /><text fill="#e1ed5e" style="font-size:6.75px; font-family:Arial;" text-anchor="middle"><textPath startOffset="22.20632615414155" xlink:href="#id36">December</textPath></text><path d="M 89.63071344664047 81.73862282372117 l -3.8393858893343604 -6.761552348816311 a28.775569057824846,28.775569057824846 0 0,0 0.43283376612431823,-0.24087152222900926 l 3.7224280341379967 6.826639268605504" fill="#ff5808" stroke="none" /><path d="M 90.26544431104013 81.39251694778311 l -6.165103609836902 -11.784519458376915 a34.299751929449215,34.299751929449215 0 0,0 0.52550406960035,-0.2691835951380977 l 5.961339052647788 11.888895578827517" fill="#ffa30f" stroke="none" /><path d="M 90.91171255644093 81.06846463323043 l -3.284083688338892 -6.840974922869657 a28.58842167827705,28.58842167827705 0 0,0 0.4454644989374698,-0.20915155527794657 l 3.1658409781018135 6.896491460787612" fill="#ff5607" stroke="none" /><path d="M 91.23893434514133 80.91482961587045 l -4.42857628697269 -9.647243420566856 a31.61515866792425,31.61515866792425 0 0,0 0.4965354598186462,-0.22278098715937744 l 4.261858708687269 9.722044738242761" fill="#ff7f0b" stroke="none" /><path d="M 92.57280143429618 80.3572730644239 l -6.4567466136553415 -17.076170712586727 a39.25609988574653,39.25609988574653 0 0,0 0.63411251916584,-0.23354899230446538 l 6.161851768716932 17.184782972697516" fill="#ffe315" stroke="none" /><path d="M 93.25333710446033 80.11325718540243 l -3.082401915860181 -9.085815476635124 a30.594438203790823,30.594438203790823 0 0,0 0.5001712466287846,-0.16489859612705227 l 2.9255478469889873 9.137527797021411" fill="#ff710a" stroke="none" /><path d="M 93.59665428221793 80.00007090966166 l -3.6374660178081046 -11.361101778817515 a32.929199162532214,32.929199162532214 0 0,0 0.5413162483727496,-0.16818959336188896 l 3.441364396724626 11.422031507061929" fill="#ff910d" stroke="none" /><path d="M 94.28887869178378 79.79150937346287 l -2.5497588258240245 -9.022182256480315 a30.375555596284187,30.375555596284187 0 0,0 0.5043819215441173,-0.13786663229547666 l 2.394079015056185 9.064735429602088" fill="#ff6e0a" stroke="none" /><path d="M 98.19473922651362 79.07773832637324 l -0.6670953256257927 -7.731372203386207 a28.760098731379948,28.760098731379948 0 0,0 0.4935915113189152,-0.038312201021156914 l 0.5339136249445432 7.741709666595826" fill="#ff5808" stroke="none" /><path d="M 99.27714615592234 79.0124445844662 l -0.31835910311109217 -9.243333729668638 a30.24881457034163,30.24881457034163 0 0,0 0.520529328697644,-0.013443736849153268 l 0.15920313921856913 9.24744425866015" fill="#ff6d0a" stroke="none" /></svg>