<?xml version="1.0" encoding="utf-8" ?>
<svg baseProfile="full" height="200mm" version="1.1" viewBox="0,0,200,200" width="200mm" xmlns="http://www.w3.org/2000/svg" xmlns:ev="http://www.w3.org/2001/xml-events" xmlns:xlink="http://www.w3.org/1999/xlink"><defs /><rect fill="#1a1a1a" height="200" width="200" x="0" y="0" /><text alignment-baseline="middle" fill="#e1ed5e" style="dominant-baseline: central; font-size:9.0px; font-family:Arial;" text-anchor="middle" x="100.0" y="100.0">2023</text><line stroke="#e1ed5e" stroke-width="0.3" x1="100.0" x2="100.0" y1="15.0" y2="10.0" /><path d="M 100.0 14.0 a86.0,86.0 0 0,1 42.46469731375804,11.215312516191453" fill="none" id="id49" stroke="none" /><text fill="#e1ed5e" style="font-size:6.75px; font-family:Arial;" text-anchor="middle"><textPath startOffset="22.20632615414155" xlink:href="#id49">January</textPath></text><path d="M 102.16513564639614 79.11191278185805 l 1.5735596076078948 -15.180873485395146 a36.262208543270155,36.262208543270155 0 0,0 0.6203139387150829,0.06969949870949205 l -1.834640249832703 15.151538033215054" fill="#ff3705" stroke="none" /><path d="M 104.66035177308747 79.52364482259891 l 3.5168943444976626 -15.452305153269304 a36.84746921057469,36.84746921057469 0 0,0 0.6172412792218046,0.1460810685258963 l -3.782359310681991 15.389478172602539" fill="#ff4206" stroke="none" /><path d="M 106.40334571778207 80.00007090966166 l 5.891933984629331 -18.402608119424944 a40.32280703408164,40.32280703408164 0 0,0 0.6592148719145002,0.21733277883815116 l -6.207831678786249 18.298461616327558" fill="#ff7c0b" stroke="none" /><path d="M 107.08798089147638 80.2323363322302 l 5.214284716862306 -14.542114056046307 a36.44868429114801,36.44868429114801 0 0,0 0.5887637101853741,0.21684664324261804 l -5.4638307528202565 14.450204144997365" fill="#ff3b05" stroke="none" /><path d="M 109.73455568895987 81.39251694778311 l 7.095585257356909 -13.563123643287328 a36.307045864814036,36.307045864814036 0 0,0 0.5512705438057025,0.2944696327930642 l -7.328000847690923 13.43897528399251" fill="#ff3805" stroke="none" /><path d="M 110.36928655335952 81.73862282372117 l 6.962529194823658 -12.261728043992981 a35.100595285789026,35.100595285789026 0 0,0 0.5228371856098524,0.3028610447104475 l -7.172563112898838 12.140062841892485" fill="#ff2303" stroke="none" /><line stroke="#e1ed5e" stroke-width="0.3" x1="143.23703022742887" x2="145.7803849466894" y1="26.81831364943548" y2="22.513508569990506" /><path d="M 143.74570117128098 25.957352633546492 a86.0,86.0 0 0,1 28.547481713284135,27.462654790039103" fill="none" id="id50" stroke="none" /><text fill="#e1ed5e" style="font-size:6.75px; font-family:Arial;" text-anchor="middle"><textPath startOffset="19.985693538727396" xlink:href="#id50">February</textPath></text><path d="M 111.2981086023043 82.29822771554956 l 9.260884430786783 -14.509868254670971 a38.21337437018952,38.21337437018952 0 0,0 0.5514244042960614,0.3586617714218606 l -9.509275860867124 14.348307559089582" fill="#ff5908" stroke="none" /><path d="M 113.6212207817346 84.01681056812373 l 12.408152931075099 -14.559771255084858 a40.129798696309976,40.129798696309976 0 0,0 0.5218903277628215,0.45257814944323055 l -12.656937057484685 14.344028112221956" fill="#ff790b" stroke="none" /><path d="M 113.89432698308785 84.25364557470407 l 9.983074624969372 -11.313756433851463 a36.08850103927566,36.08850103927566 0 0,0 0.4622576311283737,0.41501946538168155 l -10.176343243693736 11.140237959700483" fill="#ff3405" stroke="none" /><path d="M 114.42810811169701 84.74124197986012 l 9.665411840783943 -10.221865493505117 a35.06793233631997,35.06793233631997 0 0,0 0.4350373326417748,0.4185055693217604 l -9.839932417038137 10.053976837421056" fill="#ff2303" stroke="none" /><path d="M 114.94478906791727 85.2469230424477 l 10.878145776274046 -10.738600662980726 a36.285666479707025,36.285666479707025 0 0,0 0.43497137944249825,0.44827624157919255 l -11.061381419419654 10.54976022585142" fill="#ff3805" stroke="none" /><path d="M 115.4437574822437 85.77008943001954 l 13.647358933438781 -12.574705175378348 a39.55730627288881,39.55730627288881 0 0,0 0.4570872346293169,0.5047271409021591 l -13.861789808684133 12.33792524720664" fill="#ff6f0a" stroke="none" /><path d="M 115.9244219780498 86.31012108654704 l 12.580373672658158 -10.815073382385537 a37.59010590713919,37.59010590713919 0 0,0 0.4175891783824187,0.49429387279764486 l -12.764673464527693 10.596920559958784" fill="#ff4e07" stroke="none" /><path d="M 116.38621287248628 86.86637796730983 l 14.02328092343804 -11.239721633051413 a38.97174866968001,38.97174866968001 0 0,0 0.41504155057578784,0.5270606211018896 l -14.214676554607793 10.996668617996486" fill="#ff6509" stroke="none" /><path d="M 116.82858285166822 87.43820079747576 l 12.902518977494218 -9.631164669696117 a37.10075553691196,37.10075553691196 0 0,0 0.37761040772524634,0.5150601717701244 l -13.06639199773309 9.4076420542545" fill="#ff4606" stroke="none" /><path d="M 117.2510076193507 88.02491185347247 l 12.12043320965914 -8.413610338735145 a35.75444814697856,35.75444814697856 0 0,0 0.34660623267812984,0.5086018774924376 l -12.263463908006003 8.203730437972302" fill="#ff2f04" stroke="none" /><path d="M 117.45458315368197 88.32363383020206 l 16.35325964588697 -10.939628062952456 a40.67497301653886,40.67497301653886 0 0,0 0.38428816681937733,0.5852972425615991 l -16.53914444806427 10.656512756413182" fill="#ff810b" stroke="none" /><line stroke="#e1ed5e" stroke-width="0.3" x1="172.23445277983987" x2="176.4835382374775" y1="55.19839476539836" y2="52.563006222186495" /><path d="M 173.08426987136738 54.67131705675599 a86.0,86.0 0 0,1 12.851231095245387,41.99856678651699" fill="none" id="id51" stroke="none" /><text fill="#e1ed5e" style="font-size:6.75px; font-family:Arial;" text-anchor="middle"><textPath startOffset="22.20632615414155" xlink:href="#id51">March</textPath></text><path d="M 117.84615892207809 88.93136811851018 l 12.87041089794837 -7.982549130875771 a36.14491886108584,36.14491886108584 0 0,0 0.32338377267734864,0.5315578942437382 l -13.005910468911942 7.759823463424952" fill="#ff3505" stroke="none" /><path d="M 118.21658344932153 89.55222093294921 l 19.64992437464438 -11.269844815943626 a43.65234932859492,43.65234932859492 0 0,0 0.3682228630092373,0.6550273858822423 l -19.841004878946052 10.92993392012659" fill="#ffb110" stroke="none" /><path d="M 118.3937258080291 89.86733742301442 l 31.301853005044034 -17.243440390748034 a56.73712688589648,56.73712688589648 0 0,0 0.46387167428203385,0.859483762546805 l -31.59403277854453 16.70207564486877" fill="#8fff24" stroke="none" /><path d="M 118.73160827565052 90.50648371742162 l 16.067810018179152 -8.143455371701794 a39.013616632181254,39.013616632181254 0 0,0 0.2984355652587761,0.6016278887766567 l -16.205605596391337 7.865667894426187" fill="#ff6609" stroke="none" /><path d="M 118.89224826269711 90.83032412892265 l 17.20094205814283 -8.348771472677766 a40.11999981146927,40.11999981146927 0 0,0 0.29620367780183793,0.6238804868064467 l -17.342103929786422 8.051448570230779" fill="#ff780b" stroke="none" /><path d="M 119.196687751892 91.48605970444005 l 17.312278697662766 -7.678184336642548 a39.9385719739639,39.9385719739639 0 0,0 0.27331161087025513,0.6308408803692076 l -17.441881018375703 7.379044311686738" fill="#ff750a" stroke="none" /><path d="M 119.47837535516314 92.15188598940014 l 34.1003541004038 -13.739516869452677 a57.76422817874599,57.76422817874599 0 0,0 0.36365731196835505,0.9254681929602886 l -34.33180496225385 13.150499671596604" fill="#82ff25" stroke="none" /><path d="M 119.7369772167798 92.82701384747503 l 12.510185057477194 -4.54656167442491 a34.31074578044653,34.31074578044653 0 0,0 0.19695498566431696,0.5568182667166284 l -12.586593123951321 4.330545781281668" fill="#ff1602" stroke="none" /><path d="M 119.85752413597 93.16781622104841 l 16.828078740441576 -5.789872182157052 a38.79625955025993,38.79625955025993 0 0,0 0.21183257674121975,0.6333524418969597 l -16.92524861095457 5.499346637337778" fill="#ff6209" stroke="none" /><path d="M 120.18372546131832 94.20196356495316 l 16.86307182077677 -4.84413568798559 a38.54505177525251,38.54505177525251 0 0,0 0.17769861624042546,0.6392764686881767 l -16.94395720758356 4.553147915878461" fill="#ff5e08" stroke="none" /><path d="M 120.28053869075195 94.5502522615342 l 31.91756679262229 -8.576827770592862 a54.049856952306435,54.049856952306435 0 0,0 0.23371072729308792,0.9005827688659686 l -32.06047385178568 8.026148576178043" fill="#b3ff20" stroke="none" /><path d="M 120.45610955862082 95.25157060432595 l 16.83552847793755 -3.907992284029208 a38.28315430769158,38.28315430769158 0 0,0 0.14348091082297387,0.6431967894400442 l -16.900303775762563 3.6176173250391996" fill="#ff5a08" stroke="none" /><path d="M 120.53481517161879 95.60439243477599 l 24.276565559449054 -5.196552992512713 a45.826514019616624,45.826514019616624 0 0,0 0.15847398637456309,0.7727754384530927 l -24.362418841738613 4.777901897896209" fill="#ffd313" stroke="none" /><path d="M 120.67395015179393 96.31383870115 l 17.500365746614168 -3.120311815460751 a38.77636484467425,38.77636484467425 0 0,0 0.11150630904678782,0.6581165480043824 l -17.55148391718118 2.8186094791405307" fill="#ff6209" stroke="none" /><path d="M 120.78858239683441 97.02765380044208 l 40.82534762732858 -5.837197772763905 a62.2405369355272,62.2405369355272 0 0,0 0.14251304936422243,1.0618877506688658 l -40.91977667575064 5.133591680030374" fill="#49ff2c" stroke="none" /><path d="M 120.87857604477298 97.74499172005257 l 22.563882870729817 -2.4370312703388652 a43.69510809880896,43.69510809880896 0 0,0 0.07432927880548497,0.7484856938883999 l -22.602489275217533 2.04827004574603" fill="#ffb210" stroke="none" /><path d="M 120.91429891909075 98.10471618934814 l 24.8071124980819 -2.2480561690603484 a45.90876526509778,45.90876526509778 0 0,0 0.06454666626960294,0.7876328191995299 l -24.842133648171 1.8207094326530497" fill="#ffd413" stroke="none" /><path d="M 120.96714384426684 98.82574320788733 l 25.53863284628856 -1.4302812678621486 a46.57865266511757,46.57865266511757 0 0,0 0.03794250859263785,0.8009063878970937 l -25.559468963114696 0.9904637733420552" fill="#ffdf14" stroke="none" /><line stroke="#e1ed5e" stroke-width="0.3" x1="184.98032266829074" x2="189.97916517819016" y1="98.17113171792111" y2="98.06355123074" /><path d="M 185.9800911702706 98.14961562048488 a86.0,86.0 0 0,1 -9.607161424134198,41.387399972396054" fill="none" id="id52" stroke="none" /><text fill="#e1ed5e" style="font-size:6.75px; font-family:Arial;" text-anchor="middle"><textPath startOffset="21.466115282336823" xlink:href="#id52">April</textPath></text><path d="M 120.99513854157772 99.54816195383933 l 45.69171584199969 -0.9833350502018708 a66.70229583299947,66.70229583299947 0 0,0 0.014823768565935246,1.1481172117978091 l -45.701872617683335 0.19668158034359898" fill="#33ff51" stroke="none" /><path d="M 120.99824983174949 100.27111621757518 l 15.780531095424648 0.20374830932100915 a36.78184637573232,36.78184637573232 0 0,0 -0.013623185497149129,0.6330158987730055 l -15.774685847242491 -0.4753540238841295" fill="#ff4006" stroke="none" /><path d="M 120.9904718944345 100.63252640178507 l 22.844193122929127 0.6883863950462602 a43.854562679398775,43.854562679398775 0 0,0 -0.02923192105975269,0.7543459934309166 l -22.828959069018172 -1.0815096354911828" fill="#ffb410" stroke="none" /><path d="M 120.9764740272857 100.99374915477107 l 16.215299764879216 0.7681910894437035 a37.23348588611801,37.23348588611801 0 0,0 -0.03583926756838665,0.6399341978917054 l -16.199674146423302 -1.0471970036708322" fill="#ff4806" stroke="none" /><path d="M 120.95626037817324 101.35467743843564 l 25.088308230386346 1.6217857821437416 a46.140672206328034,46.140672206328034 0 0,0 -0.05805692120152066,0.7921405633560997 l -25.05667475052049 -2.0533994819966117" fill="#ffd814" stroke="none" /><path d="M 120.89721153311464 102.0752229133903 l 49.4625877982522 4.9119422173554215 a70.70588263019224,70.70588263019224 0 0,0 -0.13069712543051498,1.2100930610320633 l -49.37070837132064 -5.762631600272275" fill="#39ff89" stroke="none" /><path d="M 120.81339534386255 102.79330883721812 l 18.950689311401035 2.543320157540796 a40.1205936832778,40.1205936832778 0 0,0 -0.09775277378963133,0.6836826722092927 l -18.9041024865948 -2.869148301730498" fill="#ff780b" stroke="none" /><path d="M 120.76222939487914 103.15116336523771 l 23.94505948187875 3.634233722335445 a45.21928009539655,45.21928009539655 0 0,0 -0.12342332400541144,0.7685571563984601 l -23.87895440351205 -4.04587010842711" fill="#ffca12" stroke="none" /><path d="M 120.64145759157962 103.86396538481128 l 22.41152871207056 4.19531279610171 a43.800817280726974,43.800817280726974 0 0,0 -0.14510599018766024,0.7398923177877637 l -22.335992788907234 -4.580468840957419" fill="#ffb410" stroke="none" /><path d="M 120.49622156327973 104.57218783832717 l 46.57143180765015 10.388906729321487 a68.71611513571855,68.71611513571855 0 0,0 -0.2674674458402194,1.1522427564062465 l -46.38570379587938 -11.189018143076298" fill="#36ff6d" stroke="none" /><path d="M 120.32669344350535 105.2749913415812 l 20.290670703235847 5.265643060536393 a41.96278403333223,41.96278403333223 0 0,0 -0.1874575948676882,0.6975994464396484 l -20.19702503202638 -5.61413344015159" fill="#ff960d" stroke="none" /><path d="M 120.23288151984713 105.62410040840565 l 20.609565367963917 5.728806590861941 a42.39096560728105,42.39096560728105 0 0,0 -0.20147288081498912,0.7013535288758176 l -20.507899850262827 -6.0827175952423405" fill="#ff9d0e" stroke="none" /><path d="M 119.9155931802556 106.66101706037122 l 22.152550393576586 7.409195135028013 a44.35875984483921,44.35875984483921 0 0,0 -0.24842842313049146,0.722049284384394 l -22.02173113950286 -7.789417122501708" fill="#ffbc11" stroke="none" /><path d="M 119.79798401119884 107.00284435728193 l 27.45759892567307 9.712165218054269 a50.124661233839376,50.124661233839376 0 0,0 -0.2947228375100467,0.8109506704056336 l -27.286351827157798 -10.183363685466034" fill="#ebff1a" stroke="none" /><path d="M 119.54520255179757 107.68017299344265 l 26.79002813486925 10.526984820429428 a49.78407575164847,49.78407575164847 0 0,0 -0.3202713564599833,0.7948872414709044 l -26.604854164151874 -10.986571429743146" fill="#f0ff19" stroke="none" /><path d="M 119.41010516605496 108.01547362559984 l 28.790889046781512 11.889302496703172 a52.149170229111974,52.149170229111974 0 0,0 -0.3497694980193179,0.8267517730782423 l -28.581968567569884 -12.383128795447577" fill="#ceff1d" stroke="none" /><path d="M 119.12269723197855 108.67885076344098 l 20.69330963619059 9.391674404269775 a43.72480168923536,43.72480168923536 0 0,0 -0.31695355670220204,0.6826897636244269 l -20.528581462648557 -9.746484235173034" fill="#ffb210" stroke="none" /><path d="M 118.81262510543309 109.33194174019688 l 50.834973037494315 25.21652369574794 a77.7456390484854,77.7456390484854 0 0,0 -0.6050140834104795,1.1937501842698413 l -50.39338028429757 -26.087828091720475" fill="#44ffe3" stroke="none" /><line stroke="#e1ed5e" stroke-width="0.3" x1="174.80103733775053" x2="179.2010983576182" y1="140.37084112569926" y2="142.7455964860345" /><path d="M 175.68104954172406 140.8457921977663 a86.0,86.0 0 0,1 -30.038265399797805,32.042727171017184" fill="none" id="id53" stroke="none" /><text fill="#e1ed5e" style="font-size:6.75px; font-family:Arial;" text-anchor="middle"><textPath startOffset="22.206326154141568" xlink:href="#id53">May</textPath></text><path d="M 118.48025628344425 109.97397251340804 l 15.222190767684339 8.215563138415574 a38.29770416700052,38.29770416700052 0 0,0 -0.3180963366939102,0.5774372484262664 l -15.078518021538919 -8.476370905239644" fill="#ff5a08" stroke="none" /><path d="M 118.30583269289576 110.29060199501025 l 25.786766219964182 14.495999846595847 a50.58194252640608,50.58194252640608 0 0,0 -0.4331933997194856,0.7553092063912507 l -25.533420824092318 -14.937728898845414" fill="#e4ff1a" stroke="none" /><path d="M 118.12598468904814 110.60418214915192 l 16.59067490549611 9.705985175058835 a40.22125495482332,40.22125495482332 0 0,0 -0.3547497914786055,0.5945810556880243 l -16.421144238319275 -9.990128324632964" fill="#ff7a0b" stroke="none" /><path d="M 117.75023020441432 111.22182372390056 l 14.184656570993798 8.967642322980911 a37.78162956538953,37.78162956538953 0 0,0 -0.35225996774252943,0.5467152926043286 l -14.028191739874218 -9.210479215506693" fill="#ff5107" stroke="none" /><path d="M 116.93607887273984 112.41649034213515 l 23.98967190799407 17.587750493772436 a50.746148081464135,50.746148081464135 0 0,0 -0.5225372752970995,0.7000240720815831 l -23.683373366001877 -17.998087445363335" fill="#e2ff1b" stroke="none" /><path d="M 116.71984013943494 112.70617746262583 l 19.068310712122017 14.490888537221366 a44.94966229432475,44.94966229432475 0 0,0 -0.4734551841835558,0.6120046479583441 l -18.81604871072039 -14.816971179292963" fill="#ffc612" stroke="none" /><path d="M 116.498646956653 112.99209946851258 l 17.72589552155658 13.958514197532946 a43.56208081369864,43.56208081369864 0 0,0 -0.46898124693315124,0.5851262147123483 l -17.482996362568574 -14.261568245823543" fill="#ffb010" stroke="none" /><path d="M 116.0416608686014 113.55231037782055 l 25.918267861883404 21.896262076406774 a54.929381100736684,54.929381100736684 0 0,0 -0.616405719096662,0.7170191089807563 l -25.537519633215965 -22.339158284549057" fill="#a7ff21" stroke="none" /><path d="M 115.56566222782051 114.09645910891815 l 21.286529324027697 19.277348165157914 a49.71815598090184,49.71815598090184 0 0,0 -0.5799352807309945,0.6294052086244888 l -20.95154763530098 -19.64090462858374" fill="#f1ff19" stroke="none" /><path d="M 115.32070863581623 114.36230785411682 l 17.22721317894887 16.149549281692238 a44.61323391479354,44.61323391479354 0 0,0 -0.5300337896923228,0.5557383094452345 l -16.946672837877582 -16.443694707719978" fill="#ffc011" stroke="none" /><path d="M 114.81725581225074 114.88116024355365 l 15.920062971381286 15.988723631856052 a43.562971621411435,43.562971621411435 0 0,0 -0.5359283710973128,0.5245187090886094 l -15.64248464790818 -16.260392443867236" fill="#ffb010" stroke="none" /><path d="M 114.0293411484842 115.62618273729858 l 42.088023445452606 46.878548211895726 a84.0,84.0 0 0,0 -1.0842305883736492,0.9567074329108447 l -41.27485050417237 -47.59607878657886" fill="#4dd2ff" stroke="none" /><path d="M 113.20401910651253 116.32954008644616 l 20.41253093487528 25.244377448868086 a53.46459628500191,53.46459628500191 0 0,0 -0.7206073039695969,0.5724940240906886 l -19.974966138188332 -25.5920053869639" fill="#bbff1f" stroke="none" /><path d="M 112.92097659922987 116.55440617244103 l 19.080649202191264 24.446203001850776 a52.011095033629175,52.011095033629175 0 0,0 -0.7104994745115684,0.5447806998036289 l -18.6570209991862 -24.77102304348178" fill="#d0ff1d" stroke="none" /><path d="M 112.63410532772338 116.77436683061366 l 10.698976298067361 14.205086033437603 a38.783491306376575,38.783491306376575 0 0,0 -0.5367174034892372,0.3970507040004106 l -10.45287392415956 -14.387146686177783" fill="#ff6209" stroke="none" /><line stroke="#e1ed5e" stroke-width="0.3" x1="143.8653032363475" x2="146.44561519142675" y1="172.8068346515853" y2="177.08958963109032" /><path d="M 144.38136562736335 173.6633856474863 a86.0,86.0 0 0,1 -40.68145358897372,12.25698825130547" fill="none" id="id54" stroke="none" /><text fill="#e1ed5e" style="font-size:6.75px; font-family:Arial;" text-anchor="middle"><textPath startOffset="21.466115282336833" xlink:href="#id54">June</textPath></text><path d="M 109.57404056367764 118.69057910512821 l 5.512743449745917 10.762056714555483 a33.09182389344243,33.09182389344243 0 0,0 -0.5092139799436276,0.25533046065255344 l -5.326675562119529 -10.855355016117338" fill="#ff0000" stroke="none" /><path d="M 109.2508944713604 118.85261126421891 l 7.139775359932476 14.550312922860682 a37.20765246244704,37.20765246244704 0 0,0 -0.5774048852838779,0.27718943377335487 l -6.888257806648365 -14.671056633133597" fill="#ff4806" stroke="none" /><path d="M 108.92500713936063 119.00905698771935 l 7.625000914854456 16.2402197173216 a38.94116427154081,38.94116427154081 0 0,0 -0.6092104164418791,0.2796586223044353 l -7.3443225026451575 -16.36906540996011" fill="#ff6509" stroke="none" /><path d="M 108.2653958097858 119.30500536409082 l 6.4322338891040705 15.023395441658687 a37.34246136298293,37.34246136298293 0 0,0 -0.5930846017699117,0.24790941164040853 l -6.172677827836697 -15.13188989631907" fill="#ff4a06" stroke="none" /><path d="M 107.93186726928326 119.44442032107085 l 11.570252062305668 28.363667303340733 a51.632798691596705,51.632798691596705 0 0,0 -0.8258270888324017,0.32861364177514746 l -11.080303897431401 -28.55862778952195" fill="#d5ff1c" stroke="none" /><path d="M 107.2578585660854 119.70592522655815 l 10.52652382367302 28.580729353722518 a51.45760650808089,51.45760650808089 0 0,0 -0.8338103310243802,0.29897471915471907 l -10.032993932018906 -28.757691613917196" fill="#d8ff1c" stroke="none" /><path d="M 106.91757812671514 119.82793768551818 l 10.027222952891952 28.741150186785095 a51.44008728972931,51.44008728972931 0 0,0 -0.8385475628393044,0.28448086150138036 l -9.53100565711542 -28.909494035184597" fill="#d8ff1c" stroke="none" /><path d="M 106.2309692047433 120.05430185196036 l 15.91549538880851 51.22383663968018 a74.63939255397871,74.63939255397871 0 0,0 -1.2302172216909717,0.3706543572697393 l -15.031403192677292 -51.490206366055645" fill="#3fffbd" stroke="none" /><path d="M 105.53697534728816 120.25689768951611 l 5.567639616628175 20.36908221767167 a42.11629989583677,42.11629989583677 0 0,0 -0.7009547298577183,0.18512851503382377 l -5.216194443958959 -20.461902082009082" fill="#ff990e" stroke="none" /><path d="M 104.83641907484287 120.43548508189849 l 7.914724693934692 33.44235392080679 a55.366173815909164,55.366173815909164 0 0,0 -0.9293076512057378,0.2115073958484721 l -7.337896893336091 -33.573638050232944" fill="#a1ff22" stroke="none" /><path d="M 104.48393922423573 120.51570834832081 l 5.429495907563158 24.841985795860825 a46.42840309755994,46.42840309755994 0 0,0 -0.7822269261007344,0.16392325781435235 l -5.0010775200330455 -24.93176503440172" fill="#ffdc14" stroke="none" /><path d="M 104.13013068566511 120.58985236759428 l 4.094779677614052 20.413617741570658 a41.820254799285465,41.820254799285465 0 0,0 -0.7070259438385451,0.13550320487258594 l -3.7427861192038026 -20.481078144791713" fill="#ff940d" stroke="none" /><path d="M 103.41894727170886 120.7198165907248 l 4.749965793668488 28.786176631450672 a50.17543727346854,50.17543727346854 0 0,0 -0.8533746058020671,0.13327956289110454 l -4.253755324257904 -28.86367450168888" fill="#eaff1a" stroke="none" /><path d="M 102.70371172650421 120.8252237178851 l 3.654363311327549 28.147576814050975 a49.383806152700465,49.383806152700465 0 0,0 -0.8439282749309865,0.10218796123311241 l -3.1693076133451825 -28.20631030400944" fill="#f6ff19" stroke="none" /><path d="M 102.34483914955558 120.86867818915974 l 4.175778043109133 37.1637296261962 a58.3975924625413,58.3975924625413 0 0,0 -0.9998986041066764,0.10364357865438842 l -3.535446842396855 -37.23010257330635" fill="#79ff26" stroke="none" /><path d="M 101.62511606390274 120.93702456842531 l 2.2098045857838513 28.46980220776687 a49.55543510536512,49.55543510536512 0 0,0 -0.8510254907046549,0.05869170044220139 l -1.7194163343002657 -28.503622252725357" fill="#f3ff19" stroke="none" /><path d="M 101.26447882468166 120.96189622390904 l 2.256927260689452 37.41420900060854 a58.48221919525657,58.48221919525657 0 0,0 -1.005370424530755,0.051966167198035866 l -1.6125687677452172 -37.447514974568776" fill="#78ff26" stroke="none" /><line stroke="#e1ed5e" stroke-width="0.3" x1="102.19456741930631" x2="102.32365962044197" y1="184.97166512339345" y2="189.96999836594603" /><path d="M 102.22038585953345 185.97133177190398 a86.0,86.0 0 0,1 -42.740103519485714,-10.115201625700543" fill="none" id="id55" stroke="none" /><text fill="#e1ed5e" style="font-size:6.75px; font-family:Arial;" text-anchor="middle"><textPath startOffset="22.20632615414155" xlink:href="#id55">July</textPath></text><path d="M 100.54218724476979 120.99299961872073 l 0.581344772338208 22.509143661656996 a43.516649620346236,43.516649620346236 0 0,0 -0.7489843492195265,0.012894444809402505 l -0.1938007332260136 -22.51581558374556" fill="#ffaf10" stroke="none" /><path d="M 100.18074693466247 120.99922214144158 l 0.31819560449476947 36.968041508942015 a57.96941088859247,57.96941088859247 0 0,0 -0.9978850783144244,0.0 l 0.318195604494744 -36.968041508942015" fill="#7fff26" stroke="none" /><path d="M 99.45781275523022 120.99299961872073 l -0.6504422328826225 25.18453482376321 a46.19293292547851,46.19293292547851 0 0,0 -0.7946936458301751,-0.027370855984840875 l 1.0838562303874406 -25.169607169352275" fill="#ffd914" stroke="none" /><path d="M 99.09653310690486 120.98055641714683 l -1.5393816769552824 35.74794424424076 a56.781073399727575,56.781073399727575 0 0,0 -0.976125951694815,-0.050454561994691165 l 2.1544956970635862 -35.71614987548387" fill="#8eff24" stroke="none" /><path d="M 98.37488393609728 120.93702456842531 l -2.875110482528029 37.041205946278765 a58.15262034152342,58.15262034152342 0 0,0 -0.9973331740104033,-0.08605410281275468 l 3.5122879742799737 -36.98622759118735" fill="#7cff26" stroke="none" /><path d="M 98.01472825383883 120.90594882070398 l -3.4215894253277788 36.031124479397654 a57.19322043484613,57.19322043484613 0 0,0 -0.9792770363581687,-0.10150606884074313 l 4.041299058291541 -35.96688904210115" fill="#89ff24" stroke="none" /><path d="M 97.65516085044442 120.86867818915974 l -1.6856954009111444 15.002408524793102 a36.09681524459506,36.09681524459506 0 0,0 -0.6168646241174153,-0.07469371529298356 l 1.9436874480799493 -14.97116928077477" fill="#ff3505" stroke="none" /><path d="M 97.2962882734958 120.8252237178851 l -3.1588648452057364 24.331021111125796 a45.535219897533544,45.535219897533544 0 0,0 -0.7764219209203467,-0.10760500346689927 l 3.577215357312914 -24.273041542166293" fill="#ffcf13" stroke="none" /><path d="M 96.93821686468263 120.77559828337769 l -4.994801885606642 33.89201419376979 a55.25808914675704,55.25808914675704 0 0,0 -0.9398194137497643,-0.14678046406526818 l 5.577457162964923 -33.80101542235741" fill="#a3ff22" stroke="none" /><path d="M 96.22490169976321 120.6578951692458 l -6.761484018617805 36.99983866284384 a58.6125740572285,58.6125740572285 0 0,0 -0.9909219992205246,-0.18991255956484387 l 7.397373632410025 -36.87796890493053" fill="#77ff27" stroke="none" /><path d="M 95.86986931433489 120.58985236759428 l -2.564836325871491 12.786423800106135 a34.041127979374735,34.041127979374735 0 0,0 -0.5735257972227518,-0.1201879070949066 l 2.7845535845236293 -12.740379912284688" fill="#ff1101" stroke="none" /><path d="M 95.51606077576429 120.51570834832081 l -4.046063697943031 18.51226313172795 a39.949261666517415,39.949261666517415 0 0,0 -0.6705385611466428,-0.1526123934308444 l 4.364122408482537 -18.439874004719417" fill="#ff760a" stroke="none" /><path d="M 95.16358092515715 120.4354850818985 l -6.9195712952848325 29.237498609965044 a51.04516253705807,51.04516253705807 0 0,0 -0.8532969827801505,-0.20971963775491376 l 7.421821562808193 -29.1140577138961" fill="#ddff1b" stroke="none" /><path d="M 94.81253420990036 120.34920634021253 l -6.256293963256661 24.54196749139245 a46.32685101830162,46.32685101830162 0 0,0 -0.7710322469211764,-0.20363662421492462 l 6.6778166529893275 -24.430639517873946" fill="#ffdb14" stroke="none" /><path d="M 94.46302465271185 120.25689768951611 l -9.489430033088196 34.71686277350611 a56.99041321223376,56.99041321223376 0 0,0 -0.9440565939702446,-0.2667998233824274 l 10.085617795163055 -34.54837415678516" fill="#8cff24" stroke="none" /><path d="M 93.76903079525671 120.05430185196036 l -10.667275256721743 34.33250123807332 a56.95151460877516,56.95151460877516 0 0,0 -0.9336757545020368,-0.29893349208302006 l 11.25667235631472 -34.143794899330594" fill="#8cff24" stroke="none" /><path d="M 93.42475214034765 119.94407469862007 l -7.980685512233734 24.20705521671393 a46.48868108612555,46.48868108612555 0 0,0 -0.7578325053147381,-0.25709793163754013 l 8.396187750485698 -24.066094298178264" fill="#ffdd14" stroke="none" /><path d="M 93.08242187328487 119.8279376855182 l -15.672707737136658 44.92287136955697 a68.57833687614001,68.57833687614001 0 0,0 -1.1112317430235974,-0.39844816731657057 l 16.44365904078998 -44.64643566120044" fill="#36ff6c" stroke="none" /><path d="M 92.40401165467489 119.57807347666478 l -9.007586890242461 23.216359737195113 a45.90252961110823,45.90252961110823 0 0,0 -0.7341758215588465,-0.29214371106040876 l 9.405883787843166 -23.057869181728638" fill="#ffd413" stroke="none" /><path d="M 92.06813273071674 119.44442032107085 l -13.652634990689187 33.46848405761434 a57.14600762606814,57.14600762606814 0 0,0 -0.907610691384257,-0.37938134260802736 l 14.226717141570905 -33.228517671986346" fill="#8aff24" stroke="none" /><path d="M 91.40352486487194 119.15986991738527 l -15.183849816130536 33.841845960023456 a58.09204541705355,58.09204541705355 0 0,0 -0.908814100515938,-0.4171919790300883 l 15.764131912413893 -33.575466910659294" fill="#7dff26" stroke="none" /><path d="M 91.07499286063937 119.00905698771935 l -8.873602544280818 18.89957215907496 a41.879048108329755,41.879048108329755 0 0,0 -0.6498976787958616,-0.31199038003891816 l 9.197612891076922 -18.74402750253648" fill="#ff950d" stroke="none" /><path d="M 90.7491055286396 118.85261126421891 l -23.65309747055216 48.20319301960693 a74.69373182445902,74.69373182445902 0 0,0 -1.1493803599840842,-0.576323173240889 l 24.479331738219006 -47.78890200545674" fill="#3fffbd" stroke="none" /><path d="M 90.10565033884886 118.52300852407294 l -14.07086234669306 26.341772033001856 a50.86432857136124,50.86432857136124 0 0,0 -0.7687227418175333,-0.41916893101128083 l 14.522207900379232 -26.09566245023081" fill="#e0ff1b" stroke="none" /><line stroke="#e1ed5e" stroke-width="0.3" x1="58.666819895761336" x2="56.23545636021788" y1="174.27360380694188" y2="178.64263932499728" /><path d="M 58.180547188652646 175.14741091055294 a86.0,86.0 0 0,1 -31.652253787137756,-30.449443065178592" fill="none" id="id56" stroke="none" /><text fill="#e1ed5e" style="font-size:6.75px; font-family:Arial;" text-anchor="middle"><textPath startOffset="22.20632615414155" xlink:href="#id56">August</textPath></text><path d="M 89.7882731507175 118.34994917583269 l -18.17965285306733 32.667903363622266 a58.38571502637073,58.38571502637073 0 0,0 -0.8739819767965066,-0.4962697759535188 l 18.739283596785047 -32.35013042187411" fill="#79ff26" stroke="none" /><path d="M 89.1626897886671 117.98757091392108 l -18.87716856472339 31.331981976203043 a57.57923711038946,57.57923711038946 0 0,0 -0.8445525086680695,-0.5187931301194827 l 19.41370027332377 -31.00240037925518" fill="#84ff25" stroke="none" /><path d="M 88.8546689885994 117.79835938074946 l -14.731617984154692 23.525423414853556 a48.757271394703224,48.757271394703224 0 0,0 -0.7074870417382406,-0.45155170362817376 l 15.134386827939855 -23.268357282401578" fill="#ffff18" stroke="none" /><path d="M 88.54995079064634 117.60387380957326 l -29.80492596536048 45.82357210912776 a75.66382142368982,75.66382142368982 0 0,0 -1.0856868469037653,-0.7195340414335216 l 30.589287511004205 -45.30374004660292" fill="#40ffca" stroke="none" /><path d="M 87.95078237400918 117.19931262002967 l -13.70382911379638 19.561140676157937 a44.88374252357812,44.88374252357812 0 0,0 -0.6289551832645656,-0.44874282346342137 l 14.038511624909832 -19.322353590850298" fill="#ffc512" stroke="none" /><path d="M 87.65650970185807 116.9893568818739 l -17.161458245797913 23.620720858437195 a50.19681665857556,50.19681665857556 0 0,0 -0.6946642551488496,-0.513896008882271 l 17.565507471365326 -23.32181490081516" fill="#eaff1a" stroke="none" /><path d="M 87.36589467227662 116.77436683061367 l -23.83751212738214 31.649187843676422 a60.62193932138363,60.62193932138363 0 0,0 -0.8281282292531436,-0.6349734129920465 l 24.37876908512877 -31.234175088857008" fill="#5dff2a" stroke="none" /><path d="M 86.79598089348748 116.32954008644616 l -22.54280366350849 27.87890665067163 a56.85263495265522,56.85263495265522 0 0,0 -0.7556794612490659,-0.6218727502121791 l 23.019353253302246 -27.486738781602273" fill="#8dff24" stroke="none" /><path d="M 86.51685102203217 116.09983520530335 l -33.49018295115276 39.98965133368159 a73.1609486866478,73.1609486866478 0 0,0 -0.9585287023843457,-0.8168789550080523 l 34.17357713011416 -39.40724798845059" fill="#3dffaa" stroke="none" /><path d="M 85.97065885151581 115.62618273729859 l -16.431164987895556 18.301385928967864 a45.595200950194894,45.595200950194894 0 0,0 -0.5794942702741103,-0.5293542762188638 l 16.74375880763652 -18.015838886162427" fill="#ffd013" stroke="none" /><path d="M 85.70375840098266 115.38237550388516 l -27.376237689250253 29.456103207475607 a61.213435642677695,61.213435642677695 0 0,0 -0.7656464760550172,-0.7239665323534873 l 27.879219999696087 -28.98050203837619" fill="#56ff2b" stroke="none" /><path d="M 85.18274418774928 114.88116024355367 l -25.857060137565078 25.968577461973467 a57.64634462475314,57.64634462475314 0 0,0 -0.6971347451778871,-0.7061938162849695 l 26.300235507798497 -25.519643151707832" fill="#83ff25" stroke="none" /><path d="M 84.9287848128048 114.62390073753433 l -21.553769150668526 20.914052162622326 a51.032691229078985,51.032691229078985 0 0,0 -0.606301053674083,-0.6357042308176061 l 21.910576755721568 -20.53994081522222" fill="#deff1b" stroke="none" /><path d="M 84.67929136418377 114.36230785411682 l -39.9349950765606 37.43682535032073 a75.73864927156438,75.73864927156438 0 0,0 -0.8834501996486362,-0.9588107081850706 l 40.57349168420496 -36.743863387334315" fill="#41ffcb" stroke="none" /><path d="M 84.19399662182784 113.82643327865904 l -18.54976232474765 16.22655930039197 a45.64538311801552,45.64538311801552 0 0,0 -0.5122226873938991,-0.5958307061997014 l 18.82632752171233 -15.904851495030739" fill="#ffd013" stroke="none" /><path d="M 83.95833913139862 113.55231037782056 l -27.7281121647755 23.42525411340543 a57.29863268085988,57.29863268085988 0 0,0 -0.6300230231734043,-0.7589033172835585 l 28.12723118784244 -22.94448953900811" fill="#88ff25" stroke="none" /><path d="M 83.50135304334701 112.99209946851258 l -29.289731051978347 23.06462464667963 a58.28089665216552,58.28089665216552 0 0,0 -0.6138731917084433,-0.793513851222161 l 29.682411060904858 -22.557032801344214" fill="#7bff26" stroke="none" /><path d="M 83.28015986056508 112.70617746262583 l -21.897019520772815 16.64055479079029 a48.50250038884464,48.50250038884464 0 0,0 -0.49943424981928136,-0.6690737940115749 l 22.180215037287184 -16.261168117269406" fill="#fffb17" stroke="none" /><path d="M 83.06392112726016 112.41649034213515 l -24.43030195591633 17.910793317060634 a51.29251014531006,51.29251014531006 0 0,0 -0.5159054591651738,-0.7165475604138347 l 24.73498720745711 -17.48761215119566" fill="#daff1c" stroke="none" /><path d="M 82.85270091963577 112.12312394758628 l -19.626366286815244 13.875822076740494 a45.0360706424656,45.0360706424656 0 0,0 -0.4420807022485674,-0.636850223525863 l 19.862307896225946 -13.535930591027618" fill="#ffc712" stroke="none" /><path d="M 82.6465618267979 111.8261652097733 l -17.94691664716249 12.230613850523813 a42.71818897378009,42.71818897378009 0 0,0 -0.4088677774384465,-0.6112018513619449 l 18.154787530011664 -11.919875084956047" fill="#ffa20f" stroke="none" /><path d="M 82.44556493220864 111.52570212397912 l -29.849994377765448 19.598588178540684 a56.708917974991394,56.708917974991394 0 0,0 -0.5287300163168263,-0.8206007268774385 l 30.182929257459318 -19.0818658517418" fill="#8fff24" stroke="none" /><path d="M 82.05923443525364 110.91462005526583 l -32.578208714664704 19.819598495865097 a59.13339963330772,59.13339963330772 0 0,0 -0.5215541189079882,-0.8741547030266597 l 32.91454370927092 -19.255881698952326" fill="#70ff27" stroke="none" /><line stroke="#e1ed5e" stroke-width="0.3" x1="26.63291911575756" x2="22.317208475507996" y1="142.92168965132927" y2="145.44649492493687" /><path d="M 25.769776987707644 143.4266507060508 a86.0,86.0 0 0,1 -11.730757126820373,-40.83630448921669" fill="none" id="id57" stroke="none" /><text fill="#e1ed5e" style="font-size:6.75px; font-family:Arial;" text-anchor="middle"><textPath startOffset="21.46611528233685" xlink:href="#id57">September</textPath></text><path d="M 81.87401531095188 110.60418214915194 l -21.21403251255666 12.410772089921458 a45.57768173184331,45.57768173184331 0 0,0 -0.39033595616544203,-0.6805836410901168 l 21.42452046487448 -12.043768602973033" fill="#ffcf13" stroke="none" /><path d="M 81.69416730710424 110.29060199501025 l -49.74870406673767 27.966174601662544 a78.0704869277503,78.0704869277503 0 0,0 -0.6484445069431737,-1.1771151335411023 l 50.222724983132366 -27.10568894972362" fill="#44ffe7" stroke="none" /><path d="M 81.35079622478065 109.6543875284942 l -21.293460408767096 11.023275904253344 a44.97757426932558,44.97757426932558 0 0,0 -0.3500140484228652,-0.6906109233797009 l 21.480053126976227 -10.655110769170957" fill="#ffc612" stroke="none" /><path d="M 81.18737489456691 109.33194174019688 l -32.04717523804905 15.896897460258465 a56.77335306621671,56.77335306621671 0 0,0 -0.4267375663126222,-0.8792057820959922 l 32.3160660609764 -15.342902722197188" fill="#8fff24" stroke="none" /><path d="M 80.87730276802145 108.67885076344099 l -34.49975517242464 15.657740269819952 a58.886645896864266,58.886645896864266 0 0,0 -0.4109696641170312,-0.9266280997611601 l 34.76416592127295 -15.061563833566096" fill="#73ff27" stroke="none" /><line stroke="#e1ed5e" stroke-width="0.3" x1="15.007084014347285" x2="10.007500721073583" y1="101.09737516637583" y2="101.16192664675087" /><path d="M 14.007167355692545 101.11028546245083 a86.0,86.0 0 0,1 10.666146001902534,-42.60595125391555" fill="none" id="id58" stroke="none" /><text fill="#e1ed5e" style="font-size:6.75px; font-family:Arial;" text-anchor="middle"><textPath startOffset="22.20632615414155" xlink:href="#id58">October</textPath></text><line stroke="#e1ed5e" stroke-width="0.3" x1="26.266209847984243" x2="21.928928074336255" y1="57.711370442889674" y2="55.22380399835377" /><path d="M 25.398753493254645 57.213857153982495 a86.0,86.0 0 0,1 29.58750427330803,-30.492523968695096" fill="none" id="id59" stroke="none" /><text fill="#e1ed5e" style="font-size:6.75px; font-family:Arial;" text-anchor="middle"><textPath startOffset="21.46611528233685" xlink:href="#id59">November</textPath></text><line stroke="#e1ed5e" stroke-width="0.3" x1="56.762969772571076" x2="54.21961505331055" y1="26.818313649435495" y2="22.513508569990535" /><path d="M 56.25429882871897 25.957352633546506 a86.0,86.0 0 0,1 42.265352541879196,-11.944610805530505" fill="none" id="id60" stroke="none" /><text fill="#e1ed5e" style="font-size:6.75px; font-family:Arial;" text-anchor="middle"><textPath startOffset="22.20632615414155" xlink:href="#id60">December</textPath></text></svg>