<?xml version="1.0" encoding="utf-8" ?>
<svg baseProfile="full" height="200mm" version="1.1" viewBox="0,0,200,200" width="200mm" xmlns="http://www.w3.org/2000/svg" xmlns:ev="http://www.w3.org/2001/xml-events" xmlns:xlink="http://www.w3.org/1999/xlink"><defs /><rect fill="#1a1a1a" height="200" width="200" x="0" y="0" /><text alignment-baseline="middle" fill="#e1ed5e" style="dominant-baseline: central; font-size:9.0px; font-family:Arial;" text-anchor="middle" x="100.0" y="100.0">2023</text><line stroke="#e1ed5e" stroke-width="0.3" x1="100.0" x2="100.0" y1="15.0" y2="10.0" /><path d="M 100.0 14.0 a86.0,86.0 0 0,1 42.46469731375804,11.215312516191453" fill="none" id="id73" stroke="none" /><text fill="#e1ed5e" style="font-size:6.75px; font-family:Arial;" text-anchor="middle"><textPath startOffset="22.20632615414155" xlink:href="#id73">January</textPath></text><path d="M 102.16513564639614 79.11191278185805 l 1.376305972451177 -13.27787440905218 a34.349013707100895,34.349013707100895 0 0,0 0.5875861631043565,0.06602215178630431 l -1.6046588390652587 13.252216303795274" fill="#ff820c" stroke="none" /><path d="M 104.66035177308747 79.52364482259891 l 3.0760338962755265 -13.515280748031286 a34.86090899721736,34.86090899721736 0 0,0 0.5839639064845769,0.1382053895477865 l -3.3082214897226265 13.46032944634263" fill="#ff890c" stroke="none" /><path d="M 106.40334571778207 80.00007090966166 l 5.153350335841908 -16.095748353597983 a37.900595692054,37.900595692054 0 0,0 0.6196155023012937,0.20427748927333467 l -5.429648660385619 16.00465714006541" fill="#ffb410" stroke="none" /><path d="M 107.08798089147638 80.2323363322302 l 4.56064782241585 -12.719186696605902 a34.512113779243535,34.512113779243535 0 0,0 0.5574818556603433,0.20532527222261907 l -4.77891200384877 12.638798156576959" fill="#ff840c" stroke="none" /><path d="M 109.73455568895987 81.39251694778311 l 6.206117849315236 -11.86291767092793 a34.388230444192516,34.388230444192516 0 0,0 0.5221360770598438,0.27890700964790566 l -6.40939897290339 11.754331934778271" fill="#ff830c" stroke="none" /><path d="M 110.36928655335952 81.73862282372117 l 6.089741035465942 -10.724658575326636 a33.33301453158817,33.33301453158817 0 0,0 0.4965083743934035,0.28760969784670676 l -6.273446142324674 10.61824472008988" fill="#ff730a" stroke="none" /><line stroke="#e1ed5e" stroke-width="0.3" x1="143.23703022742887" x2="145.7803849466894" y1="26.81831364943548" y2="22.513508569990506" /><path d="M 143.74570117128098 25.957352633546492 a86.0,86.0 0 0,1 28.547481713284135,27.462654790039103" fill="none" id="id74" stroke="none" /><text fill="#e1ed5e" style="font-size:6.75px; font-family:Arial;" text-anchor="middle"><textPath startOffset="19.985693538727396" xlink:href="#id74">February</textPath></text><path d="M 111.2981086023043 82.29822771554956 l 8.099985847786208 -12.690983069107599 a36.0555910543131,36.0555910543131 0 0,0 0.520287285442581,0.33840932318424805 l -8.31724015901307 12.549674821763823" fill="#ff9a0e" stroke="none" /><path d="M 113.6212207817346 84.01681056812373 l 10.852728364124129 -12.734630476667379 a37.73178192311656,37.73178192311656 0 0,0 0.49070398244338354,0.42553365809756377 l -11.070326145214276 12.545931825150143" fill="#ffb110" stroke="none" /><path d="M 113.89432698308785 84.25364557470407 l 8.731645857800173 -9.895519988873392 a34.1970813150572,34.1970813150572 0 0,0 0.4380304347636599,0.3932680492753929 l -8.900687280159822 9.743752930828704" fill="#ff800b" stroke="none" /><path d="M 114.42810811169701 84.74124197986012 l 8.453803706167605 -8.940503086305267 a33.304446047614135,33.304446047614135 0 0,0 0.413160297981412,0.3974598793116433 l -8.606447247761434 8.793660120231321" fill="#ff730a" stroke="none" /><path d="M 114.94478906791727 85.2469230424477 l 9.51451532480567 -9.39246289544525 a34.36953107286406,34.36953107286406 0 0,0 0.4120018671812527,0.4246041401168491 l -9.674781455690031 9.227294559778288" fill="#ff820c" stroke="none" /><path d="M 115.4437574822437 85.77008943001954 l 11.936593642506056 -10.998402444375959 a37.231054313099044,37.231054313099044 0 0,0 0.4302072426496789,0.47504558239099637 l -12.12414452577177 10.791304074715415" fill="#ffaa0f" stroke="none" /><path d="M 115.9244219780498 86.31012108654704 l 11.00336036692513 -9.459349373680682 a35.5104524373905,35.5104524373905 0 0,0 0.39448626971017775,0.4669473159622221 l -11.164557250122423 9.268543108089354" fill="#ff920d" stroke="none" /><path d="M 116.38621287248628 86.86637796730983 l 12.265391914595815 -9.830765823846727 a36.71889930949191,36.71889930949191 0 0,0 0.3910491426499513,0.496592699503249 l -12.43279513783973 9.61818073039044" fill="#ffa30f" stroke="none" /><path d="M 116.82858285166822 87.43820079747576 l 11.28512313263121 -8.423849590746846 a35.08244460476141,35.08244460476141 0 0,0 0.3570680979265299,0.48704048429058727 l -11.428453843071365 8.228346662784764" fill="#ff8c0c" stroke="none" /><path d="M 117.2510076193507 88.02491185347247 l 10.601075761285172 -7.358921837528267 a33.90490363805009,33.90490363805009 0 0,0 0.3286766130745787,0.48229237312308143 l -10.726176840028483 7.1753514411347785" fill="#ff7c0b" stroke="none" /><path d="M 117.45458315368197 88.32363383020206 l 14.303296049835724 -9.568290496681167 a38.20861589199217,38.20861589199217 0 0,0 0.36098656910894794,0.549807310617886 l -14.465879254302598 9.320665122085606" fill="#ffb811" stroke="none" /><line stroke="#e1ed5e" stroke-width="0.3" x1="172.23445277983987" x2="176.4835382374775" y1="55.19839476539836" y2="52.563006222186495" /><path d="M 173.08426987136738 54.67131705675599 a86.0,86.0 0 0,1 12.851231095245387,41.99856678651699" fill="none" id="id75" stroke="none" /><text fill="#e1ed5e" style="font-size:6.75px; font-family:Arial;" text-anchor="middle"><textPath startOffset="22.20632615414155" xlink:href="#id75">March</textPath></text><path d="M 117.84615892207809 88.93136811851018 l 11.257039962836282 -6.981896326705224 a34.246426878285064,34.246426878285064 0 0,0 0.30639821788456156,0.503638108215316 l -11.375553979007067 6.787090445282826" fill="#ff800b" stroke="none" /><path d="M 118.21658344932153 89.55222093294921 l 17.18670722372535 -9.857112913797021 a40.81276306297022,40.81276306297022 0 0,0 0.3442699578260767,0.6124178402983841 l -17.353834822843858 9.559811563563843" fill="#ffdb14" stroke="none" /><path d="M 118.3937258080291 89.86733742301442 l 27.37800781828786 -15.081888147516597 a52.25729774296609,52.25729774296609 0 0,0 0.4272454656760227,0.7916209605569189 l -27.633561383182347 14.608386203627221" fill="#95ff23" stroke="none" /><path d="M 118.73160827565052 90.50648371742162 l 14.053628973006354 -7.122632158498833 a36.7555189116768,36.7555189116768 0 0,0 0.2811621943744059,0.5668058271091451 l -14.174151180334169 6.8796667428907385" fill="#ffa40f" stroke="none" /><path d="M 118.89224826269711 90.83032412892265 l 15.04471719530038 -7.302210850432335 a37.72321137792436,37.72321137792436 0 0,0 0.2785083250534574,0.5866095610407743 l -15.168183714195594 7.042158873751021" fill="#ffb110" stroke="none" /><path d="M 119.196687751892 91.48605970444005 l 15.142097225381908 -6.715685194898236 a37.564526435123156,37.564526435123156 0 0,0 0.2570653061470192,0.5933421691299773 l -15.255453241371608 6.454043881181656" fill="#ffaf10" stroke="none" /><path d="M 119.47837535516314 92.15188598940014 l 29.825702683377816 -12.01719911631935 a53.155646707203964,53.155646707203964 0 0,0 0.33464377880485313,0.8516319157165189 l -30.02814001206437 11.502018195707048" fill="#8aff24" stroke="none" /><path d="M 119.7369772167798 92.82701384747503 l 10.94197024874684 -3.9766272318982177 a32.64217664639802,32.64217664639802 0 0,0 0.18737684906596497,0.5297395847473417 l -11.008800178622614 3.7876900207242614" fill="#ff6909" stroke="none" /><path d="M 119.85752413597 93.16781622104841 l 14.718594175505592 -5.0640824951941275 a36.56540863650417,36.56540863650417 0 0,0 0.19965184326679333,0.5969335992014451 l -14.803583312544156 4.809975793070369" fill="#ffa10e" stroke="none" /><path d="M 120.18372546131832 94.20196356495316 l 14.749200696686577 -4.236898841648311 a36.34569102339483,36.34569102339483 0 0,0 0.16755922495104766,0.6027996834702707 l -14.819946692203986 3.982387854759088" fill="#ff9e0e" stroke="none" /><path d="M 120.28053869075195 94.5502522615342 l 27.91653877642087 -7.501679140898179 a49.90689065237555,49.90689065237555 0 0,0 0.21579660648492394,0.8315523537623272 l -28.0415317147761 7.020030361587001" fill="#b0ff20" stroke="none" /><path d="M 120.45610955862082 95.25157060432595 l 14.72511005082377 -3.4181057360635876 a36.11662372462125,36.11662372462125 0 0,0 0.1353610004601461,0.6067968234379081 l -14.781765438285953 3.1641307430757157" fill="#ff9b0e" stroke="none" /><path d="M 120.53481517161879 95.60439243477599 l 21.233375595389578 -4.54513885916704 a42.71438524167783,42.71438524167783 0 0,0 0.14771184432422424,0.7202954117186862 l -21.308466735628798 4.178967791284942" fill="#fff417" stroke="none" /><path d="M 120.67395015179393 96.31383870115 l 15.306606613879778 -2.7291649879454227 a36.54800783262908,36.54800783262908 0 0,0 0.10509838848365613,0.6202966381091941 l -15.351316863883657 2.4652825615203904" fill="#ffa10e" stroke="none" /><path d="M 120.78858239683441 97.02765380044208 l 35.70768434524343 -5.105475584268781 a57.07082757909925,57.07082757909925 0 0,0 0.13067589176587985,0.9736871773705409 l -35.79027623606714 4.490070064833575" fill="#5eff29" stroke="none" /><path d="M 120.87857604477298 97.74499172005257 l 19.73538632189687 -2.1315371061897803 a40.850161805627124,40.850161805627124 0 0,0 0.06948977124014477,0.699752513150818 l -19.76915321881924 1.7915090623345271" fill="#ffdb14" stroke="none" /><path d="M 120.91429891909075 98.10471618934814 l 21.6974157987449 -1.966250987204069 a42.786325878594255,42.786325878594255 0 0,0 0.060156588430133585,0.7340627498985998 l -21.72804687099453 1.5924743200977005" fill="#fff517" stroke="none" /><path d="M 120.96714384426684 98.82574320788733 l 22.337236380906962 -1.250988295407641 a43.372239513552515,43.372239513552515 0 0,0 0.035330596233783505,0.7457730461538514 l -22.355460585374242 0.8663041426307899" fill="#fffc17" stroke="none" /><line stroke="#e1ed5e" stroke-width="0.3" x1="184.98032266829074" x2="189.97916517819016" y1="98.17113171792111" y2="98.06355123074" /><path d="M 185.9800911702706 98.14961562048488 a86.0,86.0 0 0,1 -9.607161424134198,41.387399972396054" fill="none" id="id76" stroke="none" /><text fill="#e1ed5e" style="font-size:6.75px; font-family:Arial;" text-anchor="middle"><textPath startOffset="21.466115282336823" xlink:href="#id76">April</textPath></text><path d="M 120.99513854157772 99.54816195383933 l 39.96402875419787 -0.8600690408994346 a60.97328248995156,60.97328248995156 0 0,0 0.013550565494767759,1.049506230816874 l -39.97291232681035 0.1720265520220978" fill="#35ff2f" stroke="none" /><path d="M 120.99824983174949 100.27111621757518 l 13.802361912492879 0.1782074308717326 a34.80351231577862,34.80351231577862 0 0,0 -0.012890454149223672,0.5989687522474552 l -13.797249395658648 -0.41576599890930255" fill="#ff880c" stroke="none" /><path d="M 120.9904718944345 100.63252640178507 l 19.980558269865007 0.6020936876338446 a40.98962795011852,40.98962795011852 0 0,0 -0.027322255548779397,0.7050660120006405 l -19.967233881465024 -0.9459369466484914" fill="#ffdd14" stroke="none" /><path d="M 120.9764740272857 100.99374915477107 l 14.182630135896643 0.6718944609873326 a35.19853653509224,35.19853653509224 0 0,0 -0.03388051746632546,0.6049593990055113 l -14.16896326754279 -0.9159255763282673" fill="#ff8e0d" stroke="none" /><path d="M 120.95626037817324 101.35467743843564 l 21.943362227419897 1.4184867527160314 a42.98916211480986,42.98916211480986 0 0,0 -0.05409150491475979,0.7380356086611557 l -21.915694163840797 -1.7959954978739572" fill="#fff817" stroke="none" /><path d="M 120.89721153311464 102.0752229133903 l 43.26220288732053 4.296205480489118 a64.47499948469545,64.47499948469545 0 0,0 -0.11917957574841634,1.103454855298844 l -43.18184101007106 -5.040256657672753" fill="#33ff55" stroke="none" /><path d="M 120.81339534386255 102.79330883721812 l 16.575124803182618 2.224502145171423 a37.7237308049057,37.7237308049057 0 0,0 -0.09191288027748902,0.6428384705870296 l -16.534377871888527 -2.5094860877388623" fill="#ffb110" stroke="none" /><path d="M 120.76222939487914 103.15116336523771 l 20.94342547703501 3.178664191143952 a42.18327115325157,42.18327115325157 0 0,0 -0.11513671894316425,0.7169564587656646 l -20.88560700373056 -3.538699879602822" fill="#ffed16" stroke="none" /><path d="M 120.64145759157962 103.86396538481128 l 19.60213052562661 3.669409172464234 a40.94261980830671,40.94261980830671 0 0,0 -0.1356371811531333,0.6916110645177549 l -19.53606341149781 -4.006283964049934" fill="#ffdd14" stroke="none" /><path d="M 120.49622156327973 104.57218783832717 l 40.73346788553524 9.08660486051717 a62.734659383695764,62.734659383695764 0 0,0 -0.24418550259822977,1.051944754264821 l -40.571021817006454 -9.786418272130556" fill="#31ff3f" stroke="none" /><path d="M 120.32669344350535 105.2749913415812 l 17.74713276757061 4.605568138616201 a39.33499330104091,39.33499330104091 0 0,0 -0.1757186375549502,0.6539144192796407 l -17.66522605367388 -4.91037349107139" fill="#ffc712" stroke="none" /><path d="M 120.23288151984713 105.62410040840565 l 18.026052377305167 5.010671783833476 a39.70950015459136,39.70950015459136 0 0,0 -0.18872859528575198,0.656988999055353 l -17.937131145133314 -5.320218258393411" fill="#ffcc13" stroke="none" /><path d="M 119.9155931802556 106.66101706037122 l 19.375616445857826 6.480415146711278 a41.430621457281255,41.430621457281255 0 0,0 -0.2320295696712572,0.6743865400987087 l -19.261196045243338 -6.812974389899287" fill="#ffe315" stroke="none" /><path d="M 119.79798401119884 107.00284435728193 l 24.01565038138011 8.494696311734188 a46.47373801916933,46.47373801916933 0 0,0 -0.2732561497984011,0.7518835653987 l -23.865869970576483 -8.90682767413902" fill="#daff1c" stroke="none" /><path d="M 119.54520255179757 107.68017299344265 l 23.43176295698569 9.207374166324025 a46.175846645367415,46.175846645367415 0 0,0 -0.2970588650590806,0.7372757414564282 l -23.269801477669215 -9.609349275623266" fill="#deff1b" stroke="none" /><path d="M 119.41010516605496 108.01547362559984 l 25.18180585958361 10.398918449213737 a48.244464598577764,48.244464598577764 0 0,0 -0.32358026198152695,0.764848155260166 l -24.99907461640977 -10.830841130140065" fill="#c4ff1e" stroke="none" /><path d="M 119.12269723197855 108.67885076344098 l 18.09929887903391 8.214380638279733 a40.87613315469443,40.87613315469443 0 0,0 -0.29630404912283015,0.6382125613648938 l -17.955220213071247 -8.524713266923458" fill="#ffdc14" stroke="none" /><path d="M 118.81262510543309 109.33194174019688 l 44.46255271337135 22.05550523737299 a70.63228692157065,70.63228692157065 0 0,0 -0.5496582040362376,1.084527782650825 l -44.07631583954885 -22.81758723172651" fill="#3bff9f" stroke="none" /><line stroke="#e1ed5e" stroke-width="0.3" x1="174.80103733775053" x2="179.2010983576182" y1="140.37084112569926" y2="142.7455964860345" /><path d="M 175.68104954172406 140.8457921977663 a86.0,86.0 0 0,1 -30.038265399797805,32.042727171017184" fill="none" id="id77" stroke="none" /><text fill="#e1ed5e" style="font-size:6.75px; font-family:Arial;" text-anchor="middle"><textPath startOffset="22.206326154141568" xlink:href="#id77">May</textPath></text><path d="M 118.48025628344425 109.97397251340804 l 13.314012361567693 7.1857008528835085 a36.129349685664224,36.129349685664224 0 0,0 -0.30008623315978705,0.5447436791236328 l -13.188349718956397 -7.413815050404946" fill="#ff9b0e" stroke="none" /><path d="M 118.30583269289576 110.29060199501025 l 22.55426498440128 12.678853135948474 a46.873696794805724,46.873696794805724 0 0,0 -0.40143527626211495,0.6999362412431324 l -22.332677711986786 -13.065209223049921" fill="#d5ff1c" stroke="none" /><path d="M 118.12598468904814 110.60418214915192 l 14.510950108932873 8.489290968305504 a37.81177367824384,37.81177367824384 0 0,0 -0.3334982670943403,0.5589622784345971 l -14.362670966140305 -8.737815340626204" fill="#ffb210" stroke="none" /><path d="M 117.75023020441432 111.22182372390056 l 12.406538310617504 7.843503117550823 a35.67796763887458,35.67796763887458 0 0,0 -0.33264631182298215,0.5162744630550182 l -12.269687135417472 -8.055899180527295" fill="#ff950d" stroke="none" /><path d="M 116.93607887273984 112.41649034213515 l 20.982445510474605 15.383037242140436 a47.01731835514789,47.01731835514789 0 0,0 -0.4841412078338466,0.6485862651188868 l -20.714543035945667 -15.741936386768637" fill="#d3ff1c" stroke="none" /><path d="M 116.71984013943494 112.70617746262583 l 16.678001767943076 12.67438255498978 a41.9474513037205,41.9474513037205 0 0,0 -0.44183286968857244,0.5711285437426866 l -16.457362081036436 -12.959589092845718" fill="#ffea16" stroke="none" /><path d="M 116.498646956653 112.99209946851258 l 15.503865093773452 12.208744024520138 a40.73381016180563,40.73381016180563 0 0,0 -0.4385326119686774,0.5471368609025141 l -15.291414569749922 -12.473808719000903" fill="#ffda14" stroke="none" /><path d="M 116.0416608686014 113.55231037782055 l 22.669282232102304 19.15145516217663 a50.67616201174894,50.67616201174894 0 0,0 -0.5686770078225425,0.6614998349533808 l -22.336262714708983 -19.53883209629154" fill="#a7ff21" stroke="none" /><path d="M 115.56566222782051 114.09645910891815 l 18.618155486307256 16.860835321682195 a46.118190250438005,46.118190250438005 0 0,0 -0.5379436361229268,0.5838315718529646 l -18.325165442188606 -17.178818148336493" fill="#dfff1b" stroke="none" /><path d="M 115.32070863581623 114.36230785411682 l 15.06769509858 14.125121807477258 a41.653195918788,41.653195918788 0 0,0 -0.49486664266028857,0.5188656963785476 l -14.822321904540747 -14.382394620438312" fill="#ffe615" stroke="none" /><path d="M 114.81725581225074 114.88116024355365 l 13.924402763883558 13.984456464186348 a40.73458930227765,40.73458930227765 0 0,0 -0.5011325279140901,0.4904636529796287 l -13.681620283593674 -14.222070220088549" fill="#ffda14" stroke="none" /><path d="M 114.0293411484842 115.62618273729858 l 36.812077379578874 41.00208569915812 a76.1026321756158,76.1026321756158 0 0,0 -0.9822952578637062,0.8667613555534719 l -36.10083976880858 -41.62967019648388" fill="#43ffdc" stroke="none" /><path d="M 113.20401910651253 116.32954008644616 l 17.8537172044097 22.079867382022034 a49.394995362259095,49.394995362259095 0 0,0 -0.6657563492642204,0.5289171083260075 l -17.47100336242813 -22.383918404353167" fill="#b6ff1f" stroke="none" /><path d="M 112.92097659922987 116.55440617244103 l 16.688793566036537 21.381748128593934 a48.12369782541482,48.12369782541482 0 0,0 -0.6573955421319829,0.5040628689228066 l -16.318269295411064 -21.66585033934411" fill="#c6ff1e" stroke="none" /><path d="M 112.63410532772338 116.77436683061366 l 9.357805644572025 12.424406836880788 a36.55424095640524,36.55424095640524 0 0,0 -0.5058672293748875,0.37422848271411413 l -9.142553444778573 -12.583645268334672" fill="#ffa10e" stroke="none" /><line stroke="#e1ed5e" stroke-width="0.3" x1="143.8653032363475" x2="146.44561519142675" y1="172.8068346515853" y2="177.08958963109032" /><path d="M 144.38136562736335 173.6633856474863 a86.0,86.0 0 0,1 -40.68145358897372,12.25698825130547" fill="none" id="id78" stroke="none" /><text fill="#e1ed5e" style="font-size:6.75px; font-family:Arial;" text-anchor="middle"><textPath startOffset="21.466115282336833" xlink:href="#id78">June</textPath></text><path d="M 110.21172684928248 118.3499491758327 l 4.005968986819424 7.198520719662946 a29.23811192414717,29.23811192414717 0 0,0 -0.4418814166074077,0.2409489806365615 l -3.881464758343367 -7.266410352059278" fill="#ff3705" stroke="none" /><path d="M 109.89434966115114 118.52300852407294 l 2.460912287359504 4.607023284686765 a26.223098010924456,26.223098010924456 0 0,0 -0.39997604080183147,0.209248560512393 l -2.3812453440311767 -4.648701264143874" fill="#ff0901" stroke="none" /><path d="M 109.57404056367764 118.69057910512821 l 4.821693247458485 9.412978612623283 a31.576052767185406,31.576052767185406 0 0,0 -0.48588943154852005,0.24363504787756463 l -4.6589499082272035 -9.49458150141015" fill="#ff5a08" stroke="none" /><path d="M 109.2508944713604 118.85261126421891 l 6.244768499601332 12.726357794103192 a35.17594146140369,35.17594146140369 0 0,0 -0.5458758911160401,0.26205360055897253 l -6.02477994048506 -12.831965671161724" fill="#ff8e0d" stroke="none" /><path d="M 108.92500713936063 119.00905698771935 l 6.669168583332683 14.204426246583417 a36.69214881995259,36.69214881995259 0 0,0 -0.5740259614961496,0.26350716472738983 l -6.423674626069114 -14.317120481644881" fill="#ffa30f" stroke="none" /><path d="M 108.2653958097858 119.30500536409082 l 5.625920921568765 13.140137032548278 a35.29385138616922,35.29385138616922 0 0,0 -0.5605479400734538,0.2343090844124877 l -5.39890152199785 -13.235031159980739" fill="#ff8f0d" stroke="none" /><path d="M 107.93186726928326 119.44442032107085 l 10.119862596323639 24.808138516944833 a47.792822838297425,47.792822838297425 0 0,0 -0.764409614659479,0.3041743612895309 l -9.691331905622294 -24.978659722640433" fill="#caff1d" stroke="none" /><path d="M 107.2578585660854 119.70592522655815 l 9.206970957836685 24.997990744269792 a47.63959187880037,47.63959187880037 0 0,0 -0.7719438693303956,0.2767916070945323 l -8.775307527876555 -25.152769892404287" fill="#ccff1d" stroke="none" /><path d="M 106.91757812671514 119.82793768551818 l 8.770259970096783 25.13830201661191 a47.62426878285066,47.62426878285066 0 0,0 -0.776344221481074,0.26337811083815416 l -8.336246015678482 -25.285543114348187" fill="#ccff1d" stroke="none" /><path d="M 106.2309692047433 120.05430185196036 l 13.920407750828963 44.80267030127188 a67.91542409564053,67.91542409564053 0 0,0 -1.1193918048097677,0.3372635682781897 l -13.14714097157895 -45.03564923865579" fill="#38ff7f" stroke="none" /><path d="M 105.53697534728816 120.25689768951611 l 4.8697079028801395 17.815715003099022 a39.469265175718846,39.469265175718846 0 0,0 -0.6568993044819561,0.1734930767785547 l -4.562318155586686 -17.89689942918116" fill="#ffc912" stroke="none" /><path d="M 104.83641907484287 120.43548508189849 l 6.922574025097565 29.250186145793318 a51.05820055652891,51.05820055652891 0 0,0 -0.8569993764016475,0.19505026791859242 l -6.4180544993030555 -29.365013147289595" fill="#a3ff22" stroke="none" /><path d="M 104.48393922423573 120.51570834832081 l 4.748881204658157 21.72791755271732 a43.24082448727198,43.24082448727198 0 0,0 -0.7285225199252602,0.15266897734212112 l -4.374167223303519 -21.80644251078598" fill="#fffb17" stroke="none" /><path d="M 104.13013068566511 120.58985236759428 l 3.581478387551646 17.854667774403058 a39.21033082551788,39.21033082551788 0 0,0 -0.6629017755436307,0.12704670300245996 l -3.273608997436311 -17.91367167575399" fill="#ffc512" stroke="none" /><path d="M 103.41894727170886 120.7198165907248 l 4.154533618655106 25.17768416928783 a46.51814902607441,46.51814902607441 0 0,0 -0.791172120163246,0.12356481389304828 l -3.720525634883342 -25.245467290527984" fill="#daff1c" stroke="none" /><path d="M 102.70371172650421 120.8252237178851 l 3.196270434605512 24.619136060627653 a45.82575285994022,45.82575285994022 0 0,0 -0.7831240961646346,0.09482542196625905 l -2.772018915389497 -24.670507011319263" fill="#e2ff1b" stroke="none" /><path d="M 102.34483914955558 120.86867818915974 l 3.6523231993088143 32.5050686327988 a53.70961558280944,53.70961558280944 0 0,0 -0.9196298577343834,0.0953233948937975 l -3.0922607449688284 -32.56312139614836" fill="#84ff25" stroke="none" /><path d="M 101.62511606390274 120.93702456842531 l 1.9327944328640718 24.900968875668443 a45.97586725754921,45.97586725754921 0 0,0 -0.7895528494550914,0.05445218719022711 l -1.5038788226300501 -24.930549407374954" fill="#e0ff1b" stroke="none" /><path d="M 101.26447882468166 120.96189622390904 l 1.9740100427443015 32.72414915400232 a53.783633927651245,53.783633927651245 0 0,0 -0.9245968367601757,0.04779109533909365 l -1.4104251375706462 -32.75328005610361" fill="#83ff25" stroke="none" /><line stroke="#e1ed5e" stroke-width="0.3" x1="102.19456741930631" x2="102.32365962044197" y1="184.97166512339345" y2="189.96999836594603" /><path d="M 102.22038585953345 185.97133177190398 a86.0,86.0 0 0,1 -42.740103519485714,-10.115201625700543" fill="none" id="id79" stroke="none" /><text fill="#e1ed5e" style="font-size:6.75px; font-family:Arial;" text-anchor="middle"><textPath startOffset="22.20632615414155" xlink:href="#id79">July</textPath></text><path d="M 100.54218724476979 120.99299961872073 l 0.5084702723391965 19.68750894883141 a40.69407399773266,40.69407399773266 0 0,0 -0.7004037488224386,0.012058085716878551 l -0.16950683362408997 -19.69334451182745" fill="#ffd914" stroke="none" /><path d="M 100.18074693466247 120.99922214144158 l 0.2783081802281429 32.33391100825601 a53.33510872925899,53.33510872925899 0 0,0 -0.9181102297811744,0.0 l 0.2783081802281206 -32.33391100825601" fill="#88ff25" stroke="none" /><path d="M 99.45781275523022 120.99299961872073 l -0.5689060176193235 22.02752633187002 a43.0348716891683,43.0348716891683 0 0,0 -0.7403630147423611,-0.025499599196929096 l 0.9479893840363276 -22.014469934246996" fill="#fff817" stroke="none" /><path d="M 99.09653310690486 120.98055641714683 l -1.3464124178277703 31.266759090870167 a52.2957353395857,52.2957353395857 0 0,0 -0.8990183061276572,-0.04646897747378174 l 1.8844187923689164 -31.238950306634184" fill="#94ff23" stroke="none" /><path d="M 98.37488393609728 120.93702456842531 l -2.5147008790952254 32.39790391427034 a53.495351953004224,53.495351953004224 0 0,0 -0.9174597609662184,-0.07916228864550809 l 3.0720049578029855 -32.34981737334616" fill="#86ff25" stroke="none" /><path d="M 98.01472825383883 120.90594882070398 l -2.9926759295208445 31.514441254953564 a52.6562176646398,52.6562176646398 0 0,0 -0.9015933075354867,-0.09345383271866918 l 3.5347018336619245 -31.458258053779137" fill="#90ff24" stroke="none" /><path d="M 97.65516085044442 120.86867818915974 l -1.4743849783576828 13.121780931587256 a34.20435329279604,34.20435329279604 0 0,0 -0.5845240194784006,-0.07077771845856352 l 1.7000364208874728 -13.094457684403345" fill="#ff800b" stroke="none" /><path d="M 97.2962882734958 120.8252237178851 l -2.7628852009183373 21.281004868944567 a42.45960630732763,42.45960630732763 0 0,0 -0.7239795737198724,-0.10033697200066986 l 3.1287933658250404 -21.23029333145129" fill="#fff116" stroke="none" /><path d="M 96.93821686468263 120.77559828337769 l -4.368678271311984 29.643479235080097 a50.963664845923944,50.963664845923944 0 0,0 -0.8667806353352095,-0.13537330899525904 l 4.87829477025571 -29.563887618737734" fill="#a4ff21" stroke="none" /><path d="M 96.22490169976321 120.6578951692458 l -5.913897886336531 32.36172222850496 a53.89764815005668,53.89764815005668 0 0,0 -0.9112100281757186,-0.17463557059801715 l 6.470075529083944 -32.255129459558475" fill="#82ff25" stroke="none" /><path d="M 95.86986931433489 120.58985236759428 l -2.2433211532564217 11.183581071409328 a32.406356796866945,32.406356796866945 0 0,0 -0.5459831304141597,-0.11441607347283266 l 2.435495745099968 -11.143309017209955" fill="#ff6609" stroke="none" /><path d="M 95.51606077576429 120.51570834832081 l -3.5388692016962966 16.191657556917754 a37.57387612078739,37.57387612078739 0 0,0 -0.6306682972279154,-0.14353805116937718 l 3.817057648317075 -16.12834277217069" fill="#ffaf10" stroke="none" /><path d="M 95.16358092515715 120.4354850818985 l -6.052168125349674 25.57243066095209 a47.27884984025559,47.27884984025559 0 0,0 -0.790337377978129,-0.19424569869415134 l 6.4914587880710135 -25.46446370394391" fill="#d0ff1d" stroke="none" /><path d="M 94.81253420990036 120.34920634021253 l -5.4720359530136085 21.46550805625585 a43.15200247346181,43.15200247346181 0 0,0 -0.7181922512522456,-0.18968110110351274 l 5.840718647077344 -21.368135605848753" fill="#fffa17" stroke="none" /><path d="M 94.46302465271185 120.25689768951611 l -8.299882105865088 30.36492888412438 a52.47883335051016,52.47883335051016 0 0,0 -0.8693214503273619,-0.24567892527977625 l 8.821334724297063 -30.217561165506083" fill="#92ff23" stroke="none" /><path d="M 93.76903079525671 120.05430185196036 l -9.330078488685489 30.028749006197273 a52.444810883231995,52.444810883231995 0 0,0 -0.8597918546590059,-0.27527820052993823 l 9.845591688435436 -29.863697959007627" fill="#92ff23" stroke="none" /><path d="M 93.42475214034765 119.94407469862007 l -6.980266322061608 21.17257872478427 a43.293546325878594,43.293546325878594 0 0,0 -0.7057472036110765,-0.2394277693750133 l 7.34368325860991 -21.049287968511134" fill="#fffb17" stroke="none" /><path d="M 93.08242187328487 119.8279376855182 l -13.70805475611697 39.29156281506666 a62.6141523240235,62.6141523240235 0 0,0 -1.0145891077912352,-0.36379555670251185 l 14.382363424537932 -39.04977971732419" fill="#31ff3d" stroke="none" /><path d="M 92.40401165467489 119.57807347666478 l -7.878440431792529 20.306071921514896 a42.78087189529012,42.78087189529012 0 0,0 -0.6842472961038647,-0.2722761203745402 l 8.226808803938251 -20.16744895673429" fill="#fff517" stroke="none" /><path d="M 92.06813273071674 119.44442032107085 l -11.941208319363302 29.27304073812991 a52.614923219622796,52.614923219622796 0 0,0 -0.8356465976235178,-0.34930034557957745 l 12.443326376484281 -29.06315534953036" fill="#90ff24" stroke="none" /><path d="M 91.40352486487194 119.15986991738527 l -13.2804776417148 29.599599842524157 a53.44237040090694,53.44237040090694 0 0,0 -0.8360728123214236,-0.38380002135487257 l 13.788018449803642 -29.36661275083521" fill="#87ff25" stroke="none" /><path d="M 91.07499286063937 119.00905698771935 l -7.761251699525626 16.53041544377804 a39.26175409667113,39.26175409667113 0 0,0 -0.6092813472473677,-0.2924920726452374 l 8.044645714773235 -16.39436909463324" fill="#ffc612" stroke="none" /><path d="M 90.7491055286396 118.85261126421891 l -20.68806237672737 42.160679597612884 a67.96295166443367,67.96295166443367 0 0,0 -1.045807726319389,-0.5243897045888062 l 21.410724010729517 -41.79832205211477" fill="#38ff7f" stroke="none" /><path d="M 90.10565033884886 118.52300852407294 l -12.30700876640555 23.039698018863877 a47.12068432443574,47.12068432443574 0 0,0 -0.7121442997007068,-0.38831785322955564 l 12.701775877974898 -22.824439513874555" fill="#d2ff1c" stroke="none" /><line stroke="#e1ed5e" stroke-width="0.3" x1="58.666819895761336" x2="56.23545636021788" y1="174.27360380694188" y2="178.64263932499728" /><path d="M 58.180547188652646 175.14741091055294 a86.0,86.0 0 0,1 -31.652253787137756,-30.449443065178592" fill="none" id="id80" stroke="none" /><text fill="#e1ed5e" style="font-size:6.75px; font-family:Arial;" text-anchor="middle"><textPath startOffset="22.20632615414155" xlink:href="#id80">August</textPath></text><path d="M 89.7882731507175 118.34994917583269 l -15.900741654650053 28.572816872924438 a53.69922704318252,53.69922704318252 0 0,0 -0.8038294398286895,-0.456435334594443 l 16.390219861399952 -28.29487837253536" fill="#84ff25" stroke="none" /><path d="M 89.4739219176387 118.17145234162733 l -2.314847619835702 3.996183846713189 a25.61822529114707,25.61822529114707 0 0,0 -0.3796768951351547,-0.22431980199221419 l 2.3832923859992388 -3.955745472427225" fill="#ff0000" stroke="none" /><path d="M 89.1626897886671 117.98757091392108 l -16.510820253000794 27.404359970916502 a52.993845202514684,52.993845202514684 0 0,0 -0.7772955522829503,-0.4774784142584477 l 16.980095005216054 -27.116093089829675" fill="#8cff24" stroke="none" /><path d="M 88.8546689885994 117.79835938074946 l -12.88493535131052 20.57639290800468 a45.277757394620224,45.277757394620224 0 0,0 -0.6569979352688219,-0.419327167069997 l 13.237215088626265 -20.35155131211088" fill="#e9ff1a" stroke="none" /><path d="M 88.54995079064634 117.60387380957326 l -29.61469143170942 45.53109609759407 a75.31492115840462,75.31492115840462 0 0,0 -1.080680538449157,-0.7162161331754635 l 30.39404666889854 -45.01458194332729" fill="#42ffd3" stroke="none" /><path d="M 87.95078237400918 117.19931262002967 l -11.985985000873281 17.10905300974297 a41.88979490879109,41.88979490879109 0 0,0 -0.5870010420796212,-0.4188096576794999 l 12.278713370801789 -16.90019909021925" fill="#ffe915" stroke="none" /><path d="M 87.65650970185807 116.9893568818739 l -15.010182878022082 20.659744336275566 a46.53684839740287,46.53684839740287 0 0,0 -0.6440146463637154,-0.47642663916415945 l 15.363582494804362 -20.39830774837164" fill="#d9ff1c" stroke="none" /><path d="M 87.36589467227662 116.77436683061367 l -20.849359725982836 27.681802482651943 a55.65512934144079,55.65512934144079 0 0,0 -0.7602789390494559,-0.5829494705060165 l 21.32276739352578 -27.31881367031856" fill="#6eff28" stroke="none" /><path d="M 86.79598089348748 116.32954008644616 l -19.71694949964179 24.38414505762362 a52.358326290837894,52.358326290837894 0 0,0 -0.6959415660560392,-0.5727125294035176 l 20.133761194242517 -24.04113740936292" fill="#93ff23" stroke="none" /><path d="M 86.51685102203217 116.09983520530335 l -29.292019565896023 34.97674679795206 a66.62231062557973,66.62231062557973 0 0,0 -0.8728617944430561,-0.743871757556607 l 29.889746836916135 -34.467350650172506" fill="#36ff6f" stroke="none" /><path d="M 85.97065885151581 115.62618273729859 l -14.371435564204209 16.007214875363598 a42.51206843244357,42.51206843244357 0 0,0 -0.5403090579864331,-0.4935595138664869 l 14.644844171657496 -15.757462594910534" fill="#fff116" stroke="none" /><path d="M 85.70375840098266 115.38237550388516 l -23.94448818639661 25.763632069341345 a56.172478614861376,56.172478614861376 0 0,0 -0.7025951059796305,-0.6643475264791181 l 24.38441912676706 -25.3476499061163" fill="#68ff28" stroke="none" /><path d="M 85.18274418774928 114.88116024355367 l -22.615747204809935 22.713285270017625 a53.052540451406784,53.052540451406784 0 0,0 -0.6415804767740622,-0.6499176356952245 l 23.003368306639533 -22.320627140341735" fill="#8bff24" stroke="none" /><path d="M 84.9287848128048 114.62390073753433 l -18.85189545249877 18.29237021616857 a47.26794187364733,47.26794187364733 0 0,0 -0.5615734203464406,-0.5888074860922946 l 19.16397542422417 -17.965155613493774" fill="#d0ff1d" stroke="none" /><path d="M 84.67929136418377 114.36230785411682 l -34.928941978392785 32.74393043018241 a68.87688343811192,68.87688343811192 0 0,0 -0.803411428772619,-0.8719444302483874 l 35.48739981516113 -32.13783474513268" fill="#39ff8a" stroke="none" /><path d="M 84.19399662182784 113.82643327865904 l -16.224456036915324 14.192478231830416 a42.55596001236731,42.55596001236731 0 0,0 -0.47755384472956053,-0.5555030098360021 l 16.466352391215665 -13.911098122832884" fill="#fff216" stroke="none" /><path d="M 83.95833913139862 113.55231037782056 l -24.252253421267337 20.488780333830324 a52.74841595382871,52.74841595382871 0 0,0 -0.5799914401437454,-0.6986370525065878 l 24.601340861304617 -20.068282024209974" fill="#8fff24" stroke="none" /><path d="M 83.50135304334701 112.99209946851258 l -25.618115502855158 20.17335759007349 a53.60754818097496,53.60754818097496 0 0,0 -0.5646487715850285,-0.7298846526940387 l 25.961571091658254 -19.729394943266197" fill="#85ff25" stroke="none" /><path d="M 83.28015986056508 112.70617746262583 l -19.15211765707021 14.554577298969818 a45.0549232196228,45.0549232196228 0 0,0 -0.4639342631505445,-0.6215157605438927 l 19.399813186915843 -14.222748658916617" fill="#ecff1a" stroke="none" /><path d="M 83.06392112726016 112.41649034213515 l -21.36784035898547 15.665585017832852 a47.49519117798619,47.49519117798619 0 0,0 -0.4777116257987838,-0.6634996663949866 l 21.63433177715986 -15.295451745986727" fill="#cdff1d" stroke="none" /><path d="M 82.85270091963577 112.12312394758628 l -17.16610226105217 12.136417778236838 a42.02302792950634,42.02302792950634 0 0,0 -0.4125042312232738,-0.594243111096482 l 17.37246739943758 -11.839133404953344" fill="#ffeb16" stroke="none" /><path d="M 82.6465618267979 111.8261652097733 l -15.697180106270322 10.69744470297469 a39.99570442131299,39.99570442131299 0 0,0 -0.38281011359972533,-0.5722491794733141 l 15.878993325280776 -10.425658609295555" fill="#ffd013" stroke="none" /><path d="M 82.44556493220864 111.52570212397912 l -26.108146994320776 17.1418062787857 a52.23262496135216,52.23262496135216 0 0,0 -0.4869949495468324,-0.7558269764361294 l 26.399346807244655 -16.689857702428124" fill="#95ff23" stroke="none" /><path d="M 82.05923443525364 110.91462005526583 l -28.4943659007081 17.33511183787369 a54.353185612697104,54.353185612697104 0 0,0 -0.47939283058072474,-0.8034899586773924 l 28.788539606987054 -16.842059785310187" fill="#7dff26" stroke="none" /><line stroke="#e1ed5e" stroke-width="0.3" x1="26.63291911575756" x2="22.317208475507996" y1="142.92168965132927" y2="145.44649492493687" /><path d="M 25.769776987707644 143.4266507060508 a86.0,86.0 0 0,1 -11.730757126820373,-40.83630448921669" fill="none" id="id81" stroke="none" /><text fill="#e1ed5e" style="font-size:6.75px; font-family:Arial;" text-anchor="middle"><textPath startOffset="21.46611528233685" xlink:href="#id81">September</textPath></text><path d="M 81.87401531095188 110.60418214915194 l -18.554746515888326 10.855019198195883 a42.49674533649387,42.49674533649387 0 0,0 -0.3639502294661522,-0.634577902530382 l 18.738848741506853 -10.534021449807195" fill="#fff116" stroke="none" /><path d="M 81.69416730710424 110.29060199501025 l -43.51245303814298 24.46047353070571 a70.91641348036688,70.91641348036688 0 0,0 -0.5890235937174507,-1.06924891606544 l 43.92705304131194 -23.707854096242446" fill="#3cffa2" stroke="none" /><path d="M 81.35079622478065 109.6543875284942 l -18.624217724608428 9.641452659085724 a41.971864371843765,41.971864371843765 0 0,0 -0.3266237098665289,-0.644459566366055 l 18.787420104261223 -9.319438881016984" fill="#ffea16" stroke="none" /><path d="M 81.18737489456691 109.33194174019688 l -28.029900149360618 13.904141166446077 a52.28898278882819,52.28898278882819 0 0,0 -0.39303074514978764,-0.8097597468699083 l 28.265084151125127 -13.419592463610885" fill="#94ff23" stroke="none" /><path d="M 80.87730276802145 108.67885076344099 l -30.175036816109735 13.694963536336761 a54.137363701947855,54.137363701947855 0 0,0 -0.3778244428412219,-0.8518943758670768 l 30.406302343682235 -13.17352082397699" fill="#7fff26" stroke="none" /><path d="M 80.73074385275274 108.34839909993369 l -21.29599345051786 9.226482392258568 a44.2087766670102,44.2087766670102 0 0,0 -0.296512515058897,-0.7008679972182486 l 21.451656946769063 -8.85853986937416" fill="#f7ff19" stroke="none" /><path d="M 80.32549172779594 107.34259656027581 l -14.568585076243785 5.437047838193801 a36.55008554055446,36.55008554055446 0 0,0 -0.21490708678296305,-0.5913320039056306 l 14.660016424031973 -5.185468037282053" fill="#ffa10e" stroke="none" /><path d="M 79.86692584326677 105.97154293290107 l -12.794202400942963 3.794806909997182 a34.3451180047408,34.3451180047408 0 0,0 -0.16323312685184618,-0.5682359287456998 l 12.857628164680913 -3.574013505746886" fill="#ff820c" stroke="none" /><path d="M 79.76711848015287 105.62410040840567 l -15.579089396174563 4.330493555733325 a37.169761929300215,37.169761929300215 0 0,0 -0.16604604135742446,-0.6179190905345419 l 15.651323513873763 -4.0616835320232445" fill="#ffaa0f" stroke="none" /><path d="M 79.58551787078972 104.9243191809786 l -18.438045510414025 4.447569161540151 a39.966876223848296,39.966876223848296 0 0,0 -0.15556523066956715,-0.670170942204145 l 18.511871307014147 -4.1295295619874315" fill="#ffd013" stroke="none" /><path d="M 79.50377843672027 104.57218783832718 l -18.24140483180418 4.069195342589368 a39.68976192930022,39.68976192930022 0 0,0 -0.14300780900850457,-0.6680848739366707 l 18.308746679537123 -3.7545966492365337" fill="#ffcc13" stroke="none" /><path d="M 79.4281124754447 104.21870165774334 l -25.801383030333614 5.291120575698963 a47.3383242296197,47.3383242296197 0 0,0 -0.15682525664163216,-0.7996486049554296 l 25.888638219950913 -4.846208243675579" fill="#cfff1d" stroke="none" /><path d="M 79.35854240842038 103.8639653848113 l -17.188209598251852 3.2175366792711038 a38.486769040502935,38.486769040502935 0 0,0 -0.11629154373761331,-0.6522247355417362 l 17.24104758432865 -2.921193192996154" fill="#ffbc11" stroke="none" /><path d="M 79.23777060512086 103.15116336523772 l -62.286688184637434 9.45349009571317 a84.0,84.0 0 0,0 -0.20466379593360395,-1.4314181120783975 l 62.440186031587636 -8.379926511654372" fill="#4dd2ff" stroke="none" /><path d="M 79.1416061653843 102.43462659150553 l -21.8860292657916 2.5545739166424295 a43.034611975677635,43.034611975677635 0 0,0 -0.07954783774719411,-0.7365141823961784 l 21.926759405039846 -2.177463412361469" fill="#fff817" stroke="none" /><path d="M 79.10278846688536 102.07522291339032 l -32.953974349221255 3.272534354567441 a54.11606719571267,54.11606719571267 0 0,0 -0.08407421619795453,-0.9277519699529982 l 33.005423161696285 -2.7048009960658765" fill="#7fff26" stroke="none" /><path d="M 79.0235259727143 100.99374915477108 l -17.48948922392069 0.8285551285235718 a38.509104400700814,38.509104400700814 0 0,0 -0.02566882511524982,-0.6623983193641219 l 17.501160181887137 -0.5273795621454532" fill="#ffbc11" stroke="none" /><path d="M 79.0095281055655 100.63252640178507 l -58.71508534611526 1.7693190439577036 a79.74173760692571,79.74173760692571 0 0,0 -0.029534582690250083,-1.37235600370163 l 58.736841991490515 -0.7583732244659445" fill="#47fcff" stroke="none" /><line stroke="#e1ed5e" stroke-width="0.3" x1="15.007084014347285" x2="10.007500721073583" y1="101.09737516637583" y2="101.16192664675087" /><path d="M 14.007167355692545 101.11028546245083 a86.0,86.0 0 0,1 10.666146001902534,-42.60595125391555" fill="none" id="id82" stroke="none" /><text fill="#e1ed5e" style="font-size:6.75px; font-family:Arial;" text-anchor="middle"><textPath startOffset="22.20632615414155" xlink:href="#id82">October</textPath></text><path d="M 79.00486145842228 99.54816195383935 l -13.722680473120255 -0.2953268977378987 a34.7258579820674,34.7258579820674 0 0,0 0.018005035809458413,-0.5974994831048093 l 13.715563742855151 0.5314965282677024" fill="#ff870c" stroke="none" /><path d="M 79.03285615573316 98.82574320788736 l -10.520091012205372 -0.589173633589735 a31.53657631660311,31.53657631660311 0 0,0 0.03501972959273356,-0.5417397167003672 l 10.508390691608225 0.770172414543114" fill="#ff5908" stroke="none" /><path d="M 79.05617556472873 98.46500227214037 l -27.13661739185899 -1.9888748670061243 a48.20940327733691,48.20940327733691 0 0,0 0.06778131031035245,-0.8271036695496289 l 27.09836159772914 2.4556924537635316" fill="#c5ff1e" stroke="none" /><path d="M 79.08570108090925 98.10471618934814 l -48.11215593453661 -4.3599926820903 a69.30930640008245,69.30930640008245 0 0,0 0.11790131626581185,-1.1872501648577949 l 48.02997749258857 5.187518377652524" fill="#3aff8f" stroke="none" /><path d="M 79.16333360222342 97.38593545837743 l -20.03850375047929 -2.5139310253049003 a41.1955807482222,41.1955807482222 0 0,0 0.09432611159574274,-0.7028390938134403 l 19.992261639825713 2.858488461183" fill="#ffe015" stroke="none" /><path d="M 79.21141760316559 97.0276538004421 l -40.57173699327859 -5.8009365891056515 a61.9843471091415,61.9843471091415 0 0,0 0.16010883474683577,-1.054917174981135 l 40.46587226509246 6.498452876478878" fill="#30ff35" stroke="none" /><path d="M 79.32604984820605 96.31383870115002 l -20.54960389487766 -3.6639903853798317 a41.87369267236937,41.87369267236937 0 0,0 0.1326284931106467,-0.7085067135279842 l 20.48348967785715 4.0171751763703885" fill="#ffe915" stroke="none" /><path d="M 79.3925641242962 95.95851677861259 l -15.758157695112544 -3.0904538686378027 a37.05834484180151,37.05834484180151 0 0,0 0.12815252831602642,-0.6249172405130151 l 15.702625870881525 3.3612467653142204" fill="#ffa80f" stroke="none" /><path d="M 79.46518482838121 95.60439243477599 l -58.47336766778778 -12.516595602958672 a80.79799237349272,80.79799237349272 0 0,0 0.3028216913695446,-1.357490265043054 l 58.24925158941619 13.521264037551687" fill="#49f1ff" stroke="none" /><path d="M 79.62865764111835 94.90015583598534 l -23.36227447518205 -5.848606195969231 a45.08323199010616,45.08323199010616 0 0,0 0.1949391826592163,-0.7511801914832359 l 23.25813896065253 6.249882813001331" fill="#ecff1a" stroke="none" /><path d="M 79.71946130924805 94.55025226153421 l -32.25665348121039 -8.667946499856164 a54.40097289498094,54.40097289498094 0 0,0 0.25079685096642756,-0.9022497115397308 l 32.102669859677604 9.221907514814838" fill="#7cff26" stroke="none" /><path d="M 79.91906864156998 93.8553929516997 l -21.68392900791838 -6.6351117206007775 a43.67636401113057,43.67636401113057 0 0,0 0.22616976548353457,-0.7170199630446003 l 21.566503758666638 7.007381850071792" fill="#feff18" stroke="none" /><path d="M 80.2630227832202 92.82701384747504 l -44.09667466677139 -16.02600202062533 a67.91854065752861,67.91854065752861 0 0,0 0.40879009022748886,-1.0953542041636628 l 43.81427998804228 16.782679361818335" fill="#38ff7f" stroke="none" /><path d="M 80.52162464483688 92.15188598940014 l -25.635573515973398 -10.328936577718418 a48.638190250438,48.638190250438 0 0,0 0.31957216398397725,-0.773869343323865 l 25.453979665103223 10.768680491495592" fill="#c0ff1e" stroke="none" /><path d="M 80.803312248108 91.48605970444005 l -18.35759683059628 -8.141794324401241 a41.0820859527981,41.0820859527981 0 0,0 0.2922651645552607,-0.6439675488818788 l 18.21472934907767 8.45658388212519" fill="#ffdf14" stroke="none" /><path d="M 81.10775173730289 90.83032412892265 l -9.190242520848335 -4.460641418690584 a31.215570442131302,31.215570442131302 0 0,0 0.23878423007027635,-0.48137443701045024 l 9.112098277824646 4.618175444199996" fill="#ff5507" stroke="none" /><line stroke="#e1ed5e" stroke-width="0.3" x1="26.266209847984243" x2="21.928928074336255" y1="57.711370442889674" y2="55.22380399835377" /><path d="M 25.398753493254645 57.213857153982495 a86.0,86.0 0 0,1 29.58750427330803,-30.492523968695096" fill="none" id="id83" stroke="none" /><text fill="#e1ed5e" style="font-size:6.75px; font-family:Arial;" text-anchor="middle"><textPath startOffset="21.46611528233685" xlink:href="#id83">November</textPath></text><line stroke="#e1ed5e" stroke-width="0.3" x1="56.762969772571076" x2="54.21961505331055" y1="26.818313649435495" y2="22.513508569990535" /><path d="M 56.25429882871897 25.957352633546506 a86.0,86.0 0 0,1 42.265352541879196,-11.944610805530505" fill="none" id="id84" stroke="none" /><text fill="#e1ed5e" style="font-size:6.75px; font-family:Arial;" text-anchor="middle"><textPath startOffset="22.20632615414155" xlink:href="#id84">December</textPath></text></svg>