<?xml version="1.0" encoding="utf-8" ?>
<svg baseProfile="full" height="200mm" version="1.1" viewBox="0,0,200,200" width="200mm" xmlns="http://www.w3.org/2000/svg" xmlns:ev="http://www.w3.org/2001/xml-events" xmlns:xlink="http://www.w3.org/1999/xlink"><defs /><rect fill="#1a1a1a" height="200" width="200" x="0" y="0" /><text alignment-baseline="middle" fill="#e1ed5e" style="dominant-baseline: central; font-size:9.0px; font-family:Arial;" text-anchor="middle" x="100.0" y="100.0">2023</text><line stroke="#e1ed5e" stroke-width="0.3" x1="100.0" x2="100.0" y1="15.0" y2="10.0" /><path d="M 100.0 14.0 a86.0,86.0 0 0,1 42.46469731375804,11.215312516191453" fill="none" id="id49" stroke="none" /><text fill="#e1ed5e" style="font-size:6.75px; font-family:Arial;" text-anchor="middle"><textPath startOffset="22.20632615414155" xlink:href="#id49">January</textPath></text><path d="M 102.16513564639614 79.11191278185805 l 1.7469933715010895 -16.854071002050357 a37.9443706044876,37.9443706044876 0 0,0 0.6490895874047029,0.07293277812420496 l -2.0368496624155177 16.821502270455554" fill="#ff2803" stroke="none" /><path d="M 104.66035177308747 79.52364482259891 l 3.904517552688774 -17.15541918250632 a38.594137223710646,38.594137223710646 0 0,0 0.6465001570199695,0.1530056995842942 l -4.199241396671267 17.08566757078116" fill="#ff3404" stroke="none" /><path d="M 106.40334571778207 80.00007090966166 l 6.541328060725316 -20.4308970867906 a42.452518000669784,42.452518000669784 0 0,0 0.6940323175568057,0.2288115432530261 l -6.892043200524539 20.315271819278337" fill="#ff790b" stroke="none" /><path d="M 107.08798089147638 80.2323363322302 l 5.788990002943552 -16.144909122410706 a38.15139923811118,38.15139923811118 0 0,0 0.6162680437178083,0.2269767214012326 l -6.066040372433936 16.04286913320315" fill="#ff2c04" stroke="none" /><path d="M 109.73455568895987 81.39251694778311 l 7.877642735356891 -15.058016860062283 a37.99414978231748,37.99414978231748 0 0,0 0.5768868029065342,0.3081529512574959 l -8.135674584791737 14.920185182303033" fill="#ff2904" stroke="none" /><path d="M 110.36928655335952 81.73862282372117 l 7.7299215698161765 -13.613184726169303 a36.65472726892163,36.65472726892163 0 0,0 0.545986593348139,0.3162706758633421 l -7.963104895629644 13.47810989291591" fill="#ff1001" stroke="none" /><line stroke="#e1ed5e" stroke-width="0.3" x1="143.23703022742887" x2="145.7803849466894" y1="26.81831364943548" y2="22.513508569990506" /><path d="M 143.74570117128098 25.957352633546492 a86.0,86.0 0 0,1 28.547481713284135,27.462654790039103" fill="none" id="id50" stroke="none" /><text fill="#e1ed5e" style="font-size:6.75px; font-family:Arial;" text-anchor="middle"><textPath startOffset="19.985693538727396" xlink:href="#id50">February</textPath></text><path d="M 111.2981086023043 82.29822771554956 l 10.28159571242224 -16.10910927028621 a40.11058899866042,40.11058899866042 0 0,0 0.5788014800861142,0.3764685830586175 l -10.557364218292635 15.929741763068067" fill="#ff4f07" stroke="none" /><path d="M 113.6212207817346 84.01681056812373 l 13.775748194320425 -16.16451245331123 a42.238236771600796,42.238236771600796 0 0,0 0.5493106855500217,0.47635681351159803 l -14.05195267851721 15.92499064637996" fill="#ff750a" stroke="none" /><path d="M 113.89432698308785 84.25364557470407 l 11.083383884983446 -12.560730080484776 a37.75151749832551,37.75151749832551 0 0,0 0.4835592099346324,0.43414423315756306 l -11.297954082514067 12.368086838557916" fill="#ff2503" stroke="none" /><path d="M 114.42810811169701 84.74124197986012 l 10.730709111392786 -11.348493679674421 a36.61846429169457,36.61846429169457 0 0,0 0.45427254957936936,0.437009832775684 l -10.924464904584575 11.162100760136434" fill="#ff1001" stroke="none" /><path d="M 114.94478906791727 85.2469230424477 l 12.07710751692657 -11.922182093847496 a37.970414015405225,37.970414015405225 0 0,0 0.4551671490317058,0.4690897573991366 l -12.280538929661386 11.712528140898245" fill="#ff2904" stroke="none" /><path d="M 115.4437574822437 85.77008943001954 l 15.151536351049202 -13.960657406147954 a41.602645679839256,41.602645679839256 0 0,0 0.48072126387670505,0.5308244262916889 l -15.389601255541942 13.697780192586716" fill="#ff6a09" stroke="none" /><path d="M 115.9244219780498 86.31012108654704 l 13.966950670874825 -12.007083443154468 a39.41862546048225,39.41862546048225 0 0,0 0.43790223575509546,0.5183381256587815 l -14.171563520117036 11.764886367866579" fill="#ff4306" stroke="none" /><path d="M 116.38621287248628 86.86637796730983 l 15.568891512909618 -12.478535351011072 a40.95254939718687,40.95254939718687 0 0,0 0.43613669342642675,0.553849310276904 l -15.78138228693001 12.208693646781128" fill="#ff5e08" stroke="none" /><path d="M 116.82858285166822 87.43820079747576 l 14.324602017215838 -10.692687303643126 a38.87534012893503,38.87534012893503 0 0,0 0.39567207794298836,0.5396962696490113 l -14.506536707672453 10.444528590322621" fill="#ff3905" stroke="none" /><path d="M 117.2510076193507 88.02491185347247 l 13.456316732217797 -9.340937210829804 a37.380646140321495,37.380646140321495 0 0,0 0.36237071484114036,0.5317343098317281 l -13.61511191272767 9.107924877727669" fill="#ff1e03" stroke="none" /><path d="M 117.45458315368197 88.32363383020206 l 18.155674602775974 -12.145366225889742 a42.84349882786336,42.84349882786336 0 0,0 0.40477592002318524,0.6165014962749525 l -18.362047158157086 11.831046665637116" fill="#ff7f0b" stroke="none" /><line stroke="#e1ed5e" stroke-width="0.3" x1="172.23445277983987" x2="176.4835382374775" y1="55.19839476539836" y2="52.563006222186495" /><path d="M 173.08426987136738 54.67131705675599 a86.0,86.0 0 0,1 12.851231095245387,41.99856678651699" fill="none" id="id51" stroke="none" /><text fill="#e1ed5e" style="font-size:6.75px; font-family:Arial;" text-anchor="middle"><textPath startOffset="22.20632615414155" xlink:href="#id51">March</textPath></text><path d="M 117.84615892207809 88.93136811851018 l 14.288955066272875 -8.862365525842053 a37.81415354989953,37.81415354989953 0 0,0 0.33831819300976307,0.5561061545288009 l -14.439389057568862 8.61509159810617" fill="#ff2603" stroke="none" /><path d="M 118.21658344932153 89.55222093294921 l 21.815689387951974 -12.51197863500665 a46.149034033824506,46.149034033824506 0 0,0 0.3892832733727361,0.6924915059351675 l -22.027830302617144 12.134603619136689" fill="#ffb711" stroke="none" /><path d="M 118.3937258080291 89.86733742301442 l 34.751864149997786 -19.143968820034317 a60.675982710984584,60.675982710984584 0 0,0 0.4960749906398338,0.9191516169216739 l -35.07624723985609 18.542936219780184" fill="#6dff28" stroke="none" /><path d="M 118.73160827565052 90.50648371742162 l 17.83876343837395 -9.041006445955365 a40.99903194072337,40.99903194072337 0 0,0 0.31362304570860045,0.6322449226108835 l -17.991746497035958 8.73260193484553" fill="#ff5f08" stroke="none" /><path d="M 118.89224826269711 90.83032412892265 l 19.096786428593795 -9.26895196878989 a42.227357878432684,42.227357878432684 0 0,0 0.31176218260775,0.6566506658411131 l -19.2535068050433 8.938858887308237" fill="#ff750a" stroke="none" /><path d="M 119.196687751892 91.48605970444005 l 19.220394311197133 -8.52445441305488 a42.02593352310784,42.02593352310784 0 0,0 0.2875960511811674,0.6638113380553065 l -19.364281072220983 8.19234393041297" fill="#ff710a" stroke="none" /><path d="M 119.47837535516314 92.15188598940014 l 37.85880896485878 -15.253851701906639 a61.816288513060954,61.816288513060954 0 0,0 0.3891672411333527,0.9903881801842215 l -38.115769755873835 14.599914516826633" fill="#5eff2a" stroke="none" /><path d="M 119.7369772167798 92.82701384747503 l 13.88902604388063 -5.047672213965746 a35.77782254688546,35.77782254688546 0 0,0 0.2053764896838274,0.5806269926317119 l -13.973855614374266 4.807847594907419" fill="#ff0000" stroke="none" /><path d="M 119.85752413597 93.16781622104841 l 18.68282705816346 -6.428017264273463 a40.757718310448766,40.757718310448766 0 0,0 0.22254239434113976,0.6653734333494065 l -18.79070674627637 6.105470728001743" fill="#ff5b08" stroke="none" /><path d="M 120.18372546131832 94.20196356495316 l 18.72167698739296 -5.3780440833935375 a40.47882304922973,40.47882304922973 0 0,0 0.1866135991937461,0.6713484056643386 l -18.81147735715307 5.054984374310247" fill="#ff5608" stroke="none" /><path d="M 120.28053869075195 94.5502522615342 l 35.43544035546243 -9.522144055610429 a57.69252867548559,57.69252867548559 0 0,0 0.24946158225770662,0.961277238222755 l -35.59409826959044 8.910770391838824" fill="#96ff23" stroke="none" /><path d="M 120.45610955862082 95.25157060432595 l 18.69109788690229 -4.3387213188924605 a40.188059904554585,40.188059904554585 0 0,0 0.15062028047556208,0.6752011837028882 l -18.76301255437989 4.016341965639609" fill="#ff5107" stroke="none" /><path d="M 120.53481517161879 95.60439243477599 l 26.952267273587296 -5.769303932740521 a48.56282966342933,48.56282966342933 0 0,0 0.16793651821515773,0.8189181042576149 l -27.04758308771745 5.304510172319494" fill="#ffdf14" stroke="none" /><path d="M 120.67395015179393 96.31383870115 l 19.429211839427158 -3.464224699382854 a40.73563086068319,40.73563086068319 0 0,0 0.1171404246417149,0.6913694171746393 l -19.485964125589096 3.1292694938923766" fill="#ff5b08" stroke="none" /><path d="M 120.78858239683441 97.02765380044208 l 45.32501428566343 -6.48055896189509 a66.7859647103148,66.7859647103148 0 0,0 0.15292078047876645,1.1394374363439241 l -45.429851065200026 5.699403183486502" fill="#32ff44" stroke="none" /><path d="M 120.87857604477298 97.74499172005257 l 25.05081702650982 -2.705634699085241 a46.19650556764903,46.19650556764903 0 0,0 0.07858437915777855,0.7913339737443886 l -25.093678531349827 2.2740251946364176" fill="#ffb811" stroke="none" /><path d="M 120.91429891909075 98.10471618934814 l 27.541289755214663 -2.4958312396445232 a48.65414643335566,48.65414643335566 0 0,0 0.06840660894127212,0.8347338966701581 l -27.58017084797543 2.0213834257665964" fill="#ffe015" stroke="none" /><path d="M 120.96714384426684 98.82574320788733 l 28.353436427801125 -1.5879232551830864 a49.397867129939726,49.397867129939726 0 0,0 0.04023901274068743,0.8493819608159062 l -28.37656904877531 1.0996301877441805" fill="#ffec16" stroke="none" /><line stroke="#e1ed5e" stroke-width="0.3" x1="184.98032266829074" x2="189.97916517819016" y1="98.17113171792111" y2="98.06355123074" /><path d="M 185.9800911702706 98.14961562048488 a86.0,86.0 0 0,1 -9.607161424134198,41.387399972396054" fill="none" id="id52" stroke="none" /><text fill="#e1ed5e" style="font-size:6.75px; font-family:Arial;" text-anchor="middle"><textPath startOffset="21.466115282336823" xlink:href="#id52">April</textPath></text><path d="M 120.99513854157772 99.54816195383933 l 50.72774130865678 -1.091715754752283 a71.73948739953113,71.73948739953113 0 0,0 0.015943222717730795,1.2348201695361336 l -50.739017538492234 0.21835932715568673" fill="#39ff8e" stroke="none" /><path d="M 120.99824983174949 100.27111621757518 l 17.519821358647444 0.22620493314483503 a38.52128160582719,38.52128160582719 0 0,0 -0.014267433982061869,0.6629515943410889 l -17.513331861980376 -0.5277463432760388" fill="#ff3304" stroke="none" /><path d="M 120.9904718944345 100.63252640178507 l 25.362022366420923 0.7642586040992333 a46.373534829202946,46.373534829202946 0 0,0 -0.03091097998853735,0.797675043652217 l -25.34510925358118 -1.2007108947654566" fill="#ffbb11" stroke="none" /><path d="M 120.9764740272857 100.99374915477107 l 18.002509132279428 0.8528591702633236 a39.02269968184862,39.02269968184862 0 0,0 -0.037561483751914766,0.6706855247679926 l -17.985161297639984 -1.1626164113667394" fill="#ff3c05" stroke="none" /><path d="M 120.95626037817324 101.35467743843564 l 27.853478170610664 1.8005349131367803 a48.911613571667786,48.911613571667786 0 0,0 -0.06154348342112138,0.8397119347559711 l -27.818358128525205 -2.2797199843895215" fill="#ffe415" stroke="none" /><path d="M 120.89721153311464 102.0752229133903 l 54.914229243719525 5.453324077097537 a76.18433941728063,76.18433941728063 0 0,0 -0.14082384370673942,1.3038538953022916 l -54.81222309851173 -6.39777429428462" fill="#41ffcb" stroke="none" /><path d="M 120.81339534386255 102.79330883721812 l 21.039386402859297 2.8236384788646913 a42.22801720529136,42.22801720529136 0 0,0 -0.10288745590457231,0.719594626962033 l -20.987664895938124 -3.1853785778071337" fill="#ff750a" stroke="none" /><path d="M 120.76222939487914 103.15116336523771 l 26.584223433793998 4.034789780259672 a47.88866795043536,47.88866795043536 0 0,0 -0.13070925870922612,0.8139266787540819 l -26.510832420723485 -4.491795688706959" fill="#ffd413" stroke="none" /><path d="M 120.64145759157962 103.86396538481128 l 24.881670777450363 4.657709571806511 a46.313865748492965,46.313865748492965 0 0,0 -0.15343136877517854,0.7823432438426646 l -24.79780947569952 -5.085316542717121" fill="#ffba11" stroke="none" /><path d="M 120.49622156327973 104.57218783832717 l 51.70441734518225 11.533945778424062 a73.97526477729403,73.97526477729403 0 0,0 -0.28793791800159635,1.2404290147154267 l -51.4982188612501 -12.422243450488054" fill="#3dffad" stroke="none" /><path d="M 120.32669344350535 105.2749913415812 l 22.527057157848294 5.846008933485563 a44.27324912089752,44.27324912089752 0 0,0 -0.19777898412529127,0.7360091755182386 l -22.423090097381227 -6.23290904217935" fill="#ff980e" stroke="none" /><path d="M 120.23288151984713 105.62410040840565 l 22.881099586742295 6.36022117780583 a44.74862378600133,44.74862378600133 0 0,0 -0.21267819728841733,0.7403607055192387 l -22.76822875256778 -6.75313935882965" fill="#ffa00e" stroke="none" /><path d="M 119.9155931802556 106.66101706037122 l 24.59414852307624 8.225817901318067 a46.93330333221701,46.93330333221701 0 0,0 -0.26284699076149237,0.7639563911019843 l -24.448910701371513 -8.64794699550935" fill="#ffc412" stroke="none" /><path d="M 119.79798401119884 107.00284435728193 l 30.483906099627838 10.782615527769801 a53.33470780308104,53.33470780308104 0 0,0 -0.31359726000265387,0.8628849748633843 l -30.293784578619956 -11.305748299639317" fill="#d5ff1c" stroke="none" /><path d="M 119.54520255179757 107.68017299344265 l 29.74275734307394 11.687242487839343 a52.95658384963161,52.95658384963161 0 0,0 -0.3406807636164011,0.8455417162698349 l -29.537173965200147 -12.197483571951992" fill="#dbff1b" stroke="none" /><path d="M 119.41010516605496 108.01547362559984 l 31.96414808893845 13.199711376098993 a55.58235306430007,55.58235306430007 0 0,0 -0.3727961853394917,0.8811800599296606 l -31.732200922406648 -13.747965961694817" fill="#b4ff20" stroke="none" /><path d="M 119.12269723197855 108.67885076344098 l 22.974073936608598 10.426801026303508 a46.22947191058272,46.22947191058272 0 0,0 -0.3351094797562242,0.72179600665605 l -22.791189840012542 -10.820717100238388" fill="#ffb911" stroke="none" /><path d="M 118.81262510543309 109.33194174019688 l 56.43787531629926 27.995825220590632 a84.0,84.0 0 0,0 -0.6536853208549238,1.2897831531892228 l -55.94761132565807 -28.96316258548255" fill="#4dd2ff" stroke="none" /><line stroke="#e1ed5e" stroke-width="0.3" x1="174.80103733775053" x2="179.2010983576182" y1="140.37084112569926" y2="142.7455964860345" /><path d="M 175.68104954172406 140.8457921977663 a86.0,86.0 0 0,1 -30.038265399797805,32.042727171017184" fill="none" id="id53" stroke="none" /><text fill="#e1ed5e" style="font-size:6.75px; font-family:Arial;" text-anchor="middle"><textPath startOffset="22.206326154141568" xlink:href="#id53">May</textPath></text><path d="M 118.48025628344425 109.97397251340804 l 16.899942170793306 9.121061748515036 a40.2042134125921,40.2042134125921 0 0,0 -0.33393158374295673,0.6061828214787166 l -16.74043417759884 -9.410615088391557" fill="#ff5107" stroke="none" /><path d="M 118.30583269289576 110.29060199501025 l 28.628918434941923 16.093712321315625 a53.842389484259876,53.842389484259876 0 0,0 -0.46111648910144043,0.8039954663728974 l -28.3476499496881 -16.58412763354684" fill="#ceff1d" stroke="none" /><path d="M 118.12598468904814 110.60418214915192 l 18.419257172400325 10.775754336051088 a42.339773107836564,42.339773107836564 0 0,0 -0.3734350332461541,0.6258985956635343 l -18.231041263455943 -11.091215025600727" fill="#ff770a" stroke="none" /><path d="M 117.75023020441432 111.22182372390056 l 15.748053576576323 9.956033200455726 a39.63125837240456,39.63125837240456 0 0,0 -0.36950512607449376,0.5734801613002771 l -15.574343587124778 -10.225634961677457" fill="#ff4706" stroke="none" /><path d="M 116.93607887273984 112.41649034213515 l 26.633752928789438 19.526227912614157 a54.02469336068319,54.02469336068319 0 0,0 -0.5562967266428668,0.7452503740499306 l -26.29369493545148 -19.9817911661734" fill="#cbff1d" stroke="none" /><path d="M 116.71984013943494 112.70617746262583 l 21.169971737162964 16.0880376563371 a47.58933355659745,47.58933355659745 0 0,0 -0.5012588645645129,0.6479446528245637 l -20.889906055380383 -16.450060303274917" fill="#ffcf13" stroke="none" /><path d="M 116.498646956653 112.99209946851258 l 19.679598936296962 15.496986362127283 a46.048816351306094,46.048816351306094 0 0,0 -0.4957529784812316,0.6185280661604858 l -19.40992804576088 -15.83344226186602" fill="#ffb610" stroke="none" /><path d="M 116.0416608686014 113.55231037782055 l 28.774913855556218 24.30961275517517 a58.66899175318151,58.66899175318151 0 0,0 -0.6583708267889253,0.7658340099357385 l -28.352200519196515 -24.801323864272437" fill="#88ff25" stroke="none" /><path d="M 115.56566222782051 114.09645910891815 l 23.63267679949652 21.402048770078377 a52.88339856831882,52.88339856831882 0 0,0 -0.6168561160335042,0.6694754833918307 l -23.260774275467295 -21.805675508271545" fill="#dcff1b" stroke="none" /><path d="M 115.32070863581623 114.36230785411682 l 19.125953085953427 17.929511796973355 a47.21582489115874,47.21582489115874 0 0,0 -0.5609542372181963,0.5881582750577927 l -18.814492297356267 -18.256077188613656" fill="#ffc912" stroke="none" /><path d="M 114.81725581225074 114.88116024355365 l 17.67473208540404 17.75096035038515 a46.04980534159411,46.04980534159411 0 0,0 -0.5665223525279164,0.554461359097984 l -17.36655978050033 -18.052571812405706" fill="#ffb610" stroke="none" /><line stroke="#e1ed5e" stroke-width="0.3" x1="143.8653032363475" x2="146.44561519142675" y1="172.8068346515853" y2="177.08958963109032" /><path d="M 144.38136562736335 173.6633856474863 a86.0,86.0 0 0,1 -40.68145358897372,12.25698825130547" fill="none" id="id54" stroke="none" /><text fill="#e1ed5e" style="font-size:6.75px; font-family:Arial;" text-anchor="middle"><textPath startOffset="21.466115282336833" xlink:href="#id54">June</textPath></text><line stroke="#e1ed5e" stroke-width="0.3" x1="102.19456741930631" x2="102.32365962044197" y1="184.97166512339345" y2="189.96999836594603" /><path d="M 102.22038585953345 185.97133177190398 a86.0,86.0 0 0,1 -42.740103519485714,-10.115201625700543" fill="none" id="id55" stroke="none" /><text fill="#e1ed5e" style="font-size:6.75px; font-family:Arial;" text-anchor="middle"><textPath startOffset="22.20632615414155" xlink:href="#id55">July</textPath></text><line stroke="#e1ed5e" stroke-width="0.3" x1="58.666819895761336" x2="56.23545636021788" y1="174.27360380694188" y2="178.64263932499728" /><path d="M 58.180547188652646 175.14741091055294 a86.0,86.0 0 0,1 -31.652253787137756,-30.449443065178592" fill="none" id="id56" stroke="none" /><text fill="#e1ed5e" style="font-size:6.75px; font-family:Arial;" text-anchor="middle"><textPath startOffset="22.20632615414155" xlink:href="#id56">August</textPath></text><line stroke="#e1ed5e" stroke-width="0.3" x1="26.63291911575756" x2="22.317208475507996" y1="142.92168965132927" y2="145.44649492493687" /><path d="M 25.769776987707644 143.4266507060508 a86.0,86.0 0 0,1 -11.730757126820373,-40.83630448921669" fill="none" id="id57" stroke="none" /><text fill="#e1ed5e" style="font-size:6.75px; font-family:Arial;" text-anchor="middle"><textPath startOffset="21.46611528233685" xlink:href="#id57">September</textPath></text><line stroke="#e1ed5e" stroke-width="0.3" x1="15.007084014347285" x2="10.007500721073583" y1="101.09737516637583" y2="101.16192664675087" /><path d="M 14.007167355692545 101.11028546245083 a86.0,86.0 0 0,1 10.666146001902534,-42.60595125391555" fill="none" id="id58" stroke="none" /><text fill="#e1ed5e" style="font-size:6.75px; font-family:Arial;" text-anchor="middle"><textPath startOffset="22.20632615414155" xlink:href="#id58">October</textPath></text><line stroke="#e1ed5e" stroke-width="0.3" x1="26.266209847984243" x2="21.928928074336255" y1="57.711370442889674" y2="55.22380399835377" /><path d="M 25.398753493254645 57.213857153982495 a86.0,86.0 0 0,1 29.58750427330803,-30.492523968695096" fill="none" id="id59" stroke="none" /><text fill="#e1ed5e" style="font-size:6.75px; font-family:Arial;" text-anchor="middle"><textPath startOffset="21.46611528233685" xlink:href="#id59">November</textPath></text><line stroke="#e1ed5e" stroke-width="0.3" x1="56.762969772571076" x2="54.21961505331055" y1="26.818313649435495" y2="22.513508569990535" /><path d="M 56.25429882871897 25.957352633546506 a86.0,86.0 0 0,1 42.265352541879196,-11.944610805530505" fill="none" id="id60" stroke="none" /><text fill="#e1ed5e" style="font-size:6.75px; font-family:Arial;" text-anchor="middle"><textPath startOffset="22.20632615414155" xlink:href="#id60">December</textPath></text></svg>