<?xml version="1.0" encoding="utf-8" ?>
<svg baseProfile="full" height="200mm" version="1.1" viewBox="0,0,200,200" width="200mm" xmlns="http://www.w3.org/2000/svg" xmlns:ev="http://www.w3.org/2001/xml-events" xmlns:xlink="http://www.w3.org/1999/xlink"><defs /><rect fill="#1a1a1a" height="200" width="200" x="0" y="0" /><text alignment-baseline="middle" fill="#e1ed5e" style="dominant-baseline: central; font-size:9.0px; font-family:Arial;" text-anchor="middle" x="100.0" y="100.0">2024</text><line stroke="#e1ed5e" stroke-width="0.3" x1="100.0" x2="100.0" y1="15.0" y2="10.0" /><path d="M 100.0 14.0 a86.0,86.0 0 0,1 42.35913384403234,11.155469271406648" fill="none" id="id85" stroke="none" /><text fill="#e1ed5e" style="font-size:6.75px; font-family:Arial;" text-anchor="middle"><textPath startOffset="22.145653131862478" xlink:href="#id85">January</textPath></text><path d="M 100.0 79.0 l 0.0 -24.58152334416195 a45.58152334416195,45.58152334416195 0 0,0 0.7824674604477759,0.006716542073131785 l -0.4219745355989211 24.577901200283254" fill="#deff1b" stroke="none" /><path d="M 100.72087961077811 79.0123766808444 l 0.9019614590892017 -26.25962375510549 a47.275109404784274,47.275109404784274 0 0,0 0.8108226939228775,0.03482021523237418 l -1.3526099136129155 26.240270971447288" fill="#c9ff1d" stroke="none" /><path d="M 101.08105385017728 79.02784411241856 l 1.2642445240514242 -24.52600602095795 a45.55856847531345,45.55856847531345 0 0,0 0.7806908654572142,0.04696442383947073 l -1.6850797416411007 24.500689619293787" fill="#deff1b" stroke="none" /><path d="M 101.80034050326958 79.07731436759882 l 5.38494660946543 -62.58124218862786 a83.81249496603752,83.81249496603752 0 0,0 1.4323971922429652,0.13564950336315446 l -6.458443365093408 62.47958092975952" fill="#4dd4ff" stroke="none" /><path d="M 102.51750503828377 79.15144685158666 l 2.0698310028102 -17.1411699337612 a38.26568582704647,38.26568582704647 0 0,0 0.6514681592251579,0.08434559605862245 l -2.363776983926149 17.103112741502184" fill="#ffc212" stroke="none" /><path d="M 102.87502721639298 79.19773525538626 l 2.5669913427849886 -18.573470611085114 a39.750020135849866,39.750020135849866 0 0,0 0.6751349635260364,0.09922159008900296 l -2.8854514119187074 18.526667947697227" fill="#ffd614" stroke="none" /><path d="M 103.58742460773223 79.30868818359171 l 4.872493380628097 -28.10324700473443 a49.52251188015143,49.52251188015143 0 0,0 0.8363768986283341,0.15241573211046716 l -5.354205012807484 28.015463098692596" fill="#aeff20" stroke="none" /><path d="M 103.94208987418118 79.37332000966035 l 3.2743375363391563 -17.1327175934703 a38.44280076247752,38.44280076247752 0 0,0 0.6471269131223338,0.12944350647068018 l -3.567960934992447 17.07398469033676" fill="#ffc512" stroke="none" /><path d="M 104.64783097203109 79.52079915486377 l 7.089373237840766 -31.237086563074755 a53.03146562139232,53.03146562139232 0 0,0 0.8860493393616788,0.20910523150208551 l -7.62455473094233 31.11078518792644" fill="#86ff25" stroke="none" /><path d="M 104.9986988182912 79.60360301121754 l 4.139255984443189 -16.889576941096397 a38.38940048862996,38.38940048862996 0 0,0 0.6387168250941793,0.16235931925622532 l -4.428578102762762 16.816032390004906" fill="#ffc412" stroke="none" /><path d="M 105.3480935250658 79.69241777938227 l 6.511641136606359 -24.72576202211484 a46.56882433484576,46.56882433484576 0 0,0 0.7713096781078304,0.21022388263007763 l -6.935132215648882 24.610337645340618" fill="#d2ff1c" stroke="none" /><path d="M 106.04205211174951 79.88797359093562 l 6.455864631873892 -21.489473703330322 a43.43826348430746,43.43826348430746 0 0,0 0.7123034725053093,0.2206734365838029 l -6.823808737250832 21.375483678939872" fill="#f8ff18" stroke="none" /><path d="M 106.38641147887787 79.99465700312896 l 4.803458137199417 -15.04676419983353 a36.79488280935377,36.79488280935377 0 0,0 0.6000671777676012,0.19725400018084022 l -5.061048052614761 14.96208927825067" fill="#ffaf10" stroke="none" /><path d="M 106.72888874123014 80.10723608172694 l 18.120453560305712 -53.569901157452314 a77.55161489515933,77.55161489515933 0 0,0 1.2574227257328254,0.4373968964295104 l -19.037382058083555 53.25094582845421" fill="#45ffec" stroke="none" /><path d="M 107.40779381753099 80.34994680014964 l 7.081710989599293 -18.78507975779105 a41.07560340430101,41.07560340430101 0 0,0 0.6576551047305408,0.2543951225505222 l -7.4031383568233595 18.660744747102488" fill="#ffe715" stroke="none" /><path d="M 107.74402155503746 80.48000691201159 l 7.007248128628206 -17.66284275741282 a40.00204043278653,40.00204043278653 0 0,0 0.636119187895653,0.2587041358858457 l -7.309421777714299 17.539951364947683" fill="#ffd914" stroke="none" /><path d="M 108.4095320186766 80.7573450057729 l 11.031517593208992 -25.242271108240917 a48.547534029586274,48.547534029586274 0 0,0 0.7607782273117606,0.3402864243681613 l -11.463209223376385 25.049180932962905" fill="#baff1f" stroke="none" /><path d="M 108.73861861582097 80.90454125486305 l 7.833214754770647 -17.116987909360606 a39.82420060676027,39.82420060676027 0 0,0 0.619192902816785,0.289813543400769 l -8.125896371458937 16.979998134389305" fill="#ffd714" stroke="none" /><line stroke="#e1ed5e" stroke-width="0.3" x1="143.13028292997686" x2="145.6673583964461" y1="26.7553504044142" y2="22.446841604673864" /><path d="M 143.63769802327073 25.89364864446614 a86.0,86.0 0 0,1 29.32050498858742,28.57503671076993" fill="none" id="id86" stroke="none" /><text fill="#e1ed5e" style="font-size:6.75px; font-family:Arial;" text-anchor="middle"><textPath startOffset="20.669276256404974" xlink:href="#id86">February</textPath></text><path d="M 111.27062007382361 82.28071324371311 l 10.217515715510986 -16.063631789034837 a40.0378017021505,40.0378017021505 0 0,0 0.5767623937021608,0.3738504153521885 l -10.491763741470155 15.885867531978754" fill="#ffda14" stroke="none" /><path d="M 111.8722381534696 82.67804972795209 l 11.407145891007278 -16.643366761664726 a41.17732971782962,41.17732971782962 0 0,0 0.5796295617593817,0.40462645040836964 l -11.691170543940421 16.44509549545123" fill="#ffe915" stroke="none" /><path d="M 112.16784306229584 82.88440491214696 l 10.904198870058748 -15.338121280973876 a39.819126372593765,39.819126372593765 0 0,0 0.5537114786245771,0.4008444095125895 l -11.165891359057293 15.148676100088213" fill="#ffd714" stroke="none" /><path d="M 112.7482090630111 83.31218511350987 l 20.147117463116547 -26.373223490378578 a54.18814938115821,54.18814938115821 0 0,0 0.7343527824999266,0.5710371653650383 l -20.5968801902517 26.023485273392748" fill="#79ff26" stroke="none" /><path d="M 113.03279911837588 83.53348406188908 l 15.574187198629579 -19.677476756912952 a46.094987515773084,46.094987515773084 0 0,0 0.6162443921684392,0.49640286067922046 l -15.909682361153276 19.407225602440324" fill="#d7ff1c" stroke="none" /><path d="M 113.59037401385872 83.9905735841838 l 9.96678162215918 -11.7408436897876 a36.400783955754825,36.400783955754825 0 0,0 0.47289908646898865,0.40847896771703357 l -10.166860188391029 11.568020589605846" fill="#ffa90f" stroke="none" /><path d="M 114.13192950727249 84.46653392183569 l 19.169805815287543 -21.070974646705345 a49.486267350390634,49.486267350390634 0 0,0 0.6234568128433867,0.5770623182980726 l -19.528692399444893 20.7387945822749" fill="#afff20" stroke="none" /><path d="M 115.41159269507618 85.73525988315684 l 10.463999094965464 -9.685321343864292 a35.258356377694845,35.258356377694845 0 0,0 0.4073218248459629,0.44771803778703495 l -10.628718620653304 9.504265730519585" fill="#ff9a0e" stroke="none" /><path d="M 116.1254893667686 86.54754324733833 l 19.34416744870568 -16.13759248486646 a46.191639595135186,46.191639595135186 0 0,0 0.5027260073357667,0.6132439868442445 l -19.618340275280072 15.803146216323718" fill="#d6ff1c" stroke="none" /><path d="M 116.35404254752997 86.82634096563983 l 13.979928005518882 -11.261240414066563 a38.95143233012055,38.95143233012055 0 0,0 0.41498776127817305,0.5243234797943853 l -14.171182197438615 11.019596990357499" fill="#ffcc13" stroke="none" /><path d="M 116.7966241395341 87.39550010848427 l 13.350767987746082 -10.018665194580274 a37.69181410583403,37.69181410583403 0 0,0 0.3839144245457032,0.520853649796355 l -13.520784431875612 9.788005235515044" fill="#ffbb11" stroke="none" /><path d="M 117.01052211995028 87.68569379921539 l 27.131798765648945 -19.641329961672426 a54.49501973313287,54.49501973313287 0 0,0 0.5420565155982529,0.7624703727861621 l -27.46497037977716 19.172682362176758" fill="#76ff27" stroke="none" /><path d="M 117.21940702142032 87.97951657250589 l 13.932497364078529 -9.72596521240122 a37.991435551856526,37.991435551856526 0 0,0 0.3687164037422617,0.5379682522831898 l -14.097403504636116 9.485362225047982" fill="#ffbf11" stroke="none" /><path d="M 117.42321728460499 88.27688183743584 l 15.295642707525902 -10.291591036468795 a39.435659247724644,39.435659247724644 0 0,0 0.3730905584558485,0.5649066577466644 l -15.470057704902475 10.027504500383072" fill="#ffd213" stroke="none" /><path d="M 117.81537515405839 88.88188828441811 l 11.545497909346835 -7.205244596765825 a34.60933766477837,34.60933766477837 0 0,0 0.31021838464245455,0.5067184174967537 l -11.667484258444691 7.005989063144517" fill="#ff910d" stroke="none" /><line stroke="#e1ed5e" stroke-width="0.3" x1="172.87174338648825" x2="177.1583165268699" y1="56.24261187166439" y2="53.66864786411523" /><path d="M 173.72905801456457 55.72781907015455 a86.0,86.0 0 0,1 12.242430191666344,42.057860355516425" fill="none" id="id87" stroke="none" /><text fill="#e1ed5e" style="font-size:6.75px; font-family:Arial;" text-anchor="middle"><textPath startOffset="22.145653131862474" xlink:href="#id87">March</textPath></text><path d="M 118.18653347947321 89.5 l 30.460206262508873 -17.586208285231027 a56.17241657046205,56.17241657046205 0 0,0 0.4749689042397355,0.8392245431502183 l -30.757608531769986 17.06072697198169" fill="#63ff29" stroke="none" /><path d="M 118.53625476483649 90.13048839642627 l 21.766692806862523 -11.589537905806255 a45.65981152844524,45.65981152844524 0 0,0 0.362434388281744,0.6950157282956221 l -21.96243526411921 11.214175934406136" fill="#ddff1b" stroke="none" /><path d="M 118.70294669586156 90.45014215332178 l 21.897444911276022 -11.180991397169807 a45.586839208526854,45.586839208526854 0 0,0 0.3498900333349024,0.7000144487112009 l -22.086154857822663 10.803445092294856" fill="#deff1b" stroke="none" /><path d="M 119.0197475246899 91.09779779509293 l 22.52134075341643 -10.541124641758152 a45.86616371788332,45.86616371788332 0 0,0 0.3276493854849567,0.715973038584155 l -22.698974603756437 10.152962620959313" fill="#daff1c" stroke="none" /><path d="M 119.16976305983485 91.42560881287824 l 10.923564457063778 -4.88597143951403 a32.966493945821135,32.966493945821135 0 0,0 0.2266307025937737,0.5185753988956927 l -11.005829041674522 4.697733970842489" fill="#ff7a0b" stroke="none" /><path d="M 119.31412917781788 91.75594674310238 l 46.86166622970325 -20.002458746539336 a71.95207667731628,71.95207667731628 0 0,0 0.47513778414633523,1.1401577141142525 l -47.19812985838607 19.195068522983807" fill="#3dffb0" stroke="none" /><path d="M 119.58574465831526 92.42381321644754 l 24.617827254310434 -9.522704433129643 a47.395441243590085,47.395441243590085 0 0,0 0.2870117072981052,0.7613326526503329 l -24.77766964542298 9.098703500285152" fill="#c8ff1d" stroke="none" /><path d="M 119.71291397450082 92.76114493625339 l 22.835857382087845 -8.385643140286057 a45.326845115042815,45.326845115042815 0 0,0 0.26194562931457704,0.7327085454330208 l -22.976443181446367 7.9923996384721185" fill="#e1ff1b" stroke="none" /><path d="M 119.94978838288452 93.4421083053983 l 25.551252578067366 -8.399204234774459 a47.896340644884155,47.896340644884155 0 0,0 0.2500537580871992,0.7832898357294791 l -25.691671051931824 7.959345365353593" fill="#c2ff1e" stroke="none" /><path d="M 120.05942366710727 93.78553927170692 l 11.975459541913565 -3.7100279779482106 a33.53698284425592,33.53698284425592 0 0,0 0.16564663221816384,0.5513837650068854 l -12.037382494135358 3.5039066093506017" fill="#ff820b" stroke="none" /><path d="M 120.16314734710363 94.1308016681162 l 54.25139365541303 -15.79179002480782 a77.50304722527989,77.50304722527989 0 0,0 0.36087451554774985,1.2806163457401278 l -54.51448666303536 14.85816575516468" fill="#45ffec" stroke="none" /><path d="M 120.35273937422433 94.82641323984039 l 23.540043822095306 -5.983787086951326 a45.28866754369479,45.28866754369479 0 0,0 0.18506345631932442,0.7551220548421499 l -23.63929480493092 5.578809207501081" fill="#e1ff1b" stroke="none" /><path d="M 120.43855184770803 95.1765574152323 l 24.03767289286917 -5.672825351527213 a45.69798909979327,45.69798909979327 0 0,0 0.17362872280093603,0.7650401893102827 l -24.131512477227773 5.259350828277904" fill="#dcff1b" stroke="none" /><path d="M 120.592083275326 95.88100663000786 l 25.29203718774608 -5.059115782362307 a46.79305715896582,46.79305715896582 0 0,0 0.15079331778096086,0.7890143578209189 l -25.375156797809197 4.624198859508073" fill="#cfff1d" stroke="none" /><path d="M 120.65975698304385 96.23510406497455 l 15.49143029434011 -2.823054646323254 a36.74655676967272,36.74655676967272 0 0,0 0.10776397167582225,0.6215539514650815 l -15.537609083508167 2.5567076619375797" fill="#ffae10" stroke="none" /><path d="M 120.77682067341334 96.94652285012252 l 50.95396755042967 -7.488478533673319 a72.50130211829139,72.50130211829139 0 0,0 0.1703969912583269,1.2329077455790358 l -51.075009058243204 6.612682479894197" fill="#3effb6" stroke="none" /><path d="M 120.86939407059847 97.66154086499901 l 25.860042292705767 -2.8976716777841465 a47.02188095685558,47.02188095685558 0 0,0 0.08299945848012111,0.8029444697561313 l -25.905974143667553 2.453322685745084" fill="#ccff1d" stroke="none" /><path d="M 120.9064616781168 98.02013634271609 l 26.311066958037447 -2.491685396439324 a47.42878621097002,47.42878621097002 0 0,0 0.069802474363068,0.8112105597857073 l -26.349963055098257 2.0396537892779545" fill="#c7ff1e" stroke="none" /><path d="M 120.96210409425399 98.7389718711861 l 24.992780109048393 -1.5035035888124406 a46.03796278894944,46.03796278894944 0 0,0 0.040685305429540686,0.7892840561663941 l -25.014907003934507 1.074247739269316" fill="#d8ff1c" stroke="none" /><path d="M 120.98066250479742 99.09900007780936 l 49.50523508159395 -2.1259678023201802 a70.55086315676431,70.55086315676431 0 0,0 0.04157566734321397,1.210430191665534 l -49.534435435934014 1.2758313460905262" fill="#3cffa0" stroke="none" /><line stroke="#e1ed5e" stroke-width="0.3" x1="184.99686870605535" x2="189.99668451229388" y1="99.2704041080226" y2="99.22748670261217" /><path d="M 185.99683186730306 99.26182062694052 a86.0,86.0 0 0,1 -10.086455211305974,41.156179273409016" fill="none" id="id88" stroke="none" /><text fill="#e1ed5e" style="font-size:6.75px; font-family:Arial;" text-anchor="middle"><textPath startOffset="21.40746469413373" xlink:href="#id88">April</textPath></text><path d="M 120.99922638620191 99.81974689727618 l 31.101734977600827 -0.26697098867844254 a52.10288076892098,52.10288076892098 0 0,0 0.0,0.894448182804535 l -31.101734977600827 -0.2669709886784387" fill="#90ff24" stroke="none" /><path d="M 120.99922638620191 100.18025310272382 l 31.421399953598268 0.2697149280358208 a52.42255752141112,52.42255752141112 0 0,0 -0.015448599190190246,0.8998034538753052 l -31.41213992280941 -0.8090652978801972" fill="#8dff24" stroke="none" /><path d="M 120.99303781780057 100.54070618675476 l 12.29755663936937 0.3167414365936047 a33.30163503100921,33.30163503100921 0 0,0 -0.01962467414407351,0.5713509753069036 l -12.29030727822845 -0.527798676464619" fill="#ff7e0b" stroke="none" /><path d="M 120.98066250479742 100.90099992219065 l 17.253408127418183 0.7409355818374479 a38.26931028002255,38.26931028002255 0 0,0 -0.03381988435192678,0.6560967213726651 l -17.238146653609682 -1.0370040965868437" fill="#ffc312" stroke="none" /><path d="M 120.96210409425399 101.26102812881392 l 20.337250422355044 1.2234384835610197 a41.37401669933149,41.37401669933149 0 0,0 -0.04873472780151753,0.7085922464315513 l -20.31325173338846 -1.5723741541469143" fill="#ffeb16" stroke="none" /><path d="M 120.86939407059847 102.33845913500097 l 13.553992248444905 1.5187531023606546 a34.63881654898381,34.63881654898381 0 0,0 -0.07128654217530082,0.5903548317510181 l -13.52592362000994 -1.7512016110350814" fill="#ff910d" stroke="none" /><path d="M 120.82617615685814 102.69636545807757 l 24.501463590666255 3.1722049982018605 a45.70596289634065,45.70596289634065 0 0,0 -0.10742094738373893,0.7772444635836357 l -24.443398126727306 -3.592337769985581" fill="#dcff1b" stroke="none" /><path d="M 120.7213421655516 103.40968896794604 l 33.07583315933952 5.442615759538637 a54.52063253416382,54.52063253416382 0 0,0 -0.1598887192883479,0.9221956440814975 l -32.97752962255894 -6.009604436540723" fill="#75ff27" stroke="none" /><path d="M 120.65975698304385 103.76489593502545 l 16.69117938431578 3.041688896261771 a37.96606438102397,37.96606438102397 0 0,0 -0.12234782591038766,0.6401755244333632 l -16.636505266123233 -3.327766985728449" fill="#ffbe11" stroke="none" /><path d="M 120.592083275326 104.11899336999214 l 50.3383710932737 10.069084026959167 a72.33554380218541,72.33554380218541 0 0,0 -0.2540089804160765,1.215524923576901 l -50.15810440203326 -10.931725401821478" fill="#3effb4" stroke="none" /><path d="M 120.43855184770803 104.8234425847677 l 19.122853731227192 4.512941411738465 a40.64815958332214,40.64815958332214 0 0,0 -0.16610091030500976,0.6777483961190812 l -19.042565294405886 -4.840545632465646" fill="#ffe215" stroke="none" /><path d="M 120.26092885502905 105.52220625578681 l 30.63093055379315 8.348596332134209 a52.748275028861386,52.748275028861386 0 0,0 -0.2456098034660409,0.8715825458476051 l -30.48310225825253 -8.873186801884822" fill="#89ff24" stroke="none" /><path d="M 120.16314734710363 105.8691983318838 l 16.68297461252344 4.856170769428393 a38.375385937122445,38.375385937122445 0 0,0 -0.1895445833656809,0.6309322719896069 l -16.59715370915413 -5.141840645008723" fill="#ffc412" stroke="none" /><path d="M 119.94978838288452 106.5578916946017 l 16.57300996194377 5.447877556296545 a38.44545869465997,38.44545869465997 0 0,0 -0.21147671207479532,0.6251933222999623 l -16.477047828296612 -5.731572553070668" fill="#ffc512" stroke="none" /><path d="M 119.83427380445688 106.89939002012753 l 48.52900121054731 16.88090574627293 a72.381211909684,72.381211909684 0 0,0 -0.41829388425583625,1.170042440862983 l -48.23206715624753 -17.711483143516833" fill="#3effb5" stroke="none" /><path d="M 119.58574465831526 107.57618678355244 l 3.436251063939853 1.3292157306123342 a24.68437726528311,24.68437726528311 0 0,0 -0.1562654200610862,0.3938909386815711 l -3.4129269689126422 -1.3880076865074695" fill="#ff0000" stroke="none" /><path d="M 119.4528033332814 107.91128576633889 l 28.459710394625027 11.574316457202565 a51.723279727226355,51.723279727226355 0 0,0 -0.3415562920941064,0.8196107618236164 l -28.256828257994435 -12.06115972846746" fill="#95ff23" stroke="none" /><path d="M 119.31412917781788 108.2440532568976 l 24.731558366869262 10.556431637451501 a47.89029988992402,47.89029988992402 0 0,0 -0.32922555638817463,0.7533325020691235 l -24.54669892846412 -10.979426209296468" fill="#c2ff1e" stroke="none" /><path d="M 119.16976305983485 108.57439118712176 l 14.388295708407734 6.435701658637821 a36.76202110237066,36.76202110237066 0 0,0 -0.2626130604134217,0.5738569311149149 l -14.275698183139255 -6.681747571967424" fill="#ffae10" stroke="none" /><path d="M 119.0197475246899 108.90220220490707 l 33.902375889762965 15.868023747720958 a58.43214218594786,58.43214218594786 0 0,0 -0.43301206314138746,0.9048286722106904 l -33.62498456866167 -16.44766492199675" fill="#4bff2c" stroke="none" /><path d="M 118.70294669586154 109.54985784667822 l 14.078158584928026 7.188408084315624 a36.80720594947244,36.80720594947244 0 0,0 -0.2921649635882999,0.5602648410750076 l -13.952685552364777 -7.429019168495134" fill="#ffaf10" stroke="none" /><line stroke="#e1ed5e" stroke-width="0.3" x1="174.33088141563837" x2="178.70328620479359" y1="141.23008692659167" y2="143.65538615756765" /><path d="M 175.20536237346943 141.71514677278685 a86.0,86.0 0 0,1 -30.301960400862466,31.631185727798858" fill="none" id="id89" stroke="none" /><text fill="#e1ed5e" style="font-size:6.75px; font-family:Arial;" text-anchor="middle"><textPath startOffset="22.145653131862474" xlink:href="#id89">May</textPath></text><path d="M 118.36410011445183 110.18625677009912 l 24.24446628145034 13.447996757680226 a48.724407334818906,48.724407334818906 0 0,0 -0.41199185960816503,0.727950139630099 l -24.010041056820796 -13.862203667409448" fill="#b8ff1f" stroke="none" /><path d="M 118.18653347947321 110.5 l 22.809528541085257 13.169087443284019 a47.33817488656805,47.33817488656805 0 0,0 -0.4123522238680099,0.7002642249346667 l -22.580102607087483 -13.558702836512234" fill="#c8ff1d" stroke="none" /><path d="M 117.81537515405839 111.11811171558189 l 46.76805023729895 29.186722298114777 a76.12817139635405,76.12817139635405 0 0,0 -0.7014025873364991,1.102721367166151 l -46.26012995833656 -29.9852573399596" fill="#43ffdd" stroke="none" /><path d="M 117.423217284605 111.72311816256416 l 15.559066885641553 10.46883457975254 a39.75316132842914,39.75316132842914 0 0,0 -0.38581439394143674,0.56291473096341 l -15.377062754884795 -10.734384045785996" fill="#ffd614" stroke="none" /><path d="M 117.21940702142032 112.02048342749411 l 26.280351469938914 18.345726360968754 a53.05031277686794,53.05031277686794 0 0,0 -0.527686159873849,0.7422566678108368 l -25.961550211535105 -18.794160255489096" fill="#86ff25" stroke="none" /><path d="M 116.79662413953412 112.60449989151573 l 19.27976133354913 14.467892334698014 a45.10454533251,45.10454533251 0 0,0 -0.4700495503977596,0.6153099502639483 l -19.028559805797062 -14.796723198202839" fill="#e4ff1b" stroke="none" /><path d="M 116.35404254752997 113.17365903436017 l 4.487170570842518 3.6145469817322105 a26.761913711171367,26.761913711171367 0 0,0 -0.2912628810452191,0.3552933561931617 l -4.424460870558671 -3.691042619623865" fill="#ff2003" stroke="none" /><path d="M 116.1254893667686 113.45245675266167 l 22.267213517429205 18.576101477131584 a49.998281740811336,49.998281740811336 0 0,0 -0.5554700450206789,0.6543423163247981 l -21.945048908901413 -18.95561057590594" fill="#a9ff21" stroke="none" /><path d="M 115.89218393027572 113.72728997021213 l 4.053061878209495 3.500938317445527 a26.35573334765216,26.35573334765216 0 0,0 -0.2986844256189983,0.3398480476106509 l -3.9923663886319116 -3.569998642867471" fill="#ff1902" stroke="none" /><path d="M 115.6541949942343 113.99807769240083 l 11.81463065777275 10.564715586808301 a36.84924960399495,36.84924960399495 0 0,0 -0.4257006036276487,0.46791953515627605 l -11.63153235330322 -10.76597269752225" fill="#ffaf10" stroke="none" /><path d="M 115.16444852881244 114.52719865689866 l 13.774732259630861 13.19588190767653 a40.07549601310173,40.07549601310173 0 0,0 -0.4801677974916477,0.4926944607006062 l -13.546177660988407 -13.430399060444874" fill="#ffda14" stroke="none" /><path d="M 114.91283532996324 114.78537596483092 l 12.565368850928113 12.457973181294793 a38.69433779901737,38.69433779901737 0 0,0 -0.47171729151280756,0.4676855440169188 l -12.34965963928534 -12.671838735540375" fill="#ffc812" stroke="none" /><path d="M 114.65682725009322 115.03919595460226 l 8.7867097260108 9.015938245764993 a33.58941659730985,33.58941659730985 0 0,0 -0.41639282495295715,0.3988949071181663 l -8.63064441519253 -9.165445283188738" fill="#ff820c" stroke="none" /><path d="M 114.39649973595853 115.28858382429668 l 11.682396018990694 12.406299731236532 a38.0409697425296,38.0409697425296 0 0,0 -0.47926228877235755,0.4435980195171714 l -11.46770395890437 -12.605015496886082" fill="#ffbf11" stroke="none" /><path d="M 113.86319453409587 115.77377054828091 l 19.743363918881073 22.4643239003606 a50.90729454721185,50.90729454721185 0 0,0 -0.6613597420112325,0.571266793352255 l -19.354824697106984 -22.799934826177573" fill="#9eff22" stroke="none" /><path d="M 113.59037401385872 116.0094264158162 l 7.319064496684196 8.62183957356808 a32.309501436357294,32.309501436357294 0 0,0 -0.4259094880008008,0.355308842886126 l -7.169980674521501 -8.746210600366076" fill="#ff700a" stroke="none" /><path d="M 113.31354834802062 116.24036423190432 l 2.8102402622390095 3.4280361812566085 a25.43270598974414,25.43270598974414 0 0,0 -0.34001012449533435,0.27388808823958866 l -2.750979367388423 -3.475772563289601" fill="#ff0b01" stroke="none" /><path d="M 113.03279911837588 116.46651593811092 l 4.490192161227123 5.673211112705399 a28.23513303084812,28.23513303084812 0 0,0 -0.3826399082133664,0.29754310700350933 l -4.392142308378525 -5.749455271329701" fill="#ff3505" stroke="none" /><path d="M 112.45986205192187 116.90419585922612 l 37.379586155765615 50.71258757767834 a84.0,84.0 0 0,0 -1.1680759585041285,0.8455969145076918 l -36.50352918688752 -51.346785263559106" fill="#4dd2ff" stroke="none" /><path d="M 111.27062007382361 117.71928675628689 l 7.016185670033777 11.030609230757493 a34.07291862431874,34.07291862431874 0 0,0 -0.4962247977212224,0.3096809744053993 l -6.825796743522839 -11.149426002004441" fill="#ff890c" stroke="none" /><path d="M 110.96478420261333 117.91015095944535 l 6.48301187480666 10.58951268023955 a33.4164093752517,33.4164093752517 0 0,0 -0.4918055967312989,0.2953151301146108 l -6.300273521517925 -10.699241810890085" fill="#ff800b" stroke="none" /><line stroke="#e1ed5e" stroke-width="0.3" x1="143.1302829299769" x2="145.66735839644613" y1="173.24464959558577" y2="177.55315839532614" /><path d="M 143.63769802327073 174.10635135553383 a86.0,86.0 0 0,1 -40.68552437913181,11.842963189579606" fill="none" id="id90" stroke="none" /><text fill="#e1ed5e" style="font-size:6.75px; font-family:Arial;" text-anchor="middle"><textPath startOffset="21.407464694133747" xlink:href="#id90">June</textPath></text><path d="M 110.65571695917076 118.09573695890943 l 2.8539187086049234 4.846577893435726 a26.624426128278785,26.624426128278785 0 0,0 -0.3958260179115735,0.22853025799350546 l -2.7703002228329514 -4.894855048705404" fill="#ff1d03" stroke="none" /><path d="M 109.3889696526874 118.78422872680471 l 6.719658741837025 13.443818804612986 a36.02963997100438,36.02963997100438 0 0,0 -0.5556109346374971,0.2717771501501898 l -6.487887557937458 -13.5571897048604" fill="#ffa40f" stroke="none" /><path d="M 108.07796709384702 119.3841803445677 l 3.775030397653466 9.058698702805788 a30.813810508228848,30.813810508228848 0 0,0 -0.4900064072831494,0.1992813400175439 l -3.6189695291798754 -9.122167299402623" fill="#ff5b08" stroke="none" /><path d="M 107.407793817531 119.65005319985036 l 4.9342863750891075 13.08878083841081 a34.98797218567938,34.98797218567938 0 0,0 -0.5638242547265508,0.20704407611527761 l -4.708872968708429 -13.17155576353481" fill="#ff960d" stroke="none" /><path d="M 106.72888874123015 119.89276391827305 l 4.065143923671191 12.017875681595752 a33.68679356726716,33.68679356726716 0 0,0 -0.5493790875401702,0.18059181812968203 l -3.858242098483286 -12.085888421127454" fill="#ff840c" stroke="none" /><path d="M 106.38641147887787 120.00534299687104 l 7.370818625473091 23.088984362815175 a45.236958681236075,45.236958681236075 0 0,0 -0.7417985934420445,0.2298111004459098 l -6.973379399159422 -23.21211205106773" fill="#e2ff1b" stroke="none" /><path d="M 106.0420521117495 120.11202640906438 l 1.0588057369369528 3.5244199403601124 a24.680027921711815,24.680027921711815 0 0,0 -0.4067973599639489,0.11841278275725621 l -0.998148364591397 -3.542076417419887" fill="#ff0000" stroke="none" /><path d="M 105.69591212413111 120.21278271476187 l 4.90331372588772 17.40013061363666 a39.07780492388649,39.07780492388649 0 0,0 -0.647237493484451,0.17640745698647867 l -4.603894831468574 -17.48173856476728" fill="#ffcd13" stroke="none" /><path d="M 105.3480935250658 120.30758222061773 l 3.4251682823777303 13.00592186502234 a34.4493784734341,34.4493784734341 0 0,0 -0.5731633566806104,0.1456958839303376 l -3.2013996324717224 -13.062802980787948" fill="#ff8e0d" stroke="none" /><path d="M 104.29559338865022 120.5559693870025 l 3.55436879700382 17.008941389651838 a38.37635245791607,38.37635245791607 0 0,0 -0.6460083555417125,0.1292197636275202 l -3.261863955931149 -17.067450549942222" fill="#ffc412" stroke="none" /><path d="M 103.94208987418118 120.62667999033965 l 7.406857404749251 38.75580778167181 a60.45724487878218,60.45724487878218 0 0,0 -1.0210516601762984,0.18606962550449557 l -6.740471011021895 -38.87724558110767" fill="#36ff2e" stroke="none" /><path d="M 102.875027216393 120.80226474461374 l 2.556008570989274 18.4940047454329 a39.66979890997933,39.66979890997933 0 0,0 -0.6753729957833693,0.08744055574258407 l -2.2381577533151296 -18.53515689737588" fill="#ffd513" stroke="none" /><path d="M 102.51750503828377 120.84855314841334 l 1.6780824270351613 13.89692975204983 a34.997879023814,34.997879023814 0 0,0 -0.5970706463976677,0.06690301129905 l -1.4392758790366944 -13.923688523855851" fill="#ff960d" stroke="none" /><path d="M 102.15924093988457 120.88869738790638 l 1.2936116495431218 12.514519239442205 a33.58120117056407,33.58120117056407 0 0,0 -0.573919417246242,0.05435076551498776 l -1.0785926689118646 -12.534881760462376" fill="#ff820c" stroke="none" /><path d="M 101.80034050326958 120.92268563240118 l 1.582466220394775 18.390656208136317 a39.458614116573145,39.458614116573145 0 0,0 -0.6753642541283789,0.05227746457159826 l -1.2665329714911604 -18.41511143970297" fill="#ffd213" stroke="none" /><path d="M 101.44090949804482 120.95050786540614 l 1.5101174098766996 21.956775714392933 a43.00864499154294,43.00864499154294 0 0,0 -0.7369954193969758,0.04433581430985152 l -1.1329776383472587 -21.979463506527477" fill="#feff18" stroke="none" /><path d="M 101.08105385017728 120.97215588758144 l 1.380957988332887 26.79021604776559 a47.82578462694982,47.82578462694982 0 0,0 -0.8202674096038185,0.035225811961823505 l -0.920864818128239 -26.809974428153243" fill="#c2ff1e" stroke="none" /><path d="M 100.72087961077811 120.9876233191556 l 0.4431381995001005 12.901485172258033 a33.90909334979998,33.90909334979998 0 0,0 -0.5819231321523902,0.014988275660788065 l -0.22160175327696646 -12.907191165268866" fill="#ff870c" stroke="none" /><line stroke="#e1ed5e" stroke-width="0.3" x1="101.45913802915013" x2="101.54496967792366" y1="184.9874750549273" y2="189.98673829345242" /><path d="M 101.47630435890484 185.9873277026323 a86.0,86.0 0 0,1 -42.54439059252881,-10.42667462771756" fill="none" id="id91" stroke="none" /><text fill="#e1ed5e" style="font-size:6.75px; font-family:Arial;" text-anchor="middle"><textPath startOffset="22.145653131862474" xlink:href="#id91">July</textPath></text><path d="M 99.63950707515114 120.99690560180557 l -0.31334093862514484 18.25053879282622 a39.25322844792869,39.25322844792869 0 0,0 -0.6736352815415723,-0.017350455303658713 l 0.626589534237461 -18.242470620172515" fill="#ffd013" stroke="none" /><path d="M 99.27912038922189 120.98762331915562 l -0.614421378155727 17.888208032475696 a38.898756946868204,38.898756946868204 0 0,0 -0.6671585808052902,-0.028650660066476603 l 0.921405719561856 -17.87502480398339" fill="#ffcb12" stroke="none" /><path d="M 98.91894614982273 120.97215588758144 l -1.1169937524257183 21.66938038977933 a42.6981501865922,42.6981501865922 0 0,0 -0.7316747856258211,-0.04401573819447573 l 1.4888128901839857 -21.647012673760166" fill="#fffc17" stroke="none" /><path d="M 98.55909050195518 120.95050786540614 l -1.6946128924763706 24.6392995401995 a45.69750583939646,45.69750583939646 0 0,0 -0.7821476409580376,-0.06054317405755166 l 2.1173295282096443 -24.606578599146893" fill="#dcff1b" stroke="none" /><path d="M 98.19965949673042 120.92268563240118 l -1.1648088225573152 13.536844153622175 a34.586866056326684,34.586866056326684 0 0,0 -0.5911067299409354,-0.055978421896756864 l 1.3970151158832658 -13.514853976220236" fill="#ff900d" stroke="none" /><path d="M 97.48249496171623 120.84855314841334 l -2.300900093978304 19.05475348371031 a40.19316991972508,40.19316991972508 0 0,0 -0.6842833168958824,-0.08859417520144239 l 2.6276612327649804 -19.01244771230847" fill="#ffdc14" stroke="none" /><path d="M 97.12497278360702 120.80226474461374 l -2.7800306511116855 20.11491692072438 a41.30611861357961,41.30611861357961 0 0,0 -0.7015645473454738,-0.10310582875775708 l 3.124920304064844 -20.06423001866774" fill="#ffea16" stroke="none" /><path d="M 96.41257539226777 120.69131181640829 l -4.156987033227955 23.97639653134303 a45.334094020994975,45.334094020994975 0 0,0 -0.7656394540560766,-0.13952501332114522 l 4.567961220835088 -23.901503344090518" fill="#e1ff1b" stroke="none" /><path d="M 95.70440661134978 120.55596938700252 l -2.889342554687597 13.826550077959029 a35.12521813837356,35.12521813837356 0 0,0 -0.5891629501326847,-0.12840532281990438 l 3.126267921439418 -13.774913297005407" fill="#ff980e" stroke="none" /><path d="M 95.00130118170881 120.39639698878247 l -3.3543922668544 13.687065137933814 a35.09211480119204,35.09211480119204 0 0,0 -0.5838571029078019,-0.1484141924037241 l 3.588854662987581 -13.627465713694827" fill="#ff970e" stroke="none" /><path d="M 94.30408787586889 120.21278271476187 l -6.642307074940129 23.57120452432735 a45.48922060837114,45.48922060837114 0 0,0 -0.7497922980072355,-0.21825361035987306 l 7.045959385328972 -23.453707219664963" fill="#dfff1b" stroke="none" /><path d="M 93.61358852112213 120.00534299687104 l -11.526080332794944 36.105282478223124 a58.900421510457214,58.900421510457214 0 0,0 -0.9605740528712069,-0.3157597706038011 l 12.144177123313895 -35.9021017862173" fill="#46ff2c" stroke="none" /><path d="M 92.93061703081489 119.77432235084164 l -6.15000446614506 17.20265704981131 a39.26893441082503,39.26893441082503 0 0,0 -0.6328111146479077,-0.23237700664597638 l 6.444404732447087 -17.094549194156613" fill="#ffd013" stroke="none" /><path d="M 92.59220618246901 119.65005319985036 l -8.567622448865631 22.726636440396263 a45.28794265309958,45.28794265309958 0 0,0 -0.7250982140273577,-0.28048356606953023 l 8.956492925386518 -22.576212986188693" fill="#e1ff1b" stroke="none" /><path d="M 91.92203290615298 119.3841803445677 l -9.291324354820407 22.29579606370252 a45.154321153381474,45.154321153381474 0 0,0 -0.7129328142357685,-0.3043086247916239 l 9.672692244226607 -22.133012789251495" fill="#e3ff1b" stroke="none" /><path d="M 91.59046798132341 119.24265499422711 l -6.957654113692073 15.920474216829351 a38.374419416328834,38.374419416328834 0 0,0 -0.6013574811004905,-0.2689795523378875 l 7.229924997648199 -15.79869091358161" fill="#ffc412" stroke="none" /><path d="M 91.26138138417905 119.09545874513695 l -19.260427689305374 42.08751045490871 a67.28523102531747,67.28523102531747 0 0,0 -1.0461613009300161,-0.48965631261603515 l 19.98007770410688 -41.750677910722146" fill="#37ff7a" stroke="none" /><path d="M 90.6110303473126 118.78422872680471 l -7.934579437817784 15.874474039684404 a38.74701318226971,38.74701318226971 0 0,0 -0.5924100558443708,-0.30248879560290054 l 8.205916715375738 -15.735927292408668" fill="#ffc912" stroke="none" /><path d="M 89.97174638481275 118.45085714620012 l -13.710640312171577 25.22603391279377 a49.71122506510591,49.71122506510591 0 0,0 -0.7462739340787935,-0.413945571303889 l 14.141658434406473 -24.98695542605673" fill="#acff20" stroke="none" /><line stroke="#e1ed5e" stroke-width="0.3" x1="58.13341422392154" x2="55.67067388415222" y1="173.97424548756322" y2="178.32567169271397" /><path d="M 57.64086615596768 174.84453072859336 a86.0,86.0 0 0,1 -31.369924170532247,-30.572349798747897" fill="none" id="id92" stroke="none" /><text fill="#e1ed5e" style="font-size:6.75px; font-family:Arial;" text-anchor="middle"><textPath startOffset="22.145653131862474" xlink:href="#id92">August</textPath></text><path d="M 89.65649057296885 118.27599006163327 l -8.020743348257119 14.171884963586525 a37.284183961124384,37.284183961124384 0 0,0 -0.5543049077305481,-0.32002808769136504 l 8.262840723848067 -14.032109978618989" fill="#ffb510" stroke="none" /><path d="M 89.34428304082925 118.09573695890944 l -13.413675404743428 22.7793533467991 a47.43531022632695,47.43531022632695 0 0,0 -0.6981285987378167,-0.4192061646781734 l 13.802736760038671 -22.545733181585007" fill="#c7ff1e" stroke="none" /><path d="M 89.03521579738668 117.91015095944536 l -6.710736088289433 10.961483068824618 a33.85255188337316,33.85255188337316 0 0,0 -0.49301546180680417,-0.307678111433342 l 6.89791567888595 -10.844669160549728" fill="#ff860c" stroke="none" /><path d="M 88.4268655584334 117.5232005979908 l -10.082687624070566 15.26647415145307 a39.29551373264961,39.29551373264961 0 0,0 -0.5596873342176469,-0.37658261651374314 l 10.343271246385218 -15.091141860882205" fill="#ffd013" stroke="none" /><path d="M 88.1277618465304 117.32195027204791 l -11.688277634539906 17.05354637720279 a41.6746046661476,41.6746046661476 0 0,0 -0.5866294148907587,-0.40951289153006276 l 11.97930214060443 -16.8503886698676" fill="#ffef16" stroke="none" /><path d="M 87.54013794807813 116.9041958592261 l -15.924197740433593 21.604232565625775 a47.8388326576637,47.8388326576637 0 0,0 -0.6568659243254928,-0.49292443547710874 l 16.292716653669853 -21.32768910288465" fill="#c2ff1e" stroke="none" /><path d="M 86.96720088162412 116.46651593811092 l -27.20687852958745 34.375002243534055 a64.83896689666281,64.83896689666281 0 0,0 -0.8668328574856553,-0.6982591901120412 l 27.792962157428367 -33.9028947596286" fill="#34ff5d" stroke="none" /><path d="M 86.40962598614128 116.0094264158162 l -17.72150285824647 20.87588580692924 a48.383467124869114,48.383467124869114 0 0,0 -0.6285715558039632,-0.5429451390321723 l 18.077253893813296 -20.56859653543235" fill="#bcff1f" stroke="none" /><path d="M 86.13680546590413 115.77377054828092 l -16.36552324000744 18.620961269463443 a45.79053346578248,45.79053346578248 0 0,0 -0.5859770372700281,-0.5239842800405766 l 16.68276530410084 -18.337281459539483" fill="#dbff1b" stroke="none" /><path d="M 85.34317274990678 115.03919595460226 l -17.703612916926595 18.165466455940773 a46.36537170778855,46.36537170778855 0 0,0 -0.565233799208167,-0.5604027701245378 l 18.012838636264725 -17.858883675587577" fill="#d4ff1c" stroke="none" /><path d="M 85.08716467003676 114.78537596483092 l -4.599128505256474 4.559819950815177 a27.47641420785567,27.47641420785567 0 0,0 -0.32921087960685297,-0.3377993643721881 l 4.676726186014136 -4.480197894375252" fill="#ff2a04" stroke="none" /><line stroke="#e1ed5e" stroke-width="0.3" x1="26.387840678322732" x2="22.057713659400548" y1="142.50000000000003" y2="145.00000000000006" /><path d="M 25.521815274538298 143.00000000000003 a86.0,86.0 0 0,1 -11.493303480769221,-40.785679425670985" fill="none" id="id93" stroke="none" /><text fill="#e1ed5e" style="font-size:6.75px; font-family:Arial;" text-anchor="middle"><textPath startOffset="21.40746469413373" xlink:href="#id93">September</textPath></text><line stroke="#e1ed5e" stroke-width="0.3" x1="15.003131293944662" x2="10.003315487706104" y1="100.72959589197737" y2="100.7725132973878" /><path d="M 14.003168132696942 100.73817937305945 a86.0,86.0 0 0,1 10.791469493833604,-42.45332614584628" fill="none" id="id94" stroke="none" /><text fill="#e1ed5e" style="font-size:6.75px; font-family:Arial;" text-anchor="middle"><textPath startOffset="22.145653131862435" xlink:href="#id94">October</textPath></text><line stroke="#e1ed5e" stroke-width="0.3" x1="26.387840678322718" x2="22.05771365940052" y1="57.49999999999999" y2="54.99999999999999" /><path d="M 25.521815274538284 56.99999999999999 a86.0,86.0 0 0,1 29.574782752854787,-30.34633250058573" fill="none" id="id95" stroke="none" /><text fill="#e1ed5e" style="font-size:6.75px; font-family:Arial;" text-anchor="middle"><textPath startOffset="21.40746469413373" xlink:href="#id95">November</textPath></text><line stroke="#e1ed5e" stroke-width="0.3" x1="56.869717070023135" x2="54.33264160355391" y1="26.7553504044142" y2="22.446841604673864" /><path d="M 56.362301976729285 25.89364864446614 a86.0,86.0 0 0,1 42.16139366436587,-11.88097634709845" fill="none" id="id96" stroke="none" /><text fill="#e1ed5e" style="font-size:6.75px; font-family:Arial;" text-anchor="middle"><textPath startOffset="22.145653131862474" xlink:href="#id96">December</textPath></text></svg>