<?xml version="1.0" encoding="utf-8" ?>
<svg baseProfile="full" height="200mm" version="1.1" viewBox="0,0,200,200" width="200mm" xmlns="http://www.w3.org/2000/svg" xmlns:ev="http://www.w3.org/2001/xml-events" xmlns:xlink="http://www.w3.org/1999/xlink"><defs /><rect fill="#1a1a1a" height="200" width="200" x="0" y="0" /><text alignment-baseline="middle" fill="#e1ed5e" style="dominant-baseline: central; font-size:9.0px; font-family:Arial;" text-anchor="middle" x="100.0" y="100.0">2026</text><line stroke="#e1ed5e" stroke-width="0.3" x1="100.0" x2="100.0" y1="15.0" y2="10.0" /><path d="M 100.0 14.0 a86.0,86.0 0 0,1 42.46469731375804,11.215312516191453" fill="none" id="id109" stroke="none" /><text fill="#e1ed5e" style="font-size:6.75px; font-family:Arial;" text-anchor="middle"><textPath startOffset="22.20632615414155" xlink:href="#id109">January</textPath></text><path d="M 100.0 79.0 l 0.0 -31.27707358387643 a52.27707358387643,52.27707358387643 0 0,0 0.8998638863840421,0.007745412567275423 l -0.5383834071115138 31.272439547917713" fill="#b6ff1f" stroke="none" /><path d="M 100.72285384407766 79.0124445844662 l 0.8797737897735122 -25.54361620579836 a46.55876230943699,46.55876230943699 0 0,0 0.8007201828885346,0.03448069543482749 l -1.3193348050513785 25.524687783839337" fill="#fffb17" stroke="none" /><path d="M 101.08401301168833 79.027996857942 l 1.3845977973717374 -26.787307019258808 a47.823067095403516,47.823067095403516 0 0,0 0.8217322642338656,0.049569134232061524 l -1.8454921104452149 26.759504615646442" fill="#f2ff19" stroke="none" /><path d="M 102.16513564639614 79.11191278185805 l 2.647086723035355 -25.537697112318362 a46.6745212597973,46.6745212597973 0 0,0 0.7984305778220189,0.0897129784698995 l -3.086284004367099 25.488348180377862" fill="#fffc17" stroke="none" /><path d="M 102.88285421437855 79.19881850522331 l 5.071542361288687 -36.5936205131188 a57.94338376733369,57.94338376733369 0 0,0 0.9867786387678679,0.14542552051982194 l -5.700689980485211 36.50090050843801" fill="#6eff28" stroke="none" /><path d="M 103.59715602781102 79.31037775812273 l 5.632284410115418 -32.39499090480494 a53.88096810312653,53.88096810312653 0 0,0 0.9123969112938461,0.16673470364466134 l -6.189076442512165 32.29324071980954" fill="#a1ff22" stroke="none" /><path d="M 104.307194497241 79.44645832069477 l 6.88797452530278 -32.86879001690965 a54.58275673968591,54.58275673968591 0 0,0 0.9179189370656257,0.20062152652478102 l -7.452736186521934 32.745354992289" fill="#98ff23" stroke="none" /><path d="M 104.66035177308747 79.52364482259891 l 5.6396264027916825 -24.779029333853636 a46.41270707128707,46.41270707128707 0 0,0 0.7774709986488466,0.18400226629966956 l -6.065321088403053 24.6782811554131" fill="#fff917" stroke="none" /><path d="M 105.71112130821622 79.79150937346287 l 9.500430866173316 -33.61675540509442 a55.93342855502282,55.93342855502282 0 0,0 0.9242593745171768,0.26981665628238666 l -10.077680458413921 33.44824041989333" fill="#87ff25" stroke="none" /><path d="M 106.0581310904928 79.89281104454417 l 7.302551676169435 -24.237472615960762 a46.31367890672102,46.31367890672102 0 0,0 0.7613409239132938,0.23655233107757853 l -7.718677972793447 24.108180150000663" fill="#fff717" stroke="none" /><path d="M 107.76421540070413 80.48803036053334 l 9.71920119261437 -24.42497390952874 a47.287681949987075,47.287681949987075 0 0,0 0.7537119008778442,0.30745800894685654 l -10.138196963080603 24.254055014398304" fill="#f9ff18" stroke="none" /><path d="M 109.41281617654863 81.2277094730956 l 11.4691588451887 -22.873322702031352 a46.587702047027065,46.587702047027065 0 0,0 0.7137668829033725,0.36561912027924665 l -11.861186215680826 22.672511056439607" fill="#fffb17" stroke="none" /><path d="M 110.05341064243156 81.56283822128135 l 12.653425659715683 -23.20538414680161 a47.43102408773793,47.43102408773793 0 0,0 0.7134437114266888,0.39703065297983536 l -13.050993460214407 22.984138096261596" fill="#f7ff18" stroke="none" /><line stroke="#e1ed5e" stroke-width="0.3" x1="143.23703022742887" x2="145.7803849466894" y1="26.81831364943548" y2="22.513508569990506" /><path d="M 143.74570117128098 25.957352633546492 a86.0,86.0 0 0,1 28.547481713284135,27.462654790039103" fill="none" id="id110" stroke="none" /><text fill="#e1ed5e" style="font-size:6.75px; font-family:Arial;" text-anchor="middle"><textPath startOffset="19.985693538727396" xlink:href="#id110">February</textPath></text><path d="M 110.99172775467656 82.1063720568725 l 13.266852248585442 -21.597343330454226 a46.3466882949097,46.3466882949097 0 0,0 0.676177983072997,0.4234225909676234 l -13.636649384030703 21.36577639816366" fill="#fff817" stroke="none" /><path d="M 111.90073688211348 82.69761687909136 l 9.352470370930245 -13.597479474400728 a37.50333754414171,37.50333754414171 0 0,0 0.5287414480239864,0.37041717398073093 l -9.585142958537883 13.434477457656062" fill="#ff740a" stroke="none" /><path d="M 112.19680574252982 82.90503203632743 l 5.446647116670334 -7.6339871220738456 a30.377831529384743,30.377831529384743 0 0,0 0.42305424332305325,0.3073668994273243 l -5.577246676347176 7.539100987829846" fill="#ff0000" stroke="none" /><path d="M 112.48926042617603 83.11751280151076 l 28.481096665793935 -38.49961754752377 a68.88938732738077,68.88938732738077 0 0,0 0.9472416931433195,0.7134428048957824 l -29.139584512695635 38.00365815312214" fill="#37ff7a" stroke="none" /><path d="M 113.06298171725822 83.55741782278167 l 13.211122103073066 -16.629048829338593 a42.23814992391835,42.23814992391835 0 0,0 0.5653809711684259,0.4571654257404861 l -13.495406472805984 16.39917730633398" fill="#ffbc11" stroke="none" /><path d="M 113.34407831869373 83.78471172551755 l 21.4866823376859 -26.109914813653013 a54.81427464040653,54.81427464040653 0 0,0 0.7233982420781742,0.6058252239207463 l -21.93293811672319 25.736188432338444" fill="#95ff23" stroke="none" /><path d="M 114.42810811169701 84.74124197986012 l 17.022752600360615 -18.002780458446306 a45.776485027705206,45.776485027705206 0 0,0 0.5678829237258315,0.5463029226911991 l -17.330118767698867 17.707094448992805" fill="#fff016" stroke="none" /><path d="M 117.04232023915458 87.72973835380427 l 15.948276770556214 -11.482563760952887 a40.651890557262206,40.651890557262206 0 0,0 0.40397793049592,0.5713981335198103 l -16.143567320856018 11.206339127101284" fill="#ffa40f" stroke="none" /><line stroke="#e1ed5e" stroke-width="0.3" x1="172.23445277983987" x2="176.4835382374775" y1="55.19839476539836" y2="52.563006222186495" /><path d="M 173.08426987136738 54.67131705675599 a86.0,86.0 0 0,1 12.851231095245387,41.99856678651699" fill="none" id="id111" stroke="none" /><text fill="#e1ed5e" style="font-size:6.75px; font-family:Arial;" text-anchor="middle"><textPath startOffset="22.20632615414155" xlink:href="#id111">March</textPath></text><path d="M 120.53481517161879 95.60439243477599 l 61.60444551485638 -13.186822695672053 a84.0,84.0 0 0,0 0.2904828163400124,1.4164973753463528 l -61.822307627111385 12.124449664162288" fill="#4dd2ff" stroke="none" /><line stroke="#e1ed5e" stroke-width="0.3" x1="184.98032266829074" x2="189.97916517819016" y1="98.17113171792111" y2="98.06355123074" /><path d="M 185.9800911702706 98.14961562048488 a86.0,86.0 0 0,1 -9.607161424134198,41.387399972396054" fill="none" id="id112" stroke="none" /><text fill="#e1ed5e" style="font-size:6.75px; font-family:Arial;" text-anchor="middle"><textPath startOffset="21.466115282336823" xlink:href="#id112">April</textPath></text><line stroke="#e1ed5e" stroke-width="0.3" x1="174.80103733775053" x2="179.2010983576182" y1="140.37084112569926" y2="142.7455964860345" /><path d="M 175.68104954172406 140.8457921977663 a86.0,86.0 0 0,1 -30.038265399797805,32.042727171017184" fill="none" id="id113" stroke="none" /><text fill="#e1ed5e" style="font-size:6.75px; font-family:Arial;" text-anchor="middle"><textPath startOffset="22.206326154141568" xlink:href="#id113">May</textPath></text><line stroke="#e1ed5e" stroke-width="0.3" x1="143.8653032363475" x2="146.44561519142675" y1="172.8068346515853" y2="177.08958963109032" /><path d="M 144.38136562736335 173.6633856474863 a86.0,86.0 0 0,1 -40.68145358897372,12.25698825130547" fill="none" id="id114" stroke="none" /><text fill="#e1ed5e" style="font-size:6.75px; font-family:Arial;" text-anchor="middle"><textPath startOffset="21.466115282336833" xlink:href="#id114">June</textPath></text><line stroke="#e1ed5e" stroke-width="0.3" x1="102.19456741930631" x2="102.32365962044197" y1="184.97166512339345" y2="189.96999836594603" /><path d="M 102.22038585953345 185.97133177190398 a86.0,86.0 0 0,1 -42.740103519485714,-10.115201625700543" fill="none" id="id115" stroke="none" /><text fill="#e1ed5e" style="font-size:6.75px; font-family:Arial;" text-anchor="middle"><textPath startOffset="22.20632615414155" xlink:href="#id115">July</textPath></text><line stroke="#e1ed5e" stroke-width="0.3" x1="58.666819895761336" x2="56.23545636021788" y1="174.27360380694188" y2="178.64263932499728" /><path d="M 58.180547188652646 175.14741091055294 a86.0,86.0 0 0,1 -31.652253787137756,-30.449443065178592" fill="none" id="id116" stroke="none" /><text fill="#e1ed5e" style="font-size:6.75px; font-family:Arial;" text-anchor="middle"><textPath startOffset="22.20632615414155" xlink:href="#id116">August</textPath></text><line stroke="#e1ed5e" stroke-width="0.3" x1="26.63291911575756" x2="22.317208475507996" y1="142.92168965132927" y2="145.44649492493687" /><path d="M 25.769776987707644 143.4266507060508 a86.0,86.0 0 0,1 -11.730757126820373,-40.83630448921669" fill="none" id="id117" stroke="none" /><text fill="#e1ed5e" style="font-size:6.75px; font-family:Arial;" text-anchor="middle"><textPath startOffset="21.46611528233685" xlink:href="#id117">September</textPath></text><line stroke="#e1ed5e" stroke-width="0.3" x1="15.007084014347285" x2="10.007500721073583" y1="101.09737516637583" y2="101.16192664675087" /><path d="M 14.007167355692545 101.11028546245083 a86.0,86.0 0 0,1 10.666146001902534,-42.60595125391555" fill="none" id="id118" stroke="none" /><text fill="#e1ed5e" style="font-size:6.75px; font-family:Arial;" text-anchor="middle"><textPath startOffset="22.20632615414155" xlink:href="#id118">October</textPath></text><line stroke="#e1ed5e" stroke-width="0.3" x1="26.266209847984243" x2="21.928928074336255" y1="57.711370442889674" y2="55.22380399835377" /><path d="M 25.398753493254645 57.213857153982495 a86.0,86.0 0 0,1 29.58750427330803,-30.492523968695096" fill="none" id="id119" stroke="none" /><text fill="#e1ed5e" style="font-size:6.75px; font-family:Arial;" text-anchor="middle"><textPath startOffset="21.46611528233685" xlink:href="#id119">November</textPath></text><line stroke="#e1ed5e" stroke-width="0.3" x1="56.762969772571076" x2="54.21961505331055" y1="26.818313649435495" y2="22.513508569990535" /><path d="M 56.25429882871897 25.957352633546506 a86.0,86.0 0 0,1 42.265352541879196,-11.944610805530505" fill="none" id="id120" stroke="none" /><text fill="#e1ed5e" style="font-size:6.75px; font-family:Arial;" text-anchor="middle"><textPath startOffset="22.20632615414155" xlink:href="#id120">December</textPath></text></svg>