<?xml version="1.0" encoding="utf-8" ?>
<svg baseProfile="full" height="200mm" version="1.1" viewBox="0,0,200,200" width="200mm" xmlns="http://www.w3.org/2000/svg" xmlns:ev="http://www.w3.org/2001/xml-events" xmlns:xlink="http://www.w3.org/1999/xlink"><defs /><rect fill="#1a1a1a" height="200" width="200" x="0" y="0" /><text alignment-baseline="middle" fill="#e1ed5e" style="dominant-baseline: central; font-size:9.0px; font-family:Arial;" text-anchor="middle" x="100.0" y="100.0">2025</text><line stroke="#e1ed5e" stroke-width="0.3" x1="100.0" x2="100.0" y1="15.0" y2="10.0" /><path d="M 100.0 14.0 a86.0,86.0 0 0,1 42.46469731375804,11.215312516191453" fill="none" id="id97" stroke="none" /><text fill="#e1ed5e" style="font-size:6.75px; font-family:Arial;" text-anchor="middle"><textPath startOffset="22.20632615414155" xlink:href="#id97">January</textPath></text><path d="M 101.44485096284872 79.0497635885617 l 2.460458441713035 -35.67647277112581 a56.76121593475644,56.76121593475644 0 0,0 0.9741570993623253,0.07561333969708386 l -3.0742057304377015 35.62883416924026" fill="#ffcb13" stroke="none" /><path d="M 102.16513564639614 79.11191278185805 l 3.557064285726965 -34.31668088069929 a55.500540474035276,55.500540474035276 0 0,0 0.9494115291180766,0.10667744752860772 l -4.147242518354767 34.250367479700074" fill="#ffb010" stroke="none" /><path d="M 102.88285421437855 79.19881850522331 l 4.569056264595888 -32.967941335941966 a54.28305020696201,54.28305020696201 0 0,0 0.9244429805218234,0.1362388648797121 l -5.135868225546367 32.88440798690129" fill="#ff940d" stroke="none" /><path d="M 103.59715602781102 79.31037775812273 l 8.2645220070718 -47.534729384549124 a69.24782711861428,69.24782711861428 0 0,0 1.1726126274477184,0.2142874625147821 l -9.08152975562242 47.3854264406836" fill="#3fff2d" stroke="none" /><path d="M 104.66035177308747 79.52364482259891 l 9.013491964651875 -39.6029037813576 a61.615674625842566,61.615674625842566 0 0,0 1.0321397545331281,0.24427413279997845 l -9.693855406147527 39.44188373641675" fill="#cdff1d" stroke="none" /><path d="M 105.36241919743992 79.69619591428918 l 10.516682900103625 -39.81946606061494 a62.18483333186863,62.18483333186863 0 0,0 1.032570601956873,0.282240551095276 l -11.20055139128421 39.632538968693375" fill="#c1ff1e" stroke="none" /><path d="M 106.0581310904928 79.89281104454417 l 7.829161073401881 -25.985311099100976 a48.139125926056124,48.139125926056124 0 0,0 0.7913490673616793,0.24587600731914935 l -8.275295513474278 25.846694956899306" fill="#ff0000" stroke="none" /><path d="M 106.40334571778207 80.00007090966166 l 16.93769887737894 -52.902465590818686 a76.54778581409451,76.54778581409451 0 0,0 1.2514366566327066,0.41257899011900134 l -17.845818356254064 52.60307287644045" fill="#3dffad" stroke="none" /><path d="M 107.08798089147638 80.2323363322302 l 10.624963648859007 -29.631951765769635 a52.479237887669285,52.479237887669285 0 0,0 0.847708810546803,0.3122183090333293 l -11.133454785178387 29.44467018892998" fill="#ff6a09" stroke="none" /><path d="M 108.43124777332544 80.76684994638697 l 11.818299230094118 -26.959606523489363 a50.436246034326686,50.436246034326686 0 0,0 0.7921321818823754,0.3554066199117416 l -12.280613530443274 26.752179573061092" fill="#ff3905" stroke="none" /><path d="M 109.08828744355905 81.06846463323043 l 18.33487653062613 -38.19282407610245 a63.36578228123984,63.36578228123984 0 0,0 0.9792389066011236,0.4805082786812923 l -18.989586704237684 37.87156063728632" fill="#aaff21" stroke="none" /><line stroke="#e1ed5e" stroke-width="0.3" x1="143.23703022742887" x2="145.7803849466894" y1="26.81831364943548" y2="22.513508569990506" /><path d="M 143.74570117128098 25.957352633546492 a86.0,86.0 0 0,1 28.547481713284135,27.462654790039103" fill="none" id="id98" stroke="none" /><text fill="#e1ed5e" style="font-size:6.75px; font-family:Arial;" text-anchor="middle"><textPath startOffset="19.985693538727396" xlink:href="#id98">February</textPath></text><path d="M 113.06298171725822 83.55741782278167 l 18.983334564552102 -23.894624162483385 a51.51753684451046,51.51753684451046 0 0,0 0.6895906914914524,0.557601048034656 l -19.391828654608048 23.5643170171846" fill="#ff5307" stroke="none" /><path d="M 113.6212207817346 84.01681056812373 l 23.75025977203469 -27.868640195725522 a57.616061306453176,57.616061306453176 0 0,0 0.7493001733495515,0.6497857266022125 l -24.226453744031005 27.45568947570364" fill="#ffde14" stroke="none" /><path d="M 114.42810811169701 84.74124197986012 l 21.529376202598513 -22.7688577918044 a52.33584089850513,52.33584089850513 0 0,0 0.6492554054140524,0.6245831856039349 l -21.91811485162498 22.39489151943816" fill="#ff6709" stroke="none" /><path d="M 114.68862486808459 84.99185889309783 l 25.501814537778863 -26.056546103007907 a57.459376565397356,57.459376565397356 0 0,0 0.7009064390837864,0.6978965240870277 l -25.946556777029972 25.61371372827076" fill="#ffdb14" stroke="none" /><path d="M 114.94478906791727 85.2469230424477 l 35.15779719999977 -34.7067921395493 a70.402754220531,70.402754220531 0 0,0 0.8439471033825913,0.8697616750805258 l -35.75000856708547 34.09646626891866" fill="#30ff34" stroke="none" /><path d="M 115.4437574822437 85.77008943001954 l 46.331272446731084 -42.689731709941405 a84.0,84.0 0 0,0 0.9706254375358574,1.0717888509218039 l -47.05924152488298 41.88589007175005" fill="#4dd2ff" stroke="none" /><line stroke="#e1ed5e" stroke-width="0.3" x1="172.23445277983987" x2="176.4835382374775" y1="55.19839476539836" y2="52.563006222186495" /><path d="M 173.08426987136738 54.67131705675599 a86.0,86.0 0 0,1 12.851231095245387,41.99856678651699" fill="none" id="id99" stroke="none" /><text fill="#e1ed5e" style="font-size:6.75px; font-family:Arial;" text-anchor="middle"><textPath startOffset="22.20632615414155" xlink:href="#id99">March</textPath></text><line stroke="#e1ed5e" stroke-width="0.3" x1="184.98032266829074" x2="189.97916517819016" y1="98.17113171792111" y2="98.06355123074" /><path d="M 185.9800911702706 98.14961562048488 a86.0,86.0 0 0,1 -9.607161424134198,41.387399972396054" fill="none" id="id100" stroke="none" /><text fill="#e1ed5e" style="font-size:6.75px; font-family:Arial;" text-anchor="middle"><textPath startOffset="21.466115282336823" xlink:href="#id100">April</textPath></text><line stroke="#e1ed5e" stroke-width="0.3" x1="174.80103733775053" x2="179.2010983576182" y1="140.37084112569926" y2="142.7455964860345" /><path d="M 175.68104954172406 140.8457921977663 a86.0,86.0 0 0,1 -30.038265399797805,32.042727171017184" fill="none" id="id101" stroke="none" /><text fill="#e1ed5e" style="font-size:6.75px; font-family:Arial;" text-anchor="middle"><textPath startOffset="22.206326154141568" xlink:href="#id101">May</textPath></text><line stroke="#e1ed5e" stroke-width="0.3" x1="143.8653032363475" x2="146.44561519142675" y1="172.8068346515853" y2="177.08958963109032" /><path d="M 144.38136562736335 173.6633856474863 a86.0,86.0 0 0,1 -40.68145358897372,12.25698825130547" fill="none" id="id102" stroke="none" /><text fill="#e1ed5e" style="font-size:6.75px; font-family:Arial;" text-anchor="middle"><textPath startOffset="21.466115282336833" xlink:href="#id102">June</textPath></text><line stroke="#e1ed5e" stroke-width="0.3" x1="102.19456741930631" x2="102.32365962044197" y1="184.97166512339345" y2="189.96999836594603" /><path d="M 102.22038585953345 185.97133177190398 a86.0,86.0 0 0,1 -42.740103519485714,-10.115201625700543" fill="none" id="id103" stroke="none" /><text fill="#e1ed5e" style="font-size:6.75px; font-family:Arial;" text-anchor="middle"><textPath startOffset="22.20632615414155" xlink:href="#id103">July</textPath></text><line stroke="#e1ed5e" stroke-width="0.3" x1="58.666819895761336" x2="56.23545636021788" y1="174.27360380694188" y2="178.64263932499728" /><path d="M 58.180547188652646 175.14741091055294 a86.0,86.0 0 0,1 -31.652253787137756,-30.449443065178592" fill="none" id="id104" stroke="none" /><text fill="#e1ed5e" style="font-size:6.75px; font-family:Arial;" text-anchor="middle"><textPath startOffset="22.20632615414155" xlink:href="#id104">August</textPath></text><line stroke="#e1ed5e" stroke-width="0.3" x1="26.63291911575756" x2="22.317208475507996" y1="142.92168965132927" y2="145.44649492493687" /><path d="M 25.769776987707644 143.4266507060508 a86.0,86.0 0 0,1 -11.730757126820373,-40.83630448921669" fill="none" id="id105" stroke="none" /><text fill="#e1ed5e" style="font-size:6.75px; font-family:Arial;" text-anchor="middle"><textPath startOffset="21.46611528233685" xlink:href="#id105">September</textPath></text><line stroke="#e1ed5e" stroke-width="0.3" x1="15.007084014347285" x2="10.007500721073583" y1="101.09737516637583" y2="101.16192664675087" /><path d="M 14.007167355692545 101.11028546245083 a86.0,86.0 0 0,1 10.666146001902534,-42.60595125391555" fill="none" id="id106" stroke="none" /><text fill="#e1ed5e" style="font-size:6.75px; font-family:Arial;" text-anchor="middle"><textPath startOffset="22.20632615414155" xlink:href="#id106">October</textPath></text><line stroke="#e1ed5e" stroke-width="0.3" x1="26.266209847984243" x2="21.928928074336255" y1="57.711370442889674" y2="55.22380399835377" /><path d="M 25.398753493254645 57.213857153982495 a86.0,86.0 0 0,1 29.58750427330803,-30.492523968695096" fill="none" id="id107" stroke="none" /><text fill="#e1ed5e" style="font-size:6.75px; font-family:Arial;" text-anchor="middle"><textPath startOffset="21.46611528233685" xlink:href="#id107">November</textPath></text><line stroke="#e1ed5e" stroke-width="0.3" x1="56.762969772571076" x2="54.21961505331055" y1="26.818313649435495" y2="22.513508569990535" /><path d="M 56.25429882871897 25.957352633546506 a86.0,86.0 0 0,1 42.265352541879196,-11.944610805530505" fill="none" id="id108" stroke="none" /><text fill="#e1ed5e" style="font-size:6.75px; font-family:Arial;" text-anchor="middle"><textPath startOffset="22.20632615414155" xlink:href="#id108">December</textPath></text></svg>