<?xml version="1.0" encoding="utf-8" ?>
<svg baseProfile="full" height="200mm" version="1.1" viewBox="0,0,200,200" width="200mm" xmlns="http://www.w3.org/2000/svg" xmlns:ev="http://www.w3.org/2001/xml-events" xmlns:xlink="http://www.w3.org/1999/xlink"><defs /><rect fill="#1a1a1a" height="200" width="200" x="0" y="0" /><text alignment-baseline="middle" fill="#e1ed5e" style="dominant-baseline: central; font-size:9.0px; font-family:Arial;" text-anchor="middle" x="100.0" y="100.0">2023</text><line stroke="#e1ed5e" stroke-width="0.3" x1="100.0" x2="100.0" y1="15.0" y2="10.0" /><path d="M 100.0 14.0 a86.0,86.0 0 0,1 42.46469731375804,11.215312516191453" fill="none" id="id49" stroke="none" /><text fill="#e1ed5e" style="font-size:6.75px; font-family:Arial;" text-anchor="middle"><textPath startOffset="22.20632615414155" xlink:href="#id49">January</textPath></text><path d="M 102.16513564639614 79.11191278185805 l 2.16913075092646 -20.926629880359897 a42.03874916348846,42.03874916348846 0 0,0 0.7191294496346542,0.08080257272727567 l -2.52902690407084 20.88619135416202" fill="#ff3605" stroke="none" /><path d="M 104.66035177308747 79.52364482259891 l 4.847991543203212 -21.30079478311572 a42.84552312020428,42.84552312020428 0 0,0 0.7177161977803531,0.16986023553428242 l -5.213931427946088 21.214188635440568" fill="#ff4506" stroke="none" /><path d="M 106.40334571778207 80.00007090966166 l 8.12195173712975 -25.367747733291093 a47.636229558256936,47.636229558256936 0 0,0 0.7787778995691954,0.2567508292395806 l -8.557412458941364 25.224183179792277" fill="#ffa00e" stroke="none" /><path d="M 107.08798089147638 80.2323363322302 l 7.187821337525256 -20.04610859985301 a42.29580347339081,42.29580347339081 0 0,0 0.683213527801134,0.2516333081653023 l -7.531817191098967 19.919412023881385" fill="#ff3b05" stroke="none" /><path d="M 109.73455568895987 81.39251694778311 l 9.781168824580405 -18.69658348564022 a42.1005568080669,42.1005568080669 0 0,0 0.6392367181984935,0.34145811669215237 l -10.101550589307209 18.525446642446315" fill="#ff3705" stroke="none" /><path d="M 110.36928655335952 81.73862282372117 l 9.597752832302346 -16.902627158913536 a40.43748091454263,40.43748091454263 0 0,0 0.6023321981399933,0.3489096870159211 l -9.887281762907667 16.734913314507562" fill="#ff1602" stroke="none" /><line stroke="#e1ed5e" stroke-width="0.3" x1="143.23703022742887" x2="145.7803849466894" y1="26.81831364943548" y2="22.513508569990506" /><path d="M 143.74570117128098 25.957352633546492 a86.0,86.0 0 0,1 28.547481713284135,27.462654790039103" fill="none" id="id50" stroke="none" /><text fill="#e1ed5e" style="font-size:6.75px; font-family:Arial;" text-anchor="middle"><textPath startOffset="19.985693538727396" xlink:href="#id50">February</textPath></text><path d="M 111.2981086023043 82.29822771554956 l 12.766004606672206 -20.00165819644069 a44.72840500802401,44.72840500802401 0 0,0 0.6454372191193721,0.41981032131951845 l -13.10840885157586 19.77894895096164" fill="#ff6a09" stroke="none" /><path d="M 113.6212207817346 84.01681056812373 l 17.104471895989366 -20.070448811195874 a47.37017016106502,47.37017016106502 0 0,0 0.6160517728640412,0.5342340267527202 l -17.447417467500173 19.77304979102348" fill="#ff9b0e" stroke="none" /><path d="M 113.89432698308785 84.25364557470407 l 13.761534074157979 -15.595861046831414 a41.799295706015734,41.799295706015734 0 0,0 0.535407203387826,0.48069387360704996 l -14.027952265141794 15.356668164455066" fill="#ff3104" stroke="none" /><path d="M 114.42810811169701 84.74124197986012 l 13.323640199486771 -14.09070407412305 a40.39245547809477,40.39245547809477 0 0,0 0.5010910230325265,0.4820491671433933 l -13.564214466131716 13.859271820217355" fill="#ff1502" stroke="none" /><path d="M 114.94478906791727 85.2469230424477 l 14.9953776153719 -14.80301655391443 a42.07108561330102,42.07108561330102 0 0,0 0.5043236054130413,0.5197498066746078 l -15.247965484488052 14.54270255168971" fill="#ff3605" stroke="none" /><path d="M 115.4437574822437 85.77008943001954 l 18.812700699946763 -17.33406192423316 a46.580997056778834,46.580997056778834 0 0,0 0.5382464362987195,0.5943451584556776 l -19.10829077686152 17.007663978507935" fill="#ff8c0c" stroke="none" /><path d="M 115.9244219780498 86.31012108654704 l 17.341875871478454 -14.908433168871973 a43.86923781616888,43.86923781616888 0 0,0 0.48734417032960925,0.5768617814060663 l -17.59593065529518 14.607712437836799" fill="#ff5908" stroke="none" /><path d="M 116.38621287248628 86.86637796730983 l 19.330904106105915 -15.493805069874668 a45.773813777913496,45.773813777913496 0 0,0 0.48748222224200666,0.619052917652602 l -19.594740408941885 15.158759758269028" fill="#ff7d0b" stroke="none" /><path d="M 116.82858285166822 87.43820079747576 l 17.78594884056588 -13.276430934849015 a43.19467491374998,43.19467491374998 0 0,0 0.4396341413994343,0.599660474798043 l -18.011845594478938 12.968308016379478" fill="#ff4c07" stroke="none" /><path d="M 117.2510076193507 88.02491185347247 l 16.707854130539655 -11.598048668653194 a41.33880828779895,41.33880828779895 0 0,0 0.4007414278955459,0.5880385965417622 l -16.905020024103933 11.308732048841025" fill="#ff2803" stroke="none" /><path d="M 117.45458315368197 88.32363383020206 l 22.54274843118451 -15.080130120473477 a48.121685627594815,48.121685627594815 0 0,0 0.45464306384585706,0.6924525775049687 l -22.79898813038829 14.689859478990835" fill="#ffa80f" stroke="none" /><line stroke="#e1ed5e" stroke-width="0.3" x1="172.23445277983987" x2="176.4835382374775" y1="55.19839476539836" y2="52.563006222186495" /><path d="M 173.08426987136738 54.67131705675599 a86.0,86.0 0 0,1 12.851231095245387,41.99856678651699" fill="none" id="id51" stroke="none" /><text fill="#e1ed5e" style="font-size:6.75px; font-family:Arial;" text-anchor="middle"><textPath startOffset="22.20632615414155" xlink:href="#id51">March</textPath></text><path d="M 117.84615892207809 88.93136811851018 l 17.741688284842812 -11.00383659242897 a41.87706691442568,41.87706691442568 0 0,0 0.37466853749196444,0.6158565631780066 l -17.928472620621 10.69681225604388" fill="#ff3304" stroke="none" /><path d="M 118.21658344932153 89.55222093294921 l 27.087156411707753 -15.53532947226233 a52.22595882089232,52.22595882089232 0 0,0 0.4405442633951015,0.7836790873299799 l -27.35055831639529 15.066766874997555" fill="#fff116" stroke="none" /><path d="M 118.3937258080291 89.86733742301442 l 43.14918328225152 -23.76985061290365 a70.2631486619064,70.2631486619064 0 0,0 0.5744577880313472,1.06438303620433 l -43.551949169501334 23.023586593366858" fill="#35ff68" stroke="none" /><path d="M 118.73160827565052 90.50648371742162 l 22.14925995937326 -11.225643680831734 a45.83152820099667,45.83152820099667 0 0,0 0.35058933793017216,0.7067667120158451 l -22.33920931025684 10.84271738031694" fill="#ff7e0b" stroke="none" /><path d="M 118.89224826269711 90.83032412892265 l 23.711267233112146 -11.508669164031781 a47.35666253013066,47.35666253013066 0 0,0 0.3496315472522803,0.7364132056745526 l -23.90585697420618 11.098813542716687" fill="#ff9b0e" stroke="none" /><path d="M 119.196687751892 91.48605970444005 l 23.86474329294483 -10.584273818016932 a47.10656669677026,47.10656669677026 0 0,0 0.3223643457972033,0.7440613556622354 l -24.043398348584713 10.171913317768094" fill="#ff960d" stroke="none" /><path d="M 119.47837535516314 92.15188598940014 l 47.00687939563503 -18.93973917499605 a71.67899397711696,71.67899397711696 0 0,0 0.45125834960788613,1.1484032786509561 l -47.32593129512462 18.127786891449308" fill="#38ff7f" stroke="none" /><path d="M 119.7369772167798 92.82701384747503 l 17.245121809657174 -6.267374106006057 a39.34868399680339,39.34868399680339 0 0,0 0.22587441095252372,0.6385773763380801 l -17.350449301419506 5.969599103241362" fill="#ff0000" stroke="none" /><path d="M 119.85752413597 93.16781622104841 l 23.197280165569314 -7.981260915398413 a45.53190438754362,45.53190438754362 0 0,0 0.24861006556194132,0.7433124523437836 l -23.331227524903028 7.580775360132315" fill="#ff790b" stroke="none" /><path d="M 120.18372546131832 94.20196356495316 l 23.245517656070287 -6.677575880613326 a45.18561784904459,45.18561784904459 0 0,0 0.20831264704381872,0.7494114259453849 l -23.357017073680467 6.276453151248989" fill="#ff720a" stroke="none" /><path d="M 120.28053869075195 94.5502522615342 l 43.99793645559694 -11.823041702802074 a66.55878320869581,66.55878320869581 0 0,0 0.28779912674280406,1.1090074359924678 l -44.19493191421005 11.063937841260756" fill="#33ff2f" stroke="none" /><path d="M 120.45610955862082 95.25157060432595 l 23.207549528490624 -5.387114791639596 a44.82459571316264,44.82459571316264 0 0,0 0.16799748966620492,0.7530998051762325 l -23.296841405158865 4.986836816913399" fill="#ff6b09" stroke="none" /><path d="M 120.53481517161879 95.60439243477599 l 33.4649190455103 -7.163378394043678 a55.22301559972192,55.22301559972192 0 0,0 0.19096829878804358,0.9312292459013904 l -33.58326664021334 6.586273491978876" fill="#dbff1b" stroke="none" /><path d="M 120.67395015179393 96.31383870115 l 24.12401875970118 -4.301307861914594 a45.50447980352537,45.50447980352537 0 0,0 0.13085384894407165,0.7723068236795891 l -24.194484470165474 3.8854152499191676" fill="#ff780b" stroke="none" /><path d="M 120.78858239683441 97.02765380044208 l 56.27719250516477 -8.046498605406947 a77.84952538122187,77.84952538122187 0 0,0 0.1782531738941751,1.3281931915744363 l -56.40736167811678 7.076587071767847" fill="#42ffda" stroke="none" /><path d="M 120.87857604477298 97.74499172005257 l 31.104008998811885 -3.35941482223065 a52.284901210424074,52.284901210424074 0 0,0 0.08894128355509852,0.8956265876233737 l -31.15722740804921 2.8235127039028414" fill="#fff216" stroke="none" /><path d="M 120.91429891909075 98.10471618934814 l 34.19627086328344 -3.098915187287799 a55.33639783514064,55.33639783514064 0 0,0 0.07780170045963432,0.9493778100883488 l -34.24454704756256 2.5098234599916815" fill="#daff1c" stroke="none" /><path d="M 120.96714384426684 98.82574320788733 l 35.20466182257838 -1.9716234870251932 a56.259828604471366,56.259828604471366 0 0,0 0.045828698515448976,0.9673713929699176 l -35.23338412932733 1.3653409874322757" fill="#cbff1d" stroke="none" /><line stroke="#e1ed5e" stroke-width="0.3" x1="184.98032266829074" x2="189.97916517819016" y1="98.17113171792111" y2="98.06355123074" /><path d="M 185.9800911702706 98.14961562048488 a86.0,86.0 0 0,1 -9.607161424134198,41.387399972396054" fill="none" id="id52" stroke="none" /><text fill="#e1ed5e" style="font-size:6.75px; font-family:Arial;" text-anchor="middle"><textPath startOffset="21.466115282336823" xlink:href="#id52">April</textPath></text><path d="M 120.99513854157772 99.54816195383933 l 62.98541562473312 -1.355514138482002 a84.0,84.0 0 0,0 0.018667971529137795,1.4458549677581491 l -62.99941660337998 0.27112291266339017" fill="#4dd2ff" stroke="none" /><line stroke="#e1ed5e" stroke-width="0.3" x1="174.80103733775053" x2="179.2010983576182" y1="140.37084112569926" y2="142.7455964860345" /><path d="M 175.68104954172406 140.8457921977663 a86.0,86.0 0 0,1 -30.038265399797805,32.042727171017184" fill="none" id="id53" stroke="none" /><text fill="#e1ed5e" style="font-size:6.75px; font-family:Arial;" text-anchor="middle"><textPath startOffset="22.206326154141568" xlink:href="#id53">May</textPath></text><line stroke="#e1ed5e" stroke-width="0.3" x1="143.8653032363475" x2="146.44561519142675" y1="172.8068346515853" y2="177.08958963109032" /><path d="M 144.38136562736335 173.6633856474863 a86.0,86.0 0 0,1 -40.68145358897372,12.25698825130547" fill="none" id="id54" stroke="none" /><text fill="#e1ed5e" style="font-size:6.75px; font-family:Arial;" text-anchor="middle"><textPath startOffset="21.466115282336833" xlink:href="#id54">June</textPath></text><line stroke="#e1ed5e" stroke-width="0.3" x1="102.19456741930631" x2="102.32365962044197" y1="184.97166512339345" y2="189.96999836594603" /><path d="M 102.22038585953345 185.97133177190398 a86.0,86.0 0 0,1 -42.740103519485714,-10.115201625700543" fill="none" id="id55" stroke="none" /><text fill="#e1ed5e" style="font-size:6.75px; font-family:Arial;" text-anchor="middle"><textPath startOffset="22.20632615414155" xlink:href="#id55">July</textPath></text><line stroke="#e1ed5e" stroke-width="0.3" x1="58.666819895761336" x2="56.23545636021788" y1="174.27360380694188" y2="178.64263932499728" /><path d="M 58.180547188652646 175.14741091055294 a86.0,86.0 0 0,1 -31.652253787137756,-30.449443065178592" fill="none" id="id56" stroke="none" /><text fill="#e1ed5e" style="font-size:6.75px; font-family:Arial;" text-anchor="middle"><textPath startOffset="22.20632615414155" xlink:href="#id56">August</textPath></text><line stroke="#e1ed5e" stroke-width="0.3" x1="26.63291911575756" x2="22.317208475507996" y1="142.92168965132927" y2="145.44649492493687" /><path d="M 25.769776987707644 143.4266507060508 a86.0,86.0 0 0,1 -11.730757126820373,-40.83630448921669" fill="none" id="id57" stroke="none" /><text fill="#e1ed5e" style="font-size:6.75px; font-family:Arial;" text-anchor="middle"><textPath startOffset="21.46611528233685" xlink:href="#id57">September</textPath></text><line stroke="#e1ed5e" stroke-width="0.3" x1="15.007084014347285" x2="10.007500721073583" y1="101.09737516637583" y2="101.16192664675087" /><path d="M 14.007167355692545 101.11028546245083 a86.0,86.0 0 0,1 10.666146001902534,-42.60595125391555" fill="none" id="id58" stroke="none" /><text fill="#e1ed5e" style="font-size:6.75px; font-family:Arial;" text-anchor="middle"><textPath startOffset="22.20632615414155" xlink:href="#id58">October</textPath></text><line stroke="#e1ed5e" stroke-width="0.3" x1="26.266209847984243" x2="21.928928074336255" y1="57.711370442889674" y2="55.22380399835377" /><path d="M 25.398753493254645 57.213857153982495 a86.0,86.0 0 0,1 29.58750427330803,-30.492523968695096" fill="none" id="id59" stroke="none" /><text fill="#e1ed5e" style="font-size:6.75px; font-family:Arial;" text-anchor="middle"><textPath startOffset="21.46611528233685" xlink:href="#id59">November</textPath></text><line stroke="#e1ed5e" stroke-width="0.3" x1="56.762969772571076" x2="54.21961505331055" y1="26.818313649435495" y2="22.513508569990535" /><path d="M 56.25429882871897 25.957352633546506 a86.0,86.0 0 0,1 42.265352541879196,-11.944610805530505" fill="none" id="id60" stroke="none" /><text fill="#e1ed5e" style="font-size:6.75px; font-family:Arial;" text-anchor="middle"><textPath startOffset="22.20632615414155" xlink:href="#id60">December</textPath></text></svg>