<?xml version="1.0" encoding="utf-8" ?>
<svg baseProfile="full" height="200mm" version="1.1" viewBox="0,0,200,200" width="200mm" xmlns="http://www.w3.org/2000/svg" xmlns:ev="http://www.w3.org/2001/xml-events" xmlns:xlink="http://www.w3.org/1999/xlink"><defs /><rect fill="#1a1a1a" height="200" width="200" x="0" y="0" /><text alignment-baseline="middle" fill="#e1ed5e" style="dominant-baseline: central; font-size:9.0px; font-family:Arial;" text-anchor="middle" x="100.0" y="100.0">2024</text><line stroke="#e1ed5e" stroke-width="0.3" x1="100.0" x2="100.0" y1="15.0" y2="10.0" /><path d="M 100.0 14.0 a86.0,86.0 0 0,1 42.35913384403234,11.155469271406648" fill="none" id="id85" stroke="none" /><text fill="#e1ed5e" style="font-size:6.75px; font-family:Arial;" text-anchor="middle"><textPath startOffset="22.145653131862478" xlink:href="#id85">January</textPath></text><path d="M 100.0 79.0 l 0.0 -24.654903001696468 a45.65490300169647,45.65490300169647 0 0,0 0.783727119846301,0.006727354734073835 l -0.42323419499744613 24.651270045156828" fill="#ffa10e" stroke="none" /><path d="M 100.72087961077811 79.0123766808444 l 0.9046539538565377 -26.338012802486997 a47.35354467923048,47.35354467923048 0 0,0 0.8121679494141026,0.034877986291445506 l -1.3566476638714766 26.318602247769718" fill="#ffbe11" stroke="none" /><path d="M 101.08105385017728 79.02784411241856 l 1.2680184899247318 -24.59921995067703 a45.63187960900625,45.63187960900625 0 0,0 0.7819471238148773,0.047039997222703044 l -1.6901099658720715 24.573827975629634" fill="#ffa00e" stroke="none" /><path d="M 101.80034050326958 79.07731436759882 l 5.401021509808744 -62.76805689720356 a84.0,84.0 0 0,0 1.4356017464599482,0.1359529779792652 l -6.477722819653705 62.666092163719114" fill="#4dd2ff" stroke="none" /><path d="M 102.51750503828377 79.15144685158666 l 2.0760097691955877 -17.19233898304549 a38.31722657557327,38.31722657557327 0 0,0 0.6523456335429999,0.08445920267671495 l -2.3708332246293793 17.15416818416838" fill="#ff1c02" stroke="none" /><path d="M 102.87502721639298 79.19773525538626 l 2.574654209849424 -18.628915299910407 a39.80599185237331,39.80599185237331 0 0,0 0.6760856161965105,0.09936130329404001 l -2.8940649316536162 18.581972923317483" fill="#ff3805" stroke="none" /><path d="M 103.58742460773223 79.30868818359171 l 4.887038528648576 -28.187139553293882 a49.60765599935374,49.60765599935374 0 0,0 0.8378148825199269,0.1526777806772791 l -5.370188144719556 28.099093598685236" fill="#ffe315" stroke="none" /><path d="M 103.94208987418118 79.37332000966035 l 3.2841119414362283 -17.183861411208632 a38.494870226540954,38.494870226540954 0 0,0 0.6480034244815217,0.12961883329065005 l -3.5786118514487066 17.124953181255123" fill="#ff1f03" stroke="none" /><path d="M 104.64783097203109 79.52079915486377 l 7.110536115870889 -31.330334108488525 a53.12708451143091,53.12708451143091 0 0,0 0.8876469390764228,0.20948226068472656 l -7.647315208687196 31.203655704157573" fill="#e3ff1b" stroke="none" /><path d="M 104.9986988182912 79.60360301121754 l 4.151612305177814 -16.93999494629846 a38.44131054459845,38.44131054459845 0 0,0 0.6395804964648347,0.1625788611412853 l -4.441798094868043 16.866230853321905" fill="#ff1e03" stroke="none" /><path d="M 105.3480935250658 79.69241777938227 l 6.531079394760742 -24.799572254461303 a46.645151238877794,46.645151238877794 0 0,0 0.7725738646236121,0.21056844228654167 l -6.955834660319048 24.68380331803062" fill="#ffb210" stroke="none" /><path d="M 106.04205211174951 79.88797359093562 l 6.475136388515801 -21.553623113392078 a43.50524517893619,43.50524517893619 0 0,0 0.71340184269443,0.22101371447606413 l -6.844178864081861 21.439292811109368" fill="#ff7b0b" stroke="none" /><path d="M 106.38641147887787 79.99465700312896 l 4.817797204317193 -15.091681123350751 a36.84203298288537,36.84203298288537 0 0,0 0.6008361235938172,0.1975067679471222 l -5.076156065558752 15.006753434001608" fill="#ff0000" stroke="none" /><path d="M 106.72888874123014 80.10723608172694 l 18.174545923012808 -53.729815616212875 a77.72043023161879,77.72043023161879 0 0,0 1.2601598994306695,0.4383490275274494 l -19.094211594488495 53.409908156116835" fill="#43ffdd" stroke="none" /><path d="M 107.40779381753099 80.34994680014964 l 7.102850994630698 -18.84115613272054 a41.13553219235784,41.13553219235784 0 0,0 0.6586146152457718,0.25476628183044714 l -7.425237872369996 18.71644996275205" fill="#ff5007" stroke="none" /><path d="M 107.74402155503746 80.48000691201159 l 7.028165850477216 -17.715569080939588 a40.0587644689617,40.0587644689617 0 0,0 0.6370212230777469,0.2590709857416002 l -7.331241534745403 17.592310838618694" fill="#ff3d05" stroke="none" /><path d="M 108.4095320186766 80.7573450057729 l 11.06444838320692 -25.317623200272926 a48.629767688774514,48.629767688774514 0 0,0 0.7620668937438076,0.3408628284720407 l -11.497428679806358 25.123956620891033" fill="#ffd313" stroke="none" /><path d="M 108.73861861582097 80.90454125486305 l 7.85659811503078 -17.168084771553637 a39.880393763488016,39.880393763488016 0 0,0 0.6200666028108229,0.2902224791136776 l -8.15015343171311 17.030686060869428" fill="#ff3905" stroke="none" /><line stroke="#e1ed5e" stroke-width="0.3" x1="143.13028292997686" x2="145.6673583964461" y1="26.7553504044142" y2="22.446841604673864" /><path d="M 143.63769802327073 25.89364864446614 a86.0,86.0 0 0,1 29.32050498858742,28.57503671076993" fill="none" id="id86" stroke="none" /><text fill="#e1ed5e" style="font-size:6.75px; font-family:Arial;" text-anchor="middle"><textPath startOffset="20.669276256404974" xlink:href="#id86">February</textPath></text><path d="M 111.27062007382361 82.28071324371311 l 10.248016583726537 -16.111584219929235 a40.09463249125803,40.09463249125803 0 0,0 0.5775810665705036,0.37438106921452335 l -10.523083282554047 15.933289309010817" fill="#ff3d05" stroke="none" /><path d="M 111.8722381534696 82.67804972795209 l 11.44119798969982 -16.69304979131644 a41.23756217470081,41.23756217470081 0 0,0 0.580477419374705,0.40521832087180604 l -11.726070500248285 16.49418665463951" fill="#ff5207" stroke="none" /><path d="M 112.16784306229584 82.88440491214696 l 10.936749593932547 -15.383907950541206 a39.875304381945966,39.875304381945966 0 0,0 0.5544926712688739,0.40140993274320147 l -11.199223275575388 15.19389724642493" fill="#ff3905" stroke="none" /><path d="M 112.7482090630111 83.31218511350987 l 20.207259731724253 -26.451951650578824 a54.28722115151585,54.28722115151585 0 0,0 0.7356953939576012,0.5720811881552389 l -20.658365070317082 26.101169410802793" fill="#d1ff1c" stroke="none" /><path d="M 113.03279911837588 83.53348406188908 l 15.620678561553403 -19.736217075214203 a46.16989994345132,46.16989994345132 0 0,0 0.6172458972332716,0.4972096022666257 l -15.957175229141933 19.46515917915417" fill="#ffa90f" stroke="none" /><line stroke="#e1ed5e" stroke-width="0.3" x1="172.87174338648825" x2="177.1583165268699" y1="56.24261187166439" y2="53.66864786411523" /><path d="M 173.72905801456457 55.72781907015455 a86.0,86.0 0 0,1 12.242430191666344,42.057860355516425" fill="none" id="id87" stroke="none" /><text fill="#e1ed5e" style="font-size:6.75px; font-family:Arial;" text-anchor="middle"><textPath startOffset="22.145653131862474" xlink:href="#id87">March</textPath></text><line stroke="#e1ed5e" stroke-width="0.3" x1="184.99686870605535" x2="189.99668451229388" y1="99.2704041080226" y2="99.22748670261217" /><path d="M 185.99683186730306 99.26182062694052 a86.0,86.0 0 0,1 -10.086455211305974,41.156179273409016" fill="none" id="id88" stroke="none" /><text fill="#e1ed5e" style="font-size:6.75px; font-family:Arial;" text-anchor="middle"><textPath startOffset="21.40746469413373" xlink:href="#id88">April</textPath></text><line stroke="#e1ed5e" stroke-width="0.3" x1="174.33088141563837" x2="178.70328620479359" y1="141.23008692659167" y2="143.65538615756765" /><path d="M 175.20536237346943 141.71514677278685 a86.0,86.0 0 0,1 -30.301960400862466,31.631185727798858" fill="none" id="id89" stroke="none" /><text fill="#e1ed5e" style="font-size:6.75px; font-family:Arial;" text-anchor="middle"><textPath startOffset="22.145653131862474" xlink:href="#id89">May</textPath></text><line stroke="#e1ed5e" stroke-width="0.3" x1="143.1302829299769" x2="145.66735839644613" y1="173.24464959558577" y2="177.55315839532614" /><path d="M 143.63769802327073 174.10635135553383 a86.0,86.0 0 0,1 -40.68552437913181,11.842963189579606" fill="none" id="id90" stroke="none" /><text fill="#e1ed5e" style="font-size:6.75px; font-family:Arial;" text-anchor="middle"><textPath startOffset="21.407464694133747" xlink:href="#id90">June</textPath></text><line stroke="#e1ed5e" stroke-width="0.3" x1="101.45913802915013" x2="101.54496967792366" y1="184.9874750549273" y2="189.98673829345242" /><path d="M 101.47630435890484 185.9873277026323 a86.0,86.0 0 0,1 -42.54439059252881,-10.42667462771756" fill="none" id="id91" stroke="none" /><text fill="#e1ed5e" style="font-size:6.75px; font-family:Arial;" text-anchor="middle"><textPath startOffset="22.145653131862474" xlink:href="#id91">July</textPath></text><line stroke="#e1ed5e" stroke-width="0.3" x1="58.13341422392154" x2="55.67067388415222" y1="173.97424548756322" y2="178.32567169271397" /><path d="M 57.64086615596768 174.84453072859336 a86.0,86.0 0 0,1 -31.369924170532247,-30.572349798747897" fill="none" id="id92" stroke="none" /><text fill="#e1ed5e" style="font-size:6.75px; font-family:Arial;" text-anchor="middle"><textPath startOffset="22.145653131862474" xlink:href="#id92">August</textPath></text><line stroke="#e1ed5e" stroke-width="0.3" x1="26.387840678322732" x2="22.057713659400548" y1="142.50000000000003" y2="145.00000000000006" /><path d="M 25.521815274538298 143.00000000000003 a86.0,86.0 0 0,1 -11.493303480769221,-40.785679425670985" fill="none" id="id93" stroke="none" /><text fill="#e1ed5e" style="font-size:6.75px; font-family:Arial;" text-anchor="middle"><textPath startOffset="21.40746469413373" xlink:href="#id93">September</textPath></text><line stroke="#e1ed5e" stroke-width="0.3" x1="15.003131293944662" x2="10.003315487706104" y1="100.72959589197737" y2="100.7725132973878" /><path d="M 14.003168132696942 100.73817937305945 a86.0,86.0 0 0,1 10.791469493833604,-42.45332614584628" fill="none" id="id94" stroke="none" /><text fill="#e1ed5e" style="font-size:6.75px; font-family:Arial;" text-anchor="middle"><textPath startOffset="22.145653131862435" xlink:href="#id94">October</textPath></text><line stroke="#e1ed5e" stroke-width="0.3" x1="26.387840678322718" x2="22.05771365940052" y1="57.49999999999999" y2="54.99999999999999" /><path d="M 25.521815274538284 56.99999999999999 a86.0,86.0 0 0,1 29.574782752854787,-30.34633250058573" fill="none" id="id95" stroke="none" /><text fill="#e1ed5e" style="font-size:6.75px; font-family:Arial;" text-anchor="middle"><textPath startOffset="21.40746469413373" xlink:href="#id95">November</textPath></text><line stroke="#e1ed5e" stroke-width="0.3" x1="56.869717070023135" x2="54.33264160355391" y1="26.7553504044142" y2="22.446841604673864" /><path d="M 56.362301976729285 25.89364864446614 a86.0,86.0 0 0,1 42.16139366436587,-11.88097634709845" fill="none" id="id96" stroke="none" /><text fill="#e1ed5e" style="font-size:6.75px; font-family:Arial;" text-anchor="middle"><textPath startOffset="22.145653131862474" xlink:href="#id96">December</textPath></text></svg>