<?xml version="1.0" encoding="utf-8" ?>
<svg baseProfile="full" height="200mm" version="1.1" viewBox="0,0,200,200" width="200mm" xmlns="http://www.w3.org/2000/svg" xmlns:ev="http://www.w3.org/2001/xml-events" xmlns:xlink="http://www.w3.org/1999/xlink"><defs /><rect fill="#1a1a1a" height="200" width="200" x="0" y="0" /><text alignment-baseline="middle" fill="#e1ed5e" style="dominant-baseline: central; font-size:9.0px; font-family:Arial;" text-anchor="middle" x="100.0" y="100.0">2023</text><line stroke="#e1ed5e" stroke-width="0.3" x1="100.0" x2="100.0" y1="15.0" y2="10.0" /><path d="M 100.0 14.0 a86.0,86.0 0 0,1 42.46469731375804,11.215312516191453" fill="none" id="id49" stroke="none" /><text fill="#e1ed5e" style="font-size:6.75px; font-family:Arial;" text-anchor="middle"><textPath startOffset="22.20632615414155" xlink:href="#id49">January</textPath></text><path d="M 102.16513564639614 79.11191278185805 l 1.9944169589915188 -19.24108332801162 a40.34417190374919,40.34417190374919 0 0,0 0.6901414222454355,0.07754543009109578 l -2.3253250847466798 19.20390194444992" fill="#ff3004" stroke="none" /><path d="M 104.66035177308747 79.52364482259891 l 4.457507481594756 -19.585110919339108 a41.08596382231356,41.08596382231356 0 0,0 0.6882413748097432,0.1628844972304755 l -4.793972543367023 19.505480509967764" fill="#ff3e05" stroke="none" /><path d="M 106.40334571778207 80.00007090966166 l 7.467764807503471 -23.324488977478744 a45.49080025807068,45.49080025807068 0 0,0 0.7437034837397491,0.2451873457941903 l -7.868151113485638 23.192487907425317" fill="#ff8f0d" stroke="none" /><path d="M 107.08798089147638 80.2323363322302 l 6.6088744385918705 -18.431484103139717 a40.58052163731511,40.58052163731511 0 0,0 0.6555061985116986,0.24142846495623255 l -6.925162962876145 18.314992370377162" fill="#ff3405" stroke="none" /><path d="M 109.73455568895987 81.39251694778311 l 8.993339370699681 -17.190657208208943 a40.40100121866712,40.40100121866712 0 0,0 0.6134313982756071,0.3276738084841699 l -9.2879158155036 17.033304673223018" fill="#ff3104" stroke="none" /><path d="M 110.36928655335952 81.73862282372117 l 8.824696717234286 -15.541196049546334 a38.871878658988265,38.871878658988265 0 0,0 0.5790119361782287,0.33540108606891095 l -9.090905385877843 15.386990806087374" fill="#ff1402" stroke="none" /><line stroke="#e1ed5e" stroke-width="0.3" x1="143.23703022742887" x2="145.7803849466894" y1="26.81831364943548" y2="22.513508569990506" /><path d="M 143.74570117128098 25.957352633546492 a86.0,86.0 0 0,1 28.547481713284135,27.462654790039103" fill="none" id="id50" stroke="none" /><text fill="#e1ed5e" style="font-size:6.75px; font-family:Arial;" text-anchor="middle"><textPath startOffset="19.985693538727396" xlink:href="#id50">February</textPath></text><path d="M 111.2981086023043 82.29822771554956 l 11.737759964555542 -18.390613981151137 a42.817187985375995,42.817187985375995 0 0,0 0.617858086798194,0.4018720864943495 l -12.052585077138016 18.185842970497262" fill="#ff5e08" stroke="none" /><path d="M 113.6212207817346 84.01681056812373 l 15.726783094741876 -18.45386381919275 a45.24617075676838,45.24617075676838 0 0,0 0.5884290391028988,0.5102798642339961 l -16.042105932491538 18.180418961539083" fill="#ff8b0c" stroke="none" /><path d="M 113.89432698308785 84.25364557470407 l 12.65310398071565 -14.33968411013981 a40.12400535257712,40.12400535257712 0 0,0 0.5139484082610919,0.4614279554663519 l -12.898063376572733 14.11975714590416" fill="#ff2c04" stroke="none" /><path d="M 114.42810811169701 84.74124197986012 l 12.250480501467223 -12.955760807668646 a38.83047982030634,38.83047982030634 0 0,0 0.4817138405599836,0.46340833295732853 l -12.471677585639624 12.742969387949016" fill="#ff1302" stroke="none" /><path d="M 114.94478906791727 85.2469230424477 l 13.787566936573967 -13.610699699291692 a40.3739037969844,40.3739037969844 0 0,0 0.48397878092922425,0.4987826766834734 l -14.0198099812063 13.371352827058105" fill="#ff3004" stroke="none" /><path d="M 115.4437574822437 85.77008943001954 l 17.297421699627865 -15.937880671846985 a44.520562020597865,44.520562020597865 0 0,0 0.5144379760783938,0.5680552620291606 l -17.569203316322294 15.637772622548276" fill="#ff7d0b" stroke="none" /><path d="M 115.9244219780498 86.31012108654704 l 15.945065240548542 -13.707625476836917 a42.02722287270903,42.02722287270903 0 0,0 0.4668811924197374,0.5526400699162624 l -16.1786570464554 13.431126457291548" fill="#ff5007" stroke="none" /><path d="M 116.38621287248628 86.86637796730983 l 17.77388613636574 -14.24584828621723 a43.77839374895457,43.77839374895457 0 0,0 0.4662313866716382,0.5920665145343742 l -18.01647160363134 13.937789377729818" fill="#ff700a" stroke="none" /><path d="M 116.82858285166822 87.43820079747576 l 16.35337011576152 -12.207073732200389 a41.40699299863796,41.40699299863796 0 0,0 0.4214391670093067,0.5748425501778324 l -16.561071895284456 11.923768738351063" fill="#ff4406" stroke="none" /><path d="M 117.2510076193507 88.02491185347247 l 15.362111118507908 -10.663877659791266 a39.70060813878467,39.70060813878467 0 0,0 0.38486059595853916,0.5647354352659404 l -15.543396180135181 10.39786420125492" fill="#ff2403" stroke="none" /><path d="M 117.45458315368197 88.32363383020206 l 20.727030749175018 -13.865493006000348 a45.93715500967765,45.93715500967765 0 0,0 0.43400410076212387,0.6610180207705755 l -20.962631485295066 13.506656921252098" fill="#ff970d" stroke="none" /><line stroke="#e1ed5e" stroke-width="0.3" x1="172.23445277983987" x2="176.4835382374775" y1="55.19839476539836" y2="52.563006222186495" /><path d="M 173.08426987136738 54.67131705675599 a86.0,86.0 0 0,1 12.851231095245387,41.99856678651699" fill="none" id="id51" stroke="none" /><text fill="#e1ed5e" style="font-size:6.75px; font-family:Arial;" text-anchor="middle"><textPath startOffset="22.20632615414155" xlink:href="#id51">March</textPath></text><path d="M 117.84615892207809 88.93136811851018 l 16.312674550078924 -10.117526711812229 a40.19551243757318,40.19551243757318 0 0,0 0.3596238936575997,0.5911271244370561 l -16.484414242022748 9.835231814168091" fill="#ff2d04" stroke="none" /><path d="M 118.21658344932153 89.55222093294921 l 24.90540696787961 -14.284028083492508 a49.71084733207484,49.71084733207484 0 0,0 0.4193284166550239,0.7459384633071781 l -25.147593025827067 13.853206110250536" fill="#ffd814" stroke="none" /><path d="M 118.3937258080291 89.86733742301442 l 39.67370932711164 -21.85529533193051 a66.29522210805516,66.29522210805516 0 0,0 0.5420167950698116,1.0042748031795594 l -40.04403422139991 21.169139545418492" fill="#2fff30" stroke="none" /><path d="M 118.73160827565052 90.50648371742162 l 20.365236015956278 -10.321468230112158 a43.83145953308323,43.83145953308323 0 0,0 0.335289766267986,0.6759237091373953 l -20.53988579517767 9.969384932475812" fill="#ff710a" stroke="none" /><path d="M 118.89224826269711 90.83032412892265 l 21.801430581674527 -10.5816972749864 a45.233751105163805,45.233751105163805 0 0,0 0.33395821288843114,0.7034011663056824 l -21.980346988404715 10.204853693040176" fill="#ff8a0c" stroke="none" /><path d="M 119.196687751892 91.48605970444005 l 21.942544830503817 -9.731757844586728 a45.00379937393964,45.00379937393964 0 0,0 0.30797447916244164,0.7108475594851758 l -22.10681001950894 9.35261114051495" fill="#ff860c" stroke="none" /><path d="M 119.47837535516314 92.15188598940014 l 43.220685251860104 -17.414227793024725 a67.59702740806233,67.59702740806233 0 0,0 0.4255601443890153,1.083004149406167 l -43.51403894613082 16.667674638722772" fill="#32ff45" stroke="none" /><path d="M 119.7369772167798 92.82701384747503 l 15.856104286182259 -5.762565119702445 a37.87077946904347,37.87077946904347 0 0,0 0.21739075201544317,0.6145929301011547 l -15.95294811900751 5.488774563174675" fill="#ff0000" stroke="none" /><path d="M 119.85752413597 93.16781622104841 l 21.328842876312876 -7.338406002961337 a43.55596907930895,43.55596907930895 0 0,0 0.2378212041441271,0.7110551299367202 l -21.45200137422877 6.970177770102303" fill="#ff6c09" stroke="none" /><path d="M 120.18372546131832 94.20196356495316 l 21.373195052442984 -6.139726973839512 a43.237574374537026,43.237574374537026 0 0,0 0.19933186705123776,0.7171027820111251 l -21.475713690060587 5.770912888409435" fill="#ff6609" stroke="none" /><path d="M 120.28053869075195 94.5502522615342 l 40.45409922393781 -10.870748510139883 a62.889226743769264,62.889226743769264 0 0,0 0.27193202257973853,1.0478650110530332 l -40.63522757838785 10.172787073538" fill="#5cff2a" stroke="none" /><path d="M 120.45610955862082 95.25157060432595 l 21.338285087926693 -4.9532067607686265 a42.90563095892375,42.90563095892375 0 0,0 0.16080542788983085,0.7208592024543437 l -21.42038490281856 4.585169388764319" fill="#ff6008" stroke="none" /><path d="M 120.53481517161879 95.60439243477599 l 30.76946931259784 -6.586400265014963 a52.466504575975534,52.466504575975534 0 0,0 0.18143592872316097,0.8847460241126994 l -30.878284537235995 6.055778584738852" fill="#f8ff18" stroke="none" /><path d="M 120.67395015179393 96.31383870115 l 22.18093681666162 -3.9548567286605483 a43.53075342302087,43.53075342302087 0 0,0 0.12517815075421,0.7388085316801726 l -22.245726828936053 3.572462408664538" fill="#ff6b09" stroke="none" /><path d="M 120.78858239683441 97.02765380044208 l 51.744316053235586 -7.39838908847284 a73.27055007288108,73.27055007288108 0 0,0 0.16776862851129878,1.2500711503783744 l -51.86400068080472 6.506599596029801" fill="#3bff9c" stroke="none" /><path d="M 120.87857604477298 97.74499172005257 l 28.59872002338248 -3.088828965650231 a49.76504217544028,49.76504217544028 0 0,0 0.0846547784310401,0.8524620660015079 l -28.64765192749575 2.596091368944288" fill="#ffd914" stroke="none" /><path d="M 120.91429891909075 98.10471618934814 l 31.44191400858171 -2.8493114125846914 a52.57075437883821,52.57075437883821 0 0,0 0.07391326947779785,0.901929103075436 l -31.486301761878998 2.3076683923014865" fill="#f7ff19" stroke="none" /><path d="M 120.96714384426684 98.82574320788733 l 32.36908358084128 -1.8128180228829156 a53.41980692489666,53.41980692489666 0 0,0 0.043515245016583826,0.9185380460439976 l -32.39549243409136 1.2553688702159183" fill="#e9ff1a" stroke="none" /><line stroke="#e1ed5e" stroke-width="0.3" x1="184.98032266829074" x2="189.97916517819016" y1="98.17113171792111" y2="98.06355123074" /><path d="M 185.9800911702706 98.14961562048488 a86.0,86.0 0 0,1 -9.607161424134198,41.387399972396054" fill="none" id="id52" stroke="none" /><text fill="#e1ed5e" style="font-size:6.75px; font-family:Arial;" text-anchor="middle"><textPath startOffset="21.466115282336823" xlink:href="#id52">April</textPath></text><path d="M 120.99513854157772 99.54816195383933 l 57.91222176784122 -1.2463335300495852 a78.92563143683242,78.92563143683242 0 0,0 0.017540255245023933,1.3585120987665822 l -57.92509503020396 0.2492851732225404" fill="#45ffeb" stroke="none" /><path d="M 120.99824983174949 100.27111621757518 l 20.00112273246052 0.2582419385392157 a41.00278979187077,41.00278979187077 0 0,0 -0.015186529940047001,0.7056583719904387 l -19.993714139835465 -0.6024901263197693" fill="#ff3c05" stroke="none" /><path d="M 120.9904718944345 100.63252640178507 l 28.954000826259318 0.8724992011623928 a49.96714377882387,49.96714377882387 0 0,0 -0.033306354305752635,0.8594890111730349 l -28.934692339102362 -1.3707654593494338" fill="#ffdc14" stroke="none" /><path d="M 120.9764740272857 100.99374915477107 l 20.55217272345294 0.9736481091185107 a41.57522282491816,41.57522282491816 0 0,0 -0.04001842695027041,0.7145558960557163 l -20.532367945615142 -1.3272757215096505" fill="#ff4706" stroke="none" /><path d="M 120.95626037817324 101.35467743843564 l 31.798317118189093 2.055541494659916 a52.8646861334799,52.8646861334799 0 0,0 -0.06651747298934323,0.9075780705612472 l -31.758223086535413 -2.6025927017179336" fill="#f2ff19" stroke="none" /><path d="M 120.89721153311464 102.0752229133903 l 62.69163459934395 6.2256687401709 a84.0,84.0 0 0,0 -0.15527079399579247,1.4376147124608343 l -62.575181503847105 -7.303879774516526" fill="#4dd2ff" stroke="none" /><path d="M 120.81339534386255 102.79330883721812 l 24.019157561303878 3.2235454124648024 a45.23450381132166,45.23450381132166 0 0,0 -0.11021268163330648,0.7708272386476613 l -23.960110828653967 -3.636518123092873" fill="#ff8a0c" stroke="none" /><path d="M 120.76222939487914 103.15116336523771 l 30.349300073429283 4.606229934805755 a51.696862529570595,51.696862529570595 0 0,0 -0.1411034983438396,0.8786516188808965 l -30.265514820724157 -5.127960783379857" fill="#fff917" stroke="none" /><path d="M 120.64145759157962 103.86396538481128 l 28.40561788963819 5.317372756878966 a49.89902387153815,49.89902387153815 0 0,0 -0.16530849691389737,0.8429044643398613 l -28.30987945974863 -5.805540948286773" fill="#ffdb14" stroke="none" /><path d="M 120.49622156327973 104.57218783832717 l 59.027222707434525 13.167478159812374 a81.47805801811273,81.47805801811273 0 0,0 -0.31714144530848176,1.3662370460261697 l -58.791820696195494 -14.18158386318711" fill="#49f1ff" stroke="none" /><path d="M 120.32669344350535 105.2749913415812 l 25.717524499351484 6.673968859619257 a47.569398312982386,47.569398312982386 0 0,0 -0.21250365538119498,0.7908051549736157 l -25.59883276762851 -7.115664947768421" fill="#ffb410" stroke="none" /><line stroke="#e1ed5e" stroke-width="0.3" x1="174.80103733775053" x2="179.2010983576182" y1="140.37084112569926" y2="142.7455964860345" /><path d="M 175.68104954172406 140.8457921977663 a86.0,86.0 0 0,1 -30.038265399797805,32.042727171017184" fill="none" id="id53" stroke="none" /><text fill="#e1ed5e" style="font-size:6.75px; font-family:Arial;" text-anchor="middle"><textPath startOffset="22.206326154141568" xlink:href="#id53">May</textPath></text><line stroke="#e1ed5e" stroke-width="0.3" x1="143.8653032363475" x2="146.44561519142675" y1="172.8068346515853" y2="177.08958963109032" /><path d="M 144.38136562736335 173.6633856474863 a86.0,86.0 0 0,1 -40.68145358897372,12.25698825130547" fill="none" id="id54" stroke="none" /><text fill="#e1ed5e" style="font-size:6.75px; font-family:Arial;" text-anchor="middle"><textPath startOffset="21.466115282336833" xlink:href="#id54">June</textPath></text><line stroke="#e1ed5e" stroke-width="0.3" x1="102.19456741930631" x2="102.32365962044197" y1="184.97166512339345" y2="189.96999836594603" /><path d="M 102.22038585953345 185.97133177190398 a86.0,86.0 0 0,1 -42.740103519485714,-10.115201625700543" fill="none" id="id55" stroke="none" /><text fill="#e1ed5e" style="font-size:6.75px; font-family:Arial;" text-anchor="middle"><textPath startOffset="22.20632615414155" xlink:href="#id55">July</textPath></text><line stroke="#e1ed5e" stroke-width="0.3" x1="58.666819895761336" x2="56.23545636021788" y1="174.27360380694188" y2="178.64263932499728" /><path d="M 58.180547188652646 175.14741091055294 a86.0,86.0 0 0,1 -31.652253787137756,-30.449443065178592" fill="none" id="id56" stroke="none" /><text fill="#e1ed5e" style="font-size:6.75px; font-family:Arial;" text-anchor="middle"><textPath startOffset="22.20632615414155" xlink:href="#id56">August</textPath></text><line stroke="#e1ed5e" stroke-width="0.3" x1="26.63291911575756" x2="22.317208475507996" y1="142.92168965132927" y2="145.44649492493687" /><path d="M 25.769776987707644 143.4266507060508 a86.0,86.0 0 0,1 -11.730757126820373,-40.83630448921669" fill="none" id="id57" stroke="none" /><text fill="#e1ed5e" style="font-size:6.75px; font-family:Arial;" text-anchor="middle"><textPath startOffset="21.46611528233685" xlink:href="#id57">September</textPath></text><line stroke="#e1ed5e" stroke-width="0.3" x1="15.007084014347285" x2="10.007500721073583" y1="101.09737516637583" y2="101.16192664675087" /><path d="M 14.007167355692545 101.11028546245083 a86.0,86.0 0 0,1 10.666146001902534,-42.60595125391555" fill="none" id="id58" stroke="none" /><text fill="#e1ed5e" style="font-size:6.75px; font-family:Arial;" text-anchor="middle"><textPath startOffset="22.20632615414155" xlink:href="#id58">October</textPath></text><line stroke="#e1ed5e" stroke-width="0.3" x1="26.266209847984243" x2="21.928928074336255" y1="57.711370442889674" y2="55.22380399835377" /><path d="M 25.398753493254645 57.213857153982495 a86.0,86.0 0 0,1 29.58750427330803,-30.492523968695096" fill="none" id="id59" stroke="none" /><text fill="#e1ed5e" style="font-size:6.75px; font-family:Arial;" text-anchor="middle"><textPath startOffset="21.46611528233685" xlink:href="#id59">November</textPath></text><line stroke="#e1ed5e" stroke-width="0.3" x1="56.762969772571076" x2="54.21961505331055" y1="26.818313649435495" y2="22.513508569990535" /><path d="M 56.25429882871897 25.957352633546506 a86.0,86.0 0 0,1 42.265352541879196,-11.944610805530505" fill="none" id="id60" stroke="none" /><text fill="#e1ed5e" style="font-size:6.75px; font-family:Arial;" text-anchor="middle"><textPath startOffset="22.20632615414155" xlink:href="#id60">December</textPath></text></svg>