<?xml version="1.0" encoding="utf-8" ?>
<svg baseProfile="full" height="200mm" version="1.1" viewBox="0,0,200,200" width="200mm" xmlns="http://www.w3.org/2000/svg" xmlns:ev="http://www.w3.org/2001/xml-events" xmlns:xlink="http://www.w3.org/1999/xlink"><defs /><rect fill="#1a1a1a" height="200" width="200" x="0" y="0" /><text alignment-baseline="middle" fill="#e1ed5e" style="dominant-baseline: central; font-size:9.0px; font-family:Arial;" text-anchor="middle" x="100.0" y="100.0">2025</text><line stroke="#e1ed5e" stroke-width="0.3" x1="100.0" x2="100.0" y1="15.0" y2="10.0" /><path d="M 100.0 14.0 a86.0,86.0 0 0,1 42.46469731375804,11.215312516191453" fill="none" id="id97" stroke="none" /><text fill="#e1ed5e" style="font-size:6.75px; font-family:Arial;" text-anchor="middle"><textPath startOffset="22.20632615414155" xlink:href="#id97">January</textPath></text><path d="M 101.44485096284872 79.0497635885617 l 1.3040139804848812 -18.908110163220638 a39.95302304134587,39.95302304134587 0 0,0 0.6856886413682612,0.053222635445708884 l -1.6292928112154836 18.882862265586464" fill="#ffcb12" stroke="none" /><path d="M 102.16513564639614 79.11191278185805 l 1.8852021555958547 -18.187436484850515 a39.28487990274847,39.28487990274847 0 0,0 0.6720208052232799,0.07550936763316181 l -2.19798966432886 18.152291163746753" fill="#ffc112" stroke="none" /><path d="M 102.88285421437855 79.19881850522331 l 2.421545979255344 -17.47262041944612 a38.6396244078975,38.6396244078975 0 0,0 0.6580346796595324,0.09697720648784058 l -2.7219496393435323 17.42834872879731" fill="#ffb911" stroke="none" /><path d="M 103.59715602781102 79.31037775812273 l 4.380099276028957 -25.19284643265965 a46.570779828692,46.570779828692 0 0,0 0.7886093581488326,0.14411331953753737 l -4.81310375528069 25.113717631771376" fill="#ddff1b" stroke="none" /><path d="M 104.66035177308747 79.52364482259891 l 4.777044527812037 -20.989072330249503 a42.52582894350748,42.52582894350748 0 0,0 0.7123609197433078,0.16859281424500774 l -5.1376291345178675 20.90373360386363" fill="#ffed16" stroke="none" /><path d="M 105.36241919743992 79.69619591428918 l 5.573718010255618 -21.103847786322902 a42.827476350832086,42.827476350832086 0 0,0 0.7111443525122264,0.19438261517513852 l -5.936160251991555 21.00477863032147" fill="#fff116" stroke="none" /><path d="M 106.0581310904928 79.89281104454417 l 4.149363111402957 -13.771908676045292 a35.383416937974204,35.383416937974204 0 0,0 0.5816606233554297,0.1807247870553643 l -4.385809107469106 13.698443754107407" fill="#ff8b0c" stroke="none" /><path d="M 106.40334571778207 80.00007090966166 l 8.976780814053367 -28.037683369493703 a50.43967191582713,50.43967191582713 0 0,0 0.8246098004361984,0.2718608863684985 l -9.458073436731983 27.879008758865968" fill="#adff20" stroke="none" /><path d="M 107.08798089147638 80.2323363322302 l 5.631105531134078 -15.704585257987437 a37.68362513448936,37.68362513448936 0 0,0 0.6087119845037887,0.2241937610245023 l -5.900599841410442 15.60532822915661" fill="#ffab0f" stroke="none" /><path d="M 108.43124777332544 80.76684994638697 l 6.263559327125535 -14.288273770039876 a36.60086352648567,36.60086352648567 0 0,0 0.5748390128853331,0.2579135089266141 l -6.508580458477649 14.17833993059673" fill="#ff9c0e" stroke="none" /><path d="M 109.08828744355905 81.06846463323043 l 9.717268506170987 -20.24174670260326 a43.45336537789764,43.45336537789764 0 0,0 0.6715174100105662,0.3295106767240927 l -10.064257183191986 20.071480865744334" fill="#fff917" stroke="none" /><line stroke="#e1ed5e" stroke-width="0.3" x1="143.23703022742887" x2="145.7803849466894" y1="26.81831364943548" y2="22.513508569990506" /><path d="M 143.74570117128098 25.957352633546492 a86.0,86.0 0 0,1 28.547481713284135,27.462654790039103" fill="none" id="id98" stroke="none" /><text fill="#e1ed5e" style="font-size:6.75px; font-family:Arial;" text-anchor="middle"><textPath startOffset="19.985693538727396" xlink:href="#id98">February</textPath></text><path d="M 113.06298171725822 83.55741782278167 l 10.06094362283277 -12.663869235936588 a37.1739349141364,37.1739349141364 0 0,0 0.497593655540407,0.4023527974611093 l -10.277440676937669 12.488810341211348" fill="#ffa40f" stroke="none" /><path d="M 113.6212207817346 84.01681056812373 l 12.587357810164162 -14.770050904427142 a40.40608101499295,40.40608101499295 0 0,0 0.5254833951226583,0.45569402205100723 l -12.839735003933585 14.551191888956465" fill="#ffd113" stroke="none" /><path d="M 114.42810811169701 84.74124197986012 l 11.410315688876537 -12.067226325315811 a37.60762641999804,37.60762641999804 0 0,0 0.46654365954161015,0.448814630836972 l -11.616342592030566 11.869028607716537" fill="#ffaa0f" stroke="none" /><path d="M 114.68862486808459 84.99185889309783 l 13.515661195985667 -13.80966238869482 a40.32303994857965,40.32303994857965 0 0,0 0.4918723458689997,0.4897600896993214 l -13.751369342021988 13.574966448345378" fill="#ffd013" stroke="none" /><path d="M 114.94478906791727 85.2469230424477 l 18.633218222508393 -18.394190855036427 a47.18287758324368,47.18287758324368 0 0,0 0.5656007823344723,0.582901323908062 l -18.947083268545974 18.07072533557825" fill="#d5ff1c" stroke="none" /><path d="M 115.4437574822437 85.77008943001954 l 24.555028436947588 -22.625054757744596 a54.389257618734895,54.389257618734895 0 0,0 0.6284713925408931,0.6939738086389743 l -24.940843470104515 22.199028161836072" fill="#7fff26" stroke="none" /><path d="M 116.38621287248628 86.86637796730983 l 20.00589288284212 -16.034811557398474 a46.63885589727109,46.63885589727109 0 0,0 0.49669475272337216,0.6307518958168181 l -20.278941716159455 15.688067267628618" fill="#dcff1b" stroke="none" /><path d="M 116.60985879189232 87.15038557335679 l 16.954277734242403 -13.116061641269207 a42.43545209384214,42.43545209384214 0 0,0 0.4419835409709664,0.5815985311894685 l -17.177537215437486 12.822278334198705" fill="#ffec16" stroke="none" /><path d="M 116.82858285166822 87.43820079747576 l 15.622291823274423 -11.661355843029652 a40.4946972766778,40.4946972766778 0 0,0 0.41215384776041336,0.5621773851573936 l -15.820708283548463 11.390716014200764" fill="#ffd213" stroke="none" /><path d="M 117.2510076193507 88.02491185347247 l 17.05431330189447 -11.838549351725929 a41.76056003465285,41.76056003465285 0 0,0 0.4048299201441615,0.5940379544231601 l -17.255567687707366 11.543233374032361" fill="#ffe315" stroke="none" /><path d="M 117.45458315368197 88.32363383020206 l 14.954207470873584 -10.003722270056878 a38.99174200399626,38.99174200399626 0 0,0 0.36838537175469455,0.5610761946500304 l -15.124189477986205 9.744828011429174" fill="#ffbd11" stroke="none" /><line stroke="#e1ed5e" stroke-width="0.3" x1="172.23445277983987" x2="176.4835382374775" y1="55.19839476539836" y2="52.563006222186495" /><path d="M 173.08426987136738 54.67131705675599 a86.0,86.0 0 0,1 12.851231095245387,41.99856678651699" fill="none" id="id99" stroke="none" /><text fill="#e1ed5e" style="font-size:6.75px; font-family:Arial;" text-anchor="middle"><textPath startOffset="22.20632615414155" xlink:href="#id99">March</textPath></text><path d="M 117.84615892207809 88.93136811851018 l 26.634208340551343 -16.519198829489092 a52.34110693476043,52.34110693476043 0 0,0 0.46828890920251676,0.7697438384508731 l -26.914613048040085 16.058287217831136" fill="#97ff23" stroke="none" /><path d="M 118.03404312379186 89.2402003453031 l 12.163724840059764 -7.257343316498863 a35.16422373440273,35.16422373440273 0 0,0 0.30566137368933893,0.5224743692251163 l -12.286845888219432 7.046889534919852" fill="#ff880c" stroke="none" /><path d="M 118.3937258080291 89.86733742301442 l 22.2566472507985 -12.260653390238813 a46.410272891136984,46.410272891136984 0 0,0 0.37944133183186013,0.7030471607333688 l -22.46439668184883 11.875725246172987" fill="#dfff1b" stroke="none" /><path d="M 118.56541770881063 90.18545643968196 l 19.571940557472523 -10.3466383667796 a43.138513560719325,43.138513560719325 0 0,0 0.34139114387075964,0.659459027339663 l -19.747141134503398 10.008206617179592" fill="#fff517" stroke="none" /><path d="M 118.89224826269711 90.83032412892265 l 19.017110747197727 -9.230280013866889 a42.138793019128926,42.138793019128926 0 0,0 0.3111083132863878,0.6552734502928573 l -19.17317725432587 8.90156414793349" fill="#ffe815" stroke="none" /><path d="M 119.04729006885535 91.15688171328212 l 23.957156448475065 -11.122630438315287 a47.41322117735828,47.41322117735828 0 0,0 0.33730597091436654,0.7432089953090365 l -24.145064736352776 10.708599434164189" fill="#d2ff1c" stroke="none" /><path d="M 119.196687751892 91.48605970444005 l 53.692626266072004 -23.813265092885402 a79.73644277390417,79.73644277390417 0 0,0 0.5456603614622608,1.2594593464631147 l -54.09457733737695 22.885506601835687" fill="#47fdff" stroke="none" /><path d="M 119.47837535516314 92.15188598940014 l 16.905009991475016 -6.811268565489373 a39.22560677407185,39.22560677407185 0 0,0 0.24694658215887447,0.6284521158430064 l -17.01975012351559 6.519267444750581" fill="#ffc111" stroke="none" /><path d="M 119.61058180528143 92.48833698450437 l 13.424371752658944 -5.14208899062622 a35.37549429206199,35.37549429206199 0 0,0 0.2129190551430277,0.5705172110891562 l -13.510895396303598 4.910248642507731" fill="#ff8b0c" stroke="none" /><path d="M 119.7369772167798 92.82701384747503 l 21.389746013294424 -7.7736499502541205 a43.75853396118323,43.75853396118323 0 0,0 0.2511884027285695,0.7101434399077544 l -21.5203874968328 7.404308883919752" fill="#fffd17" stroke="none" /><path d="M 119.97218684219823 93.5106431181261 l 11.458046968113443 -3.722945140301794 a33.047703550519095,33.047703550519095 0 0,0 0.17113126357966352,0.5425328713824046 l -11.520433715461312 3.52516210249297" fill="#ff6909" stroke="none" /><path d="M 120.08093135843002 93.85539295169968 l 44.84854507716377 -13.723302035563567 a67.90118350636467,67.90118350636467 0 0,0 0.33237339255192544,1.1205978480208199 l -45.078124366827396 12.949274800796216" fill="#38ff7d" stroke="none" /><path d="M 120.37134235888165 94.90015583598534 l 22.228380344955458 -5.564742557492531 a43.914345997456934,43.914345997456934 0 0,0 0.17726172088485317,0.7348642726440483 l -22.320874866101132 5.181293053189076" fill="#ffff18" stroke="none" /><path d="M 120.45610955862082 95.25157060432595 l 20.279179803052116 -4.707359100762681 a41.81836600667906,41.81836600667906 0 0,0 0.15673048243470614,0.7025920209955272 l -20.35720467248886 4.357588910217189" fill="#ffe415" stroke="none" /><path d="M 120.6074358757038 95.95851677861258 l 20.8562212739545 -4.0902744450418895 a42.25352466919111,42.25352466919111 0 0,0 0.13383155264895946,0.7149335056876198 l -20.923538550513317 3.730662861891707" fill="#ffe915" stroke="none" /><path d="M 120.67395015179393 96.31383870115 l 58.585965716529586 -10.44586631458452 a80.50992776000112,80.50992776000112 0 0,0 0.2315164126937042,1.3664229731109352 l -58.75709399074351 9.435857553157748" fill="#48f5ff" stroke="none" /><path d="M 120.78858239683441 97.02765380044208 l 21.56473749854808 -3.083320657691113 a42.78404851397991,42.78404851397991 0 0,0 0.09796324900265677,0.7299399921321217 l -21.614616746608572 2.7116623234943273" fill="#fff016" stroke="none" /><path d="M 120.91429891909075 98.10471618934814 l 20.885660003192775 -1.8926885109544633 a41.97124372965193,41.97124372965193 0 0,0 0.05901060170741751,0.7200788092035377 l -20.915145088719687 1.532895784543157" fill="#ffe615" stroke="none" /><path d="M 120.94382443527127 98.46500227214037 l 18.459256555446025 -1.352900801769001 a39.50876800760127,39.50876800760127 0 0,0 0.04387243428956751,0.6786871400605632 l -18.479809580740007 1.0349545974554024" fill="#ffc512" stroke="none" /><path d="M 120.96714384426684 98.82574320788733 l 44.12571999609327 -2.4712439041353895 a65.1948663490156,65.1948663490156 0 0,0 0.053107091663385626,1.1210067687536893 l -44.16172069599015 1.7113260287587004" fill="#34ff5c" stroke="none" /><line stroke="#e1ed5e" stroke-width="0.3" x1="184.98032266829074" x2="189.97916517819016" y1="98.17113171792111" y2="98.06355123074" /><path d="M 185.9800911702706 98.14961562048488 a86.0,86.0 0 0,1 -9.607161424134198,41.387399972396054" fill="none" id="id100" stroke="none" /><text fill="#e1ed5e" style="font-size:6.75px; font-family:Arial;" text-anchor="middle"><textPath startOffset="21.466115282336823" xlink:href="#id100">April</textPath></text><path d="M 120.99513854157772 99.54816195383933 l 29.461899666795674 -0.6340518856431525 a50.468721617505274,50.468721617505274 0 0,0 0.011216055455566304,0.868695855560394 l -29.468448729368955 0.12681977202229588" fill="#adff20" stroke="none" /><path d="M 120.99824983174949 100.27111621757518 l 37.07225207835148 0.4786536421373291 a58.075341987228754,58.075341987228754 0 0,0 -0.021509827120162847,0.9994771450312582 l -37.05852018854632 -1.116720602958702" fill="#56ff2b" stroke="none" /><path d="M 120.9764740272857 100.99374915477107 l 41.55315610334784 1.9685583812636238 a62.59975966576774,62.59975966576774 0 0,0 -0.060255694114705965,1.0759058959038355 l -41.5131140583456 -2.6835359935028826" fill="#31ff3b" stroke="none" /><path d="M 120.8583938346157 102.4346265915055 l 28.29480892383587 3.302617390089536 a49.4869003870499,49.4869003870499 0 0,0 -0.1060398014032768,0.8452415506753831 l -28.233767613185744 -3.789176695052314" fill="#b9ff1f" stroke="none" /><path d="M 120.81339534386255 102.79330883721812 l 26.26227227265107 3.5245877000196635 a47.497729400421974,47.497729400421974 0 0,0 -0.11572697139663168,0.8093941684090591 l -26.197711250237838 -3.976127340409132" fill="#d1ff1c" stroke="none" /><path d="M 120.70491114924044 103.5080841355445 l 26.832166912787375 4.546240183816706 a48.21458213981305,48.21458213981305 0 0,0 -0.14568508418574044,0.8170793202282155 l -26.749935386262443 -5.0074382547781395" fill="#c8ff1d" stroke="none" /><path d="M 120.64145759157962 103.86396538481128 l 44.34220145579728 8.30061204502454 a66.11242611818297,66.11242611818297 0 0,0 -0.21902123410397348,1.1167845540790513 l -44.19275028871764 -9.062660326171535" fill="#35ff67" stroke="none" /><path d="M 120.49622156327973 104.57218783832717 l 16.970162347620285 3.7856133463757926 a38.38727346402672,38.38727346402672 0 0,0 -0.14941685754374529,0.6436839116959778 l -16.902484924145988 -4.077165915420335" fill="#ffb510" stroke="none" /><path d="M 120.32669344350535 105.2749913415812 l 15.931149299812187 4.134301274898089 a37.45885673564632,37.45885673564632 0 0,0 -0.16733749563851222,0.6227250723472532 l -15.857623727831896 -4.40791728042089" fill="#ffa80f" stroke="none" /><path d="M 120.23288151984713 105.62410040840565 l 20.09661412156906 5.586222386456275 a41.85856609890033,41.85856609890033 0 0,0 -0.19894252886000738,0.6925450417695359 l -19.997478955822956 -5.931324903730393" fill="#ffe415" stroke="none" /><path d="M 120.13307415673323 105.97154293290107 l 17.797573414083693 5.2788249283885955 a39.563933097656744,39.563933097656744 0 0,0 -0.19927642362336156,0.6512468824578512 l -17.704070217954197 -5.584398783398504" fill="#ffc512" stroke="none" /><path d="M 120.02730092923936 106.31721596034902 l 36.93746539822752 11.651192877810567 a59.73146841421326,59.73146841421326 0 0,0 -0.31773656571647174,0.9778925974641951 l -36.731436581494805 -12.285284375252559" fill="#44ff2d" stroke="none" /><path d="M 119.67450827220406 107.3425965602758 l 14.296437299142061 5.335481318492913 a36.259602889599954,36.259602889599954 0 0,0 -0.22326543206157554,0.5828755910246564 l -14.20247758748698 -5.5807804763507125" fill="#ff970e" stroke="none" /><path d="M 119.54520255179757 107.68017299344265 l 18.27417857879233 7.18073155938111 a40.63437058979697,40.63437058979697 0 0,0 -0.2614093922846604,0.6487966736223005 l -18.147866572250276 -7.494227600846224" fill="#ffd413" stroke="none" /><path d="M 119.26925614724726 108.34839909993367 l 25.887366674436315 11.215693381884428 a49.212542093422954,49.212542093422954 0 0,0 -0.34345413270612574,0.7743984000092974 l -25.690471456998917 -11.659640118386413" fill="#bcff1f" stroke="none" /><path d="M 119.12269723197855 108.67885076344098 l 42.62079328147981 19.343479626443862 a67.80493803009767,67.80493803009767 0 0,0 -0.4915063177039576,1.0586608818795946 l -42.28151234693602 -20.07426057560229" fill="#37ff7c" stroke="none" /><path d="M 118.81262510543309 109.33194174019688 l 9.135164917685675 4.531468964122038 a31.197325583020106,31.197325583020106 0 0,0 -0.24277659266133358,0.47902124954212477 l -9.055809655238072 -4.688044425366857" fill="#ff4e07" stroke="none" /><path d="M 118.64920377521936 109.65438752849418 l 23.740490867877092 12.290063517870845 a47.73306132714799,47.73306132714799 0 0,0 -0.3840181421890005,0.7264176040061532 l -23.5254202174632 -12.696896136963133" fill="#ceff1d" stroke="none" /><line stroke="#e1ed5e" stroke-width="0.3" x1="174.80103733775053" x2="179.2010983576182" y1="140.37084112569926" y2="142.7455964860345" /><path d="M 175.68104954172406 140.8457921977663 a86.0,86.0 0 0,1 -30.038265399797805,32.042727171017184" fill="none" id="id101" stroke="none" /><text fill="#e1ed5e" style="font-size:6.75px; font-family:Arial;" text-anchor="middle"><textPath startOffset="22.206326154141568" xlink:href="#id101">May</textPath></text><path d="M 118.30583269289576 110.29060199501025 l 6.306402462634245 3.545136615856157 a28.23454944317912,28.23454944317912 0 0,0 -0.2418060646139385,0.42160925554824435 l -6.244444401867927 -3.6531657172627163" fill="#ff2103" stroke="none" /><path d="M 117.94076556474637 110.91462005526583 l 4.356151343756168 2.6501509452730208 a26.098956222840137,26.098956222840137 0 0,0 -0.23679876324804322,0.3817950047235054 l -4.309887940840162 -2.7247422813617996" fill="#ff0000" stroke="none" /><path d="M 116.93607887273984 112.41649034213515 l 16.862955109389745 12.362880500787599 a41.909329719004575,41.909329719004575 0 0,0 -0.4315438272426325,0.5781234784758631 l -16.64765001545202 -12.651316858772777" fill="#ffe515" stroke="none" /><path d="M 116.71984013943494 112.70617746262583 l 32.620357415413274 24.78971370288061 a61.97093632540138,61.97093632540138 0 0,0 -0.6527404117043786,0.8437549724208885 l -32.18881018649083 -25.34754666941475" fill="#30ff33" stroke="none" /><path d="M 116.27256486870786 113.27417163493432 l 12.594770120411162 10.27404970450462 a37.25374823591879,37.25374823591879 0 0,0 -0.409620927934881,0.49341479533993066 l -12.416053192582737 -10.489325756958321" fill="#ffa50f" stroke="none" /><path d="M 115.56566222782051 114.09645910891815 l 18.405530487055255 16.668279453282803 a45.8313328768846,45.8313328768846 0 0,0 -0.5345976006922212,0.5802001112429572 l -18.11588647836731 -16.982630819327095" fill="#e6ff1a" stroke="none" /><path d="M 115.32070863581623 114.36230785411682 l 7.046065980679024 6.605292952204245 a30.65799879832884,30.65799879832884 0 0,0 -0.36423665942926786,0.381900681212613 l -6.931322769870792 -6.725600749999365" fill="#ff4606" stroke="none" /><path d="M 115.07121518719521 114.62390073753431 l 31.36195064419419 30.431126319914185 a64.69926083250661,64.69926083250661 0 0,0 -0.7824278019234403,0.7925952324565134 l -30.833482217215217 -30.96646204635136" fill="#33ff56" stroke="none" /><path d="M 114.55890576462653 115.13401014063108 l 12.412511271039063 12.90282899577663 a38.90400603630165,38.90400603630165 0 0,0 -0.4866042040181027,0.46011464720213924 l -12.188571232630153 -13.114578279724691" fill="#ffbc11" stroke="none" /><path d="M 114.29624159901734 115.38237550388516 l 18.67738333682454 20.096367421266198 a48.43553593136501,48.43553593136501 0 0,0 -0.6155936362807248,0.5623301911582027 l -18.32869015107695 -20.414890379010984" fill="#c6ff1e" stroke="none" /><path d="M 113.48314897796784 116.09983520530334 l 14.590181316818695 17.421710254786518 a43.7242024955636,43.7242024955636 0 0,0 -0.5811776677177412,0.47826965415752865 l -14.288133520556261 -17.670275027801225" fill="#fffd17" stroke="none" /><path d="M 113.20401910651253 116.32954008644616 l 13.742755336772518 16.995800472551807 a42.85681948384032,42.85681948384032 0 0,0 -0.5776334114698115,0.4589069169295252 l -13.448164432585356 -17.22984130348646" fill="#fff116" stroke="none" /><path d="M 112.92097659922987 116.55440617244103 l 19.840858543356124 25.420186207615348 a53.246636019394415,53.246636019394415 0 0,0 -0.7273776275394196,0.5577221478240184 l -19.40035218732321 -25.757947697266736" fill="#8cff24" stroke="none" /><path d="M 112.63410532772338 116.77436683061366 l 15.039929065007518 19.96859141970645 a45.9988821663616,45.9988821663616 0 0,0 -0.6365698334042929,0.4709191445171145 l -14.69397426118466 -20.22452051296333" fill="#e4ff1a" stroke="none" /><path d="M 112.34349029814194 116.9893568818739 l 10.919022507507233 15.028745168550769 a39.576550644850286,39.576550644850286 0 0,0 -0.5545855863230497,0.3956820906809134 l -10.658709593335297 -15.2144715210759" fill="#ffc512" stroke="none" /><path d="M 111.7513745106137 117.40417183066458 l 11.19243423319354 16.5763629115876 a41.00115975239985,41.00115975239985 0 0,0 -0.5883184197334639,0.3899053685764399 l -10.905441114720112 -16.76656630125536" fill="#ffd914" stroke="none" /><path d="M 111.45004920935366 117.60387380957326 l 17.255309113518972 26.52916844509475 a52.64715581203628,52.64715581203628 0 0,0 -0.7639307831618175,0.48757676994789556 l -16.796096528310226 -26.822259643866452" fill="#93ff23" stroke="none" /><path d="M 111.1453310114006 117.79835938074945 l 11.4301663463993 18.253222646044787 a42.536685902720535,42.536685902720535 0 0,0 -0.6239135249516221,0.38325864550921274 l -11.11427362151537 -18.44726975838238" fill="#ffed16" stroke="none" /><line stroke="#e1ed5e" stroke-width="0.3" x1="143.8653032363475" x2="146.44561519142675" y1="172.8068346515853" y2="177.08958963109032" /><path d="M 144.38136562736335 173.6633856474863 a86.0,86.0 0 0,1 -40.68145358897372,12.25698825130547" fill="none" id="id102" stroke="none" /><text fill="#e1ed5e" style="font-size:6.75px; font-family:Arial;" text-anchor="middle"><textPath startOffset="21.466115282336833" xlink:href="#id102">June</textPath></text><path d="M 110.5260780823613 118.17145234162733 l 14.126597755621377 24.387126511608425 a49.18319896041472,49.18319896041472 0 0,0 -0.7362285352364937,0.41804977669175947 l -13.704720453463684 -24.626679454094813" fill="#bcff1f" stroke="none" /><path d="M 110.21172684928248 118.3499491758327 l 13.454446320222921 24.17694967843828 a48.66852040745036,48.66852040745036 0 0,0 -0.7355370551157087,0.4010734486442699 l -13.036286453238564 -24.40496377884232" fill="#c3ff1e" stroke="none" /><path d="M 109.57404056367764 118.69057910512821 l 20.29361621121755 39.61748820700371 a65.51265247949475,65.51265247949475 0 0,0 -1.0081027450517162,0.5054836442386237 l -19.608659558483073 -39.96093969215163" fill="#34ff60" stroke="none" /><path d="M 109.2508944713604 118.85261126421891 l 9.657035715635192 19.680295875732256 a42.92196123911859,42.92196123911859 0 0,0 -0.66608206821018,0.3197598704815118 l -9.316840979424779 -19.843610022713328" fill="#fff216" stroke="none" /><path d="M 108.92500713936063 119.00905698771935 l 9.232662799270962 19.664321894571724 a42.72389509131304,42.72389509131304 0 0,0 -0.668388899189123,0.30682456121240853 l -8.892805904314418 -19.820333526118205" fill="#fff016" stroke="none" /><path d="M 108.2653958097858 119.30500536409082 l 12.03146525465991 28.101195226983464 a51.56850224265374,51.56850224265374 0 0,0 -0.8190270137568669,0.342353358175428 l -11.545966781405582 -28.304133628178864" fill="#a0ff22" stroke="none" /><path d="M 107.93186726928326 119.44442032107085 l 9.498357578840038 23.284562241481307 a46.14735841938324,46.14735841938324 0 0,0 -0.7380916709244174,0.2937019083368921 l -9.096144831873753 -23.44461099422427" fill="#e2ff1b" stroke="none" /><path d="M 107.2578585660854 119.70592522655815 l 7.255931709954009 19.70069358936077 a41.99442480472844,41.99442480472844 0 0,0 -0.6804705392216456,0.24399252538273378 l -6.915741610102628 -19.822673655783465" fill="#ffe615" stroke="none" /><path d="M 106.91757812671514 119.82793768551818 l 7.767981977076896 22.265460506891017 a44.581608842064085,44.581608842064085 0 0,0 -0.7267444790948515,0.24655118524731193 l -7.383567765044818 -22.395874679036453" fill="#f6ff19" stroke="none" /><path d="M 106.57524785965236 119.94407469862006 l 10.458362294911735 31.722356827774245 a54.40187516592844,54.40187516592844 0 0,0 -0.8918764003169722,0.28555065885306163 l -9.910764549503824 -31.897680333287013" fill="#7fff26" stroke="none" /><path d="M 105.88484417918355 120.15858648285463 l 6.681062354977344 22.886038980702544 a44.84129556918692,44.84129556918692 0 0,0 -0.7428042433490082,0.20992389884147075 l -6.286126943523731 -22.997651672882533" fill="#f3ff19" stroke="none" /><path d="M 105.53697534728816 120.25689768951611 l 6.458734318428364 23.629131806817316 a45.495940866600534,45.495940866600534 0 0,0 -0.7572031498171358,0.19998423397903942 l -6.051040725799732 -23.73680739009994" fill="#eaff1a" stroke="none" /><path d="M 104.83641907484287 120.43548508189849 l 4.793776789484729 20.255307191436724 a41.81484483071807,41.81484483071807 0 0,0 -0.7018519170996267,0.15973921129821342 l -4.44440472299224 -20.334823136312625" fill="#ffe415" stroke="none" /><path d="M 104.48393922423573 120.51570834832081 l 5.131026908614095 23.476377872283777 a45.03055877709,45.03055877709 0 0,0 -0.7586760091400336,0.158987934183961 l -4.726159438044683 -23.561221787194278" fill="#f0ff19" stroke="none" /><path d="M 104.13013068566511 120.58985236759428 l 9.772493887534166 48.718605226203124 a70.6890745734766,70.6890745734766 0 0,0 -1.195090989025718,0.2290420323873054 l -8.932435283936744 -48.8796044569389" fill="#3bff9e" stroke="none" /><path d="M 103.41894727170886 120.7198165907248 l 4.0205963828900115 24.36598549739391 a45.695474171056496,45.695474171056496 0 0,0 -0.7771802175859384,0.12137956646848287 l -3.6005803016955555 -24.4315833712095" fill="#e8ff1a" stroke="none" /><path d="M 103.06178313531738 120.77559828337769 l 4.154137276109344 28.18772050408672 a49.49218215099138,49.49218215099138 0 0,0 -0.8438921613354042,0.11695576399820032 l -3.6683165235871087 -28.25505083357752" fill="#b9ff1f" stroke="none" /><path d="M 102.34483914955558 120.86867818915974 l 4.680176666328314 41.65279342786946 a62.914904914276136,62.914904914276136 0 0,0 -1.07724519023008,0.11166086855718955 l -3.9624988794926312 -41.72718366488241" fill="#31ff3f" stroke="none" /><path d="M 101.98527174616119 120.90594882070398 l 2.29440679917753 24.16130245656863 a45.26999874243716,45.26999874243716 0 0,0 -0.7763927277581907,0.06699043144120008 l -1.8781697536777973 -24.197217140288494" fill="#edff19" stroke="none" /><path d="M 101.62511606390274 120.93702456842531 l 4.575721178375284 58.95085825429474 a80.12817359956404,80.12817359956404 0 0,0 -1.3760573005130177,0.09490096801465006 l -3.560301117083336 -59.02088756682567" fill="#48f9ff" stroke="none" /><path d="M 100.90346689309514 120.98055641714683 l 0.9563743748809063 22.20918849539886 a43.22977070437493,43.22977070437493 0 0,0 -0.7437160170124758,0.025615083374680138 l -0.5739380061937781 -22.22236037719963" fill="#fff617" stroke="none" /><line stroke="#e1ed5e" stroke-width="0.3" x1="102.19456741930631" x2="102.32365962044197" y1="184.97166512339345" y2="189.96999836594603" /><path d="M 102.22038585953345 185.97133177190398 a86.0,86.0 0 0,1 -42.740103519485714,-10.115201625700543" fill="none" id="id103" stroke="none" /><text fill="#e1ed5e" style="font-size:6.75px; font-family:Arial;" text-anchor="middle"><textPath startOffset="22.20632615414155" xlink:href="#id103">July</textPath></text><path d="M 100.54218724476979 120.99299961872073 l 0.7107140135305935 27.51820364457683 a48.52737993768078,48.52737993768078 0 0,0 -0.8352262501605554,0.014379177345003349 l -0.23692807347737013 -27.52636029920099" fill="#c4ff1e" stroke="none" /><path d="M 99.81925306533755 120.99922214144158 l -0.22848259232666399 26.545162277193906 a47.54614556988556,47.54614556988556 0 0,0 -0.8183377904375138,-0.014088427195095008 l 0.6853800726568456 -26.537296372719652" fill="#d1ff1d" stroke="none" /><path d="M 99.45781275523022 120.99299961872073 l -0.6120904362894858 23.69958795527161 a44.70749088266939,44.70749088266939 0 0,0 -0.7691384087428523,-0.026490681948410928 l 1.0199491967069811 -23.685540474897106" fill="#f5ff19" stroke="none" /><path d="M 99.09653310690486 120.98055641714683 l -2.300459219960885 53.42189605242405 a74.47140441823746,74.47140441823746 0 0,0 -1.2802412169994353,-0.06617384748259632 l 3.219688505373809 -53.37438239817926" fill="#40ffc9" stroke="none" /><path d="M 98.37488393609728 120.93702456842531 l -1.913343853234634 24.650379226955405 a45.72452387273464,45.72452387273464 0 0,0 -0.7841879567299005,-0.0676630365974921 l 2.3373761277060763 -24.61379193807925" fill="#e8ff1a" stroke="none" /><path d="M 98.01472825383883 120.90594882070398 l -2.802188309000202 29.508507078293537 a50.64125923959367,50.64125923959367 0 0,0 -0.8670926709239858,-0.08987770066929514 l 3.3097135765297807 -29.45590000916848" fill="#abff21" stroke="none" /><path d="M 97.2962882734958 120.8252237178851 l -3.1795728483487142 24.49052361798542 a45.69606103371665,45.69606103371665 0 0,0 -0.7791644262645464,-0.10798508971783975 l 3.600665865800092 -24.432163962774975" fill="#e8ff1a" stroke="none" /><path d="M 96.93821686468263 120.77559828337769 l -3.7486062025744085 25.43600677949107 a46.71074657314126,46.71074657314126 0 0,0 -0.7944477838094007,-0.1240764051871523 l 4.185889849992327 -25.367712066956813" fill="#dbff1b" stroke="none" /><path d="M 96.58105272829116 120.7198165907248 l -9.718204866693357 58.89515293060744 a80.69156175332205,80.69156175332205 0 0,0 -1.3684944148558211,-0.23793029548217678 l 10.730548253021228 -58.71914405660425" fill="#49f3ff" stroke="none" /><path d="M 95.86986931433489 120.58985236759428 l -4.621877490373309 23.04134721891221 a44.50032836363128,44.50032836363128 0 0,0 -0.7497426735356568,-0.15711586685087256 l 5.017811625338353 -22.9583753713348" fill="#f7ff18" stroke="none" /><path d="M 95.51606077576429 120.51570834832081 l -6.765599971912604 30.955164395392778 a52.68588874760714,52.68588874760714 0 0,0 -0.884319723564801,-0.20126828998550683 l 7.297439844870268 -30.834119371829583" fill="#93ff23" stroke="none" /><path d="M 94.81253420990036 120.34920634021253 l -6.865471477648467 26.931627383094316 a48.792935291405264,48.792935291405264 0 0,0 -0.8120760575060338,-0.2144766676317749 l 7.32803797796599 -26.80945936615896" fill="#c1ff1e" stroke="none" /><path d="M 94.46302465271185 120.25689768951611 l -7.052299437329451 25.800676220778602 a47.747146030991935,47.747146030991935 0 0,0 -0.7909401864828374,-0.22352759718803084 l 7.495370791916902 -25.67545983025205" fill="#ceff1d" stroke="none" /><path d="M 94.11515582081647 120.15858648285463 l -17.65453253755061 60.475759448563906 a84.0,84.0 0 0,0 -1.3845001022390167,-0.4171385235770977 l 18.692907614229874 -60.16290555588108" fill="#4dd2ff" stroke="none" /><path d="M 93.42475214034765 119.94407469862007 l -10.35004118006087 31.393796680364503 a54.0559196277614,54.0559196277614 0 0,0 -0.8811894001188294,-0.2989472879068254 l 10.888900313116926 -31.210986405559556" fill="#83ff25" stroke="none" /><path d="M 93.08242187328487 119.8279376855182 l -7.533681120828087 21.593881134419128 a43.87033129794459,43.87033129794459 0 0,0 -0.7108674099706686,-0.2548917617644723 l 7.904268091428483 -21.461001831614695" fill="#ffff18" stroke="none" /><path d="M 92.40401165467489 119.57807347666478 l -9.219795766275121 23.763311730601576 a46.489205918929116,46.489205918929116 0 0,0 -0.7435592599865901,-0.29587757486290683 l 9.627476102303568 -23.601087311332602" fill="#deff1b" stroke="none" /><path d="M 92.06813273071674 119.44442032107085 l -13.297877940537022 32.59882185061611 a56.20677127726466,56.20677127726466 0 0,0 -0.8926934471650495,-0.37314593331457424 l 13.857042847199533 -32.36509087428156" fill="#6aff28" stroke="none" /><path d="M 91.7346041902142 119.30500536409082 l -17.20595620526063 40.18695347216245 a64.71539955566112,64.71539955566112 0 0,0 -1.020282420197279,-0.4472618296780422 l 17.895159300115655 -39.884827089189955" fill="#33ff56" stroke="none" /><path d="M 91.07499286063937 119.00905698771935 l -8.082975920992348 17.21564448221987 a40.018751659284305,40.018751659284305 0 0,0 -0.6210287718192881,-0.29813155032957483 l 8.378117360811878 -17.073958655390733" fill="#ffcb13" stroke="none" /><path d="M 90.7491055286396 118.85261126421891 l -13.151246446136874 26.801228535957865 a50.85399695390334,50.85399695390334 0 0,0 -0.7825366854460317,-0.3923801392777492 l 13.610637039265667 -26.570880555770813" fill="#a8ff21" stroke="none" /><path d="M 90.10565033884886 118.52300852407294 l -10.813870104879618 20.244423836907185 a43.95161177637738,43.95161177637738 0 0,0 -0.6642494742584666,-0.3622017756251272 l 11.160742391006725 -20.055281409522294" fill="#feff18" stroke="none" /><line stroke="#e1ed5e" stroke-width="0.3" x1="58.666819895761336" x2="56.23545636021788" y1="174.27360380694188" y2="178.64263932499728" /><path d="M 58.180547188652646 175.14741091055294 a86.0,86.0 0 0,1 -31.652253787137756,-30.449443065178592" fill="none" id="id104" stroke="none" /><text fill="#e1ed5e" style="font-size:6.75px; font-family:Arial;" text-anchor="middle"><textPath startOffset="22.20632615414155" xlink:href="#id104">August</textPath></text><path d="M 89.7882731507175 118.34994917583269 l -11.843502783000472 21.282166800922788 a45.35568069082119,45.35568069082119 0 0,0 -0.678934007251792,-0.3855164484067176 l 12.208085557173472 -21.075147186721438" fill="#ecff1a" stroke="none" /><path d="M 89.4739219176387 118.17145234162733 l -25.190694668243495 43.487375263112824 a71.25657076585577,71.25657076585577 0 0,0 -1.0560635344130496,-0.623940950756049 l 25.935526073684926 -43.04731574006303" fill="#3cffa5" stroke="none" /><line stroke="#e1ed5e" stroke-width="0.3" x1="26.63291911575756" x2="22.317208475507996" y1="142.92168965132927" y2="145.44649492493687" /><path d="M 25.769776987707644 143.4266507060508 a86.0,86.0 0 0,1 -11.730757126820373,-40.83630448921669" fill="none" id="id105" stroke="none" /><text fill="#e1ed5e" style="font-size:6.75px; font-family:Arial;" text-anchor="middle"><textPath startOffset="21.46611528233685" xlink:href="#id105">September</textPath></text><line stroke="#e1ed5e" stroke-width="0.3" x1="15.007084014347285" x2="10.007500721073583" y1="101.09737516637583" y2="101.16192664675087" /><path d="M 14.007167355692545 101.11028546245083 a86.0,86.0 0 0,1 10.666146001902534,-42.60595125391555" fill="none" id="id106" stroke="none" /><text fill="#e1ed5e" style="font-size:6.75px; font-family:Arial;" text-anchor="middle"><textPath startOffset="22.20632615414155" xlink:href="#id106">October</textPath></text><line stroke="#e1ed5e" stroke-width="0.3" x1="26.266209847984243" x2="21.928928074336255" y1="57.711370442889674" y2="55.22380399835377" /><path d="M 25.398753493254645 57.213857153982495 a86.0,86.0 0 0,1 29.58750427330803,-30.492523968695096" fill="none" id="id107" stroke="none" /><text fill="#e1ed5e" style="font-size:6.75px; font-family:Arial;" text-anchor="middle"><textPath startOffset="21.46611528233685" xlink:href="#id107">November</textPath></text><line stroke="#e1ed5e" stroke-width="0.3" x1="56.762969772571076" x2="54.21961505331055" y1="26.818313649435495" y2="22.513508569990535" /><path d="M 56.25429882871897 25.957352633546506 a86.0,86.0 0 0,1 42.265352541879196,-11.944610805530505" fill="none" id="id108" stroke="none" /><text fill="#e1ed5e" style="font-size:6.75px; font-family:Arial;" text-anchor="middle"><textPath startOffset="22.20632615414155" xlink:href="#id108">December</textPath></text></svg>