<?xml version="1.0" encoding="utf-8" ?>
<svg baseProfile="full" height="200mm" version="1.1" viewBox="0,0,200,200" width="200mm" xmlns="http://www.w3.org/2000/svg" xmlns:ev="http://www.w3.org/2001/xml-events" xmlns:xlink="http://www.w3.org/1999/xlink"><defs /><rect fill="#1a1a1a" height="200" width="200" x="0" y="0" /><text alignment-baseline="middle" fill="#e1ed5e" style="dominant-baseline: central; font-size:9.0px; font-family:Arial;" text-anchor="middle" x="100.0" y="100.0">2025</text><line stroke="#e1ed5e" stroke-width="0.3" x1="100.0" x2="100.0" y1="15.0" y2="10.0" /><path d="M 100.0 14.0 a86.0,86.0 0 0,1 42.46469731375804,11.215312516191453" fill="none" id="id97" stroke="none" /><text fill="#e1ed5e" style="font-size:6.75px; font-family:Arial;" text-anchor="middle"><textPath startOffset="22.20632615414155" xlink:href="#id97">January</textPath></text><path d="M 101.44485096284872 79.0497635885617 l 1.3804903461127305 -20.017012036831247 a41.06455891561929,41.06455891561929 0 0,0 0.7047652334617777,0.05470334614337148 l -1.7248457689368493 19.99028342849941" fill="#ffd714" stroke="none" /><path d="M 102.16513564639614 79.11191278185805 l 1.995763400713909 -19.254073087881046 a40.35723125927606,40.35723125927606 0 0,0 0.6903648201185763,0.077570531445102 l -2.32689492434221 19.216866602965343" fill="#ffcd13" stroke="none" /><path d="M 102.88285421437855 79.19881850522331 l 2.5635621220771547 -18.497335282685018 a39.6741335358247,39.6741335358247 0 0,0 0.6756524203346023,0.09957360349867818 l -2.8815835228404127 18.45046719502537" fill="#ffc412" stroke="none" /><path d="M 103.59715602781102 79.31037775812273 l 4.636978480341866 -26.6703285485139 a48.070426563185684,48.070426563185684 0 0,0 0.8140037245968353,0.14875397768920448 l -5.095377326041603 26.58655908947396" fill="#ccff1d" stroke="none" /><path d="M 104.66035177308747 79.52364482259891 l 5.057203336994148 -22.220016165008598 a43.78825188479687,43.78825188479687 0 0,0 0.7335080858281035,0.17359766521974537 l -5.438935109784775 22.129672587647985" fill="#fffb17" stroke="none" /><path d="M 105.36241919743992 79.69619591428918 l 5.900599242234693 -22.341522844730772 a44.107589974705014,44.107589974705014 0 0,0 0.7324004631159394,0.20019271315736317 l -6.284297594574344 22.236643590747114" fill="#ffff18" stroke="none" /><path d="M 106.0581310904928 79.89281104454417 l 4.3927103570455 -14.579588301466918 a36.22695962170931,36.22695962170931 0 0,0 0.5955274458872495,0.185033276316234 l -4.643023175643467 14.501814890268165" fill="#ff930d" stroke="none" /><path d="M 106.40334571778207 80.00007090966166 l 9.503241098966367 -29.68200632677209 a52.166217142406325,52.166217142406325 0 0,0 0.8528361163628648,0.2811666589444267 l -10.012760037571649 29.514025943568427" fill="#9bff22" stroke="none" /><path d="M 107.08798089147638 80.2323363322302 l 5.961352362788354 -16.62561035602894 a38.662067877341514,38.662067877341514 0 0,0 0.6245169879130748,0.230014877164053 l -6.246651676474005 16.520532211058562" fill="#ffb610" stroke="none" /><path d="M 108.43124777332544 80.76684994638697 l 6.630897607544019 -15.12623660278655 a37.515805667457236,37.515805667457236 0 0,0 0.589208740440605,0.2643607868131603 l -6.890288466451404 15.009855485456859" fill="#ffa60f" stroke="none" /><path d="M 109.08828744355905 81.06846463323043 l 10.287156091966336 -21.428862212821162 a44.770185447247876,44.770185447247876 0 0,0 0.691867217090636,0.33949623868004114 l -10.654494576067403 21.248610814006287" fill="#f6ff19" stroke="none" /><line stroke="#e1ed5e" stroke-width="0.3" x1="143.23703022742887" x2="145.7803849466894" y1="26.81831364943548" y2="22.513508569990506" /><path d="M 143.74570117128098 25.957352633546492 a86.0,86.0 0 0,1 28.547481713284135,27.462654790039103" fill="none" id="id98" stroke="none" /><text fill="#e1ed5e" style="font-size:6.75px; font-family:Arial;" text-anchor="middle"><textPath startOffset="19.985693538727396" xlink:href="#id98">February</textPath></text><path d="M 113.06298171725822 83.55741782278167 l 10.650986685695358 -13.406565793216314 a38.122485910249644,38.122485910249644 0 0,0 0.510290534649726,0.41261945735875577 l -10.880180618909575 13.221240238593428" fill="#ffae10" stroke="none" /><path d="M 113.6212207817346 84.01681056812373 l 13.325567210205046 -15.636268468205785 a41.54418733081205,41.54418733081205 0 0,0 0.5402845328678716,0.46852942285082294 l -13.592745541719681 15.404574051935292" fill="#ffdd14" stroke="none" /><path d="M 114.42810811169701 84.74124197986012 l 12.07949522806157 -12.77493163091822 a38.58161207453392,38.58161207453392 0 0,0 0.47862649685054937,0.460438310754952 l -12.297604968524537 12.565110233400965" fill="#ffb510" stroke="none" /><path d="M 114.68862486808459 84.99185889309783 l 14.308312703404317 -14.619556151982758 a41.45627616403773,41.45627616403773 0 0,0 0.5056958957906298,0.5035242769044783 l -14.557844399362269 14.37109602442816" fill="#ffdc14" stroke="none" /><path d="M 114.94478906791727 85.2469230424477 l 19.72599853846649 -19.472952959055533 a48.71842194796038,48.71842194796038 0 0,0 0.5840079914424962,0.6018715709332413 l -20.058270793612095 19.130517192572178" fill="#c4ff1e" stroke="none" /><path d="M 115.4437574822437 85.77008943001954 l 25.995104510401923 -23.951943875421073 a56.34743376707904,56.34743376707904 0 0,0 0.6510982446927838,0.7189589439239297 l -26.40354639571074 23.500932144227594" fill="#6aff28" stroke="none" /><path d="M 116.38621287248628 86.86637796730983 l 21.17917629982735 -16.975203401189354 a48.14249508153072,48.14249508153072 0 0,0 0.5127082178575953,0.6510873703444364 l -21.46823859827891 16.608123636891882" fill="#ccff1d" stroke="none" /><path d="M 116.60985879189232 87.15038557335679 l 17.948593410580397 -13.885277877204139 a43.69257471389055,43.69257471389055 0 0,0 0.45507701540397066,0.5988280087434806 l -18.184946366208482 13.574265092579626" fill="#fffa17" stroke="none" /><path d="M 116.82858285166822 87.43820079747576 l 16.538490667229645 -12.345258106743406 a41.6380006607267,41.6380006607267 0 0,0 0.42379035625617256,0.5780495696682378 l -16.748543635999443 12.058746093403673" fill="#ffde14" stroke="none" /><path d="M 117.2510076193507 88.02491185347247 l 18.054495753253313 -12.53284346380997 a42.97810233374588,42.97810233374588 0 0,0 0.41663286414934164,0.611357318343968 l -18.267553083071387 12.220208122195595" fill="#fff016" stroke="none" /><path d="M 117.45458315368197 88.32363383020206 l 15.831225244710636 -10.590409478486848 a40.046901734161054,40.046901734161054 0 0,0 0.3783542879784812,0.5762595379868872 l -16.01117616804704 10.316331876522286" fill="#ffc912" stroke="none" /><line stroke="#e1ed5e" stroke-width="0.3" x1="172.23445277983987" x2="176.4835382374775" y1="55.19839476539836" y2="52.563006222186495" /><path d="M 173.08426987136738 54.67131705675599 a86.0,86.0 0 0,1 12.851231095245387,41.99856678651699" fill="none" id="id99" stroke="none" /><text fill="#e1ed5e" style="font-size:6.75px; font-family:Arial;" text-anchor="middle"><textPath startOffset="22.20632615414155" xlink:href="#id99">March</textPath></text><path d="M 117.84615892207809 88.93136811851018 l 28.19622185094555 -17.487998480773037 a54.17916541342261,54.17916541342261 0 0,0 0.4847337734866444,0.7967748714480561 l -28.493071422718415 17.000055836117898" fill="#83ff25" stroke="none" /><path d="M 118.03404312379186 89.2402003453031 l 12.877089483527051 -7.682963938106781 a35.99491141824493,35.99491141824493 0 0,0 0.3128820403665792,0.5348168291900127 l -13.007431198363957 7.460167696562873" fill="#ff900d" stroke="none" /><path d="M 118.3937258080291 89.86733742301442 l 23.56193041361338 -12.97970259181223 a47.90050639277737,47.90050639277737 0 0,0 0.39162519004638213,0.7256219995975054 l -23.781863702878226 12.572199608882267" fill="#cfff1d" stroke="none" /><path d="M 118.56541770881063 90.18545643968196 l 20.7197740197819 -10.95343653811726 a44.43686854990212,44.43686854990212 0 0,0 0.35166611299512535,0.6793069972309512 l -20.90524956593714 10.595156818625963" fill="#fbff18" stroke="none" /><path d="M 118.89224826269711 90.83032412892265 l 20.132405166163394 -9.771607238691145 a43.37851750679217,43.37851750679217 0 0,0 0.32026112870095513,0.6745516138148848 l -20.297624488706106 9.42361320923572" fill="#fff517" stroke="none" /><path d="M 119.04729006885535 91.15688171328212 l 25.362169188657415 -11.774938132001019 a48.96227447770541,48.96227447770541 0 0,0 0.34832620777018275,0.7674906264330764 l -25.561097713390946 11.33662549672588" fill="#c1ff1e" stroke="none" /><path d="M 119.196687751892 91.48605970444005 l 56.84153186010306 -25.209839052436983 a83.18115252432113,83.18115252432113 0 0,0 0.5692335420827569,1.313869497456647 l -57.2670561120285 24.227670410393735" fill="#4cdaff" stroke="none" /><path d="M 119.47837535516314 92.15188598940014 l 17.89643626787871 -7.2107282898476575 a40.294481945889444,40.294481945889444 0 0,0 0.25367573416295025,0.6455770737096835 l -18.01790555192336 6.9016022112421895" fill="#ffcc13" stroke="none" /><path d="M 119.61058180528143 92.48833698450437 l 14.211669418055724 -5.443656522587681 a36.21857233724674,36.21857233724674 0 0,0 0.2179933978309502,0.5841139266883284 l -14.303267404388299 5.198219458870019" fill="#ff930d" stroke="none" /><path d="M 119.7369772167798 92.82701384747503 l 22.6441881138241 -8.229550350675812 a45.093251219139376,45.093251219139376 0 0,0 0.2588501195588834,0.731804145124936 l -22.782491314192793 7.838548579124261" fill="#f2ff19" stroke="none" /><path d="M 119.97218684219823 93.5106431181261 l 12.130025798423745 -3.9412842977211606 a33.754263906078194,33.754263906078194 0 0,0 0.17479005234413203,0.5541322316199612 l -12.196071334536082 3.73190189967478" fill="#ff700a" stroke="none" /><path d="M 120.08093135843002 93.85539295169968 l 47.478772806718396 -14.528131032644499 a70.6517920979059,70.6517920979059 0 0,0 0.34583750410260755,1.1659921388013295 l -47.721816207932704 13.708709507096641" fill="#3bff9d" stroke="none" /><path d="M 120.37134235888165 94.90015583598534 l 23.532005741627664 -5.891097407072753 a45.25820114690322,45.25820114690322 0 0,0 0.1826862369740741,0.7573523938833807 l -23.62992477886256 5.485159781529966" fill="#f0ff19" stroke="none" /><path d="M 120.45610955862082 95.25157060432595 l 21.468490648227583 -4.983431076308254 a43.03929844630609,43.03929844630609 0 0,0 0.16130639843898917,0.7231049551957672 l -21.55109143366861 4.6131479515625236" fill="#fff116" stroke="none" /><path d="M 120.6074358757038 95.95851677861258 l 22.07937380731092 -4.33015632411573 a43.49997781141677,43.49997781141677 0 0,0 0.13777950162207475,0.7360236069661175 l -22.150639032842854 3.94945463968705" fill="#fff717" stroke="none" /><path d="M 120.67395015179393 96.31383870115 l 62.02185045538181 -11.058483896549978 a84.0,84.0 0 0,0 0.2415525539191079,1.4256568467366484 l -62.20301487082114 9.98924126149749" fill="#4dd2ff" stroke="none" /><path d="M 120.78858239683441 97.02765380044208 l 22.82944230561948 -3.264147827870535 a44.06161523024353,44.06161523024353 0 0,0 0.10088851182115663,0.7517365979047852 l -22.882246816498476 2.8706928879010856" fill="#fffe18" stroke="none" /><path d="M 120.91429891909075 98.10471618934814 l 22.11053902649066 -2.00368880753837 a43.20114197241712,43.20114197241712 0 0,0 0.06073981030109077,0.7411795339711053 l -22.141753320611244 1.622795356359496" fill="#fff316" stroke="none" /><path d="M 120.94382443527127 98.46500227214037 l 19.541834560497502 -1.4322442274704832 a40.594249705384925,40.594249705384925 0 0,0 0.045077805321369346,0.6973336964126907 l -19.56359295682329 1.0956514668047572" fill="#ffd013" stroke="none" /><path d="M 120.96714384426684 98.82574320788733 l 46.713556281988396 -2.616174675734922 a67.78675785352576,67.78675785352576 0 0,0 0.05521842078207244,1.165573589473538 l -46.75166831100396 1.811689979638384" fill="#37ff7b" stroke="none" /><line stroke="#e1ed5e" stroke-width="0.3" x1="184.98032266829074" x2="189.97916517819016" y1="98.17113171792111" y2="98.06355123074" /><path d="M 185.9800911702706 98.14961562048488 a86.0,86.0 0 0,1 -9.607161424134198,41.387399972396054" fill="none" id="id100" stroke="none" /><text fill="#e1ed5e" style="font-size:6.75px; font-family:Arial;" text-anchor="middle"><textPath startOffset="21.466115282336823" xlink:href="#id100">April</textPath></text><path d="M 120.99513854157772 99.54816195383933 l 31.189748481860573 -0.6712370573967884 a52.19697051876907,52.19697051876907 0 0,0 0.011600137613709831,0.898443441981999 l -31.196681626592 0.13425735735432676" fill="#9aff22" stroke="none" /><path d="M 120.99824983174949 100.27111621757518 l 39.24642440090402 0.5067251900601394 a60.24969552333006,60.24969552333006 0 0,0 -0.022315159763230865,1.036897788460772 l -39.23188717845578 -1.182212794311026" fill="#40ff2d" stroke="none" /><path d="M 120.9764740272857 100.99374915477107 l 43.99011951532681 2.0840082098531183 a65.03945623178687,65.03945623178687 0 0,0 -0.06260403555882074,1.1178371099150568 l -43.94772912888046 -2.840917036103598" fill="#34ff59" stroke="none" /><path d="M 120.8583938346157 102.4346265915055 l 29.95421149544387 3.496305631805675 a51.157568525741226,51.157568525741226 0 0,0 -0.1096196844885381,0.8737767411433022 l -29.889590301708484 -4.011400127236372" fill="#a7ff21" stroke="none" /><path d="M 120.81339534386255 102.79330883721812 l 27.802472889054407 3.7312938102822963 a49.05173884530612,49.05173884530612 0 0,0 -0.11951327463361557,0.8358755644298687 l -27.73412556340419 -4.209314846692575" fill="#c0ff1e" stroke="none" /><path d="M 120.70491114924044 103.5080841355445 l 28.405790077967538 4.812863035820413 a49.810632769085885,49.810632769085885 0 0,0 -0.15050770754927084,0.8441271531729132 l -28.318735928079075 -5.301108939726545" fill="#b7ff1f" stroke="none" /><path d="M 120.64145759157962 103.86396538481128 l 46.94273370623859 8.787417133919506 a68.75812965035723,68.75812965035723 0 0,0 -0.22778608039253948,1.1614763164736548 l -46.78451769287039 -9.594157177461106" fill="#39ff86" stroke="none" /><path d="M 120.49622156327973 104.57218783832717 l 17.965409607145816 4.007627799238827 a39.40698299368365,39.40698299368365 0 0,0 -0.15338592801371573,0.6607825634003853 l -17.893763113201548 -4.316279019987777" fill="#ffc011" stroke="none" /><path d="M 120.32669344350535 105.2749913415812 l 16.86546167449336 4.376765190658578 a38.42411751073681,38.42411751073681 0 0,0 -0.17164954183580106,0.6387718003679239 l -16.78762405631578 -4.66642792420205" fill="#ffb210" stroke="none" /><path d="M 120.23288151984713 105.62410040840565 l 21.275218057142997 5.913836961221993 a43.0818561489495,43.0818561489495 0 0,0 -0.20475649810852542,0.7127842314447362 l -21.17026892214837 -6.279178668171312" fill="#fff216" stroke="none" /><path d="M 120.13307415673323 105.97154293290107 l 18.841345760142314 5.588411597972258 a40.65265005645762,40.65265005645762 0 0,0 -0.20476009536429854,0.6691678389903567 l -18.742358892271884 -5.911906409514672" fill="#ffd113" stroke="none" /><path d="M 120.02730092923936 106.31721596034902 l 39.10373290105789 12.334499115212031 a62.00294861617203,62.00294861617203 0 0,0 -0.3298195152508515,1.0150800923266754 l -38.88562113479079 -13.005778107516502" fill="#30ff32" stroke="none" /><path d="M 119.67450827220406 107.3425965602758 l 15.134878897489237 5.6483907092050405 a37.154531155236256,37.154531155236256 0 0,0 -0.2287758770187296,0.5972616239700708 l -15.035408740877 -5.908075900008256" fill="#ffa10e" stroke="none" /><path d="M 119.54520255179757 107.68017299344265 l 19.345902335941524 7.60185913962873 a41.78586537940012,41.78586537940012 0 0,0 -0.2688171987499756,0.6671822417594263 l -19.212182522934157 -7.93374074923097" fill="#ffe015" stroke="none" /><path d="M 119.26925614724726 108.34839909993367 l 27.405580243128444 11.873458927867226 a50.867119971204154,50.867119971204154 0 0,0 -0.35500142503923265,0.8004344958243067 l -27.19713773335794 -12.34344176018422" fill="#aaff21" stroke="none" /><path d="M 119.12269723197855 108.67885076344098 l 45.12037029455096 20.477914565459393 a70.54990212369395,70.54990212369395 0 0,0 -0.5114040896519861,1.1015189124667553 l -44.76119158805914 -21.25155354520498" fill="#3bff9c" stroke="none" /><path d="M 118.81262510543309 109.33194174019688 l 9.670913937842538 4.797225530016052 a31.795367023820674,31.795367023820674 0 0,0 -0.2474305320793605,0.48820391353323883 l -9.586904735976908 -4.962983655251985" fill="#ff5307" stroke="none" /><path d="M 118.64920377521936 109.65438752849418 l 25.132796845395266 13.01083753199045 a49.30087225786092,49.30087225786092 0 0,0 -0.39663136715669306,0.7502770722270905 l -24.90511297001368 -13.441529619303674" fill="#bdff1f" stroke="none" /><line stroke="#e1ed5e" stroke-width="0.3" x1="174.80103733775053" x2="179.2010983576182" y1="140.37084112569926" y2="142.7455964860345" /><path d="M 175.68104954172406 140.8457921977663 a86.0,86.0 0 0,1 -30.038265399797805,32.042727171017184" fill="none" id="id101" stroke="none" /><text fill="#e1ed5e" style="font-size:6.75px; font-family:Arial;" text-anchor="middle"><textPath startOffset="22.206326154141568" xlink:href="#id101">May</textPath></text><path d="M 118.30583269289576 110.29060199501025 l 6.676253359746136 3.7530478561436857 a28.658833274985575,28.658833274985575 0 0,0 -0.24543971224323421,0.42794482647099163 l -6.610661651350521 -3.8674125284729923" fill="#ff2303" stroke="none" /><path d="M 117.94076556474637 110.91462005526583 l 4.61162607629812 2.805574058592961 a26.39799415207562,26.39799415207562 0 0,0 -0.2395119679908922,0.3861695546721755 l -4.562649468639265 -2.88453994463041" fill="#ff0000" stroke="none" /><path d="M 116.93607887273984 112.41649034213515 l 17.851914997712537 13.087925004559 a43.13559689754298,43.13559689754298 0 0,0 -0.4441708015940863,0.595039374090293 l -17.623982929423356 -13.393277258158609" fill="#fff216" stroke="none" /><path d="M 116.71984013943494 112.70617746262583 l 34.53343995743068 26.24355333751877 a64.37375435759121,64.37375435759121 0 0,0 -0.6780493149513255,0.876470141542058 l -34.07658382526129 -26.83410147317408" fill="#33ff50" stroke="none" /><path d="M 116.27256486870786 113.27417163493432 l 13.333414229402322 10.876590776486246 a38.20698003520589,38.20698003520589 0 0,0 -0.42010212010078885,0.5060400664986398 l -13.14421610940799 -11.104492100098657" fill="#ffaf10" stroke="none" /><path d="M 115.56566222782051 114.09645910891815 l 19.484957625236056 17.64582221964365 a47.28761334667935,47.28761334667935 0 0,0 -0.551584321265645,0.5986358415073504 l -19.178326895974692 -17.978609315952337" fill="#d6ff1c" stroke="none" /><path d="M 115.32070863581623 114.36230785411682 l 7.459295843426346 6.992672847244934 a31.224410400035502,31.224410400035502 0 0,0 -0.3709659919934945,0.3889563595026876 l -7.337823300053887 -7.120036323330129" fill="#ff4a06" stroke="none" /><path d="M 115.07121518719521 114.62390073753431 l 33.20123154160919 32.215817264748715 a67.26208661436735,67.26208661436735 0 0,0 -0.8134208320973885,0.8239910083924711 l -32.64177008445627 -32.78254876712185" fill="#37ff74" stroke="none" /><path d="M 114.55890576462653 115.13401014063108 l 13.140466465178015 13.659539800017939 a39.954020324742245,39.954020324742245 0 0,0 -0.4997375910157683,0.4725330843531164 l -12.903393039771439 -13.883707521116976" fill="#ffc712" stroke="none" /><path d="M 114.29624159901734 115.38237550388516 l 19.772753799422926 21.27495688863439 a50.04454481354193,50.04454481354193 0 0,0 -0.6360434074980981,0.5810105723058775 l -19.403610842457965 -21.612160227526847" fill="#b4ff20" stroke="none" /><path d="M 113.48314897796784 116.09983520530334 l 15.445850088519084 18.443439395153614 a45.056906319801584,45.056906319801584 0 0,0 -0.5988918318676243,0.49284720527872716 l -15.126088128106767 -18.70658171928952" fill="#f3ff19" stroke="none" /><path d="M 113.20401910651253 116.32954008644616 l 14.548725209486832 17.992551328392732 a44.13865399123304,44.13865399123304 0 0,0 -0.5949102520838047,0.4726326840043142 l -14.236857464685677 -18.240317926402174" fill="#ffff18" stroke="none" /><path d="M 112.92097659922987 116.55440617244103 l 21.00446320944101 26.911001094445567 a55.13780096347759,55.13780096347759 0 0,0 -0.7532119557364515,0.5775308090532344 l -20.53812252521106 -27.26857124532617" fill="#78ff26" stroke="none" /><path d="M 112.63410532772338 116.77436683061366 l 15.921974143822343 21.13968722185325 a47.464988881054396,47.464988881054396 0 0,0 -0.656859007035721,0.48592859012400846 l -15.555730166368058 -21.41062576071703" fill="#d4ff1c" stroke="none" /><path d="M 112.34349029814194 116.9893568818739 l 11.559389229091252 15.91013434661041 a40.66600758356467,40.66600758356467 0 0,0 -0.5698521293968143,0.4065743638121856 l -11.283809771845553 -16.106752972266815" fill="#ffd113" stroke="none" /><path d="M 111.7513745106137 117.40417183066458 l 11.848835702420953 17.548515058557 a42.174165586000484,42.174165586000484 0 0,0 -0.6051496738377253,0.40106020601651016 l -11.545011329843264 -17.74987328566483" fill="#ffe515" stroke="none" /><path d="M 111.45004920935366 117.60387380957326 l 18.26727934431078 28.085021692201387 a54.50316310580996,54.50316310580996 0 0,0 -0.7908621735402207,0.5047656575020266 l -17.78113536872363 -28.395301778527223" fill="#7fff26" stroke="none" /><path d="M 111.1453310114006 117.79835938074945 l 12.100510064930086 19.323717402892708 a43.79974557091225,43.79974557091225 0 0,0 -0.6424396511197005,0.39463890533329815 l -11.766091213878077 -19.529144775054384" fill="#fffb17" stroke="none" /><line stroke="#e1ed5e" stroke-width="0.3" x1="143.8653032363475" x2="146.44561519142675" y1="172.8068346515853" y2="177.08958963109032" /><path d="M 144.38136562736335 173.6633856474863 a86.0,86.0 0 0,1 -40.68145358897372,12.25698825130547" fill="none" id="id102" stroke="none" /><text fill="#e1ed5e" style="font-size:6.75px; font-family:Arial;" text-anchor="middle"><textPath startOffset="21.466115282336833" xlink:href="#id102">June</textPath></text><path d="M 110.5260780823613 118.17145234162733 l 14.955078792791499 25.81735565916778 a50.83605595467613,50.83605595467613 0 0,0 -0.7609703273435886,0.4320988119712769 l -14.50845969852671 -26.070957636933688" fill="#abff21" stroke="none" /><path d="M 110.21172684928248 118.3499491758327 l 14.243507765502084 25.594852608195854 a50.291193104774486,50.291193104774486 0 0,0 -0.7600608312078156,0.4144457667112284 l -13.80082412242562 -25.836239026666853" fill="#b1ff20" stroke="none" /><path d="M 109.57404056367764 118.69057910512821 l 21.48377370684749 41.940930715073456 a68.12318115252432,68.12318115252432 0 0,0 -1.048273323126555,0.5256260060128692 l -20.758646476038173 -42.30452456199563" fill="#38ff7f" stroke="none" /><path d="M 109.2508944713604 118.85261126421891 l 10.223390835536202 20.83448404056857 a44.20761610792526,44.20761610792526 0 0,0 -0.6860334317848428,0.32933773743971767 l -9.863244735751127 -21.007376054507848" fill="#feff18" stroke="none" /><path d="M 108.92500713936063 119.00905698771935 l 9.774129767050812 20.81757323507789 a43.99793399636107,43.99793399636107 0 0,0 -0.6883204494246331,0.31597415834472575 l -9.414341321858759 -20.982734463756692" fill="#fffe18" stroke="none" /><path d="M 108.2653958097858 119.30500536409082 l 12.737073284653572 29.749242957238046 a53.36124985823961,53.36124985823961 0 0,0 -0.8474999897433317,0.354255064446997 l -12.22310183541278 -29.964083064705015" fill="#8dff24" stroke="none" /><path d="M 107.93186726928326 119.44442032107085 l 10.055406719366367 24.650129422595263 a47.62217280468623,47.62217280468623 0 0,0 -0.7616801980088719,0.3030882700755144 l -9.629605445315628 -24.819564537076847" fill="#d2ff1c" stroke="none" /><path d="M 107.2578585660854 119.70592522655815 l 7.681469545226918 20.856078016682595 a43.22568254547427,43.22568254547427 0 0,0 -0.7004216308882661,0.2511462770285424 l -7.321328353708917 -20.985211834751098" fill="#fff316" stroke="none" /><path d="M 106.91757812671514 119.82793768551818 l 8.223549968494117 23.571260539774304 a45.9645968827506,45.9645968827506 0 0,0 -0.7492891774430818,0.25419957097116663 l -7.816591058113809 -23.709323097643594" fill="#e7ff1a" stroke="none" /><path d="M 106.57524785965236 119.94407469862006 l 11.07171272727196 33.58277442731246 a56.3607912941861,56.3607912941861 0 0,0 -0.9239913055415537,0.2958328373506917 l -10.492000076639465 -33.768380111322855" fill="#6aff28" stroke="none" /><path d="M 105.88484417918355 120.15858648285463 l 7.072885889914996 24.22823401162591 a46.23951342902365,46.23951342902365 0 0,0 -0.7659659773317073,0.21646963622128898 l -6.654788744478683 -24.34639244118572" fill="#e3ff1b" stroke="none" /><path d="M 105.53697534728816 120.25689768951611 l 6.837519005265537 25.014906921632306 a46.93255163776398,46.93255163776398 0 0,0 -0.7811131114591152,0.20629907216294585 l -6.405915450994924 -25.128897343098835" fill="#dbff1b" stroke="none" /><path d="M 104.83641907484287 120.43548508189849 l 5.074916893791439 21.44321798216361 a43.03557076432273,43.03557076432273 0 0,0 -0.7223415025619708,0.1644025742410799 l -4.7050552418366065 -21.52739728998237" fill="#fff116" stroke="none" /><path d="M 104.48393922423573 120.51570834832081 l 5.431945683858815 24.85319444376771 a46.439876335629435,46.439876335629435 0 0,0 -0.7824202275099743,0.163963766004093 l -5.003333994919462 -24.943014190498346" fill="#e1ff1b" stroke="none" /><path d="M 104.13013068566511 120.58985236759428 l 10.345620270244481 51.57579995104229 a73.60318430823392,73.60318430823392 0 0,0 -1.244357814289085,0.23848413670506208 l -9.456294841383691 -51.74624128609582" fill="#3fffbf" stroke="none" /><path d="M 103.41894727170886 120.7198165907248 l 4.256391860255652 25.794974790199394 a47.14378695015458,47.14378695015458 0 0,0 -0.8018128548702866,0.12522667781652613 l -3.8117431417768484 -25.864419775363025" fill="#d8ff1c" stroke="none" /><path d="M 103.06178313531738 120.77559828337769 l 4.397764511668492 29.840842672826486 a51.163160048716264,51.163160048716264 0 0,0 -0.8723840379989288,0.12090447848519341 l -3.883451882482733 -29.912121716804283" fill="#a7ff21" stroke="none" /><path d="M 102.34483914955558 120.86867818915974 l 4.954654476607588 44.09560025914785 a65.37308376929789,65.37308376929789 0 0,0 -1.1193347610862316,0.11602362467030201 l -4.194887118915753 -44.17435325227392" fill="#34ff5d" stroke="none" /><path d="M 101.98527174616119 120.90594882070398 l 2.4289666243779298 25.57828772541254 a46.69335871049816,46.69335871049816 0 0,0 -0.8008037363484949,0.06909671597853882 l -1.9883185702878932 -25.616308693669744" fill="#deff1b" stroke="none" /><path d="M 101.62511606390274 120.93702456842531 l 4.84407299905009 62.40814280599453 a83.59585714497032,83.59585714497032 0 0,0 -1.4356085300514776,0.09900796946550207 l -3.769101708219683 -62.48227911997631" fill="#4cd6ff" stroke="none" /><path d="M 100.90346689309514 120.98055641714683 l 1.0124627584911043 23.511688349764203 a44.533477641304295,44.533477641304295 0 0,0 -0.7661447209978643,0.026387573289418802 l -0.6075976858185878 -23.525632721479717" fill="#f9ff18" stroke="none" /><line stroke="#e1ed5e" stroke-width="0.3" x1="102.19456741930631" x2="102.32365962044197" y1="184.97166512339345" y2="189.96999836594603" /><path d="M 102.22038585953345 185.97133177190398 a86.0,86.0 0 0,1 -42.740103519485714,-10.115201625700543" fill="none" id="id103" stroke="none" /><text fill="#e1ed5e" style="font-size:6.75px; font-family:Arial;" text-anchor="middle"><textPath startOffset="22.20632615414155" xlink:href="#id103">July</textPath></text><path d="M 100.54218724476979 120.99299961872073 l 0.7523951807335643 29.132060731110318 a50.141775185274675,50.141775185274675 0 0,0 -0.8630123224903717,0.014857539778744763 l -0.25082316835052465 -29.14069574816822" fill="#b3ff20" stroke="none" /><line stroke="#e1ed5e" stroke-width="0.3" x1="58.666819895761336" x2="56.23545636021788" y1="174.27360380694188" y2="178.64263932499728" /><path d="M 58.180547188652646 175.14741091055294 a86.0,86.0 0 0,1 -31.652253787137756,-30.449443065178592" fill="none" id="id104" stroke="none" /><text fill="#e1ed5e" style="font-size:6.75px; font-family:Arial;" text-anchor="middle"><textPath startOffset="22.20632615414155" xlink:href="#id104">August</textPath></text><line stroke="#e1ed5e" stroke-width="0.3" x1="26.63291911575756" x2="22.317208475507996" y1="142.92168965132927" y2="145.44649492493687" /><path d="M 25.769776987707644 143.4266507060508 a86.0,86.0 0 0,1 -11.730757126820373,-40.83630448921669" fill="none" id="id105" stroke="none" /><text fill="#e1ed5e" style="font-size:6.75px; font-family:Arial;" text-anchor="middle"><textPath startOffset="21.46611528233685" xlink:href="#id105">September</textPath></text><line stroke="#e1ed5e" stroke-width="0.3" x1="15.007084014347285" x2="10.007500721073583" y1="101.09737516637583" y2="101.16192664675087" /><path d="M 14.007167355692545 101.11028546245083 a86.0,86.0 0 0,1 10.666146001902534,-42.60595125391555" fill="none" id="id106" stroke="none" /><text fill="#e1ed5e" style="font-size:6.75px; font-family:Arial;" text-anchor="middle"><textPath startOffset="22.20632615414155" xlink:href="#id106">October</textPath></text><line stroke="#e1ed5e" stroke-width="0.3" x1="26.266209847984243" x2="21.928928074336255" y1="57.711370442889674" y2="55.22380399835377" /><path d="M 25.398753493254645 57.213857153982495 a86.0,86.0 0 0,1 29.58750427330803,-30.492523968695096" fill="none" id="id107" stroke="none" /><text fill="#e1ed5e" style="font-size:6.75px; font-family:Arial;" text-anchor="middle"><textPath startOffset="21.46611528233685" xlink:href="#id107">November</textPath></text><line stroke="#e1ed5e" stroke-width="0.3" x1="56.762969772571076" x2="54.21961505331055" y1="26.818313649435495" y2="22.513508569990535" /><path d="M 56.25429882871897 25.957352633546506 a86.0,86.0 0 0,1 42.265352541879196,-11.944610805530505" fill="none" id="id108" stroke="none" /><text fill="#e1ed5e" style="font-size:6.75px; font-family:Arial;" text-anchor="middle"><textPath startOffset="22.20632615414155" xlink:href="#id108">December</textPath></text></svg>