<?xml version="1.0" encoding="utf-8" ?>
<svg baseProfile="full" height="200mm" version="1.1" viewBox="0,0,200,200" width="200mm" xmlns="http://www.w3.org/2000/svg" xmlns:ev="http://www.w3.org/2001/xml-events" xmlns:xlink="http://www.w3.org/1999/xlink"><defs /><rect fill="#1a1a1a" height="200" width="200" x="0" y="0" /><text alignment-baseline="middle" fill="#e1ed5e" style="dominant-baseline: central; font-size:9.0px; font-family:Arial;" text-anchor="middle" x="100.0" y="100.0">2025</text><line stroke="#e1ed5e" stroke-width="0.3" x1="100.0" x2="100.0" y1="15.0" y2="10.0" /><path d="M 100.0 14.0 a86.0,86.0 0 0,1 42.46469731375804,11.215312516191453" fill="none" id="id97" stroke="none" /><text fill="#e1ed5e" style="font-size:6.75px; font-family:Arial;" text-anchor="middle"><textPath startOffset="22.20632615414155" xlink:href="#id97">January</textPath></text><path d="M 101.44485096284872 79.0497635885617 l 1.3762896858026237 -19.95610276048113 a41.00350496003461,41.00350496003461 0 0,0 0.7037174027679228,0.054622014314807746 l -1.7195972779328876 19.929455483977858" fill="#ffd614" stroke="none" /><path d="M 102.16513564639614 79.11191278185805 l 1.9896905410743253 -19.195485339798704 a40.29832961371703,40.29832961371703 0 0,0 0.6893572281041537,0.07745731674214948 l -2.319814472688204 19.158392069585954" fill="#ffcc13" stroke="none" /><path d="M 102.88285421437855 79.19881850522331 l 2.555761521595575 -18.44105019356179 a39.61731047162113,39.61731047162113 0 0,0 0.6746847207923979,0.09943098974103991 l -2.8728152228166293 18.39432471965978" fill="#ffc312" stroke="none" /><path d="M 103.59715602781102 79.31037775812273 l 4.622868731935411 -26.58917405807743 a47.98805462428598,47.98805462428598 0 0,0 0.8126088739607902,0.1484990776511281 l -5.079872726999103 26.505659499075563" fill="#cdff1d" stroke="none" /><path d="M 104.66035177308747 79.52364482259891 l 5.041814896649259 -22.152403421278006 a43.71891007049246,43.71891007049246 0 0,0 0.7323465235530876,0.17332276095782104 l -5.42238510716487 22.062334748179318" fill="#fffa17" stroke="none" /><path d="M 105.36241919743992 79.69619591428918 l 5.882644453117553 -22.273540371296264 a44.0372764543372,44.0372764543372 0 0,0 0.7312329167841124,0.19987357864055666 l -6.265175259125376 22.168980251829414" fill="#fffe18" stroke="none" /><path d="M 106.0581310904928 79.89281104454417 l 4.3793438861371055 -14.535224428812452 a36.18062587869791,36.18062587869791 0 0,0 0.5947657751336972,0.18479662150548207 l -4.628895033981521 14.457687672424449" fill="#ff930d" stroke="none" /><path d="M 106.40334571778207 80.00007090966166 l 9.474323919056916 -29.591687675683872 a52.071382222528094,52.071382222528094 0 0,0 0.8512857136464143,0.2806555155448462 l -9.982292454945746 29.42421843587979" fill="#9cff22" stroke="none" /><path d="M 107.08798089147638 80.2323363322302 l 5.943212709486582 -16.575020692906318 a38.608324402977004,38.608324402977004 0 0,0 0.623648857609321,0.22969513744672745 l -6.22764389286848 16.470262287653266" fill="#ffb510" stroke="none" /><path d="M 108.43124777332544 80.76684994638697 l 6.610720611392743 -15.080209347385942 a37.46555012633587,37.46555012633587 0 0,0 0.5884194463402262,0.2640066535576911 l -6.869322176199749 14.96418236331172" fill="#ffa50f" stroke="none" /><path d="M 109.08828744355905 81.06846463323043 l 10.255853556297705 -21.363656852101606 a44.69785573132245,44.69785573132245 0 0,0 0.6907494518017421,0.3389477561071822 l -10.622074275109878 21.183953935859595" fill="#f7ff18" stroke="none" /><line stroke="#e1ed5e" stroke-width="0.3" x1="143.23703022742887" x2="145.7803849466894" y1="26.81831364943548" y2="22.513508569990506" /><path d="M 143.74570117128098 25.957352633546492 a86.0,86.0 0 0,1 28.547481713284135,27.462654790039103" fill="none" id="id98" stroke="none" /><text fill="#e1ed5e" style="font-size:6.75px; font-family:Arial;" text-anchor="middle"><textPath startOffset="19.985693538727396" xlink:href="#id98">February</textPath></text><path d="M 113.06298171725822 83.55741782278167 l 10.618577058811653 -13.36577128206238 a38.07038431665569,38.07038431665569 0 0,0 0.5095931260359815,0.41205553476129253 l -10.847073583412126 13.181009650036957" fill="#ffae10" stroke="none" /><path d="M 113.6212207817346 84.01681056812373 l 13.285019167658287 -15.588689249316266 a41.48167392565355,41.48167392565355 0 0,0 0.5394715424575625,0.46782440557834337 l -13.551384508762615 15.357699850318252" fill="#ffdc14" stroke="none" /><path d="M 114.42810811169701 84.74124197986012 l 12.042738827472798 -12.736059103908204 a38.52811341716398,38.52811341716398 0 0,0 0.4779628160558299,0.4597998503562655 l -12.260184887141046 12.526876166789636" fill="#ffb410" stroke="none" /><path d="M 114.68862486808459 84.99185889309783 l 14.264774288632324 -14.575070662133488 a41.394030261618475,41.394030261618475 0 0,0 0.5049366018960539,0.5027682436591886 l -14.5135466906957 14.32736656782418" fill="#ffdb14" stroke="none" /><path d="M 114.94478906791727 85.2469230424477 l 19.665974779972935 -19.413699186766568 a48.63407823975304,48.63407823975304 0 0,0 0.5829969283240397,0.6008295815147148 l -19.997235972000084 19.072305409701737" fill="#c5ff1e" stroke="none" /><path d="M 115.4437574822437 85.77008943001954 l 25.91600464267637 -23.879061091220013 a56.23987592539793,56.23987592539793 0 0,0 0.6498554068696631,0.7175865713579413 l -26.323203690162067 23.42942173259252" fill="#6cff28" stroke="none" /><path d="M 116.38621287248628 86.86637796730983 l 21.114730702265618 -16.923549969939977 a48.05990384709919,48.05990384709919 0 0,0 0.5118286372595325,0.6499703923077049 l -21.402913420119113 16.55758718367923" fill="#ccff1d" stroke="none" /><path d="M 116.60985879189232 87.15038557335679 l 17.89397807467865 -13.843026704758193 a43.623524033309415,43.623524033309415 0 0,0 0.45435782277601855,0.597881635547908 l -18.12961183767878 13.532960293329252" fill="#fff917" stroke="none" /><path d="M 116.82858285166822 87.43820079747576 l 16.488166098477294 -12.307693022791137 a41.575201793281096,41.575201793281096 0 0,0 0.42315119121498557,0.5771777492703668 l -16.697579902205906 12.022052829849276" fill="#ffde14" stroke="none" /><path d="M 117.2510076193507 88.02491185347247 l 17.999558169703203 -12.494707580962649 a42.91122570369569,42.91122570369569 0 0,0 0.4159845572114016,0.6104060079094153 l -18.211967192583337 12.183023549782828" fill="#ffef16" stroke="none" /><path d="M 117.45458315368197 88.32363383020206 l 15.783052796614149 -10.558184180505354 a39.98894438272394,39.98894438272394 0 0,0 0.3778067197151066,0.5754255539552686 l -15.96245615168718 10.28494056257241" fill="#ffc812" stroke="none" /><line stroke="#e1ed5e" stroke-width="0.3" x1="172.23445277983987" x2="176.4835382374775" y1="55.19839476539836" y2="52.563006222186495" /><path d="M 173.08426987136738 54.67131705675599 a86.0,86.0 0 0,1 12.851231095245387,41.99856678651699" fill="none" id="id99" stroke="none" /><text fill="#e1ed5e" style="font-size:6.75px; font-family:Arial;" text-anchor="middle"><textPath startOffset="22.20632615414155" xlink:href="#id99">March</textPath></text><path d="M 117.84615892207809 88.93136811851018 l 28.110424257099456 -17.434784677917953 a54.07820534248326,54.07820534248326 0 0,0 0.48383049718505367,0.7952901227087529 l -28.40637055257073 16.948326782002116" fill="#84ff25" stroke="none" /><path d="M 118.03404312379186 89.2402003453031 l 12.837906102885922 -7.659585635049711 a35.94928376903641,35.94928376903641 0 0,0 0.3124854267504041,0.5341388879557769 l -12.967851204106655 7.437467334740039" fill="#ff900d" stroke="none" /><path d="M 118.3937258080291 89.86733742301442 l 23.49023439183629 -12.940206972253613 a47.81865149980829,47.81865149980829 0 0,0 0.39095596041961395,0.7243820187374695 l -23.709498451474367 12.533943970183685" fill="#cfff1d" stroke="none" /><path d="M 118.56541770881063 90.18545643968196 l 20.65672632618204 -10.920106593974943 a44.36555307581135,44.36555307581135 0 0,0 0.3511017339920967,0.6782167966353287 l -20.84163749333425 10.56291707507927" fill="#fbff18" stroke="none" /><path d="M 118.89224826269711 90.83032412892265 l 20.07114476288233 -9.741873454018835 a43.3104224632053,43.3104224632053 0 0,0 0.31975838686532976,0.6734927112939048 l -20.235861343589416 9.39493832708439" fill="#fff517" stroke="none" /><path d="M 119.04729006885535 91.15688171328212 l 25.284995264342044 -11.739108460750987 a48.87718875659945,48.87718875659945 0 0,0 0.3477208930276717,0.766156895635463 l -25.48331847433306 11.302129556273462" fill="#c2ff1e" stroke="none" /><path d="M 119.196687751892 91.48605970444005 l 56.66857015303808 -25.13312864976743 a82.99194301613363,82.99194301613363 0 0,0 0.5679387247440597,1.3108808805176877 l -57.092799587624825 24.153948624663137" fill="#4cdcff" stroke="none" /><path d="M 119.47837535516314 92.15188598940014 l 17.84197963967082 -7.188786941094715 a40.23577123868139,40.23577123868139 0 0,0 0.2533061182494306,0.644636441525711 l -17.963079307801955 6.88060149467322" fill="#ffcb13" stroke="none" /><path d="M 119.61058180528143 92.48833698450437 l 14.168425076773023 -5.427092153296237 a36.1722641156981,36.1722641156981 0 0,0 0.21771467655864551,0.58336709225005 l -14.259744341833292 5.182401924016854" fill="#ff930d" stroke="none" /><path d="M 119.7369772167798 92.82701384747503 l 22.575284667644873 -8.204508853192364 a45.01993845427822,45.01993845427822 0 0,0 0.2584292801331059,0.7306143753974165 l -22.713167028587787 7.814696851368333" fill="#f3ff19" stroke="none" /><path d="M 119.97218684219823 93.5106431181261 l 12.093115639598304 -3.92929146012769 a33.71545426838261,33.71545426838261 0 0,0 0.17458908399763975,0.5534951070420276 l -12.15896020736415 3.7205461866592433" fill="#ff6f0a" stroke="none" /><path d="M 120.08093135843002 93.85539295169968 l 47.33430081018226 -14.483923738054784 a70.50070787411639,70.50070787411639 0 0,0 0.34509795328141624,1.1634987410826794 l -47.57660466057538 13.666995610225575" fill="#3bff9b" stroke="none" /><path d="M 120.37134235888165 94.90015583598534 l 23.460400776903057 -5.87317153085743 a45.18438645994121,45.18438645994121 0 0,0 0.18238828153057915,0.7561171762110527 l -23.558021858694456 5.4684691229869715" fill="#f1ff19" stroke="none" /><path d="M 120.45610955862082 95.25157060432595 l 21.40316470311117 -4.968267115771083 a42.97223560410174,42.97223560410174 0 0,0 0.16105505452922347,0.7219782297318758 l -21.48551414464243 4.599110716489244" fill="#fff016" stroke="none" /><path d="M 120.6074358757038 95.95851677861258 l 22.012189020770727 -4.316980197344189 a43.43151317923963,43.43151317923963 0 0,0 0.13756265041031093,0.7348651791217842 l -22.083237395090897 3.937436940759842" fill="#fff617" stroke="none" /><path d="M 120.67395015179393 96.31383870115 l 61.83312568356365 -11.02483430636994 a83.80829884085614,83.80829884085614 0 0,0 0.24100129315029298,1.42240327447402 l -62.01373883823417 9.958845243580082" fill="#4dd4ff" stroke="none" /><path d="M 120.78858239683441 97.02765380044208 l 22.759975153990986 -3.254215432279746 a43.99144160530119,43.99144160530119 0 0,0 0.10072783426649745,0.7505393634910864 l -22.812618987315318 2.861957726723995" fill="#fffe18" stroke="none" /><path d="M 120.91429891909075 98.10471618934814 l 22.043259408067275 -1.997591831872201 a43.13358666050554,43.13358666050554 0 0,0 0.06064482908895152,0.7400205226044181 l -22.07437872097572 1.617857392060014" fill="#fff216" stroke="none" /><path d="M 120.94382443527127 98.46500227214037 l 19.482371190068218 -1.4278860865405913 a40.534626842193234,40.534626842193234 0 0,0 0.04501159722935721,0.6963094865336582 l -19.504063378301993 1.092317535753898" fill="#ffd013" stroke="none" /><path d="M 120.96714384426684 98.82574320788733 l 46.57141274409968 -2.608213981800617 a67.64439157236538,67.64439157236538 0 0,0 0.055102450621126266,1.1631256426678998 l -46.609408802954306 1.8061772325097176" fill="#37ff79" stroke="none" /><line stroke="#e1ed5e" stroke-width="0.3" x1="184.98032266829074" x2="189.97916517819016" y1="98.17113171792111" y2="98.06355123074" /><path d="M 185.9800911702706 98.14961562048488 a86.0,86.0 0 0,1 -9.607161424134198,41.387399972396054" fill="none" id="id100" stroke="none" /><text fill="#e1ed5e" style="font-size:6.75px; font-family:Arial;" text-anchor="middle"><textPath startOffset="21.466115282336823" xlink:href="#id100">April</textPath></text><path d="M 120.99513854157772 99.54816195383933 l 31.094841959045052 -0.6691945665719746 a52.10204202019408,52.10204202019408 0 0,0 0.011579040917177668,0.8968094795862076 l -31.101754007079943 0.13384882892530428" fill="#9bff22" stroke="none" /><path d="M 120.99824983174949 100.27111621757518 l 39.12700241598489 0.5051832883728073 a60.13026358479251,60.13026358479251 0 0,0 -0.022270924804595003,1.0348423637508957 l -39.11250942849529 -1.1786154679138179" fill="#41ff2d" stroke="none" /><path d="M 120.9764740272857 100.99374915477107 l 43.85626305656545 2.0776668322420995 a64.90544964753768,64.90544964753768 0 0,0 -0.06247504688868865,1.1155339305601608 l -43.81400165878924 -2.8322724791376834" fill="#33ff57" stroke="none" /><path d="M 120.8583938346157 102.4346265915055 l 29.86306455790551 3.4856668089114153 a51.065802798069086,51.065802798069086 0 0,0 -0.10942305023862804,0.8722093727013549 l -29.798639998420033 -3.9991939359001654" fill="#a8ff21" stroke="none" /><path d="M 120.81339534386255 102.79330883721812 l 27.717873424294137 3.7199399476071 a48.96638089526412,48.96638089526412 0 0,0 -0.11930530222803575,0.8344210059096306 l -27.649734071049497 -4.19650642549714" fill="#c1ff1e" stroke="none" /><path d="M 120.70491114924044 103.5080841355445 l 28.319354794089065 4.798218092601883 a49.722965599284265,49.722965599284265 0 0,0 -0.1502428126057486,0.8426414816534521 l -28.232565539144126 -5.284978324988553" fill="#b8ff1f" stroke="none" /><path d="M 120.64145759157962 103.86396538481128 l 46.799892809970856 8.76067811724565 a68.61280760571412,68.61280760571412 0 0,0 -0.22730464875511402,1.1590215069264376 l -46.64215822824008 -9.564963351240033" fill="#38ff85" stroke="none" /><path d="M 120.49622156327973 104.57218783832717 l 17.910743101650834 3.9954330866272207 a39.350972835330786,39.350972835330786 0 0,0 -0.15316791664962512,0.6598433761497704 l -17.839314619070656 -4.303145120125556" fill="#ffbf11" stroke="none" /><path d="M 120.32669344350535 105.2749913415812 l 16.814142173660084 4.363447238906996 a38.37109808972305,38.37109808972305 0 0,0 -0.17141269165120362,0.6378903927206055 l -16.736541405667104 -4.65222856480315" fill="#ffb210" stroke="none" /><path d="M 120.23288151984713 105.62410040840565 l 21.210480216466923 5.895841891373516 a43.01466380895265,43.01466380895265 0 0,0 -0.20443715095249979,0.7116725421002 l -21.105850428628322 -6.260071908978299" fill="#fff116" stroke="none" /><path d="M 120.13307415673323 105.97154293290107 l 18.78401388995105 5.571406757002348 a40.592849488266005,40.592849488266005 0 0,0 -0.20445889064507977,0.6681834845403614 l -18.68532822679984 -5.893917214094767" fill="#ffd013" stroke="none" /><path d="M 120.02730092923936 106.31721596034902 l 38.98474510861369 12.29696676953195 a61.87818174667939,61.87818174667939 0 0,0 -0.32915582829186235,1.0130374738991565 l -38.76729702930558 -12.966203143408903" fill="#2fff30" stroke="none" /><path d="M 119.67450827220406 107.3425965602758 l 15.088825344661453 5.631203359264535 a37.105374927492065,37.105374927492065 0 0,0 -0.22847320171201874,0.596471434254365 l -14.989657863355928 -5.890098360352043" fill="#ffa00e" stroke="none" /><path d="M 119.54520255179757 107.68017299344265 l 19.287035162886223 7.578727628379283 a41.722616578018545,41.722616578018545 0 0,0 -0.26841030600149923,0.6661723673267393 l -19.15372224262733 -7.9095993635488355" fill="#ffe015" stroke="none" /><path d="M 119.26925614724726 108.34839909993367 l 27.32218847329324 11.83732947009708 a50.77623804233481,50.77623804233481 0 0,0 -0.35436716042434596,0.7990043965587054 l -27.114380228137623 -12.305882203148473" fill="#abff21" stroke="none" /><path d="M 119.12269723197855 108.67885076344098 l 44.98307462333721 20.415602820077687 a70.39912793841495,70.39912793841495 0 0,0 -0.5103111535508071,1.0991648253369757 l -44.62498885294657 -21.186887712693494" fill="#3bff9a" stroke="none" /><path d="M 118.81262510543309 109.33194174019688 l 9.641486550352617 4.7826281697814705 a31.762518065537343,31.762518065537343 0 0,0 -0.24717490253370347,0.48769953218807627 l -9.557732978032645 -4.947881913672242" fill="#ff5207" stroke="none" /><path d="M 118.64920377521936 109.65438752849418 l 25.05632087257322 12.971247172683867 a49.214756225851175,49.214756225851175 0 0,0 -0.3959385534609945,0.7489665298084869 l -24.829329810887334 -13.400628717578488" fill="#beff1f" stroke="none" /><line stroke="#e1ed5e" stroke-width="0.3" x1="174.80103733775053" x2="179.2010983576182" y1="140.37084112569926" y2="142.7455964860345" /><path d="M 175.68104954172406 140.8457921977663 a86.0,86.0 0 0,1 -30.038265399797805,32.042727171017184" fill="none" id="id101" stroke="none" /><text fill="#e1ed5e" style="font-size:6.75px; font-family:Arial;" text-anchor="middle"><textPath startOffset="22.206326154141568" xlink:href="#id101">May</textPath></text><path d="M 118.30583269289576 110.29060199501025 l 6.655938351685798 3.7416277986143998 a28.63552839853313,28.63552839853313 0 0,0 -0.24524012483800148,0.4275968290066959 l -6.590546230695417 -3.8556444734794106" fill="#ff2303" stroke="none" /><path d="M 117.94076556474637 110.91462005526583 l 4.59759347210186 2.7970370459088945 a26.381568727694592,26.381568727694592 0 0,0 -0.23936293826931862,0.3859292713089025 l -4.548765894164578 -2.8757626485830703" fill="#ff0000" stroke="none" /><path d="M 116.93607887273984 112.41649034213515 l 17.797593842188746 13.048100077667547 a43.06824103113664,43.06824103113664 0 0,0 -0.44347723267825945,0.5941102251861307 l -17.570355342815393 -13.352523182362992" fill="#fff216" stroke="none" /><path d="M 116.71984013943494 112.70617746262583 l 34.42835899760427 26.163697470933755 a64.24177342129326,64.24177342129326 0 0,0 -0.6766591586005501,0.874673177063719 l -33.97289302178565 -26.75244864211073" fill="#33ff4f" stroke="none" /><path d="M 116.27256486870786 113.27417163493432 l 13.292842309352768 10.8434946644325 a38.154621336505656,38.154621336505656 0 0,0 -0.4195264137688721,0.5053465911350378 l -13.104219895690353 -11.070702512681308" fill="#ffaf10" stroke="none" /><path d="M 115.56566222782051 114.09645910891815 l 19.425667324241985 17.59212817879362 a47.207623410970086,47.207623410970086 0 0,0 -0.5506512821191605,0.5976232117913108 l -19.119969634127106 -17.923902645386267" fill="#d7ff1c" stroke="none" /><path d="M 115.32070863581623 114.36230785411682 l 7.436598134544095 6.971395014065083 a31.19329879169821,31.19329879169821 0 0,0 -0.370596366162246,0.38856880829636814 l -7.315495217002884 -7.098370938943958" fill="#ff4a06" stroke="none" /><path d="M 115.07121518719521 114.62390073753431 l 33.100204326188084 32.11778854232937 a67.12131684248818,67.12131684248818 0 0,0 -0.8117184605127453,0.8222665149650382 l -32.542445240619806 -32.68279555127508" fill="#36ff73" stroke="none" /><path d="M 114.55890576462653 115.13401014063108 l 13.1004816611611 13.617975520445952 a39.89634559987416,39.89634559987416 0 0,0 -0.49901620608794856,0.47185096987728586 l -12.864129620682343 -13.84146112706916" fill="#ffc712" stroke="none" /><path d="M 114.29624159901734 115.38237550388516 l 19.71258777048935 21.210219842661584 a49.956165878501274,49.956165878501274 0 0,0 -0.6349201514228604,0.5799845045132924 l -19.344568069599628 -21.546397113761458" fill="#b5ff20" stroke="none" /><path d="M 113.48314897796784 116.09983520530334 l 15.398850289059856 18.387318304508373 a44.983704147945694,44.983704147945694 0 0,0 -0.5979188360190346,0.49204649593655797 l -15.08006132449613 -18.64965991930211" fill="#f3ff19" stroke="none" /><path d="M 113.20401910651253 116.32954008644616 l 14.504455249380099 17.937802234017997 a44.0682459469291,44.0682459469291 0 0,0 -0.5939612773508212,0.4718787610831151 l -14.193536479311927 -18.18481490910624" fill="#ffff18" stroke="none" /><path d="M 112.92097659922987 116.55440617244103 l 20.940549242068876 26.82911426740546 a55.03392388386932,55.03392388386932 0 0,0 -0.7517929390741845,0.5764427675865827 l -20.4756275745012 -27.18559637681941" fill="#79ff26" stroke="none" /><path d="M 112.63410532772338 116.77436683061366 l 15.873525558120296 21.075361784641068 a47.38445921366984,47.38445921366984 0 0,0 -0.6557445721943331,0.4851041578707239 l -15.5083960155074 -21.345475891251564" fill="#d5ff1c" stroke="none" /><path d="M 112.34349029814194 116.9893568818739 l 11.524215446325984 15.861721787937716 a40.60616637008052,40.60616637008052 0 0,0 -0.569013575406493,0.4059760778050807 l -11.249474543070606 -16.057742127587016" fill="#ffd113" stroke="none" /><path d="M 111.7513745106137 117.40417183066458 l 11.812781170061282 17.495117111287495 a42.109735235417304,42.109735235417304 0 0,0 -0.6042251740853556,0.4004474979920701 l -11.509881297235962 -17.695862630370883" fill="#ffe515" stroke="none" /><path d="M 111.45004920935366 117.60387380957326 l 18.211694286775717 27.999562466598604 a54.401217150216794,54.401217150216794 0 0,0 -0.7893828979270325,0.5038215138161866 l -17.727029586801756 -28.3088984092386" fill="#80ff25" stroke="none" /><path d="M 111.1453310114006 117.79835938074945 l 12.063689718808194 19.264917735827577 a43.73036878275147,43.73036878275147 0 0,0 -0.6414220561770618,0.394013815406897 l -11.730288462698823 -19.469720018062855" fill="#fffa17" stroke="none" /><line stroke="#e1ed5e" stroke-width="0.3" x1="143.8653032363475" x2="146.44561519142675" y1="172.8068346515853" y2="177.08958963109032" /><path d="M 144.38136562736335 173.6633856474863 a86.0,86.0 0 0,1 -40.68145358897372,12.25698825130547" fill="none" id="id102" stroke="none" /><text fill="#e1ed5e" style="font-size:6.75px; font-family:Arial;" text-anchor="middle"><textPath startOffset="21.466115282336833" xlink:href="#id102">June</textPath></text><path d="M 110.5260780823613 118.17145234162733 l 14.909572349304737 25.73879665907426 a50.74526854974291,50.74526854974291 0 0,0 -0.7596113210250752,0.4313271327157388 l -14.464312261358463 -25.99162695758463" fill="#abff21" stroke="none" /><path d="M 110.21172684928248 118.3499491758327 l 14.200166544090637 25.516970657194154 a50.202063649680966,50.202063649680966 0 0,0 -0.7587137999774699,0.41371125788230023 l -13.758829932244517 -25.757622566836222" fill="#b2ff20" stroke="none" /><path d="M 109.57404056367764 118.69057910512821 l 21.418401257285787 41.81330968279326 a67.97979117713567,67.97979117713567 0 0,0 -1.0460668512111118,0.5245196351888604 l -20.695480498391916 -42.17579715889143" fill="#38ff7d" stroke="none" /><path d="M 109.2508944713604 118.85261126421891 l 10.192282329606792 20.771087298652045 a44.13699822048312,44.13699822048312 0 0,0 -0.6849375520262724,0.3288116485591006 l -9.833232109580287 -20.943453223710705" fill="#feff18" stroke="none" /><path d="M 108.92500713936063 119.00905698771935 l 9.74438830663865 20.754227950637784 a43.92795414548779,43.92795414548779 0 0,0 -0.6872256579644761,0.31547159328149793 l -9.385694652906754 -20.918886614253356" fill="#fffd17" stroke="none" /><path d="M 108.2653958097858 119.30500536409082 l 12.69831595587947 29.658719713451458 a53.26277860253852,53.26277860253852 0 0,0 -0.8459360385911681,0.3536013327385524 l -12.185908457790841 -29.87290608920998" fill="#8eff24" stroke="none" /><path d="M 107.93186726928326 119.44442032107085 l 10.024809368195486 24.575122146668953 a47.541164846184856,47.541164846184856 0 0,0 -0.760384537726325,0.30257270010970816 l -9.600303754427294 -24.74404169118473" fill="#d3ff1c" stroke="none" /><path d="M 107.2578585660854 119.70592522655815 l 7.658095789421389 20.792615566984296 a43.15805255965314,43.15805255965314 0 0,0 -0.6993257660649415,0.2507533388919011 l -7.299050462726712 -20.921356446916157" fill="#fff316" stroke="none" /><path d="M 106.91757812671514 119.82793768551818 l 8.198526729426849 23.499536127584513 a45.88863272148103,45.88863272148103 0 0,0 -0.7480508521281003,0.2537794637905649 l -7.792806144361522 -23.6371785782732" fill="#e8ff1a" stroke="none" /><path d="M 106.57524785965236 119.94407469862006 l 11.03802288340647 33.480586224376225 a56.25319280721246,56.25319280721246 0 0,0 -0.9222273120955758,0.2952680623543666 l -10.460074226219954 -33.6656271333903" fill="#6bff28" stroke="none" /><path d="M 105.88484417918355 120.15858648285463 l 7.051363978429457 24.154510510926904 a46.16271273091935,46.16271273091935 0 0,0 -0.7646937597536934,0.21611009482590432 l -6.634539050571158 -24.272309399091327" fill="#e4ff1a" stroke="none" /><path d="M 105.53697534728816 120.25689768951611 l 6.816713285916687 24.938789673175915 a46.85364211064466,46.85364211064466 0 0,0 -0.7797997955599996,0.20595221349744697 l -6.38642304754519 -25.052433235976945" fill="#dcff1b" stroke="none" /><path d="M 104.83641907484287 120.43548508189849 l 5.059474553297814 21.377968938624647 a42.96851926499072,42.96851926499072 0 0,0 -0.7212160595873265,0.1641464270841786 l -4.690738344317625 -21.46189209928651" fill="#fff016" stroke="none" /><path d="M 104.48393922423573 120.51570834832081 l 5.415416949192114 24.77756926625505 a46.362465958137115,46.362465958137115 0 0,0 -0.7811160154847002,0.1636904556935808 l -4.988109472278036 -24.86711570267517" fill="#e2ff1b" stroke="none" /><path d="M 104.13013068566511 120.58985236759428 l 10.31413983535769 51.418861210813944 a73.44311936527288,73.44311936527288 0 0,0 -1.2416517076927562,0.2379655049352877 l -9.427520513093228 -51.5887839140977" fill="#3fffbd" stroke="none" /><path d="M 103.41894727170886 120.7198165907248 l 4.243440189567059 25.716483892304677 a47.06423466026959,47.06423466026959 0 0,0 -0.8004598441600611,0.12501536536965954 l -3.80014448179848 -25.78571756502144" fill="#d9ff1c" stroke="none" /><path d="M 103.06178313531738 120.77559828337769 l 4.38438266159661 29.750040702505686 a51.07137730673562,51.07137730673562 0 0,0 -0.8708190486786552,0.12068758522561865 l -3.871635021731125 -29.82110285322391" fill="#a8ff21" stroke="none" /><path d="M 102.34483914955558 120.86867818915974 l 4.939578079681827 43.96142283561099 a65.2380619979747,65.2380619979747 0 0,0 -1.1170228835759273,0.11578398911366213 l -4.182122599500297 -44.03993619318042" fill="#34ff5b" stroke="none" /><path d="M 101.98527174616119 120.90594882070398 l 2.4215755812443582 25.50045617928751 a46.615177017687024,46.615177017687024 0 0,0 -0.7994628991620893,0.06898102290414711 l -1.982268364340727 -25.538361454470323" fill="#dfff1b" stroke="none" /><path d="M 101.62511606390274 120.93702456842531 l 4.829333087797783 62.218242594630645 a83.4053857422355,83.4053857422355 0 0,0 -1.432337526202294,0.09878238188891537 l -3.757632800816559 -62.29215332103585" fill="#4cd8ff" stroke="none" /><path d="M 100.90346689309514 120.98055641714683 l 1.0093819603261402 23.440145208334375 a44.46186819777216,44.46186819777216 0 0,0 -0.7649127669704328,0.026345142301777584 l -0.6057488416810551 -23.454047149062244" fill="#faff18" stroke="none" /><line stroke="#e1ed5e" stroke-width="0.3" x1="102.19456741930631" x2="102.32365962044197" y1="184.97166512339345" y2="189.96999836594603" /><path d="M 102.22038585953345 185.97133177190398 a86.0,86.0 0 0,1 -42.740103519485714,-10.115201625700543" fill="none" id="id103" stroke="none" /><text fill="#e1ed5e" style="font-size:6.75px; font-family:Arial;" text-anchor="middle"><textPath startOffset="22.20632615414155" xlink:href="#id103">July</textPath></text><path d="M 100.54218724476979 120.99299961872073 l 0.750105735840217 29.04341549602455 a50.05310039031393,50.05310039031393 0 0,0 -0.8614861012813566,0.014831264496534805 l -0.25005994466619236 -29.052024237800246" fill="#b4ff20" stroke="none" /><path d="M 99.81925306533755 120.99922214144158 l -0.2411463679919336 28.016442765800875 a49.01748055804076,49.01748055804076 0 0,0 -0.8436615892180177,-0.014524399356702774 l 0.7233676471026192 -28.008140889165013" fill="#c1ff1e" stroke="none" /><path d="M 99.45781275523022 120.99299961872073 l -0.6460158915860748 25.013150893124617 a46.02149184470028,46.02149184470028 0 0,0 -0.7917442090029333,-0.02726927141692793 l 1.076480452263651 -24.998324823281596" fill="#e6ff1a" stroke="none" /><path d="M 99.09653310690486 120.98055641714683 l -2.427963460839922 56.38283456564793 a77.43508696036888,77.43508696036888 0 0,0 -1.3311900150539155,-0.06880731838410398 l 3.398141544307326 -56.33268744050163" fill="#44ffe9" stroke="none" /><path d="M 98.37488393609728 120.93702456842531 l -2.0193920080684333 26.01664030363155 a47.09489445793557,47.09489445793557 0 0,0 -0.8076901830660891,-0.06969090757798944 l 2.4669265088760644 -25.9780251437749" fill="#d9ff1c" stroke="none" /><path d="M 98.01472825383883 120.90594882070398 l -2.957501165685076 31.144032612432536 a52.284142636634456,52.284142636634456 0 0,0 -0.8952225431694019,-0.09279347694364062 l 3.4931563054600714 -31.088509767033134" fill="#99ff23" stroke="none" /><path d="M 97.2962882734958 120.8252237178851 l -3.355802454520648 25.847924607990564 a47.06485405012142,47.06485405012142 0 0,0 -0.8025037426339598,-0.1112197062983052 l 3.800234788341439 -25.78633033619965" fill="#d9ff1c" stroke="none" /><path d="M 96.93821686468263 120.77559828337769 l -3.956374801150925 26.845811703339358 a48.13577910394935,48.13577910394935 0 0,0 -0.8186844749139647,-0.1278616778849577 l 4.417895139673407 -26.773731718107292" fill="#cbff1d" stroke="none" /><path d="M 96.58105272829116 120.7198165907248 l -10.256841815126537 62.1594497721744 a84.0,84.0 0 0,0 -1.4246041141118002,-0.24768568591597528 l 11.325294900710388 -61.97368550773742" fill="#4dd2ff" stroke="none" /><path d="M 95.86986931433489 120.58985236759428 l -4.878047639242967 24.31842679523596 a45.802847227001465,45.802847227001465 0 0,0 -0.7716875447504025,-0.16171462797990888 l 5.295926645422756 -24.23085618652951" fill="#e9ff1a" stroke="none" /><line stroke="#e1ed5e" stroke-width="0.3" x1="58.666819895761336" x2="56.23545636021788" y1="174.27360380694188" y2="178.64263932499728" /><path d="M 58.180547188652646 175.14741091055294 a86.0,86.0 0 0,1 -31.652253787137756,-30.449443065178592" fill="none" id="id104" stroke="none" /><text fill="#e1ed5e" style="font-size:6.75px; font-family:Arial;" text-anchor="middle"><textPath startOffset="22.20632615414155" xlink:href="#id104">August</textPath></text><line stroke="#e1ed5e" stroke-width="0.3" x1="26.63291911575756" x2="22.317208475507996" y1="142.92168965132927" y2="145.44649492493687" /><path d="M 25.769776987707644 143.4266507060508 a86.0,86.0 0 0,1 -11.730757126820373,-40.83630448921669" fill="none" id="id105" stroke="none" /><text fill="#e1ed5e" style="font-size:6.75px; font-family:Arial;" text-anchor="middle"><textPath startOffset="21.46611528233685" xlink:href="#id105">September</textPath></text><line stroke="#e1ed5e" stroke-width="0.3" x1="15.007084014347285" x2="10.007500721073583" y1="101.09737516637583" y2="101.16192664675087" /><path d="M 14.007167355692545 101.11028546245083 a86.0,86.0 0 0,1 10.666146001902534,-42.60595125391555" fill="none" id="id106" stroke="none" /><text fill="#e1ed5e" style="font-size:6.75px; font-family:Arial;" text-anchor="middle"><textPath startOffset="22.20632615414155" xlink:href="#id106">October</textPath></text><line stroke="#e1ed5e" stroke-width="0.3" x1="26.266209847984243" x2="21.928928074336255" y1="57.711370442889674" y2="55.22380399835377" /><path d="M 25.398753493254645 57.213857153982495 a86.0,86.0 0 0,1 29.58750427330803,-30.492523968695096" fill="none" id="id107" stroke="none" /><text fill="#e1ed5e" style="font-size:6.75px; font-family:Arial;" text-anchor="middle"><textPath startOffset="21.46611528233685" xlink:href="#id107">November</textPath></text><line stroke="#e1ed5e" stroke-width="0.3" x1="56.762969772571076" x2="54.21961505331055" y1="26.818313649435495" y2="22.513508569990535" /><path d="M 56.25429882871897 25.957352633546506 a86.0,86.0 0 0,1 42.265352541879196,-11.944610805530505" fill="none" id="id108" stroke="none" /><text fill="#e1ed5e" style="font-size:6.75px; font-family:Arial;" text-anchor="middle"><textPath startOffset="22.20632615414155" xlink:href="#id108">December</textPath></text></svg>