<?xml version="1.0" encoding="utf-8" ?>
<svg baseProfile="full" height="200mm" version="1.1" viewBox="0,0,200,200" width="200mm" xmlns="http://www.w3.org/2000/svg" xmlns:ev="http://www.w3.org/2001/xml-events" xmlns:xlink="http://www.w3.org/1999/xlink"><defs /><rect fill="#1a1a1a" height="200" width="200" x="0" y="0" /><text alignment-baseline="middle" fill="#e1ed5e" style="dominant-baseline: central; font-size:9.0px; font-family:Arial;" text-anchor="middle" x="100.0" y="100.0">2026</text><line stroke="#e1ed5e" stroke-width="0.3" x1="100.0" x2="100.0" y1="15.0" y2="10.0" /><path d="M 100.0 14.0 a86.0,86.0 0 0,1 42.46469731375804,11.215312516191453" fill="none" id="id109" stroke="none" /><text fill="#e1ed5e" style="font-size:6.75px; font-family:Arial;" text-anchor="middle"><textPath startOffset="22.20632615414155" xlink:href="#id109">January</textPath></text><path d="M 100.0 79.0 l 0.0 -41.14597713087897 a62.14597713087897,62.14597713087897 0 0,0 1.069740838006177,0.009207597121954821 l -0.7082603587336487 41.13988091036557" fill="#4cff2c" stroke="none" /><path d="M 100.72285384407766 79.0124445844662 l 1.1573701784245123 -33.60343305217456 a54.623358229389936,54.623358229389936 0 0,0 0.9394155519155155,0.04045320977858803 l -1.7356265627293594 33.578532115871774" fill="#adff20" stroke="none" /><path d="M 101.08401301168833 79.027996857942 l 1.8214820882568663 -35.239547557302295 a56.28659106574636,56.28659106574636 0 0,0 0.9671589618079296,0.05834166977281352 l -2.4278030989044077 35.202972618149175" fill="#97ff23" stroke="none" /><path d="M 102.16513564639614 79.11191278185805 l 3.4823261030921264 -33.59564629794672 a54.77564278093043,54.77564278093043 0 0,0 0.9370111773127314,0.10528412351843924 l -4.060103983914583 33.53072622095768" fill="#abff21" stroke="none" /><path d="M 102.88285421437855 79.19881850522331 l 6.6717739898607755 -48.140062360087285 a69.60018695648068,69.60018695648068 0 0,0 1.1852945630286837,0.17468160743020547 l -7.4994375333181145 48.01808626849611" fill="#37ff79" stroke="none" /><path d="M 103.59715602781102 79.31037775812273 l 7.409447847214259 -42.61663263826795 a64.25595097585618,64.25595097585618 0 0,0 1.088082365008918,0.19884009735793126 l -8.141925333326078 42.48277705955928" fill="#32ff2f" stroke="none" /><path d="M 104.307194497241 79.44645832069477 l 9.06134781235692 -43.239930319203836 a65.17917606957047,65.17917606957047 0 0,0 1.0961190601260509,0.23956917132397573 l -9.8043095966365 43.07754764978399" fill="#30ff3a" stroke="none" /><path d="M 104.66035177308747 79.52364482259891 l 7.419106470229053 -32.59759489844698 a54.43121795537594,54.43121795537594 0 0,0 0.9117911031657827,0.21579149533030462 l -7.979121260357359 32.4650574909758" fill="#b0ff20" stroke="none" /><path d="M 105.71112130821622 79.79150937346287 l 12.498116555078806 -44.22390238661633 a66.95602745805282,66.95602745805282 0 0,0 1.1063998338249115,0.3229884509745678 l -13.257506606627144 44.002215606723055" fill="#33ff53" stroke="none" /><path d="M 106.0581310904928 79.89281104454417 l 9.606737134756253 -31.88515994925848 a54.30094328042528,54.30094328042528 0 0,0 0.8926418998099258,0.2773481834290627 l -10.154164407276896 31.715071630946895" fill="#b2ff20" stroke="none" /><path d="M 107.76421540070413 80.48803036053334 l 12.785915821992925 -32.13182381685047 a55.582275014871534,55.582275014871534 0 0,0 0.8859182863072311,0.36138831306814956 l -13.337117977888543 31.90697461759874" fill="#a0ff22" stroke="none" /><path d="M 109.41281617654863 81.2277094730956 l 15.088040327335024 -30.090577696826617 a54.661429367275055,54.661429367275055 0 0,0 0.8374638872537502,0.4289815303252249 l -15.60376470217753 29.826403641188893" fill="#adff20" stroke="none" /><path d="M 110.05341064243156 81.56283822128135 l 16.645980686963355 -30.527415004381087 a55.7708461197088,55.7708461197088 0 0,0 0.8388888962517321,0.4668407625183521 l -17.168993672287122 30.236358844302554" fill="#9eff22" stroke="none" /><line stroke="#e1ed5e" stroke-width="0.3" x1="143.23703022742887" x2="145.7803849466894" y1="26.81831364943548" y2="22.513508569990506" /><path d="M 143.74570117128098 25.957352633546492 a86.0,86.0 0 0,1 28.547481713284135,27.462654790039103" fill="none" id="id110" stroke="none" /><text fill="#e1ed5e" style="font-size:6.75px; font-family:Arial;" text-anchor="middle"><textPath startOffset="19.985693538727396" xlink:href="#id110">February</textPath></text><path d="M 110.99172775467656 82.1063720568725 l 17.452962719007417 -28.41198657475148 a54.34436817207549,54.34436817207549 0 0,0 0.7928606468740137,0.49648926433533186 l -17.939442518253692 28.107352969093203" fill="#b1ff20" stroke="none" /><path d="M 111.90073688211348 82.69761687909136 l 12.303469855245506 -17.8879132662752 a42.71066124052234,42.71066124052234 0 0,0 0.6021569905290561,0.42184945318377254 l -12.609557985358213 17.67347897032749" fill="#ff9f0e" stroke="none" /><path d="M 112.19680574252982 82.90503203632743 l 7.1652361305955035 -10.042750921051647 a33.33683325936907,33.33683325936907 0 0,0 0.46426252498263226,0.3373064685590316 l -7.337043971931925 9.91792521767594" fill="#ff0000" stroke="none" /><path d="M 112.48926042617603 83.11751280151076 l 37.46778127852809 -50.647461595467746 a84.0,84.0 0 0,0 1.1550153849664682,0.8699336419766106 l -38.33404281725294 49.995011363985284" fill="#4dd2ff" stroke="none" /><path d="M 113.06298171725822 83.55741782278167 l 17.3796479542292 -21.876038402549124 a48.93945631544657,48.93945631544657 0 0,0 0.655081659351123,0.5296971439861662 l -17.753633012144814 21.573635161298828" fill="#ffff18" stroke="none" /><line stroke="#e1ed5e" stroke-width="0.3" x1="172.23445277983987" x2="176.4835382374775" y1="55.19839476539836" y2="52.563006222186495" /><path d="M 173.08426987136738 54.67131705675599 a86.0,86.0 0 0,1 12.851231095245387,41.99856678651699" fill="none" id="id111" stroke="none" /><text fill="#e1ed5e" style="font-size:6.75px; font-family:Arial;" text-anchor="middle"><textPath startOffset="22.20632615414155" xlink:href="#id111">March</textPath></text><line stroke="#e1ed5e" stroke-width="0.3" x1="184.98032266829074" x2="189.97916517819016" y1="98.17113171792111" y2="98.06355123074" /><path d="M 185.9800911702706 98.14961562048488 a86.0,86.0 0 0,1 -9.607161424134198,41.387399972396054" fill="none" id="id112" stroke="none" /><text fill="#e1ed5e" style="font-size:6.75px; font-family:Arial;" text-anchor="middle"><textPath startOffset="21.466115282336823" xlink:href="#id112">April</textPath></text><line stroke="#e1ed5e" stroke-width="0.3" x1="174.80103733775053" x2="179.2010983576182" y1="140.37084112569926" y2="142.7455964860345" /><path d="M 175.68104954172406 140.8457921977663 a86.0,86.0 0 0,1 -30.038265399797805,32.042727171017184" fill="none" id="id113" stroke="none" /><text fill="#e1ed5e" style="font-size:6.75px; font-family:Arial;" text-anchor="middle"><textPath startOffset="22.206326154141568" xlink:href="#id113">May</textPath></text><line stroke="#e1ed5e" stroke-width="0.3" x1="143.8653032363475" x2="146.44561519142675" y1="172.8068346515853" y2="177.08958963109032" /><path d="M 144.38136562736335 173.6633856474863 a86.0,86.0 0 0,1 -40.68145358897372,12.25698825130547" fill="none" id="id114" stroke="none" /><text fill="#e1ed5e" style="font-size:6.75px; font-family:Arial;" text-anchor="middle"><textPath startOffset="21.466115282336833" xlink:href="#id114">June</textPath></text><line stroke="#e1ed5e" stroke-width="0.3" x1="102.19456741930631" x2="102.32365962044197" y1="184.97166512339345" y2="189.96999836594603" /><path d="M 102.22038585953345 185.97133177190398 a86.0,86.0 0 0,1 -42.740103519485714,-10.115201625700543" fill="none" id="id115" stroke="none" /><text fill="#e1ed5e" style="font-size:6.75px; font-family:Arial;" text-anchor="middle"><textPath startOffset="22.20632615414155" xlink:href="#id115">July</textPath></text><line stroke="#e1ed5e" stroke-width="0.3" x1="58.666819895761336" x2="56.23545636021788" y1="174.27360380694188" y2="178.64263932499728" /><path d="M 58.180547188652646 175.14741091055294 a86.0,86.0 0 0,1 -31.652253787137756,-30.449443065178592" fill="none" id="id116" stroke="none" /><text fill="#e1ed5e" style="font-size:6.75px; font-family:Arial;" text-anchor="middle"><textPath startOffset="22.20632615414155" xlink:href="#id116">August</textPath></text><line stroke="#e1ed5e" stroke-width="0.3" x1="26.63291911575756" x2="22.317208475507996" y1="142.92168965132927" y2="145.44649492493687" /><path d="M 25.769776987707644 143.4266507060508 a86.0,86.0 0 0,1 -11.730757126820373,-40.83630448921669" fill="none" id="id117" stroke="none" /><text fill="#e1ed5e" style="font-size:6.75px; font-family:Arial;" text-anchor="middle"><textPath startOffset="21.46611528233685" xlink:href="#id117">September</textPath></text><line stroke="#e1ed5e" stroke-width="0.3" x1="15.007084014347285" x2="10.007500721073583" y1="101.09737516637583" y2="101.16192664675087" /><path d="M 14.007167355692545 101.11028546245083 a86.0,86.0 0 0,1 10.666146001902534,-42.60595125391555" fill="none" id="id118" stroke="none" /><text fill="#e1ed5e" style="font-size:6.75px; font-family:Arial;" text-anchor="middle"><textPath startOffset="22.20632615414155" xlink:href="#id118">October</textPath></text><line stroke="#e1ed5e" stroke-width="0.3" x1="26.266209847984243" x2="21.928928074336255" y1="57.711370442889674" y2="55.22380399835377" /><path d="M 25.398753493254645 57.213857153982495 a86.0,86.0 0 0,1 29.58750427330803,-30.492523968695096" fill="none" id="id119" stroke="none" /><text fill="#e1ed5e" style="font-size:6.75px; font-family:Arial;" text-anchor="middle"><textPath startOffset="21.46611528233685" xlink:href="#id119">November</textPath></text><line stroke="#e1ed5e" stroke-width="0.3" x1="56.762969772571076" x2="54.21961505331055" y1="26.818313649435495" y2="22.513508569990535" /><path d="M 56.25429882871897 25.957352633546506 a86.0,86.0 0 0,1 42.265352541879196,-11.944610805530505" fill="none" id="id120" stroke="none" /><text fill="#e1ed5e" style="font-size:6.75px; font-family:Arial;" text-anchor="middle"><textPath startOffset="22.20632615414155" xlink:href="#id120">December</textPath></text></svg>