<?xml version="1.0" encoding="utf-8" ?>
<svg baseProfile="full" height="200mm" version="1.1" viewBox="0,0,200,200" width="200mm" xmlns="http://www.w3.org/2000/svg" xmlns:ev="http://www.w3.org/2001/xml-events" xmlns:xlink="http://www.w3.org/1999/xlink"><defs /><rect fill="#1a1a1a" height="200" width="200" x="0" y="0" /><text alignment-baseline="middle" fill="#e1ed5e" style="dominant-baseline: central; font-size:9.0px; font-family:Arial;" text-anchor="middle" x="100.0" y="100.0">2025</text><line stroke="#e1ed5e" stroke-width="0.3" x1="100.0" x2="100.0" y1="15.0" y2="10.0" /><path d="M 100.0 14.0 a86.0,86.0 0 0,1 42.46469731375804,11.215312516191453" fill="none" id="id97" stroke="none" /><text fill="#e1ed5e" style="font-size:6.75px; font-family:Arial;" text-anchor="middle"><textPath startOffset="22.20632615414155" xlink:href="#id97">January</textPath></text><path d="M 101.44485096284872 79.0497635885617 l 1.3986696655563717 -20.28061087846708 a41.32878388977424,41.32878388977424 0 0,0 0.7092999607427742,0.055055328256478374 l -1.747559815661487 20.253530288022137" fill="#ff5e08" stroke="none" /><path d="M 102.16513564639614 79.11191278185805 l 2.0220450914897046 -19.507624984307874 a40.61214161891583,40.61214161891583 0 0,0 0.6947254052996674,0.07806049399830797 l -2.3575372002990975 19.469928536838964" fill="#ff5207" stroke="none" /><path d="M 102.88285421437855 79.19881850522331 l 2.597321006999523 -18.740921895157143 a39.920048358653354,39.920048358653354 0 0,0 0.6798403617067889,0.10019079719342332 l -2.9195303491349676 18.693436613802753" fill="#ff4506" stroke="none" /><path d="M 103.59715602781102 79.31037775812273 l 4.698041647704677 -27.02154319026462 a48.426909991956876,48.426909991956876 0 0,0 0.820040260145264,0.14985711597611562 l -5.162477028952843 26.936670592937766" fill="#ffd814" stroke="none" /><path d="M 104.66035177308747 79.52364482259891 l 5.123800336541118 -22.512625796828207 a44.08834446548201,44.08834446548201 0 0,0 0.7385350125711188,0.17478737636632793 l -5.510559036074761 22.42109250832101" fill="#ff8f0d" stroke="none" /><path d="M 105.36241919743992 79.69619591428918 l 5.978302703787718 -22.6357325665122 a44.4118878359003,44.4118878359003 0 0,0 0.7374532872351541,0.20157384086068142 l -6.367053880246583 22.529472184825224" fill="#ff940d" stroke="none" /><path d="M 106.0581310904928 79.89281104454417 l 4.450556820824828 -14.771583119710654 a36.42747950502321,36.42747950502321 0 0,0 0.5988237504959303,0.18605745420373979 l -4.704165944031477 14.692785530624393" fill="#ff0400" stroke="none" /><path d="M 106.40334571778207 80.00007090966166 l 9.628386817061772 -30.07288097233699 a52.576636975386045,52.576636975386045 0 0,0 0.8595458391606903,0.2833787490580039 l -10.14461547846488 29.90268849901975" fill="#e5ff1a" stroke="none" /><path d="M 107.08798089147638 80.2323363322302 l 6.039855866434286 -16.844548708230267 a38.894655069915224,38.894655069915224 0 0,0 0.6282740206045004,0.23139862401120825 l -6.328912212811364 16.738086816412736" fill="#ff3204" stroke="none" /><path d="M 108.43124777332544 80.76684994638697 l 6.718218178922921 -15.325430090779045 a37.733298030184194,37.733298030184194 0 0,0 0.5926245914084269,0.26589337957275616 l -6.981024888798128 15.207516380689757" fill="#ff1d02" stroke="none" /><path d="M 109.08828744355905 81.06846463323043 l 10.422624983356316 -21.71105334336953 a45.08320885642776,45.08320885642776 0 0,0 0.6967046023466943,0.3418699226166554 l -10.794800852713442 21.528428260618043" fill="#ffa00e" stroke="none" /><line stroke="#e1ed5e" stroke-width="0.3" x1="143.23703022742887" x2="145.7803849466894" y1="26.81831364943548" y2="22.513508569990506" /><path d="M 143.74570117128098 25.957352633546492 a86.0,86.0 0 0,1 28.547481713284135,27.462654790039103" fill="none" id="id98" stroke="none" /><text fill="#e1ed5e" style="font-size:6.75px; font-family:Arial;" text-anchor="middle"><textPath startOffset="19.985693538727396" xlink:href="#id98">February</textPath></text><path d="M 113.06298171725822 83.55741782278167 l 10.791246767842587 -13.583113382182338 a38.34796748779793,38.34796748779793 0 0,0 0.5133087301323518,0.41505996153761243 l -11.023458896539431 13.395347323380596" fill="#ff2803" stroke="none" /><path d="M 113.6212207817346 84.01681056812373 l 13.501048149832167 -15.842178433596327 a41.81472840721183,41.81472840721183 0 0,0 0.5438029350433745,0.4715805465465083 l -13.771744883522306 15.607432893630149" fill="#ff6709" stroke="none" /><path d="M 114.42810811169701 84.74124197986012 l 12.238566968829058 -12.943161393366822 a38.813139765500495,38.813139765500495 0 0,0 0.48149872747266925,0.463201394337766 l -12.459548939914146 12.730576912266754" fill="#ff3104" stroke="none" /><path d="M 114.68862486808459 84.99185889309783 l 14.496735163631692 -14.81207729648734 a41.72565956107528,41.72565956107528 0 0,0 0.5089819139977885,0.5067961839051623 l -14.749552877796804 14.560345261932058" fill="#ff6609" stroke="none" /><path d="M 114.94478906791727 85.2469230424477 l 19.9857650987944 -19.729387227756146 a49.08343865994575,49.08343865994575 0 0,0 0.5883835986211774,0.6063810187576021 l -20.322412961118687 19.38244201344843" fill="#ffe215" stroke="none" /><path d="M 115.4437574822437 85.77008943001954 l 26.337427301862327 -24.267360814216456 a56.81291495771116,56.81291495771116 0 0,0 0.6564769099823315,0.7248982004767072 l -26.751247852460693 23.8104098264702" fill="#a6ff21" stroke="none" /><path d="M 116.38621287248628 86.86637796730983 l 21.4580793813244 -17.198745453562257 a48.499927561934555,48.499927561934555 0 0,0 0.5165148043197618,0.6559213485864802 l -21.750948266238126 16.826831711022738" fill="#ffd914" stroke="none" /><path d="M 116.60985879189232 87.15038557335679 l 18.184953783612904 -14.06812950148693 a43.99140734671856,43.99140734671856 0 0,0 0.4581894861966211,0.6029236554668833 l -18.424419210033637 13.753021070139011" fill="#ff8d0d" stroke="none" /><path d="M 116.82858285166822 87.43820079747576 l 16.756281762836984 -12.507829609955035 a41.90977714054483,41.90977714054483 0 0,0 0.4265564893407711,0.5818225720869874 l -16.96910086469138 12.217544594196553" fill="#ff6909" stroke="none" /><path d="M 117.2510076193507 88.02491185347247 l 18.29225072677883 -12.697885229952933 a43.267526265043394,43.267526265043394 0 0,0 0.41943856088563436,0.6154743320996843 l -18.508113753333195 12.381132874582843" fill="#ff810b" stroke="none" /><path d="M 117.45458315368197 88.32363383020206 l 16.039702545343875 -10.729871835098399 a40.29772544474474,40.29772544474474 0 0,0 0.38072401503142467,0.5798687948661483 l -16.222023195733225 10.452184976254575" fill="#ff4c07" stroke="none" /><line stroke="#e1ed5e" stroke-width="0.3" x1="172.23445277983987" x2="176.4835382374775" y1="55.19839476539836" y2="52.563006222186495" /><path d="M 173.08426987136738 54.67131705675599 a86.0,86.0 0 0,1 12.851231095245387,41.99856678651699" fill="none" id="id99" stroke="none" /><text fill="#e1ed5e" style="font-size:6.75px; font-family:Arial;" text-anchor="middle"><textPath startOffset="22.20632615414155" xlink:href="#id99">March</textPath></text><path d="M 117.84615892207809 88.93136811851018 l 28.567530585972566 -17.718293398594888 a54.61609324027956,54.61609324027956 0 0,0 0.488642908532147,0.8032004616250097 l -28.868289292790937 17.2239251637628" fill="#c6ff1e" stroke="none" /><path d="M 118.03404312379186 89.2402003453031 l 13.04666453624986 -7.784138898220132 a36.192375518931314,36.192375518931314 0 0,0 0.31459847661513707,0.537750775129783 l -13.178722687335325 7.558408710736454" fill="#ff0000" stroke="none" /><path d="M 118.3937258080291 89.86733742301442 l 23.8722113662503 -13.150628929953207 a48.254752186880225,48.254752186880225 0 0,0 0.39452143450987653,0.7309883007250583 l -24.095040899978645 12.737759645895691" fill="#ffd513" stroke="none" /><path d="M 118.56541770881063 90.18545643968196 l 20.992627351763787 -11.097679503953856 a44.74550259528104,44.74550259528104 0 0,0 0.3541085923735829,0.6840250899645594 l -21.180545377297484 10.734681691728952" fill="#ff9a0e" stroke="none" /><path d="M 118.89224826269711 90.83032412892265 l 20.397523590001054 -9.900287000900407 a43.673214401686565,43.673214401686565 0 0,0 0.32243685912255765,0.6791342569632156 l -20.564918642965367 9.547710328296652" fill="#ff880c" stroke="none" /><path d="M 119.04729006885535 91.15688171328212 l 25.696157018969004 -11.929999239334022 a49.330502420430534,49.330502420430534 0 0,0 0.3509458459355393,0.773262651884242 l -25.89770518186789 11.485914578607717" fill="#ffe615" stroke="none" /><path d="M 119.196687751892 91.48605970444005 l 57.59006325567602 -25.541820886679833 a84.0,84.0 0 0,0 0.574837160629277,1.3268034216535889 l -58.02119112614798 24.54671832043964" fill="#4dd2ff" stroke="none" /><path d="M 119.47837535516314 92.15188598940014 l 18.132109797021933 -7.305684501147188 a40.548565976090444,40.548565976090444 0 0,0 0.25527533167078953,0.6496478748906938 l -18.25517867857442 6.99248762136071" fill="#ff5107" stroke="none" /><path d="M 119.61058180528143 92.48833698450437 l 14.398819207915372 -5.515342623938732 a36.41898177058615,36.41898177058615 0 0,0 0.21919962796404976,0.5873460237451436 l -14.491623424381046 5.266673463164255" fill="#ff0400" stroke="none" /><line stroke="#e1ed5e" stroke-width="0.3" x1="184.98032266829074" x2="189.97916517819016" y1="98.17113171792111" y2="98.06355123074" /><path d="M 185.9800911702706 98.14961562048488 a86.0,86.0 0 0,1 -9.607161424134198,41.387399972396054" fill="none" id="id100" stroke="none" /><text fill="#e1ed5e" style="font-size:6.75px; font-family:Arial;" text-anchor="middle"><textPath startOffset="21.466115282336823" xlink:href="#id100">April</textPath></text><line stroke="#e1ed5e" stroke-width="0.3" x1="174.80103733775053" x2="179.2010983576182" y1="140.37084112569926" y2="142.7455964860345" /><path d="M 175.68104954172406 140.8457921977663 a86.0,86.0 0 0,1 -30.038265399797805,32.042727171017184" fill="none" id="id101" stroke="none" /><text fill="#e1ed5e" style="font-size:6.75px; font-family:Arial;" text-anchor="middle"><textPath startOffset="22.206326154141568" xlink:href="#id101">May</textPath></text><line stroke="#e1ed5e" stroke-width="0.3" x1="143.8653032363475" x2="146.44561519142675" y1="172.8068346515853" y2="177.08958963109032" /><path d="M 144.38136562736335 173.6633856474863 a86.0,86.0 0 0,1 -40.68145358897372,12.25698825130547" fill="none" id="id102" stroke="none" /><text fill="#e1ed5e" style="font-size:6.75px; font-family:Arial;" text-anchor="middle"><textPath startOffset="21.466115282336833" xlink:href="#id102">June</textPath></text><line stroke="#e1ed5e" stroke-width="0.3" x1="102.19456741930631" x2="102.32365962044197" y1="184.97166512339345" y2="189.96999836594603" /><path d="M 102.22038585953345 185.97133177190398 a86.0,86.0 0 0,1 -42.740103519485714,-10.115201625700543" fill="none" id="id103" stroke="none" /><text fill="#e1ed5e" style="font-size:6.75px; font-family:Arial;" text-anchor="middle"><textPath startOffset="22.20632615414155" xlink:href="#id103">July</textPath></text><line stroke="#e1ed5e" stroke-width="0.3" x1="58.666819895761336" x2="56.23545636021788" y1="174.27360380694188" y2="178.64263932499728" /><path d="M 58.180547188652646 175.14741091055294 a86.0,86.0 0 0,1 -31.652253787137756,-30.449443065178592" fill="none" id="id104" stroke="none" /><text fill="#e1ed5e" style="font-size:6.75px; font-family:Arial;" text-anchor="middle"><textPath startOffset="22.20632615414155" xlink:href="#id104">August</textPath></text><line stroke="#e1ed5e" stroke-width="0.3" x1="26.63291911575756" x2="22.317208475507996" y1="142.92168965132927" y2="145.44649492493687" /><path d="M 25.769776987707644 143.4266507060508 a86.0,86.0 0 0,1 -11.730757126820373,-40.83630448921669" fill="none" id="id105" stroke="none" /><text fill="#e1ed5e" style="font-size:6.75px; font-family:Arial;" text-anchor="middle"><textPath startOffset="21.46611528233685" xlink:href="#id105">September</textPath></text><line stroke="#e1ed5e" stroke-width="0.3" x1="15.007084014347285" x2="10.007500721073583" y1="101.09737516637583" y2="101.16192664675087" /><path d="M 14.007167355692545 101.11028546245083 a86.0,86.0 0 0,1 10.666146001902534,-42.60595125391555" fill="none" id="id106" stroke="none" /><text fill="#e1ed5e" style="font-size:6.75px; font-family:Arial;" text-anchor="middle"><textPath startOffset="22.20632615414155" xlink:href="#id106">October</textPath></text><line stroke="#e1ed5e" stroke-width="0.3" x1="26.266209847984243" x2="21.928928074336255" y1="57.711370442889674" y2="55.22380399835377" /><path d="M 25.398753493254645 57.213857153982495 a86.0,86.0 0 0,1 29.58750427330803,-30.492523968695096" fill="none" id="id107" stroke="none" /><text fill="#e1ed5e" style="font-size:6.75px; font-family:Arial;" text-anchor="middle"><textPath startOffset="21.46611528233685" xlink:href="#id107">November</textPath></text><line stroke="#e1ed5e" stroke-width="0.3" x1="56.762969772571076" x2="54.21961505331055" y1="26.818313649435495" y2="22.513508569990535" /><path d="M 56.25429882871897 25.957352633546506 a86.0,86.0 0 0,1 42.265352541879196,-11.944610805530505" fill="none" id="id108" stroke="none" /><text fill="#e1ed5e" style="font-size:6.75px; font-family:Arial;" text-anchor="middle"><textPath startOffset="22.20632615414155" xlink:href="#id108">December</textPath></text></svg>