<?xml version="1.0" encoding="utf-8" ?>
<svg baseProfile="full" height="200mm" version="1.1" viewBox="0,0,200,200" width="200mm" xmlns="http://www.w3.org/2000/svg" xmlns:ev="http://www.w3.org/2001/xml-events" xmlns:xlink="http://www.w3.org/1999/xlink"><defs /><rect fill="#1a1a1a" height="200" width="200" x="0" y="0" /><text alignment-baseline="middle" fill="#e1ed5e" style="dominant-baseline: central; font-size:9.0px; font-family:Arial;" text-anchor="middle" x="100.0" y="100.0">2023</text><line stroke="#e1ed5e" stroke-width="0.3" x1="100.0" x2="100.0" y1="15.0" y2="10.0" /><path d="M 100.0 14.0 a86.0,86.0 0 0,1 42.46469731375804,11.215312516191453" fill="none" id="id49" stroke="none" /><text fill="#e1ed5e" style="font-size:6.75px; font-family:Arial;" text-anchor="middle"><textPath startOffset="22.20632615414155" xlink:href="#id49">January</textPath></text><path d="M 102.16513564639614 79.11191278185805 l 2.773985037908023 -26.761945151145653 a47.90532849201931,47.90532849201931 0 0,0 0.8194851939827418,0.09207870991704854 l -3.23423693540049 26.710230487758004" fill="#ff3104" stroke="none" /><path d="M 104.66035177308747 79.52364482259891 l 6.1998365008685745 -27.240444587618825 a48.937068456955785,48.937068456955785 0 0,0 0.8197572148881188,0.19401004747065345 l -6.667817402719217 27.1296886280073" fill="#ff4906" stroke="none" /><path d="M 106.40334571778207 80.00007090966166 l 10.386728687418271 -32.441452700589366 a55.063646107699846,55.063646107699846 0 0,0 0.9002045513684669,0.29678328722085473 l -10.943616061029156 32.25785568910928" fill="#ffcd13" stroke="none" /><path d="M 107.08798089147638 80.2323363322302 l 9.192119394801335 -25.635893687146783 a48.23406146917817,48.23406146917817 0 0,0 0.7791355309579621,0.28696219144704693 l -9.632037251531873 25.473868227893412" fill="#ff3905" stroke="none" /><path d="M 109.73455568895987 81.39251694778311 l 12.508612475780774 -23.910058361863378 a47.984370975380756,47.984370975380756 0 0,0 0.7285740178439661,0.3891790082161484 l -12.918331540153051 23.691200627145477" fill="#ff3304" stroke="none" /><path d="M 110.36928655335952 81.73862282372117 l 12.27405159554104 -21.615863783286322 a45.8575523667877,45.8575523667877 0 0,0 0.6830662962606433,0.3956760876728584 l -12.644314624267013 21.401383538223413" fill="#ff0100" stroke="none" /><line stroke="#e1ed5e" stroke-width="0.3" x1="143.23703022742887" x2="145.7803849466894" y1="26.81831364943548" y2="22.513508569990506" /><path d="M 143.74570117128098 25.957352633546492 a86.0,86.0 0 0,1 28.547481713284135,27.462654790039103" fill="none" id="id50" stroke="none" /><text fill="#e1ed5e" style="font-size:6.75px; font-family:Arial;" text-anchor="middle"><textPath startOffset="19.985693538727396" xlink:href="#id50">February</textPath></text><path d="M 111.2981086023043 82.29822771554956 l 16.325758950975377 -25.579048449052173 a51.34498516862895,51.34498516862895 0 0,0 0.7409154079386502,0.48191199122618306 l -16.763641384698307 25.29423753366646" fill="#ff7e0b" stroke="none" /><path d="M 113.6212207817346 84.01681056812373 l 21.873992197347896 -25.66702107864025 a54.723397007137336,54.723397007137336 0 0,0 0.7116809086554434,0.6171626709658721 l -22.3125669046501 25.286693414254707" fill="#ffc612" stroke="none" /><path d="M 113.89432698308785 84.25364557470407 l 17.59888822011813 -19.94471065366849 a47.59910430151305,47.59910430151305 0 0,0 0.6096969551133076,0.5473919462147143 l -17.939596162827428 19.63881969868448" fill="#ff2a04" stroke="none" /><path d="M 114.42810811169701 84.74124197986012 l 17.03888921774785 -18.019846087430317 a45.799971749769426,45.799971749769426 0 0,0 0.5681742896615622,0.5465832164905232 l -17.346546751021833 17.72387978417749" fill="#ff0000" stroke="none" /><path d="M 114.94478906791727 85.2469230424477 l 19.176784582974545 -18.930784333274882 a47.946681844241525,47.946681844241525 0 0,0 0.5747568217644244,0.5923374273792156 l -19.49980566844208 18.59788271034555" fill="#ff3204" stroke="none" /><path d="M 115.4437574822437 85.77008943001954 l 24.058554442605555 -22.167602576956938 a53.71416582885346,53.71416582885346 0 0,0 0.6206706632083868,0.685360048475358 l -24.436568746429977 21.75018974121203" fill="#ffb110" stroke="none" /><path d="M 115.9244219780498 86.31012108654704 l 22.17759541521078 -19.065595991131023 a50.246242303889396,50.246242303889396 0 0,0 0.5581864305548578,0.6607166727136399 l -22.502492459252757 18.681020368788275" fill="#ff6609" stroke="none" /><path d="M 116.38621287248628 86.86637796730983 l 24.721256999684925 -19.81419673559961 a52.681902403762265,52.681902403762265 0 0,0 0.5610520237689747,0.712479094461533 l -25.058663104047863 19.38572524718504" fill="#ff9b0e" stroke="none" /><path d="M 116.82858285166822 87.43820079747576 l 22.74549653019049 -16.97851581992486 a49.38357996892475,49.38357996892475 0 0,0 0.5026246365372565,0.6855794393758903 l -23.034383779241374 16.584473936877473" fill="#ff5307" stroke="none" /><path d="M 117.2510076193507 88.02491185347247 l 21.36677899839431 -14.832122711842823 a47.010211627462546,47.010211627462546 0 0,0 0.4557204262422196,0.668713492563435 l -21.61892389030526 14.462131196008981" fill="#ff1c02" stroke="none" /><path d="M 117.45458315368197 88.32363383020206 l 28.828712531377708 -19.285170018465962 a55.68446985118776,55.68446985118776 0 0,0 0.5260945798469449,0.8012781383813695 l -29.156403746582576 18.786073816106917" fill="#ffda14" stroke="none" /><line stroke="#e1ed5e" stroke-width="0.3" x1="172.23445277983987" x2="176.4835382374775" y1="55.19839476539836" y2="52.563006222186495" /><path d="M 173.08426987136738 54.67131705675599 a86.0,86.0 0 0,1 12.851231095245387,41.99856678651699" fill="none" id="id51" stroke="none" /><text fill="#e1ed5e" style="font-size:6.75px; font-family:Arial;" text-anchor="middle"><textPath startOffset="22.20632615414155" xlink:href="#id51">March</textPath></text><path d="M 117.84615892207809 88.93136811851018 l 22.688894078128598 -14.072216741174042 a47.69856173090824,47.69856173090824 0 0,0 0.4267526758908078,0.7014691921036132 l -22.92776255230563 13.679579775863347" fill="#ff2c04" stroke="none" /><path d="M 118.21658344932153 89.55222093294921 l 34.64031228797932 -19.86730006783638 a60.93320482248053,60.93320482248053 0 0,0 0.5139929345650237,0.9143360777183026 l -34.977162863836774 19.268080480183283" fill="#beff1f" stroke="none" /><path d="M 118.3937258080291 89.86733742301442 l 55.1811774240873 -30.397987730956764 a84.0,84.0 0 0,0 0.6867676031261407,1.272476066670165 l -55.696253126431905 29.44363068095414" fill="#4dd2ff" stroke="none" /><path d="M 118.73160827565052 90.50648371742162 l 28.32550121830795 -14.355873936236359 a52.7557102855766,52.7557102855766 0 0,0 0.4035560293766085,0.8135443299005385 l -28.568417260637965 13.86617001783687" fill="#ff9d0e" stroke="none" /><path d="M 118.89224826269711 90.83032412892265 l 30.323068586989855 -14.717820054702614 a54.706122822031865,54.706122822031865 0 0,0 0.4038921947734544,0.8506999675445063 l -30.571918975605065 14.193677671517568" fill="#ffc612" stroke="none" /><path d="M 119.196687751892 91.48605970444005 l 30.51934089259941 -13.535660400259568 a54.386288667503095,54.386288667503095 0 0,0 0.3721816637475203,0.8590465939890822 l -30.74781326618961 13.008314661683883" fill="#ffbf11" stroke="none" /><line stroke="#e1ed5e" stroke-width="0.3" x1="184.98032266829074" x2="189.97916517819016" y1="98.17113171792111" y2="98.06355123074" /><path d="M 185.9800911702706 98.14961562048488 a86.0,86.0 0 0,1 -9.607161424134198,41.387399972396054" fill="none" id="id52" stroke="none" /><text fill="#e1ed5e" style="font-size:6.75px; font-family:Arial;" text-anchor="middle"><textPath startOffset="21.466115282336823" xlink:href="#id52">April</textPath></text><line stroke="#e1ed5e" stroke-width="0.3" x1="174.80103733775053" x2="179.2010983576182" y1="140.37084112569926" y2="142.7455964860345" /><path d="M 175.68104954172406 140.8457921977663 a86.0,86.0 0 0,1 -30.038265399797805,32.042727171017184" fill="none" id="id53" stroke="none" /><text fill="#e1ed5e" style="font-size:6.75px; font-family:Arial;" text-anchor="middle"><textPath startOffset="22.206326154141568" xlink:href="#id53">May</textPath></text><line stroke="#e1ed5e" stroke-width="0.3" x1="143.8653032363475" x2="146.44561519142675" y1="172.8068346515853" y2="177.08958963109032" /><path d="M 144.38136562736335 173.6633856474863 a86.0,86.0 0 0,1 -40.68145358897372,12.25698825130547" fill="none" id="id54" stroke="none" /><text fill="#e1ed5e" style="font-size:6.75px; font-family:Arial;" text-anchor="middle"><textPath startOffset="21.466115282336833" xlink:href="#id54">June</textPath></text><line stroke="#e1ed5e" stroke-width="0.3" x1="102.19456741930631" x2="102.32365962044197" y1="184.97166512339345" y2="189.96999836594603" /><path d="M 102.22038585953345 185.97133177190398 a86.0,86.0 0 0,1 -42.740103519485714,-10.115201625700543" fill="none" id="id55" stroke="none" /><text fill="#e1ed5e" style="font-size:6.75px; font-family:Arial;" text-anchor="middle"><textPath startOffset="22.20632615414155" xlink:href="#id55">July</textPath></text><line stroke="#e1ed5e" stroke-width="0.3" x1="58.666819895761336" x2="56.23545636021788" y1="174.27360380694188" y2="178.64263932499728" /><path d="M 58.180547188652646 175.14741091055294 a86.0,86.0 0 0,1 -31.652253787137756,-30.449443065178592" fill="none" id="id56" stroke="none" /><text fill="#e1ed5e" style="font-size:6.75px; font-family:Arial;" text-anchor="middle"><textPath startOffset="22.20632615414155" xlink:href="#id56">August</textPath></text><line stroke="#e1ed5e" stroke-width="0.3" x1="26.63291911575756" x2="22.317208475507996" y1="142.92168965132927" y2="145.44649492493687" /><path d="M 25.769776987707644 143.4266507060508 a86.0,86.0 0 0,1 -11.730757126820373,-40.83630448921669" fill="none" id="id57" stroke="none" /><text fill="#e1ed5e" style="font-size:6.75px; font-family:Arial;" text-anchor="middle"><textPath startOffset="21.46611528233685" xlink:href="#id57">September</textPath></text><line stroke="#e1ed5e" stroke-width="0.3" x1="15.007084014347285" x2="10.007500721073583" y1="101.09737516637583" y2="101.16192664675087" /><path d="M 14.007167355692545 101.11028546245083 a86.0,86.0 0 0,1 10.666146001902534,-42.60595125391555" fill="none" id="id58" stroke="none" /><text fill="#e1ed5e" style="font-size:6.75px; font-family:Arial;" text-anchor="middle"><textPath startOffset="22.20632615414155" xlink:href="#id58">October</textPath></text><line stroke="#e1ed5e" stroke-width="0.3" x1="26.266209847984243" x2="21.928928074336255" y1="57.711370442889674" y2="55.22380399835377" /><path d="M 25.398753493254645 57.213857153982495 a86.0,86.0 0 0,1 29.58750427330803,-30.492523968695096" fill="none" id="id59" stroke="none" /><text fill="#e1ed5e" style="font-size:6.75px; font-family:Arial;" text-anchor="middle"><textPath startOffset="21.46611528233685" xlink:href="#id59">November</textPath></text><line stroke="#e1ed5e" stroke-width="0.3" x1="56.762969772571076" x2="54.21961505331055" y1="26.818313649435495" y2="22.513508569990535" /><path d="M 56.25429882871897 25.957352633546506 a86.0,86.0 0 0,1 42.265352541879196,-11.944610805530505" fill="none" id="id60" stroke="none" /><text fill="#e1ed5e" style="font-size:6.75px; font-family:Arial;" text-anchor="middle"><textPath startOffset="22.20632615414155" xlink:href="#id60">December</textPath></text></svg>