<?xml version="1.0" encoding="utf-8" ?>
<svg baseProfile="full" height="200mm" version="1.1" viewBox="0,0,200,200" width="200mm" xmlns="http://www.w3.org/2000/svg" xmlns:ev="http://www.w3.org/2001/xml-events" xmlns:xlink="http://www.w3.org/1999/xlink"><defs /><rect fill="#1a1a1a" height="200" width="200" x="0" y="0" /><text alignment-baseline="middle" fill="#e1ed5e" style="dominant-baseline: central; font-size:9.0px; font-family:Arial;" text-anchor="middle" x="100.0" y="100.0">2023</text><line stroke="#e1ed5e" stroke-width="0.3" x1="100.0" x2="100.0" y1="15.0" y2="10.0" /><path d="M 100.0 14.0 a86.0,86.0 0 0,1 42.46469731375804,11.215312516191453" fill="none" id="id49" stroke="none" /><text fill="#e1ed5e" style="font-size:6.75px; font-family:Arial;" text-anchor="middle"><textPath startOffset="22.20632615414155" xlink:href="#id49">January</textPath></text><path d="M 102.16513564639614 79.11191278185805 l 5.130427225425581 -49.49565701779255 a70.76084150351906,70.76084150351906 0 0,0 1.2104595407492857,0.13600923328130876 l -5.981653469684592 49.40001183104064" fill="#ffc111" stroke="none" /><path d="M 104.66035177308747 79.52364482259891 l 11.466467750392413 -50.38063170319466 a72.66902295847805,72.66902295847805 0 0,0 1.217297188969959,0.28809491533439835 l -12.331988626324895 50.17579087571939" fill="#e8ff1a" stroke="none" /><path d="M 106.40334571778207 80.00007090966166 l 19.21003715334621 -59.99978727101504 a84.0,84.0 0 0,0 1.37326871103033,0.45274510296305515 l -20.239988686618958 59.66022844379275" fill="#4dd2ff" stroke="none" /><path d="M 107.08798089147638 80.2323363322302 l 17.00063228820304 -47.413048420708364 a71.36882625933552,71.36882625933552 0 0,0 1.152836536001565,0.4245994253971211 l -17.81425114997718 47.11338572750492" fill="#ffdd14" stroke="none" /><path d="M 109.73455568895987 81.39251694778311 l 23.134416776249246 -44.22115213488249 a70.9070289209208,70.9070289209208 0 0,0 1.0766217813045664,0.5750940697994372 l -23.892183604082124 43.81637933858129" fill="#ffc812" stroke="none" /><path d="M 110.36928655335952 81.73862282372117 l 22.70060134121386 -39.97808731459352 a66.97352245136307,66.97352245136307 0 0,0 0.9975969838615744,0.5778725634824365 l -23.385395057540766 39.58141059372103" fill="#ff0600" stroke="none" /><line stroke="#e1ed5e" stroke-width="0.3" x1="143.23703022742887" x2="145.7803849466894" y1="26.81831364943548" y2="22.513508569990506" /><path d="M 143.74570117128098 25.957352633546492 a86.0,86.0 0 0,1 28.547481713284135,27.462654790039103" fill="none" id="id50" stroke="none" /><text fill="#e1ed5e" style="font-size:6.75px; font-family:Arial;" text-anchor="middle"><textPath startOffset="19.985693538727396" xlink:href="#id50">February</textPath></text><path d="M 111.2981086023043 82.29822771554956 l 30.194149230518175 -47.307914343497806 a77.12241448197437,77.12241448197437 0 0,0 1.1128873637700094,0.7238528983719974 l -31.004003620072464 46.781162520966284" fill="#39ff2e" stroke="none" /><path d="M 113.6212207817346 84.01681056812373 l 40.455490409801314 -47.47061787930033 a83.37071641515811,83.37071641515811 0 0,0 1.0842409363924617,0.9402430557519378 l -41.26662514484054 46.76720983012872" fill="#4ae7ff" stroke="none" /><path d="M 113.89432698308785 84.25364557470407 l 32.54877514761468 -36.88732460431146 a70.19448627716139,70.19448627716139 0 0,0 0.8991212161857367,0.8072399054697345 l -33.178907351396404 36.321585690072425" fill="#ffa70f" stroke="none" /><path d="M 114.42810811169701 84.74124197986012 l 31.513068722125695 -33.32732790608386 a66.86702830623598,66.86702830623598 0 0,0 0.8295229201722483,0.7980003919755545 l -32.08207488591036 32.779944427346" fill="#ff0000" stroke="none" /><path d="M 114.94478906791727 85.2469230424477 l 35.467061421070404 -35.01208911182088 a70.83732366229216,70.83732366229216 0 0,0 0.8491564680680139,0.8751303833049375 l -36.06448215284153 34.39639453296583" fill="#ffc512" stroke="none" /><path d="M 115.4437574822437 85.77008943001954 l 44.495792525907525 -40.99851665710573 a81.50416448965794,81.50416448965794 0 0,0 0.9417858966520086,1.039943509568002 l -45.19492206317557 40.22652036026818" fill="#42ffd5" stroke="none" /><path d="M 115.9244219780498 86.31012108654704 l 41.01699820215237 -35.2614204493437 a75.09031256723117,75.09031256723117 0 0,0 0.8341796643747605,0.987405608809234 l -41.61788848001425 34.550155890905366" fill="#85ff25" stroke="none" /><line stroke="#e1ed5e" stroke-width="0.3" x1="172.23445277983987" x2="176.4835382374775" y1="55.19839476539836" y2="52.563006222186495" /><path d="M 173.08426987136738 54.67131705675599 a86.0,86.0 0 0,1 12.851231095245387,41.99856678651699" fill="none" id="id51" stroke="none" /><text fill="#e1ed5e" style="font-size:6.75px; font-family:Arial;" text-anchor="middle"><textPath startOffset="22.20632615414155" xlink:href="#id51">March</textPath></text><line stroke="#e1ed5e" stroke-width="0.3" x1="184.98032266829074" x2="189.97916517819016" y1="98.17113171792111" y2="98.06355123074" /><path d="M 185.9800911702706 98.14961562048488 a86.0,86.0 0 0,1 -9.607161424134198,41.387399972396054" fill="none" id="id52" stroke="none" /><text fill="#e1ed5e" style="font-size:6.75px; font-family:Arial;" text-anchor="middle"><textPath startOffset="21.466115282336823" xlink:href="#id52">April</textPath></text><line stroke="#e1ed5e" stroke-width="0.3" x1="174.80103733775053" x2="179.2010983576182" y1="140.37084112569926" y2="142.7455964860345" /><path d="M 175.68104954172406 140.8457921977663 a86.0,86.0 0 0,1 -30.038265399797805,32.042727171017184" fill="none" id="id53" stroke="none" /><text fill="#e1ed5e" style="font-size:6.75px; font-family:Arial;" text-anchor="middle"><textPath startOffset="22.206326154141568" xlink:href="#id53">May</textPath></text><line stroke="#e1ed5e" stroke-width="0.3" x1="143.8653032363475" x2="146.44561519142675" y1="172.8068346515853" y2="177.08958963109032" /><path d="M 144.38136562736335 173.6633856474863 a86.0,86.0 0 0,1 -40.68145358897372,12.25698825130547" fill="none" id="id54" stroke="none" /><text fill="#e1ed5e" style="font-size:6.75px; font-family:Arial;" text-anchor="middle"><textPath startOffset="21.466115282336833" xlink:href="#id54">June</textPath></text><line stroke="#e1ed5e" stroke-width="0.3" x1="102.19456741930631" x2="102.32365962044197" y1="184.97166512339345" y2="189.96999836594603" /><path d="M 102.22038585953345 185.97133177190398 a86.0,86.0 0 0,1 -42.740103519485714,-10.115201625700543" fill="none" id="id55" stroke="none" /><text fill="#e1ed5e" style="font-size:6.75px; font-family:Arial;" text-anchor="middle"><textPath startOffset="22.20632615414155" xlink:href="#id55">July</textPath></text><line stroke="#e1ed5e" stroke-width="0.3" x1="58.666819895761336" x2="56.23545636021788" y1="174.27360380694188" y2="178.64263932499728" /><path d="M 58.180547188652646 175.14741091055294 a86.0,86.0 0 0,1 -31.652253787137756,-30.449443065178592" fill="none" id="id56" stroke="none" /><text fill="#e1ed5e" style="font-size:6.75px; font-family:Arial;" text-anchor="middle"><textPath startOffset="22.20632615414155" xlink:href="#id56">August</textPath></text><line stroke="#e1ed5e" stroke-width="0.3" x1="26.63291911575756" x2="22.317208475507996" y1="142.92168965132927" y2="145.44649492493687" /><path d="M 25.769776987707644 143.4266507060508 a86.0,86.0 0 0,1 -11.730757126820373,-40.83630448921669" fill="none" id="id57" stroke="none" /><text fill="#e1ed5e" style="font-size:6.75px; font-family:Arial;" text-anchor="middle"><textPath startOffset="21.46611528233685" xlink:href="#id57">September</textPath></text><line stroke="#e1ed5e" stroke-width="0.3" x1="15.007084014347285" x2="10.007500721073583" y1="101.09737516637583" y2="101.16192664675087" /><path d="M 14.007167355692545 101.11028546245083 a86.0,86.0 0 0,1 10.666146001902534,-42.60595125391555" fill="none" id="id58" stroke="none" /><text fill="#e1ed5e" style="font-size:6.75px; font-family:Arial;" text-anchor="middle"><textPath startOffset="22.20632615414155" xlink:href="#id58">October</textPath></text><line stroke="#e1ed5e" stroke-width="0.3" x1="26.266209847984243" x2="21.928928074336255" y1="57.711370442889674" y2="55.22380399835377" /><path d="M 25.398753493254645 57.213857153982495 a86.0,86.0 0 0,1 29.58750427330803,-30.492523968695096" fill="none" id="id59" stroke="none" /><text fill="#e1ed5e" style="font-size:6.75px; font-family:Arial;" text-anchor="middle"><textPath startOffset="21.46611528233685" xlink:href="#id59">November</textPath></text><line stroke="#e1ed5e" stroke-width="0.3" x1="56.762969772571076" x2="54.21961505331055" y1="26.818313649435495" y2="22.513508569990535" /><path d="M 56.25429882871897 25.957352633546506 a86.0,86.0 0 0,1 42.265352541879196,-11.944610805530505" fill="none" id="id60" stroke="none" /><text fill="#e1ed5e" style="font-size:6.75px; font-family:Arial;" text-anchor="middle"><textPath startOffset="22.20632615414155" xlink:href="#id60">December</textPath></text></svg>