<?xml version="1.0" encoding="utf-8" ?>
<svg baseProfile="full" height="200mm" version="1.1" viewBox="0,0,200,200" width="200mm" xmlns="http://www.w3.org/2000/svg" xmlns:ev="http://www.w3.org/2001/xml-events" xmlns:xlink="http://www.w3.org/1999/xlink"><defs /><rect fill="#1a1a1a" height="200" width="200" x="0" y="0" /><text alignment-baseline="middle" fill="#e1ed5e" style="dominant-baseline: central; font-size:9.0px; font-family:Arial;" text-anchor="middle" x="100.0" y="100.0">2023</text><line stroke="#e1ed5e" stroke-width="0.3" x1="100.0" x2="100.0" y1="15.0" y2="10.0" /><path d="M 100.0 14.0 a86.0,86.0 0 0,1 42.46469731375804,11.215312516191453" fill="none" id="id49" stroke="none" /><text fill="#e1ed5e" style="font-size:6.75px; font-family:Arial;" text-anchor="middle"><textPath startOffset="22.20632615414155" xlink:href="#id49">January</textPath></text><path d="M 102.16513564639614 79.11191278185805 l 4.376334385509252 -42.220566869529975 a63.44677336898816,63.44677336898816 0 0,0 1.0853425499529996,0.1219508815431468 l -5.102443638971977 42.13898003451622" fill="#ff790b" stroke="none" /><path d="M 104.66035177308747 79.52364482259891 l 9.781075706070965 -42.97546406928689 a65.07448189075465,65.07448189075465 0 0,0 1.090079110112081,0.2579865063200162 l -10.51937850314557 42.800731650826" fill="#ffb110" stroke="none" /><path d="M 106.40334571778207 80.00007090966166 l 16.386461097131246 -51.180753691638586 a74.73998191041724,74.73998191041724 0 0,0 1.2218818883398677,0.40283524768438966 l -17.26502580771353 50.89110471969496" fill="#31ff2f" stroke="none" /><path d="M 107.08798089147638 80.2323363322302 l 14.50180431164582 -40.44406927693022 a63.96539384167682,63.96539384167682 0 0,0 1.0332472442864178,0.38055368000288303 l -15.195833881704814 40.18845232912102" fill="#ff8b0c" stroke="none" /><path d="M 109.73455568895987 81.39251694778311 l 19.734018080375996 -37.72133199660943 a63.57147351449133,63.57147351449133 0 0,0 0.9652418680757063,0.5155987774832463 l -20.38040499498001 37.37605449262443" fill="#ff7e0b" stroke="none" /><path d="M 110.36928655335952 81.73862282372117 l 19.363966752895653 -34.10193157300534 a60.21613118880018,60.21613118880018 0 0,0 0.8969429806739596,0.519567268069808 l -19.94810646603494 33.76356014754548" fill="#ff0300" stroke="none" /><line stroke="#e1ed5e" stroke-width="0.3" x1="143.23703022742887" x2="145.7803849466894" y1="26.81831364943548" y2="22.513508569990506" /><path d="M 143.74570117128098 25.957352633546492 a86.0,86.0 0 0,1 28.547481713284135,27.462654790039103" fill="none" id="id50" stroke="none" /><text fill="#e1ed5e" style="font-size:6.75px; font-family:Arial;" text-anchor="middle"><textPath startOffset="19.985693538727396" xlink:href="#id50">February</textPath></text><path d="M 111.2981086023043 82.29822771554956 l 25.756079896007698 -40.354388270462536 a68.87329427032128,68.87329427032128 0 0,0 0.9938513907985692,0.6464285903503686 l -26.446898312590548 39.90506075595264" fill="#d3ff1c" stroke="none" /><path d="M 113.6212207817346 84.01681056812373 l 34.50916385396478 -40.49317692237983 a74.20319320460891,74.20319320460891 0 0,0 0.9650167725900467,0.8368530357569026 l -35.20107442520159 39.89315889320326" fill="#3fff2d" stroke="none" /><path d="M 113.89432698308785 84.25364557470407 l 27.76461250220715 -31.465462808879142 a62.96366353376066,62.96366353376066 0 0,0 0.8065016033945074,0.724085102615221 l -28.302125093197645 30.982878697494623" fill="#ff6809" stroke="none" /><path d="M 114.42810811169701 84.74124197986012 l 26.881138778869367 -28.428730139610956 a60.125290023201856,60.125290023201856 0 0,0 0.7458878825574846,0.7175435520541054 l -27.36650990503927 27.96180350079455" fill="#ff0000" stroke="none" /><path d="M 114.94478906791727 85.2469230424477 l 30.253956177523502 -29.865857706590006 a63.51201384246333,63.51201384246333 0 0,0 0.761344931825278,0.7846328763548452 l -30.76356537305189 29.340660634685047" fill="#ff7c0b" stroke="none" /><path d="M 115.4437574822437 85.77008943001954 l 37.95560453066586 -34.97237370645718 a72.6109953203036,72.6109953203036 0 0,0 0.8390247512224259,0.9264720861742461 l -38.55197292250432 34.31384883301338" fill="#68ff28" stroke="none" /><path d="M 115.9244219780498 86.31012108654704 l 34.988138752433095 -30.078541223545194 a67.13987966494948,67.13987966494948 0 0,0 0.7458581589326113,0.882860804402597 l -35.50070752485282 29.47182146951349" fill="#fff517" stroke="none" /><path d="M 116.38621287248628 86.86637796730983 l 39.001106921009864 -31.259559554309643 a70.98246096975893,70.98246096975893 0 0,0 0.7559494164421333,0.9599789910163392 l -39.53341041804596 30.583588169340263" fill="#96ff23" stroke="none" /><path d="M 116.82858285166822 87.43820079747576 l 35.884079120925136 -26.785891626036104 a65.77891383853081,65.77891383853081 0 0,0 0.6694958664542306,0.9131916094489828 l -36.33983759989299 26.164237572915628" fill="#ffc912" stroke="none" /><path d="M 117.2510076193507 88.02491185347247 l 33.70896683306134 -23.399667895426735 a62.03460615832317,62.03460615832317 0 0,0 0.6013680045576344,0.8824333417741007 l -34.10675930328771 22.815956530382227" fill="#ff4706" stroke="none" /><path d="M 117.45458315368197 88.32363383020206 l 45.48117030803284 -30.424948775445802 a75.7194148413229,75.7194148413229 0 0,0 0.7153803177736924,1.089573303391838 l -45.998147261164455 29.63755740807629" fill="#32ff4c" stroke="none" /><line stroke="#e1ed5e" stroke-width="0.3" x1="172.23445277983987" x2="176.4835382374775" y1="55.19839476539836" y2="52.563006222186495" /><path d="M 173.08426987136738 54.67131705675599 a86.0,86.0 0 0,1 12.851231095245387,41.99856678651699" fill="none" id="id51" stroke="none" /><text fill="#e1ed5e" style="font-size:6.75px; font-family:Arial;" text-anchor="middle"><textPath startOffset="22.20632615414155" xlink:href="#id51">March</textPath></text><path d="M 117.84615892207809 88.93136811851018 l 35.79478114206891 -22.200814050238176 a63.120571001612326,63.120571001612326 0 0,0 0.5647313378264598,0.9282698332794503 l -36.1716282781816 21.581376443751644" fill="#ff6e0a" stroke="none" /><path d="M 118.21658344932153 89.55222093294921 l 54.6497503479646 -31.34333720115238 a84.0,84.0 0 0,0 0.708569434830268,1.2604659602608244 l -55.1811774240873 30.397987730956764" fill="#4dd2ff" stroke="none" /><line stroke="#e1ed5e" stroke-width="0.3" x1="184.98032266829074" x2="189.97916517819016" y1="98.17113171792111" y2="98.06355123074" /><path d="M 185.9800911702706 98.14961562048488 a86.0,86.0 0 0,1 -9.607161424134198,41.387399972396054" fill="none" id="id52" stroke="none" /><text fill="#e1ed5e" style="font-size:6.75px; font-family:Arial;" text-anchor="middle"><textPath startOffset="21.466115282336823" xlink:href="#id52">April</textPath></text><line stroke="#e1ed5e" stroke-width="0.3" x1="174.80103733775053" x2="179.2010983576182" y1="140.37084112569926" y2="142.7455964860345" /><path d="M 175.68104954172406 140.8457921977663 a86.0,86.0 0 0,1 -30.038265399797805,32.042727171017184" fill="none" id="id53" stroke="none" /><text fill="#e1ed5e" style="font-size:6.75px; font-family:Arial;" text-anchor="middle"><textPath startOffset="22.206326154141568" xlink:href="#id53">May</textPath></text><line stroke="#e1ed5e" stroke-width="0.3" x1="143.8653032363475" x2="146.44561519142675" y1="172.8068346515853" y2="177.08958963109032" /><path d="M 144.38136562736335 173.6633856474863 a86.0,86.0 0 0,1 -40.68145358897372,12.25698825130547" fill="none" id="id54" stroke="none" /><text fill="#e1ed5e" style="font-size:6.75px; font-family:Arial;" text-anchor="middle"><textPath startOffset="21.466115282336833" xlink:href="#id54">June</textPath></text><line stroke="#e1ed5e" stroke-width="0.3" x1="102.19456741930631" x2="102.32365962044197" y1="184.97166512339345" y2="189.96999836594603" /><path d="M 102.22038585953345 185.97133177190398 a86.0,86.0 0 0,1 -42.740103519485714,-10.115201625700543" fill="none" id="id55" stroke="none" /><text fill="#e1ed5e" style="font-size:6.75px; font-family:Arial;" text-anchor="middle"><textPath startOffset="22.20632615414155" xlink:href="#id55">July</textPath></text><line stroke="#e1ed5e" stroke-width="0.3" x1="58.666819895761336" x2="56.23545636021788" y1="174.27360380694188" y2="178.64263932499728" /><path d="M 58.180547188652646 175.14741091055294 a86.0,86.0 0 0,1 -31.652253787137756,-30.449443065178592" fill="none" id="id56" stroke="none" /><text fill="#e1ed5e" style="font-size:6.75px; font-family:Arial;" text-anchor="middle"><textPath startOffset="22.20632615414155" xlink:href="#id56">August</textPath></text><line stroke="#e1ed5e" stroke-width="0.3" x1="26.63291911575756" x2="22.317208475507996" y1="142.92168965132927" y2="145.44649492493687" /><path d="M 25.769776987707644 143.4266507060508 a86.0,86.0 0 0,1 -11.730757126820373,-40.83630448921669" fill="none" id="id57" stroke="none" /><text fill="#e1ed5e" style="font-size:6.75px; font-family:Arial;" text-anchor="middle"><textPath startOffset="21.46611528233685" xlink:href="#id57">September</textPath></text><line stroke="#e1ed5e" stroke-width="0.3" x1="15.007084014347285" x2="10.007500721073583" y1="101.09737516637583" y2="101.16192664675087" /><path d="M 14.007167355692545 101.11028546245083 a86.0,86.0 0 0,1 10.666146001902534,-42.60595125391555" fill="none" id="id58" stroke="none" /><text fill="#e1ed5e" style="font-size:6.75px; font-family:Arial;" text-anchor="middle"><textPath startOffset="22.20632615414155" xlink:href="#id58">October</textPath></text><line stroke="#e1ed5e" stroke-width="0.3" x1="26.266209847984243" x2="21.928928074336255" y1="57.711370442889674" y2="55.22380399835377" /><path d="M 25.398753493254645 57.213857153982495 a86.0,86.0 0 0,1 29.58750427330803,-30.492523968695096" fill="none" id="id59" stroke="none" /><text fill="#e1ed5e" style="font-size:6.75px; font-family:Arial;" text-anchor="middle"><textPath startOffset="21.46611528233685" xlink:href="#id59">November</textPath></text><line stroke="#e1ed5e" stroke-width="0.3" x1="56.762969772571076" x2="54.21961505331055" y1="26.818313649435495" y2="22.513508569990535" /><path d="M 56.25429882871897 25.957352633546506 a86.0,86.0 0 0,1 42.265352541879196,-11.944610805530505" fill="none" id="id60" stroke="none" /><text fill="#e1ed5e" style="font-size:6.75px; font-family:Arial;" text-anchor="middle"><textPath startOffset="22.20632615414155" xlink:href="#id60">December</textPath></text></svg>