<?xml version="1.0" encoding="utf-8" ?>
<svg baseProfile="full" height="200mm" version="1.1" viewBox="0,0,200,200" width="200mm" xmlns="http://www.w3.org/2000/svg" xmlns:ev="http://www.w3.org/2001/xml-events" xmlns:xlink="http://www.w3.org/1999/xlink"><defs /><rect fill="#1a1a1a" height="200" width="200" x="0" y="0" /><text alignment-baseline="middle" fill="#e1ed5e" style="dominant-baseline: central; font-size:9.0px; font-family:Arial;" text-anchor="middle" x="100.0" y="100.0">2024</text><line stroke="#e1ed5e" stroke-width="0.3" x1="100.0" x2="100.0" y1="15.0" y2="10.0" /><path d="M 100.0 14.0 a86.0,86.0 0 0,1 42.35913384403234,11.155469271406648" fill="none" id="id85" stroke="none" /><text fill="#e1ed5e" style="font-size:6.75px; font-family:Arial;" text-anchor="middle"><textPath startOffset="22.145653131862478" xlink:href="#id85">January</textPath></text><path d="M 100.0 79.0 l 0.0 -20.045024645332404 a41.045024645332404,41.045024645332404 0 0,0 0.7045924278518669,0.00604807857871681 l -0.34409950300301223 20.042070964948124" fill="#ffed16" stroke="none" /><path d="M 100.72087961077811 79.0123766808444 l 0.7355052582970593 -21.41343308868849 a42.42606087522206,42.42606087522206 0 0,0 0.7276559145921774,0.0312486758832871 l -1.102986933490073 21.397651844379368" fill="#ffff18" stroke="none" /><path d="M 101.08105385017728 79.02784411241856 l 1.030929299520241 -19.999752995716296 a41.02630607751395,41.02630607751395 0 0,0 0.7030260930064609,0.04229230398747647 l -1.3740997446591643 19.979108713904125" fill="#ffed16" stroke="none" /><path d="M 101.80034050326958 79.07731436759882 l 4.3911594081971135 -51.031928511643216 a72.22050379062726,72.22050379062726 0 0,0 1.234284302048117,0.116888006684507 l -5.266543273630243 50.949028749453525" fill="#3effb4" stroke="none" /><path d="M 102.51750503828377 79.15144685158666 l 1.6878454960708231 -13.977781969060807 a35.07931856281432,35.07931856281432 0 0,0 0.5972206847221028,0.07732217441192656 l -1.9275440026837176 13.946748198448482" fill="#ff9f0e" stroke="none" /><path d="M 102.87502721639298 79.19773525538626 l 2.0932553288118556 -15.14575280530691 a36.28972026922211,36.28972026922211 0 0,0 0.6163634354548361,0.09058419937125785 l -2.3529438698743737 15.10758753263677" fill="#ffaf10" stroke="none" /><path d="M 103.58742460773223 79.30868818359171 l 3.973278975898187 -22.9168172751814 a44.258707183426324,44.258707183426324 0 0,0 0.7474774369474186,0.1362152887953245 l -4.366091146396659 22.845233812454712" fill="#e8ff1a" stroke="none" /><path d="M 103.94208987418118 79.37332000966035 l 2.670061399129818 -13.970889500800398 a35.22374709135036,35.22374709135036 0 0,0 0.5929389709314803,0.1186044004106783 l -2.9094968555922556 13.92299570372686" fill="#ffa10e" stroke="none" /><path d="M 104.64783097203109 79.52079915486377 l 5.781035588513603 -25.472309475642152 a47.120086571421425,47.120086571421425 0 0,0 0.7872820614716572,0.1857964228493955 l -6.217449803725145 25.36931690914653" fill="#c6ff1e" stroke="none" /><path d="M 104.9986988182912 79.60360301121754 l 3.37535990181865 -13.7726202438109 a35.18020179147797,35.18020179147797 0 0,0 0.5853226804383285,0.1487867364808865 l -3.611287875482373 13.712648275494747" fill="#ffa00e" stroke="none" /><path d="M 105.3480935250658 79.69241777938227 l 5.309923442797304 -20.16264420104079 a41.850120099081735,41.850120099081735 0 0,0 0.693154768741784,0.18892241454291703 l -5.655259612473781 20.06852129235373" fill="#fff717" stroke="none" /><path d="M 106.04205211174951 79.88797359093562 l 5.264440443377811 -17.523610069543658 a39.2973015237571,39.2973015237571 0 0,0 0.6443997086939866,0.19963667697835571 l -5.564480784943428 17.430656804758655" fill="#ffd714" stroke="none" /><path d="M 106.38641147887787 79.99465700312896 l 3.9169841264476544 -12.269896987071826 a33.879950959541624,33.879950959541624 0 0,0 0.5525291834882171,0.1816273172366615 l -4.127036047583614 12.200848748433144" fill="#ff8e0d" stroke="none" /><path d="M 106.72888874123014 80.10723608172694 l 14.776339656231857 -43.68362261015771 a67.11506367753397,67.11506367753397 0 0,0 1.0882043710014935,0.37853396858218974 l -15.52404979927837 43.423530209006934" fill="#37ff7b" stroke="none" /><path d="M 107.40779381753099 80.34994680014964 l 5.774787401503847 -15.318309668504961 a37.37066830134861,37.37066830134861 0 0,0 0.5983359643841597,0.23144920474426992 l -6.036895628381532 15.216920575622654" fill="#ffbe11" stroke="none" /><path d="M 107.74402155503746 80.48000691201159 l 5.714066596595639 -14.40318052799024 a36.49523044011309,36.49523044011309 0 0,0 0.5803533044429825,0.23602463656393485 l -5.9604743622290615 14.302968634847012" fill="#ffb210" stroke="none" /><path d="M 108.4095320186766 80.7573450057729 l 8.99566064052777 -20.58383198570241 a43.46366064503215,43.46366064503215 0 0,0 0.6811099133862493,0.30465180088932325 l -9.347683956769652 20.426376433903236" fill="#f2ff19" stroke="none" /><path d="M 108.73861861582097 80.90454125486305 l 6.3876018021010985 -13.958062716177357 a36.3502107989091,36.3502107989091 0 0,0 0.5651787656663675,0.2645321998807036 l -6.626269281638971 13.846354284726122" fill="#ffb010" stroke="none" /><line stroke="#e1ed5e" stroke-width="0.3" x1="143.13028292997686" x2="145.6673583964461" y1="26.7553504044142" y2="22.446841604673864" /><path d="M 143.63769802327073 25.89364864446614 a86.0,86.0 0 0,1 29.32050498858742,28.57503671076993" fill="none" id="id86" stroke="none" /><text fill="#e1ed5e" style="font-size:6.75px; font-family:Arial;" text-anchor="middle"><textPath startOffset="20.669276256404974" xlink:href="#id86">February</textPath></text><path d="M 111.27062007382361 82.28071324371311 l 8.331882099574225 -13.099102549363428 a36.52439199839868,36.52439199839868 0 0,0 0.5261501596472761,0.34104417671747644 l -8.555517891478509 12.954144530942056" fill="#ffb210" stroke="none" /><path d="M 111.8722381534696 82.67804972795209 l 9.301967063503755 -13.57184793830561 a37.45362111241774,37.45362111241774 0 0,0 0.5272130597213693,0.3680356611151409 l -9.533575214398885 13.410167461385342" fill="#ffbf11" stroke="none" /><path d="M 112.16784306229584 82.88440491214696 l 8.891838476716876 -12.50748437294217 a36.34607301023344,36.34607301023344 0 0,0 0.5054163579677317,0.3658824665705361 l -9.105235845058575 12.353001134998559" fill="#ffb010" stroke="none" /><path d="M 112.7482090630111 83.31218511350987 l 16.428984502967804 -21.506068091872407 a48.063305351915325,48.063305351915325 0 0,0 0.6513494633864582,0.506493282381318 l -16.79574391098949 21.220873757870297" fill="#bbff1f" stroke="none" /><path d="M 113.03279911837588 83.53348406188908 l 12.699984531336762 -16.04601557958177 a41.46372945179773,41.46372945179773 0 0,0 0.5543290524661977,0.446528245772027 l -12.973564354158219 15.825639040016336" fill="#fff316" stroke="none" /><path d="M 113.59037401385872 83.9905735841838 l 8.127420764518043 -9.574081224493428 a33.55858270573223,33.55858270573223 0 0,0 0.43597476153328324,0.3765846152749415 l -8.290575005814185 9.433152476753767" fill="#ff8a0c" stroke="none" /><path d="M 114.13192950727249 84.46653392183569 l 15.632034867559817 -17.182344648900465 a44.229151550028774,44.229151550028774 0 0,0 0.5572246066752579,0.5157587770582767 l -15.92468924554904 16.911468125709813" fill="#e9ff1a" stroke="none" /><path d="M 115.41159269507618 85.73525988315684 l 8.532877186276336 -7.897903735157732 a32.626989141041356,32.626989141041356 0 0,0 0.3769229800106538,0.4143043822192193 l -8.667197867128866 7.7502617773808415" fill="#ff7d0b" stroke="none" /><path d="M 116.1254893667686 86.54754324733833 l 15.77421821356864 -13.15941386327078 a41.54254447419121,41.54254447419121 0 0,0 0.45212765126177035,0.5515222196115855 l -15.997792684069037 12.886689361960698" fill="#fff417" stroke="none" /><path d="M 116.35404254752997 86.82634096563983 l 11.399944482169456 -9.182988315107343 a35.638511146696025,35.638511146696025 0 0,0 0.3796919669271846,0.4797283966545427 l -11.5559028797382 8.985939974538121" fill="#ffa60f" stroke="none" /><path d="M 116.7966241395341 87.39550010848427 l 10.886895397068356 -8.16972926888971 a34.611354367353066,34.611354367353066 0 0,0 0.3525380380307311,0.47828555547928703 l -11.025535454682913 7.981637404141548" fill="#ff980e" stroke="none" /><path d="M 117.01052211995028 87.68569379921539 l 22.124648961546033 -16.01653964388398 a48.31354304801461,48.31354304801461 0 0,0 0.48056998472633505,0.6759818669455913 l -22.39633404480233 15.634380550228887" fill="#b8ff1f" stroke="none" /><path d="M 117.21940702142032 87.97951657250589 l 11.36126712424885 -7.931046813196379 a34.855680936772835,34.855680936772835 0 0,0 0.33828311929546334,0.49356518076558603 l -11.495739980359637 7.734846897360744" fill="#ff9c0e" stroke="none" /><path d="M 117.42321728460499 88.27688183743584 l 12.472845183184003 -8.39228688464068 a36.033374408887326,36.033374408887326 0 0,0 0.3409024227745382,0.5161697177874159 l -12.615072044879264 8.176937288514205" fill="#ffac0f" stroke="none" /><path d="M 117.81537515405839 88.88188828441811 l 9.414786337497464 -5.875522989185315 a32.09774626566917,32.09774626566917 0 0,0 0.2877059102848056,0.4699459825116642 l -9.514260212237673 5.713039890549096" fill="#ff760a" stroke="none" /><line stroke="#e1ed5e" stroke-width="0.3" x1="172.87174338648825" x2="177.1583165268699" y1="56.24261187166439" y2="53.66864786411523" /><path d="M 173.72905801456457 55.72781907015455 a86.0,86.0 0 0,1 12.242430191666344,42.057860355516425" fill="none" id="id87" stroke="none" /><text fill="#e1ed5e" style="font-size:6.75px; font-family:Arial;" text-anchor="middle"><textPath startOffset="22.145653131862474" xlink:href="#id87">March</textPath></text><path d="M 118.18653347947321 89.5 l 24.83880175712987 -14.340688880826683 a49.68137776165336,49.68137776165336 0 0,0 0.42008357477326813,0.7422474249936654 l -25.081318696924512 13.9121846857339" fill="#a8ff21" stroke="none" /><path d="M 118.53625476483649 90.13048839642627 l 17.749668629245566 -9.450698791011835 a41.108864813471115,41.108864813471115 0 0,0 0.3263102884764502,0.6257430037778735 l -17.90928698669696 9.144609544129462" fill="#ffee16" stroke="none" /><path d="M 118.70294669586156 90.45014215332178 l 17.856290546801386 -9.117549184304199 a41.04935947156404,41.04935947156404 0 0,0 0.3150637772490142,0.6303386073553441 l -18.010174237262135 8.809678720785104" fill="#ffed16" stroke="none" /><path d="M 119.0197475246899 91.09779779509293 l 18.365046955292843 -8.59576928065955 a41.27713488628118,41.27713488628118 0 0,0 0.29486721329598564,0.6443380761111238 l -18.509898633443882 8.27924222233374" fill="#fff016" stroke="none" /><path d="M 119.16976305983485 91.42560881287824 l 8.907630161526331 -3.9842696707691787 a30.75808792253609,30.75808792253609 0 0,0 0.2114488452360593,0.48383633818966754 l -8.97471288877936 3.8307712628036614" fill="#ff6309" stroke="none" /><path d="M 119.31412917781788 91.75594674310238 l 38.21338658894932 -16.311022426396946 a62.548915355168006,62.548915355168006 0 0,0 0.413043714858901,0.9911545523766278 l -38.4877561483447 15.652635364579043" fill="#31ff44" stroke="none" /><path d="M 119.58574465831526 92.42381321644754 l 20.074628700518883 -7.7652976335021995 a42.524185578101935,42.524185578101935 0 0,0 0.2575129333959547,0.6830836502097105 l -20.20497231772928 7.419545703098331" fill="#feff18" stroke="none" /><path d="M 119.71291397450082 92.76114493625339 l 18.621519814391817 -6.83808001077027 a40.83734706132559,40.83734706132559 0 0,0 0.2360006426294737,0.660135800069549 l -18.73616062706523 6.517409254319804" fill="#ffeb16" stroke="none" /><path d="M 119.94978838288452 93.4421083053983 l 20.835791194694764 -6.849138417095696 a42.932644431656115,42.932644431656115 0 0,0 0.22413965117612264,0.7021142649213215 l -20.950295561648144 6.490455118482988" fill="#f9ff18" stroke="none" /><path d="M 120.05942366710727 93.78553927170692 l 9.765398925687384 -3.0253455496486437 a31.223293592213576,31.223293592213576 0 0,0 0.1542188053805502,0.5133442461637175 l -9.815894051071561 2.8572636998942027" fill="#ff6909" stroke="none" /><path d="M 120.16314734710363 94.1308016681162 l 44.23934626186035 -12.877428945686809 a67.07545912878123,67.07545912878123 0 0,0 0.31232093040009384,1.1083168008692565 l -44.45388568433503 12.116104220914538" fill="#37ff7a" stroke="none" /><path d="M 120.35273937422433 94.82641323984039 l 19.195749260924913 -4.879484397733544 a40.80621512748017,40.80621512748017 0 0,0 0.166746773980829,0.6803837403179156 l -19.276683561422033 4.549244832807533" fill="#ffea16" stroke="none" /><path d="M 120.43855184770803 95.1765574152323 l 19.601541320604763 -4.62591037943284 a41.13999674731653,41.13999674731653 0 0,0 0.15631070933279964,0.6887338265817442 l -19.67806289149523 4.288742218912069" fill="#ffee16" stroke="none" /><path d="M 120.592083275326 95.88100663000786 l 20.62441377862939 -4.125460376121367 a42.0329709510346,42.0329709510346 0 0,0 0.13545366622156688,0.7087508189424073 l -20.692193737133113 3.7708069921456455" fill="#fffa17" stroke="none" /><path d="M 120.65975698304385 96.23510406497455 l 12.632500341572438 -2.3020623729614935 a33.84054344834489,33.84054344834489 0 0,0 0.09924171640134734,0.5723998477431189 l -12.670156875466018 2.084869492297782" fill="#ff8e0d" stroke="none" /><path d="M 120.77682067341334 96.94652285012252 l 41.5504572692971 -6.106486350007852 a62.99678171991892,62.99678171991892 0 0,0 0.14805888653582608,1.0712803475214365 l -41.649160672388135 5.39231769428633" fill="#32ff49" stroke="none" /><path d="M 120.86939407059847 97.66154086499901 l 21.087594036751824 -2.362908896330043 a42.21956551655115,42.21956551655115 0 0,0 0.07452277543629064,0.720940250734035 l -21.12504920466978 2.0005641233130764" fill="#fffc17" stroke="none" /><path d="M 120.9064616781168 98.02013634271609 l 21.455382493376234 -2.031847029199803 a42.55137676082768,42.55137676082768 0 0,0 0.06262423356670116,0.7277885208417944 l -21.487100349640674 1.6632374609823466" fill="#feff18" stroke="none" /><path d="M 120.96210409425399 98.7389718711861 l 20.380384332862363 -1.2260333125061893 a41.41722858858559,41.41722858858559 0 0,0 0.03660180627228317,0.7100652634311653 l -20.39842772859122 0.8759962556982934" fill="#fff216" stroke="none" /><path d="M 120.98066250479742 99.09900007780936 l 40.36908711433466 -1.733622298180806 a61.406294568018616,61.406294568018616 0 0,0 0.03618676741157022,1.0535382499613055 l -40.39289856874308 1.0403777836553805" fill="#30ff36" stroke="none" /><line stroke="#e1ed5e" stroke-width="0.3" x1="184.99686870605535" x2="189.99668451229388" y1="99.2704041080226" y2="99.22748670261217" /><path d="M 185.99683186730306 99.26182062694052 a86.0,86.0 0 0,1 -10.086455211305974,41.156179273409016" fill="none" id="id88" stroke="none" /><text fill="#e1ed5e" style="font-size:6.75px; font-family:Arial;" text-anchor="middle"><textPath startOffset="21.40746469413373" xlink:href="#id88">April</textPath></text><path d="M 120.99922638620191 99.81974689727618 l 25.361936907244996 -0.21770172550836203 a46.36287124377611,46.36287124377611 0 0,0 0.0,0.7959096564643747 l -25.361936907244996 -0.21770172550835895" fill="#cfff1d" stroke="none" /><path d="M 120.99922638620191 100.18025310272382 l 25.622607990660175 0.2199392732499672 a46.62355193034253,46.62355193034253 0 0,0 -0.013739668582569645,0.8002668134175303 l -25.615056890478936 -0.6597530026365686" fill="#ccff1d" stroke="none" /><path d="M 120.99303781780057 100.54070618675476 l 10.028053284666523 0.2582870806590873 a31.031379012685466,31.031379012685466 0 0,0 -0.018286810866737748,0.5324005457241574 l -10.02214178680294 -0.4303938909473554" fill="#ff6709" stroke="none" /><path d="M 120.98066250479742 100.90099992219065 l 14.069306701946653 0.6041965662824829 a35.082274126154076,35.082274126154076 0 0,0 -0.031003392668105978,0.6014575351383417 l -14.056861719821974 -0.8456258947975552" fill="#ff9f0e" stroke="none" /><path d="M 120.96210409425399 101.26102812881392 l 16.584028590368955 0.997653978220723 a37.61400968298847,37.61400968298847 0 0,0 -0.04430579067885634,0.6441964726861429 l -16.56445883852503 -1.2821938750612094" fill="#ffc111" stroke="none" /><path d="M 120.86939407059847 102.33845913500097 l 11.052614797660542 1.2384685416261887 a32.121784847499185,32.121784847499185 0 0,0 -0.06610650127261251,0.5474566621631334 l -11.029726210128265 -1.4280188807127308" fill="#ff760a" stroke="none" /><path d="M 120.82617615685814 102.69636545807757 l 19.97973984953468 2.5867773318493152 a41.146498986664,41.146498986664 0 0,0 -0.09670501664511215,0.6997093268938603 l -19.93239031633436 -2.9293749669432607" fill="#ffef16" stroke="none" /><path d="M 120.7213421655516 103.40968896794604 l 26.971716990896965 4.438185766910042 a48.334429028948875,48.334429028948875 0 0,0 -0.14174688729316495,0.8175583781375246 l -26.891555286111565 -4.900537177968155" fill="#b8ff1f" stroke="none" /><path d="M 120.65975698304385 103.76489593502545 l 13.610836783137561 2.480347862716228 a34.83499199339455,34.83499199339455 0 0,0 -0.11225776507210981,0.5873800624736208 l -13.566252725783292 -2.713630490223163" fill="#ff9c0e" stroke="none" /><path d="M 120.592083275326 104.11899336999214 l 41.048468601528 8.210843349716756 a62.86161395651412,62.86161395651412 0 0,0 -0.22074091973468715,1.056325210042922 l -40.90146997096895 -8.914285011045086" fill="#32ff48" stroke="none" /><path d="M 120.43855184770803 104.8234425847677 l 15.593747749672032 3.6800820093488342 a37.022108864813475,37.022108864813475 0 0,0 -0.1512837492986959,0.6172893228447276 l -15.52827647385704 -3.9472271568016617" fill="#ffb911" stroke="none" /><path d="M 120.26092885502905 105.52220625578681 l 24.978019029323978 6.807870158759162 a46.889158555808535,46.889158555808535 0 0,0 -0.21832822042576575,0.7747698320819532 l -24.857472316823632 -7.235647914744123" fill="#c9ff1d" stroke="none" /><path d="M 120.16314734710363 105.8691983318838 l 13.604146194825184 3.9599686883625727 a35.16877361323091,35.16877361323091 0 0,0 -0.17370641048207408,0.5782121455466398 l -13.53416346433948 -4.1929184374999355" fill="#ffa00e" stroke="none" /><path d="M 119.94978838288452 106.5578916946017 l 13.514475424624184 4.4424765036644045 a35.22591450446618,35.22591450446618 0 0,0 -0.19376698398625355,0.5728376580186468 l -13.436223019065565 -4.673815836157211" fill="#ffa10e" stroke="none" /><path d="M 119.83427380445688 106.89939002012753 l 39.57301635294365 13.76554931043109 a62.89885405459504,62.89885405459504 0 0,0 -0.3634949634522136,1.0167601064396743 l -39.33088121944749 -14.442844373251686" fill="#32ff48" stroke="none" /><path d="M 119.58574465831526 107.57618678355244 l 2.8020939263954436 1.0839101265632372 a24.004428653639252,24.004428653639252 0 0,0 -0.15196097866171104,0.3830409344859089 l -2.783074272767608 -1.1318520782627102" fill="#ff0000" stroke="none" /><path d="M 119.4528033332814 107.91128576633889 l 23.207495657292856 9.438286447475317 a46.053325243325745,46.053325243325745 0 0,0 -0.30411457068594044,0.7297642606241029 l -23.04205524207043 -9.835283217540697" fill="#d3ff1c" stroke="none" /><path d="M 119.31412917781788 108.2440532568976 l 20.167370835425025 8.60825138364492 a42.927718492756526,42.927718492756526 0 0,0 -0.29510990822227495,0.675269222673447 l -20.016627045185786 -8.953182676094212" fill="#f9ff18" stroke="none" /><path d="M 119.16976305983485 108.57439118712176 l 11.7329482815743 5.247998529270963 a33.85315385192784,33.85315385192784 0 0,0 -0.24183328530671785,0.5284493723544377 l -11.641130531412527 -5.44863688384009" fill="#ff8e0d" stroke="none" /><path d="M 119.0197475246899 108.90220220490707 l 27.645721981140714 12.9395938015098 a51.5240729852128,51.5240729852128 0 0,0 -0.3818197367088795,0.7978563989274449 l -27.41952298647192 -13.412262702502348" fill="#93ff23" stroke="none" /><path d="M 118.70294669586154 109.54985784667822 l 11.480046693802697 5.8617936404268765 a33.88999987489679,33.88999987489679 0 0,0 -0.269009024837394,0.5158602752951755 l -11.377729599990353 -6.058000158826555" fill="#ff8f0d" stroke="none" /><line stroke="#e1ed5e" stroke-width="0.3" x1="174.33088141563837" x2="178.70328620479359" y1="141.23008692659167" y2="143.65538615756765" /><path d="M 175.20536237346943 141.71514677278685 a86.0,86.0 0 0,1 -30.301960400862466,31.631185727798858" fill="none" id="id89" stroke="none" /><text fill="#e1ed5e" style="font-size:6.75px; font-family:Arial;" text-anchor="middle"><textPath startOffset="22.145653131862474" xlink:href="#id89">May</textPath></text><path d="M 118.36410011445183 110.18625677009912 l 19.77017116964079 10.966180682291666 a43.60789213601221,43.60789213601221 0 0,0 -0.3687288888143994,0.6515086156153113 l -19.579008915805012 -11.3039460680061" fill="#f1ff19" stroke="none" /><path d="M 118.18653347947321 110.5 l 18.60004993803831 10.738743838666894 a42.4774876773338,42.4774876773338 0 0,0 -0.3700118678011087,0.6283610438470901 l -18.412964360107434 -11.056456050807533" fill="#ffff18" stroke="none" /><path d="M 117.81537515405839 111.11811171558189 l 38.13704734631296 23.800338147925697 a65.95431543523407,65.95431543523407 0 0,0 -0.6076663427449184,0.9553524214917903 l -37.722863311942156 -24.451504244096157" fill="#36ff6d" stroke="none" /><path d="M 117.423217284605 111.72311816256416 l 12.68765465892623 8.536820286562353 a36.2922817574499,36.2922817574499 0 0,0 -0.35222569031230533,0.5139078085579379 l -12.539239231798604 -8.753362830190335" fill="#ffaf10" stroke="none" /><path d="M 117.21940702142032 112.02048342749411 l 21.430335521823327 14.960038557963516 a47.135455500788154,47.135455500788154 0 0,0 -0.4688516656203599,0.6594985835977305 l -21.170368757673007 -15.32571436827075" fill="#c6ff1e" stroke="none" /><path d="M 116.79662413953412 112.60449989151573 l 15.721698190804073 11.79785541988853 a40.6560725098206,40.6560725098206 0 0,0 -0.42369052749115527,0.5546245011345753 l -15.516855685958614 -12.066000834263983" fill="#ffe815" stroke="none" /><path d="M 116.35404254752997 113.17365903436017 l 3.6590671546688482 2.9474854880278025 a25.698557559986988,25.698557559986988 0 0,0 -0.2796898605387733,0.3411761529221104 l -3.6079304748914476 -3.009863922648406" fill="#ff1902" stroke="none" /><path d="M 116.1254893667686 113.45245675266167 l 18.1578186791159 15.147898147318545 a44.64667413115821,44.64667413115821 0 0,0 -0.4960148474345469,0.5843042430663026 l -17.895109268174235 -15.457369172834403" fill="#e4ff1a" stroke="none" /><path d="M 115.89218393027572 113.72728997021213 l 3.305072842731766 2.8548432036719515 a25.367337428378413,25.367337428378413 0 0,0 -0.2874831259420633,0.32710302477251996 l -3.255578652831117 -2.9111585062557648" fill="#ff1502" stroke="none" /><path d="M 115.6541949942343 113.99807769240083 l 9.634250871876896 8.615006537371274 a33.92428440963795,33.92428440963795 0 0,0 -0.3919099711939113,0.430777710864054 l -9.484943199841105 -8.779121823793" fill="#ff8f0d" stroke="none" /><path d="M 115.16444852881244 114.52719865689866 l 11.232617432260659 10.76059340801972 a36.55512985713213,36.55512985713213 0 0,0 -0.43798824560479305,0.4494145246489834 l -11.046242385505058 -10.95183062473644" fill="#ffb310" stroke="none" /><path d="M 114.91283532996324 114.78537596483092 l 10.24644098610615 10.158865093657925 a35.42886318712938,35.42886318712938 0 0,0 -0.43190834459596034,0.42821684246511055 l -10.070540721380224 -10.333261946351698" fill="#ffa40f" stroke="none" /><path d="M 114.65682725009322 115.03919595460226 l 7.1651301078172915 7.352054704131097 a31.266050741862035,31.266050741862035 0 0,0 -0.3875911079256171,0.3713035137271718 l -7.037866514026363 -7.473970348163849" fill="#ff6a09" stroke="none" /><path d="M 114.39649973595853 115.28858382429668 l 9.526420020377511 10.116727933750246 a34.89607363574949,34.89607363574949 0 0,0 -0.4396410562883276,0.40692519824060863 l -9.351349192775217 -10.278770878123234" fill="#ff9c0e" stroke="none" /><path d="M 113.86319453409587 115.77377054828091 l 16.099743323260263 18.318552512751516 a45.38792941676883,45.38792941676883 0 0,0 -0.5896551674271268,0.5093300896351819 l -15.78290867607028 -18.592226734851415" fill="#dbff1b" stroke="none" /><path d="M 113.59037401385872 116.0094264158162 l 5.968337525821217 7.030686598246148 a30.222342807816446,30.222342807816446 0 0,0 -0.39839619861720243,0.33235627833828224 l -5.846766993042119 -7.1321050604963006" fill="#ff5b08" stroke="none" /><path d="M 113.31354834802062 116.24036423190432 l 2.2916128722862457 2.7953950931482683 a24.61465396452073,24.61465396452073 0 0,0 -0.329073578024344,0.26507838056006316 l -2.2432885239066493 -2.834321767501735" fill="#ff0901" stroke="none" /><path d="M 113.03279911837588 116.46651593811092 l 3.66153111318271 4.626224948721966 a26.89989553881953,26.89989553881953 0 0,0 -0.3645448933666267,0.28347231401196565 l -3.5815762751808524 -4.688398314354725" fill="#ff2b04" stroke="none" /><path d="M 112.45986205192187 116.90419585922612 l 30.481216124573436 41.35362376004108 a72.3734049340706,72.3734049340706 0 0,0 -1.0064004087925231,0.7285562845793555 l -29.766834705406946 -41.87078081599351" fill="#3effb6" stroke="none" /><path d="M 111.27062007382361 117.71928675628689 l 5.721354722528074 8.994919915574629 a31.66032289138539,31.66032289138539 0 0,0 -0.4610886873469421,0.28775344287636095 l -5.566101906391417 -9.091809155292538" fill="#ff700a" stroke="none" /><path d="M 110.96478420261333 117.91015095944535 l 5.286577686298899 8.635227348832087 a31.124971851777715,31.124971851777715 0 0,0 -0.4580813929741103,0.27506471473349614 l -5.1375635367673524 -8.724706064101506" fill="#ff6809" stroke="none" /><line stroke="#e1ed5e" stroke-width="0.3" x1="143.1302829299769" x2="145.66735839644613" y1="173.24464959558577" y2="177.55315839532614" /><path d="M 143.63769802327073 174.10635135553383 a86.0,86.0 0 0,1 -40.68552437913181,11.842963189579606" fill="none" id="id90" stroke="none" /><text fill="#e1ed5e" style="font-size:6.75px; font-family:Arial;" text-anchor="middle"><textPath startOffset="21.407464694133747" xlink:href="#id90">June</textPath></text><path d="M 110.65571695917076 118.09573695890943 l 2.327230499461597 3.952146169269659 a25.58644319063227,25.58644319063227 0 0,0 -0.3803942992751148,0.21962075108468745 l -2.259043732326084 -3.9915138176305183" fill="#ff1802" stroke="none" /><path d="M 109.3889696526874 118.78422872680471 l 5.479551580367631 10.962773766819934 a33.255933019741285,33.255933019741285 0 0,0 -0.5128377647462063,0.25085464936548263 l -5.290553566359356 -11.05522216628264" fill="#ff860c" stroke="none" /><path d="M 108.07796709384702 119.3841803445677 l 3.078351829477415 7.386923756110826 a29.00268033627743,29.00268033627743 0 0,0 -0.4612055100866463,0.18756826585827047 l -2.951091858200328 -7.4386792785483875" fill="#ff4a06" stroke="none" /><path d="M 107.407793817531 119.65005319985036 l 4.023668127113019 10.673257747698141 a32.406504115895615,32.406504115895615 0 0,0 -0.5222244071325838,0.19176803586084323 l -3.8398545683263077 -10.740756632567706" fill="#ff7a0b" stroke="none" /><path d="M 106.72888874123015 119.89276391827305 l 3.314925157238678 9.799987203776801 a31.34545687692346,31.34545687692346 0 0,0 -0.5111955361137976,0.16804012635413254 l -3.1462068834771464 -9.855448251532954" fill="#ff6b09" stroke="none" /><path d="M 106.38641147887787 120.00534299687104 l 6.0105404752701395 18.82793243154489 a40.76404909049966,40.76404909049966 0 0,0 -0.6684515307806905,0.20708799294247426 l -5.686448311617824 -18.92833701229401" fill="#ffea16" stroke="none" /><path d="M 106.0420521117495 120.11202640906438 l 0.8634040614314149 2.873991313552907 a24.000881977631547,24.000881977631547 0 0,0 -0.3956030947889476,0.11515429531178209 l -0.8139409542608604 -2.888389303167207" fill="#ff0000" stroke="none" /><path d="M 105.69591212413111 120.21278271476187 l 3.998411453314545 14.188951681271025 a35.741561788475494,35.741561788475494 0 0,0 -0.5919799976035037,0.16134678076495673 l -3.754250054776346 -14.255498956180125" fill="#ffa80f" stroke="none" /><path d="M 105.3480935250658 120.30758222061773 l 2.7930564625067653 10.605690325598024 a31.967307403607975,31.967307403607975 0 0,0 -0.5318670474598663,0.13519852361438567 l -2.6105841218215016 -10.65207408104768" fill="#ff740a" stroke="none" /><path d="M 104.29559338865022 120.5559693870025 l 2.898413134817503 13.869956087467585 a35.16956176345485,35.16956176345485 0 0,0 -0.5920268421770145,0.1184219491141262 l -2.65988980710953 -13.917667433244572" fill="#ffa00e" stroke="none" /><path d="M 103.94208987418118 120.62667999033965 l 6.039928329255597 31.60345724944176 a53.175444741912074,53.175444741912074 0 0,0 -0.898070632282442,0.1636583855086498 l -5.496522963422097 -31.702483808881773" fill="#80ff25" stroke="none" /><path d="M 102.875027216393 120.80226474461374 l 2.084299417974399 15.080952295869013 a36.224303800635525,36.224303800635525 0 0,0 -0.6167139045377846,0.07984596198492354 l -1.825107691545839 -15.114509854054331" fill="#ffae10" stroke="none" /><path d="M 102.51750503828377 120.84855314841334 l 1.3683937783623072 11.332263484006184 a32.41458265569095,32.41458265569095 0 0,0 -0.552999106196547,0.06196470329507839 l -1.173658770564961 -11.354083947808233" fill="#ff7a0b" stroke="none" /><path d="M 102.15924093988457 120.88869738790638 l 1.0548767476096799 10.204975626080662 a31.25935146495859,31.25935146495859 0 0,0 -0.5342378518607096,0.05059288001620984 l -0.8795393323639551 -10.221580261602057" fill="#ff6a09" stroke="none" /><path d="M 101.80034050326958 120.92268563240118 l 1.290423459283 14.996676641013753 a36.05209297670578,36.05209297670578 0 0,0 -0.6170590485273343,0.047764272910185625 l -1.03279541598043 -15.016618680918992" fill="#ffac0f" stroke="none" /><path d="M 101.44090949804482 120.95050786540614 l 1.2314265586600885 17.90467190193771 a38.9469687492181,38.9469687492181 0 0,0 -0.6673946034155482,0.04014880205448148 l -0.9238876031120751 -17.923172681816883" fill="#ffd213" stroke="none" /><path d="M 101.08105385017728 120.97215588758144 l 1.1261033957391264 21.846105036398388 a42.87510946530888,42.87510946530888 0 0,0 -0.7353576162297047,0.031579420089984475 l -0.7509200189085923 -21.862217024914205" fill="#faff18" stroke="none" /><path d="M 100.72087961077811 120.9876233191556 l 0.36135743118529584 10.520527333417776 a31.526731428428455,31.526731428428455 0 0,0 -0.5410387741749074,0.013935239626089965 l -0.1807053429396446 -10.52518029039391" fill="#ff6e0a" stroke="none" /><line stroke="#e1ed5e" stroke-width="0.3" x1="101.45913802915013" x2="101.54496967792366" y1="184.9874750549273" y2="189.98673829345242" /><path d="M 101.47630435890484 185.9873277026323 a86.0,86.0 0 0,1 -42.54439059252881,-10.42667462771756" fill="none" id="id91" stroke="none" /><text fill="#e1ed5e" style="font-size:6.75px; font-family:Arial;" text-anchor="middle"><textPath startOffset="22.145653131862474" xlink:href="#id91">July</textPath></text><path d="M 99.63950707515114 120.99690560180557 l -0.2555141416255766 14.88241777252104 a35.884611054119645,35.884611054119645 0 0,0 -0.6158255263645013,-0.015861481075616708 l 0.5109529820608218 -14.875838574095376" fill="#ffaa0f" stroke="none" /><path d="M 99.27912038922189 120.98762331915562 l -0.5010304485737125 14.58695483805188 a35.59555695949158,35.59555695949158 0 0,0 -0.6105048882797334,-0.026217706743593187 l 0.7513610974542847 -14.57620456288246" fill="#ffa60f" stroke="none" /><path d="M 98.91894614982273 120.97215588758144 l -0.910853529399896 17.67031513388163 a38.693775489779064,38.693775489779064 0 0,0 -0.663055887967434,-0.03988779570710173 l 1.2140537694997762 -17.652075360349833" fill="#ffcf13" stroke="none" /><path d="M 98.55909050195518 120.95050786540614 l -1.3818735608204011 20.0921382947703 a41.139602672204575,41.139602672204575 0 0,0 -0.7041356544294225,-0.054504552917951865 l 1.7265782100250597 -20.065455974857294" fill="#ffee16" stroke="none" /><path d="M 98.19965949673042 120.92268563240118 l -0.9498443700319829 11.038631368784731 a32.07942177296269,32.07942177296269 0 0,0 -0.5482532609844075,-0.05192015383198997 l 1.1391971944014057 -11.020699459447556" fill="#ff760a" stroke="none" /><path d="M 97.48249496171623 120.84855314841334 l -1.8762709879490242 15.538215343453052 a36.65108714689619,36.65108714689619 0 0,0 -0.6239798336585071,-0.08078668197856996 l 2.1427286434983253 -15.503717065274085" fill="#ffb410" stroke="none" /><path d="M 97.12497278360702 120.80226474461374 l -2.2669784185506123 16.402726542596227 a37.55864212975705,37.55864212975705 0 0,0 -0.6379154626261834,-0.09375160518063055 l 2.5482189867844807 -16.361393864116714" fill="#ffc011" stroke="none" /><path d="M 96.41257539226777 120.69131181640829 l -3.3898187010111185 19.55157345816716 a40.843258188005095,40.843258188005095 0 0,0 -0.6897945260900854,-0.12570354091825994 l 3.724947960652261 -19.490501743317534" fill="#ffeb16" stroke="none" /><path d="M 95.70440661134978 120.55596938700252 l -2.356116905638222 11.274872317399918 a32.51842144769435,32.51842144769435 0 0,0 -0.5454385802903,-0.11887579992060483 l 2.549317902547658 -11.232765059345594" fill="#ff7c0b" stroke="none" /><path d="M 95.00130118170881 120.39639698878247 l -2.7353420989337494 11.161129201429763 a32.491427302524585,32.491427302524585 0 0,0 -0.5405872721454525,-0.13741517062929176 l 2.9265346643045804 -11.112528798965208" fill="#ff7b0b" stroke="none" /><path d="M 94.30408787586889 120.21278271476187 l -5.416475096148277 19.221159282731215 a40.969756298946635,40.969756298946635 0 0,0 -0.6752986160974274,-0.1965695852384805 l 5.745633724627312 -19.12534600319022" fill="#ffec16" stroke="none" /><path d="M 93.61358852112213 120.00534299687104 l -9.398952257766698 29.442084079567632 a51.90593176870918,51.90593176870918 0 0,0 -0.8465048291424065,-0.2782629510614675 l 9.902979824556848 -29.276400207104142" fill="#8fff24" stroke="none" /><path d="M 92.93061703081489 119.77432235084164 l -5.015026504533537 14.02792169145874 a35.897418495258584,35.897418495258584 0 0,0 -0.5784798022098848,-0.21242579615164153 l 5.255095458397541 -13.93976504629838" fill="#ffaa0f" stroke="none" /><path d="M 92.59220618246901 119.65005319985036 l -6.986475196631871 18.532455502252105 a40.805624014812224,40.805624014812224 0 0,0 -0.6533325066685746,-0.2527230487601684 l 7.303579965793974 -18.409792565353897" fill="#ffea16" stroke="none" /><path d="M 91.92203290615298 119.3841803445677 l -7.576618546888591 18.18112634139758 a40.69666224635324,40.69666224635324 0 0,0 -0.6425517027869745,-0.27426711343371685 l 7.887605324845997 -18.048384578304457" fill="#ffe915" stroke="none" /><path d="M 91.59046798132341 119.24265499422711 l -5.673625113871507 12.98236458227944 a35.16798546300698,35.16798546300698 0 0,0 -0.5511101268782599,-0.2465045499148274 l 5.895648643605402 -12.883056281454756" fill="#ffa00e" stroke="none" /><path d="M 91.26138138417905 119.09545874513695 l -15.705932553747159 34.32029709947549 a58.743331998899095,58.743331998899095 0 0,0 -0.9133505182111717,-0.42749416029406817 l 16.29277178582982 -34.04562670761089" fill="#45ff2d" stroke="none" /><path d="M 90.6110303473126 118.78422872680471 l -6.470259721278783 12.94485369771585 a35.471817374333824,35.471817374333824 0 0,0 -0.5423349978688468,-0.27692011420168394 l 6.691521940861213 -12.83187563184133" fill="#ffa40f" stroke="none" /><path d="M 89.97174638481275 118.45085714620012 l -11.180353597818776 20.570591350516704 a44.412593514649586,44.412593514649586 0 0,0 -0.6667299154549461,-0.3698238450456874 l 11.531827701429824 -20.37563459003787" fill="#e7ff1a" stroke="none" /><line stroke="#e1ed5e" stroke-width="0.3" x1="58.13341422392154" x2="55.67067388415222" y1="173.97424548756322" y2="178.32567169271397" /><path d="M 57.64086615596768 174.84453072859336 a86.0,86.0 0 0,1 -31.369924170532247,-30.572349798747897" fill="none" id="id92" stroke="none" /><text fill="#e1ed5e" style="font-size:6.75px; font-family:Arial;" text-anchor="middle"><textPath startOffset="22.145653131862474" xlink:href="#id92">August</textPath></text><path d="M 89.65649057296885 118.27599006163327 l -6.540522157178831 11.556475951006304 a34.27895201040859,34.27895201040859 0 0,0 -0.509626048166736,-0.2942327360951124 l 6.737940673205967 -11.44249631763502" fill="#ff940d" stroke="none" /><path d="M 89.34428304082925 118.09573695890944 l -10.938193305112183 18.57544354954582 a42.55669677483924,42.55669677483924 0 0,0 -0.6263276648676661,-0.3760917668975421 l 11.255453726537276 -18.38493778211236" fill="#feff18" stroke="none" /><path d="M 89.03521579738668 117.91015095944536 l -5.47227559475197 8.938550926550572 a31.480624640328273,31.480624640328273 0 0,0 -0.4584716315770876,-0.2861202065193617 l 5.62491135511877 -8.843294923189664" fill="#ff6d0a" stroke="none" /><path d="M 88.4268655584334 117.5232005979908 l -8.221936414843164 12.449059658700323 a35.91909262641679,35.91909262641679 0 0,0 -0.511596853940416,-0.3442251951732779 l 8.434429556880586 -12.306084789469924" fill="#ffaa0f" stroke="none" /><path d="M 88.1277618465304 117.32195027204791 l -9.53121618890571 13.906329263460188 a37.85912440263217,37.85912440263217 0 0,0 -0.5329210960610073,-0.3720203137886522 l 9.768532376140483 -13.740664133866408" fill="#ffc412" stroke="none" /><path d="M 87.54013794807813 116.9041958592261 l -12.985400932849322 17.617190283868702 a42.885749493332,42.885749493332 0 0,0 -0.5888560802249476,-0.4418885805656647 l 13.285910001985036 -17.39168267603902" fill="#faff18" stroke="none" /><path d="M 86.96720088162412 116.46651593811092 l -22.185872820516945 28.031125553439058 a56.748523782120245,56.748523782120245 0 0,0 -0.7586716350145886,-0.6111321656205576 l 22.663795225886798 -27.64614509402509" fill="#5aff2a" stroke="none" /><path d="M 86.40962598614128 116.0094264158162 l -14.451014958364853 17.023259284393546 a43.32987214451923,43.32987214451923 0 0,0 -0.5629180123941137,-0.48623517192425436 l 14.741112450521829 -16.77267998000457" fill="#f4ff19" stroke="none" /><path d="M 86.13680546590413 115.77377054828092 l -13.345280196299136 15.18447910409192 a41.21546213125829,41.21546213125829 0 0,0 -0.5274302909669557,-0.4716314184792165 l 13.603975514089461 -14.953152155729322" fill="#ffef16" stroke="none" /><path d="M 85.34317274990678 115.03919595460226 l -14.43642659011608 14.813045461227333 a41.68421447694348,41.68421447694348 0 0,0 -0.5081664623396723,-0.5038231853411506 l 14.688584972585714 -14.563042265657522" fill="#fff517" stroke="none" /><path d="M 85.08716467003676 114.78537596483092 l -20.435513432367376 20.260851973924986 a49.77694097630545,49.77694097630545 0 0,0 -0.5964064451416935,-0.6119655532555084 l 20.78030667865988 -19.907063728601738" fill="#a7ff21" stroke="none" /><path d="M 84.58840730492382 114.26474011684316 l -14.597670727424566 13.51138609473424 a40.89094127655315,40.89094127655315 0 0,0 -0.4723922080205462,-0.5192417875492591 l 14.827460636286991 -13.258806731627306" fill="#ffeb16" stroke="none" /><path d="M 84.1078160697243 113.72728997021213 l -16.35612181905018 14.12802846879208 a42.61304951585058,42.61304951585058 0 0,0 -0.47342171988516957,-0.5576895956227464 l 16.596238102442463 -13.845172090719778" fill="#fdff18" stroke="none" /><path d="M 83.64595745247003 113.17365903436017 l -10.72708490516606 8.64098026910374 a34.77450146370756,34.77450146370756 0 0,0 -0.37048682548264433,-0.46809800114761313 l 10.873838161290266 -8.455562324041447" fill="#ff9b0e" stroke="none" /><path d="M 83.4222238831116 112.89097897827486 l -24.5655291023759 19.102304013281938 a52.118535291615586,52.118535291615586 0 0,0 -0.5431446853219266,-0.710993828265024 l 24.889825765052123 -18.677789271776046" fill="#8cff24" stroke="none" /><path d="M 82.78059297857968 112.02048342749411 l -21.489953092483844 15.001656252418421 a47.208162358946126,47.208162358946126 0 0,0 -0.4581670473734132,-0.6684794146059075 l 21.74430987667258 -14.630542102742462" fill="#c5ff1e" stroke="none" /><path d="M 82.37810715431573 111.42229804090323 l -15.351972415259317 9.950963042302375 a39.29493707308529,39.29493707308529 0 0,0 -0.3620416729674257,-0.569189643428316 l 15.520531779852632 -9.685959724195387" fill="#ffd714" stroke="none" /><path d="M 82.18462484594161 111.11811171558189 l -9.234758198273976 5.763172115486252 a31.885536817874748,31.885536817874748 0 0,0 -0.2858037856981287,-0.4668390049495421 l 9.33232994842751 -5.6037959944121525" fill="#ff730a" stroke="none" /><path d="M 81.99639281039703 110.81064883170644 l -43.716811962190825 26.25068949726463 a71.99272837591013,71.99272837591013 0 0,0 -0.6271125094971651,-1.064974141015983 l 44.16099818181776 -25.496364187955088" fill="#3effb2" stroke="none" /><line stroke="#e1ed5e" stroke-width="0.3" x1="26.387840678322732" x2="22.057713659400548" y1="142.50000000000003" y2="145.00000000000006" /><path d="M 25.521815274538298 143.00000000000003 a86.0,86.0 0 0,1 -11.493303480769221,-40.785679425670985" fill="none" id="id93" stroke="none" /><text fill="#e1ed5e" style="font-size:6.75px; font-family:Arial;" text-anchor="middle"><textPath startOffset="21.40746469413373" xlink:href="#id93">September</textPath></text><path d="M 81.4637452351635 109.86951160357371 l -10.802225430767836 5.7515766041168055 a33.23800260214677,33.23800260214677 0 0,0 -0.2638336589127384,-0.5059358287370727 l 10.899367158655524 -5.56529453227523" fill="#ff860c" stroke="none" /><path d="M 81.29705330413844 109.54985784667822 l -19.605173063355256 10.010541058537894 a43.01303575449746,43.01303575449746 0 0,0 -0.33013546837793145,-0.6604920857388062 l 19.774128444944925 -9.672517116635335" fill="#f8ff18" stroke="none" /><path d="M 81.1358732173502 109.22738970284198 l -16.233830224789283 7.940779850551018 a39.07189055971176,39.07189055971176 0 0,0 -0.28954269532435495,-0.6050328728904154 l 16.367752178073548 -7.660934475595497" fill="#ffd413" stroke="none" /><path d="M 80.68587082218212 108.24405325689762 l -28.400896103755557 12.122653725019248 a51.87992281131934,51.87992281131934 0 0,0 -0.34259068958914424,-0.8220929392525125 l 28.604812637881185 -11.633328276325454" fill="#8fff24" stroke="none" /><path d="M 80.41425534168474 107.57618678355246 l -24.291552187467737 9.396494228088166 a47.04560637525959,47.04560637525959 0 0,0 -0.2848932186798559,-0.7557131098988389 l 24.44927608996203 -8.978112837995182" fill="#c7ff1e" stroke="none" /><path d="M 80.28708602549918 107.23885506374661 l -7.172793841773921 2.6339492522464796 a28.641116421047364,28.641116421047364 0 0,0 -0.16551814374333015,-0.4629837064366643 l 7.216952155561195 -2.5104305894288936" fill="#ff4506" stroke="none" /><path d="M 80.16572619554312 106.89939002012753 l -19.387882299287398 6.744111882586441 a41.527372582380465,41.527372582380465 0 0,0 -0.2284293779552815,-0.6753108666843114 l 19.50079709881505 -6.410299341427968" fill="#fff316" stroke="none" /><path d="M 79.94057633289273 106.21446072829308 l -31.73448805743759 9.831425520405865 a54.22250231440938,54.22250231440938 0 0,0 -0.2678170227934404,-0.8914757661133584 l 31.89858140023466 -9.285212150701783" fill="#75ff27" stroke="none" /><path d="M 79.83685265289637 105.86919833188381 l -11.73158727957981 3.4148940791006956 a33.218495884104385,33.218495884104385 0 0,0 -0.1546740294553452,-0.5488835643640559 l 11.78847980110973 -3.213002590833644" fill="#ff850c" stroke="none" /><path d="M 79.64726062577567 105.17358676015961 l -61.05821812267298 15.520760280478815 a84.0,84.0 0 0,0 -0.34324989393482586,-1.4005767015676016 l 61.3156555431241 -14.470327754303112" fill="#4dd2ff" stroke="none" /><path d="M 79.407916724674 104.11899336999214 l -14.606303119899806 2.9216696973565606 a35.895645157254734,35.895645157254734 0 0,0 -0.11567578089121269,-0.6052645655551536 l 14.654305193073176 -2.6705025667680924" fill="#ffaa0f" stroke="none" /><path d="M 79.2786578344484 103.40968896794605 l -53.30572660161458 8.771437027087716 a75.02257487427127,75.02257487427127 0 0,0 -0.19819716714141294,-1.27256799010229 l 53.44844526089426 -7.855080855053976" fill="#41ffd3" stroke="none" /><path d="M 79.13060592940153 102.33845913500099 l -19.893727575216946 2.2291336691479193 a41.018227537718616,41.018227537718616 0 0,0 -0.07240226473647003,-0.700426233285506 l 19.929062232435083 -1.8873029135794819" fill="#ffed16" stroke="none" /><path d="M 79.03789590574601 101.26102812881392 l -30.236905505762294 1.818977150366625 a51.29156866915205,51.29156866915205 0 0,0 -0.04532809470373896,-0.8793529277547179 l 30.26367518992261 -1.2996524292351763" fill="#96ff23" stroke="none" /><path d="M 79.01933749520258 100.90099992219065 l -12.403116525295237 0.5326431909219859 a33.41454825230815,33.41454825230815 0 0,0 -0.019691213975296884,-0.5732882098917411 l 12.410432426267382 -0.31964871646612486" fill="#ff880c" stroke="none" /><line stroke="#e1ed5e" stroke-width="0.3" x1="15.003131293944662" x2="10.003315487706104" y1="100.72959589197737" y2="100.7725132973878" /><path d="M 14.003168132696942 100.73817937305945 a86.0,86.0 0 0,1 10.791469493833604,-42.45332614584628" fill="none" id="id94" stroke="none" /><text fill="#e1ed5e" style="font-size:6.75px; font-family:Arial;" text-anchor="middle"><textPath startOffset="22.145653131862435" xlink:href="#id94">October</textPath></text><path d="M 79.00696218219943 99.45929381324524 l -14.83555454213261 -0.38211125967043236 a35.840474641579306,35.840474641579306 0 0,0 0.021120813898618456,-0.6149094518289941 l 14.826809041237139 0.636726976063565" fill="#ffa90f" stroke="none" /><path d="M 79.03789590574601 98.7389718711861 l -16.38321628008578 -0.9855736082950415 a37.41283433832912,37.41283433832912 0 0,0 0.044068824910378356,-0.6407510424192829 l 16.363883494010338 1.2666680748686494" fill="#ffbe11" stroke="none" /><path d="M 79.06263194458094 98.37931529534042 l -28.436122545055063 -2.2011357275953447 a49.521186228638626,49.521186228638626 0 0,0 0.07288192695417298,-0.8469984667769661 l 28.394146995403148 2.6889552417479914" fill="#aaff21" stroke="none" /><path d="M 79.0935383218832 98.0201363427161 l -16.526472430830506 -1.565074121708244 a37.600414091625595,37.600414091625595 0 0,0 0.06636939962263323,-0.64206373588318 l 16.49717063872621 1.8485423798743368" fill="#ffc111" stroke="none" /><path d="M 79.17382384314186 97.30363454192245 l -17.92972908382548 -2.3213623955828955 a39.07937798683914,39.07937798683914 0 0,0 0.09184674253629586,-0.6645572755890089 l 17.88723782473398 2.628807979371971" fill="#ffd413" stroke="none" /><path d="M 79.22317932658666 96.9465228501225 l -10.93028834730164 -1.6063759819020778 a32.04769872644932,32.04769872644932 0 0,0 0.08466469074979772,-0.5436080489648413 l 10.901102164413576 1.793772212798369" fill="#ff750a" stroke="none" /><path d="M 79.407916724674 95.88100663000787 l -39.598039786994704 -7.920716965182031 a61.38245302374458,61.38245302374458 0 0,0 0.21554679053269965,-1.0314694215155076 l 39.45623528563764 8.599302837982947" fill="#30ff35" stroke="none" /><path d="M 79.56144815229197 95.17655741523228 l -14.234868126549895 -3.359390118329396 a35.625900743113064,35.625900743113064 0 0,0 0.14557841251673248,-0.594009601823351 l 14.175102187516863 3.6032555447608647" fill="#ffa60f" stroke="none" /><path d="M 79.64726062577567 94.8264132398404 l -14.454865146801136 -3.674370195006384 a35.914560762629165,35.914560762629165 0 0,0 0.15701592715653395,-0.5962150504162267 l 14.389659738839876 3.9219657497953957" fill="#ffaa0f" stroke="none" /><path d="M 79.94057633289273 93.78553927170692 l -41.75039765037158 -12.934379915126915 a64.70805289363724,64.70805289363724 0 0,0 0.33782313192829505,-1.058226149200494 l 41.522209802666026 13.6491750980188" fill="#34ff5e" stroke="none" /><path d="M 80.16572619554312 93.10060997987247 l -18.971204736721607 -6.599169796724358 a41.08620549453299,41.08620549453299 0 0,0 0.23743880535029185,-0.6641585971592412 l 18.855125761327372 6.92386335026452" fill="#ffee16" stroke="none" /><path d="M 80.28708602549916 92.7611449362534 l -9.311684713003254 -3.419379606887483 a30.91965871844271,30.91965871844271 0 0,0 0.18723961218644633,-0.4966753167286848 l 9.251614417002372 3.5787232038103127" fill="#ff6509" stroke="none" /><path d="M 80.5471966667186 92.08871423366112 l -19.21887275049915 -7.816148234839221 a41.747463532414244,41.747463532414244 0 0,0 0.2756806784810336,-0.6615332703273257 l 19.081866227481633 8.14491401460781" fill="#fff617" stroke="none" /><path d="M 80.83023694016515 91.42560881287825 l -34.31103161321306 -15.346888021886901 a58.58688417944804,58.58688417944804 0 0,0 0.4185210848883473,-0.9145441015112395 l 34.042526063469666 15.933621105612813" fill="#47ff2c" stroke="none" /><path d="M 80.9802524753101 91.09779779509293 l -24.994737892899774 -11.698799392179339 a48.597080091075135,48.597080091075135 0 0,0 0.3601292221311924,-0.7525315657980614 l 24.790229412808678 12.126143460042487" fill="#b4ff20" stroke="none" /><path d="M 81.1358732173502 90.77261029715801 l -18.720287048944183 -9.157030481185588 a41.83987414617059,41.83987414617059 0 0,0 0.321131168861404,-0.6424774549646232 l 18.560335966871037 9.477039792313981" fill="#fff717" stroke="none" /><path d="M 81.29705330413844 90.45014215332179 l -18.77495399995807 -9.58662528922225 a42.08085107713863,42.08085107713863 0 0,0 0.33402563453458184,-0.6405381971508561 l 18.607620296448545 9.907509729477592" fill="#fffa17" stroke="none" /><line stroke="#e1ed5e" stroke-width="0.3" x1="26.387840678322718" x2="22.05771365940052" y1="57.49999999999999" y2="54.99999999999999" /><path d="M 25.521815274538284 56.99999999999999 a86.0,86.0 0 0,1 29.574782752854787,-30.34633250058573" fill="none" id="id95" stroke="none" /><text fill="#e1ed5e" style="font-size:6.75px; font-family:Arial;" text-anchor="middle"><textPath startOffset="21.40746469413373" xlink:href="#id95">November</textPath></text><path d="M 81.81346652052679 89.5 l -10.509176671381859 -6.067475980183653 a33.1349519603673,33.1349519603673 0 0,0 0.28863113462561835,-0.49015876738746156 l 10.403471826626461 6.246985915864688" fill="#ff840c" stroke="none" /><path d="M 81.99639281039701 89.18935116829357 l -33.49932455567116 -20.115381881907574 a60.074714764680856,60.074714764680856 0 0,0 0.5384755164246444,-0.8795592880735367 l 33.14908107479112 20.687478286105655" fill="#38ff2e" stroke="none" /><path d="M 82.576782715395 88.27688183743585 l -14.016236553414037 -9.430749477899816 a37.893605974929315,37.893605974929315 0 0,0 0.36776694317938846,-0.5365829609469795 l 13.852279873419334 9.669967173916831" fill="#ffc412" stroke="none" /><path d="M 82.78059297857968 87.97951657250589 l -14.687087427898767 -10.252727681365434 a38.91169902669702,38.91169902669702 0 0,0 0.38705078177252283,-0.5444353962604085 l 14.508921547596273 10.503340304335362" fill="#ffd213" stroke="none" /><path d="M 83.42222388311158 87.10902102172516 l -15.992823311603006 -12.436116138829506 a41.259007431130684,41.259007431130684 0 0,0 0.4395726190834857,-0.5553856445074541 l 15.776984261877958 12.708821727251642" fill="#fff016" stroke="none" /><path d="M 83.64595745247003 86.82634096563983 l -22.714112794773374 -18.296881419789134 a50.16687829959717,50.16687829959717 0 0,0 0.5459904573448328,-0.6660195811541468 l 22.396675518189912 18.684103282641775" fill="#a2ff22" stroke="none" /><path d="M 84.83555147118756 85.47280134310135 l -14.21844904687831 -13.620952552579771 a40.689962969449795,40.689962969449795 0 0,0 0.4875300830380312,-0.5002488142531567 l 13.982532162689477 13.863024058900658" fill="#ffe915" stroke="none" /><path d="M 85.34317274990677 84.96080404539775 l -25.656507109800522 -26.32583650956802 a57.7601145945405,57.7601145945405 0 0,0 0.7160260499301003,-0.6859367586685093 l 25.20080857400512 26.762385398542097" fill="#4fff2b" stroke="none" /><path d="M 85.86807049272753 84.46653392183569 l -8.081740280746532 -8.883248281057949 a33.009439037205695,33.009439037205695 0 0,0 0.42241860543992155,-0.3777293217467569 l 7.928056648483219 9.020673132688106" fill="#ff820c" stroke="none" /><path d="M 86.40962598614128 83.9905735841838 l -11.493305548869644 -13.539085037062716 a38.75958603347762,38.75958603347762 0 0,0 0.5109356291107721,-0.4262406738595641 l 11.259195585596963 13.73438789483416" fill="#ffd013" stroke="none" /><path d="M 86.96720088162412 83.53348406188908 l -8.866278425422486 -11.20225315205673 a35.28640503415318,35.28640503415318 0 0,0 0.4781980934425159,-0.3718497298162113 l 8.672670387344725 11.352803933493748" fill="#ffa20e" stroke="none" /><path d="M 87.54013794807813 83.09580414077388 l -6.593357957855448 -8.945156360891183 a32.112524082367955,32.112524082367955 0 0,0 0.44654603985117686,-0.3232648962036189 l 6.438830907630304 9.057022028467882" fill="#ff760a" stroke="none" /><line stroke="#e1ed5e" stroke-width="0.3" x1="56.869717070023135" x2="54.33264160355391" y1="26.7553504044142" y2="22.446841604673864" /><path d="M 56.362301976729285 25.89364864446614 a86.0,86.0 0 0,1 42.16139366436587,-11.88097634709845" fill="none" id="id96" stroke="none" /><text fill="#e1ed5e" style="font-size:6.75px; font-family:Arial;" text-anchor="middle"><textPath startOffset="22.145653131862474" xlink:href="#id96">December</textPath></text></svg>