<?xml version="1.0" encoding="utf-8" ?>
<svg baseProfile="full" height="200mm" version="1.1" viewBox="0,0,200,200" width="200mm" xmlns="http://www.w3.org/2000/svg" xmlns:ev="http://www.w3.org/2001/xml-events" xmlns:xlink="http://www.w3.org/1999/xlink"><defs /><rect fill="#1a1a1a" height="200" width="200" x="0" y="0" /><text alignment-baseline="middle" fill="#e1ed5e" style="dominant-baseline: central; font-size:9.0px; font-family:Arial;" text-anchor="middle" x="100.0" y="100.0">2022</text><line stroke="#e1ed5e" stroke-width="0.3" x1="100.0" x2="100.0" y1="15.0" y2="10.0" /><path d="M 100.0 14.0 a86.0,86.0 0 0,1 42.46469731375804,11.215312516191453" fill="none" id="id61" stroke="none" /><text fill="#e1ed5e" style="font-size:6.75px; font-family:Arial;" text-anchor="middle"><textPath startOffset="22.20632615414155" xlink:href="#id61">January</textPath></text><path d="M 100.0 79.0 l 0.0 -19.897784885820542 a40.89778488582054,40.89778488582054 0 0,0 0.7039881372243417,0.006059448154076881 l -0.34250765795181337 19.894836814275024" fill="#ffba11" stroke="none" /><path d="M 108.09893153111575 80.62456947434976 l 6.173081680685907 -14.768135126685838 a37.00639723849412,37.00639723849412 0 0,0 0.58561080323882,0.2507279841661627 l -6.426376241715042 14.659687614556885" fill="#ff800b" stroke="none" /><path d="M 110.36928655335952 81.73862282372117 l 7.378919646032605 -12.995034336860735 a35.94387408133498,35.94387408133498 0 0,0 0.5353981552617323,0.3101371690873072 l -7.601514533759666 12.866093010383379" fill="#ff700a" stroke="none" /><line stroke="#e1ed5e" stroke-width="0.3" x1="143.23703022742887" x2="145.7803849466894" y1="26.81831364943548" y2="22.513508569990506" /><path d="M 143.74570117128098 25.957352633546492 a86.0,86.0 0 0,1 28.547481713284135,27.462654790039103" fill="none" id="id62" stroke="none" /><text fill="#e1ed5e" style="font-size:6.75px; font-family:Arial;" text-anchor="middle"><textPath startOffset="19.985693538727396" xlink:href="#id62">February</textPath></text><path d="M 113.89432698308785 84.25364557470407 l 8.499170313667447 -9.632056899399311 a33.84571586693369,33.84571586693369 0 0,0 0.43352979453110585,0.38922733003700966 l -8.663711095794543 9.484330560593005" fill="#ff5007" stroke="none" /><path d="M 114.42810811169701 84.74124197986012 l 10.712828149195836 -11.329583281081737 a36.59243868922272,36.59243868922272 0 0,0 0.4539496874108455,0.43669923962536744 l -10.9062610802191 11.143500954694067" fill="#ff7a0b" stroke="none" /><path d="M 115.4437574822437 85.77008943001954 l 11.589065381285305 -10.678189174813944 a36.758494866732015,36.758494866732015 0 0,0 0.4247467876569206,0.46901601160511586 l -11.771155809558262 10.477120375939279" fill="#ff7c0b" stroke="none" /><path d="M 116.15771136456269 86.58626213691792 l 12.88777864165185 -10.699119475280009 a37.750104353780415,37.750104353780415 0 0,0 0.41075979852913086,0.5035429442114309 l -13.070036932257391 10.475692361460478" fill="#ff8b0c" stroke="none" /><path d="M 116.38621287248628 86.86637796730983 l 14.724743401992466 -11.801946909577433 a39.87071856371678,39.87071856371678 0 0,0 0.424615405264845,0.5392184443168264 l -14.925712887851274 11.546736071307569" fill="#ffab0f" stroke="none" /><path d="M 117.2510076193507 88.02491185347247 l 21.774343389833536 -15.11504065035187 a47.50634799288987,47.50634799288987 0 0,0 0.4605300084180786,0.6757709609352391 l -22.031297863920347 14.737991666146225" fill="#e8ff1a" stroke="none" /><line stroke="#e1ed5e" stroke-width="0.3" x1="172.23445277983987" x2="176.4835382374775" y1="55.19839476539836" y2="52.563006222186495" /><path d="M 173.08426987136738 54.67131705675599 a86.0,86.0 0 0,1 12.851231095245387,41.99856678651699" fill="none" id="id63" stroke="none" /><text fill="#e1ed5e" style="font-size:6.75px; font-family:Arial;" text-anchor="middle"><textPath startOffset="22.20632615414155" xlink:href="#id63">March</textPath></text><path d="M 118.03404312379186 89.2402003453031 l 15.769817783298807 -9.408876244479911 a39.363390348799584,39.363390348799584 0 0,0 0.34216219467721204,0.5848661042083548 l -15.929439652446346 9.13603072791766" fill="#ffa30f" stroke="none" /><line stroke="#e1ed5e" stroke-width="0.3" x1="184.98032266829074" x2="189.97916517819016" y1="98.17113171792111" y2="98.06355123074" /><path d="M 185.9800911702706 98.14961562048488 a86.0,86.0 0 0,1 -9.607161424134198,41.387399972396054" fill="none" id="id64" stroke="none" /><text fill="#e1ed5e" style="font-size:6.75px; font-family:Arial;" text-anchor="middle"><textPath startOffset="21.466115282336823" xlink:href="#id64">April</textPath></text><line stroke="#e1ed5e" stroke-width="0.3" x1="174.80103733775053" x2="179.2010983576182" y1="140.37084112569926" y2="142.7455964860345" /><path d="M 175.68104954172406 140.8457921977663 a86.0,86.0 0 0,1 -30.038265399797805,32.042727171017184" fill="none" id="id65" stroke="none" /><text fill="#e1ed5e" style="font-size:6.75px; font-family:Arial;" text-anchor="middle"><textPath startOffset="22.206326154141568" xlink:href="#id65">May</textPath></text><line stroke="#e1ed5e" stroke-width="0.3" x1="143.8653032363475" x2="146.44561519142675" y1="172.8068346515853" y2="177.08958963109032" /><path d="M 144.38136562736335 173.6633856474863 a86.0,86.0 0 0,1 -40.68145358897372,12.25698825130547" fill="none" id="id66" stroke="none" /><text fill="#e1ed5e" style="font-size:6.75px; font-family:Arial;" text-anchor="middle"><textPath startOffset="21.466115282336833" xlink:href="#id66">June</textPath></text><path d="M 102.70371172650421 120.8252237178851 l 3.8058809524303427 29.31463495203216 a50.5606588592842,50.5606588592842 0 0,0 -0.8640397112881609,0.10462317609657604 l -3.3007138180908013 -29.37580365685409" fill="#c0ff1e" stroke="none" /><line stroke="#e1ed5e" stroke-width="0.3" x1="102.19456741930631" x2="102.32365962044197" y1="184.97166512339345" y2="189.96999836594603" /><path d="M 102.22038585953345 185.97133177190398 a86.0,86.0 0 0,1 -42.740103519485714,-10.115201625700543" fill="none" id="id67" stroke="none" /><text fill="#e1ed5e" style="font-size:6.75px; font-family:Arial;" text-anchor="middle"><textPath startOffset="22.20632615414155" xlink:href="#id67">July</textPath></text><line stroke="#e1ed5e" stroke-width="0.3" x1="58.666819895761336" x2="56.23545636021788" y1="174.27360380694188" y2="178.64263932499728" /><path d="M 58.180547188652646 175.14741091055294 a86.0,86.0 0 0,1 -31.652253787137756,-30.449443065178592" fill="none" id="id68" stroke="none" /><text fill="#e1ed5e" style="font-size:6.75px; font-family:Arial;" text-anchor="middle"><textPath startOffset="22.20632615414155" xlink:href="#id68">August</textPath></text><line stroke="#e1ed5e" stroke-width="0.3" x1="26.63291911575756" x2="22.317208475507996" y1="142.92168965132927" y2="145.44649492493687" /><path d="M 25.769776987707644 143.4266507060508 a86.0,86.0 0 0,1 -11.730757126820373,-40.83630448921669" fill="none" id="id69" stroke="none" /><text fill="#e1ed5e" style="font-size:6.75px; font-family:Arial;" text-anchor="middle"><textPath startOffset="21.46611528233685" xlink:href="#id69">September</textPath></text><line stroke="#e1ed5e" stroke-width="0.3" x1="15.007084014347285" x2="10.007500721073583" y1="101.09737516637583" y2="101.16192664675087" /><path d="M 14.007167355692545 101.11028546245083 a86.0,86.0 0 0,1 10.666146001902534,-42.60595125391555" fill="none" id="id70" stroke="none" /><text fill="#e1ed5e" style="font-size:6.75px; font-family:Arial;" text-anchor="middle"><textPath startOffset="22.20632615414155" xlink:href="#id70">October</textPath></text><path d="M 79.26566170972629 96.67025291283419 l -36.22103170627362 -5.816769897821173 a57.68511891640911,57.68511891640911 0 0,0 0.16588080711173883,-0.9790379135476035 l 36.11553903764166 6.439393599684604" fill="#69ff28" stroke="none" /><path d="M 79.3925641242962 95.95851677861259 l -20.69896348266897 -4.0594334064601485 a42.09327117443731,42.09327117443731 0 0,0 0.1455639519013667,-0.7098215254563609 l 20.626020234852607 4.415130588079911" fill="#ffcb12" stroke="none" /><path d="M 79.54389044137918 95.25157060432595 l -39.68447070120697 -9.211864391387303 a61.739608004990224,61.739608004990224 0 0,0 0.24921398493228597,-1.0331528592625376 l 39.52002391601387 9.893602482309237" fill="#3bff2e" stroke="none" /><path d="M 79.71946130924805 94.55025226153421 l -30.54679036162684 -8.20847533830927 a52.6304516056412,52.6304516056412 0 0,0 0.24263447554728515,-0.872885304295295 l 30.400969115513192 8.733071946023507" fill="#a6ff21" stroke="none" /><path d="M 79.81627453868168 94.20196356495316 l -34.7917153415286 -9.994370641562691 a57.198769328899665,57.198769328899665 0 0,0 0.27998553235612633,-0.9439720268409524 l 34.61452391206077 10.591772055150182" fill="#6eff28" stroke="none" /><path d="M 80.02781315780177 93.51064311812611 l -18.482447939867175 -6.0053113702621435 a40.43359582022072,40.43359582022072 0 0,0 0.2207726437754695,-0.6600821044161539 l 18.376338002319933 6.322566577600619" fill="#ffb310" stroke="none" /><path d="M 80.2630227832202 92.82701384747504 l -46.25388015378176 -16.809992644747904 a70.21379158322273,70.21379158322273 0 0,0 0.4226048133343997,-1.1323707938419765 l 45.95767075194573 17.60368657561922" fill="#3aff90" stroke="none" /><path d="M 80.52162464483688 92.15188598940014 l -7.313948743813648 -2.9468938021013082 a28.885304642687963,28.885304642687963 0 0,0 0.18978788611315753,-0.4595864200630989 l 7.26213917081429 3.0723547926177184" fill="#ff0000" stroke="none" /><path d="M 80.65960295795068 91.81776055985345 l -19.14247311316115 -8.098504810832747 a41.78509218308109,41.78509218308109 0 0,0 0.2859479017518444,-0.6600071819359905 l 19.000234501566624 8.426811137355337" fill="#ffc612" stroke="none" /><path d="M 80.95270993114464 91.15688171328213 l -16.20882693201444 -7.525300099414919 a38.87054034152999,38.87054034152999 0 0,0 0.28697898956656526,-0.604450940794156 l 16.07688974860612 7.803193455849607" fill="#ff9c0e" stroke="none" /><path d="M 81.43458229118936 90.18545643968196 l -47.114176180335704 -24.906745524554463 a74.29250950909167,74.29250950909167 0 0,0 0.6074010557831289,-1.125421908133103 l 46.67846702533411 25.71404841602004" fill="#3fffc2" stroke="none" /><path d="M 81.6062741919709 89.86733742301443 l -19.01916614396954 -10.477202663766386 a42.714061261531675,42.714061261531675 0 0,0 0.3603080743736827,-0.6409478600554499 l 18.836000428303425 10.803034033756619" fill="#ffd413" stroke="none" /><line stroke="#e1ed5e" stroke-width="0.3" x1="26.266209847984243" x2="21.928928074336255" y1="57.711370442889674" y2="55.22380399835377" /><path d="M 25.398753493254645 57.213857153982495 a86.0,86.0 0 0,1 29.58750427330803,-30.492523968695096" fill="none" id="id71" stroke="none" /><text fill="#e1ed5e" style="font-size:6.75px; font-family:Arial;" text-anchor="middle"><textPath startOffset="21.46611528233685" xlink:href="#id71">November</textPath></text><path d="M 81.78341655067845 89.55222093294921 l -19.362718452499745 -11.105123257169236 a43.321259561854816,43.321259561854816 0 0,0 0.37656556298935834,-0.643672612669501 l 19.16869321504006 11.43677528219263" fill="#ffdc14" stroke="none" /><path d="M 81.96595687620814 89.24020034530311 l -17.75255855400625 -10.59185519787201 a41.672221258154835,41.672221258154835 0 0,0 0.37283581070136007,-0.612844042217307 l 17.56760694501867 10.89586701329639" fill="#ffc512" stroke="none" /><path d="M 82.54541684631803 88.32363383020206 l -49.24992655097493 -32.94608477221242 a80.25368990277511,80.25368990277511 0 0,0 0.7779851335244123,-1.141597185123812 l 48.67551695178178 33.78895998060665" fill="#48f9ff" stroke="none" /><path d="M 82.95767976084542 87.72973835380427 l -18.676637962084712 -13.446950371202483 a44.013849739936305,44.013849739936305 0 0,0 0.44797167888721345,-0.6110328665614659 l 18.442403670683863 13.76644568143545" fill="#ffe615" stroke="none" /><path d="M 83.17141714833178 87.43820079747576 l -19.767904078301065 -14.755873615451934 a45.66791109526914,45.66791109526914 0 0,0 0.47565099601151095,-0.6259009555681067 l 19.510977142065446 15.093959346901066" fill="#fffd17" stroke="none" /><path d="M 83.6137871275137 86.86637796730984 l -13.025539461356072 -10.440027441885919 a37.693077944066374,37.693077944066374 0 0,0 0.41013929278577316,-0.5027822775394969 l 12.843901676493905 10.662693889033498" fill="#ff8a0c" stroke="none" /><path d="M 84.07557802195018 86.31012108654704 l -47.77326593414944 -41.06963674035889 a84.0,84.0 0 0,0 0.9520325456886258,-1.0883377751882275 l 47.05924152488297 41.885890071750055" fill="#4dd2ff" stroke="none" /><path d="M 84.5562425177563 85.77008943001954 l -11.546692596155081 -10.639146801628696 a36.70087750976705,36.70087750976705 0 0,0 0.432078868227332,-0.46091161079705323 l 11.361846405957293 10.8363278293038" fill="#ff7c0b" stroke="none" /><path d="M 84.80347519578584 85.50635884689758 l -20.596634058358493 -19.6439795841239 a49.46238339344423,49.46238339344423 0 0,0 0.5929261667879682,-0.6110625345564956 l 20.255443627867407 19.99560631423052" fill="#ceff1d" stroke="none" /><path d="M 85.31137513191541 84.99185889309783 l -15.899650895821866 -16.245510137130694 a43.73137695399522,43.73137695399522 0 0,0 0.5425122131627178,-0.5218963192306657 l 15.61765543904672 16.51678954312367" fill="#ffe215" stroke="none" /><path d="M 85.83668400450813 84.49514656593479 l -16.893190415217944 -18.49329927434223 a46.047594703987016,46.047594703987016 0 0,0 0.5898236677622117,-0.5295495126096844 l 16.57235575985976 18.781347795721196" fill="#fcff18" stroke="none" /><path d="M 86.65592168130627 83.78471172551755 l -15.026850226341976 -18.26013775235843 a44.6482316138019,44.6482316138019 0 0,0 0.5976412460354639,-0.483250991131233 l 14.710305581742011 18.516094840753798" fill="#ffef16" stroke="none" /><path d="M 86.93701828274178 83.55741782278169 l -15.061360540961447 -18.9579732832582 a45.21258623843315,45.21258623843315 0 0,0 0.6135292940476385,-0.4788693456445856 l 14.732798691754383 19.21442101812601" fill="#fff717" stroke="none" /><path d="M 87.22198572758235 83.33499621200491 l -14.830424046438898 -19.34174337596166 a45.37302841705868,45.37302841705868 0 0,0 0.623887451002646,-0.46989909355189086 l 14.495290441677861 19.594159059019404" fill="#fff917" stroke="none" /><path d="M 87.80319425747018 82.90503203632743 l -10.3073096400544 -14.446661839826586 a38.74673689246167,38.74673689246167 0 0,0 0.5462715350763274,-0.38269812023495636 l 10.057106965394413 14.621944802825485" fill="#ff9a0e" stroke="none" /><path d="M 88.39885842347998 82.49532879139004 l -11.724325865433391 -17.69054088887135 a42.222984096014855,42.222984096014855 0 0,0 0.6092836405180059,-0.39629502811997 l 11.418075199131097 17.889734841150855" fill="#ffcd13" stroke="none" /><path d="M 88.70189139769569 82.29822771554957 l -16.591952619963376 -25.996118232841127 a51.83976418390654,51.83976418390654 0 0,0 0.7563195662613506,-0.47360724300796947 l 16.142013901329783 26.277869817172025" fill="#b0ff20" stroke="none" /><path d="M 89.00827224532344 82.1063720568725 l -13.112003205611952 -21.345261835701216 a46.050844913867095,46.050844913867095 0 0,0 0.6790042127648231,-0.40909244076081935 l 12.74263692662948 21.567800885920654" fill="#fcff18" stroke="none" /><line stroke="#e1ed5e" stroke-width="0.3" x1="56.762969772571076" x2="54.21961505331055" y1="26.818313649435495" y2="22.513508569990535" /><path d="M 56.25429882871897 25.957352633546506 a86.0,86.0 0 0,1 42.265352541879196,-11.944610805530505" fill="none" id="id72" stroke="none" /><text fill="#e1ed5e" style="font-size:6.75px; font-family:Arial;" text-anchor="middle"><textPath startOffset="22.20632615414155" xlink:href="#id72">December</textPath></text><path d="M 89.3179101791058 81.91981866633112 l -8.93812218855097 -15.128394598910326 a38.57152103256307,38.57152103256307 0 0,0 0.5745379910842074,-0.33280948829727536 l 8.676387465001444 15.28000824459765" fill="#ff980e" stroke="none" /><path d="M 89.94658935756843 81.56283822128135 l -21.617447408306504 -39.64469266058848 a66.15546133751062,66.15546133751062 0 0,0 1.0044760260319259,-0.5365563058985279 l 20.93182633574627 40.010927692988766" fill="#34ff5d" stroke="none" /><path d="M 90.58718382345135 81.22770947309562 l -8.643693248133781 -17.238403240432255 a40.28408616573725,40.28408616573725 0 0,0 0.6225401639528351,-0.30547775478940725 l 8.34568181717052 17.384636155356493" fill="#ffb110" stroke="none" /><path d="M 91.23893434514133 80.91482961587045 l -8.6298655974713 -18.799363206294174 a41.6855175713006,41.6855175713006 0 0,0 0.6546966236182102,-0.2937432910689757 l 8.304986855386316 18.94512682787968" fill="#ffc512" stroke="none" /><path d="M 91.56875222667455 80.76684994638697 l -8.295259268222827 -18.922936501061518 a41.66128873401277,41.66128873401277 0 0,0 0.6592725198904805,-0.28226608698828554 l 7.968302990542037 19.06292211601259" fill="#ffc512" stroke="none" /><path d="M 92.23578459929587 80.48803036053334 l -19.96507849730302 -50.173518557150814 a74.99987336844623,74.99987336844623 0 0,0 1.2036295213361339,-0.4669895547718603 l 19.09846581096721 50.50975081581323" fill="#40ffca" stroke="none" /><path d="M 92.91201910852362 80.23233633223022 l -5.042802690838488 -14.063867984646336 a35.9406238714549,35.9406238714549 0 0,0 0.5841515101200112,-0.20379899176530283 l 4.799969176655192 14.14858782958385" fill="#ff700a" stroke="none" /></svg>