<?xml version="1.0" encoding="utf-8" ?>
<svg baseProfile="full" height="200mm" version="1.1" viewBox="0,0,200,200" width="200mm" xmlns="http://www.w3.org/2000/svg" xmlns:ev="http://www.w3.org/2001/xml-events" xmlns:xlink="http://www.w3.org/1999/xlink"><defs /><rect fill="#1a1a1a" height="200" width="200" x="0" y="0" /><text alignment-baseline="middle" fill="#e1ed5e" style="dominant-baseline: central; font-size:9.0px; font-family:Arial;" text-anchor="middle" x="100.0" y="100.0">2020</text><line stroke="#e1ed5e" stroke-width="0.3" x1="100.0" x2="100.0" y1="15.0" y2="10.0" /><path d="M 100.0 14.0 a86.0,86.0 0 0,1 42.35913384403234,11.155469271406648" fill="none" id="id13" stroke="none" /><text fill="#e1ed5e" style="font-size:6.75px; font-family:Arial;" text-anchor="middle"><textPath startOffset="22.145653131862478" xlink:href="#id13">January</textPath></text><path d="M 100.0 79.0 l 0.0 -29.425839212562707 a50.42583921256271,50.42583921256271 0 0,0 0.8656265840807049,0.007430363133915198 l -0.50513365923185 29.421503247623228" fill="#9fff22" stroke="none" /><path d="M 101.08105385017728 79.02784411241856 l 0.8582786248804389 -16.65037603170265 a37.67248224455569,37.67248224455569 0 0,0 0.6455550240425189,0.03883498719185943 l -1.1439780010554201 16.633189066686096" fill="#ffc112" stroke="none" /><path d="M 101.44090949804482 79.04949213459386 l 1.3785674725702053 -20.04406849719917 a41.09141931763012,41.09141931763012 0 0,0 0.7033109595927706,0.05444071632185994 l -1.7224474269382093 20.017450013882254" fill="#ffee16" stroke="none" /><path d="M 103.94208987418118 79.37332000966035 l 3.2475435705373337 -16.992520242342913 a38.30006599493112,38.30006599493112 0 0,0 0.644724187314497,0.12896289401685196 l -3.5387642433827877 16.9342679516632" fill="#ffca12" stroke="none" /><line stroke="#e1ed5e" stroke-width="0.3" x1="143.13028292997686" x2="145.6673583964461" y1="26.7553504044142" y2="22.446841604673864" /><path d="M 143.63769802327073 25.89364864446614 a86.0,86.0 0 0,1 29.32050498858742,28.57503671076993" fill="none" id="id14" stroke="none" /><text fill="#e1ed5e" style="font-size:6.75px; font-family:Arial;" text-anchor="middle"><textPath startOffset="20.669276256404974" xlink:href="#id14">February</textPath></text><path d="M 115.16444852881244 85.47280134310134 l 2.182792501762789 -2.0910658399247524 a24.022770162061956,24.022770162061956 0 0,0 0.2827184525261073,0.3002371992773206 l -2.2183667880251563 2.0532871807029367" fill="#ff0000" stroke="none" /><line stroke="#e1ed5e" stroke-width="0.3" x1="172.87174338648825" x2="177.1583165268699" y1="56.24261187166439" y2="53.66864786411523" /><path d="M 173.72905801456457 55.72781907015455 a86.0,86.0 0 0,1 12.242430191666344,42.057860355516425" fill="none" id="id15" stroke="none" /><text fill="#e1ed5e" style="font-size:6.75px; font-family:Arial;" text-anchor="middle"><textPath startOffset="22.145653131862474" xlink:href="#id15">March</textPath></text><line stroke="#e1ed5e" stroke-width="0.3" x1="184.99686870605535" x2="189.99668451229388" y1="99.2704041080226" y2="99.22748670261217" /><path d="M 185.99683186730306 99.26182062694052 a86.0,86.0 0 0,1 -10.086455211305974,41.156179273409016" fill="none" id="id16" stroke="none" /><text fill="#e1ed5e" style="font-size:6.75px; font-family:Arial;" text-anchor="middle"><textPath startOffset="21.40746469413373" xlink:href="#id16">April</textPath></text><path d="M 120.82617615685814 102.69636545807757 l 15.010679365867341 1.9434329681819262 a36.1359646777697,36.1359646777697 0 0,0 -0.08492895268643672,0.614503594328586 l -14.975105896625696 -2.2008248707105973" fill="#ffad10" stroke="none" /><path d="M 120.51834098615036 104.47187691870673 l 14.790236217472616 3.2234631448897275 a36.13743049579753,36.13743049579753 0 0,0 -0.13730354498949912,0.6049847534279781 l -14.732721810925455 -3.4768822322567225" fill="#ffad10" stroke="none" /><path d="M 120.43855184770803 104.8234425847677 l 15.8265717732875 3.7350278449751357 a37.261328577264536,37.261328577264536 0 0,0 -0.15226127478590953,0.6212779604139497 l -15.760122971985293 -4.006161629997185" fill="#ffbc11" stroke="none" /><path d="M 119.94978838288452 106.5578916946017 l 15.360786163174865 5.049395515817091 a37.16942010790548,37.16942010790548 0 0,0 -0.20445761400782675,0.6044426060769615 l -15.271843127594673 -5.312339796368213" fill="#ffbb11" stroke="none" /><path d="M 119.58574465831526 107.57618678355244 l 14.547177300729233 5.627160688883363 a36.597605740541276,36.597605740541276 0 0,0 -0.23168258096261563,0.5839914502892575 l -14.448436044800493 -5.876053156386185" fill="#ffb310" stroke="none" /><path d="M 119.4528033332814 107.91128576633889 l 15.118360011945033 6.148505401699964 a37.32081272870663,37.32081272870663 0 0,0 -0.2464491517316844,0.5913882474925581 l -15.010585015676863 -6.4071261586338" fill="#ffbd11" stroke="none" /><path d="M 119.16976305983485 108.57439118712176 l 14.416472940539077 6.448304976170247 a36.79288856134296,36.79288856134296 0 0,0 -0.26283356509800715,0.5743387736454937 l -14.303654910586014 -6.69483273203043" fill="#ffb610" stroke="none" /><path d="M 118.70294669586154 109.54985784667822 l 14.638624579769488 7.4745860147599945 a37.436507100946876,37.436507100946876 0 0,0 -0.2971601742614219,0.5698438161839345 l -14.508156336533116 -7.724776074048432" fill="#ffbe11" stroke="none" /><line stroke="#e1ed5e" stroke-width="0.3" x1="174.33088141563837" x2="178.70328620479359" y1="141.23008692659167" y2="143.65538615756765" /><path d="M 175.20536237346943 141.71514677278685 a86.0,86.0 0 0,1 -30.301960400862466,31.631185727798858" fill="none" id="id17" stroke="none" /><text fill="#e1ed5e" style="font-size:6.75px; font-family:Arial;" text-anchor="middle"><textPath startOffset="22.145653131862474" xlink:href="#id17">May</textPath></text><path d="M 116.57777611688842 112.89097897827486 l 10.607628342967795 8.248555959158196 a34.437278536738674,34.437278536738674 0 0,0 -0.36689405933406105,0.46355865848528455 l -10.464467852992172 -8.429434561558164" fill="#ff960d" stroke="none" /><path d="M 115.89218393027572 113.72728997021213 l 11.94158898477227 10.314860148753386 a36.77966689666088,36.77966689666088 0 0,0 -0.4168168472711407,0.4742610581812468 l -11.762761073542544 -10.518333484745925" fill="#ffb510" stroke="none" /><path d="M 115.6541949942343 113.99807769240083 l 11.873007024848715 10.616916094214172 a36.927561117876486,36.927561117876486 0 0,0 -0.4266052966428018,0.4689139512588189 l -11.689004027364033 -10.819167621030664" fill="#ffb711" stroke="none" /><path d="M 115.16444852881244 114.52719865689866 l 12.173299162534141 11.6617452265401 a37.857802769912965,37.857802769912965 0 0,0 -0.4535963264923636,0.46542979063650886 l -11.97131603489097 -11.868997709244347" fill="#ffc412" stroke="none" /><path d="M 112.7482090630111 116.68781488649013 l 9.685725602704148 12.678925729908547 a36.95520097383344,36.95520097383344 0 0,0 -0.5074248450003243,0.38078106354151925 l -9.466647768793056 -12.843325820714082" fill="#ffb811" stroke="none" /><path d="M 112.16784306229584 117.11559508785304 l 13.745177218556648 19.334313113602008 a44.72225875300097,44.72225875300097 0 0,0 -0.6295294867230684,0.4394604734565004 l -13.411252640659821 -19.567418402863627" fill="#e3ff1b" stroke="none" /><path d="M 111.8722381534696 117.32195027204791 l 9.836623596356535 14.351927798141885 a38.39933893282949,38.39933893282949 0 0,0 -0.5469230861633597,0.36799426077252434 l -9.588804222096172 -14.518671732971532" fill="#ffcb12" stroke="none" /><path d="M 111.5731344415666 117.5232005979908 l 9.650007817722306 14.611341777451711 a38.51039575279803,38.51039575279803 0 0,0 -0.5547594296519065,0.35958835988708654 l -9.39776275581339 -14.774843979042693" fill="#ffcc13" stroke="none" /><line stroke="#e1ed5e" stroke-width="0.3" x1="143.1302829299769" x2="145.66735839644613" y1="173.24464959558577" y2="177.55315839532614" /><path d="M 143.63769802327073 174.10635135553383 a86.0,86.0 0 0,1 -40.68552437913181,11.842963189579606" fill="none" id="id18" stroke="none" /><text fill="#e1ed5e" style="font-size:6.75px; font-family:Arial;" text-anchor="middle"><textPath startOffset="21.407464694133747" xlink:href="#id18">June</textPath></text><path d="M 110.65571695917076 118.09573695890943 l 7.9014318389192875 13.418358680480795 a36.57192906428493,36.57192906428493 0 0,0 -0.5437157961307124,0.31391446125871975 l -7.669923574928176 -13.552020039015687" fill="#ffb310" stroke="none" /><path d="M 110.34350942703117 118.27599006163325 l 7.811002013517483 13.801292122128098 a36.858354791575614,36.858354791575614 0 0,0 -0.553324312526137,0.30691966877779264 l -7.5729335128352515 -13.933344706339033" fill="#ffb710" stroke="none" /><path d="M 109.71004243097381 118.62028667847754 l 6.883423899498032 13.199872940749136 a35.88684554336821,35.88684554336821 0 0,0 -0.548680438216418,0.2801601412562063 l -6.655816239568032 -13.316091033678179" fill="#ffaa0f" stroke="none" /><path d="M 109.06512990194946 118.94263497670748 l 12.949088861243226 27.05861540127842 a50.99745938859948,50.99745938859948 0 0,0 -0.7929164787741546,0.3711249487664022 l -12.482683668597565 -27.276916581615357" fill="#99ff23" stroke="none" /><path d="M 108.4095320186766 119.2426549942271 l 6.143375716998507 14.057245891872856 a36.3410308410088,36.3410308410088 0 0,0 -0.5737814837632441,0.2449131962624847 l -5.901159158064831 -14.160633737794745" fill="#ffb010" stroke="none" /><path d="M 107.74402155503746 119.51999308798841 l 5.80854191659259 14.641320050229345 a36.75142571356831,36.75142571356831 0 0,0 -0.5884213675147715,0.22761402568538983 l -5.556348286584289 -14.738873964052775" fill="#ffb510" stroke="none" /><path d="M 106.72888874123015 119.89276391827305 l 4.984313204381745 14.735236334338714 a36.55540317536611,36.55540317536611 0 0,0 -0.5961616382706052,0.1959701717743056 l -4.730628828463406 -14.81862742751504" fill="#ffb210" stroke="none" /><path d="M 106.38641147887787 120.00534299687104 l 9.021866627940586 28.260868714912153 a50.66598688690212,50.66598688690212 0 0,0 -0.8308241513956283,0.25739144586850143 l -8.535401843673332 -28.411576748587297" fill="#9dff22" stroke="none" /><path d="M 104.9986988182912 120.39639698878246 l 3.740104915146985 15.26090436773149 a36.712529614844094,36.712529614844094 0 0,0 -0.6133926760343453,0.14475900136244074 l -3.4775800853727605 -15.322859512740155" fill="#ffb510" stroke="none" /><path d="M 104.64783097203109 120.47920084513623 l 3.449611561656528 15.19962503670748 a36.58616120739226,36.58616120739226 0 0,0 -0.6136676670892651,0.13374601182743842 l -3.188181477948127 -15.256602506668639" fill="#ffb310" stroke="none" /><path d="M 103.2317021107853 120.74984581791261 l 2.4146643316057976 15.503877172224284 a36.690787462895116,36.690787462895116 0 0,0 -0.6231753687380464,0.09158531898208491 l -2.148163857260066 -15.543043564505252" fill="#ffb410" stroke="none" /><path d="M 102.875027216393 120.80226474461374 l 2.14233385526033 15.500860574247412 a36.64820350358636,36.64820350358636 0 0,0 -0.6239307400186815,0.08078032582400549 l -1.8759252933508732 -15.535352496271813" fill="#ffb410" stroke="none" /><path d="M 100.72087961077811 120.9876233191556 l 0.5366678704319768 15.624499491617115 a36.63371346695012,36.63371346695012 0 0,0 -0.6286810756969579,0.016192594424651915 l -0.2683734806642752 -15.631409803391813" fill="#ffb410" stroke="none" /><line stroke="#e1ed5e" stroke-width="0.3" x1="101.45913802915013" x2="101.54496967792366" y1="184.9874750549273" y2="189.98673829345242" /><path d="M 101.47630435890484 185.9873277026323 a86.0,86.0 0 0,1 -42.54439059252881,-10.42667462771756" fill="none" id="id19" stroke="none" /><text fill="#e1ed5e" style="font-size:6.75px; font-family:Arial;" text-anchor="middle"><textPath startOffset="22.145653131862474" xlink:href="#id19">July</textPath></text><path d="M 100.0 121.0 l 2.1785512558060684e-15 17.789221000886627 a38.78922100088663,38.78922100088663 0 0,0 -0.6658685586294353,-0.005715680734699062 l 0.30537563378058097 -17.786599718346363" fill="#ffd013" stroke="none" /><path d="M 98.55909050195518 120.95050786540614 l -1.231298652309473 17.902812171671293 a38.94510462564431,38.94510462564431 0 0,0 -0.6665751478180446,-0.051597132156985234 l 1.5384427949027537 -17.879037272519252" fill="#ffd213" stroke="none" /><path d="M 97.84075906011543 120.88869738790638 l -1.86894321502561 18.080330236762656 a39.17666884254054,39.17666884254054 0 0,0 -0.6683616162455641,-0.07489131316924003 l 2.1790407328719734 -18.045583163086445" fill="#ffd513" stroke="none" /><path d="M 97.12497278360702 120.80226474461374 l -2.3924585817453057 17.31063849559965 a38.47518421049413,38.47518421049413 0 0,0 -0.6534824888096601,-0.09603942194961373 l 2.6892661761626506 -17.267018000351154" fill="#ffcc13" stroke="none" /><path d="M 96.05791012581884 120.62667999033965 l -3.4950480724355124 18.28756838172168 a39.6185530679691,39.6185530679691 0 0,0 -0.66691894036692,-0.13340246622764457 l 3.8084634983333907 -18.224876518831174" fill="#ffdb14" stroke="none" /><path d="M 95.35216902796893 120.47920084513623 l -4.035761982400276 17.78231194251524 a39.23452749043713,39.23452749043713 0 0,0 -0.6555301980763256,-0.1547033418298236 l 4.340424334216489 -17.710412457039187" fill="#ffd614" stroke="none" /><path d="M 93.95794788825049 120.11202640906438 l -5.208148431078768 17.33623226858491 a39.1016507355123,39.1016507355123 0 0,0 -0.6411914143312113,-0.19864273918367165 l 5.504980478281612 -17.24427294159459" fill="#ffd413" stroke="none" /><path d="M 91.59046798132341 119.24265499422711 l -7.326719047483133 16.76496701091544 a39.29603593344294,39.29603593344294 0 0,0 -0.6157999403142582,-0.27543948064354085 l 7.613432390653027 -16.636723779362043" fill="#ffd714" stroke="none" /><path d="M 91.26138138417905 119.09545874513695 l -8.042589006437096 17.574508435288173 a40.32735327634071,40.32735327634071 0 0,0 -0.6270159992579424,-0.2934751475465266 l 8.343093719566529 -17.433857056171117" fill="#ffe415" stroke="none" /><path d="M 90.6110303473126 118.78422872680471 l -7.985266998615537 15.975883115530793 a38.8603843844493,38.8603843844493 0 0,0 -0.5941434085520598,-0.3033738578460736 l 8.25833762888118 -15.836451306011883" fill="#ffd113" stroke="none" /><path d="M 89.97174638481275 118.45085714620012 l -8.687779542930805 15.984535833989565 a39.192935420504945,39.192935420504945 0 0,0 -0.5883714606922251,-0.3263597310762187 l 8.960895191779132 -15.833043187480197" fill="#ffd513" stroke="none" /><line stroke="#e1ed5e" stroke-width="0.3" x1="58.13341422392154" x2="55.67067388415222" y1="173.97424548756322" y2="178.32567169271397" /><path d="M 57.64086615596768 174.84453072859336 a86.0,86.0 0 0,1 -31.369924170532247,-30.572349798747897" fill="none" id="id20" stroke="none" /><text fill="#e1ed5e" style="font-size:6.75px; font-family:Arial;" text-anchor="middle"><textPath startOffset="22.145653131862474" xlink:href="#id20">August</textPath></text><path d="M 89.34428304082925 118.09573695890944 l -15.088001125523537 25.62272446324917 a50.7350262633714,50.7350262633714 0 0,0 -0.7466921292003206,-0.4483671693773426 l 15.525626011281284 -25.35994329333591" fill="#9cff22" stroke="none" /><path d="M 88.1277618465304 117.32195027204791 l -8.755823786856121 12.77500857598716 a36.48758516693358,36.48758516693358 0 0,0 -0.51361472793147,-0.3585429694261248 l 8.973833605961357 -12.622820790755906" fill="#ffb210" stroke="none" /><path d="M 87.54013794807813 116.9041958592261 l -10.7820261132746 14.627889170728928 a39.17215531241311,39.17215531241311 0 0,0 -0.537865423917027,-0.4036242414602398 l 11.031544526102394 -14.440645902004674" fill="#ffd513" stroke="none" /><path d="M 86.96720088162412 116.46651593811092 l -9.745327582509463 12.312903045765788 a36.70283385586335,36.70283385586335 0 0,0 -0.49068058718154517,-0.3952575475771653 l 9.95525894004627 -12.143797204395211" fill="#ffb410" stroke="none" /><path d="M 86.68645165197938 116.24036423190432 l -9.958000285987811 12.147141200707276 a36.7071578920457,36.7071578920457 0 0,0 -0.4838801630709565,-0.403670041828152 l 10.16505478322066 -11.974408974967254" fill="#ffb510" stroke="none" /><path d="M 85.34317274990678 115.03919595460226 l -10.640000221891002 10.917577560519636 a36.24477302263968,36.24477302263968 0 0,0 -0.44185498794530087,-0.4380784722795697 l 10.825847129966265 -10.733319078011407" fill="#ffae10" stroke="none" /><path d="M 84.3458050057657 113.99807769240083 l -13.030890757087661 11.652302867447641 a38.48085455685394,38.48085455685394 0 0,0 -0.4360960778071341,-0.49619728349167286 l 13.22899789885339 -11.426893306144668" fill="#ffcc13" stroke="none" /><path d="M 83.20337586046588 112.60449989151573 l -14.475227508819927 10.862480582342 a39.09767100579116,39.09767100579116 0 0,0 -0.3982339460530743,-0.5402808308648406 l 14.659563474456831 -10.61239344220828" fill="#ffd413" stroke="none" /><path d="M 82.78059297857968 112.02048342749411 l -12.940171294885616 9.033244548178258 a36.781240135305396,36.781240135305396 0 0,0 -0.3569711539159678,-0.5208315817755791 l 13.093332185616909 -8.809778231332627" fill="#ffb510" stroke="none" /><path d="M 82.37810715431573 111.42229804090323 l -17.66245799845576 11.44859188283543 a42.04834147021896,42.04834147021896 0 0,0 -0.38741000814098975,-0.609072879889634 l 17.856385698222642 -11.143705328267124" fill="#fffa17" stroke="none" /><path d="M 81.99639281039703 110.81064883170644 l -15.271445055395942 9.170063971509373 a38.81311615977259,38.81311615977259 0 0,0 -0.33809234940045085,-0.5741547233295119 l 15.426611114926162 -8.906558079886302" fill="#ffd013" stroke="none" /><line stroke="#e1ed5e" stroke-width="0.3" x1="26.387840678322732" x2="22.057713659400548" y1="142.50000000000003" y2="145.00000000000006" /><path d="M 25.521815274538298 143.00000000000003 a86.0,86.0 0 0,1 -11.493303480769221,-40.785679425670985" fill="none" id="id21" stroke="none" /><text fill="#e1ed5e" style="font-size:6.75px; font-family:Arial;" text-anchor="middle"><textPath startOffset="21.40746469413373" xlink:href="#id21">September</textPath></text><path d="M 80.9802524753101 108.90220220490708 l -16.375541357188002 7.664580204719773 a39.08049071390367,39.08049071390367 0 0,0 -0.27917527277015575,-0.6100483541178173 l 16.504701094813214 -7.3823428683872665" fill="#ffd413" stroke="none" /><path d="M 80.68587082218212 108.24405325689762 l -16.5054340043144 7.04518830266777 a38.9461424793972,38.9461424793972 0 0,0 -0.257182067471053,-0.6171433380862534 l 16.623941916321936 -6.760812455140235" fill="#ffd213" stroke="none" /><path d="M 80.28708602549918 107.23885506374661 l -14.253414113240405 5.234051092739087 a36.184041119706045,36.184041119706045 0 0,0 -0.20910900368621388,-0.584915099857883 l 14.341163286970563 -4.988601036500282" fill="#ffae10" stroke="none" /><path d="M 80.16572619554312 106.89939002012753 l -16.76629231172226 5.832186798996598 a38.751703037751255,38.751703037751255 0 0,0 -0.21316126855993567,-0.630173414222219 l 16.863939001854565 -5.543511710300217" fill="#ffd013" stroke="none" /><path d="M 79.94057633289273 106.21446072829308 l -19.866551372853014 6.154708398509837 a41.798084020430714,41.798084020430714 0 0,0 -0.20645005197126456,-0.6872050787719141 l 19.969277744827906 -5.8127657161472" fill="#fff717" stroke="none" /><path d="M 79.73907114497094 105.5222062557868 l -17.285492791001694 4.711237925359682 a38.91602700983449,38.91602700983449 0 0,0 -0.17013812594237873,-0.6460421765706137 l 17.363820397748803 -4.4138152444162655" fill="#ffd213" stroke="none" /><path d="M 79.64726062577567 105.17358676015961 l -18.04570807099846 4.587148424455324 a39.6196001689532,39.6196001689532 0 0,0 -0.16189789947301658,-0.6605986776435674 l 18.12179349698777 -4.276693922203657" fill="#ffdb14" stroke="none" /><path d="M 79.48165901384964 104.47187691870673 l -17.179009392472555 3.7440851402312862 a38.58227906853833,38.58227906853833 0 0,0 -0.1354831228631968,-0.6483357883429756 l 17.240750226160117 -3.448632900602902" fill="#ffcd13" stroke="none" /><path d="M 79.17382384314188 102.69636545807758 l -18.157100972893474 2.350800238766574 a39.30864761533287,39.30864761533287 0 0,0 -0.08089703532803932,-0.6699435015770275 l 18.194780094481175 -2.0387630602661475" fill="#ffd714" stroke="none" /><path d="M 79.0935383218832 101.97986365728391 l -29.042235124385048 2.750329861377275 a50.17217399109035,50.17217399109035 0 0,0 -0.07384000664015401,-0.8581328050002801 l 29.085168753722943 -2.251376009001333" fill="#a2ff22" stroke="none" /><path d="M 79.03789590574601 101.26102812881392 l -16.13752753068176 0.9707935832298864 a37.16670142560788,37.16670142560788 0 0,0 -0.03284547160006747,-0.6371933743030528 l 16.151814591738397 -0.6936284155501028" fill="#ffbb11" stroke="none" /><path d="M 79.00696218219943 100.54070618675478 l -14.974311599667358 0.38568514926736447 a35.97927771684262,35.97927771684262 0 0,0 -0.010602867675298652,-0.6175638863924702 l 14.978725898941322 -0.12857434690584196" fill="#ffab0f" stroke="none" /><line stroke="#e1ed5e" stroke-width="0.3" x1="15.003131293944662" x2="10.003315487706104" y1="100.72959589197737" y2="100.7725132973878" /><path d="M 14.003168132696942 100.73817937305945 a86.0,86.0 0 0,1 10.791469493833604,-42.45332614584628" fill="none" id="id22" stroke="none" /><text fill="#e1ed5e" style="font-size:6.75px; font-family:Arial;" text-anchor="middle"><textPath startOffset="22.145653131862435" xlink:href="#id22">October</textPath></text><path d="M 79.22317932658666 96.9465228501225 l -15.099893747464506 -2.2191643874782536 a36.262092967983435,36.262092967983435 0 0,0 0.09579841951462585,-0.6150945744331505 l 15.059573835811612 2.478047143842854" fill="#ffaf10" stroke="none" /><path d="M 79.34024301695615 96.23510406497455 l -15.066012686466584 -2.7455293867625583 a36.3141330111224,36.3141330111224 0 0,0 0.11702438206768999,-0.6123210167751181 l 15.016662012116734 3.003752968570991" fill="#ffaf10" stroke="none" /><path d="M 80.28708602549916 92.7611449362534 l -14.993573513404156 -5.505847876755164 a36.97252664871228,36.97252664871228 0 0,0 0.22389385388425165,-0.5939050476179962 l 14.896848975705469 5.762421204567304" fill="#ffb811" stroke="none" /><path d="M 80.41425534168474 92.42381321644754 l -14.993836129573433 -5.799937919204798 a37.07651709006436,37.07651709006436 0 0,0 0.23471434807590613,-0.5916334839116085 l 14.892063106531396 6.05647242032999" fill="#ffb911" stroke="none" /><path d="M 80.83023694016515 91.42560881287825 l -14.276137378681938 -6.385534664347815 a36.6391544338109,36.6391544338109 0 0,0 0.261735350459368,-0.5719389764638756 l 14.164417563367524 6.629662623026362" fill="#ffb410" stroke="none" /><path d="M 80.9802524753101 91.09779779509293 l -19.219679562510375 -8.995780493767453 a42.22074808242221,42.22074808242221 0 0,0 0.3128773402892602,-0.6537933061839594 l 19.06242296426121 9.3243863020165" fill="#fffc17" stroke="none" /><path d="M 81.29705330413844 90.45014215332179 l -8.451195213979545 -4.315240493407936 a30.48915175665024,30.48915175665024 0 0,0 0.24201407531581579,-0.464093900170033 l 8.37587306968879 4.459680636682456" fill="#ff5f08" stroke="none" /><path d="M 81.46374523516351 90.13048839642627 l -13.98379238760763 -7.4455818061624965 a36.84244734793116,36.84244734793116 0 0,0 0.3020285067856163,-0.5556984343058579 l 13.853918531206665 7.684535073942975" fill="#ffb610" stroke="none" /><line stroke="#e1ed5e" stroke-width="0.3" x1="26.387840678322718" x2="22.05771365940052" y1="57.49999999999999" y2="54.99999999999999" /><path d="M 25.521815274538284 56.99999999999999 a86.0,86.0 0 0,1 29.574782752854787,-30.34633250058573" fill="none" id="id23" stroke="none" /><text fill="#e1ed5e" style="font-size:6.75px; font-family:Arial;" text-anchor="middle"><textPath startOffset="21.40746469413373" xlink:href="#id23">November</textPath></text><path d="M 81.81346652052679 89.5 l -15.341525575184576 -8.857433920612346 a38.71486784122469,38.71486784122469 0 0,0 0.3372365303338643,-0.5727013554545324 l 15.187215334720934 9.11948644436045" fill="#ffcf13" stroke="none" /><path d="M 82.18462484594161 88.88188828441811 l -15.176770459043322 -9.471427235533008 a38.88972597454993,38.88972597454993 0 0,0 0.35830828350440513,-0.5633201350929403 l 15.011944483913027 9.730561045304622" fill="#ffd113" stroke="none" /><path d="M 83.2033758604659 87.39550010848427 l -50.389872418602316 -37.8134996745472 a84.0,84.0 0 0,0 0.875392090582773,-1.1459163470364628 l 49.73332835066524 38.672936934824556" fill="#4dd2ff" stroke="none" /><path d="M 83.8745106332314 86.54754324733833 l -11.847135842297682 -9.883302077632045 a36.428359848784325,36.428359848784325 0 0,0 0.40471116167812055,-0.4767487308250846 l 11.675730117112446 10.085217590906687" fill="#ffb110" stroke="none" /><path d="M 84.10781606972428 86.27271002978789 l -11.712268221043571 -10.11677833484376 a36.47664145601465,36.47664145601465 0 0,0 0.41338271859432485,-0.4703536501413384 l 11.536874438490653 10.316344262796397" fill="#ffb110" stroke="none" /><path d="M 84.58840730492382 85.73525988315684 l -11.299607979803364 -10.458748452753957 a36.39696592498727,36.39696592498727 0 0,0 0.4283475141933481,-0.4548902161486445 l 11.118404631873744 10.651180128847113" fill="#ffb010" stroke="none" /><path d="M 85.08716467003674 85.21462403516908 l -11.516070694881174 -11.417643331666119 a37.2167340577146,37.2167340577146 0 0,0 0.4537040297689916,-0.449826240850062 l 11.318374744982206 11.613649582744854" fill="#ffbb11" stroke="none" /><path d="M 85.34317274990677 84.96080404539775 l -14.15281878641138 -14.522038870142435 a41.277867061082304,41.277867061082304 0 0,0 0.5117030724187692,-0.4901999681853933 l 13.901443228127311 14.762850968633396" fill="#fff016" stroke="none" /><path d="M 87.25179093698888 83.31218511350988 l -11.234873733945125 -14.706810362026042 a39.5070975261462,39.5070975261462 0 0,0 0.5424644518321745,-0.40707543774683325 l 10.9807562932022 14.897504827036876" fill="#ffd914" stroke="none" /><path d="M 87.54013794807813 83.09580414077388 l -9.5338580665329 -12.934509497709602 a37.06847801066219,37.06847801066219 0 0,0 0.5154618807451601,-0.3731546503727598 l 9.310415175413771 13.096264919455441" fill="#ffb911" stroke="none" /><path d="M 88.12776184653039 82.6780497279521 l -8.567225274694026 -12.49983771040782 a36.15398600018786,36.15398600018786 0 0,0 0.5149424482259842,-0.34647626031773837 l 8.351386538371052 12.645063644782669" fill="#ffad10" stroke="none" /><path d="M 88.4268655584334 82.4767994020092 l -16.246507354710825 -24.5992828330778 a50.48005626060488,50.48005626060488 0 0,0 0.7271877287288878,-0.4713543001291754 l 15.821833993724912 24.874550974910886" fill="#9fff22" stroke="none" /><path d="M 89.03521579738668 82.08984904055464 l -8.369415863252305 -13.670811826602044 a37.02929249500494,37.02929249500494 0 0,0 0.544978159907603,-0.3272437265301487 l 8.133504946787268 13.812469553668116" fill="#ffb911" stroke="none" /><line stroke="#e1ed5e" stroke-width="0.3" x1="56.869717070023135" x2="54.33264160355391" y1="26.7553504044142" y2="22.446841604673864" /><path d="M 56.362301976729285 25.89364864446614 a86.0,86.0 0 0,1 42.16139366436587,-11.88097634709845" fill="none" id="id24" stroke="none" /><text fill="#e1ed5e" style="font-size:6.75px; font-family:Arial;" text-anchor="middle"><textPath startOffset="22.145653131862474" xlink:href="#id24">December</textPath></text><path d="M 89.65649057296885 81.72400993836675 l -7.414562835871595 -13.100822081296144 a36.053480702245075,36.053480702245075 0 0,0 0.5412413965992647,-0.3002174789947108 l 7.188577251116228 13.226172475724" fill="#ffac0f" stroke="none" /><path d="M 90.28995756902619 81.37971332152246 l -9.921745952011404 -19.026256094222674 a42.4578531940919,42.4578531940919 0 0,0 0.6491457564335209,-0.331458448581597 l 9.593672973864301 19.193772494477102" fill="#ffff18" stroke="none" /><path d="M 90.61103034731259 81.2157712731953 l -14.317979973191534 -28.645551180928223 a53.02455546876322,53.02455546876322 0 0,0 0.8176885155235581,-0.3999724278366208 l 13.824131208405923 28.887117358862056" fill="#82ff25" stroke="none" /><path d="M 91.26138138417902 80.90454125486306 l -6.655749459763044 -14.54401374111604 a36.99460335778628,36.99460335778628 0 0,0 0.579734672939047,-0.25930794527829387 l 6.405101383968378 14.656125437304178" fill="#ffb811" stroke="none" /><path d="M 91.92203290615298 80.6158196554323 l -6.265191556074561 -15.034178971676786 a37.2873927498147,37.2873927498147 0 0,0 0.5929504029828818,-0.24114776687417988 l 6.006186691901239 15.139513995130256" fill="#ffbc11" stroke="none" /><path d="M 92.25597844496254 80.48000691201159 l -6.653477730644304 -16.77111025456504 a39.04269672424154,39.04269672424154 0 0,0 0.6251065517020488,-0.2418046430165434 l 6.364598916448726 16.882854785719623" fill="#ffd313" stroke="none" /><path d="M 92.93061703081487 80.22567764915836 l -11.696078720684689 -32.71601381220659 a55.74386013673416,55.74386013673416 0 0,0 0.903831553356598,-0.31439953187011055 l 11.132741395283086 32.91197177664528" fill="#65ff29" stroke="none" /><path d="M 93.61358852112211 79.99465700312896 l -4.82149080079371 -15.103251261706058 a36.85417838351657,36.85417838351657 0 0,0 0.6043372163897299,-0.18722521445410673 l 4.5615129515323645 15.183793063966807" fill="#ffb610" stroke="none" /><path d="M 93.95794788825049 79.88797359093562 l -5.387550317095951 -17.9334027998349 a39.725187165963575,39.725187165963575 0 0,0 0.6547845616078234,-0.190598242951591 l 5.078905743106503 18.023244737089012" fill="#ffdc14" stroke="none" /><path d="M 94.6519064749342 79.69241777938228 l -4.048106222782464 -15.371318689857352 a36.895427086306555,36.895427086306555 0 0,0 0.6138603299116439,-0.156040895381394 l 3.7836405996454423 15.438544817074009" fill="#ffb711" stroke="none" /><path d="M 95.35216902796891 79.52079915486377 l -8.374684235771285 -36.90040397575135 a58.838804812289226,58.838804812289226 0 0,0 0.9869161150523879,-0.21509377383783093 l 7.740005704099779 37.038729207722895" fill="#44ff2d" stroke="none" /><path d="M 96.05791012581881 79.37332000966035 l -2.998317616432461 -15.688464737602219 a36.97240853321745,36.97240853321745 0 0,0 0.6244204344615916,-0.11379020369797922 l 2.728562448419831 15.737623115231559" fill="#ffb811" stroke="none" /><path d="M 96.41257539226777 79.30868818359171 l -2.7420603104356576 -15.8154751964216 a37.051422068922534,37.051422068922534 0 0,0 0.6276202082757907,-0.10327466643428276 l 2.470162599106794 15.860215861351552" fill="#ffb911" stroke="none" /><path d="M 97.12497278360702 79.19773525538626 l -2.198274519821451 -15.90561935620084 a37.05680970706345,37.05680970706345 0 0,0 0.6308872057260806,-0.08168097958312794 l 1.9249094922045764 15.941011931984361" fill="#ffb911" stroke="none" /><path d="M 97.84075906011542 79.11130261209362 l -3.000042737699195 -29.02269206785906 a50.177335575644854,50.177335575644854 0 0,0 0.8575556022035966,-0.08121140712587911 l 2.5013875721105827 29.069915230490125" fill="#a2ff22" stroke="none" /><path d="M 98.9189461498227 79.02784411241856 l -0.8234919712229046 -15.975524244075473 a36.99673447612705,36.99673447612705 0 0,0 0.6345367000091656,-0.027249736141775404 l 0.5491295106129189 15.987306548643078" fill="#ffb811" stroke="none" /><path d="M 99.27912038922189 79.0123766808444 l -0.6224952314273112 -18.123269461131027 a39.133956994376994,39.133956994376994 0 0,0 0.6715884318334074,-0.01729773571585651 l 0.31129348552315983 18.13128491419693" fill="#ffd413" stroke="none" /></svg>