<?xml version="1.0" encoding="utf-8" ?>
<svg baseProfile="full" height="200mm" version="1.1" viewBox="0,0,200,200" width="200mm" xmlns="http://www.w3.org/2000/svg" xmlns:ev="http://www.w3.org/2001/xml-events" xmlns:xlink="http://www.w3.org/1999/xlink"><defs /><rect fill="#1a1a1a" height="200" width="200" x="0" y="0" /><text alignment-baseline="middle" fill="#e1ed5e" style="dominant-baseline: central; font-size:9.0px; font-family:Arial;" text-anchor="middle" x="100.0" y="100.0">2026</text><line stroke="#e1ed5e" stroke-width="0.3" x1="100.0" x2="100.0" y1="15.0" y2="10.0" /><path d="M 100.0 14.0 a86.0,86.0 0 0,1 42.46469731375804,11.215312516191453" fill="none" id="id109" stroke="none" /><text fill="#e1ed5e" style="font-size:6.75px; font-family:Arial;" text-anchor="middle"><textPath startOffset="22.20632615414155" xlink:href="#id109">January</textPath></text><path d="M 100.0 79.0 l 0.0 -53.33717258261933 a74.33717258261933,74.33717258261933 0 0,0 1.2795922272823759,0.011013854281903117 l -0.9181117480098474 53.329270104945984" fill="#38ff7e" stroke="none" /><path d="M 100.72285384407766 79.0124445844662 l 1.5002889043623602 -43.55983824059549 a64.5856670746634,64.5856670746634 0 0,0 1.1107478933459616,0.047831140807736906 l -2.2498776300976533 43.52755937326356" fill="#9eff22" stroke="none" /><path d="M 101.08401301168833 79.027996857942 l 2.3611714017260703 -45.680719255216815 a66.74170134638922,66.74170134638922 0 0,0 1.146806608132838,0.06917850639557384 l -3.14714005869852 45.63330747944094" fill="#74ff27" stroke="none" /><path d="M 102.16513564639614 79.11191278185805 l 4.514109064873657 -43.5497443387594 a64.78307221542227,64.78307221542227 0 0,0 1.1082017423196984,0.12451937815336817 l -5.263077510703081 43.465589007135435" fill="#9aff23" stroke="none" /><path d="M 102.88285421437855 79.19881850522331 l 8.648562643135682 -62.40354448433004 a84.0,84.0 0 0,0 1.430524078285377,0.2108220633561242 l -9.721455701849713 62.245427936812945" fill="#4dd2ff" stroke="none" /><path d="M 103.59715602781102 79.31037775812273 l 9.604802853793396 -55.24357053636528 a77.07231334149327,77.07231334149327 0 0,0 1.3051090786724282,0.2385003420800949 l -10.554307053568726 55.07005471293445" fill="#3effb3" stroke="none" /><path d="M 104.307194497241 79.44645832069477 l 11.746146423051217 -56.05154590349964 a78.26908200734394,78.26908200734394 0 0,0 1.3162521802246527,0.2876817451140151 l -12.709241327429398 55.84105066028975" fill="#40ffc9" stroke="none" /><path d="M 104.66035177308747 79.52364482259891 l 9.617323242870851 -42.25597898298439 a64.33659730722155,64.33659730722155 0 0,0 1.0777186187672017,0.2550611773701418 l -10.343265548600575 42.08417189347338" fill="#a2ff22" stroke="none" /><path d="M 105.71112130821622 79.79150937346287 l 16.201199877585452 -57.32706034344402 a80.57239902080784,80.57239902080784 0 0,0 1.3314005067481753,0.3886723173255644 l -17.185590602057054 57.03968969719975" fill="#45fff3" stroke="none" /><path d="M 106.0581310904928 79.89281104454417 l 12.453129862064023 -41.33245574964649 a64.16772337821298,64.16772337821298 0 0,0 1.0548398433338821,0.32774387402108834 l -13.162755078108622 41.11197174074288" fill="#a6ff21" stroke="none" /><path d="M 107.76421540070413 80.48803036053334 l 16.57427156621548 -41.65220397761546 a65.82870257037943,65.82870257037943 0 0,0 1.0492346949702083,0.42800917679258776 l -17.288790130774075 41.36073391463929" fill="#85ff25" stroke="none" /><path d="M 109.41281617654863 81.2277094730956 l 19.558495556267697 -39.00615437133191 a64.63501835985312,64.63501835985312 0 0,0 0.9902685377043321,0.507254007250836 l -20.227024581560784 38.66370783876857" fill="#9dff22" stroke="none" /><line stroke="#e1ed5e" stroke-width="0.3" x1="143.23703022742887" x2="145.7803849466894" y1="26.81831364943548" y2="22.513508569990506" /><path d="M 143.74570117128098 25.957352633546492 a86.0,86.0 0 0,1 28.547481713284135,27.462654790039103" fill="none" id="id110" stroke="none" /><text fill="#e1ed5e" style="font-size:6.75px; font-family:Arial;" text-anchor="middle"><textPath startOffset="19.985693538727396" xlink:href="#id110">February</textPath></text><path d="M 110.99172775467656 82.1063720568725 l 22.624123900635478 -36.830211287297494 a64.22401468788249,64.22401468788249 0 0,0 0.9370003837204597,0.5867495543251714 l -23.2547434367282 36.43531739164938" fill="#a5ff21" stroke="none" /><path d="M 111.90073688211348 82.69761687909136 l 15.948881052135691 -23.187946515194707 a49.14334149326805,49.14334149326805 0 0,0 0.6928482434744454,0.48538447156818104 l -16.34566043519379 22.909977200862592" fill="#ff0000" stroke="none" /><line stroke="#e1ed5e" stroke-width="0.3" x1="172.23445277983987" x2="176.4835382374775" y1="55.19839476539836" y2="52.563006222186495" /><path d="M 173.08426987136738 54.67131705675599 a86.0,86.0 0 0,1 12.851231095245387,41.99856678651699" fill="none" id="id111" stroke="none" /><text fill="#e1ed5e" style="font-size:6.75px; font-family:Arial;" text-anchor="middle"><textPath startOffset="22.20632615414155" xlink:href="#id111">March</textPath></text><line stroke="#e1ed5e" stroke-width="0.3" x1="184.98032266829074" x2="189.97916517819016" y1="98.17113171792111" y2="98.06355123074" /><path d="M 185.9800911702706 98.14961562048488 a86.0,86.0 0 0,1 -9.607161424134198,41.387399972396054" fill="none" id="id112" stroke="none" /><text fill="#e1ed5e" style="font-size:6.75px; font-family:Arial;" text-anchor="middle"><textPath startOffset="21.466115282336823" xlink:href="#id112">April</textPath></text><line stroke="#e1ed5e" stroke-width="0.3" x1="174.80103733775053" x2="179.2010983576182" y1="140.37084112569926" y2="142.7455964860345" /><path d="M 175.68104954172406 140.8457921977663 a86.0,86.0 0 0,1 -30.038265399797805,32.042727171017184" fill="none" id="id113" stroke="none" /><text fill="#e1ed5e" style="font-size:6.75px; font-family:Arial;" text-anchor="middle"><textPath startOffset="22.206326154141568" xlink:href="#id113">May</textPath></text><line stroke="#e1ed5e" stroke-width="0.3" x1="143.8653032363475" x2="146.44561519142675" y1="172.8068346515853" y2="177.08958963109032" /><path d="M 144.38136562736335 173.6633856474863 a86.0,86.0 0 0,1 -40.68145358897372,12.25698825130547" fill="none" id="id114" stroke="none" /><text fill="#e1ed5e" style="font-size:6.75px; font-family:Arial;" text-anchor="middle"><textPath startOffset="21.466115282336833" xlink:href="#id114">June</textPath></text><line stroke="#e1ed5e" stroke-width="0.3" x1="102.19456741930631" x2="102.32365962044197" y1="184.97166512339345" y2="189.96999836594603" /><path d="M 102.22038585953345 185.97133177190398 a86.0,86.0 0 0,1 -42.740103519485714,-10.115201625700543" fill="none" id="id115" stroke="none" /><text fill="#e1ed5e" style="font-size:6.75px; font-family:Arial;" text-anchor="middle"><textPath startOffset="22.20632615414155" xlink:href="#id115">July</textPath></text><line stroke="#e1ed5e" stroke-width="0.3" x1="58.666819895761336" x2="56.23545636021788" y1="174.27360380694188" y2="178.64263932499728" /><path d="M 58.180547188652646 175.14741091055294 a86.0,86.0 0 0,1 -31.652253787137756,-30.449443065178592" fill="none" id="id116" stroke="none" /><text fill="#e1ed5e" style="font-size:6.75px; font-family:Arial;" text-anchor="middle"><textPath startOffset="22.20632615414155" xlink:href="#id116">August</textPath></text><line stroke="#e1ed5e" stroke-width="0.3" x1="26.63291911575756" x2="22.317208475507996" y1="142.92168965132927" y2="145.44649492493687" /><path d="M 25.769776987707644 143.4266507060508 a86.0,86.0 0 0,1 -11.730757126820373,-40.83630448921669" fill="none" id="id117" stroke="none" /><text fill="#e1ed5e" style="font-size:6.75px; font-family:Arial;" text-anchor="middle"><textPath startOffset="21.46611528233685" xlink:href="#id117">September</textPath></text><line stroke="#e1ed5e" stroke-width="0.3" x1="15.007084014347285" x2="10.007500721073583" y1="101.09737516637583" y2="101.16192664675087" /><path d="M 14.007167355692545 101.11028546245083 a86.0,86.0 0 0,1 10.666146001902534,-42.60595125391555" fill="none" id="id118" stroke="none" /><text fill="#e1ed5e" style="font-size:6.75px; font-family:Arial;" text-anchor="middle"><textPath startOffset="22.20632615414155" xlink:href="#id118">October</textPath></text><line stroke="#e1ed5e" stroke-width="0.3" x1="26.266209847984243" x2="21.928928074336255" y1="57.711370442889674" y2="55.22380399835377" /><path d="M 25.398753493254645 57.213857153982495 a86.0,86.0 0 0,1 29.58750427330803,-30.492523968695096" fill="none" id="id119" stroke="none" /><text fill="#e1ed5e" style="font-size:6.75px; font-family:Arial;" text-anchor="middle"><textPath startOffset="21.46611528233685" xlink:href="#id119">November</textPath></text><line stroke="#e1ed5e" stroke-width="0.3" x1="56.762969772571076" x2="54.21961505331055" y1="26.818313649435495" y2="22.513508569990535" /><path d="M 56.25429882871897 25.957352633546506 a86.0,86.0 0 0,1 42.265352541879196,-11.944610805530505" fill="none" id="id120" stroke="none" /><text fill="#e1ed5e" style="font-size:6.75px; font-family:Arial;" text-anchor="middle"><textPath startOffset="22.20632615414155" xlink:href="#id120">December</textPath></text></svg>